<svg xmlns="http://www.w3.org/2000/svg" xmlns:xlink="http://www.w3.org/1999/xlink" width="596.337" height="312.873" viewBox="0 0 447.253 234.655"><path stroke-width=".797" stroke-miterlimit="10" fill="none" stroke="#000" d="M.398 212.997H191.03"/><path stroke-width=".638" stroke-linecap="round" stroke-linejoin="round" fill="none" stroke="#000" d="M189.477 210.925c.13.777 1.554 1.942 1.943 2.072-.388.13-1.813 1.295-1.943 2.072"/><symbol id="a"><path d="M.305.313c.006.026.029.118.099.118.005 0 .029 0 .05-.013A.058.058 0 0 1 .406.364c0-.016.011-.035.038-.035.022 0 .054.018.054.058 0 .052-.059.066-.093.066C.347.453.312.4.3.377a.11.11 0 0 1-.108.076C.088.453.031.324.031.299c0-.01.01-.01.012-.01.008 0 .011.002.013.011.034.106.1.131.134.131.019 0 .054-.009.054-.067C.244.333.227.266.19.126.174.064.139.022.095.022c-.006 0-.029 0-.05.013C.07.04.092.061.092.089.092.116.07.124.055.124A.057.057 0 0 1 0 .066C0 .02.05 0 .094 0 .16 0 .196.07.199.076A.11.11 0 0 1 .307 0c.103 0 .16.129.16.154 0 .01-.009.01-.012.01C.446.164.444.16.442.153.409.046.341.022.309.022.27.022.254.054.254.088c0 .022.006.044.017.088l.034.137z"/></symbol><use xlink:href="#a" transform="matrix(9.9626 0 0 -9.9626 195.745 215.25)"/><path stroke-width=".797" stroke-miterlimit="10" fill="none" stroke="#000" d="M21.658 234.257V43.624"/><path stroke-width=".638" stroke-linecap="round" stroke-linejoin="round" fill="none" stroke="#000" d="M19.586 45.178c.777-.13 1.943-1.554 2.072-1.943.13.389 1.295 1.813 2.072 1.943"/><symbol id="b"><path d="M.457.586C.461.6.461.602.461.609c0 .018-.014.027-.029.027A.043.043 0 0 1 .397.615 1.87 1.87 0 0 1 .363.481L.318.301C.314.286.271.216.205.216.154.216.143.26.143.297c0 .046.017.108.051.196.016.041.02.052.02.072a.08.08 0 0 1-.082.082C.037.647 0 .502 0 .493c0-.01.01-.01.012-.01.01 0 .011.002.016.018.027.094.067.124.101.124.008 0 .025 0 .025-.032 0-.025-.01-.051-.017-.07a.66.66 0 0 1-.058-.21c0-.089.063-.119.122-.119.039 0 .073.017.101.045C.289.187.277.138.237.085.211.051.173.022.127.022.113.022.068.025.051.064c.016 0 .029 0 .043.012.01.009.02.022.02.041 0 .031-.027.035-.037.035C.054.152.021.136.021.087.021.037.065 0 .127 0 .23 0 .333.091.361.204l.096.382z"/></symbol><use xlink:href="#b" transform="matrix(9.9626 0 0 -9.9626 19.326 39.304)"/><path stroke-width=".399" stroke-miterlimit="10" fill="none" stroke="#000" d="M149.219 208.745v8.504"/><symbol id="c"><path d="M.333.389C.315.426.286.453.241.453.124.453 0 .306 0 .16 0 .066.055 0 .133 0c.02 0 .07.004.13.075A.09.09 0 0 1 .354 0c.035 0 .058.023.074.055.017.036.03.097.03.099 0 .01-.009.01-.012.01C.436.164.435.16.432.146.415.081.397.022.356.022c-.027 0-.03.026-.03.046 0 .022.002.03.013.074l.022.09.036.14C.404.4.404.402.404.406c0 .017-.012.027-.029.027C.351.433.336.411.333.389M.268.13C.263.112.263.11.248.093.204.038.163.022.135.022c-.05 0-.064.055-.064.094 0 .05.032.173.055.219.031.059.076.096.116.096.065 0 .079-.082.079-.088C.321.337.319.331.318.326L.268.13z"/></symbol><use xlink:href="#c" transform="matrix(9.9626 0 0 -9.9626 146.982 225.168)"/><path d="M152.436 149.219a3.217 3.217 0 1 0-6.434 0 3.217 3.217 0 0 0 6.434 0zm-3.217 0" fill="red"/><path stroke-width=".399" stroke-miterlimit="10" fill="none" stroke="#000" d="M152.436 149.219a3.217 3.217 0 1 0-6.434 0 3.217 3.217 0 0 0 6.434 0zm-3.217 0"/><symbol id="d"><path d="M.232.01c0 .003 0 .005-.017.022C.09.158.058.347.058.5c0 .174.038.348.161.473.013.012.013.014.013.017 0 .007-.004.01-.01.01-.01 0-.1-.068-.159-.195A.727.727 0 0 1 0 .5C0 .422.011.301.066.188A.432.432 0 0 1 .222 0c.006 0 .01.003.01.01z"/></symbol><use xlink:href="#d" transform="scale(9.9625 -9.9625) rotate(45 25.965 8.429)"/><use xlink:href="#c" transform="scale(9.9625 -9.9625) rotate(45 25.512 8.707)"/><symbol id="e"><path d="M.117.194c0 .064-.024.105-.064.105C.018.299 0 .272 0 .246S.017.193.053.193c.016 0 .028.006.038.014l.002.002C.094.209.095.208.095.194A.255.255 0 0 0 .023.022C.017.016.016.015.016.011.016.004.021 0 .026 0c.012 0 .091.079.091.194z"/></symbol><use xlink:href="#e" transform="scale(9.9625 -9.9625) rotate(45 25.444 9.492)"/><symbol id="f"><path d="M.314.605H.4c.02 0 .03 0 .03.02C.43.636.42.636.403.636H.32L.341.75a.953.953 0 0 0 .024.104c.009.019.026.034.047.034.004 0 .03 0 .049-.018A.055.055 0 0 1 .407.816c0-.023.018-.035.037-.035.026 0 .055.022.055.06C.499.887.453.91.412.91.378.91.315.892.285.793.279.772.276.762.252.636H.183c-.019 0-.03 0-.03-.019 0-.012.009-.012.028-.012h.066L.172.21C.154.113.137.022.085.022c-.004 0-.029 0-.048.018a.054.054 0 0 1 .055.054c0 .023-.018.035-.037.035C.029.129 0 .107 0 .069 0 .024.044 0 .085 0 .14 0 .18.059.198.097a.894.894 0 0 1 .056.191l.06.317z"/></symbol><use xlink:href="#f" transform="scale(9.9625 -9.9625) rotate(45 25.336 9.793)"/><use xlink:href="#d" transform="scale(9.9625 -9.9625) rotate(45 25.069 10.592)"/><use xlink:href="#c" transform="scale(9.9625 -9.9625) rotate(45 24.615 10.871)"/><symbol id="g"><path d="M.232.5a.729.729 0 0 1-.066.312A.432.432 0 0 1 .01 1C.004 1 0 .996 0 .99 0 .987 0 .985.019.967.117.868.174.709.174.5.174.329.137.153.013.027 0 .015 0 .013 0 .01 0 .004.004 0 .01 0c.01 0 .1.068.159.195C.22.305.232.416.232.5z"/></symbol><use xlink:href="#g" transform="scale(9.9625 -9.9625) rotate(45 24.631 11.65)"/><use xlink:href="#g" transform="scale(9.9625 -9.9625) rotate(45 24.437 12.119)"/><path stroke-width=".797" stroke-miterlimit="10" fill="none" stroke="#00f" d="M.398 130.62s5.76.956 7.972 1.492c2.213.535 5.76 1.615 7.973 2.371 2.212.756 5.76 2.149 7.973 3.078 2.212.93 5.76 2.563 7.972 3.62 2.212 1.057 5.76 2.86 7.973 3.997 2.212 1.137 5.76 3.029 7.972 4.2 2.212 1.17 5.76 3.08 7.973 4.238 2.212 1.157 5.76 3.008 7.972 4.106 2.213 1.098 5.76 2.817 7.973 3.81 2.212.991 5.76 2.501 7.972 3.34 2.213.84 5.76 2.067 7.973 2.706 2.212.64 5.76 1.51 7.972 1.903 2.213.393 5.76.83 7.973.93 2.212.101 5.76.031 7.972-.208 2.213-.24 5.76-.89 7.973-1.516 2.212-.626 5.76-1.935 7.972-2.993 2.213-1.059 5.76-3.098 7.973-4.636 2.212-1.538 5.76-4.385 7.973-6.45 2.212-2.063 5.76-5.791 7.972-8.428 2.212-2.638 5.76-7.322 7.973-10.579 2.212-3.256 5.76-8.97 7.972-12.894 2.213-3.923 5.76-10.744 7.973-15.38 2.212-4.636 5.76-12.638 7.972-18.033 2.213-5.396 7.973-20.856 7.973-20.856"/><path stroke-width=".797" stroke-miterlimit="10" fill="none" stroke="#0f0" d="m106.698 195.99 3.544-3.898 3.543-3.897 3.543-3.897 3.543-3.898 3.543-3.897 3.543-3.897 3.543-3.898 3.543-3.897 3.544-3.898 3.543-3.897 3.543-3.897 3.543-3.898 3.543-3.897 3.543-3.897 3.543-3.897 3.544-3.898 3.543-3.897 3.543-3.897a327333.912 327333.912 0 0 0 7.086-7.795l3.543-3.898 3.543-3.897 3.543-3.897 3.544-3.898"/><use xlink:href="#b" transform="matrix(9.9626 0 0 -9.9626 98.35 204.788)"/><symbol id="h"><path d="M.631.194c.015 0 .034 0 .034.02s-.019.02-.033.02H.033C.019.234 0 .234 0 .214s.019-.02.034-.02h.597M.632 0c.014 0 .033 0 .033.02S.646.04.631.04H.034C.019.04 0 .04 0 .02S.019 0 .033 0h.599z"/></symbol><use xlink:href="#h" transform="matrix(9.9626 0 0 -9.9626 106.629 201.421)"/><use xlink:href="#f" transform="matrix(9.9626 0 0 -9.9626 117.115 204.788)"/><symbol id="i"><path d="M.242.431a.07.07 0 0 1 .009.032c0 .031-.028.055-.059.055C.154.518.142.487.137.471L.005.038A.142.142 0 0 1 0 .022C0 .01.031 0 .039 0c.007 0 .008.002.015.017l.188.414z"/></symbol><use xlink:href="#i" transform="matrix(6.9738 0 0 -6.9738 122.872 198.845)"/><use xlink:href="#d" transform="matrix(9.9626 0 0 -9.9626 126.318 205.237)"/><use xlink:href="#c" transform="matrix(9.9626 0 0 -9.9626 129.604 202.856)"/><use xlink:href="#g" transform="matrix(9.9626 0 0 -9.9626 135.04 205.237)"/><use xlink:href="#d" transform="matrix(9.9626 0 0 -9.9626 139.334 205.237)"/><use xlink:href="#a" transform="matrix(9.9626 0 0 -9.9626 142.51 202.856)"/><symbol id="j"><path d="M.576 0c.017 0 .035 0 .035.02S.593.04.576.04H.035C.018.04 0 .04 0 .02S.018 0 .035 0h.541z"/></symbol><use xlink:href="#j" transform="matrix(9.9626 0 0 -9.9626 150.956 200.455)"/><use xlink:href="#c" transform="matrix(9.9626 0 0 -9.9626 160.49 202.856)"/><symbol id="k"><path d="M.353.313h.279c.014 0 .033 0 .033.02s-.019.02-.033.02H.353v.28c0 .014 0 .033-.02.033S.313.647.313.633v-.28h-.28C.019.353 0 .353 0 .333s.019-.02.033-.02h.28v-.28c0-.014 0-.033.02-.033s.02.019.02.033v.28z"/></symbol><use xlink:href="#g" transform="matrix(9.9626 0 0 -9.9626 165.926 205.237)"/><use xlink:href="#k" transform="matrix(9.9626 0 0 -9.9626 172.003 203.573)"/><use xlink:href="#f" transform="matrix(9.9626 0 0 -9.9626 181.936 204.788)"/><use xlink:href="#d" transform="matrix(9.9626 0 0 -9.9626 188.344 205.237)"/><use xlink:href="#c" transform="matrix(9.9626 0 0 -9.9626 191.631 202.856)"/><use xlink:href="#g" transform="matrix(9.9626 0 0 -9.9626 197.067 205.237)"/><use xlink:href="#b" transform="matrix(9.9626 0 0 -9.9626 150.588 72.972)"/><use xlink:href="#h" transform="matrix(9.9626 0 0 -9.9626 158.866 69.605)"/><use xlink:href="#f" transform="matrix(9.9626 0 0 -9.9626 169.353 72.972)"/><use xlink:href="#d" transform="matrix(9.9626 0 0 -9.9626 175.76 73.42)"/><use xlink:href="#a" transform="matrix(9.9626 0 0 -9.9626 178.938 71.04)"/><use xlink:href="#g" transform="matrix(9.9626 0 0 -9.9626 184.91 73.42)"/><path stroke-width=".797" stroke-miterlimit="10" fill="none" stroke="#000" d="M133.756 164.681h30.925v-30.925h-30.925v30.925"/><path stroke-width=".399" stroke-dasharray="2.98883,2.98883" stroke-miterlimit="10" fill="none" stroke="#000" d="m133.756 164.681 100.503 48.316M133.756 133.756l100.503-90.84M164.681 164.681l239.659 48.316M164.681 133.756l239.659-90.84"/><path d="M234.26 212.997h170.08V42.917H234.26v170.08" fill="#fff"/><path stroke-width=".797" stroke-miterlimit="10" fill="none" stroke="#000" d="M234.26 212.997h170.08V42.917H234.26v170.08"/><path stroke-width=".797" stroke-miterlimit="10" fill="none" stroke="#00f" d="M234.26 200.98s5.12-3.286 7.086-4.597c1.967-1.311 5.12-3.47 7.087-4.853a428.273 428.273 0 0 0 7.087-5.113c1.966-1.456 5.12-3.851 7.087-5.382 1.966-1.53 5.12-4.043 7.087-5.649a486.412 486.412 0 0 0 7.087-5.927c1.966-1.682 5.12-4.439 7.087-6.198a526.26 526.26 0 0 0 7.086-6.48c1.967-1.839 5.12-4.851 7.087-6.77a582.545 582.545 0 0 0 7.087-7.055c1.967-1.998 5.12-5.27 7.087-7.35a652.67 652.67 0 0 0 7.087-7.647 677.082 677.082 0 0 0 7.087-7.94 706.276 706.276 0 0 0 7.087-8.25 748.761 748.761 0 0 0 7.087-8.557 790.134 790.134 0 0 0 7.087-8.871c1.966-2.506 5.12-6.591 7.087-9.186a871.74 871.74 0 0 0 7.087-9.513 939.989 939.989 0 0 0 7.087-9.835 980.584 980.584 0 0 0 7.086-10.155c1.967-2.865 5.12-7.534 7.087-10.492 1.967-2.957 5.12-7.771 7.087-10.823 1.967-3.052 5.12-8.026 7.087-11.172 1.967-3.147 7.087-11.505 7.087-11.505"/><path stroke-width=".797" stroke-miterlimit="10" fill="none" stroke="#0f0" d="m234.26 221.499 7.085-7.795 7.087-7.795 7.086-7.794 7.086-7.795 7.086-7.795 7.087-7.795 7.086-7.794 7.086-7.795 7.086-7.795 7.087-7.795 7.086-7.794a5499091.24 5499091.24 0 0 1 14.173-15.59l7.086-7.795 7.086-7.795c1.966-2.162 5.12-5.63 7.086-7.794l7.087-7.794 7.086-7.795 7.086-7.794 7.086-7.795 7.087-7.795 7.086-7.795 7.086-7.794 7.087-7.795"/><path d="M322.517 127.957a3.217 3.217 0 1 0-6.435 0 3.217 3.217 0 0 0 6.435 0zm-3.217 0" fill="red"/><path stroke-width=".399" stroke-miterlimit="10" fill="none" stroke="#000" d="M322.517 127.957a3.217 3.217 0 1 0-6.435 0 3.217 3.217 0 0 0 6.435 0zm-3.217 0"/></svg>