<svg xmlns="http://www.w3.org/2000/svg" xmlns:xlink="http://www.w3.org/1999/xlink" width="259.557" height="215.724" viewBox="0 0 194.668 161.793"><path stroke-width=".199" stroke-miterlimit="10" fill="none" stroke="#929292" d="M9.913 83.022V78.77m9.713 4.252V78.77m9.714 4.252V78.77m9.713 4.252V78.77m9.714 4.252V78.77m9.714 4.252V78.77m9.713 4.252V78.77m9.714 4.252V78.77m9.713 4.252V78.77m19.428 4.252V78.77m9.713 4.252V78.77m9.714 4.252V78.77m9.714 4.252V78.77m9.713 4.252V78.77m9.714 4.252V78.77m9.713 4.252V78.77m9.714 4.252V78.77m9.714 4.252V78.77M95.21 153.524h4.25m-4.25-8.07h4.25m-4.25-8.07h4.25m-4.25-8.07h4.25m-4.25-8.07h4.25m-4.25-8.069h4.25m-4.25-8.07h4.25m-4.25-8.07h4.25m-4.25-8.07h4.25m-4.25-16.139h4.25m-4.25-8.07h4.25m-4.25-8.07h4.25m-4.25-8.07h4.25m-4.25-8.07h4.25m-4.25-8.07h4.25m-4.25-8.069h4.25m-4.25-8.07h4.25m-4.25-8.07h4.25"/><path stroke-width=".399" stroke-miterlimit="10" fill="none" stroke="#000" d="M.199 80.896h192.28"/><path d="m194.471 80.896-3.188-1.594 1.196 1.594-1.196 1.594"/><path stroke-width=".399" stroke-miterlimit="10" fill="none" stroke="#000" d="M97.335 161.594V2.19"/><path d="m97.335.198-1.594 3.188 1.594-1.196 1.594 1.196"/><clipPath id="a"><path transform="matrix(1 0 0 -1 .199 161.594)" d="M0 0h194.272v161.396H0z"/></clipPath><g clip-path="url(#a)"><path stroke-width=".797" stroke-miterlimit="10" fill="none" stroke="#00f" d="m.199 95.69.292-.006.293-.007.292-.007.293-.007.292-.007.292-.007.293-.007.292-.008.292-.007.293-.008.292-.007.293-.008.292-.007.292-.008.293-.008.292-.008.293-.008.292-.008.292-.008.293-.009.292-.008.293-.008.292-.009.292-.009.293-.008.292-.01.292-.008.293-.01.292-.008.293-.01.292-.01.292-.009.293-.01.292-.01.293-.009.292-.01.292-.01.293-.01.292-.01.292-.011.293-.01.292-.012.293-.01.292-.011.292-.012.293-.01.292-.013.293-.011.292-.012.292-.012.293-.012.292-.012.293-.013.292-.012.292-.013.293-.013.292-.013.292-.013.293-.014.292-.014.293-.014.292-.014.292-.014.293-.015.292-.014.293-.015.292-.015.292-.016.293-.016.292-.016.293-.016.292-.016.292-.017.293-.017.292-.017.292-.017.293-.018.292-.018.293-.019.292-.018.292-.02.293-.019.292-.02.293-.02.292-.02.292-.02.293-.021.292-.022.293-.022.292-.022.292-.022.293-.023.292-.024.292-.024.293-.024.292-.025.293-.025.292-.026.292-.027.293-.027.292-.027.293-.028.292-.029.292-.029.293-.03.292-.03.292-.031.293-.032.292-.032.293-.034.292-.034.292-.034.293-.036.292-.036.293-.038.292-.038.292-.039.293-.04.292-.04.293-.043.292-.043.292-.044.293-.046.292-.046.292-.048.293-.05.292-.05.293-.052.292-.053.292-.055.293-.057.292-.058.293-.06.292-.062.292-.064.293-.066.292-.068.293-.07.292-.072.292-.075.293-.078.292-.08.292-.083.293-.086.292-.089.293-.093.292-.096.292-.1.293-.103.292-.108.293-.113.292-.117.292-.122.293-.128.292-.133.292-.14.293-.146.292-.153.293-.161.292-.169.292-.178.293-.187.292-.198.293-.209.292-.22.292-.235.293-.248.292-.265.293-.282.292-.302.292-.322.293-.346.292-.373.292-.402.293-.436.292-.472.293-.514.292-.563.292-.618.293-.682.292-.757.293-.845.292-.948.292-1.07.293-1.22.292-1.403.293-1.632.292-1.92.292-2.29.293-2.782.292-3.45.292-4.39.293-5.777.292-7.947.293-11.617.292-18.594.292-34.565.293-86.525.292-611.111M58.48 129.315l.147-.122.146-.122.147-.121.146-.122.147-.122.146-.121.147-.122.146-.121.147-.122.146-.122.146-.121.147-.122.146-.122.147-.121.146-.122.147-.122.146-.121.146-.122.147-.122.146-.121.147-.122.146-.122.147-.121.146-.122.146-.122.147-.121.146-.122.147-.122.146-.121.147-.122.146-.121.146-.122.147-.122.146-.121.147-.122.146-.122.147-.121.146-.122.146-.122.147-.121.146-.122.147-.122.146-.121.147-.122.146-.122.147-.121.146-.122.146-.122.147-.121.146-.122.147-.121.146-.122.147-.122.146-.121.146-.122.147-.122.146-.121.147-.122.146-.122.147-.121.146-.122.146-.122.147-.121.146-.122.147-.122.146-.121.147-.122.146-.122.146-.121.147-.122.146-.122.147-.121.146-.122.147-.121.146-.122.146-.122.147-.121.146-.122.147-.122.146-.121.147-.122.146-.122.146-.121.147-.122.146-.122.147-.121.146-.122.147-.122.146-.121.146-.122.147-.122.146-.121.147-.122.146-.122.147-.121.146-.122.147-.121.146-.122.146-.122.147-.121.146-.122.147-.122.146-.121.147-.122.146-.122.146-.121.147-.122.146-.122.147-.121.146-.122.147-.122.146-.121.146-.122.147-.122.146-.121.147-.122.146-.122.147-.121.146-.122.146-.121.147-.122.146-.122.147-.121.146-.122.147-.122.146-.121.146-.122.147-.122.146-.121.147-.122.146-.122.147-.121.146-.122.146-.122.147-.121.146-.122.147-.122.146-.121.147-.122.146-.122.147-.121.146-.122.146-.121.147-.122.146-.122.147-.121.146-.122.147-.122.146-.121.146-.122.147-.122.146-.121.147-.122.146-.122.147-.121.146-.122.146-.122.147-.121.146-.122.147-.122.146-.121.147-.122.146-.122.146-.121.147-.122.146-.121.147-.122.146-.122.147-.121.146-.122.146-.122.147-.121.146-.122.147-.122.146-.121.147-.122.146-.122.147-.121.146-.122.146-.122.147-.121.146-.122.147-.122.146-.121.147-.122.146-.121.146-.122.147-.122.146-.121.147-.122.146-.122.147-.121.146-.122.146-.122.147-.121.146-.122.147-.122.146-.121.147-.122M87.621 105.105H116.762M116.762 40.547H194.471"/><symbol id="b"><path d="M.314.605H.4c.02 0 .03 0 .03.02C.43.636.42.636.403.636H.32L.341.75a.953.953 0 0 0 .024.104c.009.019.026.034.047.034.004 0 .03 0 .049-.018A.055.055 0 0 1 .407.816c0-.023.018-.035.037-.035.026 0 .055.022.055.06C.499.887.453.91.412.91.378.91.315.892.285.793.279.772.276.762.252.636H.183c-.019 0-.03 0-.03-.019 0-.012.009-.012.028-.012h.066L.172.21C.154.113.137.022.085.022c-.004 0-.029 0-.048.018a.054.054 0 0 1 .055.054c0 .023-.018.035-.037.035C.029.129 0 .107 0 .069 0 .024.044 0 .085 0 .14 0 .18.059.198.097a.894.894 0 0 1 .056.191l.06.317z"/></symbol><use xlink:href="#b" transform="matrix(9.9626 0 0 -9.9626 155.596 20.872)" fill="#00f"/></g><path d="M118.755 105.105a1.993 1.993 0 1 0-3.985 0 1.993 1.993 0 0 0 3.985 0zm-1.993 0" fill="#00f"/><path stroke-width=".399" stroke-miterlimit="10" fill="none" stroke="#00f" d="M118.755 105.105a1.993 1.993 0 1 0-3.985 0 1.993 1.993 0 0 0 3.985 0zm-1.993 0"/><path d="M89.614 88.966a1.993 1.993 0 1 0-3.985 0 1.993 1.993 0 0 0 3.985 0zm-1.993 0" fill="#00f"/><path stroke-width=".399" stroke-miterlimit="10" fill="none" stroke="#00f" d="M89.614 88.966a1.993 1.993 0 1 0-3.985 0 1.993 1.993 0 0 0 3.985 0zm-1.993 0"/><path d="M60.473 129.315a1.993 1.993 0 1 0-3.985 0 1.993 1.993 0 0 0 3.985 0zm-1.992 0" fill="#fff"/><path stroke-width=".399" stroke-miterlimit="10" fill="none" stroke="#000" d="M60.473 129.315a1.993 1.993 0 1 0-3.985 0 1.993 1.993 0 0 0 3.985 0zm-1.992 0"/><path d="M89.614 105.105a1.993 1.993 0 1 0-3.985 0 1.993 1.993 0 0 0 3.985 0zm-1.993 0" fill="#fff"/><path stroke-width=".399" stroke-miterlimit="10" fill="none" stroke="#000" d="M89.614 105.105a1.993 1.993 0 1 0-3.985 0 1.993 1.993 0 0 0 3.985 0zm-1.993 0"/><path d="M118.755 40.547a1.993 1.993 0 1 0-3.985 0 1.993 1.993 0 0 0 3.985 0zm-1.993 0" fill="#fff"/><path stroke-width=".399" stroke-miterlimit="10" fill="none" stroke="#000" d="M118.755 40.547a1.993 1.993 0 1 0-3.985 0 1.993 1.993 0 0 0 3.985 0zm-1.993 0"/><symbol id="c"><path d="M.305.313c.006.026.029.118.099.118.005 0 .029 0 .05-.013A.058.058 0 0 1 .406.364c0-.016.011-.035.038-.035.022 0 .054.018.054.058 0 .052-.059.066-.093.066C.347.453.312.4.3.377a.11.11 0 0 1-.108.076C.088.453.031.324.031.299c0-.01.01-.01.012-.01.008 0 .011.002.013.011.034.106.1.131.134.131.019 0 .054-.009.054-.067C.244.333.227.266.19.126.174.064.139.022.095.022c-.006 0-.029 0-.05.013C.07.04.092.061.092.089.092.116.07.124.055.124A.057.057 0 0 1 0 .066C0 .02.05 0 .094 0 .16 0 .196.07.199.076A.11.11 0 0 1 .307 0c.103 0 .16.129.16.154 0 .01-.009.01-.012.01C.446.164.444.16.442.153.409.046.341.022.309.022.27.022.254.054.254.088c0 .022.006.044.017.088l.034.137z"/></symbol><use xlink:href="#c" transform="matrix(9.9626 0 0 -9.9626 185.544 77.487)"/><symbol id="d"><path d="M.457.586C.461.6.461.602.461.609c0 .018-.014.027-.029.027A.043.043 0 0 1 .397.615 1.87 1.87 0 0 1 .363.481L.318.301C.314.286.271.216.205.216.154.216.143.26.143.297c0 .046.017.108.051.196.016.041.02.052.02.072a.08.08 0 0 1-.082.082C.037.647 0 .502 0 .493c0-.01.01-.01.012-.01.01 0 .011.002.016.018.027.094.067.124.101.124.008 0 .025 0 .025-.032 0-.025-.01-.051-.017-.07a.66.66 0 0 1-.058-.21c0-.089.063-.119.122-.119.039 0 .073.017.101.045C.289.187.277.138.237.085.211.051.173.022.127.022.113.022.068.025.051.064c.016 0 .029 0 .043.012.01.009.02.022.02.041 0 .031-.027.035-.037.035C.054.152.021.136.021.087.021.037.065 0 .127 0 .23 0 .333.091.361.204l.096.382z"/></symbol><use xlink:href="#d" transform="matrix(9.9626 0 0 -9.9626 101.143 10.051)"/></svg>