<svg xmlns="http://www.w3.org/2000/svg" xmlns:xlink="http://www.w3.org/1999/xlink" width="259.553" height="224.296" viewBox="0 0 194.665 168.222"><path stroke-width=".199" stroke-miterlimit="10" fill="none" stroke="#929292" d="M69.582 153.63v-4.252m55.505 4.253v-4.253"/><path stroke-width=".399" stroke-miterlimit="10" fill="none" stroke="#000" d="M.2 151.504h192.277"/><path d="m194.47 151.504-3.189-1.594 1.196 1.594-1.196 1.594"/><path stroke-width=".399" stroke-miterlimit="10" fill="none" stroke="#000" d="M14.076 161.592V2.188"/><path d="m14.076.195-1.594 3.188 1.594-1.195 1.594 1.195"/><symbol id="a"><path d="M.333.389C.315.426.286.453.241.453.124.453 0 .306 0 .16 0 .066.055 0 .133 0c.02 0 .07.004.13.075A.09.09 0 0 1 .354 0c.035 0 .058.023.074.055.017.036.03.097.03.099 0 .01-.009.01-.012.01C.436.164.435.16.432.146.415.081.397.022.356.022c-.027 0-.03.026-.03.046 0 .022.002.03.013.074l.022.09.036.14C.404.4.404.402.404.406c0 .017-.012.027-.029.027C.351.433.336.411.333.389M.268.13C.263.112.263.11.248.093.204.038.163.022.135.022c-.05 0-.064.055-.064.094 0 .05.032.173.055.219.031.059.076.096.116.096.065 0 .079-.082.079-.088C.321.337.319.331.318.326L.268.13z"/></symbol><use xlink:href="#a" transform="matrix(9.9626 0 0 -9.9626 67.346 161.552)"/><use xlink:href="#a" transform="matrix(9.9626 0 0 -9.9626 113.893 164.18)"/><symbol id="b"><path d="M.353.313h.279c.014 0 .033 0 .033.02s-.019.02-.033.02H.353v.28c0 .014 0 .033-.02.033S.313.647.313.633v-.28h-.28C.019.353 0 .353 0 .333s.019-.02.033-.02h.28v-.28c0-.014 0-.033.02-.033s.02.019.02.033v.28z"/></symbol><use xlink:href="#b" transform="matrix(9.9626 0 0 -9.9626 121.532 164.898)"/><symbol id="c"><path d="M.232.694c0 .001 0 .011-.013.011C.196.705.123.697.097.695.089.694.078.693.078.675c0-.012.009-.012.024-.012.048 0 .05-.007.05-.017L.149.626.004.05C0 .036 0 .034 0 .028 0 .005.02 0 .029 0c.016 0 .032.012.037.026l.019.076.022.09a1.31 1.31 0 0 1 .028.112.295.295 0 0 0 .068.092.16.16 0 0 0 .096.035c.043 0 .054-.034.054-.07A.85.85 0 0 0 .291.137C.283.114.278.102.278.082A.08.08 0 0 1 .36 0c.094 0 .131.146.131.154 0 .01-.009.01-.012.01-.01 0-.01-.003-.015-.018C.449.093.417.022.362.022c-.017 0-.024.01-.024.033a.19.19 0 0 0 .018.071c.016.043.061.162.061.22 0 .065-.04.107-.115.107A.186.186 0 0 1 .154.376l.078.318z"/></symbol><use xlink:href="#c" transform="matrix(9.9626 0 0 -9.9626 131.484 164.18)"/><clipPath id="d"><path transform="matrix(1 0 0 -1 -41.429 322.988)" d="M41.63 161.396h194.268v161.397H41.63z"/></clipPath><g clip-path="url(#d)"><path stroke-width=".797" stroke-miterlimit="10" fill="none" stroke="#00f" d="m-41.429 322.988 1.255-9.56 1.255-9.34 1.255-9.122 1.256-8.906 1.255-8.691 1.255-8.48 1.255-8.27 1.255-8.064 1.255-7.859 1.255-7.656 1.256-7.455 1.255-7.257 1.255-7.062 1.255-6.867 1.255-6.676 1.255-6.487 1.255-6.3 1.256-6.115 1.255-5.932 1.255-5.753 1.255-5.574 1.255-5.398 1.255-5.225 1.255-5.054 1.256-4.884 1.255-4.718 1.255-4.553 1.255-4.39 1.255-4.231 1.255-4.073 1.255-3.917 1.256-3.763 1.255-3.613 1.255-3.463 1.255-3.317 1.255-3.173 1.255-3.03 1.255-2.89 1.256-2.752L8.777 90.5l1.255-2.484 1.255-2.353 1.255-2.224 1.255-2.097 1.255-1.973 1.256-1.851 1.255-1.732 1.255-1.613 1.255-1.499 1.255-1.385 1.255-1.274 1.256-1.166 1.255-1.06 1.255-.955 1.255-.853 1.255-.754 1.255-.656 1.255-.561 1.256-.468 1.255-.378 1.255-.289 1.255-.203 1.255-.118 1.255-.037 1.255.042 1.256.12 1.255.194 1.255.268 1.255.338 1.255.406 1.255.473 1.255.536 1.256.598 1.255.657 1.255.714 1.255.77 1.255.821 1.255.872 1.255.92 1.256.967 1.255 1.01 1.255 1.051 1.255 1.09 1.255 1.128 1.255 1.162 1.255 1.195 1.256 1.225 1.255 1.253 1.255 1.279 1.255 1.302 1.255 1.323 1.255 1.343 1.255 1.359 1.256 1.374 1.255 1.386 1.255 1.396 1.255 1.404 1.255 1.41 1.255 1.413 1.255 1.414 1.256 1.413 1.255 1.41 1.255 1.404 1.255 1.396 1.255 1.386 1.255 1.374 1.255 1.36 1.256 1.342 1.255 1.323 1.255 1.302 1.255 1.28 1.255 1.252 1.255 1.225 1.255 1.195 1.256 1.162 1.255 1.127 1.255 1.09 1.255 1.052 1.255 1.01 1.255.966 1.255.92 1.256.873 1.255.822 1.255.769 1.255.714 1.255.658 1.255.597 1.256.537 1.255.472 1.255.407 1.255.338 1.255.267 1.255.195 1.255.12 1.256.042 1.255-.037 1.255-.119 1.255-.202 1.255-.29 1.255-.377 1.255-.468 1.256-.56 1.255-.657 1.255-.754 1.255-.853 1.255-.955 1.255-1.06 1.255-1.165 1.256-1.275 1.255-1.385 1.255-1.498 1.255-1.614 1.255-1.73 1.255-1.852 1.255-1.973 1.256-2.097 1.255-2.224 1.255-2.353 1.255-2.483 1.255-2.617 1.255-2.753 1.255-2.89 1.256-3.03 1.255-3.172 1.255-3.317 1.255-3.463 1.255-3.613 1.255-3.763 1.255-3.917 1.256-4.072 1.255-4.23 1.255-4.391 1.255-4.553 1.255-4.718 1.255-4.884 1.255-5.054 1.256-5.224 1.255-5.399 1.255-5.574 1.255-5.752 1.255-5.933 1.255-6.115 1.255-6.3 1.256-6.486 1.255-6.676 1.255-6.867 1.255-7.062 1.255-7.257 1.255-7.455 1.255-7.655 1.256-7.859 1.255-8.063 1.255-8.27 1.255-8.48 1.255-8.692 1.255-8.905 1.255-9.122 1.256-9.34 1.255-9.56"/><path stroke-width=".797" stroke-miterlimit="10" fill="none" stroke="red" d="m-41.429-15.944 1.255 1.095 1.255 1.094 1.255 1.095 1.256 1.095 1.255 1.095 1.255 1.095 1.255 1.095 1.255 1.095 1.255 1.095 1.255 1.095 1.256 1.094 1.255 1.095 1.255 1.095 1.255 1.095L-22.602.48l1.255 1.095 1.255 1.095 1.256 1.095 1.255 1.095 1.255 1.095 1.255 1.094 1.255 1.095 1.255 1.095 1.255 1.095 1.256 1.095 1.255 1.095 1.255 1.095 1.255 1.095 1.255 1.095 1.255 1.095 1.255 1.094 1.256 1.095 1.255 1.095 1.255 1.095L2.5 22.377l1.255 1.095 1.255 1.095 1.255 1.095 1.256 1.095 1.255 1.094 1.255 1.095 1.255 1.095 1.255 1.095 1.255 1.095 1.255 1.095 1.256 1.095 1.255 1.095 1.255 1.095 1.255 1.095 1.255 1.094 1.255 1.095 1.256 1.095 1.255 1.095 1.255 1.095 1.255 1.095 1.255 1.095 1.255 1.095 1.255 1.095 1.256 1.095 1.255 1.094 1.255 1.095 1.255 1.095 1.255 1.095L38.9 54.13l1.255 1.095 1.256 1.095 1.255 1.095 1.255 1.095 1.255 1.094 1.255 1.095 1.255 1.095 1.255 1.095 1.256 1.095 1.255 1.095 1.255 1.095 1.255 1.095 1.255 1.095 1.255 1.095 1.255 1.094 1.256 1.095 1.255 1.095 1.255 1.095 1.255 1.095 1.255 1.095 1.255 1.095 1.255 1.095 1.256 1.095 1.255 1.095 1.255 1.094 1.255 1.095 1.255 1.095 1.255 1.095 1.255 1.095 1.256 1.095 1.255 1.095 1.255 1.095 1.255 1.095 1.255 1.095 1.255 1.094 1.255 1.095 1.256 1.095 1.255 1.095 1.255 1.095 1.255 1.095 1.255 1.095 1.255 1.095 1.255 1.095 1.256 1.094 1.255 1.095 1.255 1.095 1.255 1.095 1.255 1.095 1.255 1.095 1.255 1.095 1.256 1.095 1.255 1.095 1.255 1.095 1.255 1.094 1.255 1.095 1.255 1.095 1.255 1.095 1.256 1.095 1.255 1.095 1.255 1.095 1.255 1.095 1.255 1.095 1.255 1.094 1.256 1.095 1.255 1.095 1.255 1.095 1.255 1.095 1.255 1.095 1.255 1.095 1.255 1.095 1.256 1.095 1.255 1.095 1.255 1.094 1.255 1.095 1.255 1.095 1.255 1.095 1.255 1.095 1.256 1.095 1.255 1.095 1.255 1.095 1.255 1.095 1.255 1.095 1.255 1.094 1.255 1.095 1.256 1.095 1.255 1.095 1.255 1.095 1.255 1.095 1.255 1.095 1.255 1.095 1.255 1.095 1.256 1.094 1.255 1.095 1.255 1.095 1.255 1.095 1.255 1.095 1.255 1.095 1.255 1.095 1.256 1.095 1.255 1.095 1.255 1.095 1.255 1.094 1.255 1.095 1.255 1.095 1.255 1.095 1.256 1.095 1.255 1.095 1.255 1.095 1.255 1.095 1.255 1.095 1.255 1.095 1.255 1.094 1.256 1.095 1.255 1.095 1.255 1.095 1.255 1.095 1.255 1.095 1.255 1.095 1.255 1.095 1.256 1.095 1.255 1.094 1.255 1.095 1.255 1.095 1.255 1.095 1.255 1.095 1.255 1.095 1.256 1.095 1.255 1.095 1.255 1.095 1.255 1.095 1.255 1.094 1.255 1.095 1.255 1.095 1.256 1.095 1.255 1.095"/><symbol id="e"><path d="M.314.605H.4c.02 0 .03 0 .03.02C.43.636.42.636.403.636H.32L.341.75a.953.953 0 0 0 .024.104c.009.019.026.034.047.034.004 0 .03 0 .049-.018A.055.055 0 0 1 .407.816c0-.023.018-.035.037-.035.026 0 .055.022.055.06C.499.887.453.91.412.91.378.91.315.892.285.793.279.772.276.762.252.636H.183c-.019 0-.03 0-.03-.019 0-.012.009-.012.028-.012h.066L.172.21C.154.113.137.022.085.022c-.004 0-.029 0-.048.018a.054.054 0 0 1 .055.054c0 .023-.018.035-.037.035C.029.129 0 .107 0 .069 0 .024.044 0 .085 0 .14 0 .18.059.198.097a.894.894 0 0 1 .056.191l.06.317z"/></symbol><use xlink:href="#e" transform="matrix(9.9626 0 0 -9.9626 178.143 55.168)"/><symbol id="f"><path d="M.232.01c0 .003 0 .005-.017.022C.09.158.058.347.058.5c0 .174.038.348.161.473.013.012.013.014.013.017 0 .007-.004.01-.01.01-.01 0-.1-.068-.159-.195A.727.727 0 0 1 0 .5C0 .422.011.301.066.188A.432.432 0 0 1 .222 0c.006 0 .01.003.01.01z"/></symbol><use xlink:href="#f" transform="matrix(9.9626 0 0 -9.9626 28.773 87.896)"/><symbol id="g"><path d="M.117.194C.117.26.092.299.053.299A.051.051 0 0 1 0 .246C0 .219.02.193.053.193c.012 0 .025.004.035.013l.005.003C.094.209.095.208.095.194A.242.242 0 0 0 .027.027C.016.016.016.014.016.011.016.004.021 0 .026 0c.011 0 .091.077.091.194z"/></symbol><use xlink:href="#a" transform="matrix(9.9626 0 0 -9.9626 32.06 85.515)"/><use xlink:href="#g" transform="matrix(9.9626 0 0 -9.9626 37.788 87.328)"/><use xlink:href="#e" transform="matrix(9.9626 0 0 -9.9626 41.893 87.447)"/><use xlink:href="#f" transform="matrix(9.9626 0 0 -9.9626 48.291 87.896)"/><use xlink:href="#a" transform="matrix(9.9626 0 0 -9.9626 51.579 85.515)"/><symbol id="h"><path d="M.232.5a.729.729 0 0 1-.066.312A.432.432 0 0 1 .01 1C.004 1 0 .996 0 .99 0 .987 0 .985.019.967.117.868.174.709.174.5.174.329.137.153.013.027 0 .015 0 .013 0 .01 0 .004.004 0 .01 0c.01 0 .1.068.159.195C.22.305.232.416.232.5z"/></symbol><use xlink:href="#h" transform="matrix(9.9626 0 0 -9.9626 57.014 87.896)"/><use xlink:href="#h" transform="matrix(9.9626 0 0 -9.9626 60.89 87.896)"/><use xlink:href="#f" transform="matrix(9.9626 0 0 -9.9626 45.547 138.332)"/><use xlink:href="#a" transform="matrix(9.9626 0 0 -9.9626 48.834 135.95)"/><use xlink:href="#b" transform="matrix(9.9626 0 0 -9.9626 56.473 136.668)"/><use xlink:href="#c" transform="matrix(9.9626 0 0 -9.9626 66.426 135.95)"/><use xlink:href="#g" transform="matrix(9.9626 0 0 -9.9626 72.473 137.764)"/><use xlink:href="#e" transform="matrix(9.9626 0 0 -9.9626 76.578 137.883)"/><use xlink:href="#f" transform="matrix(9.9626 0 0 -9.9626 82.982 138.332)"/><use xlink:href="#a" transform="matrix(9.9626 0 0 -9.9626 86.269 135.95)"/><use xlink:href="#b" transform="matrix(9.9626 0 0 -9.9626 93.908 136.668)"/><use xlink:href="#c" transform="matrix(9.9626 0 0 -9.9626 103.861 135.95)"/><use xlink:href="#h" transform="matrix(9.9626 0 0 -9.9626 109.62 138.332)"/><use xlink:href="#h" transform="matrix(9.9626 0 0 -9.9626 113.496 138.332)"/></g><path d="M71.574 80.893a1.993 1.993 0 1 0-3.985 0 1.993 1.993 0 0 0 3.985 0zm-1.992 0"/><path stroke-width=".399" stroke-miterlimit="10" fill="none" stroke="#000" d="M71.574 80.893a1.993 1.993 0 1 0-3.985 0 1.993 1.993 0 0 0 3.985 0zm-1.992 0"/><path d="M127.08 129.312a1.993 1.993 0 1 0-3.985 0 1.993 1.993 0 0 0 3.985 0zm-1.993 0"/><path stroke-width=".399" stroke-miterlimit="10" fill="none" stroke="#000" d="M127.08 129.312a1.993 1.993 0 1 0-3.985 0 1.993 1.993 0 0 0 3.985 0zm-1.993 0"/><symbol id="i"><path d="M.305.313c.006.026.029.118.099.118.005 0 .029 0 .05-.013A.058.058 0 0 1 .406.364c0-.016.011-.035.038-.035.022 0 .054.018.054.058 0 .052-.059.066-.093.066C.347.453.312.4.3.377a.11.11 0 0 1-.108.076C.088.453.031.324.031.299c0-.01.01-.01.012-.01.008 0 .011.002.013.011.034.106.1.131.134.131.019 0 .054-.009.054-.067C.244.333.227.266.19.126.174.064.139.022.095.022c-.006 0-.029 0-.05.013C.07.04.092.061.092.089.092.116.07.124.055.124A.057.057 0 0 1 0 .066C0 .02.05 0 .094 0 .16 0 .196.07.199.076A.11.11 0 0 1 .307 0c.103 0 .16.129.16.154 0 .01-.009.01-.012.01C.446.164.444.16.442.153.409.046.341.022.309.022.27.022.254.054.254.088c0 .022.006.044.017.088l.034.137z"/></symbol><use xlink:href="#i" transform="matrix(9.9626 0 0 -9.9626 185.54 148.097)"/><symbol id="j"><path d="M.457.586C.461.6.461.602.461.609c0 .018-.014.027-.029.027A.043.043 0 0 1 .397.615 1.87 1.87 0 0 1 .363.481L.318.301C.314.286.271.216.205.216.154.216.143.26.143.297c0 .046.017.108.051.196.016.041.02.052.02.072a.08.08 0 0 1-.082.082C.037.647 0 .502 0 .493c0-.01.01-.01.012-.01.01 0 .011.002.016.018.027.094.067.124.101.124.008 0 .025 0 .025-.032 0-.025-.01-.051-.017-.07a.66.66 0 0 1-.058-.21c0-.089.063-.119.122-.119.039 0 .073.017.101.045C.289.187.277.138.237.085.211.051.173.022.127.022.113.022.068.025.051.064c.016 0 .029 0 .043.012.01.009.02.022.02.041 0 .031-.027.035-.037.035C.054.152.021.136.021.087.021.037.065 0 .127 0 .23 0 .333.091.361.204l.096.382z"/></symbol><use xlink:href="#j" transform="matrix(9.9626 0 0 -9.9626 17.884 10.051)"/></svg>