<svg xmlns="http://www.w3.org/2000/svg" xmlns:xlink="http://www.w3.org/1999/xlink" width="787.511" height="234.205" viewBox="0 0 590.633 175.654"><path stroke-width=".199" stroke-miterlimit="10" fill="none" stroke="#929292" d="M64.956 162.393v-4.253m43.17 4.253v-4.253m43.17 4.253v-4.253M19.66 136.256h4.251M19.66 93.571h4.252M19.66 29.543h4.252"/><path stroke-width=".399" stroke-miterlimit="10" fill="none" stroke="#000" d="M.2 160.266h192.275"/><path d="m194.467 160.266-3.188-1.594 1.196 1.594-1.196 1.594"/><path stroke-width=".399" stroke-miterlimit="10" fill="none" stroke="#000" d="M21.785 161.6V2.19"/><path d="m21.785.197-1.594 3.188 1.594-1.196 1.594 1.196"/><symbol id="a"><path d="M.205.64c0 .024 0 .026-.023.026C.12.602.032.602 0 .602V.571a.3.3 0 0 1 .131.026V.079C.131.043.128.031.038.031H.006V0c.035.003.122.003.162.003.04 0 .127 0 .162-.003v.031H.298c-.09 0-.093.011-.093.048V.64z"/></symbol><use xlink:href="#a" transform="matrix(9.9626 0 0 -9.9626 63.35 172.333)"/><symbol id="b"><path d="M.077.077.183.18c.156.138.216.192.216.292 0 .114-.09.194-.212.194A.185.185 0 0 1 0 .485C0 .429.05.429.053.429c.017 0 .052.012.052.053a.05.05 0 0 1-.053.052L.039.533a.144.144 0 0 0 .135.102C.265.635.308.554.308.472c0-.08-.05-.159-.105-.221L.011.037C0 .026 0 .024 0 0h.371l.028.174H.374C.369.144.362.1.352.085.345.077.279.077.257.077h-.18z"/></symbol><use xlink:href="#b" transform="matrix(9.9626 0 0 -9.9626 106.132 172.333)"/><symbol id="c"><path d="M.248.374c.082.027.14.097.14.176C.388.632.3.688.204.688.103.688.027.628.027.552.027.519.049.5.078.5.109.5.129.522.129.551c0 .05-.047.05-.062.05C.098.65.164.663.2.663.241.663.296.641.296.551A.25.25 0 0 0 .268.437C.238.389.204.386.179.385A.554.554 0 0 0 .14.382C.132.381.125.38.125.37c0-.011.007-.011.024-.011h.044C.275.359.312.291.312.193.312.057.243.028.199.028.156.028.081.045.046.104.081.099.112.121.112.159a.054.054 0 0 1-.056.056C.032.215 0 .201 0 .157 0 .066.093 0 .202 0c.122 0 .213.091.213.193 0 .082-.063.16-.167.181z"/></symbol><use xlink:href="#c" transform="matrix(9.9626 0 0 -9.9626 149.222 172.552)"/><symbol id="d"><path d="M.325.34V.308c0-.234-.104-.28-.162-.28C.146.028.092.03.065.064c.044 0 .052.029.052.046 0 .031-.024.046-.046.046C.055.156.025.147.025.108.025.041.079 0 .164 0c.129 0 .251.136.251.351C.415.62.3.688.211.688A.193.193 0 0 1 .064.625.214.214 0 0 1 0 .463C0 .338.088.24.2.24c.061 0 .102.042.125.1M.201.263c-.016 0-.062 0-.093.063C.09.363.09.413.09.462.09.516.09.563.111.6c.027.05.065.063.1.063C.257.663.29.629.307.584A.497.497 0 0 0 .323.443C.323.36.289.263.201.263z"/></symbol><use xlink:href="#d" transform="matrix(9.9626 0 0 -9.9626 11.575 139.686)"/><symbol id="e"><path d="M.399.223c0 .119-.082.219-.19.219A.176.176 0 0 1 .082.391v.195A.317.317 0 0 1 .167.573C.29.573.36.664.36.677.36.683.357.688.35.688c-.001 0-.003 0-.008-.003A.33.33 0 0 0 .073.684L.061.687c-.01 0-.01-.008-.01-.024V.367c0-.018 0-.026.014-.026.007 0 .009.003.013.009.011.016.048.07.129.07C.259.42.284.374.292.356A.308.308 0 0 0 .31.23C.31.195.31.135.286.093A.125.125 0 0 0 .179.028.156.156 0 0 0 .032.14C.035.139.038.138.049.138c.033 0 .05.025.05.049a.048.048 0 0 1-.05.049C.035.236 0 .229 0 .183 0 .097.069 0 .181 0a.22.22 0 0 1 .218.223z"/></symbol><use xlink:href="#b" transform="matrix(9.9626 0 0 -9.9626 6.674 96.783)"/><use xlink:href="#e" transform="matrix(9.9626 0 0 -9.9626 11.655 97.002)"/><symbol id="f"><path d="M.266.165V.078C.266.042.264.031.19.031H.169V0C.21.003.262.003.304.003.346.003.399.003.44 0v.031H.419C.345.031.343.042.343.078v.087h.1v.031h-.1v.455c0 .02 0 .026-.016.026-.009 0-.012 0-.02-.012L0 .196V.165h.266m.006.031H.028l.244.373V.196z"/></symbol><use xlink:href="#f" transform="matrix(9.9626 0 0 -9.9626 6.455 32.756)"/><use xlink:href="#d" transform="matrix(9.9626 0 0 -9.9626 11.576 32.975)"/><clipPath id="g"><path transform="matrix(1 0 0 -1 -64.556 242.969)" d="M64.756 81.369h194.267v161.403H64.756z"/></clipPath><g clip-path="url(#g)"><path stroke-width=".797" stroke-miterlimit="10" fill="none" stroke="#00f" d="m-64.556 136.256 1.952 1.426 1.953 1.382 1.952 1.34 1.953 1.294 1.952 1.252 1.953 1.207 1.952 1.165 1.952 1.12 1.953 1.077 1.952 1.033 1.953.99 1.952.945 1.953.902 1.952.859 1.952.815 1.953.771 1.952.728 1.953.684 1.952.64 1.953.596 1.952.553 1.952.51 1.953.465 1.952.422 1.953.379 1.952.334 1.953.291 1.952.248 1.953.203 1.952.16 1.952.117 1.953.073 1.952.029 1.953-.015 1.952-.058 1.953-.102 1.952-.145 1.952-.19 1.953-.232 1.952-.277 1.953-.32 1.952-.364 1.953-.407 1.952-.451 1.952-.495 1.953-.538 1.952-.582 1.953-.626 1.952-.67 1.953-.712 1.952-.757 1.952-.8 1.953-.844 1.952-.888 1.953-.931 1.952-.975 1.953-1.019 1.952-1.062 1.952-1.106 1.953-1.15 1.952-1.193 1.953-1.237 1.952-1.28 1.953-1.324 1.952-1.368 1.953-1.412 1.952-1.455 1.952-1.498 1.953-1.543 1.952-1.586 1.953-1.63 1.952-1.673 1.953-1.717 1.952-1.76 1.952-1.805 1.953-1.848 1.952-1.892 1.953-1.935 1.952-1.98 1.953-2.022 1.952-2.066 1.952-2.11 1.953-2.154 1.952-2.197 1.953-2.24 1.952-2.285 1.953-2.328 1.952-2.372 1.952-2.416 1.953-2.459 1.952-2.503 1.953-2.546 1.952-2.59 1.953-2.634 1.952-2.678 1.952-2.72 1.953-2.766 1.952-2.808 1.953-2.852 1.952-2.896 1.953-2.94 1.952-2.982 1.953-3.027 1.952-3.07 1.952-3.114 1.953-3.158 1.952-3.201 1.953-3.245 1.952-3.288 1.953-3.333 1.952-3.376 1.952-3.42 1.953-3.462 1.952-3.507 1.953-3.55 1.952-3.595 1.953-3.638 1.952-3.681 1.952-3.725 1.953-3.77 1.952-3.812 1.953-3.856 1.952-3.9 1.953-3.943 1.952-3.987 1.952-4.03 1.953-4.075 1.952-4.118 1.953-4.162 1.952-4.205 1.953-4.25 1.952-4.292 1.952-4.336 1.953-4.38 1.952-4.423 1.953-4.468 1.952-4.51 1.953-4.555 1.952-4.598 1.952-4.642 1.953-4.686 1.952-4.729 1.953-4.773 1.952-4.816 1.953-4.86 1.952-4.904 1.952-4.947 1.953-4.992 1.952-5.034 1.953-5.079 1.952-5.122 1.953-5.166 1.952-5.209 1.953-5.253 1.952-5.297 1.952-5.34 1.953-5.384 1.952-5.428 1.953-5.47 1.952-5.516 1.953-5.558 1.952-5.603 1.952-5.645 1.953-5.69 1.952-5.733 1.953-5.777 1.952-5.82 1.953-5.865 1.952-5.908 1.952-5.951 1.953-5.995 1.952-6.04 1.953-6.082 1.952-6.126 1.953-6.17 1.952-6.213 1.952-6.257 1.953-6.3 1.952-6.345 1.953-6.388 1.952-6.432 1.953-6.475 1.952-6.519 1.952-6.563 1.953-6.606 1.952-6.65 1.953-6.694 1.952-6.737 1.953-6.78 1.952-6.825 1.952-6.868 1.953-6.912 1.952-6.956 1.953-7 1.952-7.042 1.953-7.086 1.952-7.13 1.953-7.174 1.952-7.218"/><path stroke-width=".797" stroke-miterlimit="10" fill="none" stroke="red" d="m-64.556 242.969 1.952-1.93 1.953-1.93 1.952-1.931 1.953-1.93 1.952-1.931 1.953-1.93 1.952-1.931 1.952-1.93 1.953-1.931 1.952-1.93 1.953-1.931 1.952-1.93 1.953-1.931 1.952-1.93 1.952-1.931 1.953-1.93 1.952-1.931 1.953-1.93 1.952-1.931 1.953-1.93 1.952-1.931 1.952-1.93 1.953-1.931 1.952-1.93 1.953-1.931 1.952-1.93 1.953-1.931 1.952-1.93 1.953-1.93 1.952-1.931 1.952-1.93 1.953-1.931 1.952-1.93 1.953-1.931 1.952-1.93 1.953-1.931 1.952-1.93 1.952-1.931 1.953-1.93 1.952-1.931 1.953-1.93 1.952-1.931 1.953-1.93 1.952-1.931 1.952-1.93 1.953-1.931 1.952-1.93 1.953-1.931 1.952-1.93 1.953-1.931 1.952-1.93 1.952-1.931 1.953-1.93 1.952-1.93 1.953-1.931 1.952-1.93 1.953-1.931 1.952-1.93 1.952-1.931 1.953-1.93 1.952-1.931 1.953-1.93 1.952-1.931 1.953-1.93 1.952-1.931 1.953-1.93 1.952-1.931 1.952-1.93 1.953-1.931 1.952-1.93 1.953-1.931 1.952-1.93 1.953-1.931 1.952-1.93 1.952-1.931 1.953-1.93 1.952-1.931 1.953-1.93 1.952-1.931 1.953-1.93 1.952-1.93 1.952-1.931 1.953-1.93 1.952-1.931 1.953-1.93 1.952-1.931 1.953-1.93 1.952-1.931 1.952-1.93 1.953-1.931 1.952-1.93 1.953-1.931 1.952-1.93 1.953-1.931 1.952-1.93 1.952-1.931 1.953-1.93 1.952-1.931 1.953-1.93 1.952-1.931 1.953-1.93 1.952-1.931 1.953-1.93 1.952-1.931 1.952-1.93 1.953-1.93 1.952-1.931 1.953-1.93 1.952-1.931 1.953-1.93 1.952-1.931 1.952-1.93 1.953-1.931 1.952-1.93 1.953-1.931 1.952-1.93 1.953-1.931 1.952-1.93 1.952-1.931 1.953-1.93 1.952-1.931 1.953-1.93 1.952-1.931 1.953-1.93 1.952-1.931 1.952-1.93 1.953-1.931 1.952-1.93 1.953-1.931 1.952-1.93 1.953-1.93 1.952-1.931 1.952-1.93 1.953-1.931 1.952-1.93 1.953-1.931 1.952-1.93 1.953-1.931 1.952-1.93 1.952-1.931 1.953-1.93 1.952-1.931 1.953-1.93 1.952-1.931 1.953-1.93 1.952-1.931 1.952-1.93 1.953-1.931 1.952-1.93 1.953-1.931 1.952-1.93 1.953-1.931 1.952-1.93 1.953-1.931 1.952-1.93 1.952-1.931 1.953-1.93 1.952-1.931 1.953-1.93 1.952-1.93 1.953-1.931 1.952-1.93 1.952-1.931 1.953-1.93 1.952-1.931 1.953-1.93 1.952-1.931 1.953-1.93 1.952-1.931 1.952-1.93 1.953-1.931 1.952-1.93 1.953-1.931 1.952-1.93 1.953-1.931 1.952-1.93 1.952-1.931 1.953-1.93 1.952-1.931 1.953-1.93 1.952-1.931 1.953-1.93 1.952-1.93 1.952-1.931 1.953-1.93 1.952-1.931 1.953-1.93 1.952-1.931 1.953-1.93 1.952-1.931 1.952-1.93 1.953-1.931 1.952-1.93 1.953-1.931 1.952-1.93 1.953-1.931 1.952-1.93 1.953-1.931 1.952-1.93"/><symbol id="h"><path d="M.314.605H.4c.02 0 .03 0 .03.02C.43.636.42.636.403.636H.32L.341.75a.953.953 0 0 0 .024.104c.009.019.026.034.047.034.004 0 .03 0 .049-.018A.055.055 0 0 1 .407.816c0-.023.018-.035.037-.035.026 0 .055.022.055.06C.499.887.453.91.412.91.378.91.315.892.285.793.279.772.276.762.252.636H.183c-.019 0-.03 0-.03-.019 0-.012.009-.012.028-.012h.066L.172.21C.154.113.137.022.085.022c-.004 0-.029 0-.048.018a.054.054 0 0 1 .055.054c0 .023-.018.035-.037.035C.029.129 0 .107 0 .069 0 .024.044 0 .085 0 .14 0 .18.059.198.097a.894.894 0 0 1 .056.191l.06.317z"/></symbol><use xlink:href="#h" transform="matrix(9.9626 0 0 -9.9626 140.213 58.088)" fill="#00f"/><symbol id="i"><path d="M.457.586C.461.6.461.602.461.609c0 .018-.014.027-.029.027A.043.043 0 0 1 .397.615 1.87 1.87 0 0 1 .363.481L.318.301C.314.286.271.216.205.216.154.216.143.26.143.297c0 .046.017.108.051.196.016.041.02.052.02.072a.08.08 0 0 1-.082.082C.037.647 0 .502 0 .493c0-.01.01-.01.012-.01.01 0 .011.002.016.018.027.094.067.124.101.124.008 0 .025 0 .025-.032 0-.025-.01-.051-.017-.07a.66.66 0 0 1-.058-.21c0-.089.063-.119.122-.119.039 0 .073.017.101.045C.289.187.277.138.237.085.211.051.173.022.127.022.113.022.068.025.051.064c.016 0 .029 0 .043.012.01.009.02.022.02.041 0 .031-.027.035-.037.035C.054.152.021.136.021.087.021.037.065 0 .127 0 .23 0 .333.091.361.204l.096.382z"/></symbol><use xlink:href="#i" transform="matrix(9.9626 0 0 -9.9626 24.629 71.427)" fill="red"/><symbol id="j"><path d="M.631.194c.015 0 .034 0 .034.02s-.019.02-.033.02H.033C.019.234 0 .234 0 .214s.019-.02.034-.02h.597M.632 0c.014 0 .033 0 .033.02S.646.04.631.04H.034C.019.04 0 .04 0 .02S.019 0 .033 0h.599z"/></symbol><symbol id="k"><path d="M.09.35v.024c0 .253.124.289.175.289.024 0 .066-.006.088-.04-.015 0-.055 0-.055-.045 0-.031.024-.046.046-.046C.36.532.39.541.39.58.39.64.346.688.263.688.135.688 0 .559 0 .338 0 .071.116 0 .209 0 .32 0 .415.094.415.226c0 .127-.089.223-.2.223C.147.449.11.398.09.35M.209.028C.146.028.116.088.11.103.092.15.092.23.092.248c0 .078.032.178.122.178.016 0 .062 0 .093-.062C.325.327.325.276.325.227c0-.048 0-.098-.017-.134C.278.033.232.028.209.028z"/></symbol><symbol id="l"><path d="M.232.01c0 .003 0 .005-.017.022C.09.158.058.347.058.5c0 .174.038.348.161.473.013.012.013.014.013.017 0 .007-.004.01-.01.01-.01 0-.1-.068-.159-.195A.727.727 0 0 1 0 .5C0 .422.011.301.066.188A.432.432 0 0 1 .222 0c.006 0 .01.003.01.01z"/></symbol><use xlink:href="#j" transform="matrix(9.9626 0 0 -9.9626 32.908 68.06)" fill="red"/><use xlink:href="#a" transform="matrix(9.9626 0 0 -9.9626 43.757 69.385)" fill="red"/><use xlink:href="#k" transform="matrix(9.9626 0 0 -9.9626 48.27 69.604)" fill="red"/><use xlink:href="#l" transform="matrix(9.9626 0 0 -9.9626 53.82 71.876)" fill="red"/><symbol id="m"><path d="M.305.313c.006.026.029.118.099.118.005 0 .029 0 .05-.013A.058.058 0 0 1 .406.364c0-.016.011-.035.038-.035.022 0 .054.018.054.058 0 .052-.059.066-.093.066C.347.453.312.4.3.377a.11.11 0 0 1-.108.076C.088.453.031.324.031.299c0-.01.01-.01.012-.01.008 0 .011.002.013.011.034.106.1.131.134.131.019 0 .054-.009.054-.067C.244.333.227.266.19.126.174.064.139.022.095.022c-.006 0-.029 0-.05.013C.07.04.092.061.092.089.092.116.07.124.055.124A.057.057 0 0 1 0 .066C0 .02.05 0 .094 0 .16 0 .196.07.199.076A.11.11 0 0 1 .307 0c.103 0 .16.129.16.154 0 .01-.009.01-.012.01C.446.164.444.16.442.153.409.046.341.022.309.022.27.022.254.054.254.088c0 .022.006.044.017.088l.034.137z"/></symbol><use xlink:href="#m" transform="matrix(9.9626 0 0 -9.9626 56.992 69.495)" fill="red"/><symbol id="n"><path d="M.576 0c.017 0 .035 0 .035.02S.593.04.576.04H.035C.018.04 0 .04 0 .02S.018 0 .035 0h.541z"/></symbol><use xlink:href="#n" transform="matrix(9.9626 0 0 -9.9626 65.438 67.094)" fill="red"/><symbol id="o"><path d="M.232.5a.729.729 0 0 1-.066.312A.432.432 0 0 1 .01 1C.004 1 0 .996 0 .99 0 .987 0 .985.019.967.117.868.174.709.174.5.174.329.137.153.013.027 0 .015 0 .013 0 .01 0 .004.004 0 .01 0c.01 0 .1.068.159.195C.22.305.232.416.232.5z"/></symbol><symbol id="p"><path d="M.353.313h.279c.014 0 .033 0 .033.02s-.019.02-.033.02H.353v.28c0 .014 0 .033-.02.033S.313.647.313.633v-.28h-.28C.019.353 0 .353 0 .333s.019-.02.033-.02h.28v-.28c0-.014 0-.033.02-.033s.02.019.02.033v.28z"/></symbol><use xlink:href="#c" transform="matrix(9.9626 0 0 -9.9626 74.991 69.604)" fill="red"/><use xlink:href="#o" transform="matrix(9.9626 0 0 -9.9626 80.122 71.876)" fill="red"/><use xlink:href="#p" transform="matrix(9.9626 0 0 -9.9626 86.2 70.212)" fill="red"/><use xlink:href="#f" transform="matrix(9.9626 0 0 -9.9626 95.883 69.385)" fill="red"/><use xlink:href="#d" transform="matrix(9.9626 0 0 -9.9626 101.004 69.604)" fill="red"/></g><path d="M153.29 29.543a1.993 1.993 0 1 0-3.986 0 1.993 1.993 0 0 0 3.985 0zm-1.993 0"/><path stroke-width=".399" stroke-miterlimit="10" fill="none" stroke="#000" d="M153.29 29.543a1.993 1.993 0 1 0-3.986 0 1.993 1.993 0 0 0 3.985 0zm-1.993 0"/><path d="M23.778 157.599a1.993 1.993 0 1 0-3.985 0 1.993 1.993 0 0 0 3.985 0zm-1.993 0"/><path stroke-width=".399" stroke-miterlimit="10" fill="none" stroke="#000" d="M23.778 157.599a1.993 1.993 0 1 0-3.985 0 1.993 1.993 0 0 0 3.985 0zm-1.993 0"/><use xlink:href="#m" transform="matrix(9.9626 0 0 -9.9626 185.54 156.857)"/><use xlink:href="#i" transform="matrix(9.9626 0 0 -9.9626 25.593 10.051)"/><path stroke-width=".199" stroke-miterlimit="10" fill="none" stroke="#929292" d="M262.94 162.392v-4.252m43.171 4.252v-4.252m43.17 4.252v-4.252M217.644 136.255h4.252m-4.252-42.685h4.252m-4.252-64.028h4.252"/><path stroke-width=".399" stroke-miterlimit="10" fill="none" stroke="#000" d="M198.185 160.266H390.46"/><path d="m392.452 160.266-3.188-1.594 1.196 1.594-1.196 1.594"/><path stroke-width=".399" stroke-miterlimit="10" fill="none" stroke="#000" d="M219.77 161.6V2.189"/><path d="m219.77.196-1.594 3.188 1.594-1.195 1.594 1.195"/><use xlink:href="#a" transform="matrix(9.9626 0 0 -9.9626 261.335 172.333)"/><use xlink:href="#b" transform="matrix(9.9626 0 0 -9.9626 304.116 172.333)"/><use xlink:href="#c" transform="matrix(9.9626 0 0 -9.9626 347.206 172.552)"/><use xlink:href="#d" transform="matrix(9.9626 0 0 -9.9626 209.56 139.686)"/><use xlink:href="#b" transform="matrix(9.9626 0 0 -9.9626 204.658 96.783)"/><use xlink:href="#e" transform="matrix(9.9626 0 0 -9.9626 209.64 97.002)"/><use xlink:href="#f" transform="matrix(9.9626 0 0 -9.9626 204.439 32.756)"/><use xlink:href="#d" transform="matrix(9.9626 0 0 -9.9626 209.56 32.975)"/><clipPath id="q"><path transform="matrix(1 0 0 -1 133.429 296.325)" d="M64.756 134.725h194.267V296.13H64.756z"/></clipPath><g clip-path="url(#q)"><path stroke-width=".797" stroke-miterlimit="10" fill="none" stroke="#00f" d="m133.429 136.255 1.952 1.427 1.953 1.382 1.952 1.339 1.953 1.295 1.952 1.251 1.953 1.208 1.952 1.164 1.952 1.12 1.953 1.077 1.952 1.033 1.953.99 1.952.946 1.953.902 1.952.858 1.952.815 1.953.772 1.952.727 1.953.684 1.952.64 1.953.597 1.952.553 1.953.51 1.952.465 1.952.422 1.953.378 1.952.335 1.953.29 1.952.248 1.953.204 1.952.16 1.952.116 1.953.073 1.952.03 1.953-.015 1.952-.058 1.953-.102 1.952-.146 1.952-.189 1.953-.233 1.952-.276 1.953-.32 1.952-.364 1.953-.408 1.952-.45 1.952-.495 1.953-.539 1.952-.582 1.953-.626 1.952-.669 1.953-.713 1.952-.757 1.952-.8 1.953-.844 1.952-.888 1.953-.93 1.952-.976 1.953-1.018 1.952-1.063 1.953-1.105 1.952-1.15 1.952-1.193 1.953-1.237 1.952-1.28 1.953-1.325 1.952-1.368 1.953-1.411 1.952-1.455 1.952-1.499 1.953-1.542 1.952-1.586 1.953-1.63 1.952-1.674 1.953-1.717 1.952-1.76 1.952-1.805 1.953-1.848 1.952-1.891 1.953-1.936 1.952-1.979 1.953-2.022 1.952-2.067 1.952-2.11 1.953-2.153 1.952-2.197 1.953-2.241 1.952-2.285 1.953-2.328 1.952-2.372 1.952-2.415 1.953-2.46 1.952-2.502 1.953-2.547 1.952-2.59 1.953-2.634 1.952-2.677 1.952-2.721 1.953-2.765 1.952-2.808 1.953-2.852 1.952-2.896 1.953-2.94 1.952-2.983 1.953-3.026 1.952-3.07 1.952-3.115 1.953-3.157 1.952-3.202 1.953-3.244 1.952-3.289 1.953-3.332 1.952-3.376 1.952-3.42 1.953-3.463 1.952-3.507 1.953-3.55 1.952-3.594 1.953-3.638 1.952-3.682 1.952-3.725 1.953-3.769 1.952-3.812 1.953-3.856 1.952-3.9 1.953-3.944 1.952-3.986 1.952-4.031 1.953-4.074 1.952-4.119 1.953-4.161 1.952-4.206 1.953-4.249 1.952-4.292 1.952-4.336 1.953-4.38 1.952-4.424 1.953-4.467 1.952-4.511 1.953-4.555 1.952-4.598 1.953-4.642 1.952-4.685 1.952-4.73 1.953-4.772 1.952-4.817 1.953-4.86 1.952-4.904 1.953-4.947 1.952-4.991 1.952-5.035 1.953-5.078 1.952-5.123 1.953-5.165 1.952-5.21 1.953-5.253 1.952-5.296 1.952-5.34 1.953-5.385 1.952-5.427 1.953-5.471 1.952-5.515 1.953-5.559 1.952-5.602 1.952-5.646 1.953-5.69 1.952-5.733 1.953-5.777 1.952-5.82 1.953-5.864 1.952-5.908 1.952-5.952 1.953-5.995 1.952-6.039 1.953-6.082 1.952-6.126 1.953-6.17 1.952-6.213 1.952-6.257 1.953-6.301 1.952-6.344 1.953-6.389 1.952-6.431 1.953-6.476 1.952-6.518 1.953-6.563 1.952-6.607 1.952-6.65 1.953-6.693 1.952-6.737 1.953-6.781 1.952-6.825 1.953-6.868 1.952-6.912 1.952-6.955 1.953-7 1.952-7.042 1.953-7.087 1.952-7.13 1.953-7.174 1.952-7.217"/><path stroke-width=".797" stroke-miterlimit="10" fill="none" stroke="red" d="m133.429 296.325 1.952-2.413 1.953-2.413 1.952-2.413 1.953-2.413 1.952-2.413 1.953-2.414 1.952-2.413 1.952-2.413 1.953-2.413 1.952-2.413 1.953-2.413 1.952-2.413 1.953-2.413 1.952-2.413 1.952-2.413 1.953-2.414 1.952-2.413 1.953-2.413 1.952-2.413 1.953-2.413 1.952-2.413 1.953-2.413 1.952-2.413 1.952-2.413 1.953-2.414 1.952-2.413 1.953-2.413 1.952-2.413 1.953-2.413 1.952-2.413 1.952-2.413 1.953-2.413 1.952-2.413 1.953-2.413 1.952-2.414 1.953-2.413 1.952-2.413 1.952-2.413 1.953-2.413 1.952-2.413 1.953-2.413 1.952-2.413 1.953-2.413 1.952-2.413 1.952-2.414 1.953-2.413 1.952-2.413 1.953-2.413 1.952-2.413 1.953-2.413 1.952-2.413 1.952-2.413 1.953-2.413 1.952-2.413 1.953-2.414 1.952-2.413 1.953-2.413 1.952-2.413 1.953-2.413 1.952-2.413 1.952-2.413 1.953-2.413 1.952-2.413 1.953-2.413 1.952-2.414 1.953-2.413 1.952-2.413 1.952-2.413 1.953-2.413 1.952-2.413 1.953-2.413 1.952-2.413 1.953-2.413 1.952-2.414 1.952-2.413 1.953-2.413 1.952-2.413 1.953-2.413 1.952-2.413 1.953-2.413 1.952-2.413 1.952-2.413 1.953-2.413 1.952-2.414 1.953-2.413 1.952-2.413 1.953-2.413 1.952-2.413 1.952-2.413 1.953-2.413 1.952-2.413 1.953-2.413 1.952-2.413 1.953-2.413 1.952-2.414 1.952-2.413 1.953-2.413 1.952-2.413 1.953-2.413 1.952-2.413 1.953-2.413 1.952-2.413 1.953-2.413 1.952-2.413 1.952-2.414 1.953-2.413 1.952-2.413 1.953-2.413 1.952-2.413 1.953-2.413 1.952-2.413 1.952-2.413 1.953-2.413 1.952-2.413 1.953-2.414 1.952-2.413 1.953-2.413 1.952-2.413 1.952-2.413 1.953-2.413 1.952-2.413 1.953-2.413 1.952-2.413 1.953-2.413 1.952-2.414 1.952-2.413 1.953-2.413 1.952-2.413 1.953-2.413 1.952-2.413 1.953-2.413 1.952-2.413 1.952-2.413 1.953-2.414 1.952-2.413 1.953-2.413 1.952-2.413 1.953-2.413 1.952-2.413 1.953-2.413 1.952-2.413 1.952-2.413 1.953-2.413 1.952-2.414 1.953-2.413 1.952-2.413 1.953-2.413 1.952-2.413 1.952-2.413 1.953-2.413 1.952-2.413 1.953-2.413 1.952-2.413 1.953-2.414 1.952-2.413 1.952-2.413 1.953-2.413 1.952-2.413 1.953-2.413 1.952-2.413 1.953-2.413 1.952-2.413 1.952-2.413 1.953-2.414 1.952-2.413 1.953-2.413 1.952-2.413 1.953-2.413 1.952-2.413 1.952-2.413 1.953-2.413 1.952-2.413 1.953-2.413 1.952-2.414 1.953-2.413 1.952-2.413 1.952-2.413 1.953-2.413 1.952-2.413 1.953-2.413 1.952-2.413 1.953-2.413 1.952-2.413 1.953-2.414 1.952-2.413 1.952-2.413 1.953-2.413 1.952-2.413 1.953-2.413 1.952-2.413 1.953-2.413 1.952-2.413 1.952-2.413 1.953-2.414 1.952-2.413 1.953-2.413 1.952-2.413 1.953-2.413 1.952-2.413"/><use xlink:href="#h" transform="matrix(9.9626 0 0 -9.9626 338.198 58.088)" fill="#00f"/><use xlink:href="#i" transform="matrix(9.9626 0 0 -9.9626 222.614 71.427)" fill="red"/><symbol id="r"><path d="M.421.342c0 .08-.005.16-.04.234A.185.185 0 0 1 .037.569.535.535 0 0 1 0 .342C0 .267.004.177.045.101A.183.183 0 0 1 .21 0c.054 0 .13.021.174.116a.533.533 0 0 1 .037.226M.21.022C.171.022.112.047.094.143.083.203.083.295.083.354c0 .064 0 .13.008.184C.11.657.185.666.21.666.243.666.309.648.328.549c.01-.056.01-.132.01-.195 0-.075 0-.143-.011-.207C.312.052.255.022.21.022z"/></symbol><use xlink:href="#j" transform="matrix(9.9626 0 0 -9.9626 230.892 68.06)" fill="red"/><use xlink:href="#b" transform="matrix(9.9626 0 0 -9.9626 241.353 69.385)" fill="red"/><use xlink:href="#r" transform="matrix(9.9626 0 0 -9.9626 246.224 69.604)" fill="red"/><use xlink:href="#l" transform="matrix(9.9626 0 0 -9.9626 251.803 71.876)" fill="red"/><use xlink:href="#m" transform="matrix(9.9626 0 0 -9.9626 254.976 69.495)" fill="red"/><use xlink:href="#n" transform="matrix(9.9626 0 0 -9.9626 263.422 67.094)" fill="red"/><use xlink:href="#c" transform="matrix(9.9626 0 0 -9.9626 272.976 69.604)" fill="red"/><use xlink:href="#o" transform="matrix(9.9626 0 0 -9.9626 278.107 71.876)" fill="red"/><use xlink:href="#p" transform="matrix(9.9626 0 0 -9.9626 284.184 70.212)" fill="red"/><use xlink:href="#f" transform="matrix(9.9626 0 0 -9.9626 293.868 69.385)" fill="red"/><use xlink:href="#d" transform="matrix(9.9626 0 0 -9.9626 298.989 69.604)" fill="red"/></g><path d="M351.274 29.542a1.993 1.993 0 1 0-3.985 0 1.993 1.993 0 0 0 3.985 0zm-1.992 0"/><path stroke-width=".399" stroke-miterlimit="10" fill="none" stroke="#000" d="M351.274 29.542a1.993 1.993 0 1 0-3.985 0 1.993 1.993 0 0 0 3.985 0zm-1.992 0"/><path d="M264.933 136.255a1.993 1.993 0 1 0-3.985 0 1.993 1.993 0 0 0 3.985 0zm-1.992 0"/><path stroke-width=".399" stroke-miterlimit="10" fill="none" stroke="#000" d="M264.933 136.255a1.993 1.993 0 1 0-3.985 0 1.993 1.993 0 0 0 3.985 0zm-1.992 0"/><use xlink:href="#m" transform="matrix(9.9626 0 0 -9.9626 383.524 156.857)"/><use xlink:href="#i" transform="matrix(9.9626 0 0 -9.9626 223.578 10.051)"/><path stroke-width=".199" stroke-miterlimit="10" fill="none" stroke="#929292" d="M460.925 162.39v-4.252m43.17 4.253v-4.253m43.17 4.253v-4.253M415.628 136.254h4.252m-4.252-42.685h4.252m-4.252-64.028h4.252"/><path stroke-width=".399" stroke-miterlimit="10" fill="none" stroke="#000" d="M396.169 160.264h192.275"/><path d="m590.437 160.264-3.189-1.594 1.196 1.594-1.196 1.594"/><path stroke-width=".399" stroke-miterlimit="10" fill="none" stroke="#000" d="M417.754 161.598V2.188"/><path d="m417.754.195-1.594 3.188 1.594-1.196 1.594 1.196"/><use xlink:href="#a" transform="matrix(9.9626 0 0 -9.9626 459.32 172.333)"/><use xlink:href="#b" transform="matrix(9.9626 0 0 -9.9626 502.101 172.333)"/><use xlink:href="#c" transform="matrix(9.9626 0 0 -9.9626 545.191 172.552)"/><use xlink:href="#d" transform="matrix(9.9626 0 0 -9.9626 407.544 139.686)"/><use xlink:href="#b" transform="matrix(9.9626 0 0 -9.9626 402.643 96.783)"/><use xlink:href="#e" transform="matrix(9.9626 0 0 -9.9626 407.624 97.002)"/><use xlink:href="#f" transform="matrix(9.9626 0 0 -9.9626 402.424 32.756)"/><use xlink:href="#d" transform="matrix(9.9626 0 0 -9.9626 407.545 32.975)"/><clipPath id="s"><path transform="matrix(1 0 0 -1 331.413 349.68)" d="M64.756 188.082h194.267v161.403H64.756z"/></clipPath><g clip-path="url(#s)"><path stroke-width=".797" stroke-miterlimit="10" fill="none" stroke="#00f" d="m331.413 136.254 1.952 1.426 1.953 1.382 1.952 1.34 1.953 1.294 1.952 1.252 1.953 1.207 1.952 1.164 1.952 1.12 1.953 1.078 1.952 1.033 1.953.99 1.952.945 1.953.902 1.952.859 1.952.815 1.953.771 1.952.728 1.953.683 1.952.64 1.953.597 1.952.553 1.952.51 1.953.465 1.952.422 1.953.379 1.952.334 1.953.291 1.952.248 1.953.203 1.952.16 1.952.117 1.953.073 1.952.029 1.953-.015 1.952-.058 1.953-.102 1.952-.145 1.952-.19 1.953-.232 1.952-.277 1.953-.32 1.952-.364 1.953-.407 1.952-.451 1.952-.495 1.953-.538 1.952-.582 1.953-.626 1.952-.67 1.953-.712 1.952-.757 1.952-.8 1.953-.844 1.952-.888 1.953-.931 1.952-.975 1.953-1.019 1.952-1.062 1.952-1.106 1.953-1.15 1.952-1.193 1.953-1.237 1.952-1.28 1.953-1.324 1.952-1.368 1.952-1.412 1.953-1.455 1.952-1.498 1.953-1.543 1.952-1.586 1.953-1.63 1.952-1.673 1.953-1.717 1.952-1.76 1.952-1.805 1.953-1.848 1.952-1.892 1.953-1.935 1.952-1.98 1.953-2.022 1.952-2.066 1.952-2.11 1.953-2.154 1.952-2.197 1.953-2.24 1.952-2.285 1.953-2.328 1.952-2.372 1.952-2.416 1.953-2.46 1.952-2.502 1.953-2.546 1.952-2.59 1.953-2.634 1.952-2.678 1.952-2.72 1.953-2.766 1.952-2.808 1.953-2.852 1.952-2.896 1.953-2.94 1.952-2.982 1.952-3.027 1.953-3.07 1.952-3.114 1.953-3.158 1.952-3.201 1.953-3.245 1.952-3.288 1.953-3.333 1.952-3.376 1.952-3.42 1.953-3.462 1.952-3.507 1.953-3.55 1.952-3.595 1.953-3.638 1.952-3.681 1.952-3.725 1.953-3.77 1.952-3.812 1.953-3.856 1.952-3.9 1.953-3.943 1.952-3.987 1.952-4.03 1.953-4.075 1.952-4.118 1.953-4.162 1.952-4.205 1.953-4.25 1.952-4.292 1.952-4.336 1.953-4.38 1.952-4.423 1.953-4.468 1.952-4.51 1.953-4.555 1.952-4.598 1.952-4.642 1.953-4.686 1.952-4.729 1.953-4.773 1.952-4.816 1.953-4.86 1.952-4.904 1.952-4.948 1.953-4.99 1.952-5.036 1.953-5.078 1.952-5.122 1.953-5.166 1.952-5.209 1.953-5.253 1.952-5.297 1.952-5.34 1.953-5.384 1.952-5.428 1.953-5.47 1.952-5.516 1.953-5.559 1.952-5.602 1.952-5.645 1.953-5.69 1.952-5.733 1.953-5.777 1.952-5.82 1.953-5.865 1.952-5.908 1.952-5.951 1.953-5.996 1.952-6.038 1.953-6.083 1.952-6.126 1.953-6.17 1.952-6.213 1.952-6.257 1.953-6.3 1.952-6.345 1.953-6.388 1.952-6.432 1.953-6.475 1.952-6.519 1.952-6.563 1.953-6.606 1.952-6.65 1.953-6.694L698.47-363l1.953-6.78 1.952-6.825 1.952-6.868 1.953-6.912 1.952-6.956 1.953-7 1.952-7.042 1.953-7.086 1.952-7.13 1.952-7.174 1.953-7.218"/><path stroke-width=".797" stroke-miterlimit="10" fill="none" stroke="red" d="m331.413 349.68 1.952-2.896 1.953-2.895 1.952-2.896 1.953-2.896 1.952-2.896 1.953-2.895 1.952-2.896 1.952-2.896 1.953-2.896 1.952-2.895 1.953-2.896 1.952-2.896 1.953-2.895 1.952-2.896 1.952-2.896 1.953-2.896 1.952-2.895 1.953-2.896 1.952-2.896 1.953-2.895 1.952-2.896 1.952-2.896 1.953-2.896 1.952-2.895 1.953-2.896 1.952-2.896 1.953-2.895 1.952-2.896 1.953-2.896 1.952-2.896 1.952-2.895 1.953-2.896 1.952-2.896 1.953-2.895 1.952-2.896 1.953-2.896 1.952-2.896 1.952-2.895 1.953-2.896 1.952-2.896 1.953-2.896 1.952-2.895 1.953-2.896 1.952-2.896 1.952-2.895 1.953-2.896 1.952-2.896 1.953-2.896 1.952-2.895 1.953-2.896 1.952-2.896 1.952-2.896 1.953-2.895 1.952-2.896 1.953-2.896 1.952-2.895 1.953-2.896 1.952-2.896 1.952-2.896 1.953-2.895 1.952-2.896 1.953-2.896 1.952-2.895 1.953-2.896 1.952-2.896 1.952-2.896 1.953-2.895 1.952-2.896 1.953-2.896 1.952-2.895 1.953-2.896 1.952-2.896 1.953-2.896 1.952-2.895 1.952-2.896 1.953-2.896 1.952-2.896 1.953-2.895 1.952-2.896 1.953-2.896 1.952-2.895 1.952-2.896 1.953-2.896 1.952-2.896 1.953-2.895 1.952-2.896 1.953-2.896 1.952-2.895 1.952-2.896 1.953-2.896 1.952-2.896 1.953-2.895 1.952-2.896 1.953-2.896 1.952-2.895 1.952-2.896 1.953-2.896 1.952-2.896 1.953-2.895 1.952-2.896 1.953-2.896 1.952-2.896 1.952-2.895 1.953-2.896 1.952-2.896 1.953-2.895 1.952-2.896 1.953-2.896 1.952-2.896 1.953-2.895 1.952-2.896 1.952-2.896 1.953-2.895 1.952-2.896 1.953-2.896 1.952-2.896 1.953-2.895 1.952-2.896 1.952-2.896 1.953-2.895 1.952-2.896 1.953-2.896 1.952-2.896 1.953-2.895 1.952-2.896 1.952-2.896 1.953-2.896 1.952-2.895 1.953-2.896 1.952-2.896 1.953-2.895 1.952-2.896 1.952-2.896 1.953-2.896 1.952-2.895 1.953-2.896 1.952-2.896 1.953-2.896 1.952-2.895 1.952-2.896 1.953-2.896 1.952-2.895 1.953-2.896 1.952-2.896 1.953-2.896 1.952-2.895 1.952-2.896 1.953-2.896 1.952-2.895 1.953-2.896 1.952-2.896 1.953-2.896 1.952-2.895 1.953-2.896 1.952-2.896 1.952-2.895 1.953-2.896 1.952-2.896 1.953-2.896 1.952-2.895 1.953-2.896 1.952-2.896 1.952-2.895 1.953-2.896 1.952-2.896 1.953-2.896 1.952-2.895 1.953-2.896 1.952-2.896 1.952-2.895 1.953-2.896 1.952-2.896 1.953-2.896 1.952-2.895 1.953-2.896 1.952-2.896 1.952-2.896 1.953-2.895 1.952-2.896 1.953-2.896 1.952-2.896 1.953-2.895 1.952-2.896 1.952-2.896 1.953-2.895 1.952-2.896 1.953-2.896 1.952-2.896 1.953-2.895 1.952-2.896 1.952-2.896 1.953-2.895 1.952-2.896 1.953-2.896 1.952-2.896 1.953-2.895 1.952-2.896 1.952-2.896 1.953-2.895"/><use xlink:href="#h" transform="matrix(9.9626 0 0 -9.9626 536.182 58.088)" fill="#00f"/><use xlink:href="#i" transform="matrix(9.9626 0 0 -9.9626 442.183 58.088)" fill="red"/><use xlink:href="#j" transform="matrix(9.9626 0 0 -9.9626 450.462 54.721)" fill="red"/><use xlink:href="#b" transform="matrix(9.9626 0 0 -9.9626 460.923 56.046)" fill="red"/><use xlink:href="#f" transform="matrix(9.9626 0 0 -9.9626 465.685 56.046)" fill="red"/><use xlink:href="#l" transform="matrix(9.9626 0 0 -9.9626 471.373 58.537)" fill="red"/><use xlink:href="#m" transform="matrix(9.9626 0 0 -9.9626 474.546 56.156)" fill="red"/><use xlink:href="#n" transform="matrix(9.9626 0 0 -9.9626 482.992 53.755)" fill="red"/><use xlink:href="#c" transform="matrix(9.9626 0 0 -9.9626 492.545 56.265)" fill="red"/><use xlink:href="#o" transform="matrix(9.9626 0 0 -9.9626 497.676 58.537)" fill="red"/><use xlink:href="#p" transform="matrix(9.9626 0 0 -9.9626 503.753 56.873)" fill="red"/><use xlink:href="#f" transform="matrix(9.9626 0 0 -9.9626 513.437 56.046)" fill="red"/><use xlink:href="#d" transform="matrix(9.9626 0 0 -9.9626 518.558 56.265)" fill="red"/></g><path d="M549.258 29.54a1.993 1.993 0 1 0-3.985 0 1.993 1.993 0 0 0 3.985 0zm-1.992 0"/><path stroke-width=".399" stroke-miterlimit="10" fill="none" stroke="#000" d="M549.258 29.54a1.993 1.993 0 1 0-3.985 0 1.993 1.993 0 0 0 3.985 0zm-1.992 0"/><path d="M506.088 93.569a1.993 1.993 0 1 0-3.985 0 1.993 1.993 0 0 0 3.985 0zm-1.993 0"/><path stroke-width=".399" stroke-miterlimit="10" fill="none" stroke="#000" d="M506.088 93.569a1.993 1.993 0 1 0-3.985 0 1.993 1.993 0 0 0 3.985 0zm-1.993 0"/><use xlink:href="#m" transform="matrix(9.9626 0 0 -9.9626 581.509 156.857)"/><use xlink:href="#i" transform="matrix(9.9626 0 0 -9.9626 421.562 10.051)"/></svg>