<svg xmlns="http://www.w3.org/2000/svg" xmlns:xlink="http://www.w3.org/1999/xlink" width="259.555" height="219.884" viewBox="0 0 194.666 164.913"><path stroke-width=".199" stroke-miterlimit="10" fill="none" stroke="#929292" d="M53.182 126.472v-4.252m35.322 4.252v-4.252m35.322 4.252v-4.252m35.322 4.252v-4.252M15.735 161.591h4.252m-4.252-12.415h4.252m-4.252-12.415h4.252m-4.252-24.83h4.252m-4.252-12.415h4.252m-4.252-12.415h4.252m-4.252-12.415h4.252m-4.252-12.415h4.252m-4.252-12.415h4.252m-4.252-12.415h4.252m-4.252-12.415h4.252m-4.252-12.415h4.252"/><path stroke-width=".399" stroke-miterlimit="10" fill="none" stroke="#000" d="M.2 124.346h192.277"/><path d="m194.47 124.346-3.188-1.594 1.195 1.594-1.195 1.594"/><path stroke-width=".399" stroke-miterlimit="10" fill="none" stroke="#000" d="M17.86 161.591V2.189"/><path d="m17.86.196-1.593 3.188 1.594-1.195 1.594 1.195"/><symbol id="a"><path d="M.077.077.183.18c.156.138.216.192.216.292 0 .114-.09.194-.212.194A.185.185 0 0 1 0 .485C0 .429.05.429.053.429c.017 0 .052.012.052.053a.05.05 0 0 1-.053.052L.039.533a.144.144 0 0 0 .135.102C.265.635.308.554.308.472c0-.08-.05-.159-.105-.221L.011.037C0 .026 0 .024 0 0h.371l.028.174H.374C.369.144.362.1.352.085.345.077.279.077.257.077h-.18z"/></symbol><use xlink:href="#a" transform="matrix(9.9626 0 0 -9.9626 86.51 136.414)"/><symbol id="b"><path d="M.09.35v.024c0 .253.124.289.175.289.024 0 .066-.006.088-.04-.015 0-.055 0-.055-.045 0-.031.024-.046.046-.046C.36.532.39.541.39.58.39.64.346.688.263.688.135.688 0 .559 0 .338 0 .071.116 0 .209 0 .32 0 .415.094.415.226c0 .127-.089.223-.2.223C.147.449.11.398.09.35M.209.028C.146.028.116.088.11.103.092.15.092.23.092.248c0 .078.032.178.122.178.016 0 .062 0 .093-.062C.325.327.325.276.325.227c0-.048 0-.098-.017-.134C.278.033.232.028.209.028z"/></symbol><use xlink:href="#b" transform="matrix(9.9626 0 0 -9.9626 7.651 53.288)"/><clipPath id="c"><path transform="matrix(1 0 0 -1 -52.783 248.496)" d="M52.983 86.905h194.27V248.3H52.983z"/></clipPath><g clip-path="url(#c)"><path stroke-width=".797" stroke-miterlimit="10" fill="none" stroke="#00f" d="m-52.783 49.856 1.597 2.22 1.598 2.17 1.597 2.12 1.598 2.067 1.597 2.018 1.598 1.966 1.597 1.916 1.598 1.865 1.597 1.814 1.598 1.764 1.597 1.713 1.598 1.661 1.597 1.612 1.597 1.56 1.598 1.51 1.597 1.458 1.598 1.408 1.597 1.357 1.598 1.306 1.597 1.256 1.598 1.205 1.597 1.154 1.598 1.103 1.597 1.053 1.598 1.001 1.597.951 1.597.9 1.598.85 1.597.798 1.598.748 1.597.696 1.598.647 1.597.595 1.598.544 1.597.494 1.598.443 1.597.392 1.598.342 1.597.29 1.598.24 1.597.19 1.597.138 1.598.087 1.597.037 1.598-.014 1.597-.065 1.598-.116 1.597-.166 1.598-.218 1.597-.268 1.598-.318 1.597-.37 1.598-.42 1.597-.472 1.597-.522 1.598-.572 1.597-.624 1.598-.674 1.597-.725 1.598-.776 1.597-.827 1.598-.877 1.597-.929 1.598-.979 1.597-1.03 1.598-1.08 1.597-1.132 1.597-1.182 1.598-1.233 1.597-1.284 1.598-1.334 1.597-1.386 1.598-1.436L65.429 77l1.598-1.537 1.597-1.589 1.598-1.64 1.597-1.69 1.598-1.74 1.597-1.792 1.597-1.842 1.598-1.893 1.597-1.944 1.598-1.995L83 57.29l1.598-2.096 1.597-2.147 1.598-2.198L89.39 48.6l1.598-2.3 1.597-2.35 1.598-2.4 1.597-2.453 1.598-2.502 1.597-2.554 1.597-2.604 1.598-2.655 1.597-2.706 1.598-2.756 1.597-2.808 1.598-2.858 1.597-2.909 1.598-2.96 1.597-3.01 1.598-3.062 1.597-3.112 1.598-3.163 1.597-3.213 1.597-3.265 1.598-3.315 1.597-3.366 1.598-3.417 1.597-3.468 1.598-3.518 1.597-3.57 1.598-3.619 1.597-3.671 1.598-3.721 1.597-3.773 1.598-3.823 1.597-3.874 1.598-3.925 1.597-3.975 1.597-4.026 1.598-4.077 1.597-4.128 1.598-4.179 1.597-4.23 1.598-4.28 1.597-4.33 1.598-4.382 1.597-4.433 1.598-4.483 1.597-4.534 1.598-4.585 1.597-4.636 1.597-4.686 1.598-4.738 1.597-4.788 1.598-4.839 1.597-4.89 1.598-4.94 1.597-4.991 1.598-5.042 1.597-5.093 1.598-5.143 1.597-5.195 1.598-5.245 1.597-5.296 1.597-5.347 1.598-5.397 1.597-5.449 1.598-5.499 1.597-5.55 1.598-5.6 1.597-5.652 1.598-5.702 1.597-5.753 1.598-5.804 1.597-5.854 1.598-5.906 1.597-5.956 1.597-6.007 1.598-6.058 1.597-6.108 1.598-6.16 1.597-6.21 1.598-6.26 1.597-6.312 1.598-6.363 1.597-6.413 1.598-6.464 1.597-6.515 1.598-6.566 1.597-6.616 1.597-6.667 1.598-6.718 1.597-6.769 1.598-6.82 1.597-6.87 1.598-6.921 1.597-6.972 1.598-7.023 1.597-7.073 1.598-7.124 1.597-7.175 1.598-7.227 1.597-7.276 1.598-7.327 1.597-7.378 1.597-7.43 1.598-7.48 1.597-7.53 1.598-7.581 1.597-7.633 1.598-7.682 1.597-7.734 1.598-7.785 1.597-7.835"/><path stroke-width=".797" stroke-miterlimit="10" fill="none" stroke="red" d="m-52.783 248.496 1.597-2.246 1.598-2.246 1.597-2.246 1.598-2.246 1.597-2.246 1.598-2.246 1.597-2.245 1.598-2.246 1.597-2.246 1.598-2.246 1.597-2.246 1.598-2.246 1.597-2.246 1.597-2.246 1.598-2.246 1.597-2.246 1.598-2.246 1.597-2.246 1.598-2.246 1.597-2.245 1.598-2.246 1.597-2.246 1.598-2.246 1.597-2.246 1.598-2.246 1.597-2.246 1.597-2.246 1.598-2.246 1.597-2.246 1.598-2.246 1.597-2.246 1.598-2.245 1.597-2.246 1.598-2.246 1.597-2.246 1.598-2.246 1.597-2.246 1.598-2.246 1.597-2.246 1.598-2.246 1.597-2.246 1.597-2.246 1.598-2.246 1.597-2.246 1.598-2.245 1.597-2.246 1.598-2.246 1.597-2.246 1.598-2.246 1.597-2.246 1.598-2.246 1.597-2.246 1.598-2.246 1.597-2.246 1.597-2.246 1.598-2.246 1.597-2.246 1.598-2.245 1.597-2.246 1.598-2.246 1.597-2.246 1.598-2.246 1.597-2.246 1.598-2.246 1.597-2.246 1.598-2.246 1.597-2.246 1.597-2.246 1.598-2.246 1.597-2.246 1.598-2.246 1.597-2.245 1.598-2.246 1.597-2.246 1.598-2.246 1.597-2.246 1.598-2.246 1.597-2.246 1.598-2.246 1.597-2.246 1.597-2.246 1.598-2.246 1.597-2.246 1.598-2.246L83 57.593l1.598-2.246 1.597-2.246 1.598-2.246 1.597-2.246 1.598-2.246 1.597-2.246 1.598-2.246 1.597-2.246 1.598-2.246 1.597-2.246 1.597-2.246 1.598-2.245 1.597-2.246 1.598-2.246 1.597-2.246 1.598-2.246 1.597-2.246 1.598-2.246 1.597-2.246 1.598-2.246 1.597-2.246 1.598-2.246 1.597-2.246 1.597-2.246 1.598-2.245 1.597-2.246 1.598-2.246 1.597-2.246 1.598-2.246 1.597-2.246 1.598-2.246 1.597-2.246 1.598-2.246 1.597-2.246 1.598-2.246 1.597-2.246 1.598-2.246 1.597-2.245 1.597-2.246 1.598-2.246 1.597-2.246 1.598-2.246 1.597-2.246 1.598-2.246 1.597-2.246 1.598-2.246 1.597-2.246 1.598-2.246 1.597-2.246 1.598-2.246 1.597-2.245 1.597-2.246 1.598-2.246 1.597-2.246 1.598-2.246 1.597-2.246 1.598-2.246 1.597-2.246 1.598-2.246 1.597-2.246 1.598-2.246 1.597-2.246 1.598-2.245 1.597-2.246 1.597-2.246 1.598-2.246 1.597-2.246 1.598-2.246 1.597-2.246 1.598-2.246 1.597-2.246 1.598-2.246 1.597-2.246 1.598-2.246 1.597-2.246 1.598-2.245 1.597-2.246 1.597-2.246 1.598-2.246 1.597-2.246 1.598-2.246 1.597-2.246 1.598-2.246 1.597-2.246 1.598-2.246 1.597-2.246 1.598-2.246 1.597-2.246 1.598-2.245 1.597-2.246 1.597-2.246 1.598-2.246 1.597-2.246 1.598-2.246 1.597-2.246 1.598-2.246 1.597-2.246 1.598-2.246 1.597-2.246 1.598-2.246 1.597-2.246 1.598-2.246 1.597-2.245 1.598-2.246 1.597-2.246 1.597-2.246 1.598-2.246 1.597-2.246 1.598-2.246 1.597-2.246 1.598-2.246 1.597-2.246 1.598-2.246 1.597-2.246"/><symbol id="d"><path d="M.314.605H.4c.02 0 .03 0 .03.02C.43.636.42.636.403.636H.32L.341.75a.953.953 0 0 0 .024.104c.009.019.026.034.047.034.004 0 .03 0 .049-.018A.055.055 0 0 1 .407.816c0-.023.018-.035.037-.035.026 0 .055.022.055.06C.499.887.453.91.412.91.378.91.315.892.285.793.279.772.276.762.252.636H.183c-.019 0-.03 0-.03-.019 0-.012.009-.012.028-.012h.066L.172.21C.154.113.137.022.085.022c-.004 0-.029 0-.048.018a.054.054 0 0 1 .055.054c0 .023-.018.035-.037.035C.029.129 0 .107 0 .069 0 .024.044 0 .085 0 .14 0 .18.059.198.097a.894.894 0 0 1 .056.191l.06.317z"/></symbol><use xlink:href="#d" transform="matrix(9.9626 0 0 -9.9626 94.886 29.562)" fill="#00f"/></g><path d="M90.497 49.856a1.993 1.993 0 1 0-3.985 0 1.993 1.993 0 0 0 3.985 0zm-1.993 0"/><path stroke-width=".399" stroke-miterlimit="10" fill="none" stroke="#000" d="M90.497 49.856a1.993 1.993 0 1 0-3.985 0 1.993 1.993 0 0 0 3.985 0zm-1.993 0"/><symbol id="e"><path d="M.305.313c.006.026.029.118.099.118.005 0 .029 0 .05-.013A.058.058 0 0 1 .406.364c0-.016.011-.035.038-.035.022 0 .054.018.054.058 0 .052-.059.066-.093.066C.347.453.312.4.3.377a.11.11 0 0 1-.108.076C.088.453.031.324.031.299c0-.01.01-.01.012-.01.008 0 .011.002.013.011.034.106.1.131.134.131.019 0 .054-.009.054-.067C.244.333.227.266.19.126.174.064.139.022.095.022c-.006 0-.029 0-.05.013C.07.04.092.061.092.089.092.116.07.124.055.124A.057.057 0 0 1 0 .066C0 .02.05 0 .094 0 .16 0 .196.07.199.076A.11.11 0 0 1 .307 0c.103 0 .16.129.16.154 0 .01-.009.01-.012.01C.446.164.444.16.442.153.409.046.341.022.309.022.27.022.254.054.254.088c0 .022.006.044.017.088l.034.137z"/></symbol><use xlink:href="#e" transform="matrix(9.9626 0 0 -9.9626 185.542 120.938)"/><symbol id="f"><path d="M.457.586C.461.6.461.602.461.609c0 .018-.014.027-.029.027A.043.043 0 0 1 .397.615 1.87 1.87 0 0 1 .363.481L.318.301C.314.286.271.216.205.216.154.216.143.26.143.297c0 .046.017.108.051.196.016.041.02.052.02.072a.08.08 0 0 1-.082.082C.037.647 0 .502 0 .493c0-.01.01-.01.012-.01.01 0 .011.002.016.018.027.094.067.124.101.124.008 0 .025 0 .025-.032 0-.025-.01-.051-.017-.07a.66.66 0 0 1-.058-.21c0-.089.063-.119.122-.119.039 0 .073.017.101.045C.289.187.277.138.237.085.211.051.173.022.127.022.113.022.068.025.051.064c.016 0 .029 0 .043.012.01.009.02.022.02.041 0 .031-.027.035-.037.035C.054.152.021.136.021.087.021.037.065 0 .127 0 .23 0 .333.091.361.204l.096.382z"/></symbol><use xlink:href="#f" transform="matrix(9.9626 0 0 -9.9626 21.669 10.051)"/></svg>