<svg xmlns="http://www.w3.org/2000/svg" xmlns:xlink="http://www.w3.org/1999/xlink" width="259.56" height="215.712" viewBox="0 0 194.67 161.784"><path stroke-width=".199" stroke-miterlimit="10" fill="none" stroke="#929292" d="M19.628 117.6v-4.252m19.428 4.252v-4.252m19.427 4.252v-4.252M77.91 117.6v-4.252m38.855 4.252v-4.252m19.427 4.252v-4.252m19.428 4.252v-4.252m19.427 4.252v-4.252M95.211 138.53h4.253m-4.253-46.111h4.253m-4.253-23.055h4.253m-4.253-23.056h4.253m-4.253-23.055h4.253"/><path stroke-width=".399" stroke-miterlimit="10" fill="none" stroke="#000" d="M.2 115.474h192.282"/><path d="m194.475 115.474-3.189-1.594 1.196 1.594-1.196 1.594"/><path stroke-width=".399" stroke-miterlimit="10" fill="none" stroke="#000" d="M97.338 161.585V2.19"/><path d="m97.338.198-1.594 3.188 1.594-1.196 1.594 1.196"/><symbol id="a"><path d="M.265 0v.058H0V0h.265z"/></symbol><symbol id="b"><path d="M.077.077.183.18c.156.138.216.192.216.292 0 .114-.09.194-.212.194A.185.185 0 0 1 0 .485C0 .429.05.429.053.429c.017 0 .052.012.052.053a.05.05 0 0 1-.053.052L.039.533a.144.144 0 0 0 .135.102C.265.635.308.554.308.472c0-.08-.05-.159-.105-.221L.011.037C0 .026 0 .024 0 0h.371l.028.174H.374C.369.144.362.1.352.085.345.077.279.077.257.077h-.18z"/></symbol><use xlink:href="#a" transform="matrix(9.9626 0 0 -9.9626 54.439 125.678)"/><use xlink:href="#b" transform="matrix(9.9626 0 0 -9.9626 58.145 127.541)"/><clipPath id="c"><path transform="matrix(1 0 0 -1 -96.936 161.585)" d="M97.137 0H291.41v161.387H97.137z"/></clipPath><g clip-path="url(#c)"><path stroke-width=".797" stroke-miterlimit="10" fill="none" stroke="#00f" d="M-96.936 92.419H291.601"/><symbol id="d"><path d="M.232.694c0 .001 0 .011-.013.011C.196.705.123.697.097.695.089.694.078.693.078.675c0-.012.009-.012.024-.012.048 0 .05-.007.05-.017L.149.626.004.05C0 .036 0 .034 0 .028 0 .005.02 0 .029 0c.016 0 .032.012.037.026l.019.076.022.09a1.31 1.31 0 0 1 .028.112.295.295 0 0 0 .068.092.16.16 0 0 0 .096.035c.043 0 .054-.034.054-.07A.85.85 0 0 0 .291.137C.283.114.278.102.278.082A.08.08 0 0 1 .36 0c.094 0 .131.146.131.154 0 .01-.009.01-.012.01-.01 0-.01-.003-.015-.018C.449.093.417.022.362.022c-.017 0-.024.01-.024.033a.19.19 0 0 0 .018.071c.016.043.061.162.061.22 0 .065-.04.107-.115.107A.186.186 0 0 1 .154.376l.078.318z"/></symbol><use xlink:href="#d" transform="matrix(9.9626 0 0 -9.9626 172.72 49.879)" fill="#00f"/></g><path d="M60.475 23.253a1.993 1.993 0 1 0-3.985 0 1.993 1.993 0 0 0 3.985 0zm-1.992 0" fill="#00f"/><path stroke-width=".399" stroke-miterlimit="10" fill="none" stroke="#00f" d="M60.475 23.253a1.993 1.993 0 1 0-3.985 0 1.993 1.993 0 0 0 3.985 0zm-1.992 0"/><path d="M60.475 92.419a1.993 1.993 0 1 0-3.985 0 1.993 1.993 0 0 0 3.985 0zm-1.992 0" fill="#fff"/><path stroke-width=".399" stroke-miterlimit="10" fill="none" stroke="#000" d="M60.475 92.419a1.993 1.993 0 1 0-3.985 0 1.993 1.993 0 0 0 3.985 0zm-1.992 0"/><symbol id="e"><path d="M.305.313c.006.026.029.118.099.118.005 0 .029 0 .05-.013A.058.058 0 0 1 .406.364c0-.016.011-.035.038-.035.022 0 .054.018.054.058 0 .052-.059.066-.093.066C.347.453.312.4.3.377a.11.11 0 0 1-.108.076C.088.453.031.324.031.299c0-.01.01-.01.012-.01.008 0 .011.002.013.011.034.106.1.131.134.131.019 0 .054-.009.054-.067C.244.333.227.266.19.126.174.064.139.022.095.022c-.006 0-.029 0-.05.013C.07.04.092.061.092.089.092.116.07.124.055.124A.057.057 0 0 1 0 .066C0 .02.05 0 .094 0 .16 0 .196.07.199.076A.11.11 0 0 1 .307 0c.103 0 .16.129.16.154 0 .01-.009.01-.012.01C.446.164.444.16.442.153.409.046.341.022.309.022.27.022.254.054.254.088c0 .022.006.044.017.088l.034.137z"/></symbol><use xlink:href="#e" transform="matrix(9.9626 0 0 -9.9626 185.546 112.065)"/><symbol id="f"><path d="M.457.586C.461.6.461.602.461.609c0 .018-.014.027-.029.027A.043.043 0 0 1 .397.615 1.87 1.87 0 0 1 .363.481L.318.301C.314.286.271.216.205.216.154.216.143.26.143.297c0 .046.017.108.051.196.016.041.02.052.02.072a.08.08 0 0 1-.082.082C.037.647 0 .502 0 .493c0-.01.01-.01.012-.01.01 0 .011.002.016.018.027.094.067.124.101.124.008 0 .025 0 .025-.032 0-.025-.01-.051-.017-.07a.66.66 0 0 1-.058-.21c0-.089.063-.119.122-.119.039 0 .073.017.101.045C.289.187.277.138.237.085.211.051.173.022.127.022.113.022.068.025.051.064c.016 0 .029 0 .043.012.01.009.02.022.02.041 0 .031-.027.035-.037.035C.054.152.021.136.021.087.021.037.065 0 .127 0 .23 0 .333.091.361.204l.096.382z"/></symbol><use xlink:href="#f" transform="matrix(9.9626 0 0 -9.9626 101.144 10.051)"/></svg>