<svg xmlns="http://www.w3.org/2000/svg" xmlns:xlink="http://www.w3.org/1999/xlink" width="259.549" height="215.707" viewBox="0 0 194.662 161.78"><path stroke-width=".199" stroke-miterlimit="10" fill="none" stroke="#929292" d="M27.954 117.597v-4.252m55.505 4.252v-4.252m27.752 4.252v-4.252m27.753 4.252v-4.252m27.752 4.252v-4.252M53.58 138.526h4.253m-4.252-46.11h4.252M53.58 69.362h4.252M53.58 46.307h4.252M53.58 23.252h4.252"/><path stroke-width=".399" stroke-miterlimit="10" fill="none" stroke="#000" d="M.202 115.471h192.274"/><path d="m194.468 115.471-3.188-1.594 1.196 1.594-1.196 1.594"/><path stroke-width=".399" stroke-miterlimit="10" fill="none" stroke="#000" d="M55.707 161.581V2.189"/><path d="m55.707.197-1.594 3.188 1.594-1.196L57.3 3.385"/><symbol id="a"><path d="M.077.077.183.18c.156.138.216.192.216.292 0 .114-.09.194-.212.194A.185.185 0 0 1 0 .485C0 .429.05.429.053.429c.017 0 .052.012.052.053a.05.05 0 0 1-.053.052L.039.533a.144.144 0 0 0 .135.102C.265.635.308.554.308.472c0-.08-.05-.159-.105-.221L.011.037C0 .026 0 .024 0 0h.371l.028.174H.374C.369.144.362.1.352.085.345.077.279.077.257.077h-.18z"/></symbol><use xlink:href="#a" transform="matrix(9.9626 0 0 -9.9626 109.214 127.538)"/><clipPath id="b"><path transform="matrix(1 0 0 -1 -221.816 161.581)" d="M222.018 0h194.266v161.384H222.018z"/></clipPath><g clip-path="url(#b)"><path stroke-width=".797" stroke-miterlimit="10" fill="none" stroke="#00f" d="m-221.816-161.187 1.673 1.39 1.674 1.39 1.673 1.39 1.674 1.39 1.673 1.391 1.674 1.39 1.673 1.39 1.674 1.39 1.673 1.39 1.674 1.391 1.673 1.39 1.674 1.39 1.673 1.39 1.674 1.391 1.673 1.39 1.674 1.39 1.673 1.39 1.674 1.391 1.673 1.39 1.674 1.39 1.673 1.39 1.674 1.39 1.673 1.391 1.674 1.39 1.673 1.39 1.674 1.39 1.673 1.391 1.674 1.39 1.673 1.39 1.674 1.39 1.673 1.391 1.674 1.39 1.673 1.39 1.674 1.39 1.673 1.39 1.673 1.391 1.674 1.39 1.673 1.39 1.674 1.39 1.673 1.391 1.674 1.39 1.673 1.39 1.674 1.39 1.673 1.391 1.674 1.39 1.673 1.39 1.674 1.39 1.673 1.39 1.674 1.391 1.673 1.39 1.674 1.39 1.673 1.39 1.674 1.391 1.673 1.39 1.674 1.39 1.673 1.39 1.674 1.391 1.673 1.39 1.674 1.39 1.673 1.39 1.674 1.39 1.673 1.391 1.674 1.39 1.673 1.39 1.674 1.39 1.673 1.391 1.674 1.39 1.673 1.39 1.674 1.39 1.673 1.39 1.674 1.391 1.673 1.39 1.674 1.39 1.673 1.39 1.673 1.391 1.674 1.39 1.673 1.39 1.674 1.39 1.673 1.391 1.674 1.39 1.673 1.39 1.674 1.39 1.673 1.39 1.674 1.391 1.673 1.39 1.674 1.39 1.673 1.39 1.674 1.391 1.673 1.39 1.674 1.39 1.673 1.39 1.674 1.391 1.673 1.39 1.674 1.39 1.673 1.39 1.674 1.39 1.673 1.391 1.674 1.39 1.673 1.39 1.674 1.39 1.673 1.391 1.674 1.39 1.673 1.39 1.674 1.39 1.673 1.39 1.674 1.391 1.673 1.39 1.674 1.39 1.673 1.39 1.674 1.391 1.673 1.39 1.674 1.39 1.673 1.39 1.674 1.391 1.673 1.39 1.673 1.39 1.674 1.39 1.673 1.39 1.674 1.391 1.673 1.39 1.674 1.39 1.673 1.39 1.674 1.391 1.673 1.39 1.674 1.39 1.673 1.39 1.674 1.391 1.673 1.39 1.674 1.39 1.673 1.39 1.674 1.39 1.673 1.391 1.674 1.39 1.673 1.39 1.674 1.39 1.673 1.391 1.674 1.39 1.673 1.39 1.674 1.39 1.673 1.391 1.674 1.39 1.673 1.39 1.674 1.39 1.673 1.39 1.674 1.391 1.673 1.39 1.674 1.39 1.673 1.39 1.674 1.391 1.673 1.39 1.674 1.39 1.673 1.39 1.674 1.39 1.673 1.391 1.674 1.39 1.673 1.39 1.673 1.39 1.674 1.391 1.673 1.39 1.674 1.39 1.673 1.39 1.674 1.391 1.673 1.39 1.674 1.39 1.673 1.39 1.674 1.391 1.673 1.39 1.674 1.39 1.673 1.39 1.674 1.39 1.673 1.391 1.674 1.39 1.673 1.39 1.674 1.39 1.673 1.391 1.674 1.39 1.673 1.39 1.674 1.39 1.673 1.391 1.674 1.39 1.673 1.39 1.674 1.39 1.673 1.39 1.674 1.391 1.673 1.39 1.674 1.39 1.673 1.39 1.674 1.391 1.673 1.39 1.674 1.39 1.673 1.39 1.674 1.391 1.673 1.39 1.674 1.39 1.673 1.39 1.674 1.39 1.673 1.391 1.674 1.39 1.673 1.39M111.211 115.471l1.116-.927 1.116-.926 1.115-.927 1.116-.927 1.116-.927 1.115-.927 1.116-.927 1.116-.926 1.115-.927 1.116-.927 1.116-.927 1.115-.927 1.116-.926 1.116-.927 1.115-.927 1.116-.927 1.116-.927 1.115-.927 1.116-.926 1.116-.927 1.115-.927 1.116-.927 1.116-.927 1.115-.927 1.116-.926 1.116-.927 1.115-.927 1.116-.927 1.116-.927 1.115-.927 1.116-.926 1.116-.927 1.115-.927 1.116-.927 1.116-.927 1.115-.927 1.116-.926 1.116-.927 1.115-.927 1.116-.927 1.116-.927 1.115-.926 1.116-.927 1.116-.927 1.115-.927 1.116-.927 1.116-.927 1.115-.926 1.116-.927 1.116-.927 1.115-.927 1.116-.927 1.116-.927 1.115-.926 1.116-.927 1.116-.927 1.115-.927 1.116-.927 1.116-.927 1.115-.926 1.116-.927 1.116-.927 1.115-.927 1.116-.927 1.116-.927 1.115-.926 1.116-.927 1.116-.927 1.115-.927 1.116-.927 1.116-.926 1.115-.927 1.116-.927 1.116-.927 1.115-.927 1.116-.927 1.116-.926 1.115-.927 1.116-.927 1.116-.927 1.115-.927 1.116-.927 1.116-.926 1.115-.927 1.116-.927 1.116-.927 1.115-.927 1.116-.927 1.116-.926 1.115-.927 1.116-.927 1.116-.927 1.115-.927 1.116-.927 1.116-.926 1.115-.927 1.116-.927 1.116-.927 1.115-.927 1.116-.926 1.116-.927 1.115-.927 1.116-.927 1.116-.927 1.115-.927 1.116-.926 1.116-.927 1.115-.927 1.116-.927 1.116-.927 1.115-.927 1.116-.926 1.116-.927 1.115-.927 1.116-.927 1.116-.927 1.115-.927 1.116-.926 1.116-.927 1.115-.927 1.116-.927 1.116-.927 1.115-.927 1.116-.926 1.116-.927 1.115-.927 1.116-.927 1.116-.927 1.115-.926 1.116-.927 1.116-.927 1.115-.927 1.116-.927 1.116-.927 1.115-.926 1.116-.927 1.116-.927 1.115-.927 1.116-.927 1.116-.927 1.115-.926 1.116-.927 1.116-.927 1.115-.927 1.116-.927 1.116-.927 1.116-.926 1.115-.927 1.116-.927 1.115-.927 1.116-.927 1.116-.927 1.115-.926 1.116-.927 1.116-.927 1.116-.927 1.115-.927 1.116-.927 1.116-.926 1.115-.927 1.116-.927 1.115-.927 1.116-.927 1.116-.926 1.116-.927 1.115-.927 1.116-.927 1.116-.927 1.115-.927 1.116-.926 1.115-.927 1.116-.927 1.116-.927 1.115-.927 1.116-.927 1.116-.926 1.116-.927 1.115-.927 1.116-.927 1.116-.927 1.115-.927 1.116-.926 1.115-.927 1.116-.927 1.116-.927 1.116-.927 1.115-.926 1.116-.927 1.116-.927 1.115-.927 1.116-.927 1.116-.927 1.115-.926 1.116-.927 1.116-.927 1.115-.927 1.116-.927 1.116-.927 1.115-.926"/><symbol id="c"><path d="M.314.605H.4c.02 0 .03 0 .03.02C.43.636.42.636.403.636H.32L.341.75a.953.953 0 0 0 .024.104c.009.019.026.034.047.034.004 0 .03 0 .049-.018A.055.055 0 0 1 .407.816c0-.023.018-.035.037-.035.026 0 .055.022.055.06C.499.887.453.91.412.91.378.91.315.892.285.793.279.772.276.762.252.636H.183c-.019 0-.03 0-.03-.019 0-.012.009-.012.028-.012h.066L.172.21C.154.113.137.022.085.022c-.004 0-.029 0-.048.018a.054.054 0 0 1 .055.054c0 .023-.018.035-.037.035C.029.129 0 .107 0 .069 0 .024.044 0 .085 0 .14 0 .18.059.198.097a.894.894 0 0 1 .056.191l.06.317z"/></symbol><use xlink:href="#c" transform="matrix(9.9626 0 0 -9.9626 164.264 50.841)" fill="#00f"/></g><symbol id="d"><path d="M.305.313c.006.026.029.118.099.118.005 0 .029 0 .05-.013A.058.058 0 0 1 .406.364c0-.016.011-.035.038-.035.022 0 .054.018.054.058 0 .052-.059.066-.093.066C.347.453.312.4.3.377a.11.11 0 0 1-.108.076C.088.453.031.324.031.299c0-.01.01-.01.012-.01.008 0 .011.002.013.011.034.106.1.131.134.131.019 0 .054-.009.054-.067C.244.333.227.266.19.126.174.064.139.022.095.022c-.006 0-.029 0-.05.013C.07.04.092.061.092.089.092.116.07.124.055.124A.057.057 0 0 1 0 .066C0 .02.05 0 .094 0 .16 0 .196.07.199.076A.11.11 0 0 1 .307 0c.103 0 .16.129.16.154 0 .01-.009.01-.012.01C.446.164.444.16.442.153.409.046.341.022.309.022.27.022.254.054.254.088c0 .022.006.044.017.088l.034.137z"/></symbol><use xlink:href="#d" transform="matrix(9.9626 0 0 -9.9626 185.538 112.062)"/><symbol id="e"><path d="M.457.586C.461.6.461.602.461.609c0 .018-.014.027-.029.027A.043.043 0 0 1 .397.615 1.87 1.87 0 0 1 .363.481L.318.301C.314.286.271.216.205.216.154.216.143.26.143.297c0 .046.017.108.051.196.016.041.02.052.02.072a.08.08 0 0 1-.082.082C.037.647 0 .502 0 .493c0-.01.01-.01.012-.01.01 0 .011.002.016.018.027.094.067.124.101.124.008 0 .025 0 .025-.032 0-.025-.01-.051-.017-.07a.66.66 0 0 1-.058-.21c0-.089.063-.119.122-.119.039 0 .073.017.101.045C.289.187.277.138.237.085.211.051.173.022.127.022.113.022.068.025.051.064c.016 0 .029 0 .043.012.01.009.02.022.02.041 0 .031-.027.035-.037.035C.054.152.021.136.021.087.021.037.065 0 .127 0 .23 0 .333.091.361.204l.096.382z"/></symbol><use xlink:href="#e" transform="matrix(9.9626 0 0 -9.9626 59.512 10.05)"/></svg>