<svg xmlns="http://www.w3.org/2000/svg" xmlns:xlink="http://www.w3.org/1999/xlink" width="259.56" height="215.707" viewBox="0 0 194.67 161.78"><path stroke-width=".199" stroke-miterlimit="10" fill="none" stroke="#929292" d="M19.628 117.586v-4.253m19.428 4.253v-4.253m19.427 4.253v-4.253m19.427 4.253v-4.253m38.855 4.253v-4.253m19.427 4.253v-4.253m19.428 4.253v-4.253m19.427 4.253v-4.253M95.211 138.514h4.253m-4.253-46.11h4.253M95.211 69.35h4.253m-4.253-23.055h4.253M95.211 23.24h4.253"/><path stroke-width=".399" stroke-miterlimit="10" fill="none" stroke="#000" d="M.2 115.46h192.282"/><path d="m194.475 115.46-3.189-1.595 1.196 1.594-1.196 1.594"/><path stroke-width=".399" stroke-miterlimit="10" fill="none" stroke="#000" d="M97.338 161.57V2.177"/><path d="m97.338.185-1.594 3.188 1.594-1.195 1.594 1.195"/><symbol id="a"><path d="M.265 0v.058H0V0h.265z"/></symbol><symbol id="b"><path d="M.077.077.183.18c.156.138.216.192.216.292 0 .114-.09.194-.212.194A.185.185 0 0 1 0 .485C0 .429.05.429.053.429c.017 0 .052.012.052.053a.05.05 0 0 1-.053.052L.039.533a.144.144 0 0 0 .135.102C.265.635.308.554.308.472c0-.08-.05-.159-.105-.221L.011.037C0 .026 0 .024 0 0h.371l.028.174H.374C.369.144.362.1.352.085.345.077.279.077.257.077h-.18z"/></symbol><use xlink:href="#a" transform="matrix(9.9626 0 0 -9.9626 54.439 125.675)"/><use xlink:href="#b" transform="matrix(9.9626 0 0 -9.9626 58.145 127.538)"/><use xlink:href="#b" transform="matrix(9.9626 0 0 -9.9626 87.205 72.573)"/><clipPath id="c"><path transform="matrix(1 0 0 -1 -96.936 1037.654)" d="M97.137 876.085H291.41v161.384H97.137z"/></clipPath><g clip-path="url(#c)"><path stroke-width=".797" stroke-miterlimit="10" fill="none" stroke="#00f" d="m-96.936 106.237.966-.046.967-.046.966-.047.967-.048.966-.048.967-.048.966-.05.967-.049.966-.05.967-.05.966-.051.967-.052.966-.052.967-.053.966-.053.966-.054.967-.054.966-.056.967-.055.966-.057.967-.056.966-.058.967-.058.966-.059.967-.06.966-.06.967-.06.966-.062.967-.062.966-.063.967-.064.966-.065.967-.065.966-.066.966-.067.967-.067.966-.069.967-.07.966-.07.967-.07.966-.072.967-.073.966-.074.967-.074.966-.076.967-.077.966-.078.967-.078.966-.08.967-.08.966-.083.966-.082.967-.085.966-.085.967-.086.966-.088.967-.089.966-.09.967-.09.966-.093.967-.094.966-.095.967-.097.966-.098.967-.1.966-.1.967-.103.966-.104.966-.106.967-.107.966-.109.967-.11.966-.112.967-.114.966-.116.967-.118.966-.12.967-.12.966-.124.967-.126.966-.128.967-.13.966-.131.967-.135.966-.136.966-.14.967-.14.966-.144.967-.147.966-.149.967-.152.966-.154.967-.158.966-.16.967-.163.966-.167.967-.17.966-.173.967-.176.966-.18.967-.183.966-.188.967-.19.966-.196.966-.198.967-.204.966-.208.967-.212.966-.216.967-.221.966-.227.967-.23.966-.238.967-.242.966-.247.967-.254.966-.26.967-.265.966-.273.966-.279.967-.285.966-.293.967-.301.966-.309.967-.317.966-.324.967-.335.966-.342.967-.353.966-.363.967-.372.966-.384.967-.395.966-.407.967-.419.966-.432.967-.445.966-.46.966-.474.967-.49.966-.506.967-.524.966-.541.967-.56.966-.581.967-.602.966-.624.967-.647.966-.672.967-.699.966-.726.967-.756.966-.788.967-.822.966-.857.966-.894.967-.936.966-.979.967-1.026.966-1.076.967-1.13.966-1.187.967-1.25.966-1.317.967-1.391.966-1.47.967-1.557.966-1.65.967-1.754.966-1.868.967-1.991.966-2.129.966-2.28.967-2.45.966-2.638.967-2.849.966-3.086.967-3.355.966-3.659.967-4.007.966-4.409.967-4.869.966-5.415.967-6.048.966-6.801.967-7.712.966-8.814.967-10.162.966-11.86.967-14.01.966-16.81.966-20.537.967-25.667.966-32.982.967-43.954.966-61.487.967-92.132.966-153.274.967-305.532M99.28 1037.654l.967-306.367.966-153.568.967-92.266.966-61.563.967-43.998.966-33.012.967-25.683.966-20.556.967-16.819.966-14.02.967-11.861.966-10.17.967-8.816.966-7.712.967-6.805.966-6.052.967-5.414.966-4.874.967-4.41.966-4.008.967-3.66.966-3.356.967-3.086.966-2.85.967-2.639.966-2.45.967-2.281.966-2.13.966-1.991.967-1.867.966-1.755.967-1.651.966-1.557.967-1.47.966-1.391.967-1.318.966-1.25.967-1.188.966-1.13.967-1.075.966-1.026.967-.98.966-.935.967-.895.966-.857.967-.822.966-.788.967-.756.966-.727.967-.698.966-.673.967-.647.966-.624.967-.602.966-.58.967-.56.966-.542.967-.524.966-.506.967-.49.966-.474.967-.46.966-.445.967-.432.966-.42.966-.406.967-.395.966-.384.967-.373.966-.362.967-.353.966-.343.967-.334.966-.325.967-.317.966-.308.967-.301.966-.293.967-.286.966-.28.967-.271.966-.266.967-.26.966-.253.967-.248.966-.242.967-.237.966-.231.967-.226.966-.222.967-.216.966-.212.967-.208.966-.203.967-.199.966-.195.967-.19.966-.188.967-.184.966-.18.966-.176.967-.173.966-.17.967-.167.966-.163.967-.16.966-.158.967-.154.966-.152.967-.15.966-.146.967-.144.966-.14.967-.14.966-.136.967-.134.966-.132.967-.13.966-.128.967-.125.966-.124.967-.121.966-.12.967-.118.966-.116.967-.114.966-.112.967-.11.966-.11.967-.107.966-.105.967-.104.966-.103.967-.1.966-.1.966-.098.967-.097.966-.095.967-.094.966-.092.967-.091.966-.09.967-.09.966-.087.967-.086.966-.085.967-.085.966-.082.967-.082.966-.081.967-.08.966-.079.967-.077.966-.077.967-.075.966-.075.967-.074.966-.073.967-.072.966-.07.967-.071.966-.07.967-.068.966-.067.967-.067.966-.066.967-.065.966-.065.967-.064.966-.063.966-.062.967-.062.966-.06.967-.06.966-.06.967-.06.966-.057.967-.058.966-.057.967-.056.966-.055.967-.056.966-.054.967-.054.966-.053.967-.053.966-.052.967-.052.966-.05.967-.051.966-.05.967-.05.966-.049.967-.048.966-.048.967-.048.966-.047.967-.047.966-.046"/><path stroke-width=".797" stroke-miterlimit="10" fill="none" stroke="red" d="m-96.936 253.789 1.952-2.317 1.953-2.317 1.952-2.317 1.953-2.317 1.952-2.317 1.953-2.317 1.952-2.317 1.953-2.317 1.952-2.317 1.952-2.317 1.953-2.317 1.952-2.317 1.953-2.317 1.952-2.317 1.953-2.317 1.952-2.317 1.953-2.318 1.952-2.317 1.952-2.317 1.953-2.317 1.952-2.317 1.953-2.317 1.952-2.317 1.953-2.317 1.952-2.317 1.953-2.317 1.952-2.317 1.953-2.317 1.952-2.317 1.952-2.317 1.953-2.317 1.952-2.317 1.953-2.317 1.952-2.317 1.953-2.317 1.952-2.317 1.953-2.317 1.952-2.317 1.952-2.317 1.953-2.317 1.952-2.317 1.953-2.317 1.952-2.317 1.953-2.317 1.952-2.317 1.953-2.317 1.952-2.317 1.952-2.317 1.953-2.317 1.952-2.317 1.953-2.317 1.952-2.317 1.953-2.317 1.952-2.317 1.953-2.317 1.952-2.317 1.953-2.317 1.952-2.317 1.952-2.317 1.953-2.317 1.952-2.317 1.953-2.317 1.952-2.317 1.953-2.317 1.952-2.317 1.953-2.317 1.952-2.317 1.952-2.317 1.953-2.317 1.952-2.317 1.953-2.317 1.952-2.317 1.953-2.317 1.952-2.317 1.953-2.317 1.952-2.317 1.952-2.317 1.953-2.317 1.952-2.317 1.953-2.317 1.952-2.317 1.953-2.317 1.952-2.317 1.953-2.317 1.952-2.317 1.953-2.317 1.952-2.317 1.952-2.317 1.953-2.317 1.952-2.317 1.953-2.317 1.952-2.317 1.953-2.317 1.952-2.317 1.953-2.317 1.952-2.317 1.952-2.318 1.953-2.316 1.952-2.318 1.953-2.316 1.952-2.318 1.953-2.317 1.952-2.317 1.953-2.316 1.952-2.318 1.952-2.316 1.953-2.317 1.952-2.318 1.953-2.317 1.952-2.317 1.953-2.317 1.952-2.317 1.953-2.317 1.952-2.317 1.953-2.317 1.952-2.317 1.952-2.317 1.953-2.317 1.952-2.317 1.953-2.317 1.952-2.317 1.953-2.317 1.952-2.317 1.953-2.317 1.952-2.317 1.952-2.317 1.953-2.317 1.952-2.317 1.953-2.317 1.952-2.317 1.953-2.317 1.952-2.317 1.953-2.317 1.952-2.317 1.952-2.317 1.953-2.317 1.952-2.317 1.953-2.317 1.952-2.317 1.953-2.317 1.952-2.317 1.953-2.317 1.952-2.317 1.953-2.317 1.952-2.317 1.952-2.317 1.953-2.317 1.952-2.317 1.953-2.317 1.952-2.317 1.953-2.317 1.952-2.317 1.953-2.317 1.952-2.317 1.952-2.317 1.953-2.317 1.952-2.317 1.953-2.317 1.952-2.317 1.953-2.317 1.952-2.317 1.953-2.317 1.952-2.317 1.952-2.317 1.953-2.317 1.952-2.317 1.953-2.317 1.952-2.317 1.953-2.317 1.952-2.317 1.953-2.317 1.952-2.317 1.953-2.317 1.952-2.317 1.952-2.317 1.953-2.317 1.952-2.317 1.953-2.317 1.952-2.317 1.953-2.317 1.952-2.317 1.953-2.317 1.952-2.317 1.952-2.317 1.953-2.318 1.952-2.317 1.953-2.317 1.952-2.317 1.953-2.317 1.952-2.317 1.953-2.317 1.952-2.317 1.952-2.317 1.953-2.317 1.952-2.317 1.953-2.317 1.952-2.316 1.953-2.318 1.952-2.317"/><symbol id="d"><path d="M.314.605H.4c.02 0 .03 0 .03.02C.43.636.42.636.403.636H.32L.341.75a.953.953 0 0 0 .024.104c.009.019.026.034.047.034.004 0 .03 0 .049-.018A.055.055 0 0 1 .407.816c0-.023.018-.035.037-.035.026 0 .055.022.055.06C.499.887.453.91.412.91.378.91.315.892.285.793.279.772.276.762.252.636H.183c-.019 0-.03 0-.03-.019 0-.012.009-.012.028-.012h.066L.172.21C.154.113.137.022.085.022c-.004 0-.029 0-.048.018a.054.054 0 0 1 .055.054c0 .023-.018.035-.037.035C.029.129 0 .107 0 .069 0 .024.044 0 .085 0 .14 0 .18.059.198.097a.894.894 0 0 1 .056.191l.06.317z"/></symbol><use xlink:href="#d" transform="matrix(9.9626 0 0 -9.9626 65.747 27.786)" fill="#00f"/><symbol id="e"><path d="M.457.586C.461.6.461.602.461.609c0 .018-.014.027-.029.027A.043.043 0 0 1 .397.615 1.87 1.87 0 0 1 .363.481L.318.301C.314.286.271.216.205.216.154.216.143.26.143.297c0 .046.017.108.051.196.016.041.02.052.02.072a.08.08 0 0 1-.082.082C.037.647 0 .502 0 .493c0-.01.01-.01.012-.01.01 0 .011.002.016.018.027.094.067.124.101.124.008 0 .025 0 .025-.032 0-.025-.01-.051-.017-.07a.66.66 0 0 1-.058-.21c0-.089.063-.119.122-.119.039 0 .073.017.101.045C.289.187.277.138.237.085.211.051.173.022.127.022.113.022.068.025.051.064c.016 0 .029 0 .043.012.01.009.02.022.02.041 0 .031-.027.035-.037.035C.054.152.021.136.021.087.021.037.065 0 .127 0 .23 0 .333.091.361.204l.096.382z"/></symbol><use xlink:href="#e" transform="matrix(9.9626 0 0 -9.9626 104.73 27.786)" fill="red"/><symbol id="f"><path d="M.631.194c.015 0 .034 0 .034.02s-.019.02-.033.02H.033C.019.234 0 .234 0 .214s.019-.02.034-.02h.597M.632 0c.014 0 .033 0 .033.02S.646.04.631.04H.034C.019.04 0 .04 0 .02S.019 0 .033 0h.599z"/></symbol><symbol id="g"><path d="M.205.64c0 .024 0 .026-.023.026C.12.602.032.602 0 .602V.571a.3.3 0 0 1 .131.026V.079C.131.043.128.031.038.031H.006V0c.035.003.122.003.162.003.04 0 .127 0 .162-.003v.031H.298c-.09 0-.093.011-.093.048V.64z"/></symbol><symbol id="h"><path d="M.232.01c0 .003 0 .005-.017.022C.09.158.058.347.058.5c0 .174.038.348.161.473.013.012.013.014.013.017 0 .007-.004.01-.01.01-.01 0-.1-.068-.159-.195A.727.727 0 0 1 0 .5C0 .422.011.301.066.188A.432.432 0 0 1 .222 0c.006 0 .01.003.01.01z"/></symbol><use xlink:href="#f" transform="matrix(9.9626 0 0 -9.9626 113.009 24.42)" fill="red"/><use xlink:href="#g" transform="matrix(9.9626 0 0 -9.9626 123.858 25.744)" fill="red"/><use xlink:href="#h" transform="matrix(9.9626 0 0 -9.9626 128.94 28.235)" fill="red"/><symbol id="i"><path d="M.305.313c.006.026.029.118.099.118.005 0 .029 0 .05-.013A.058.058 0 0 1 .406.364c0-.016.011-.035.038-.035.022 0 .054.018.054.058 0 .052-.059.066-.093.066C.347.453.312.4.3.377a.11.11 0 0 1-.108.076C.088.453.031.324.031.299c0-.01.01-.01.012-.01.008 0 .011.002.013.011.034.106.1.131.134.131.019 0 .054-.009.054-.067C.244.333.227.266.19.126.174.064.139.022.095.022c-.006 0-.029 0-.05.013C.07.04.092.061.092.089.092.116.07.124.055.124A.057.057 0 0 1 0 .066C0 .02.05 0 .094 0 .16 0 .196.07.199.076A.11.11 0 0 1 .307 0c.103 0 .16.129.16.154 0 .01-.009.01-.012.01C.446.164.444.16.442.153.409.046.341.022.309.022.27.022.254.054.254.088c0 .022.006.044.017.088l.034.137z"/></symbol><use xlink:href="#i" transform="matrix(9.9626 0 0 -9.9626 132.112 25.854)" fill="red"/><symbol id="j"><path d="M.353.313h.279c.014 0 .033 0 .033.02s-.019.02-.033.02H.353v.28c0 .014 0 .033-.02.033S.313.647.313.633v-.28h-.28C.019.353 0 .353 0 .333s.019-.02.033-.02h.28v-.28c0-.014 0-.033.02-.033s.02.019.02.033v.28z"/></symbol><symbol id="k"><path d="M.232.5a.729.729 0 0 1-.066.312A.432.432 0 0 1 .01 1C.004 1 0 .996 0 .99 0 .987 0 .985.019.967.117.868.174.709.174.5.174.329.137.153.013.027 0 .015 0 .013 0 .01 0 .004.004 0 .01 0c.01 0 .1.068.159.195C.22.305.232.416.232.5z"/></symbol><use xlink:href="#j" transform="matrix(9.9626 0 0 -9.9626 140.289 26.571)" fill="red"/><use xlink:href="#b" transform="matrix(9.9626 0 0 -9.9626 150.192 25.744)" fill="red"/><use xlink:href="#k" transform="matrix(9.9626 0 0 -9.9626 155.243 28.235)" fill="red"/><use xlink:href="#j" transform="matrix(9.9626 0 0 -9.9626 161.32 26.571)" fill="red"/><use xlink:href="#b" transform="matrix(9.9626 0 0 -9.9626 171.233 25.744)" fill="red"/></g><use xlink:href="#i" transform="matrix(9.9626 0 0 -9.9626 185.546 112.062)"/><use xlink:href="#e" transform="matrix(9.9626 0 0 -9.9626 101.144 10.05)"/></svg>