<svg xmlns="http://www.w3.org/2000/svg" xmlns:xlink="http://www.w3.org/1999/xlink" width="259.559" height="215.724" viewBox="0 0 194.669 161.793"><path stroke-width=".199" stroke-miterlimit="10" fill="none" stroke="#929292" d="M14.077 103.196v-4.252m27.753 4.252v-4.252m13.877 4.252v-4.252m13.877 4.252v-4.252m13.876 4.252v-4.252m13.877 4.252v-4.252m13.877 4.252v-4.252m13.876 4.252v-4.252m13.877 4.252v-4.252m13.877 4.252v-4.252m13.876 4.252v-4.252m13.877 4.252v-4.252M25.827 141.42h4.253m-4.253-20.175h4.253m-4.253-40.35h4.253m-4.253-20.174h4.253m-4.253-20.174h4.253m-4.253-20.175h4.253"/><path stroke-width=".399" stroke-miterlimit="10" fill="none" stroke="#000" d="M.2 101.07h192.281"/><path d="m194.474 101.07-3.188-1.594 1.195 1.594-1.195 1.594"/><path stroke-width=".399" stroke-miterlimit="10" fill="none" stroke="#000" d="M27.954 161.594V2.19"/><path d="M27.954.198 26.36 3.386l1.594-1.196 1.594 1.196"/><symbol id="a"><path d="M.325.34V.308c0-.234-.104-.28-.162-.28C.146.028.092.03.065.064c.044 0 .052.029.052.046 0 .031-.024.046-.046.046C.055.156.025.147.025.108.025.041.079 0 .164 0c.129 0 .251.136.251.351C.415.62.3.688.211.688A.193.193 0 0 1 .064.625.214.214 0 0 1 0 .463C0 .338.088.24.2.24c.061 0 .102.042.125.1M.201.263c-.016 0-.062 0-.093.063C.09.363.09.413.09.462.09.516.09.563.111.6c.027.05.065.063.1.063C.257.663.29.629.307.584A.497.497 0 0 0 .323.443C.323.36.289.263.201.263z"/></symbol><use xlink:href="#a" transform="matrix(9.9626 0 0 -9.9626 150.768 113.356)"/><clipPath id="b"><path transform="matrix(1 0 0 -1 -110.813 161.594)" d="M111.013 0h194.274v161.396H111.013z"/></clipPath><g clip-path="url(#b)"><path stroke-width=".797" stroke-miterlimit="10" fill="none" stroke="#00f" d="m28.79 87.42 1.535-7.922 1.534-4.865 1.534-3.55 1.534-2.79 1.534-2.255 1.534-1.862 1.535-1.565 1.534-1.317 1.534-1.106 1.534-.945 1.534-.797 1.534-.67 1.534-.554 1.534-.456 1.534-.363 1.534-.282 1.535-.203 1.534-.143 1.534-.076 1.534-.017 1.534.037 1.534.09 1.534.132 1.534.178 1.534.223 1.535.26 1.534.294 1.534.328 1.534.366 1.534.392 1.534.43 1.534.453 1.534.48 1.534.502 1.535.542 1.534.541 1.534.582 1.534.596 1.534.621 1.534.638 1.534.662 1.534.68 1.534.694 1.534.713 1.535.735 1.534.743 1.534.764 1.534.785 1.534.793 1.534.805 1.534.822 1.534.84 1.534.846 1.535.864 1.534.874 1.534.88 1.534.907 1.534.912 1.534.919 1.534.93 1.534.943 1.534.949 1.534.967 1.535.974 1.534.989 1.534.993 1.534 1 1.534 1.01 1.534 1.02 1.534 1.028 1.534 1.037 1.534 1.034 1.535 1.051 1.534 1.065 1.534 1.07 1.534 1.075 1.534 1.085 1.534 1.097 1.534 1.09 1.534 1.106 1.534 1.117 1.535 1.118 1.534 1.124 1.534 1.136 1.534 1.137 1.534 1.147 1.534 1.152 1.534 1.156 1.534 1.164 1.534 1.172 1.534 1.175 1.535 1.183 1.534 1.19 1.534 1.19 1.534 1.196 1.534 1.208 1.534 1.209 1.534 1.212 1.534 1.223 1.534 1.221 1.535 1.225 1.534 1.24 1.534 1.235 1.534 1.252 1.534 1.242 1.534 1.256 1.534 1.257 1.534 1.262"/><path stroke-width=".797" stroke-miterlimit="10" fill="none" stroke="red" d="m-110.813-90.588 1.534 1.115 1.534 1.115 1.534 1.116 1.534 1.115 1.535 1.115 1.534 1.115 1.534 1.115 1.534 1.116 1.534 1.115 1.534 1.115 1.534 1.115 1.534 1.115 1.534 1.116 1.534 1.115 1.535 1.115 1.534 1.115 1.534 1.115 1.534 1.115 1.534 1.116 1.534 1.115 1.534 1.115 1.534 1.115 1.534 1.115 1.535 1.115 1.534 1.116 1.534 1.115 1.534 1.115 1.534 1.115 1.534 1.115 1.534 1.116 1.534 1.115 1.534 1.115 1.535 1.115 1.534 1.115 1.534 1.115 1.534 1.116 1.534 1.115 1.534 1.115 1.534 1.115 1.534 1.115 1.534 1.115 1.534 1.116 1.535 1.115 1.534 1.115 1.534 1.115 1.534 1.115 1.534 1.116 1.534 1.115 1.534 1.115 1.534 1.115 1.534 1.115 1.535 1.115 1.534 1.116 1.534 1.115 1.534 1.115 1.534 1.115 1.534 1.115 1.534 1.116 1.534 1.115 1.534 1.115 1.535 1.115 1.534 1.115 1.534 1.115 1.534 1.116 1.534 1.115 1.534 1.115 1.534 1.115 1.534 1.115 1.534 1.116 1.534 1.115 1.535 1.115 1.534 1.115L1.177-9.18 2.71-8.065l1.534 1.116 1.534 1.115L7.313-4.72l1.534 1.115 1.534 1.115 1.535 1.115L13.45-.258 14.984.857l1.534 1.115 1.534 1.115 1.534 1.115 1.534 1.115 1.534 1.116 1.534 1.115 1.535 1.115 1.534 1.115 1.534 1.115 1.534 1.116 1.534 1.115 1.534 1.115 1.534 1.115 1.534 1.115 1.534 1.115L39.53 18.7l1.534 1.115 1.534 1.115 1.534 1.115 1.534 1.115 1.534 1.116 1.534 1.115 1.534 1.115 1.534 1.115 1.534 1.115 1.535 1.115 1.534 1.116 1.534 1.115 1.534 1.115 1.534 1.115 1.534 1.115 1.534 1.115 1.534 1.116 1.534 1.115 1.535 1.115 1.534 1.115 1.534 1.115 1.534 1.116 1.534 1.115 1.534 1.115 1.534 1.115 1.534 1.115 1.534 1.115 1.535 1.116 1.534 1.115 1.534 1.115 1.534 1.115 1.534 1.115 1.534 1.116 1.534 1.115 1.534 1.115 1.534 1.115 1.534 1.115 1.535 1.115 1.534 1.116 1.534 1.115 1.534 1.115 1.534 1.115 1.534 1.115 1.534 1.115 1.534 1.116 1.534 1.115 1.535 1.115 1.534 1.115 1.534 1.115 1.534 1.116 1.534 1.115 1.534 1.115 1.534 1.115 1.534 1.115 1.534 1.115 1.534 1.116 1.535 1.115 1.534 1.115 1.534 1.115 1.534 1.115 1.534 1.116 1.534 1.115 1.534 1.115 1.534 1.115 1.534 1.115 1.535 1.115 1.534 1.116 1.534 1.115 1.534 1.115 1.534 1.115 1.534 1.115 1.534 1.115 1.534 1.116 1.534 1.115 1.535 1.115 1.534 1.115 1.534 1.115 1.534 1.116 1.534 1.115 1.534 1.115 1.534 1.115 1.534 1.115 1.534 1.115 1.534 1.116 1.535 1.115 1.534 1.115 1.534 1.115 1.534 1.115 1.534 1.115 1.534 1.116 1.534 1.115 1.534 1.115 1.534 1.115 1.535 1.115 1.534 1.116 1.534 1.115 1.534 1.115 1.534 1.115 1.534 1.115 1.534 1.115 1.534 1.116"/><symbol id="c"><path d="M.314.605H.4c.02 0 .03 0 .03.02C.43.636.42.636.403.636H.32L.341.75a.953.953 0 0 0 .024.104c.009.019.026.034.047.034.004 0 .03 0 .049-.018A.055.055 0 0 1 .407.816c0-.023.018-.035.037-.035.026 0 .055.022.055.06C.499.887.453.91.412.91.378.91.315.892.285.793.279.772.276.762.252.636H.183c-.019 0-.03 0-.03-.019 0-.012.009-.012.028-.012h.066L.172.21C.154.113.137.022.085.022c-.004 0-.029 0-.048.018a.054.054 0 0 1 .055.054c0 .023-.018.035-.037.035C.029.129 0 .107 0 .069 0 .024.044 0 .085 0 .14 0 .18.059.198.097a.894.894 0 0 1 .056.191l.06.317z"/></symbol><use xlink:href="#c" transform="matrix(9.9626 0 0 -9.9626 67.135 71.307)" fill="#00f"/><symbol id="d"><path d="M.457.586C.461.6.461.602.461.609c0 .018-.014.027-.029.027A.043.043 0 0 1 .397.615 1.87 1.87 0 0 1 .363.481L.318.301C.314.286.271.216.205.216.154.216.143.26.143.297c0 .046.017.108.051.196.016.041.02.052.02.072a.08.08 0 0 1-.082.082C.037.647 0 .502 0 .493c0-.01.01-.01.012-.01.01 0 .011.002.016.018.027.094.067.124.101.124.008 0 .025 0 .025-.032 0-.025-.01-.051-.017-.07a.66.66 0 0 1-.058-.21c0-.089.063-.119.122-.119.039 0 .073.017.101.045C.289.187.277.138.237.085.211.051.173.022.127.022.113.022.068.025.051.064c.016 0 .029 0 .043.012.01.009.02.022.02.041 0 .031-.027.035-.037.035C.054.152.021.136.021.087.021.037.065 0 .127 0 .23 0 .333.091.361.204l.096.382z"/></symbol><use xlink:href="#d" transform="matrix(9.9626 0 0 -9.9626 93.758 51.133)" fill="red"/><symbol id="e"><path d="M.631.194c.015 0 .034 0 .034.02s-.019.02-.033.02H.033C.019.234 0 .234 0 .214s.019-.02.034-.02h.597M.632 0c.014 0 .033 0 .033.02S.646.04.631.04H.034C.019.04 0 .04 0 .02S.019 0 .033 0h.599z"/></symbol><use xlink:href="#e" transform="matrix(9.9626 0 0 -9.9626 102.036 47.766)" fill="red"/><symbol id="f"><path d="M.576 0c.017 0 .035 0 .035.02S.593.04.576.04H.035C.018.04 0 .04 0 .02S.018 0 .035 0h.541z"/></symbol><use xlink:href="#f" transform="matrix(9.9626 0 0 -9.9626 112.82 46.8)" fill="red"/><symbol id="g"><path d="M.226.636c0 .027-.002.028-.03.028C.132.601.041.6 0 .6V.564c.024 0 .09 0 .145.028v-.51c0-.033 0-.046-.1-.046H.007V0l.178.004L.364 0v.036H.326c-.1 0-.1.013-.1.046v.554z"/></symbol><use xlink:href="#g" transform="matrix(6.9738 0 0 -6.9738 121.7 45.169)" fill="red"/><path stroke-width=".398" stroke-miterlimit="10" fill="none" stroke="red" d="M120.939 46.601h3.971"/><symbol id="h"><path d="M.442.182H.408C.405.16.395.101.382.091.374.085.297.085.283.085H.099a3.5 3.5 0 0 0 .2.168c.074.059.143.121.143.216C.442.59.336.664.208.664.084.664 0 .577 0 .485 0 .434.043.429.053.429c.024 0 .053.017.053.053C.106.5.099.535.047.535a.157.157 0 0 0 .146.093c.1 0 .152-.078.152-.159C.345.382.283.313.251.277L.01.039C0 .03 0 .028 0 0h.412l.03.182z"/></symbol><use xlink:href="#h" transform="matrix(6.9738 0 0 -6.9738 121.378 52.527)" fill="red"/><symbol id="i"><path d="M.232.01c0 .003 0 .005-.017.022C.09.158.058.347.058.5c0 .174.038.348.161.473.013.012.013.014.013.017 0 .007-.004.01-.01.01-.01 0-.1-.068-.159-.195A.727.727 0 0 1 0 .5C0 .422.011.301.066.188A.432.432 0 0 1 .222 0c.006 0 .01.003.01.01z"/></symbol><use xlink:href="#i" transform="matrix(9.9626 0 0 -9.9626 127.091 51.582)" fill="red"/><symbol id="j"><path d="M.305.313c.006.026.029.118.099.118.005 0 .029 0 .05-.013A.058.058 0 0 1 .406.364c0-.016.011-.035.038-.035.022 0 .054.018.054.058 0 .052-.059.066-.093.066C.347.453.312.4.3.377a.11.11 0 0 1-.108.076C.088.453.031.324.031.299c0-.01.01-.01.012-.01.008 0 .011.002.013.011.034.106.1.131.134.131.019 0 .054-.009.054-.067C.244.333.227.266.19.126.174.064.139.022.095.022c-.006 0-.029 0-.05.013C.07.04.092.061.092.089.092.116.07.124.055.124A.057.057 0 0 1 0 .066C0 .02.05 0 .094 0 .16 0 .196.07.199.076A.11.11 0 0 1 .307 0c.103 0 .16.129.16.154 0 .01-.009.01-.012.01C.446.164.444.16.442.153.409.046.341.022.309.022.27.022.254.054.254.088c0 .022.006.044.017.088l.034.137z"/></symbol><use xlink:href="#j" transform="matrix(9.9626 0 0 -9.9626 130.269 49.2)" fill="red"/><use xlink:href="#f" transform="matrix(9.9626 0 0 -9.9626 138.715 46.8)" fill="red"/><symbol id="k"><path d="M.232.5a.729.729 0 0 1-.066.312A.432.432 0 0 1 .01 1C.004 1 0 .996 0 .99 0 .987 0 .985.019.967.117.868.174.709.174.5.174.329.137.153.013.027 0 .015 0 .013 0 .01 0 .004.004 0 .01 0c.01 0 .1.068.159.195C.22.305.232.416.232.5z"/></symbol><use xlink:href="#a" transform="matrix(9.9626 0 0 -9.9626 148.268 49.31)" fill="red"/><use xlink:href="#k" transform="matrix(9.9626 0 0 -9.9626 153.4 51.582)" fill="red"/></g><path d="M154.836 101.07a1.993 1.993 0 1 0-3.985 0 1.993 1.993 0 0 0 3.985 0zm-1.992 0"/><path stroke-width=".399" stroke-miterlimit="10" fill="none" stroke="#000" d="M154.836 101.07a1.993 1.993 0 1 0-3.985 0 1.993 1.993 0 0 0 3.985 0zm-1.992 0"/><use xlink:href="#j" transform="matrix(9.9626 0 0 -9.9626 185.545 97.66)"/><use xlink:href="#d" transform="matrix(9.9626 0 0 -9.9626 31.76 10.051)"/></svg>