<svg xmlns="http://www.w3.org/2000/svg" xmlns:xlink="http://www.w3.org/1999/xlink" width="259.559" height="215.721" viewBox="0 0 194.669 161.791"><path stroke-width=".199" stroke-miterlimit="10" fill="none" stroke="#929292" d="M14.077 109.916v-4.253m27.753 4.253v-4.253m13.877 4.253v-4.253m13.877 4.253v-4.253m13.876 4.253v-4.253m13.877 4.253v-4.253m13.877 4.253v-4.253m13.876 4.253v-4.253m13.877 4.253v-4.253m13.877 4.253v-4.253m13.876 4.253v-4.253m13.877 4.253v-4.253M25.827 150.828h4.253m-4.253-10.76h4.253m-4.253-10.76h4.253m-4.253-10.759h4.253m-4.253-21.52h4.253M25.827 86.27h4.253m-4.253-10.76h4.253m-4.253-10.76h4.253m-4.253-10.759h4.253m-4.253-10.76h4.253m-4.253-10.76h4.253m-4.253-10.759h4.253m-4.253-10.76h4.253"/><path stroke-width=".399" stroke-miterlimit="10" fill="none" stroke="#000" d="M.2 107.79h192.281"/><path d="m194.474 107.79-3.188-1.595 1.195 1.594-1.195 1.594"/><path stroke-width=".399" stroke-miterlimit="10" fill="none" stroke="#000" d="M27.954 161.588V2.185"/><path d="M27.954.193 26.36 3.38l1.594-1.196 1.594 1.196"/><clipPath id="a"><path transform="matrix(1 0 0 -1 -110.813 462.858)" d="M111.013 301.27h194.274v161.395H111.013z"/></clipPath><g clip-path="url(#a)"><path stroke-width=".797" stroke-miterlimit="10" fill="none" stroke="#00f" d="m28.79 198.433 1.535-33.611 1.534-16.106 1.534-10.69 1.534-8.025 1.534-6.419 1.534-5.35 1.535-4.59 1.534-4.017 1.534-3.572 1.534-3.216 1.534-2.924L47.2 97.23l1.534-2.474 1.534-2.3 1.534-2.146 1.534-2.011 1.535-1.894 1.534-1.791 1.534-1.696 1.534-1.61 1.534-1.535 1.534-1.463 1.534-1.402 1.534-1.342 1.534-1.288 1.535-1.238 1.534-1.195 1.534-1.152 1.534-1.11 1.534-1.077 1.534-1.036 1.534-1.008 1.534-.977 1.534-.95 1.535-.916 1.534-.901 1.534-.871L87.087 61l1.534-.827 1.534-.807 1.534-.786 1.534-.768 1.534-.75 1.534-.733 1.535-.716 1.534-.702 1.534-.686 1.534-.67 1.534-.659 1.534-.645 1.534-.632 1.534-.62 1.534-.608 1.535-.598 1.534-.586 1.534-.578 1.534-.563 1.534-.556 1.534-.546 1.534-.54 1.534-.529 1.534-.52 1.534-.511 1.535-.504 1.534-.494 1.534-.488 1.534-.482 1.534-.474 1.534-.468 1.534-.46 1.534-.455 1.534-.453 1.535-.441 1.534-.436 1.534-.43 1.534-.424 1.534-.42 1.534-.412 1.534-.41 1.534-.402 1.534-.398 1.535-.394 1.534-.39 1.534-.383 1.534-.38 1.534-.375 1.534-.371 1.534-.367 1.534-.363 1.534-.358 1.534-.355 1.535-.35 1.534-.346 1.534-.344 1.534-.34 1.534-.335 1.534-.333 1.534-.33 1.534-.325 1.534-.323 1.535-.32 1.534-.315 1.534-.314 1.534-.31 1.534-.308 1.534-.304 1.534-.302 1.534-.298"/><path stroke-width=".797" stroke-miterlimit="10" fill="none" stroke="red" d="m-110.813 462.858 1.534-3.568 1.534-3.569 1.534-3.569 1.534-3.568 1.535-3.569 1.534-3.568 1.534-3.569 1.534-3.568 1.534-3.569 1.534-3.568 1.534-3.569 1.534-3.568 1.534-3.569 1.534-3.569 1.535-3.568 1.534-3.569 1.534-3.568 1.534-3.569 1.534-3.568 1.534-3.569 1.534-3.568 1.534-3.569 1.534-3.568 1.535-3.569 1.534-3.568 1.534-3.569 1.534-3.568 1.534-3.569 1.534-3.569 1.534-3.568 1.534-3.569 1.534-3.568 1.535-3.569 1.534-3.568 1.534-3.569 1.534-3.568 1.534-3.569 1.534-3.568 1.534-3.569 1.534-3.568 1.534-3.569 1.534-3.569 1.535-3.568 1.534-3.569 1.534-3.568 1.534-3.569 1.534-3.568 1.534-3.569 1.534-3.568 1.534-3.569 1.534-3.568 1.535-3.569 1.534-3.568 1.534-3.569 1.534-3.568 1.534-3.569 1.534-3.569 1.534-3.568 1.534-3.569 1.534-3.568 1.535-3.569 1.534-3.568 1.534-3.569 1.534-3.568 1.534-3.569 1.534-3.568 1.534-3.569 1.534-3.568 1.534-3.569 1.534-3.569 1.535-3.568 1.534-3.569 1.534-3.568 1.534-3.569 1.534-3.568 1.534-3.569 1.534-3.568 1.534-3.569 1.534-3.568 1.535-3.569 1.534-3.568 1.534-3.569 1.534-3.569 1.534-3.568 1.534-3.569 1.534-3.568 1.534-3.569 1.534-3.568 1.535-3.569 1.534-3.568 1.534-3.569 1.534-3.568 1.534-3.569 1.534-3.568 1.534-3.569 1.534-3.568 1.534-3.569 1.535-3.569 1.534-3.568 1.534-3.569 1.534-3.568 1.534-3.569L47.2 95.3l1.534-3.569 1.534-3.568 1.534-3.569 1.534-3.568 1.535-3.569 1.534-3.568 1.534-3.569 1.534-3.569 1.534-3.568 1.534-3.569 1.534-3.568 1.534-3.569 1.534-3.568 1.535-3.569 1.534-3.568 1.534-3.569 1.534-3.568 1.534-3.569 1.534-3.568 1.534-3.569 1.534-3.568 1.534-3.569 1.535-3.569 1.534-3.568 1.534-3.569 1.534-3.568 1.534-3.569 1.534-3.568 1.534-3.569 1.534-3.568 1.534-3.569 1.534-3.568 1.535-3.569 1.534-3.568 1.534-3.569 1.534-3.569 1.534-3.568 1.534-3.569 1.534-3.568 1.534-3.569 1.534-3.568 1.535-3.569 1.534-3.568 1.534-3.569 1.534-3.568 1.534-3.569 1.534-3.568 1.534-3.569 1.534-3.569 1.534-3.568 1.534-3.569 1.535-3.568 1.534-3.569 1.534-3.568 1.534-3.569 1.534-3.568 1.534-3.569 1.534-3.568 1.534-3.569 1.534-3.568 1.535-3.569 1.534-3.568 1.534-3.569 1.534-3.569 1.534-3.568 1.534-3.569 1.534-3.568 1.534-3.569 1.534-3.568 1.535-3.569 1.534-3.568 1.534-3.569 1.534-3.568 1.534-3.569 1.534-3.568 1.534-3.569 1.534-3.569 1.534-3.568 1.534-3.569 1.535-3.568 1.534-3.569 1.534-3.568 1.534-3.569 1.534-3.568 1.534-3.569 1.534-3.568 1.534-3.569 1.534-3.568 1.535-3.569 1.534-3.569 1.534-3.568 1.534-3.569 1.534-3.568 1.534-3.568 1.534-3.57 1.534-3.568"/><symbol id="b"><path d="M.314.605H.4c.02 0 .03 0 .03.02C.43.636.42.636.403.636H.32L.341.75a.953.953 0 0 0 .024.104c.009.019.026.034.047.034.004 0 .03 0 .049-.018A.055.055 0 0 1 .407.816c0-.023.018-.035.037-.035.026 0 .055.022.055.06C.499.887.453.91.412.91.378.91.315.892.285.793.279.772.276.762.252.636H.183c-.019 0-.03 0-.03-.019 0-.012.009-.012.028-.012h.066L.172.21C.154.113.137.022.085.022c-.004 0-.029 0-.048.018a.054.054 0 0 1 .055.054c0 .023-.018.035-.037.035C.029.129 0 .107 0 .069 0 .024.044 0 .085 0 .14 0 .18.059.198.097a.894.894 0 0 1 .056.191l.06.317z"/></symbol><use xlink:href="#b" transform="matrix(9.9626 0 0 -9.9626 157.332 53.15)" fill="#00f"/><symbol id="c"><path d="M.457.586C.461.6.461.602.461.609c0 .018-.014.027-.029.027A.043.043 0 0 1 .397.615 1.87 1.87 0 0 1 .363.481L.318.301C.314.286.271.216.205.216.154.216.143.26.143.297c0 .046.017.108.051.196.016.041.02.052.02.072a.08.08 0 0 1-.082.082C.037.647 0 .502 0 .493c0-.01.01-.01.012-.01.01 0 .011.002.016.018.027.094.067.124.101.124.008 0 .025 0 .025-.032 0-.025-.01-.051-.017-.07a.66.66 0 0 1-.058-.21c0-.089.063-.119.122-.119.039 0 .073.017.101.045C.289.187.277.138.237.085.211.051.173.022.127.022.113.022.068.025.051.064c.016 0 .029 0 .043.012.01.009.02.022.02.041 0 .031-.027.035-.037.035C.054.152.021.136.021.087.021.037.065 0 .127 0 .23 0 .333.091.361.204l.096.382z"/></symbol><use xlink:href="#c" transform="matrix(9.9626 0 0 -9.9626 78.896 37.01)" fill="red"/><symbol id="d"><path d="M.631.194c.015 0 .034 0 .034.02s-.019.02-.033.02H.033C.019.234 0 .234 0 .214s.019-.02.034-.02h.597M.632 0c.014 0 .033 0 .033.02S.646.04.631.04H.034C.019.04 0 .04 0 .02S.019 0 .033 0h.599z"/></symbol><symbol id="e"><path d="M.248.374c.082.027.14.097.14.176C.388.632.3.688.204.688.103.688.027.628.027.552.027.519.049.5.078.5.109.5.129.522.129.551c0 .05-.047.05-.062.05C.098.65.164.663.2.663.241.663.296.641.296.551A.25.25 0 0 0 .268.437C.238.389.204.386.179.385A.554.554 0 0 0 .14.382C.132.381.125.38.125.37c0-.011.007-.011.024-.011h.044C.275.359.312.291.312.193.312.057.243.028.199.028.156.028.081.045.046.104.081.099.112.121.112.159a.054.054 0 0 1-.056.056C.032.215 0 .201 0 .157 0 .066.093 0 .202 0c.122 0 .213.091.213.193 0 .082-.063.16-.167.181z"/></symbol><symbol id="f"><path d="M.232.01c0 .003 0 .005-.017.022C.09.158.058.347.058.5c0 .174.038.348.161.473.013.012.013.014.013.017 0 .007-.004.01-.01.01-.01 0-.1-.068-.159-.195A.727.727 0 0 1 0 .5C0 .422.011.301.066.188A.432.432 0 0 1 .222 0c.006 0 .01.003.01.01z"/></symbol><use xlink:href="#d" transform="matrix(9.9626 0 0 -9.9626 87.174 33.643)" fill="red"/><use xlink:href="#e" transform="matrix(9.9626 0 0 -9.9626 97.555 35.187)" fill="red"/><use xlink:href="#f" transform="matrix(9.9626 0 0 -9.9626 103.104 37.459)" fill="red"/><symbol id="g"><path d="M.305.313c.006.026.029.118.099.118.005 0 .029 0 .05-.013A.058.058 0 0 1 .406.364c0-.016.011-.035.038-.035.022 0 .054.018.054.058 0 .052-.059.066-.093.066C.347.453.312.4.3.377a.11.11 0 0 1-.108.076C.088.453.031.324.031.299c0-.01.01-.01.012-.01.008 0 .011.002.013.011.034.106.1.131.134.131.019 0 .054-.009.054-.067C.244.333.227.266.19.126.174.064.139.022.095.022c-.006 0-.029 0-.05.013C.07.04.092.061.092.089.092.116.07.124.055.124A.057.057 0 0 1 0 .066C0 .02.05 0 .094 0 .16 0 .196.07.199.076A.11.11 0 0 1 .307 0c.103 0 .16.129.16.154 0 .01-.009.01-.012.01C.446.164.444.16.442.153.409.046.341.022.309.022.27.022.254.054.254.088c0 .022.006.044.017.088l.034.137z"/></symbol><use xlink:href="#g" transform="matrix(9.9626 0 0 -9.9626 106.277 35.078)" fill="red"/><symbol id="h"><path d="M.576 0c.017 0 .035 0 .035.02S.593.04.576.04H.035C.018.04 0 .04 0 .02S.018 0 .035 0h.541z"/></symbol><use xlink:href="#h" transform="matrix(9.9626 0 0 -9.9626 114.723 32.677)" fill="red"/><symbol id="i"><path d="M.205.64c0 .024 0 .026-.023.026C.12.602.032.602 0 .602V.571a.3.3 0 0 1 .131.026V.079C.131.043.128.031.038.031H.006V0c.035.003.122.003.162.003.04 0 .127 0 .162-.003v.031H.298c-.09 0-.093.011-.093.048V.64z"/></symbol><symbol id="j"><path d="M.232.5a.729.729 0 0 1-.066.312A.432.432 0 0 1 .01 1C.004 1 0 .996 0 .99 0 .987 0 .985.019.967.117.868.174.709.174.5.174.329.137.153.013.027 0 .015 0 .013 0 .01 0 .004.004 0 .01 0c.01 0 .1.068.159.195C.22.305.232.416.232.5z"/></symbol><use xlink:href="#i" transform="matrix(9.9626 0 0 -9.9626 124.745 34.968)" fill="red"/><use xlink:href="#j" transform="matrix(9.9626 0 0 -9.9626 129.407 37.459)" fill="red"/></g><path d="M43.823 107.79a1.993 1.993 0 1 0-3.985 0 1.993 1.993 0 0 0 3.985 0zm-1.993 0"/><path stroke-width=".399" stroke-miterlimit="10" fill="none" stroke="#000" d="M43.823 107.79a1.993 1.993 0 1 0-3.985 0 1.993 1.993 0 0 0 3.985 0zm-1.993 0"/><use xlink:href="#g" transform="matrix(9.9626 0 0 -9.9626 185.545 104.384)"/><use xlink:href="#c" transform="matrix(9.9626 0 0 -9.9626 31.76 10.05)"/></svg>