<svg xmlns="http://www.w3.org/2000/svg" xmlns:xlink="http://www.w3.org/1999/xlink" width="259.557" height="215.724" viewBox="0 0 194.668 161.793"><path stroke-width=".199" stroke-miterlimit="10" fill="none" stroke="#929292" d="M9.913 115.299v-4.253m9.713 4.253v-4.253m9.714 4.253v-4.253m9.713 4.253v-4.253m9.714 4.253v-4.253m9.714 4.253v-4.253m9.713 4.253v-4.253m9.714 4.253v-4.253m9.713 4.253v-4.253m19.428 4.253v-4.253m9.713 4.253v-4.253m9.714 4.253v-4.253m9.714 4.253v-4.253m9.713 4.253v-4.253m9.714 4.253v-4.253m9.713 4.253v-4.253m9.714 4.253v-4.253m9.714 4.253v-4.253M95.21 145.452h4.25m-4.25-16.14h4.25m-4.25-32.28h4.25m-4.25-16.139h4.25m-4.25-16.14h4.25m-4.25-16.139h4.25m-4.25-32.28h4.25"/><path stroke-width=".399" stroke-miterlimit="10" fill="none" stroke="#000" d="M.199 113.173h192.28"/><path d="m194.471 113.173-3.188-1.594 1.196 1.594-1.196 1.594"/><path stroke-width=".399" stroke-miterlimit="10" fill="none" stroke="#000" d="M97.335 161.591V2.188"/><path d="m97.335.195-1.594 3.188 1.594-1.195 1.594 1.195"/><clipPath id="a"><path transform="matrix(1 0 0 -1 .199 311.803)" d="M0 150.212h194.272v161.396H0z"/></clipPath><g clip-path="url(#a)"><path stroke-width=".797" stroke-miterlimit="10" fill="none" stroke="#00f" d="m.199 38.687 1.074.355 1.074.359 1.074.363 1.073.367 1.074.372 1.074.376 1.074.38 1.074.385 1.074.388 1.074.394 1.074.4 1.073.403 1.074.41 1.074.413 1.074.418 1.074.425 1.074.43 1.074.436 1.073.441 1.074.448 1.074.454 1.074.46 1.074.466 1.074.474 1.074.48 1.074.488 1.073.494 1.074.503 1.074.51 1.074.518 1.074.527 1.074.535 1.074.543 1.073.554 1.074.564 1.074.57 1.074.582 1.074.591 1.074.604 1.074.615 1.074.625 1.073.637 1.074.65 1.074.662 1.074.677 1.074.69 1.074.705 1.074.719 1.074.736 1.073.751 1.074.768 1.074.789 1.074.804 1.074.824 1.074.843 1.074.866 1.073.888 1.074.91 1.074.935 1.074.961 1.074.988 1.074 1.016 1.074 1.045 1.074 1.076L70 77.857 71.074 79l1.074 1.18 1.074 1.219 1.074 1.256 1.074 1.298 1.074 1.341 1.073 1.387 1.074 1.434 1.074 1.483 1.074 1.533 1.074 1.58 1.074 1.627 1.074 1.675 1.074 1.716 1.073 1.752 1.074 1.776 1.074 1.785 1.074 1.767 1.074 1.723 1.074 1.636 1.074 1.5 1.074 1.308 1.073 1.05 1.074.735 1.074.371 1.074-.018 1.074-.406 1.074-.765 1.074-1.077 1.073-1.327 1.074-1.516 1.074-1.646 1.074-1.728 1.074-1.771 1.074-1.784 1.074-1.774 1.074-1.75 1.073-1.712 1.074-1.67 1.074-1.624 1.074-1.575 1.074-1.529 1.074-1.478 1.074-1.43 1.073-1.382 1.074-1.338 1.074-1.294 1.074-1.253 1.074-1.214 1.074-1.177 1.074-1.14 1.074-1.106 1.073-1.074 1.074-1.042 1.074-1.013 1.074-.986 1.074-.958 1.074-.932 1.074-.909 1.074-.886 1.073-.863 1.074-.843 1.074-.82 1.074-.803 1.074-.787 1.074-.767 1.074-.75 1.073-.734 1.074-.718 1.074-.704 1.074-.688 1.074-.675 1.074-.661 1.074-.65 1.074-.636 1.073-.624 1.074-.614 1.074-.6 1.074-.593 1.074-.58 1.074-.572 1.074-.562 1.074-.552 1.073-.543 1.074-.534 1.074-.526 1.074-.517 1.074-.51 1.074-.501 1.074-.494 1.073-.487 1.074-.48 1.074-.473 1.074-.466 1.074-.459 1.074-.453 1.074-.447 1.074-.44 1.073-.436 1.074-.43 1.074-.424 1.074-.418 1.074-.414 1.074-.407 1.074-.402 1.073-.401 1.074-.394 1.074-.388 1.074-.384 1.074-.38 1.074-.375 1.074-.371 1.074-.367 1.073-.363 1.074-.359 1.074-.355 1.074-.35 1.074-.348 1.074-.344 1.074-.34 1.073-.336 1.074-.333 1.074-.33 1.074-.326 1.074-.324 1.074-.32 1.074-.317 1.074-.313 1.073-.311 1.074-.308 1.074-.305 1.074-.302 1.074-.3 1.074-.297"/><path stroke-width=".797" stroke-miterlimit="10" fill="none" stroke="red" d="m.199-43.27 1.074 1.785 1.074 1.784 1.074 1.784 1.073 1.784 1.074 1.785 1.074 1.784 1.074 1.784 1.074 1.785 1.074 1.784 1.074 1.784 1.074 1.784 1.073 1.785 1.074 1.784 1.074 1.784 1.074 1.785 1.074 1.784 1.074 1.784 1.074 1.784 1.073 1.785 1.074 1.784L22.75-5.8l1.074 1.785 1.074 1.784 1.074 1.784 1.074 1.784 1.074 1.785 1.073 1.784 1.074 1.784 1.074 1.785 1.074 1.784 1.074 1.784 1.074 1.784 1.074 1.785 1.073 1.784 1.074 1.784 1.074 1.785 1.074 1.784 1.074 1.784 1.074 1.784 1.074 1.785 1.074 1.784L45.3 31.67l1.074 1.784 1.074 1.785 1.074 1.784 1.074 1.784 1.074 1.785 1.074 1.784 1.074 1.784 1.073 1.784 1.074 1.785 1.074 1.784 1.074 1.784 1.074 1.785 1.074 1.784 1.074 1.784 1.073 1.784 1.074 1.785 1.074 1.784 1.074 1.784 1.074 1.785 1.074 1.784 1.074 1.784 1.074 1.784L70 72.71l1.074 1.784 1.074 1.784 1.074 1.785 1.074 1.784 1.074 1.784 1.074 1.785 1.073 1.784 1.074 1.784 1.074 1.784 1.074 1.785 1.074 1.784 1.074 1.784 1.074 1.784 1.074 1.785 1.073 1.784 1.074 1.784 1.074 1.785 1.074 1.784 1.074 1.784 1.074 1.784 1.074 1.785 1.074 1.784 1.073 1.784 1.074 1.785 1.074 1.784 1.074 1.784 1.074 1.784 1.074 1.785 1.074 1.784 1.073 1.784 1.074 1.785 1.074 1.784 1.074 1.784 1.074 1.784 1.074 1.785 1.074 1.784 1.074 1.784 1.073 1.785 1.074 1.784 1.074 1.784 1.074 1.784 1.074 1.785 1.074 1.784 1.074 1.784 1.073 1.785 1.074 1.784 1.074 1.784 1.074 1.784 1.074 1.785 1.074 1.784 1.074 1.784 1.074 1.785 1.073 1.784 1.074 1.784 1.074 1.784 1.074 1.785 1.074 1.784 1.074 1.784 1.074 1.785 1.074 1.784 1.073 1.784 1.074 1.784 1.074 1.785 1.074 1.784 1.074 1.784 1.074 1.785 1.074 1.784 1.073 1.784 1.074 1.784 1.074 1.785 1.074 1.784 1.074 1.784 1.074 1.785 1.074 1.784 1.074 1.784 1.073 1.784 1.074 1.785 1.074 1.784 1.074 1.784 1.074 1.785 1.074 1.784 1.074 1.784 1.074 1.784 1.073 1.785 1.074 1.784 1.074 1.784 1.074 1.785 1.074 1.784 1.074 1.784 1.074 1.784 1.073 1.785 1.074 1.784 1.074 1.784 1.074 1.785 1.074 1.784 1.074 1.784 1.074 1.784 1.074 1.785 1.073 1.784 1.074 1.784 1.074 1.785 1.074 1.784 1.074 1.784 1.074 1.784 1.074 1.785 1.073 1.784 1.074 1.784 1.074 1.785 1.074 1.784 1.074 1.784 1.074 1.784 1.074 1.785 1.074 1.784 1.073 1.784 1.074 1.785 1.074 1.784 1.074 1.784 1.074 1.784 1.074 1.785 1.074 1.784 1.073 1.784 1.074 1.784 1.074 1.785 1.074 1.784 1.074 1.784 1.074 1.785 1.074 1.784 1.074 1.784 1.073 1.785 1.074 1.784 1.074 1.784 1.074 1.784 1.074 1.785 1.074 1.784"/><symbol id="b"><path d="M.314.605H.4c.02 0 .03 0 .03.02C.43.636.42.636.403.636H.32L.341.75a.953.953 0 0 0 .024.104c.009.019.026.034.047.034.004 0 .03 0 .049-.018A.055.055 0 0 1 .407.816c0-.023.018-.035.037-.035.026 0 .055.022.055.06C.499.887.453.91.412.91.378.91.315.892.285.793.279.772.276.762.252.636H.183c-.019 0-.03 0-.03-.019 0-.012.009-.012.028-.012h.066L.172.21C.154.113.137.022.085.022c-.004 0-.029 0-.048.018a.054.054 0 0 1 .055.054c0 .023-.018.035-.037.035C.029.129 0 .107 0 .069 0 .024.044 0 .085 0 .14 0 .18.059.198.097a.894.894 0 0 1 .056.191l.06.317z"/></symbol><use xlink:href="#b" transform="matrix(9.9626 0 0 -9.9626 182.308 61.22)" fill="#00f"/><symbol id="c"><path d="M.457.586C.461.6.461.602.461.609c0 .018-.014.027-.029.027A.043.043 0 0 1 .397.615 1.87 1.87 0 0 1 .363.481L.318.301C.314.286.271.216.205.216.154.216.143.26.143.297c0 .046.017.108.051.196.016.041.02.052.02.072a.08.08 0 0 1-.082.082C.037.647 0 .502 0 .493c0-.01.01-.01.012-.01.01 0 .011.002.016.018.027.094.067.124.101.124.008 0 .025 0 .025-.032 0-.025-.01-.051-.017-.07a.66.66 0 0 1-.058-.21c0-.089.063-.119.122-.119.039 0 .073.017.101.045C.289.187.277.138.237.085.211.051.173.022.127.022.113.022.068.025.051.064c.016 0 .029 0 .043.012.01.009.02.022.02.041 0 .031-.027.035-.037.035C.054.152.021.136.021.087.021.037.065 0 .127 0 .23 0 .333.091.361.204l.096.382z"/></symbol><use xlink:href="#c" transform="matrix(9.9626 0 0 -9.9626 54.947 37.011)" fill="red"/><symbol id="d"><path d="M.631.194c.015 0 .034 0 .034.02s-.019.02-.033.02H.033C.019.234 0 .234 0 .214s.019-.02.034-.02h.597M.632 0c.014 0 .033 0 .033.02S.646.04.631.04H.034C.019.04 0 .04 0 .02S.019 0 .033 0h.599z"/></symbol><use xlink:href="#d" transform="matrix(9.9626 0 0 -9.9626 63.225 33.644)" fill="red"/><symbol id="e"><path d="M.576 0c.017 0 .035 0 .035.02S.593.04.576.04H.035C.018.04 0 .04 0 .02S.018 0 .035 0h.541z"/></symbol><use xlink:href="#e" transform="matrix(9.9626 0 0 -9.9626 74.01 32.678)" fill="red"/><symbol id="f"><path d="M.205.64c0 .024 0 .026-.023.026C.12.602.032.602 0 .602V.571a.3.3 0 0 1 .131.026V.079C.131.043.128.031.038.031H.006V0c.035.003.122.003.162.003.04 0 .127 0 .162-.003v.031H.298c-.09 0-.093.011-.093.048V.64z"/></symbol><symbol id="g"><path d="M.232.01c0 .003 0 .005-.017.022C.09.158.058.347.058.5c0 .174.038.348.161.473.013.012.013.014.013.017 0 .007-.004.01-.01.01-.01 0-.1-.068-.159-.195A.727.727 0 0 1 0 .5C0 .422.011.301.066.188A.432.432 0 0 1 .222 0c.006 0 .01.003.01.01z"/></symbol><use xlink:href="#f" transform="matrix(9.9626 0 0 -9.9626 81.819 34.969)" fill="red"/><use xlink:href="#g" transform="matrix(9.9626 0 0 -9.9626 86.9 37.46)" fill="red"/><symbol id="h"><path d="M.305.313c.006.026.029.118.099.118.005 0 .029 0 .05-.013A.058.058 0 0 1 .406.364c0-.016.011-.035.038-.035.022 0 .054.018.054.058 0 .052-.059.066-.093.066C.347.453.312.4.3.377a.11.11 0 0 1-.108.076C.088.453.031.324.031.299c0-.01.01-.01.012-.01.008 0 .011.002.013.011.034.106.1.131.134.131.019 0 .054-.009.054-.067C.244.333.227.266.19.126.174.064.139.022.095.022c-.006 0-.029 0-.05.013C.07.04.092.061.092.089.092.116.07.124.055.124A.057.057 0 0 1 0 .066C0 .02.05 0 .094 0 .16 0 .196.07.199.076A.11.11 0 0 1 .307 0c.103 0 .16.129.16.154 0 .01-.009.01-.012.01C.446.164.444.16.442.153.409.046.341.022.309.022.27.022.254.054.254.088c0 .022.006.044.017.088l.034.137z"/></symbol><use xlink:href="#h" transform="matrix(9.9626 0 0 -9.9626 90.077 35.079)" fill="red"/><symbol id="i"><path d="M.353.313h.279c.014 0 .033 0 .033.02s-.019.02-.033.02H.353v.28c0 .014 0 .033-.02.033S.313.647.313.633v-.28h-.28C.019.353 0 .353 0 .333s.019-.02.033-.02h.28v-.28c0-.014 0-.033.02-.033s.02.019.02.033v.28z"/></symbol><symbol id="j"><path d="M.232.5a.729.729 0 0 1-.066.312A.432.432 0 0 1 .01 1C.004 1 0 .996 0 .99 0 .987 0 .985.019.967.117.868.174.709.174.5.174.329.137.153.013.027 0 .015 0 .013 0 .01 0 .004.004 0 .01 0c.01 0 .1.068.159.195C.22.305.232.416.232.5z"/></symbol><symbol id="k"><path d="M.144.694 0 .683V.652C.07.652.078.645.078.596v-.52C.078.031.067.031 0 .031V0l.111.003L.222 0v.031c-.067 0-.078 0-.078.045v.618z"/></symbol><symbol id="l"><path d="M.078.344V.076C.078.031.067.031 0 .031V0l.113.003L.225 0v.031c-.067 0-.078 0-.078.045V.26c0 .104.071.16.135.16C.345.42.356.366.356.309V.076C.356.031.345.031.278.031V0l.113.003L.503 0v.031c-.052 0-.077 0-.078.03v.191c0 .086 0 .117-.031.153C.38.422.347.442.289.442.216.442.169.399.141.337v.105L0 .431V.4C.07.4.078.393.078.344z"/></symbol><symbol id="m"><path d="M.077.077.183.18c.156.138.216.192.216.292 0 .114-.09.194-.212.194A.185.185 0 0 1 0 .485C0 .429.05.429.053.429c.017 0 .052.012.052.053a.05.05 0 0 1-.053.052L.039.533a.144.144 0 0 0 .135.102C.265.635.308.554.308.472c0-.08-.05-.159-.105-.221L.011.037C0 .026 0 .024 0 0h.371l.028.174H.374C.369.144.362.1.352.085.345.077.279.077.257.077h-.18z"/></symbol><use xlink:href="#i" transform="matrix(9.9626 0 0 -9.9626 98.254 35.796)" fill="red"/><use xlink:href="#f" transform="matrix(9.9626 0 0 -9.9626 108.545 34.969)" fill="red"/><use xlink:href="#j" transform="matrix(9.9626 0 0 -9.9626 113.208 37.46)" fill="red"/><use xlink:href="#i" transform="matrix(9.9626 0 0 -9.9626 119.285 35.796)" fill="red"/><use xlink:href="#k" transform="matrix(9.9626 0 0 -9.9626 129.028 34.969)" fill="red"/><use xlink:href="#l" transform="matrix(9.9626 0 0 -9.9626 131.788 34.969)" fill="red"/><use xlink:href="#g" transform="matrix(9.9626 0 0 -9.9626 137.995 37.46)" fill="red"/><use xlink:href="#m" transform="matrix(9.9626 0 0 -9.9626 141.382 34.969)" fill="red"/><use xlink:href="#j" transform="matrix(9.9626 0 0 -9.9626 146.433 37.46)" fill="red"/></g><path d="M89.614 101.986a1.993 1.993 0 1 0-3.985 0 1.993 1.993 0 0 0 3.985 0zm-1.993 0"/><path stroke-width=".399" stroke-miterlimit="10" fill="none" stroke="#000" d="M89.614 101.986a1.993 1.993 0 1 0-3.985 0 1.993 1.993 0 0 0 3.985 0zm-1.993 0"/><use xlink:href="#h" transform="matrix(9.9626 0 0 -9.9626 185.544 109.765)"/><use xlink:href="#c" transform="matrix(9.9626 0 0 -9.9626 101.143 10.05)"/></svg>