<svg xmlns="http://www.w3.org/2000/svg" xmlns:xlink="http://www.w3.org/1999/xlink" width="152.244" height="41.5pt" viewBox="0 0 114.183 41.5"><path stroke-width=".797" stroke-miterlimit="10" fill="none" stroke="#000" d="M1.105 20.815h111.972"/><path stroke-width=".638" stroke-linecap="round" stroke-linejoin="round" fill="none" stroke="#000" d="M2.659 22.887c-.13-.777-1.554-1.942-1.943-2.072.389-.13 1.813-1.295 1.943-2.072M111.523 18.743c.13.777 1.554 1.943 1.943 2.072-.389.13-1.813 1.295-1.943 2.072"/><path stroke-width=".399" stroke-miterlimit="10" fill="none" stroke="#000" d="M57.091 18.822v3.986"/><symbol id="a"><path d="M.219.354C.297.354.353.3.353.193.353.069.281.032.223.032c-.04 0-.128.011-.17.07C.1.104.111.137.111.158a.054.054 0 0 1-.055.055C.028.213 0 .196 0 .155 0 .061.104 0 .225 0 .364 0 .46.093.46.193.46.271.396.349.286.372.391.41.429.485.429.546c0 .079-.091.138-.202.138C.116.684.031.63.031.55c0-.034.022-.053.052-.053a.05.05 0 0 1 .051.051c0 .029-.02.05-.051.052.035.044.104.055.141.055.045 0 .108-.022.108-.109a.192.192 0 0 0-.04-.119C.259.389.231.387.181.384L.149.381C.147.381.139.379.139.368c0-.014.009-.014.026-.014h.054z"/></symbol><use xlink:href="#a" transform="matrix(6.9738 0 0 -6.9738 55.483 30.96)"/><path stroke-width=".398" stroke-miterlimit="10" fill="none" stroke="#000" d="M55.106 32.253h3.971"/><symbol id="b"><path d="M.49.164V.2H.379v.446c0 .021 0 .028-.022.028-.012 0-.016 0-.026-.014L0 .2V.164h.294V.082c0-.034 0-.046-.081-.046H.186V0l.15.004L.487 0v.036H.46C.379.036.379.048.379.082v.082H.49M.301.566V.2H.037l.264.366z"/></symbol><use xlink:href="#b" transform="matrix(6.9738 0 0 -6.9738 55.378 38.179)"/><symbol id="c"><path d="M.353.313h.279c.014 0 .033 0 .033.02s-.019.02-.033.02H.353v.28c0 .014 0 .033-.02.033S.313.647.313.633v-.28h-.28C.019.353 0 .353 0 .333s.019-.02.033-.02h.28v-.28c0-.014 0-.033.02-.033s.02.019.02.033v.28z"/></symbol><use xlink:href="#c" transform="matrix(9.9626 0 0 -9.9626 25.429 9.959)"/><symbol id="d"><path d="M.576 0c.017 0 .035 0 .035.02S.593.04.576.04H.035C.018.04 0 .04 0 .02S.018 0 .035 0h.541z"/></symbol><use xlink:href="#d" transform="matrix(9.9626 0 0 -9.9626 82.39 6.84)"/></svg>