<svg xmlns="http://www.w3.org/2000/svg" xmlns:xlink="http://www.w3.org/1999/xlink" width="227.835" height="49.197" viewBox="0 0 170.876 36.898"><path stroke-width=".797" stroke-miterlimit="10" fill="none" stroke="#000" d="M1.106 20.815h168.666"/><path stroke-width=".638" stroke-linecap="round" stroke-linejoin="round" fill="none" stroke="#000" d="M2.66 22.887c-.13-.777-1.554-1.943-1.943-2.072.389-.13 1.814-1.295 1.943-2.072M168.218 18.743c.13.777 1.554 1.942 1.943 2.072-.389.13-1.814 1.295-1.943 2.072"/><path stroke-width=".399" stroke-miterlimit="10" fill="none" stroke="#000" d="M50.005 18.822v3.986"/><symbol id="a"><path d="M.576 0c.017 0 .035 0 .035.02S.593.04.576.04H.035C.018.04 0 .04 0 .02S.018 0 .035 0h.541z"/></symbol><use xlink:href="#a" transform="matrix(9.9626 0 0 -9.9626 44.467 30.456)"/><symbol id="b"><path d="M.205.64c0 .024 0 .026-.023.026C.12.602.032.602 0 .602V.571a.3.3 0 0 1 .131.026V.079C.131.043.128.031.038.031H.006V0c.035.003.122.003.162.003.04 0 .127 0 .162-.003v.031H.298c-.09 0-.093.011-.093.048V.64z"/></symbol><use xlink:href="#b" transform="matrix(9.9626 0 0 -9.9626 52.275 32.747)"/><path stroke-width=".399" stroke-miterlimit="10" fill="none" stroke="#000" d="M120.873 18.822v3.986"/><symbol id="c"><path d="M.077.077.183.18c.156.138.216.192.216.292 0 .114-.09.194-.212.194A.185.185 0 0 1 0 .485C0 .429.05.429.053.429c.017 0 .052.012.052.053a.05.05 0 0 1-.053.052L.039.533a.144.144 0 0 0 .135.102C.265.635.308.554.308.472c0-.08-.05-.159-.105-.221L.011.037C0 .026 0 .024 0 0h.371l.028.174H.374C.369.144.362.1.352.085.345.077.279.077.257.077h-.18z"/></symbol><use xlink:href="#c" transform="matrix(9.9626 0 0 -9.9626 118.878 32.747)"/><symbol id="d"><path d="M.353.313h.279c.014 0 .033 0 .033.02s-.019.02-.033.02H.353v.28c0 .014 0 .033-.02.033S.313.647.313.633v-.28h-.28C.019.353 0 .353 0 .333s.019-.02.033-.02h.28v-.28c0-.014 0-.033.02-.033s.02.019.02.033v.28z"/></symbol><use xlink:href="#d" transform="matrix(9.9626 0 0 -9.9626 18.342 9.959)"/><use xlink:href="#a" transform="matrix(9.9626 0 0 -9.9626 82.39 6.84)"/><use xlink:href="#d" transform="matrix(9.9626 0 0 -9.9626 141.649 9.959)"/></svg>