<svg version="1.1" xmlns="http://www.w3.org/2000/svg" xmlns:xlink="http://www.w3.org/1999/xlink" width="415" height="277"><defs><clipPath id="zrvTwMXNaTqz"><path fill="none" stroke="none" d=" M 0 0 L 415 0 L 415 277 L 0 277 L 0 0 Z"/></clipPath></defs><g transform="scale(1,1)" clip-path="url(#zrvTwMXNaTqz)"><g transform="translate(-106.80642110984856,-180.0856682342139)"><path fill="none" stroke="rgb(192,192,192)" paint-order="fill stroke markers" d=" M 37.5 0.5 L 37.5 430.5 M 37.5 0.5 L 37.5 430.5 M 106.5 0.5 L 106.5 430.5 M 244.5 0.5 L 244.5 430.5 M 313.5 0.5 L 313.5 430.5 M 382.5 0.5 L 382.5 430.5 M 451.5 0.5 L 451.5 430.5 M 520.5 0.5 L 520.5 430.5 M 589.5 0.5 L 589.5 430.5 M 657.5 0.5 L 657.5 430.5" stroke-opacity="1" stroke-linecap="round" stroke-linejoin="round" stroke-miterlimit="10"/><path fill="none" stroke="rgb(192,192,192)" paint-order="fill stroke markers" d="" stroke-opacity="0.23529411764705882" stroke-linecap="round" stroke-linejoin="round" stroke-miterlimit="10"/><path fill="none" stroke="rgb(192,192,192)" paint-order="fill stroke markers" d=" M 0.5 42.5 L 721.5 42.5 M 0.5 42.5 L 721.5 42.5 M 0.5 111.5 L 721.5 111.5 M 0.5 180.5 L 721.5 180.5 M 0.5 248.5 L 721.5 248.5 M 0.5 317.5 L 721.5 317.5" stroke-opacity="1" stroke-linecap="round" stroke-linejoin="round" stroke-miterlimit="10"/><path fill="none" stroke="rgb(192,192,192)" paint-order="fill stroke markers" d="" stroke-opacity="0.23529411764705882" stroke-linecap="round" stroke-linejoin="round" stroke-miterlimit="10"/><path fill="none" stroke="rgb(0,0,0)" paint-order="fill stroke markers" d=" M 176 3 L 176 430" stroke-opacity="1" stroke-miterlimit="10" stroke-width="2"/><path fill="none" stroke="rgb(0,0,0)" paint-order="fill stroke markers" d=" M 176 2 L 167 11" stroke-opacity="1" stroke-miterlimit="10" stroke-width="2"/><path fill="none" stroke="rgb(0,0,0)" paint-order="fill stroke markers" d=" M 176 2 L 185 11" stroke-opacity="1" stroke-miterlimit="10" stroke-width="2"/><path fill="none" stroke="rgb(0,0,0)" paint-order="fill stroke markers" d=" M 0 387 L 718 387" stroke-opacity="1" stroke-miterlimit="10" stroke-width="2"/><path fill="none" stroke="rgb(0,0,0)" paint-order="fill stroke markers" d=" M 719 387 L 710 378" stroke-opacity="1" stroke-miterlimit="10" stroke-width="2"/><path fill="none" stroke="rgb(0,0,0)" paint-order="fill stroke markers" d=" M 719 387 L 710 396" stroke-opacity="1" stroke-miterlimit="10" stroke-width="2"/><text fill="rgb(0,0,0)" stroke="none" font-family="geogebra-sans-serif, sans-serif" font-size="24px" font-style="normal" font-weight="normal" text-decoration="normal" x="26" y="414" text-anchor="start" dominant-baseline="alphabetic" fill-opacity="1">–1</text><text fill="none" stroke="rgb(255,255,255)" font-family="geogebra-sans-serif, sans-serif" font-size="24px" font-style="normal" font-weight="normal" text-decoration="normal" x="26" y="414" text-anchor="start" dominant-baseline="alphabetic" stroke-opacity="1" stroke-linejoin="bevel" stroke-miterlimit="10" stroke-width="3">–1</text><text fill="rgb(0,0,0)" stroke="none" font-family="geogebra-sans-serif, sans-serif" font-size="24px" font-style="normal" font-weight="normal" text-decoration="normal" x="26" y="414" text-anchor="start" dominant-baseline="alphabetic" fill-opacity="1">–1</text><path fill="none" stroke="rgb(0,0,0)" paint-order="fill stroke markers" d=" M 38 387 L 38 390" stroke-opacity="1" stroke-miterlimit="10" stroke-width="2"/><path fill="none" stroke="rgb(0,0,0)" paint-order="fill stroke markers" d=" M 176 387 L 176 390" stroke-opacity="1" stroke-miterlimit="10" stroke-width="2"/><text fill="rgb(0,0,0)" stroke="none" font-family="geogebra-sans-serif, sans-serif" font-size="24px" font-style="normal" font-weight="normal" text-decoration="normal" x="308" y="414" text-anchor="start" dominant-baseline="alphabetic" fill-opacity="1">1</text><text fill="none" stroke="rgb(255,255,255)" font-family="geogebra-sans-serif, sans-serif" font-size="24px" font-style="normal" font-weight="normal" text-decoration="normal" x="308" y="414" text-anchor="start" dominant-baseline="alphabetic" stroke-opacity="1" stroke-linejoin="bevel" stroke-miterlimit="10" stroke-width="3">1</text><text fill="rgb(0,0,0)" stroke="none" font-family="geogebra-sans-serif, sans-serif" font-size="24px" font-style="normal" font-weight="normal" text-decoration="normal" x="308" y="414" text-anchor="start" dominant-baseline="alphabetic" fill-opacity="1">1</text><path fill="none" stroke="rgb(0,0,0)" paint-order="fill stroke markers" d=" M 313 387 L 313 390" stroke-opacity="1" stroke-miterlimit="10" stroke-width="2"/><text fill="rgb(0,0,0)" stroke="none" font-family="geogebra-sans-serif, sans-serif" font-size="24px" font-style="normal" font-weight="normal" text-decoration="normal" x="446" y="414" text-anchor="start" dominant-baseline="alphabetic" fill-opacity="1">2</text><text fill="none" stroke="rgb(255,255,255)" font-family="geogebra-sans-serif, sans-serif" font-size="24px" font-style="normal" font-weight="normal" text-decoration="normal" x="446" y="414" text-anchor="start" dominant-baseline="alphabetic" stroke-opacity="1" stroke-linejoin="bevel" stroke-miterlimit="10" stroke-width="3">2</text><text fill="rgb(0,0,0)" stroke="none" font-family="geogebra-sans-serif, sans-serif" font-size="24px" font-style="normal" font-weight="normal" text-decoration="normal" x="446" y="414" text-anchor="start" dominant-baseline="alphabetic" fill-opacity="1">2</text><path fill="none" stroke="rgb(0,0,0)" paint-order="fill stroke markers" d=" M 451 387 L 451 390" stroke-opacity="1" stroke-miterlimit="10" stroke-width="2"/><text fill="rgb(0,0,0)" stroke="none" font-family="geogebra-sans-serif, sans-serif" font-size="24px" font-style="normal" font-weight="normal" text-decoration="normal" x="584" y="414" text-anchor="start" dominant-baseline="alphabetic" fill-opacity="1">3</text><text fill="none" stroke="rgb(255,255,255)" font-family="geogebra-sans-serif, sans-serif" font-size="24px" font-style="normal" font-weight="normal" text-decoration="normal" x="584" y="414" text-anchor="start" dominant-baseline="alphabetic" stroke-opacity="1" stroke-linejoin="bevel" stroke-miterlimit="10" stroke-width="3">3</text><text fill="rgb(0,0,0)" stroke="none" font-family="geogebra-sans-serif, sans-serif" font-size="24px" font-style="normal" font-weight="normal" text-decoration="normal" x="584" y="414" text-anchor="start" dominant-baseline="alphabetic" fill-opacity="1">3</text><path fill="none" stroke="rgb(0,0,0)" paint-order="fill stroke markers" d=" M 589 387 L 589 390" stroke-opacity="1" stroke-miterlimit="10" stroke-width="2"/><path fill="none" stroke="rgb(0,0,0)" paint-order="fill stroke markers" d=" M 173 249 L 176 249" stroke-opacity="1" stroke-miterlimit="10" stroke-width="2"/><path fill="none" stroke="rgb(0,0,0)" paint-order="fill stroke markers" d=" M 173 111 L 176 111" stroke-opacity="1" stroke-miterlimit="10" stroke-width="2"/><text fill="rgb(0,0,0)" stroke="none" font-family="geogebra-sans-serif, sans-serif" font-size="24px" font-style="normal" font-weight="normal" text-decoration="normal" x="152" y="259" text-anchor="start" dominant-baseline="alphabetic" fill-opacity="1">1</text><text fill="none" stroke="rgb(255,255,255)" font-family="geogebra-sans-serif, sans-serif" font-size="24px" font-style="normal" font-weight="normal" text-decoration="normal" x="152" y="259" text-anchor="start" dominant-baseline="alphabetic" stroke-opacity="1" stroke-linejoin="bevel" stroke-miterlimit="10" stroke-width="3">1</text><text fill="rgb(0,0,0)" stroke="none" font-family="geogebra-sans-serif, sans-serif" font-size="24px" font-style="normal" font-weight="normal" text-decoration="normal" x="152" y="259" text-anchor="start" dominant-baseline="alphabetic" fill-opacity="1">1</text><text fill="rgb(0,0,0)" stroke="none" font-family="geogebra-sans-serif, sans-serif" font-size="24px" font-style="normal" font-weight="normal" text-decoration="normal" x="152" y="122" text-anchor="start" dominant-baseline="alphabetic" fill-opacity="1">2</text><text fill="none" stroke="rgb(255,255,255)" font-family="geogebra-sans-serif, sans-serif" font-size="24px" font-style="normal" font-weight="normal" text-decoration="normal" x="152" y="122" text-anchor="start" dominant-baseline="alphabetic" stroke-opacity="1" stroke-linejoin="bevel" stroke-miterlimit="10" stroke-width="3">2</text><text fill="rgb(0,0,0)" stroke="none" font-family="geogebra-sans-serif, sans-serif" font-size="24px" font-style="normal" font-weight="normal" text-decoration="normal" x="152" y="122" text-anchor="start" dominant-baseline="alphabetic" fill-opacity="1">2</text><text fill="rgb(0,0,0)" stroke="none" font-family="geogebra-sans-serif, sans-serif" font-size="24px" font-style="normal" font-weight="normal" text-decoration="normal" x="152" y="414" text-anchor="start" dominant-baseline="alphabetic" fill-opacity="1">0</text><text fill="none" stroke="rgb(255,255,255)" font-family="geogebra-sans-serif, sans-serif" font-size="24px" font-style="normal" font-weight="normal" text-decoration="normal" x="152" y="414" text-anchor="start" dominant-baseline="alphabetic" stroke-opacity="1" stroke-linejoin="bevel" stroke-miterlimit="10" stroke-width="3">0</text><text fill="rgb(0,0,0)" stroke="none" font-family="geogebra-sans-serif, sans-serif" font-size="24px" font-style="normal" font-weight="normal" text-decoration="normal" x="152" y="414" text-anchor="start" dominant-baseline="alphabetic" fill-opacity="1">0</text><path fill="none" stroke="rgb(46,125,50)" paint-order="fill stroke markers" d=" M -99.86702190386882 -164.37007012197938 C 83.84270521943552 570.468838371233 267.55243234273985 570.468838371233 451.2621594660442 -164.37007012197938" stroke-opacity="0.8" stroke-linecap="round" stroke-linejoin="round" stroke-miterlimit="10" stroke-width="2.5"/><path fill="none" stroke="rgb(21,101,192)" paint-order="fill stroke markers" d=" M 59.50304821811165 -5 L 499.50304821811466 435" stroke-opacity="0.8" stroke-linecap="round" stroke-linejoin="round" stroke-miterlimit="10" stroke-width="2.5"/><path fill="none" stroke="rgb(0,0,0)" paint-order="fill stroke markers" d=" M 279.03429028794636 317.8679635766912 L 382.37101179480504 317.8679635766912" stroke-opacity="0.8" stroke-linecap="round" stroke-linejoin="round" stroke-miterlimit="10" stroke-width="4.5"/><path fill="none" stroke="rgb(0,0,0)" paint-order="fill stroke markers" d=" M 382.37101179480504 304.08973404244347 L 279.03429028794636 304.08973404244347" stroke-opacity="0.8" stroke-linecap="round" stroke-linejoin="round" stroke-miterlimit="10" stroke-width="4.5"/><path fill="none" stroke="rgb(0,0,0)" paint-order="fill stroke markers" d=" M 279.03429028794636 304.08973404244347 L 279.03429028794636 317.8679635766912" stroke-opacity="0.8" stroke-linecap="round" stroke-linejoin="round" stroke-miterlimit="10" stroke-width="4.5"/><path fill="rgb(97,97,97)" stroke="none" paint-order="stroke fill markers" d=" M 318.4798641235659 248.97681590545255 C 318.4798641235659 251.73823965460653 316.24128787271985 253.97681590545255 313.4798641235659 253.97681590545255 C 310.71844037441195 253.97681590545255 308.4798641235659 251.73823965460653 308.4798641235659 248.97681590545255 C 308.4798641235659 246.21539215629858 310.71844037441195 243.97681590545255 313.4798641235659 243.97681590545255 C 316.24128787271985 243.97681590545255 318.4798641235659 246.21539215629858 318.4798641235659 248.97681590545255 Z" fill-opacity="1"/><path fill="none" stroke="rgb(0,0,0)" paint-order="fill stroke markers" d=" M 318.4798641235659 248.97681590545255 C 318.4798641235659 251.73823965460653 316.24128787271985 253.97681590545255 313.4798641235659 253.97681590545255 C 310.71844037441195 253.97681590545255 308.4798641235659 251.73823965460653 308.4798641235659 248.97681590545255 C 308.4798641235659 246.21539215629858 310.71844037441195 243.97681590545255 313.4798641235659 243.97681590545255 C 316.24128787271985 243.97681590545255 318.4798641235659 246.21539215629858 318.4798641235659 248.97681590545255 Z" stroke-opacity="1" stroke-linecap="round" stroke-linejoin="round" stroke-miterlimit="10"/><text fill="rgb(97,97,97)" stroke="none" font-family="geogebra-sans-serif, sans-serif" font-size="32px" font-style="normal" font-weight="normal" text-decoration="normal" x="337" y="253" text-anchor="start" dominant-baseline="alphabetic" fill-opacity="1">(1, 1)</text><text fill="none" stroke="rgb(255,255,255)" font-family="geogebra-sans-serif, sans-serif" font-size="32px" font-style="normal" font-weight="normal" text-decoration="normal" x="337" y="253" text-anchor="start" dominant-baseline="alphabetic" stroke-opacity="1" stroke-linejoin="bevel" stroke-miterlimit="10" stroke-width="3">(1, 1)</text><text fill="rgb(97,97,97)" stroke="none" font-family="geogebra-sans-serif, sans-serif" font-size="32px" font-style="normal" font-weight="normal" text-decoration="normal" x="337" y="253" text-anchor="start" dominant-baseline="alphabetic" fill-opacity="1">(1, 1)</text><path fill="none" stroke="rgb(0,0,0)" paint-order="fill stroke markers" d=" M 382.37101179480504 317.8679635766912 L 382.37101179480504 304.08973404244347" stroke-opacity="0.8" stroke-linecap="round" stroke-linejoin="round" stroke-miterlimit="10" stroke-width="4.5"/><path fill="none" stroke="rgb(255,0,255)" paint-order="fill stroke markers" d=" M -10 440 L -10 136.4832179229384 L -7.10546875 144.22468077172638 L -4.2109375 151.84452696234504 L -1.31640625 159.34275649479437 L 1.578125 166.71936936907434 L 4.47265625 173.974365585185 L 7.3671875 181.10774514312632 L 10.26171875 188.11950804289827 L 13.15625 195.00965428450093 L 16.05078125 201.7781838679342 L 18.9453125 208.42509679319815 L 21.83984375 214.95039306029278 L 24.734375 221.35407266921806 L 27.62890625 227.636135619974 L 30.5234375 233.7965819125606 L 33.41796875 239.83541154697787 L 36.31249999999997 245.75262452322576 L 39.20703124999997 251.54822084130436 L 42.10156249999997 257.2222005012136 L 44.99609374999997 262.7745635029535 L 47.890624999999986 268.2053098465241 L 50.785156249999986 273.51443953192535 L 53.679687499999986 278.70195255915723 L 56.574218749999986 283.7678489282198 L 59.46875 288.712128639113 L 65.2578125 298.2358380863915 L 71.04687499999999 307.2730809009925 L 76.83593749999999 315.8238570829162 L 82.62499999999999 323.8881666321626 L 88.41406249999999 331.46600954873156 L 94.20312499999999 338.55738583262325 L 99.99218749999999 345.1622954838375 L 105.78124999999999 351.2807385023745 L 111.57031249999999 356.91271488823406 L 117.35937499999997 362.0582246414163 L 123.14843749999997 366.71726776192116 L 128.9375 370.8898442497487 L 134.7265625 374.5759541048989 L 140.515625 377.7755973273717 L 146.3046875 380.4887739171672 L 152.09375 382.7154838742853 L 157.8828125 384.45572719872604 L 163.67187499999997 385.7095038904895 L 169.46093749999997 386.4768139495755 L 175.24999999999997 386.75765737598425 L 181.03906249999997 386.55203416971557 L 186.82812499999997 385.85994433076957 L 192.61718749999997 384.6813878591462 L 198.40624999999997 383.0163647548455 L 204.19531249999997 380.8648750178674 L 209.98437499999997 378.226918648212 L 215.77343749999997 375.10249564587923 L 221.56249999999997 371.4916060108691 L 227.35156249999997 367.3942497431816 L 233.14062499999997 362.81042684281675 L 238.92968749999997 357.7401373097746 L 244.71874999999994 352.18338114405503 L 250.50781249999994 346.14015834565816 L 256.29687499999994 339.6104689145839 L 262.08593749999994 332.5943128508323 L 267.875 325.0916901544033 L 273.6640625 317.102600825297 L 279.453125 308.62704486351333 L 285.2421875 299.6650222690523 L 291.03125 290.2165330419139 L 296.8203125 280.2815771820982 L 299.71484375 275.13167426493635 L 302.609375 269.8601546896051 L 305.50390625 264.46701845610454 L 308.3984375 258.9522655644347 L 311.29296875 253.31589601459544 L 314.1875 247.5579098065869 L 317.08203125 241.678306940409 L 319.9765625 235.67708741606177 L 322.87109375 229.55425123354516 L 325.765625 223.30979839285925 L 328.66015625 216.943728894004 L 331.5546875 210.45604273697938 L 334.44921875 203.84673992178546 L 337.34375 197.1158204484222 L 340.23828125 190.26328431688958 L 343.1328125 183.28913152718764 L 346.02734375 176.19336207931636 L 348.921875 168.97597597327572 L 351.81640625 161.63697320906576 L 354.7109375 154.1763537866865 L 357.60546875 146.59411770613784 L 360.5 138.89026496741985 L 363.39453125 131.06479557053254 L 366.2890625 123.1177095154759 L 369.18359375 115.04900680224989 L 372.078125 106.85868743085456 L 374.97265625 98.5467514012899 L 377.8671875 90.11319871355585 L 380.76171875 81.55802936765252 L 383.65625 72.88124336357981 L 386.55078124999994 64.08284070133777 L 389.44531249999994 55.16282138092646 L 392.33984374999994 46.12118540234576 L 395.23437499999994 36.95793276559573 L 398.12890624999994 27.67306347067631 L 401.02343749999994 18.26657751758762 L 403.91796874999994 8.7384749063296 L 406.81249999999994 -0.9112443630978078 L 409.70703124999994 -10.682580290694546 L 412.60156249999994 -20.575532876460613 L 418.39062499999994 -40.726288022500796 L 424.17968749999994 -61.3635098012183 L 429.96874999999994 -82.48719821261312 L 435.75781249999994 -104.09735325668532 L 441.54687499999994 -126.19397493343496 L 447.33593749999994 -148.77706324286186 L 453.12499999999994 -171.8466181849662 L 458.91406249999994 -195.40263975974784 L 464.70312499999994 -219.4451279672067 L 470.49218749999994 -243.9740828073431 L 476.28124999999994 -268.98950428015684 L 482.07031249999994 -294.49139238564777 L 487.85937499999994 -320.47974712381614 L 493.64843749999994 -346.9545684946618 L 499.43749999999994 -373.91585649818506 L 505.22656249999994 -401.3636111343854 L 511.01562499999994 -429.29783240326327 L 516.8046875 -457.71852030481836 L 522.59375 -486.625674839051 L 528.3828125 -516.0192960059608 L 534.171875 -545.899383805548 L 539.9609375 -576.2659382378126 L 545.75 -607.1189593027548 L 551.5390625 -638.458447000374 L 557.328125 -670.2844013306708 L 563.1171875 -702.5968222936447 L 568.90625 -735.3957098892961 L 574.6953125 -768.6810641176248 L 580.484375 -802.4528849786309 L 586.2734375 -836.7111724723143 L 592.0625 -871.455926598675 L 597.8515625 -906.6871473577132 L 603.640625 -942.4048347494288 L 609.4296875 -978.6089887738217 L 615.21875 -1015.2996094308917 L 621.0078125 -1052.4766967206392 L 626.796875 -1090.140250643064 L 632.5859375 -1128.2902711981662 L 638.375 -1166.9267583859457 L 644.1640625 -1206.0497122064028 L 649.953125 -1245.6591326595371 L 655.7421875 -1285.7550197453488 L 661.53125 -1326.3373734638378 L 667.3203125 -1367.4061938150041 L 673.109375 -1408.9614807988478 L 678.8984375 -1451.003234415369 L 684.6875 -1493.5314546645675 L 690.4765625 -1536.546141546443 L 696.265625 -1580.0472950609965 L 702.0546875 -1624.0349152082267 L 707.84375 -1668.5090019881345 L 713.6328125 -1713.4695554007199 L 719.421875 -1758.9165754459823 L 725.2109375 -1804.8500621239223 L 731 -1851.2700154345398 L 731 440 L -10 440 Z" stroke-opacity="1" stroke-linecap="round" stroke-linejoin="round" stroke-miterlimit="10" stroke-width="0.5"/><path fill="none" stroke="rgb(255,0,255)" paint-order="fill stroke markers" d=" M 59.50304821811165 -5 L 499.50304821811466 435" stroke-opacity="1" stroke-linecap="round" stroke-linejoin="round" stroke-miterlimit="10" stroke-width="0.5"/><path fill="none" stroke="rgb(255,0,255)" paint-order="fill stroke markers" d=" M 175.69756878108768 435 L 175.69756878108768 -5" stroke-opacity="1" stroke-linecap="round" stroke-linejoin="round" stroke-miterlimit="10" stroke-width="0.5"/><path fill="none" stroke="rgb(255,0,255)" paint-order="fill stroke markers" d=" M -5 386.75911124792987 L 726 386.75911124792987" stroke-opacity="1" stroke-linecap="round" stroke-linejoin="round" stroke-miterlimit="10" stroke-width="0.5"/><path fill="rgb(255,0,255)" stroke="none" paint-order="stroke fill markers" d=" M 313.47610678619674 248.9730585680833 L 311.29296875 253.31589601459544 L 308.3984375 258.9522655644347 L 305.50390625 264.46701845610454 L 302.609375 269.8601546896051 L 299.71484375 275.13167426493635 L 296.8203125 280.2815771820982 L 291.03125 290.2165330419139 L 285.2421875 299.6650222690523 L 279.453125 308.62704486351333 L 273.6640625 317.102600825297 L 267.875 325.0916901544033 L 262.08593749999994 332.5943128508323 L 256.29687499999994 339.6104689145839 L 250.50781249999994 346.14015834565816 L 244.71874999999994 352.18338114405503 L 238.92968749999997 357.7401373097746 L 233.14062499999997 362.81042684281675 L 227.35156249999997 367.3942497431816 L 221.56249999999997 371.4916060108691 L 215.77343749999997 375.10249564587923 L 209.98437499999997 378.226918648212 L 204.19531249999997 380.8648750178674 L 198.40624999999997 383.0163647548455 L 192.61718749999997 384.6813878591462 L 186.82812499999997 385.85994433076957 L 181.03906249999997 386.55203416971557 L 175.69756878108842 386.7417600648405 L 175.69756878108768 386.7417600648405 L 175.69756878108768 386.75911124792987 L 451.2621594660443 386.75911124792987 L 313.47610678619674 248.9730585680833 Z" fill-opacity="0.7490196078431373"/><path fill="rgb(0,0,0)" stroke="none" paint-order="stroke fill markers" fill-rule="evenodd" d=" M 279.03429028794636 317.8679635766912 L 382.37101179480504 317.8679635766912 L 382.37101179480504 304.08973404244347 L 279.03429028794636 304.08973404244347 Z" fill-opacity="0.09803921568627451"/><path fill="rgb(0,255,0)" stroke="none" paint-order="stroke fill markers" fill-rule="evenodd" d=" M 279.03429028794636 317.8679635766912 L 382.37101179480504 317.8679635766912 L 382.37101179480504 304.08973404244347 L 279.03429028794636 304.08973404244347 Z" fill-opacity="1"/><path fill="none" stroke="rgb(0,255,0)" paint-order="fill stroke markers" d=" M 279.03429028794636 317.8679635766912 L 382.37101179480504 317.8679635766912 L 382.37101179480504 304.08973404244347 L 279.03429028794636 304.08973404244347 Z" stroke-opacity="0.8" stroke-linecap="round" stroke-linejoin="round" stroke-miterlimit="10" stroke-width="2.5"/></g></g></svg>