<svg version="1.1" xmlns="http://www.w3.org/2000/svg" xmlns:xlink="http://www.w3.org/1999/xlink" width="692" height="653"><defs><clipPath id="NBAnadwObTZE"><path fill="none" stroke="none" d=" M 0 0 L 692 0 L 692 653 L 0 653 L 0 0 Z"/></clipPath></defs><g transform="scale(1,1)" clip-path="url(#NBAnadwObTZE)"><g><path fill="none" stroke="rgb(97,97,97)" paint-order="fill stroke markers" d=" M 562.7074806989979 312.7821367839296 C 562.7074806989979 455.4337356159795 447.0655110851427 571.0757052298354 304.4139122530935 571.0757052298354 C 161.76231342104427 571.0757052298354 46.120343807189045 455.4337356159795 46.120343807189045 312.7821367839296 C 46.120343807189045 170.13053795187966 161.76231342104427 54.48856833802387 304.4139122530935 54.48856833802387 C 447.0655110851427 54.48856833802387 562.7074806989979 170.13053795187966 562.7074806989979 312.7821367839296 Z" stroke-opacity="0.8" stroke-linecap="round" stroke-linejoin="round" stroke-miterlimit="10" stroke-width="2.5"/><text fill="rgb(97,97,97)" stroke="none" font-family="geogebra-sans-serif, sans-serif" font-size="32px" font-style="normal" font-weight="normal" text-decoration="normal" x="172" y="37" text-anchor="start" dominant-baseline="alphabetic" fill-opacity="1">Sphere with radius 5</text><text fill="none" stroke="rgb(255,255,255)" font-family="geogebra-sans-serif, sans-serif" font-size="32px" font-style="normal" font-weight="normal" text-decoration="normal" x="172" y="37" text-anchor="start" dominant-baseline="alphabetic" stroke-opacity="1" stroke-linejoin="bevel" stroke-miterlimit="10" stroke-width="3">Sphere with radius 5</text><text fill="rgb(97,97,97)" stroke="none" font-family="geogebra-sans-serif, sans-serif" font-size="32px" font-style="normal" font-weight="normal" text-decoration="normal" x="172" y="37" text-anchor="start" dominant-baseline="alphabetic" fill-opacity="1">Sphere with radius 5</text><path fill="rgb(21,101,192)" stroke="none" paint-order="stroke fill markers" d=" M 483.4597653082676 126.61514184587665 C 470.04896963376433 126.61514184587665 459.1773717085674 209.96494455781652 459.1773717085674 312.7821367839296 C 459.1773717085674 415.59932901004277 470.04896963376433 498.94913172198255 483.4597653082676 498.94913172198255 C 496.8705609827709 498.94913172198255 507.7421589079678 415.59932901004277 507.7421589079678 312.7821367839296 C 507.7421589079678 209.96494455781652 496.8705609827709 126.61514184587665 483.4597653082676 126.61514184587665 Z" fill-opacity="0.34901960784313724"/><path fill="none" stroke="rgb(21,101,192)" paint-order="fill stroke markers" d=" M 483.4597653082676 126.61514184587665 C 470.04896963376433 126.61514184587665 459.1773717085674 209.96494455781652 459.1773717085674 312.7821367839296 C 459.1773717085674 415.59932901004277 470.04896963376433 498.94913172198255 483.4597653082676 498.94913172198255 C 496.8705609827709 498.94913172198255 507.7421589079678 415.59932901004277 507.7421589079678 312.7821367839296 C 507.7421589079678 209.96494455781652 496.8705609827709 126.61514184587665 483.4597653082676 126.61514184587665 Z" stroke-opacity="0.8" stroke-linecap="round" stroke-linejoin="round" stroke-miterlimit="10" stroke-width="2.5"/><text fill="rgb(21,101,192)" stroke="none" font-family="geogebra-sans-serif, sans-serif" font-size="32px" font-style="normal" font-weight="normal" text-decoration="normal" x="408" y="435" text-anchor="start" dominant-baseline="alphabetic" fill-opacity="1">Cross section</text><text fill="none" stroke="rgb(255,255,255)" font-family="geogebra-sans-serif, sans-serif" font-size="32px" font-style="normal" font-weight="normal" text-decoration="normal" x="408" y="435" text-anchor="start" dominant-baseline="alphabetic" stroke-opacity="1" stroke-linejoin="bevel" stroke-miterlimit="10" stroke-width="3">Cross section</text><text fill="rgb(21,101,192)" stroke="none" font-family="geogebra-sans-serif, sans-serif" font-size="32px" font-style="normal" font-weight="normal" text-decoration="normal" x="408" y="435" text-anchor="start" dominant-baseline="alphabetic" fill-opacity="1">Cross section</text><path fill="none" stroke="rgb(97,97,97)" paint-order="fill stroke markers" d=" M 304.4139122530935 312.7821367839296 L 483.4597653082676 126.61514184587813" stroke-opacity="0.8" stroke-linecap="round" stroke-linejoin="round" stroke-miterlimit="10" stroke-width="2.5"/><text fill="rgb(97,97,97)" stroke="none" font-family="geogebra-sans-serif, sans-serif" font-size="32px" font-style="normal" font-weight="normal" text-decoration="normal" x="378" y="204" text-anchor="start" dominant-baseline="alphabetic" fill-opacity="1">5</text><text fill="none" stroke="rgb(255,255,255)" font-family="geogebra-sans-serif, sans-serif" font-size="32px" font-style="normal" font-weight="normal" text-decoration="normal" x="378" y="204" text-anchor="start" dominant-baseline="alphabetic" stroke-opacity="1" stroke-linejoin="bevel" stroke-miterlimit="10" stroke-width="3">5</text><text fill="rgb(97,97,97)" stroke="none" font-family="geogebra-sans-serif, sans-serif" font-size="32px" font-style="normal" font-weight="normal" text-decoration="normal" x="378" y="204" text-anchor="start" dominant-baseline="alphabetic" fill-opacity="1">5</text><path fill="none" stroke="rgb(97,97,97)" paint-order="fill stroke markers" d=" M 304.4139122530935 312.7821367839296 L 562.7074806989979 312.7821367839296" stroke-opacity="0.8" stroke-linecap="round" stroke-linejoin="round" stroke-miterlimit="10" stroke-width="2.5"/><path fill="none" stroke="rgb(97,97,97)" paint-order="fill stroke markers" d=" M 483.4597653082676 126.61514184587813 L 483.4597653082676 312.7821367839296" stroke-opacity="0.8" stroke-linecap="round" stroke-linejoin="round" stroke-miterlimit="10" stroke-width="2.5"/><text fill="rgb(97,97,97)" stroke="none" font-family="geogebra-sans-serif, sans-serif" font-size="32px" font-style="normal" font-weight="normal" text-decoration="normal" x="492" y="223" text-anchor="start" dominant-baseline="alphabetic" fill-opacity="1">r(x)</text><text fill="none" stroke="rgb(255,255,255)" font-family="geogebra-sans-serif, sans-serif" font-size="32px" font-style="normal" font-weight="normal" text-decoration="normal" x="492" y="223" text-anchor="start" dominant-baseline="alphabetic" stroke-opacity="1" stroke-linejoin="bevel" stroke-miterlimit="10" stroke-width="3">r(x)</text><text fill="rgb(97,97,97)" stroke="none" font-family="geogebra-sans-serif, sans-serif" font-size="32px" font-style="normal" font-weight="normal" text-decoration="normal" x="492" y="223" text-anchor="start" dominant-baseline="alphabetic" fill-opacity="1">r(x)</text><path fill="none" stroke="rgb(97,97,97)" paint-order="fill stroke markers" d=" M 304.4139122530935 312.7821367839296 L 483.4597653082676 312.7821367839296" stroke-opacity="0.8" stroke-linecap="round" stroke-linejoin="round" stroke-miterlimit="10" stroke-width="2.5"/><text fill="rgb(97,97,97)" stroke="none" font-family="geogebra-sans-serif, sans-serif" font-size="32px" font-style="normal" font-weight="normal" text-decoration="normal" x="390" y="339" text-anchor="start" dominant-baseline="alphabetic" fill-opacity="1">x</text><text fill="none" stroke="rgb(255,255,255)" font-family="geogebra-sans-serif, sans-serif" font-size="32px" font-style="normal" font-weight="normal" text-decoration="normal" x="390" y="339" text-anchor="start" dominant-baseline="alphabetic" stroke-opacity="1" stroke-linejoin="bevel" stroke-miterlimit="10" stroke-width="3">x</text><text fill="rgb(97,97,97)" stroke="none" font-family="geogebra-sans-serif, sans-serif" font-size="32px" font-style="normal" font-weight="normal" text-decoration="normal" x="390" y="339" text-anchor="start" dominant-baseline="alphabetic" fill-opacity="1">x</text><path fill="rgb(21,101,192)" stroke="none" paint-order="stroke fill markers" d=" M 309.4139122530935 312.7821367839296 C 309.4139122530935 315.54356053308356 307.17533600224743 317.7821367839296 304.4139122530935 317.7821367839296 C 301.65248850393954 317.7821367839296 299.4139122530935 315.54356053308356 299.4139122530935 312.7821367839296 C 299.4139122530935 310.02071303477567 301.65248850393954 307.7821367839296 304.4139122530935 307.7821367839296 C 307.17533600224743 307.7821367839296 309.4139122530935 310.02071303477567 309.4139122530935 312.7821367839296 Z" fill-opacity="1"/><path fill="none" stroke="rgb(0,0,0)" paint-order="fill stroke markers" d=" M 309.4139122530935 312.7821367839296 C 309.4139122530935 315.54356053308356 307.17533600224743 317.7821367839296 304.4139122530935 317.7821367839296 C 301.65248850393954 317.7821367839296 299.4139122530935 315.54356053308356 299.4139122530935 312.7821367839296 C 299.4139122530935 310.02071303477567 301.65248850393954 307.7821367839296 304.4139122530935 307.7821367839296 C 307.17533600224743 307.7821367839296 309.4139122530935 310.02071303477567 309.4139122530935 312.7821367839296 Z" stroke-opacity="1" stroke-linecap="round" stroke-linejoin="round" stroke-miterlimit="10"/><path fill="rgb(21,101,192)" stroke="none" paint-order="stroke fill markers" d=" M 488.4597653082676 126.61514184587813 C 488.4597653082676 129.3765655950321 486.22118905742155 131.61514184587813 483.4597653082676 131.61514184587813 C 480.69834155911366 131.61514184587813 478.4597653082676 129.3765655950321 478.4597653082676 126.61514184587813 C 478.4597653082676 123.85371809672417 480.69834155911366 121.61514184587813 483.4597653082676 121.61514184587813 C 486.22118905742155 121.61514184587813 488.4597653082676 123.85371809672417 488.4597653082676 126.61514184587813 Z" fill-opacity="1"/><path fill="none" stroke="rgb(0,0,0)" paint-order="fill stroke markers" d=" M 488.4597653082676 126.61514184587813 C 488.4597653082676 129.3765655950321 486.22118905742155 131.61514184587813 483.4597653082676 131.61514184587813 C 480.69834155911366 131.61514184587813 478.4597653082676 129.3765655950321 478.4597653082676 126.61514184587813 C 478.4597653082676 123.85371809672417 480.69834155911366 121.61514184587813 483.4597653082676 121.61514184587813 C 486.22118905742155 121.61514184587813 488.4597653082676 123.85371809672417 488.4597653082676 126.61514184587813 Z" stroke-opacity="1" stroke-linecap="round" stroke-linejoin="round" stroke-miterlimit="10"/><path fill="rgb(97,97,97)" stroke="none" paint-order="stroke fill markers" d=" M 487.4597653082676 312.7821367839296 C 487.4597653082676 314.9912757832528 485.66890430759076 316.7821367839296 483.4597653082676 316.7821367839296 C 481.25062630894445 316.7821367839296 479.4597653082676 314.9912757832528 479.4597653082676 312.7821367839296 C 479.4597653082676 310.57299778460646 481.25062630894445 308.7821367839296 483.4597653082676 308.7821367839296 C 485.66890430759076 308.7821367839296 487.4597653082676 310.57299778460646 487.4597653082676 312.7821367839296 Z" fill-opacity="1"/><path fill="none" stroke="rgb(0,0,0)" paint-order="fill stroke markers" d=" M 487.4597653082676 312.7821367839296 C 487.4597653082676 314.9912757832528 485.66890430759076 316.7821367839296 483.4597653082676 316.7821367839296 C 481.25062630894445 316.7821367839296 479.4597653082676 314.9912757832528 479.4597653082676 312.7821367839296 C 479.4597653082676 310.57299778460646 481.25062630894445 308.7821367839296 483.4597653082676 308.7821367839296 C 485.66890430759076 308.7821367839296 487.4597653082676 310.57299778460646 487.4597653082676 312.7821367839296 Z" stroke-opacity="1" stroke-linecap="round" stroke-linejoin="round" stroke-miterlimit="10"/></g></g></svg>