<svg version="1.1" xmlns="http://www.w3.org/2000/svg" xmlns:xlink="http://www.w3.org/1999/xlink" width="405" height="405"><defs><clipPath id="ttCbtTTJnOND"><path fill="none" stroke="none" d=" M 0 0 L 405 0 L 405 405 L 0 405 L 0 0 Z"/></clipPath></defs><g transform="scale(1,1)" clip-path="url(#ttCbtTTJnOND)"><g transform="translate(-48.68069793010511,-123.32869024171626)"><path fill="none" stroke="rgb(0,0,0)" paint-order="fill stroke markers" d=" M 250.5 2.5 L 250.5 653.5" stroke-opacity="1" stroke-miterlimit="10"/><path fill="none" stroke="rgb(0,0,0)" paint-order="fill stroke markers" d=" M 250.5 1.5 L 242.5 9.5" stroke-opacity="1" stroke-miterlimit="10"/><path fill="none" stroke="rgb(0,0,0)" paint-order="fill stroke markers" d=" M 250.5 1.5 L 258.5 9.5" stroke-opacity="1" stroke-miterlimit="10"/><path fill="none" stroke="rgb(0,0,0)" paint-order="fill stroke markers" d=" M 0.5 325.5 L 634.5 325.5" stroke-opacity="1" stroke-miterlimit="10"/><path fill="none" stroke="rgb(0,0,0)" paint-order="fill stroke markers" d=" M 635.5 325.5 L 627.5 317.5" stroke-opacity="1" stroke-miterlimit="10"/><path fill="none" stroke="rgb(0,0,0)" paint-order="fill stroke markers" d=" M 635.5 325.5 L 627.5 333.5" stroke-opacity="1" stroke-miterlimit="10"/><text fill="rgb(0,0,0)" stroke="none" font-family="geogebra-sans-serif, sans-serif" font-size="24px" font-style="normal" font-weight="normal" text-decoration="normal" x="71" y="353" text-anchor="start" dominant-baseline="alphabetic" fill-opacity="1">–1</text><text fill="none" stroke="rgb(255,255,255)" font-family="geogebra-sans-serif, sans-serif" font-size="24px" font-style="normal" font-weight="normal" text-decoration="normal" x="71" y="353" text-anchor="start" dominant-baseline="alphabetic" stroke-opacity="1" stroke-linejoin="bevel" stroke-miterlimit="10" stroke-width="3">–1</text><text fill="rgb(0,0,0)" stroke="none" font-family="geogebra-sans-serif, sans-serif" font-size="24px" font-style="normal" font-weight="normal" text-decoration="normal" x="71" y="353" text-anchor="start" dominant-baseline="alphabetic" fill-opacity="1">–1</text><path fill="none" stroke="rgb(0,0,0)" paint-order="fill stroke markers" d=" M 82.5 325.5 L 82.5 328.5" stroke-opacity="1" stroke-miterlimit="10"/><path fill="none" stroke="rgb(0,0,0)" paint-order="fill stroke markers" d=" M 250.5 325.5 L 250.5 328.5" stroke-opacity="1" stroke-miterlimit="10"/><text fill="rgb(0,0,0)" stroke="none" font-family="geogebra-sans-serif, sans-serif" font-size="24px" font-style="normal" font-weight="normal" text-decoration="normal" x="413" y="353" text-anchor="start" dominant-baseline="alphabetic" fill-opacity="1">1</text><text fill="none" stroke="rgb(255,255,255)" font-family="geogebra-sans-serif, sans-serif" font-size="24px" font-style="normal" font-weight="normal" text-decoration="normal" x="413" y="353" text-anchor="start" dominant-baseline="alphabetic" stroke-opacity="1" stroke-linejoin="bevel" stroke-miterlimit="10" stroke-width="3">1</text><text fill="rgb(0,0,0)" stroke="none" font-family="geogebra-sans-serif, sans-serif" font-size="24px" font-style="normal" font-weight="normal" text-decoration="normal" x="413" y="353" text-anchor="start" dominant-baseline="alphabetic" fill-opacity="1">1</text><path fill="none" stroke="rgb(0,0,0)" paint-order="fill stroke markers" d=" M 418.5 325.5 L 418.5 328.5" stroke-opacity="1" stroke-miterlimit="10"/><text fill="rgb(0,0,0)" stroke="none" font-family="geogebra-sans-serif, sans-serif" font-size="24px" font-style="normal" font-weight="normal" text-decoration="normal" x="582" y="353" text-anchor="start" dominant-baseline="alphabetic" fill-opacity="1">2</text><text fill="none" stroke="rgb(255,255,255)" font-family="geogebra-sans-serif, sans-serif" font-size="24px" font-style="normal" font-weight="normal" text-decoration="normal" x="582" y="353" text-anchor="start" dominant-baseline="alphabetic" stroke-opacity="1" stroke-linejoin="bevel" stroke-miterlimit="10" stroke-width="3">2</text><text fill="rgb(0,0,0)" stroke="none" font-family="geogebra-sans-serif, sans-serif" font-size="24px" font-style="normal" font-weight="normal" text-decoration="normal" x="582" y="353" text-anchor="start" dominant-baseline="alphabetic" fill-opacity="1">2</text><path fill="none" stroke="rgb(0,0,0)" paint-order="fill stroke markers" d=" M 587.5 325.5 L 587.5 328.5" stroke-opacity="1" stroke-miterlimit="10"/><path fill="none" stroke="rgb(0,0,0)" paint-order="fill stroke markers" d=" M 247.5 493.5 L 250.5 493.5" stroke-opacity="1" stroke-miterlimit="10"/><path fill="none" stroke="rgb(0,0,0)" paint-order="fill stroke markers" d=" M 247.5 156.5 L 250.5 156.5" stroke-opacity="1" stroke-miterlimit="10"/><text fill="rgb(0,0,0)" stroke="none" font-family="geogebra-sans-serif, sans-serif" font-size="24px" font-style="normal" font-weight="normal" text-decoration="normal" x="213" y="504" text-anchor="start" dominant-baseline="alphabetic" fill-opacity="1">–1</text><text fill="none" stroke="rgb(255,255,255)" font-family="geogebra-sans-serif, sans-serif" font-size="24px" font-style="normal" font-weight="normal" text-decoration="normal" x="213" y="504" text-anchor="start" dominant-baseline="alphabetic" stroke-opacity="1" stroke-linejoin="bevel" stroke-miterlimit="10" stroke-width="3">–1</text><text fill="rgb(0,0,0)" stroke="none" font-family="geogebra-sans-serif, sans-serif" font-size="24px" font-style="normal" font-weight="normal" text-decoration="normal" x="213" y="504" text-anchor="start" dominant-baseline="alphabetic" fill-opacity="1">–1</text><text fill="rgb(0,0,0)" stroke="none" font-family="geogebra-sans-serif, sans-serif" font-size="24px" font-style="normal" font-weight="normal" text-decoration="normal" x="227" y="167" text-anchor="start" dominant-baseline="alphabetic" fill-opacity="1">1</text><text fill="none" stroke="rgb(255,255,255)" font-family="geogebra-sans-serif, sans-serif" font-size="24px" font-style="normal" font-weight="normal" text-decoration="normal" x="227" y="167" text-anchor="start" dominant-baseline="alphabetic" stroke-opacity="1" stroke-linejoin="bevel" stroke-miterlimit="10" stroke-width="3">1</text><text fill="rgb(0,0,0)" stroke="none" font-family="geogebra-sans-serif, sans-serif" font-size="24px" font-style="normal" font-weight="normal" text-decoration="normal" x="227" y="167" text-anchor="start" dominant-baseline="alphabetic" fill-opacity="1">1</text><text fill="rgb(0,0,0)" stroke="none" font-family="geogebra-sans-serif, sans-serif" font-size="24px" font-style="normal" font-weight="normal" text-decoration="normal" x="227" y="353" text-anchor="start" dominant-baseline="alphabetic" fill-opacity="1">0</text><text fill="none" stroke="rgb(255,255,255)" font-family="geogebra-sans-serif, sans-serif" font-size="24px" font-style="normal" font-weight="normal" text-decoration="normal" x="227" y="353" text-anchor="start" dominant-baseline="alphabetic" stroke-opacity="1" stroke-linejoin="bevel" stroke-miterlimit="10" stroke-width="3">0</text><text fill="rgb(0,0,0)" stroke="none" font-family="geogebra-sans-serif, sans-serif" font-size="24px" font-style="normal" font-weight="normal" text-decoration="normal" x="227" y="353" text-anchor="start" dominant-baseline="alphabetic" fill-opacity="1">0</text><path fill="none" stroke="rgb(46,125,50)" paint-order="fill stroke markers" d=" M 250.62002725147414 325.2680195630857 L 255.78197106130725 325.23634587505495 L 260.9384738682134 325.14138681516624 L 266.084101106634 324.98332830050794 L 271.2134310775875 324.76247987462193 L 276.321061361568 324.47927423057297 L 281.4016152070077 324.13426654419874 L 286.4497478862049 323.7281336184937 L 291.46015301066706 323.26167284034767 L 301.3467842814807 322.15155263286937 L 311.0200613565919 320.81264538338513 L 320.43954450638955 319.25552222398846 L 329.5659922185995 317.492520684088 L 338.3615454158147 315.53766843840543 L 346.7899046766785 313.4065965119746 L 354.81649956765403 311.1164424384564 L 362.40864923371316 308.6857439257992 L 369.53571344213066 306.1343236379175 L 376.1692333236376 303.4831657523257 L 382.283061109198 300.75428500127157 L 387.8534782183377 297.9705889475866 L 397.28197441870407 292.3339779956121 L 404.3172572991942 286.76886761860845 L 406.9065477573414 284.07563450641265 L 408.86614108150076 281.4754220114348 L 410.1915452302635 278.9931368686056 L 410.61581522924837 277.803908694104 L 410.881166793961 276.6533343717387 L 410.9878528667699 275.5444021779072 L 410.9363061649297 274.4800585567801 L 410.7271382464047 273.4632032576272 L 410.36113835476687 272.4966845271542 L 409.83927204492954 271.58329436389363 L 409.1626795917645 270.72576384161533 L 408.3326741839276 269.9267585086313 L 407.3507399054991 269.1888738697728 L 404.93786197815484 267.90647200014763 L 401.93924661319386 266.8977555603531 L 398.3726652410701 266.1805282788957 L 394.25835994846267 265.77107408333416 L 384.4792165354164 265.9323217993673 L 378.86615289783646 266.5269742552642 L 372.8086366730671 267.47711129152987 L 366.33736885745384 268.7898319140135 L 359.48469418794383 270.47015122452797 L 352.28443242460276 272.5209440241191 L 344.7717030656808 274.94290037196333 L 336.9827444258709 277.7344934102516 L 328.95472803555697 280.8919596979275 L 320.7255693408765 284.4092922271599 L 312.33373570119284 288.278246226353 L 303.81805269201755 292.4883577826879 L 295.2175097274858 297.02697524604974 L 286.5710660171333 301.8793033051144 L 277.9174578669732 307.0284595557249 L 269.2950083247351 312.455543311887 L 260.7414401536961 318.13971634111635 L 252.2936930988649 324.05829513887994 L 243.9877463835191 330.18685429183415 L 235.85844734337405 336.49934041684736 L 227.93934707015325 342.96819610274997 L 220.26254389623764 349.56449322470064 L 212.8585355076121 356.2580749473249 L 205.75608042374841 363.0177056826594 L 198.98206953063644 369.81122822270316 L 192.5614082971811 376.60572722429754 L 186.51691024593202 383.3676981863621 L 180.8692021869368 390.0632210264116 L 175.63664165872814 396.6581373349739 L 170.83524695344983 403.1182303631556 L 166.47864003423706 409.40940678032297 L 162.5780025825847 415.49787922576894 L 159.14204534193647 421.35034867040906 L 156.17699085150178 426.9341856020438 L 153.68656959174297 432.217609050559 L 150.13215866643964 441.76138556874196 L 148.4595057791073 449.7509751530711 L 148.31238655019894 453.09737220734326 L 148.61139633771668 455.9800002207222 L 148.92430508687326 457.24069241948695 L 149.34381120616192 458.37764891199527 L 149.86800291523184 459.3885459887482 L 150.49484617777313 460.2711980505665 L 151.22218825541438 461.02356106186926 L 152.04776141019158 461.64373583151996 L 152.96918675009817 462.12997111648605 L 153.98397821204006 462.4806665437875 L 155.08954667633935 462.6943753464427 L 156.283204206763 462.76980690936307 L 158.92356690747033 462.50147052994964 L 161.88175492205494 461.6685399390294 L 165.13316596875362 460.2665258217779 L 172.41172248496386 455.75069310556455 L 180.54257083825644 448.9720301606807 L 189.29869209145645 439.99216848271305 L 193.83878488329054 434.7078543097184 L 198.44811952267048 428.91579876584046 L 203.09781828172606 422.6355860188669 L 207.7593685623177 415.8892684888308 L 212.40478539555275 408.70127620634236 L 217.00676965620525 401.0983136435957 L 221.53886111885507 393.10924450673804 L 225.97558551398845 384.7649650428374 L 230.2925947783173 376.0982664764107 L 234.46679973398264 367.1436872490267 L 238.47649447587122 357.93735579058875 L 242.30147179474974 348.51682460220945 L 245.92312901603674 338.9208964778472 L 249.32456368949354 329.1894437348204 L 252.49065862361752 319.36322136172527 L 255.40815581973666 309.48367502592777 L 258.0657189243914 299.5927449115269 L 260.4539838842003 289.73266638229995 L 262.5655975546705 279.9457684825466 L 264.39524408296523 270.27427130181684 L 265.9396589540944 260.76008323717826 L 267.197630659972 251.44459918890308 L 268.16999002089227 242.36850072221952 L 268.85958725883484 233.57155921908173 L 269.271256991226 225.09244302982125 L 269.41177138198157 216.96852961511348 L 269.2897817534573 209.23572364402543 L 268.9157490279672 201.9282819841429 L 268.3018634304419 195.07864648504386 L 267.4619539442419 188.71728541689606 L 266.411388069776 182.8725443818935 L 265.16696249009476 177.57050746785882 L 262.17015049239507 168.6868190775126 L 260.4574054747718 165.14493591757395 L 258.62981235647806 162.22509817507407 L 256.7094038715727 159.9404050796887 L 255.72145331864664 159.03955524389144 L 254.71883476079583 158.30111237233794 L 253.70445224402064 157.72590585874937 L 252.68122949734826 157.3145818482521 L 251.65210503744112 157.0676024420525 L 250.62002725147414 156.98524512861115 L 249.58794946550717 157.0676024420525 L 248.55882500560003 157.31458184825206 L 247.53560225892767 157.72590585874937 L 246.52121974215248 158.30111237233794 L 244.5306506313756 159.94040507968865 L 243.56024757988484 161.0026502582086 L 242.61024214647026 162.22509817507407 L 239.06990401055322 168.68681907751258 L 237.49326920422476 172.83486936087039 L 236.07309201285352 177.57050746785873 L 234.8286664331723 182.87254438189336 L 233.7781005587064 188.71728541689598 L 232.93819107250638 195.0786464850438 L 232.3243054749811 201.92828198414284 L 231.95027274949098 209.23572364402546 L 231.82828312096672 216.9685296151133 L 231.9687975117223 225.09244302982128 L 232.38046724411342 233.57155921908168 L 233.07006448205598 242.36850072221944 L 234.04242384297626 251.44459918890288 L 235.30039554885386 260.76008323717815 L 236.844810419983 270.2742713018166 L 238.67445694827776 279.9457684825465 L 240.786070618748 289.73266638229984 L 243.17433557855688 299.59274491152684 L 245.83189868321165 309.4836750259278 L 248.7493958793307 319.36322136172504 L 251.91549081345474 329.18944373482043 L 255.31692548691152 338.92089647784707 L 258.9385827081985 348.5168246022094 L 262.763560027077 357.9373557905885 L 266.7732547689656 367.1436872490266 L 270.9474597246309 376.09826647641046 L 275.2644689889598 384.7649650428373 L 279.70119338409313 393.1092445067379 L 284.233284846743 401.09831364359565 L 288.83526910739545 408.7012762063423 L 293.48068594063045 415.8892684888306 L 298.1422362212221 422.6355860188667 L 302.79193498027786 428.9157987658406 L 307.4012696196578 434.7078543097185 L 311.9413624114918 439.99216848271305 L 320.6974836646918 448.97203016068056 L 328.8283320179844 455.75069310556455 L 336.1068885341946 460.2665258217779 L 339.35829958089323 461.66853993902936 L 342.3164875954779 462.50147052994964 L 344.9568502961853 462.76980690936307 L 346.15050782660893 462.6943753464427 L 347.25607629090825 462.4806665437875 L 348.27086775285005 462.1299711164861 L 349.1922930927567 461.64373583151996 L 350.01786624753385 461.0235610618694 L 350.74520832517516 460.27119805056657 L 351.37205158771644 459.3885459887482 L 351.89624329678634 458.37764891199527 L 352.31574941607505 457.24069241948695 L 352.6286581652316 455.98000022072233 L 352.92766795274935 453.0973722073433 L 352.780548723841 449.75097515307124 L 351.10789583650865 441.76138556874207 L 347.55348491120526 432.21760905055896 L 345.06306365144644 426.9341856020438 L 342.0980091610118 421.350348670409 L 338.66205192036364 415.497879225769 L 334.76141446871134 409.40940678032314 L 330.4048075494985 403.1182303631556 L 325.6034128442202 396.658137334974 L 320.3708523160116 390.0632210264118 L 314.7231442570163 383.36769818636213 L 308.67864620576734 376.6057272242977 L 302.2579849723118 369.8112282227031 L 295.4839740791998 363.0177056826593 L 288.38151899533614 356.2580749473249 L 280.97751060671067 349.5644932247007 L 273.30070743279515 342.9681961027501 L 265.3816071595744 336.49934041684753 L 257.2523081194292 330.18685429183415 L 248.94636140408352 324.05829513888006 L 240.4986143492524 318.13971634111647 L 231.9450461782133 312.455543311887 L 223.322596635975 307.0284595557249 L 214.6689884858149 301.8793033051144 L 206.0225447754624 297.0269752460497 L 197.4220018109307 292.4883577826879 L 188.90631880175556 288.2782462263531 L 180.51448516207188 284.40929222715994 L 172.2853264673915 280.89195969792763 L 164.25731007707742 277.7344934102517 L 156.4683514372676 274.94290037196333 L 148.9556220783458 272.5209440241192 L 141.7553603150045 270.4701512245279 L 134.9026856454944 268.7898319140135 L 128.43141782988118 267.47711129152987 L 122.37390160511177 266.5269742552642 L 116.76083796753187 265.9323217993673 L 106.98169455448567 265.77107408333416 L 99.30080788975448 266.89775556035306 L 97.72933460479439 267.36675618937215 L 96.30219252479347 267.9064720001476 L 93.88931459744927 269.18887386977275 L 92.90738031902066 269.9267585086313 L 92.07737491118377 270.7257638416153 L 91.40078245801874 271.58329436389363 L 90.87891614818142 272.4966845271542 L 90.51291625654355 273.46320325762713 L 90.30374833801858 274.48005855678014 L 90.2522016361784 275.5444021779072 L 90.35888770898731 276.6533343717387 L 90.62423927369997 277.80390869410394 L 91.04850927268475 278.9931368686056 L 92.3739134214475 281.4754220114348 L 94.33350674560683 284.0756345064126 L 96.92279720375402 286.7688676186084 L 103.95808008424413 292.33397799561203 L 113.38657628461047 297.9705889475865 L 118.95699339375028 300.75428500127157 L 125.07082117931064 303.4831657523257 L 131.70434106081774 306.1343236379175 L 138.83140526923512 308.6857439257992 L 146.4235549352942 311.1164424384564 L 154.4501498262697 313.4065965119746 L 162.87850908713332 315.53766843840543 L 171.67406228434868 317.492520684088 L 180.8005099965585 319.2555222239884 L 190.21999314635607 320.8126453833851 L 199.8932702214677 322.1515526328694 L 209.77990149228123 323.26167284034767 L 214.79030661674312 323.7281336184937 L 219.83843929594053 324.13426654419874 L 224.91899314138013 324.47927423057297 L 230.02662342536092 324.762479874622 L 235.15595339631403 324.98332830050794 L 240.3015806347349 325.14138681516624 L 245.4580834416407 325.23634587505495 L 250.62002725147403 325.2680195630857 L 255.7819710613074 325.23634587505495 L 260.9384738682132 325.14138681516624 L 266.084101106634 324.98332830050794 L 271.21343107758713 324.762479874622 L 276.32106136156796 324.47927423057297 L 281.4016152070076 324.13426654419874 L 286.449747886205 323.7281336184937 L 291.46015301066683 323.2616728403477 L 301.34678428148067 322.1515526328694 L 311.0200613565917 320.81264538338513 L 320.4395445063893 319.25552222398846 L 329.5659922185997 317.492520684088 L 338.36154541581476 315.53766843840543 L 346.7899046766784 313.4065965119746 L 354.8164995676539 311.11644243845643 L 362.408649233713 308.6857439257993 L 369.53571344213043 306.13432363791753 L 376.1692333236373 303.48316575232576 L 382.28306110919806 300.75428500127157 L 387.8534782183377 297.9705889475866 L 397.28197441870395 292.3339779956121 L 404.31725729919424 286.76886761860845 L 406.9065477573414 284.07563450641265 L 408.86614108150076 281.47542201143483 L 410.1915452302635 278.99313686860563 L 410.61581522924837 277.803908694104 L 410.881166793961 276.65333437173877 L 410.9878528667699 275.5444021779072 L 410.9363061649297 274.48005855678014 L 410.7271382464047 273.4632032576272 L 410.3611383547669 272.49668452715423 L 409.83927204492954 271.58329436389363 L 409.1626795917646 270.7257638416153 L 408.3326741839276 269.9267585086313 L 407.3507399054991 269.1888738697728 L 404.9378619781549 267.9064720001476 L 401.9392466131938 266.8977555603531 L 398.3726652410701 266.18052827889574 L 394.2583599484627 265.77107408333416 L 384.4792165354165 265.9323217993673 L 378.8661528978366 266.5269742552642 L 372.8086366730674 267.47711129152975 L 366.3373688574539 268.7898319140136 L 359.4846941879439 270.4701512245279 L 352.28443242460287 272.52094402411905 L 344.7717030656811 274.9429003719632 L 336.9827444258708 277.73449341025173 L 328.9547280355569 280.8919596979275 L 320.7255693408766 284.4092922271598 L 312.3337357011929 288.27824622635296 L 303.8180526920178 292.4883577826878 L 295.21750972748606 297.02697524604963 L 286.5710660171338 301.8793033051141 L 277.9174578669732 307.02845955572496 L 269.2950083247352 312.45554331188697 L 260.7414401536963 318.1397163411162 L 252.2936930988652 324.05829513887977 L 243.98774638351898 330.1868542918342 L 235.85844734337402 336.49934041684736 L 227.93934707015327 342.96819610274997 L 220.26254389623776 349.5644932247005 L 212.85853550761226 356.25807494732476 L 205.75608042374864 363.0177056826592 L 198.9820695306368 369.81122822270277 L 192.56140829718106 376.60572722429754 L 186.51691024593208 383.367698186362 L 180.86920218693695 390.0632210264115 L 175.63664165872834 396.65813733497373 L 170.83524695344974 403.11823036315565 L 166.478640034237 409.409406780323 L 162.5780025825847 415.49787922576894 L 159.14204534193655 421.35034867040895 L 156.1769908515019 426.93418560204367 L 153.68656959174308 432.21760905055885 L 150.13215866643958 441.7613855687419 L 148.45950577910727 449.75097515307107 L 148.312386550199 453.0973722073432 L 148.61139633771666 455.98000022072216 L 148.9243050868733 457.240692419487 L 149.3438112061619 458.37764891199527 L 149.86800291523178 459.3885459887481 L 150.49484617777316 460.27119805056657 L 151.22218825541438 461.02356106186926 L 152.04776141019153 461.64373583151996 L 152.96918675009812 462.129971116486 L 153.98397821204009 462.4806665437875 L 155.08954667633935 462.6943753464426 L 156.28320420676295 462.76980690936307 L 158.92356690747033 462.50147052994964 L 161.8817549220549 461.66853993902936 L 165.1331659687536 460.266525821778 L 172.41172248496378 455.75069310556466 L 180.5425708382564 448.9720301606807 L 189.2986920914564 439.99216848271317 L 193.83878488329063 434.7078543097183 L 198.44811952267034 428.9157987658407 L 203.0978182817261 422.63558601886683 L 207.7593685623177 415.88926848883074 L 212.40478539555272 408.7012762063424 L 217.00676965620508 401.09831364359604 L 221.53886111885492 393.1092445067383 L 225.97558551398828 384.76496504283773 L 230.2925947783173 376.09826647641063 L 234.46679973398284 367.14368724902624 L 238.4764944758711 357.937355790589 L 242.3014717947498 348.5168246022093 L 245.9231290160366 338.9208964778475 L 249.32456368949357 329.1894437348203 L 252.49065862361752 319.36322136172527 L 255.40815581973658 309.483675025928 L 258.0657189243913 299.5927449115273 L 260.45398388420017 289.7326663823003 L 262.56559755467055 279.94576848254644 L 264.39524408296523 270.27427130181684 L 265.9396589540945 260.7600832371778 L 267.19763065997194 251.4445991889033 L 268.1699900208923 242.36850072221935 L 268.85958725883484 233.5715592190821 L 269.271256991226 225.0924430298212 L 269.41177138198157 216.96852961511348 L 269.2897817534573 209.23572364402563 L 268.91574902796725 201.9282819841432 L 268.30186343044187 195.07864648504415 L 267.4619539442418 188.71728541689592 L 266.411388069776 182.87254438189348 L 265.16696249009476 177.57050746785853 L 262.17015049239507 168.68681907751255 L 260.45740547477186 165.14493591757406 L 258.62981235647806 162.22509817507404 L 256.70940387157276 159.9404050796887 L 255.72145331864664 159.03955524389147 L 254.71883476079583 158.30111237233797 L 253.7044522440207 157.7259058587494 L 252.68122949734837 157.31458184825212 L 251.65210503744112 157.06760244205248 L 250.62002725147417 156.98524512861115 L 249.58794946550722 157.06760244205248 L 248.5588250056 157.3145818482521 L 247.53560225892764 157.72590585874937 L 246.5212197421525 158.30111237233794 L 244.53065063137558 159.94040507968876 L 243.56024757988487 161.0026502582086 L 242.6102421464703 162.22509817507395 L 239.06990401055327 168.68681907751244 L 237.49326920422476 172.83486936087047 L 236.0730920128536 177.5705074678587 L 234.8286664331723 182.87254438189333 L 233.77810055870646 188.71728541689575 L 232.93819107250638 195.07864648504355 L 232.32430547498106 201.92828198414298 L 231.95027274949098 209.23572364402537 L 231.82828312096677 216.96852961511365 L 231.96879751172227 225.09244302982097 L 232.38046724411345 233.57155921908182 L 233.07006448205595 242.36850072221907 L 234.0424238429763 251.44459918890306 L 235.30039554885388 260.76008323717804 L 236.84481041998296 270.27427130181655 L 238.67445694827768 279.94576848254616 L 240.78607061874789 289.73266638229944 L 243.1743355785569 299.592744911527 L 245.83189868321162 309.4836750259277 L 248.74939587933085 319.3632213617255 L 251.91549081345462 329.18944373482003 L 255.31692548691157 338.92089647784724 L 258.93858270819834 348.516824602209 L 262.76356002707706 357.9373557905887 L 266.77325476896556 367.14368724902647 L 270.94745972463085 376.09826647641034 L 275.2644689889599 384.76496504283745 L 279.701193384093 393.1092445067376 L 284.23328484674306 401.0983136435958 L 288.83526910739545 408.7012762063422 L 293.4806859406307 415.88926848883096 L 298.14223622122205 422.63558601886666 L 302.7919349802778 428.9157987658405 L 307.4012696196575 434.70785430971813 L 311.94136241149175 439.992168482713 L 320.69748366469173 448.97203016068056 L 328.8283320179843 455.75069310556444 L 336.1068885341946 460.2665258217779 L 339.35829958089334 461.6685399390294 L 342.31648759547784 462.5014705299496 L 344.9568502961852 462.76980690936307 L 346.1505078266089 462.6943753464427 L 347.25607629090814 462.4806665437875 L 348.2708677528501 462.12997111648605 L 349.1922930927567 461.64373583151996 L 350.01786624753385 461.0235610618694 L 350.74520832517504 460.27119805056657 L 351.3720515877165 459.3885459887482 L 351.89624329678634 458.3776489119953 L 352.315749416075 457.240692419487 L 352.6286581652316 455.9800002207222 L 352.9276679527494 453.0973722073434 L 352.780548723841 449.7509751530711 L 351.10789583650853 441.76138556874184 L 347.55348491120526 432.21760905055896 L 345.06306365144667 426.93418560204407 L 342.0980091610118 421.35034867040906 L 338.66205192036364 415.4978792257691 L 334.7614144687114 409.4094067803232 L 330.4048075494984 403.1182303631555 L 325.60341284422043 396.65813733497424 L 320.3708523160115 390.06322102641167 L 314.7231442570164 383.36769818636225 L 308.67864620576705 376.6057272242974 L 302.2579849723121 369.8112282227034 L 295.48397407919987 363.0177056826594 L 288.38151899533665 356.2580749473253 L 280.9775106067107 349.56449322470075 L 273.3007074327952 342.96819610275014 L 265.3816071595745 336.4993404168476 L 257.2523081194291 330.18685429183404 L 248.94636140408383 324.0582951388803 L 240.49861434925225 318.13971634111635 L 231.94504617821337 312.4555433118871 L 223.32259663597483 307.0284595557248 L 214.66898848581525 301.87930330511455 L 206.0225447754625 297.02697524604974 L 197.42200181093128 292.48835778268824 L 188.90631880175562 288.2782462263531 L 180.514485162072 284.40929222715994 L 172.2853264673916 280.89195969792763 L 164.25731007707725 277.7344934102516 L 156.46835143726787 274.9429003719635 L 148.95562207834567 272.5209440241192 L 141.75536031500462 270.47015122452797 L 134.90268564549427 268.78983191401346 L 128.43141782988147 267.4771112915299 L 122.37390160511183 266.5269742552642 L 116.76083796753221 265.93232179936734 L 106.98169455448573 265.7710740833341 L 99.30080788975442 266.8977555603531 L 97.72933460479445 267.36675618937215 L 96.30219252479355 267.9064720001476 L 93.88931459744921 269.1888738697728 L 92.90738031902069 269.9267585086312 L 92.0773749111838 270.7257638416153 L 91.40078245801868 271.5832943638937 L 90.87891614818142 272.4966845271542 L 90.51291625654355 273.46320325762713 L 90.30374833801861 274.48005855678 L 90.2522016361784 275.5444021779073 L 90.35888770898731 276.6533343717387 L 90.62423927369997 277.80390869410394 L 91.04850927268467 278.99313686860546 L 92.37391342144747 281.4754220114347 L 94.33350674560694 284.0756345064127 L 96.92279720375396 286.7688676186084 L 103.95808008424396 292.333977995612 L 113.38657628461044 297.9705889475865 L 118.9569933937504 300.75428500127157 L 125.0708211793104 303.48316575232553 L 131.70434106081768 306.1343236379175 L 138.8314052692346 308.6857439257991 L 146.42355493529413 311.1164424384564 L 154.4501498262701 313.40659651197467 L 162.87850908713324 315.5376684384054 L 171.67406228434885 317.492520684088 L 180.8005099965581 319.25552222398835 L 190.21999314635625 320.81264538338513 L 199.8932702214673 322.15155263286937 L 209.77990149228143 323.26167284034767 L 214.790306616743 323.7281336184937 L 219.83843929594013 324.1342665441987 L 224.91899314138033 324.47927423057297 L 230.0266234253608 324.76247987462193 L 235.15595339631423 324.98332830050794 L 240.3015806347342 325.1413868151662 L 245.45808344164087 325.23634587505495 L 250.62002725147394 325.2680195630857" stroke-opacity="0.8" stroke-linecap="round" stroke-linejoin="round" stroke-miterlimit="10" stroke-width="2.5"/><text fill="rgb(46,125,50)" stroke="none" font-family="geogebra-sans-serif, sans-serif" font-size="32px" font-style="normal" font-weight="normal" text-decoration="normal" x="271" y="260" text-anchor="start" dominant-baseline="alphabetic" fill-opacity="1">r=sin(5θ)</text><text fill="none" stroke="rgb(255,255,255)" font-family="geogebra-sans-serif, sans-serif" font-size="32px" font-style="normal" font-weight="normal" text-decoration="normal" x="271" y="260" text-anchor="start" dominant-baseline="alphabetic" stroke-opacity="1" stroke-linejoin="bevel" stroke-miterlimit="10" stroke-width="3">r=sin(5θ)</text><text fill="rgb(46,125,50)" stroke="none" font-family="geogebra-sans-serif, sans-serif" font-size="32px" font-style="normal" font-weight="normal" text-decoration="normal" x="271" y="260" text-anchor="start" dominant-baseline="alphabetic" fill-opacity="1">r=sin(5θ)</text></g></g></svg>