<svg version="1.1" xmlns="http://www.w3.org/2000/svg" xmlns:xlink="http://www.w3.org/1999/xlink" width="487" height="487"><defs><clipPath id="iWGrreVqcWlv"><path fill="none" stroke="none" d=" M 0 0 L 487 0 L 487 487 L 0 487 L 0 0 Z"/></clipPath></defs><g transform="scale(1,1)" clip-path="url(#iWGrreVqcWlv)"><g transform="translate(-66.8166185617653,-100.25777090669277)"><path fill="rgb(21,101,192)" stroke="none" paint-order="stroke fill markers" d=" M 359.15885181256834 147.7436622346343 C 345.9551960300876 144.39849869817417 332.44642612820866 142.4005134602984 318.83973499664046 141.780350934824 L 309.6638098470132 343.10496219194073 Z" fill-opacity="0.4470588235294118"/><path fill="none" stroke="rgb(21,101,192)" paint-order="fill stroke markers" d=" M 359.15885181256834 147.7436622346343 C 345.9551960300876 144.39849869817417 332.44642612820866 142.4005134602984 318.83973499664046 141.780350934824 L 309.6638098470132 343.10496219194073 Z" stroke-opacity="0.8" stroke-linecap="round" stroke-linejoin="round" stroke-miterlimit="10" stroke-width="2.5"/><text fill="rgb(21,101,192)" stroke="none" font-family="geogebra-sans-serif, sans-serif" font-size="32px" font-style="normal" font-weight="normal" text-decoration="normal" x="336" y="132" text-anchor="start" dominant-baseline="alphabetic" fill-opacity="1">Δθ</text><text fill="none" stroke="rgb(255,255,255)" font-family="geogebra-sans-serif, sans-serif" font-size="32px" font-style="normal" font-weight="normal" text-decoration="normal" x="336" y="132" text-anchor="start" dominant-baseline="alphabetic" stroke-opacity="1" stroke-linejoin="bevel" stroke-miterlimit="10" stroke-width="3">Δθ</text><text fill="rgb(21,101,192)" stroke="none" font-family="geogebra-sans-serif, sans-serif" font-size="32px" font-style="normal" font-weight="normal" text-decoration="normal" x="336" y="132" text-anchor="start" dominant-baseline="alphabetic" fill-opacity="1">Δθ</text><path fill="none" stroke="rgb(32,32,32)" paint-order="fill stroke markers" d=" M 107.29115044263995 343.10496219194073 L 108.50822303943607 352.9871024853255 L 109.19106541013039 355.4212764021647 L 110.02393146747468 357.83128432981835 L 112.13543966265937 362.5598085742512 L 118.10131071482317 371.52057467602793 L 121.92627232414304 375.680515137907 L 126.28838876928575 379.5806013177532 L 131.1662108804421 383.1879384349617 L 136.5357827764717 386.4712754167587 L 142.37077019156925 389.4011812996804 L 148.64260151805706 391.9502117289765 L 155.3206208019828 394.09306464943955 L 162.37225186353274 395.80672433976 L 169.76317265408588 397.07059300570563 L 177.45749890636563 397.86660921487146 L 185.41797608388225 398.1793525270889 L 193.6061785909895 397.9961337494234 L 201.98271516563017 397.3070703226317 L 210.50743934343885 396.10514642656386 L 219.13966385448748 394.3862574748467 L 227.83837779274103 392.14923875382897 L 236.5624653833636 389.39587804673766 L 245.27092516444816 386.1309121708315 L 253.92308839759085 382.36200744256854 L 262.47883552599967 378.0997241729524 L 270.8988095095026 373.3574653818217 L 279.14462488282476 368.1514100054271 L 287.17907140677664 362.50043095573 L 294.9663112113748 356.42599847201444 L 302.4720683652746 349.9520692851681 L 309.66380984701317 343.1049621919408 L 316.5109169402405 335.91322071020215 L 322.9848461270869 328.40746355630233 L 329.0592786108024 320.6202237517042 L 334.71025766049945 312.58577722775254 L 339.91631303689405 304.3399618544304 L 344.6585718280249 295.9199878709271 L 348.92085509764104 287.3642407425183 L 352.68975982590393 278.7120775093758 L 355.9547257018101 270.0036177282912 L 358.70808640890147 261.2795301376686 L 360.94510512991917 252.58081619941504 L 362.6639940816363 243.94859168836643 L 363.8659179777042 235.42386751055776 L 364.5549814044959 227.04733093591722 L 364.7382001821614 218.8591284288097 L 364.42545686994396 210.89865125129336 L 363.6294406607781 203.20432499901332 L 362.3655719948325 195.81340420846016 L 360.65191230451205 188.76177314691037 L 358.509059384049 182.08375386298465 L 355.9600289547529 175.8119225364968 L 353.03012307183127 169.9769351213992 L 349.7467860900343 164.60736322536965 L 346.1394489728257 159.7295411142133 L 338.0794223311004 151.54246305975065 L 333.693980732248 148.27348382870517 L 329.1186562293237 145.5765920075868 L 319.5459501403981 141.94937538436355 L 317.0924026587887 141.41739954624893 L 314.62430119319055 141.03694696212582 L 309.6638098470133 140.73230278756742 L 304.70331850083596 141.03694696212582 L 299.78166955362843 141.94937538436355 L 294.9374877091357 143.4650838124021 L 290.2089634647029 145.57659200758678 L 281.24819736292613 151.54246305975056 L 277.0882569010469 155.36742466907057 L 273.1881707212008 159.72954111421322 L 269.58083360399223 164.60736322536957 L 266.29749662219524 169.97693512139915 L 263.3675907392736 175.8119225364967 L 260.81856030997744 182.08375386298454 L 258.6757073895144 188.7617731469103 L 256.962047699194 195.81340420846007 L 255.69817903324838 203.20432499901318 L 254.90216282408252 210.89865125129324 L 254.58941951186506 218.85912842880958 L 254.77263828953056 227.04733093591707 L 255.46170171632224 235.42386751055764 L 256.6636256123901 243.94859168836632 L 258.3825145641073 252.58081619941493 L 260.61953328512493 261.2795301376685 L 263.3728939922163 270.00361772829103 L 266.63785986812246 278.7120775093756 L 270.40676459638547 287.36424074251846 L 274.6690478660015 295.919987870927 L 279.41130665713234 304.33996185443027 L 284.6173620335267 312.5857772277521 L 290.26834108322396 320.6202237517041 L 296.3427735669395 328.4074635563022 L 302.8167027537858 335.9132207102021 L 309.66380984701317 343.1049621919407 L 316.85555132875174 349.952069285168 L 324.36130848265157 356.4259984720143 L 332.1485482872497 362.5004309557299 L 340.1829948112017 368.1514100054271 L 348.42881018452357 373.35746538182156 L 356.8487841680268 378.0997241729524 L 365.4045312964354 382.3620074425684 L 374.0566945295782 386.13091217083144 L 382.76515431066275 389.3958780467376 L 391.4892419012853 392.14923875382897 L 400.18795583953886 394.3862574748466 L 408.82018035058746 396.1051464265638 L 417.34490452839617 397.3070703226317 L 425.7214411030367 397.9961337494234 L 433.90964361014426 398.1793525270889 L 441.87012078766054 397.86660921487146 L 449.5644470399406 397.0705930057056 L 456.9553678304935 395.8067243397601 L 464.0069988920435 394.0930646494396 L 470.6850181759693 391.95021172897657 L 476.9568495024571 389.4011812996804 L 482.7918369175547 386.4712754167588 L 488.1614088135843 383.1879384349618 L 493.03923092474065 379.58060131775323 L 501.2263089792033 371.52057467602793 L 504.49528821024876 367.1351330771755 L 507.1921800313671 362.5598085742512 L 510.8193966545904 352.98710248532564 L 511.35137249270497 350.53355500371623 L 511.7318250768281 348.06545353811805 L 512.0364692513865 343.1049621919408 L 511.7318250768281 338.14447084576346 L 510.8193966545904 333.22282189855594 L 509.3036882265518 328.37864005406306 L 507.1921800313671 323.6501158096304 L 501.2263089792034 314.68934970785364 L 497.40134736988335 310.5294092459744 L 493.0392309247407 306.62932306612834 L 488.1614088135844 303.02198594891973 L 482.79183691755486 299.73864896712274 L 476.9568495024572 296.8087430842011 L 470.6850181759694 294.25971265490494 L 464.00699889204367 292.1168597344419 L 456.9553678304936 290.4032000441214 L 449.5644470399408 289.1393313781759 L 441.8701207876607 288.34331516901 L 433.90964361014437 288.03057185679256 L 425.7214411030369 288.21379063445806 L 417.34490452839634 288.9028540612497 L 408.82018035058763 290.1047779573176 L 400.18795583953903 291.8236669090348 L 391.4892419012855 294.06068563005243 L 382.7651543106629 296.8140463371438 L 374.0566945295783 300.07901221304996 L 365.4045312964355 303.847916941313 L 356.84878416802695 308.110200210929 L 348.42881018452374 312.8524590020598 L 340.18299481120187 318.0585143784542 L 332.14854828724987 323.70949342815146 L 324.36130848265174 329.78392591186696 L 316.8555513287519 336.2578550987133 L 309.6638098470133 343.1049621919407 L 302.816702753786 350.29670367367925 L 296.3427735669396 357.80246082757907 L 290.2683410832241 365.5897006321772 L 284.617362033527 373.6241471561289 L 279.4113066571324 381.8699625294511 L 274.6690478660016 390.2899365129542 L 270.4067645963854 398.84568364136317 L 266.6378598681225 407.4978468745056 L 263.37289399221635 416.2063066555902 L 260.61953328512504 424.9303942462128 L 258.38251456410734 433.62910818446636 L 256.66362561239015 442.26133269551497 L 255.46170171632224 450.7860568733237 L 254.77263828953056 459.16259344796424 L 254.58941951186506 467.3507959550714 L 254.9021628240825 475.31127313258804 L 255.69817903324835 483.0055993848681 L 256.96204769919393 490.39652017542124 L 258.67570738951434 497.44815123697106 L 260.8185603099774 504.1261705208968 L 263.36759073927357 510.39800184738465 L 266.2974966221952 516.2329892624822 L 269.5808336039922 521.6025611585118 L 273.1881707212007 526.4803832696682 L 281.24819736292585 534.6674613241307 L 285.6336389617786 537.9364405551764 L 290.2089634647028 540.6333323762947 L 299.7816695536283 544.2605489995178 L 302.2352170352377 544.7925248376325 L 304.70331850083585 545.1729774217556 L 309.66380984701317 545.4776215963141 L 314.6243011931905 545.1729774217556 L 319.545950140398 544.2605489995179 L 324.3901319848907 542.7448405714794 L 329.11865622932356 540.6333323762947 L 338.0794223311003 534.667461324131 L 342.23936279297953 530.8424997148109 L 346.1394489728258 526.4803832696681 L 349.7467860900342 521.6025611585119 L 353.0301230718311 516.2329892624825 L 355.96002895475283 510.39800184738476 L 358.50905938404907 504.1261705208967 L 360.65191230451205 497.44815123697117 L 362.3655719948324 490.3965201754217 L 363.6294406607781 483.0055993848683 L 364.42545686994396 475.3112731325882 L 364.7382001821614 467.35079595507193 L 364.5549814044959 459.16259344796447 L 363.8659179777042 450.78605687332356 L 362.66399408163636 442.2613326955152 L 360.9451051299192 433.6291081844669 L 358.7080864089015 424.93039424621304 L 355.95472570181005 416.20630665559014 L 352.68975982590405 407.49784687450585 L 348.92085509764127 398.8456836413637 L 344.65857182802495 390.28993651295445 L 339.91631303689417 381.86996252945124 L 334.7102576604998 373.6241471561294 L 329.05927861080255 365.58970063217737 L 322.98484612708677 357.802460827579 L 316.51091694024063 350.2967036736794 L 309.66380984701357 343.10496219194107 L 302.4720683652747 336.2578550987135 L 294.9663112113746 329.7839259118669 L 287.17907140677676 323.7094934281516 L 279.1446248828254 318.05851437845473 L 270.89880950950294 312.85245900205996 L 262.4788355259997 308.1102002109291 L 253.92308839759116 303.8479169413131 L 245.27092516444833 300.07901221305 L 236.56246538336345 296.81404633714374 L 227.8383777927412 294.0606856300525 L 219.13966385448794 291.8236669090349 L 210.507439343439 290.10477795731765 L 201.98271516563005 288.9028540612497 L 193.60617859098977 288.21379063445806 L 185.41797608388282 288.03057185679256 L 177.45749890636594 288.34331516901 L 169.76317265408588 289.1393313781758 L 162.372251863533 290.4032000441214 L 155.32062080198295 292.11685973444185 L 148.642601518057 294.259712654905 L 142.3707701915694 296.80874308420107 L 136.535782776472 299.7386489671226 L 131.1662108804422 303.0219859489196 L 126.28838876928569 306.62932306612834 L 118.10131071482346 314.6893497078532 L 114.83233148377752 319.07479130670623 L 112.13543966265937 323.6501158096303 L 108.5082230394361 333.2228218985558 L 107.97624720132146 335.6763693801652 L 107.59579461719835 338.1444708457635 L 107.29115044263995 343.1049621919407" stroke-opacity="0.8" stroke-linecap="round" stroke-linejoin="round" stroke-miterlimit="10" stroke-width="2.5"/><text fill="rgb(32,32,32)" stroke="none" font-family="geogebra-sans-serif, sans-serif" font-size="32px" font-style="normal" font-weight="normal" text-decoration="normal" x="80" y="428" text-anchor="start" dominant-baseline="alphabetic" fill-opacity="1">f(θ)=cos(2θ)</text><text fill="none" stroke="rgb(255,255,255)" font-family="geogebra-sans-serif, sans-serif" font-size="32px" font-style="normal" font-weight="normal" text-decoration="normal" x="80" y="428" text-anchor="start" dominant-baseline="alphabetic" stroke-opacity="1" stroke-linejoin="bevel" stroke-miterlimit="10" stroke-width="3">f(θ)=cos(2θ)</text><text fill="rgb(32,32,32)" stroke="none" font-family="geogebra-sans-serif, sans-serif" font-size="32px" font-style="normal" font-weight="normal" text-decoration="normal" x="80" y="428" text-anchor="start" dominant-baseline="alphabetic" fill-opacity="1">f(θ)=cos(2θ)</text><path fill="none" stroke="rgb(21,101,192)" paint-order="fill stroke markers" d=" M 309.6638098470132 343.10496219194073 L 318.83973499664046 141.78035093482404" stroke-opacity="0.8" stroke-linecap="round" stroke-linejoin="round" stroke-miterlimit="10" stroke-width="2.5"/><text fill="rgb(21,101,192)" stroke="none" font-family="geogebra-sans-serif, sans-serif" font-size="32px" font-style="normal" font-weight="normal" text-decoration="normal" x="341" y="255" text-anchor="start" dominant-baseline="alphabetic" fill-opacity="1">r=f(θ</text><text fill="none" stroke="rgb(255,255,255)" font-family="geogebra-sans-serif, sans-serif" font-size="32px" font-style="normal" font-weight="normal" text-decoration="normal" x="341" y="255" text-anchor="start" dominant-baseline="alphabetic" stroke-opacity="1" stroke-linejoin="bevel" stroke-miterlimit="10" stroke-width="3">r=f(θ</text><text fill="rgb(21,101,192)" stroke="none" font-family="geogebra-sans-serif, sans-serif" font-size="32px" font-style="normal" font-weight="normal" text-decoration="normal" x="341" y="255" text-anchor="start" dominant-baseline="alphabetic" fill-opacity="1">r=f(θ</text><text fill="rgb(21,101,192)" stroke="none" font-family="geogebra-sans-serif, sans-serif" font-size="28px" font-style="normal" font-weight="normal" text-decoration="normal" x="409" y="269" text-anchor="start" dominant-baseline="alphabetic" fill-opacity="1">i</text><text fill="none" stroke="rgb(255,255,255)" font-family="geogebra-sans-serif, sans-serif" font-size="28px" font-style="normal" font-weight="normal" text-decoration="normal" x="409" y="269" text-anchor="start" dominant-baseline="alphabetic" stroke-opacity="1" stroke-linejoin="bevel" stroke-miterlimit="10" stroke-width="3">i</text><text fill="rgb(21,101,192)" stroke="none" font-family="geogebra-sans-serif, sans-serif" font-size="28px" font-style="normal" font-weight="normal" text-decoration="normal" x="409" y="269" text-anchor="start" dominant-baseline="alphabetic" fill-opacity="1">i</text><text fill="rgb(21,101,192)" stroke="none" font-family="geogebra-sans-serif, sans-serif" font-size="32px" font-style="normal" font-weight="normal" text-decoration="normal" x="415" y="255" text-anchor="start" dominant-baseline="alphabetic" fill-opacity="1">)</text><text fill="none" stroke="rgb(255,255,255)" font-family="geogebra-sans-serif, sans-serif" font-size="32px" font-style="normal" font-weight="normal" text-decoration="normal" x="415" y="255" text-anchor="start" dominant-baseline="alphabetic" stroke-opacity="1" stroke-linejoin="bevel" stroke-miterlimit="10" stroke-width="3">)</text><text fill="rgb(21,101,192)" stroke="none" font-family="geogebra-sans-serif, sans-serif" font-size="32px" font-style="normal" font-weight="normal" text-decoration="normal" x="415" y="255" text-anchor="start" dominant-baseline="alphabetic" fill-opacity="1">)</text><path fill="rgb(21,101,192)" stroke="none" paint-order="stroke fill markers" d=" M 323.83973499664046 141.78035093482404 C 323.83973499664046 144.54177468397802 321.6011587457944 146.78035093482404 318.83973499664046 146.78035093482404 C 316.0783112474865 146.78035093482404 313.83973499664046 144.54177468397802 313.83973499664046 141.78035093482404 C 313.83973499664046 139.01892718567007 316.0783112474865 136.78035093482404 318.83973499664046 136.78035093482404 C 321.6011587457944 136.78035093482404 323.83973499664046 139.01892718567007 323.83973499664046 141.78035093482404 Z" fill-opacity="1"/><path fill="none" stroke="rgb(0,0,0)" paint-order="fill stroke markers" d=" M 323.83973499664046 141.78035093482404 C 323.83973499664046 144.54177468397802 321.6011587457944 146.78035093482404 318.83973499664046 146.78035093482404 C 316.0783112474865 146.78035093482404 313.83973499664046 144.54177468397802 313.83973499664046 141.78035093482404 C 313.83973499664046 139.01892718567007 316.0783112474865 136.78035093482404 318.83973499664046 136.78035093482404 C 321.6011587457944 136.78035093482404 323.83973499664046 139.01892718567007 323.83973499664046 141.78035093482404 Z" stroke-opacity="1" stroke-linecap="round" stroke-linejoin="round" stroke-miterlimit="10"/><text fill="rgb(21,101,192)" stroke="none" font-family="geogebra-sans-serif, sans-serif" font-size="32px" font-style="normal" font-weight="normal" text-decoration="normal" x="276" y="141" text-anchor="start" dominant-baseline="alphabetic" fill-opacity="1">B</text><text fill="none" stroke="rgb(255,255,255)" font-family="geogebra-sans-serif, sans-serif" font-size="32px" font-style="normal" font-weight="normal" text-decoration="normal" x="276" y="141" text-anchor="start" dominant-baseline="alphabetic" stroke-opacity="1" stroke-linejoin="bevel" stroke-miterlimit="10" stroke-width="3">B</text><text fill="rgb(21,101,192)" stroke="none" font-family="geogebra-sans-serif, sans-serif" font-size="32px" font-style="normal" font-weight="normal" text-decoration="normal" x="276" y="141" text-anchor="start" dominant-baseline="alphabetic" fill-opacity="1">B</text><path fill="rgb(21,101,192)" stroke="none" paint-order="stroke fill markers" d=" M 358.36942825565944 170.59502809201237 C 358.36942825565944 173.35645184116635 356.1308520048134 175.59502809201237 353.36942825565944 175.59502809201237 C 350.6080045065055 175.59502809201237 348.36942825565944 173.35645184116635 348.36942825565944 170.59502809201237 C 348.36942825565944 167.8336043428584 350.6080045065055 165.59502809201237 353.36942825565944 165.59502809201237 C 356.1308520048134 165.59502809201237 358.36942825565944 167.8336043428584 358.36942825565944 170.59502809201237 Z" fill-opacity="1"/><path fill="none" stroke="rgb(0,0,0)" paint-order="fill stroke markers" d=" M 358.36942825565944 170.59502809201237 C 358.36942825565944 173.35645184116635 356.1308520048134 175.59502809201237 353.36942825565944 175.59502809201237 C 350.6080045065055 175.59502809201237 348.36942825565944 173.35645184116635 348.36942825565944 170.59502809201237 C 348.36942825565944 167.8336043428584 350.6080045065055 165.59502809201237 353.36942825565944 165.59502809201237 C 356.1308520048134 165.59502809201237 358.36942825565944 167.8336043428584 358.36942825565944 170.59502809201237 Z" stroke-opacity="1" stroke-linecap="round" stroke-linejoin="round" stroke-miterlimit="10"/><text fill="rgb(21,101,192)" stroke="none" font-family="geogebra-sans-serif, sans-serif" font-size="32px" font-style="normal" font-weight="normal" text-decoration="normal" x="380" y="190" text-anchor="start" dominant-baseline="alphabetic" fill-opacity="1">A</text><text fill="none" stroke="rgb(255,255,255)" font-family="geogebra-sans-serif, sans-serif" font-size="32px" font-style="normal" font-weight="normal" text-decoration="normal" x="380" y="190" text-anchor="start" dominant-baseline="alphabetic" stroke-opacity="1" stroke-linejoin="bevel" stroke-miterlimit="10" stroke-width="3">A</text><text fill="rgb(21,101,192)" stroke="none" font-family="geogebra-sans-serif, sans-serif" font-size="32px" font-style="normal" font-weight="normal" text-decoration="normal" x="380" y="190" text-anchor="start" dominant-baseline="alphabetic" fill-opacity="1">A</text></g></g></svg>