<svg version="1.1" xmlns="http://www.w3.org/2000/svg" xmlns:xlink="http://www.w3.org/1999/xlink" width="463" height="463"><defs><clipPath id="vVpmrIaqreZA"><path fill="none" stroke="none" d=" M 0 0 L 463 0 L 463 463 L 0 463 L 0 0 Z"/></clipPath></defs><g transform="scale(1,1)" clip-path="url(#vVpmrIaqreZA)"><g transform="translate(-126.78957412722633,-86.02985427594524)"><path fill="none" stroke="rgb(0,0,0)" paint-order="fill stroke markers" d=" M 357.5 2.5 L 357.5 653.5" stroke-opacity="1" stroke-miterlimit="10"/><path fill="none" stroke="rgb(0,0,0)" paint-order="fill stroke markers" d=" M 357.5 1.5 L 349.5 9.5" stroke-opacity="1" stroke-miterlimit="10"/><path fill="none" stroke="rgb(0,0,0)" paint-order="fill stroke markers" d=" M 357.5 1.5 L 365.5 9.5" stroke-opacity="1" stroke-miterlimit="10"/><path fill="none" stroke="rgb(0,0,0)" paint-order="fill stroke markers" d=" M 0.5 316.5 L 634.5 316.5" stroke-opacity="1" stroke-miterlimit="10"/><path fill="none" stroke="rgb(0,0,0)" paint-order="fill stroke markers" d=" M 635.5 316.5 L 627.5 308.5" stroke-opacity="1" stroke-miterlimit="10"/><path fill="none" stroke="rgb(0,0,0)" paint-order="fill stroke markers" d=" M 635.5 316.5 L 627.5 324.5" stroke-opacity="1" stroke-miterlimit="10"/><path fill="none" stroke="rgb(0,0,0)" paint-order="fill stroke markers" d=" M 11.5 316.5 L 11.5 319.5" stroke-opacity="1" stroke-miterlimit="10"/><path fill="none" stroke="rgb(0,0,0)" paint-order="fill stroke markers" d=" M 24.5 316.5 L 24.5 319.5" stroke-opacity="1" stroke-miterlimit="10"/><text fill="rgb(0,0,0)" stroke="none" font-family="geogebra-sans-serif, sans-serif" font-size="24px" font-style="normal" font-weight="normal" text-decoration="normal" x="20" y="344" text-anchor="start" dominant-baseline="alphabetic" fill-opacity="1">–25</text><text fill="none" stroke="rgb(255,255,255)" font-family="geogebra-sans-serif, sans-serif" font-size="24px" font-style="normal" font-weight="normal" text-decoration="normal" x="20" y="344" text-anchor="start" dominant-baseline="alphabetic" stroke-opacity="1" stroke-linejoin="bevel" stroke-miterlimit="10" stroke-width="3">–25</text><text fill="rgb(0,0,0)" stroke="none" font-family="geogebra-sans-serif, sans-serif" font-size="24px" font-style="normal" font-weight="normal" text-decoration="normal" x="20" y="344" text-anchor="start" dominant-baseline="alphabetic" fill-opacity="1">–25</text><path fill="none" stroke="rgb(0,0,0)" paint-order="fill stroke markers" d=" M 37.5 316.5 L 37.5 319.5" stroke-opacity="1" stroke-miterlimit="10"/><path fill="none" stroke="rgb(0,0,0)" paint-order="fill stroke markers" d=" M 49.5 316.5 L 49.5 319.5" stroke-opacity="1" stroke-miterlimit="10"/><path fill="none" stroke="rgb(0,0,0)" paint-order="fill stroke markers" d=" M 62.5 316.5 L 62.5 319.5" stroke-opacity="1" stroke-miterlimit="10"/><path fill="none" stroke="rgb(0,0,0)" paint-order="fill stroke markers" d=" M 75.5 316.5 L 75.5 319.5" stroke-opacity="1" stroke-miterlimit="10"/><path fill="none" stroke="rgb(0,0,0)" paint-order="fill stroke markers" d=" M 88.5 316.5 L 88.5 319.5" stroke-opacity="1" stroke-miterlimit="10"/><text fill="rgb(0,0,0)" stroke="none" font-family="geogebra-sans-serif, sans-serif" font-size="24px" font-style="normal" font-weight="normal" text-decoration="normal" x="84" y="344" text-anchor="start" dominant-baseline="alphabetic" fill-opacity="1">–20</text><text fill="none" stroke="rgb(255,255,255)" font-family="geogebra-sans-serif, sans-serif" font-size="24px" font-style="normal" font-weight="normal" text-decoration="normal" x="84" y="344" text-anchor="start" dominant-baseline="alphabetic" stroke-opacity="1" stroke-linejoin="bevel" stroke-miterlimit="10" stroke-width="3">–20</text><text fill="rgb(0,0,0)" stroke="none" font-family="geogebra-sans-serif, sans-serif" font-size="24px" font-style="normal" font-weight="normal" text-decoration="normal" x="84" y="344" text-anchor="start" dominant-baseline="alphabetic" fill-opacity="1">–20</text><path fill="none" stroke="rgb(0,0,0)" paint-order="fill stroke markers" d=" M 101.5 316.5 L 101.5 319.5" stroke-opacity="1" stroke-miterlimit="10"/><path fill="none" stroke="rgb(0,0,0)" paint-order="fill stroke markers" d=" M 113.5 316.5 L 113.5 319.5" stroke-opacity="1" stroke-miterlimit="10"/><path fill="none" stroke="rgb(0,0,0)" paint-order="fill stroke markers" d=" M 126.5 316.5 L 126.5 319.5" stroke-opacity="1" stroke-miterlimit="10"/><path fill="none" stroke="rgb(0,0,0)" paint-order="fill stroke markers" d=" M 139.5 316.5 L 139.5 319.5" stroke-opacity="1" stroke-miterlimit="10"/><path fill="none" stroke="rgb(0,0,0)" paint-order="fill stroke markers" d=" M 152.5 316.5 L 152.5 319.5" stroke-opacity="1" stroke-miterlimit="10"/><text fill="rgb(0,0,0)" stroke="none" font-family="geogebra-sans-serif, sans-serif" font-size="24px" font-style="normal" font-weight="normal" text-decoration="normal" x="148" y="344" text-anchor="start" dominant-baseline="alphabetic" fill-opacity="1">–15</text><text fill="none" stroke="rgb(255,255,255)" font-family="geogebra-sans-serif, sans-serif" font-size="24px" font-style="normal" font-weight="normal" text-decoration="normal" x="148" y="344" text-anchor="start" dominant-baseline="alphabetic" stroke-opacity="1" stroke-linejoin="bevel" stroke-miterlimit="10" stroke-width="3">–15</text><text fill="rgb(0,0,0)" stroke="none" font-family="geogebra-sans-serif, sans-serif" font-size="24px" font-style="normal" font-weight="normal" text-decoration="normal" x="148" y="344" text-anchor="start" dominant-baseline="alphabetic" fill-opacity="1">–15</text><path fill="none" stroke="rgb(0,0,0)" paint-order="fill stroke markers" d=" M 165.5 316.5 L 165.5 319.5" stroke-opacity="1" stroke-miterlimit="10"/><path fill="none" stroke="rgb(0,0,0)" paint-order="fill stroke markers" d=" M 178.5 316.5 L 178.5 319.5" stroke-opacity="1" stroke-miterlimit="10"/><path fill="none" stroke="rgb(0,0,0)" paint-order="fill stroke markers" d=" M 190.5 316.5 L 190.5 319.5" stroke-opacity="1" stroke-miterlimit="10"/><path fill="none" stroke="rgb(0,0,0)" paint-order="fill stroke markers" d=" M 203.5 316.5 L 203.5 319.5" stroke-opacity="1" stroke-miterlimit="10"/><path fill="none" stroke="rgb(0,0,0)" paint-order="fill stroke markers" d=" M 216.5 316.5 L 216.5 319.5" stroke-opacity="1" stroke-miterlimit="10"/><text fill="rgb(0,0,0)" stroke="none" font-family="geogebra-sans-serif, sans-serif" font-size="24px" font-style="normal" font-weight="normal" text-decoration="normal" x="212" y="344" text-anchor="start" dominant-baseline="alphabetic" fill-opacity="1">–10</text><text fill="none" stroke="rgb(255,255,255)" font-family="geogebra-sans-serif, sans-serif" font-size="24px" font-style="normal" font-weight="normal" text-decoration="normal" x="212" y="344" text-anchor="start" dominant-baseline="alphabetic" stroke-opacity="1" stroke-linejoin="bevel" stroke-miterlimit="10" stroke-width="3">–10</text><text fill="rgb(0,0,0)" stroke="none" font-family="geogebra-sans-serif, sans-serif" font-size="24px" font-style="normal" font-weight="normal" text-decoration="normal" x="212" y="344" text-anchor="start" dominant-baseline="alphabetic" fill-opacity="1">–10</text><path fill="none" stroke="rgb(0,0,0)" paint-order="fill stroke markers" d=" M 229.5 316.5 L 229.5 319.5" stroke-opacity="1" stroke-miterlimit="10"/><path fill="none" stroke="rgb(0,0,0)" paint-order="fill stroke markers" d=" M 242.5 316.5 L 242.5 319.5" stroke-opacity="1" stroke-miterlimit="10"/><path fill="none" stroke="rgb(0,0,0)" paint-order="fill stroke markers" d=" M 254.5 316.5 L 254.5 319.5" stroke-opacity="1" stroke-miterlimit="10"/><path fill="none" stroke="rgb(0,0,0)" paint-order="fill stroke markers" d=" M 267.5 316.5 L 267.5 319.5" stroke-opacity="1" stroke-miterlimit="10"/><path fill="none" stroke="rgb(0,0,0)" paint-order="fill stroke markers" d=" M 280.5 316.5 L 280.5 319.5" stroke-opacity="1" stroke-miterlimit="10"/><text fill="rgb(0,0,0)" stroke="none" font-family="geogebra-sans-serif, sans-serif" font-size="24px" font-style="normal" font-weight="normal" text-decoration="normal" x="282" y="344" text-anchor="start" dominant-baseline="alphabetic" fill-opacity="1">–5</text><text fill="none" stroke="rgb(255,255,255)" font-family="geogebra-sans-serif, sans-serif" font-size="24px" font-style="normal" font-weight="normal" text-decoration="normal" x="282" y="344" text-anchor="start" dominant-baseline="alphabetic" stroke-opacity="1" stroke-linejoin="bevel" stroke-miterlimit="10" stroke-width="3">–5</text><text fill="rgb(0,0,0)" stroke="none" font-family="geogebra-sans-serif, sans-serif" font-size="24px" font-style="normal" font-weight="normal" text-decoration="normal" x="282" y="344" text-anchor="start" dominant-baseline="alphabetic" fill-opacity="1">–5</text><path fill="none" stroke="rgb(0,0,0)" paint-order="fill stroke markers" d=" M 293.5 316.5 L 293.5 319.5" stroke-opacity="1" stroke-miterlimit="10"/><path fill="none" stroke="rgb(0,0,0)" paint-order="fill stroke markers" d=" M 306.5 316.5 L 306.5 319.5" stroke-opacity="1" stroke-miterlimit="10"/><path fill="none" stroke="rgb(0,0,0)" paint-order="fill stroke markers" d=" M 318.5 316.5 L 318.5 319.5" stroke-opacity="1" stroke-miterlimit="10"/><path fill="none" stroke="rgb(0,0,0)" paint-order="fill stroke markers" d=" M 331.5 316.5 L 331.5 319.5" stroke-opacity="1" stroke-miterlimit="10"/><path fill="none" stroke="rgb(0,0,0)" paint-order="fill stroke markers" d=" M 344.5 316.5 L 344.5 319.5" stroke-opacity="1" stroke-miterlimit="10"/><path fill="none" stroke="rgb(0,0,0)" paint-order="fill stroke markers" d=" M 357.5 316.5 L 357.5 319.5" stroke-opacity="1" stroke-miterlimit="10"/><path fill="none" stroke="rgb(0,0,0)" paint-order="fill stroke markers" d=" M 370.5 316.5 L 370.5 319.5" stroke-opacity="1" stroke-miterlimit="10"/><path fill="none" stroke="rgb(0,0,0)" paint-order="fill stroke markers" d=" M 383.5 316.5 L 383.5 319.5" stroke-opacity="1" stroke-miterlimit="10"/><path fill="none" stroke="rgb(0,0,0)" paint-order="fill stroke markers" d=" M 395.5 316.5 L 395.5 319.5" stroke-opacity="1" stroke-miterlimit="10"/><path fill="none" stroke="rgb(0,0,0)" paint-order="fill stroke markers" d=" M 408.5 316.5 L 408.5 319.5" stroke-opacity="1" stroke-miterlimit="10"/><text fill="rgb(0,0,0)" stroke="none" font-family="geogebra-sans-serif, sans-serif" font-size="24px" font-style="normal" font-weight="normal" text-decoration="normal" x="416" y="344" text-anchor="start" dominant-baseline="alphabetic" fill-opacity="1">5</text><text fill="none" stroke="rgb(255,255,255)" font-family="geogebra-sans-serif, sans-serif" font-size="24px" font-style="normal" font-weight="normal" text-decoration="normal" x="416" y="344" text-anchor="start" dominant-baseline="alphabetic" stroke-opacity="1" stroke-linejoin="bevel" stroke-miterlimit="10" stroke-width="3">5</text><text fill="rgb(0,0,0)" stroke="none" font-family="geogebra-sans-serif, sans-serif" font-size="24px" font-style="normal" font-weight="normal" text-decoration="normal" x="416" y="344" text-anchor="start" dominant-baseline="alphabetic" fill-opacity="1">5</text><path fill="none" stroke="rgb(0,0,0)" paint-order="fill stroke markers" d=" M 421.5 316.5 L 421.5 319.5" stroke-opacity="1" stroke-miterlimit="10"/><path fill="none" stroke="rgb(0,0,0)" paint-order="fill stroke markers" d=" M 434.5 316.5 L 434.5 319.5" stroke-opacity="1" stroke-miterlimit="10"/><path fill="none" stroke="rgb(0,0,0)" paint-order="fill stroke markers" d=" M 447.5 316.5 L 447.5 319.5" stroke-opacity="1" stroke-miterlimit="10"/><path fill="none" stroke="rgb(0,0,0)" paint-order="fill stroke markers" d=" M 459.5 316.5 L 459.5 319.5" stroke-opacity="1" stroke-miterlimit="10"/><path fill="none" stroke="rgb(0,0,0)" paint-order="fill stroke markers" d=" M 472.5 316.5 L 472.5 319.5" stroke-opacity="1" stroke-miterlimit="10"/><text fill="rgb(0,0,0)" stroke="none" font-family="geogebra-sans-serif, sans-serif" font-size="24px" font-style="normal" font-weight="normal" text-decoration="normal" x="474" y="344" text-anchor="start" dominant-baseline="alphabetic" fill-opacity="1">10</text><text fill="none" stroke="rgb(255,255,255)" font-family="geogebra-sans-serif, sans-serif" font-size="24px" font-style="normal" font-weight="normal" text-decoration="normal" x="474" y="344" text-anchor="start" dominant-baseline="alphabetic" stroke-opacity="1" stroke-linejoin="bevel" stroke-miterlimit="10" stroke-width="3">10</text><text fill="rgb(0,0,0)" stroke="none" font-family="geogebra-sans-serif, sans-serif" font-size="24px" font-style="normal" font-weight="normal" text-decoration="normal" x="474" y="344" text-anchor="start" dominant-baseline="alphabetic" fill-opacity="1">10</text><path fill="none" stroke="rgb(0,0,0)" paint-order="fill stroke markers" d=" M 485.5 316.5 L 485.5 319.5" stroke-opacity="1" stroke-miterlimit="10"/><path fill="none" stroke="rgb(0,0,0)" paint-order="fill stroke markers" d=" M 498.5 316.5 L 498.5 319.5" stroke-opacity="1" stroke-miterlimit="10"/><path fill="none" stroke="rgb(0,0,0)" paint-order="fill stroke markers" d=" M 511.5 316.5 L 511.5 319.5" stroke-opacity="1" stroke-miterlimit="10"/><path fill="none" stroke="rgb(0,0,0)" paint-order="fill stroke markers" d=" M 523.5 316.5 L 523.5 319.5" stroke-opacity="1" stroke-miterlimit="10"/><path fill="none" stroke="rgb(0,0,0)" paint-order="fill stroke markers" d=" M 536.5 316.5 L 536.5 319.5" stroke-opacity="1" stroke-miterlimit="10"/><text fill="rgb(0,0,0)" stroke="none" font-family="geogebra-sans-serif, sans-serif" font-size="24px" font-style="normal" font-weight="normal" text-decoration="normal" x="538" y="344" text-anchor="start" dominant-baseline="alphabetic" fill-opacity="1">15</text><text fill="none" stroke="rgb(255,255,255)" font-family="geogebra-sans-serif, sans-serif" font-size="24px" font-style="normal" font-weight="normal" text-decoration="normal" x="538" y="344" text-anchor="start" dominant-baseline="alphabetic" stroke-opacity="1" stroke-linejoin="bevel" stroke-miterlimit="10" stroke-width="3">15</text><text fill="rgb(0,0,0)" stroke="none" font-family="geogebra-sans-serif, sans-serif" font-size="24px" font-style="normal" font-weight="normal" text-decoration="normal" x="538" y="344" text-anchor="start" dominant-baseline="alphabetic" fill-opacity="1">15</text><path fill="none" stroke="rgb(0,0,0)" paint-order="fill stroke markers" d=" M 549.5 316.5 L 549.5 319.5" stroke-opacity="1" stroke-miterlimit="10"/><path fill="none" stroke="rgb(0,0,0)" paint-order="fill stroke markers" d=" M 562.5 316.5 L 562.5 319.5" stroke-opacity="1" stroke-miterlimit="10"/><path fill="none" stroke="rgb(0,0,0)" paint-order="fill stroke markers" d=" M 575.5 316.5 L 575.5 319.5" stroke-opacity="1" stroke-miterlimit="10"/><path fill="none" stroke="rgb(0,0,0)" paint-order="fill stroke markers" d=" M 588.5 316.5 L 588.5 319.5" stroke-opacity="1" stroke-miterlimit="10"/><path fill="none" stroke="rgb(0,0,0)" paint-order="fill stroke markers" d=" M 600.5 316.5 L 600.5 319.5" stroke-opacity="1" stroke-miterlimit="10"/><text fill="rgb(0,0,0)" stroke="none" font-family="geogebra-sans-serif, sans-serif" font-size="24px" font-style="normal" font-weight="normal" text-decoration="normal" x="602" y="344" text-anchor="start" dominant-baseline="alphabetic" fill-opacity="1">20</text><text fill="none" stroke="rgb(255,255,255)" font-family="geogebra-sans-serif, sans-serif" font-size="24px" font-style="normal" font-weight="normal" text-decoration="normal" x="602" y="344" text-anchor="start" dominant-baseline="alphabetic" stroke-opacity="1" stroke-linejoin="bevel" stroke-miterlimit="10" stroke-width="3">20</text><text fill="rgb(0,0,0)" stroke="none" font-family="geogebra-sans-serif, sans-serif" font-size="24px" font-style="normal" font-weight="normal" text-decoration="normal" x="602" y="344" text-anchor="start" dominant-baseline="alphabetic" fill-opacity="1">20</text><path fill="none" stroke="rgb(0,0,0)" paint-order="fill stroke markers" d=" M 613.5 316.5 L 613.5 319.5" stroke-opacity="1" stroke-miterlimit="10"/><path fill="none" stroke="rgb(0,0,0)" paint-order="fill stroke markers" d=" M 354.5 649.5 L 357.5 649.5" stroke-opacity="1" stroke-miterlimit="10"/><path fill="none" stroke="rgb(0,0,0)" paint-order="fill stroke markers" d=" M 354.5 636.5 L 357.5 636.5" stroke-opacity="1" stroke-miterlimit="10"/><path fill="none" stroke="rgb(0,0,0)" paint-order="fill stroke markers" d=" M 354.5 624.5 L 357.5 624.5" stroke-opacity="1" stroke-miterlimit="10"/><path fill="none" stroke="rgb(0,0,0)" paint-order="fill stroke markers" d=" M 354.5 611.5 L 357.5 611.5" stroke-opacity="1" stroke-miterlimit="10"/><path fill="none" stroke="rgb(0,0,0)" paint-order="fill stroke markers" d=" M 354.5 598.5 L 357.5 598.5" stroke-opacity="1" stroke-miterlimit="10"/><path fill="none" stroke="rgb(0,0,0)" paint-order="fill stroke markers" d=" M 354.5 585.5 L 357.5 585.5" stroke-opacity="1" stroke-miterlimit="10"/><path fill="none" stroke="rgb(0,0,0)" paint-order="fill stroke markers" d=" M 354.5 572.5 L 357.5 572.5" stroke-opacity="1" stroke-miterlimit="10"/><path fill="none" stroke="rgb(0,0,0)" paint-order="fill stroke markers" d=" M 354.5 560.5 L 357.5 560.5" stroke-opacity="1" stroke-miterlimit="10"/><path fill="none" stroke="rgb(0,0,0)" paint-order="fill stroke markers" d=" M 354.5 547.5 L 357.5 547.5" stroke-opacity="1" stroke-miterlimit="10"/><path fill="none" stroke="rgb(0,0,0)" paint-order="fill stroke markers" d=" M 354.5 534.5 L 357.5 534.5" stroke-opacity="1" stroke-miterlimit="10"/><path fill="none" stroke="rgb(0,0,0)" paint-order="fill stroke markers" d=" M 354.5 521.5 L 357.5 521.5" stroke-opacity="1" stroke-miterlimit="10"/><path fill="none" stroke="rgb(0,0,0)" paint-order="fill stroke markers" d=" M 354.5 508.5 L 357.5 508.5" stroke-opacity="1" stroke-miterlimit="10"/><path fill="none" stroke="rgb(0,0,0)" paint-order="fill stroke markers" d=" M 354.5 496.5 L 357.5 496.5" stroke-opacity="1" stroke-miterlimit="10"/><path fill="none" stroke="rgb(0,0,0)" paint-order="fill stroke markers" d=" M 354.5 483.5 L 357.5 483.5" stroke-opacity="1" stroke-miterlimit="10"/><path fill="none" stroke="rgb(0,0,0)" paint-order="fill stroke markers" d=" M 354.5 470.5 L 357.5 470.5" stroke-opacity="1" stroke-miterlimit="10"/><path fill="none" stroke="rgb(0,0,0)" paint-order="fill stroke markers" d=" M 354.5 457.5 L 357.5 457.5" stroke-opacity="1" stroke-miterlimit="10"/><path fill="none" stroke="rgb(0,0,0)" paint-order="fill stroke markers" d=" M 354.5 444.5 L 357.5 444.5" stroke-opacity="1" stroke-miterlimit="10"/><path fill="none" stroke="rgb(0,0,0)" paint-order="fill stroke markers" d=" M 354.5 431.5 L 357.5 431.5" stroke-opacity="1" stroke-miterlimit="10"/><path fill="none" stroke="rgb(0,0,0)" paint-order="fill stroke markers" d=" M 354.5 419.5 L 357.5 419.5" stroke-opacity="1" stroke-miterlimit="10"/><path fill="none" stroke="rgb(0,0,0)" paint-order="fill stroke markers" d=" M 354.5 406.5 L 357.5 406.5" stroke-opacity="1" stroke-miterlimit="10"/><path fill="none" stroke="rgb(0,0,0)" paint-order="fill stroke markers" d=" M 354.5 393.5 L 357.5 393.5" stroke-opacity="1" stroke-miterlimit="10"/><path fill="none" stroke="rgb(0,0,0)" paint-order="fill stroke markers" d=" M 354.5 380.5 L 357.5 380.5" stroke-opacity="1" stroke-miterlimit="10"/><path fill="none" stroke="rgb(0,0,0)" paint-order="fill stroke markers" d=" M 354.5 367.5 L 357.5 367.5" stroke-opacity="1" stroke-miterlimit="10"/><path fill="none" stroke="rgb(0,0,0)" paint-order="fill stroke markers" d=" M 354.5 355.5 L 357.5 355.5" stroke-opacity="1" stroke-miterlimit="10"/><path fill="none" stroke="rgb(0,0,0)" paint-order="fill stroke markers" d=" M 354.5 342.5 L 357.5 342.5" stroke-opacity="1" stroke-miterlimit="10"/><path fill="none" stroke="rgb(0,0,0)" paint-order="fill stroke markers" d=" M 354.5 329.5 L 357.5 329.5" stroke-opacity="1" stroke-miterlimit="10"/><path fill="none" stroke="rgb(0,0,0)" paint-order="fill stroke markers" d=" M 354.5 303.5 L 357.5 303.5" stroke-opacity="1" stroke-miterlimit="10"/><path fill="none" stroke="rgb(0,0,0)" paint-order="fill stroke markers" d=" M 354.5 291.5 L 357.5 291.5" stroke-opacity="1" stroke-miterlimit="10"/><path fill="none" stroke="rgb(0,0,0)" paint-order="fill stroke markers" d=" M 354.5 278.5 L 357.5 278.5" stroke-opacity="1" stroke-miterlimit="10"/><path fill="none" stroke="rgb(0,0,0)" paint-order="fill stroke markers" d=" M 354.5 265.5 L 357.5 265.5" stroke-opacity="1" stroke-miterlimit="10"/><path fill="none" stroke="rgb(0,0,0)" paint-order="fill stroke markers" d=" M 354.5 252.5 L 357.5 252.5" stroke-opacity="1" stroke-miterlimit="10"/><path fill="none" stroke="rgb(0,0,0)" paint-order="fill stroke markers" d=" M 354.5 239.5 L 357.5 239.5" stroke-opacity="1" stroke-miterlimit="10"/><path fill="none" stroke="rgb(0,0,0)" paint-order="fill stroke markers" d=" M 354.5 226.5 L 357.5 226.5" stroke-opacity="1" stroke-miterlimit="10"/><path fill="none" stroke="rgb(0,0,0)" paint-order="fill stroke markers" d=" M 354.5 214.5 L 357.5 214.5" stroke-opacity="1" stroke-miterlimit="10"/><path fill="none" stroke="rgb(0,0,0)" paint-order="fill stroke markers" d=" M 354.5 201.5 L 357.5 201.5" stroke-opacity="1" stroke-miterlimit="10"/><path fill="none" stroke="rgb(0,0,0)" paint-order="fill stroke markers" d=" M 354.5 188.5 L 357.5 188.5" stroke-opacity="1" stroke-miterlimit="10"/><path fill="none" stroke="rgb(0,0,0)" paint-order="fill stroke markers" d=" M 354.5 175.5 L 357.5 175.5" stroke-opacity="1" stroke-miterlimit="10"/><path fill="none" stroke="rgb(0,0,0)" paint-order="fill stroke markers" d=" M 354.5 162.5 L 357.5 162.5" stroke-opacity="1" stroke-miterlimit="10"/><path fill="none" stroke="rgb(0,0,0)" paint-order="fill stroke markers" d=" M 354.5 150.5 L 357.5 150.5" stroke-opacity="1" stroke-miterlimit="10"/><path fill="none" stroke="rgb(0,0,0)" paint-order="fill stroke markers" d=" M 354.5 137.5 L 357.5 137.5" stroke-opacity="1" stroke-miterlimit="10"/><path fill="none" stroke="rgb(0,0,0)" paint-order="fill stroke markers" d=" M 354.5 124.5 L 357.5 124.5" stroke-opacity="1" stroke-miterlimit="10"/><path fill="none" stroke="rgb(0,0,0)" paint-order="fill stroke markers" d=" M 354.5 111.5 L 357.5 111.5" stroke-opacity="1" stroke-miterlimit="10"/><path fill="none" stroke="rgb(0,0,0)" paint-order="fill stroke markers" d=" M 354.5 98.5 L 357.5 98.5" stroke-opacity="1" stroke-miterlimit="10"/><path fill="none" stroke="rgb(0,0,0)" paint-order="fill stroke markers" d=" M 354.5 86.5 L 357.5 86.5" stroke-opacity="1" stroke-miterlimit="10"/><path fill="none" stroke="rgb(0,0,0)" paint-order="fill stroke markers" d=" M 354.5 73.5 L 357.5 73.5" stroke-opacity="1" stroke-miterlimit="10"/><path fill="none" stroke="rgb(0,0,0)" paint-order="fill stroke markers" d=" M 354.5 60.5 L 357.5 60.5" stroke-opacity="1" stroke-miterlimit="10"/><path fill="none" stroke="rgb(0,0,0)" paint-order="fill stroke markers" d=" M 354.5 47.5 L 357.5 47.5" stroke-opacity="1" stroke-miterlimit="10"/><path fill="none" stroke="rgb(0,0,0)" paint-order="fill stroke markers" d=" M 354.5 34.5 L 357.5 34.5" stroke-opacity="1" stroke-miterlimit="10"/><path fill="none" stroke="rgb(0,0,0)" paint-order="fill stroke markers" d=" M 354.5 21.5 L 357.5 21.5" stroke-opacity="1" stroke-miterlimit="10"/><text fill="rgb(0,0,0)" stroke="none" font-family="geogebra-sans-serif, sans-serif" font-size="24px" font-style="normal" font-weight="normal" text-decoration="normal" x="307" y="647" text-anchor="start" dominant-baseline="alphabetic" fill-opacity="1">–25</text><text fill="none" stroke="rgb(255,255,255)" font-family="geogebra-sans-serif, sans-serif" font-size="24px" font-style="normal" font-weight="normal" text-decoration="normal" x="307" y="647" text-anchor="start" dominant-baseline="alphabetic" stroke-opacity="1" stroke-linejoin="bevel" stroke-miterlimit="10" stroke-width="3">–25</text><text fill="rgb(0,0,0)" stroke="none" font-family="geogebra-sans-serif, sans-serif" font-size="24px" font-style="normal" font-weight="normal" text-decoration="normal" x="307" y="647" text-anchor="start" dominant-baseline="alphabetic" fill-opacity="1">–25</text><text fill="rgb(0,0,0)" stroke="none" font-family="geogebra-sans-serif, sans-serif" font-size="24px" font-style="normal" font-weight="normal" text-decoration="normal" x="307" y="583" text-anchor="start" dominant-baseline="alphabetic" fill-opacity="1">–20</text><text fill="none" stroke="rgb(255,255,255)" font-family="geogebra-sans-serif, sans-serif" font-size="24px" font-style="normal" font-weight="normal" text-decoration="normal" x="307" y="583" text-anchor="start" dominant-baseline="alphabetic" stroke-opacity="1" stroke-linejoin="bevel" stroke-miterlimit="10" stroke-width="3">–20</text><text fill="rgb(0,0,0)" stroke="none" font-family="geogebra-sans-serif, sans-serif" font-size="24px" font-style="normal" font-weight="normal" text-decoration="normal" x="307" y="583" text-anchor="start" dominant-baseline="alphabetic" fill-opacity="1">–20</text><text fill="rgb(0,0,0)" stroke="none" font-family="geogebra-sans-serif, sans-serif" font-size="24px" font-style="normal" font-weight="normal" text-decoration="normal" x="307" y="519" text-anchor="start" dominant-baseline="alphabetic" fill-opacity="1">–15</text><text fill="none" stroke="rgb(255,255,255)" font-family="geogebra-sans-serif, sans-serif" font-size="24px" font-style="normal" font-weight="normal" text-decoration="normal" x="307" y="519" text-anchor="start" dominant-baseline="alphabetic" stroke-opacity="1" stroke-linejoin="bevel" stroke-miterlimit="10" stroke-width="3">–15</text><text fill="rgb(0,0,0)" stroke="none" font-family="geogebra-sans-serif, sans-serif" font-size="24px" font-style="normal" font-weight="normal" text-decoration="normal" x="307" y="519" text-anchor="start" dominant-baseline="alphabetic" fill-opacity="1">–15</text><text fill="rgb(0,0,0)" stroke="none" font-family="geogebra-sans-serif, sans-serif" font-size="24px" font-style="normal" font-weight="normal" text-decoration="normal" x="307" y="455" text-anchor="start" dominant-baseline="alphabetic" fill-opacity="1">–10</text><text fill="none" stroke="rgb(255,255,255)" font-family="geogebra-sans-serif, sans-serif" font-size="24px" font-style="normal" font-weight="normal" text-decoration="normal" x="307" y="455" text-anchor="start" dominant-baseline="alphabetic" stroke-opacity="1" stroke-linejoin="bevel" stroke-miterlimit="10" stroke-width="3">–10</text><text fill="rgb(0,0,0)" stroke="none" font-family="geogebra-sans-serif, sans-serif" font-size="24px" font-style="normal" font-weight="normal" text-decoration="normal" x="307" y="455" text-anchor="start" dominant-baseline="alphabetic" fill-opacity="1">–10</text><text fill="rgb(0,0,0)" stroke="none" font-family="geogebra-sans-serif, sans-serif" font-size="24px" font-style="normal" font-weight="normal" text-decoration="normal" x="320" y="391" text-anchor="start" dominant-baseline="alphabetic" fill-opacity="1">–5</text><text fill="none" stroke="rgb(255,255,255)" font-family="geogebra-sans-serif, sans-serif" font-size="24px" font-style="normal" font-weight="normal" text-decoration="normal" x="320" y="391" text-anchor="start" dominant-baseline="alphabetic" stroke-opacity="1" stroke-linejoin="bevel" stroke-miterlimit="10" stroke-width="3">–5</text><text fill="rgb(0,0,0)" stroke="none" font-family="geogebra-sans-serif, sans-serif" font-size="24px" font-style="normal" font-weight="normal" text-decoration="normal" x="320" y="391" text-anchor="start" dominant-baseline="alphabetic" fill-opacity="1">–5</text><text fill="rgb(0,0,0)" stroke="none" font-family="geogebra-sans-serif, sans-serif" font-size="24px" font-style="normal" font-weight="normal" text-decoration="normal" x="334" y="263" text-anchor="start" dominant-baseline="alphabetic" fill-opacity="1">5</text><text fill="none" stroke="rgb(255,255,255)" font-family="geogebra-sans-serif, sans-serif" font-size="24px" font-style="normal" font-weight="normal" text-decoration="normal" x="334" y="263" text-anchor="start" dominant-baseline="alphabetic" stroke-opacity="1" stroke-linejoin="bevel" stroke-miterlimit="10" stroke-width="3">5</text><text fill="rgb(0,0,0)" stroke="none" font-family="geogebra-sans-serif, sans-serif" font-size="24px" font-style="normal" font-weight="normal" text-decoration="normal" x="334" y="263" text-anchor="start" dominant-baseline="alphabetic" fill-opacity="1">5</text><text fill="rgb(0,0,0)" stroke="none" font-family="geogebra-sans-serif, sans-serif" font-size="24px" font-style="normal" font-weight="normal" text-decoration="normal" x="320" y="199" text-anchor="start" dominant-baseline="alphabetic" fill-opacity="1">10</text><text fill="none" stroke="rgb(255,255,255)" font-family="geogebra-sans-serif, sans-serif" font-size="24px" font-style="normal" font-weight="normal" text-decoration="normal" x="320" y="199" text-anchor="start" dominant-baseline="alphabetic" stroke-opacity="1" stroke-linejoin="bevel" stroke-miterlimit="10" stroke-width="3">10</text><text fill="rgb(0,0,0)" stroke="none" font-family="geogebra-sans-serif, sans-serif" font-size="24px" font-style="normal" font-weight="normal" text-decoration="normal" x="320" y="199" text-anchor="start" dominant-baseline="alphabetic" fill-opacity="1">10</text><text fill="rgb(0,0,0)" stroke="none" font-family="geogebra-sans-serif, sans-serif" font-size="24px" font-style="normal" font-weight="normal" text-decoration="normal" x="320" y="135" text-anchor="start" dominant-baseline="alphabetic" fill-opacity="1">15</text><text fill="none" stroke="rgb(255,255,255)" font-family="geogebra-sans-serif, sans-serif" font-size="24px" font-style="normal" font-weight="normal" text-decoration="normal" x="320" y="135" text-anchor="start" dominant-baseline="alphabetic" stroke-opacity="1" stroke-linejoin="bevel" stroke-miterlimit="10" stroke-width="3">15</text><text fill="rgb(0,0,0)" stroke="none" font-family="geogebra-sans-serif, sans-serif" font-size="24px" font-style="normal" font-weight="normal" text-decoration="normal" x="320" y="135" text-anchor="start" dominant-baseline="alphabetic" fill-opacity="1">15</text><text fill="rgb(0,0,0)" stroke="none" font-family="geogebra-sans-serif, sans-serif" font-size="24px" font-style="normal" font-weight="normal" text-decoration="normal" x="320" y="71" text-anchor="start" dominant-baseline="alphabetic" fill-opacity="1">20</text><text fill="none" stroke="rgb(255,255,255)" font-family="geogebra-sans-serif, sans-serif" font-size="24px" font-style="normal" font-weight="normal" text-decoration="normal" x="320" y="71" text-anchor="start" dominant-baseline="alphabetic" stroke-opacity="1" stroke-linejoin="bevel" stroke-miterlimit="10" stroke-width="3">20</text><text fill="rgb(0,0,0)" stroke="none" font-family="geogebra-sans-serif, sans-serif" font-size="24px" font-style="normal" font-weight="normal" text-decoration="normal" x="320" y="71" text-anchor="start" dominant-baseline="alphabetic" fill-opacity="1">20</text><text fill="rgb(0,0,0)" stroke="none" font-family="geogebra-sans-serif, sans-serif" font-size="24px" font-style="normal" font-weight="normal" text-decoration="normal" x="334" y="344" text-anchor="start" dominant-baseline="alphabetic" fill-opacity="1">0</text><text fill="none" stroke="rgb(255,255,255)" font-family="geogebra-sans-serif, sans-serif" font-size="24px" font-style="normal" font-weight="normal" text-decoration="normal" x="334" y="344" text-anchor="start" dominant-baseline="alphabetic" stroke-opacity="1" stroke-linejoin="bevel" stroke-miterlimit="10" stroke-width="3">0</text><text fill="rgb(0,0,0)" stroke="none" font-family="geogebra-sans-serif, sans-serif" font-size="24px" font-style="normal" font-weight="normal" text-decoration="normal" x="334" y="344" text-anchor="start" dominant-baseline="alphabetic" fill-opacity="1">0</text><path fill="none" stroke="rgb(46,125,50)" paint-order="fill stroke markers" d=" M 357.40375144639034 316.6440315951095 L 358.9641838674896 316.45157061268054 L 359.7222924678461 316.21235310870867 L 360.45402737490383 315.87997725003146 L 361.1508555446122 315.4569545364547 L 361.8044634848785 314.9464896399628 L 362.9501772849946 313.6794052196503 L 363.4272208429501 312.9324786205638 L 363.83101671970394 312.1174406735836 L 364.39354288176565 310.3088539156228 L 364.5409244299489 309.3295006183776 L 364.5924382821058 308.31034576372593 L 364.3917428241834 306.1857634296477 L 364.1331292629169 305.09774245415565 L 363.7658905546114 304.0046319976505 L 362.7005241378813 301.8405436239518 L 361.19306833805086 299.7694371841557 L 359.2530485040534 297.8678034713524 L 356.902145060591 296.21085275624654 L 354.17398021050883 294.8706825280358 L 351.11363836028676 293.9144835190153 L 347.7769270888041 293.4028216684411 L 344.22939069138624 293.3880325068467 L 340.54509334823774 293.91276255891177 L 336.8051936937617 295.00868980235487 L 333.0963369108635 296.6954520259223 L 329.5088943585509 298.97980815696377 L 326.13508408640314 301.8550533447729 L 323.06700832965754 305.30070386600573 L 320.39464615826233 309.2824628476449 L 318.2038408284961 313.7524724726497 L 316.5743220254361 318.64985284044576 L 315.57780307061876 323.90152209918205 L 315.276192297211 329.4232869514852 L 315.7199561741847 335.1211872625464 L 316.9466694142649 340.8930733692429 L 318.97978426409827 346.630389898462 L 321.8276474981701 352.2201355433297 L 325.48278938153123 357.54696440206556 L 329.92150410237247 362.4953912315184 L 335.1037359856906 366.9520603719095 L 340.9732802739073 370.80803621548296 L 347.4583014963649 373.9610719619077 L 354.4721665493604 376.3178130565042 L 361.9145836774276 377.7958921590246 L 369.6730326921646 378.32587374198954 L 377.62446609392305 377.85300845537233 L 385.63725537885114 376.33876019144884 L 393.5733518197362 373.76207229878077 L 401.2906264986021 370.12034357326854 L 408.64535042923023 365.43008943028275 L 415.49477231667333 359.7272689570551 L 421.699748925705 353.06726427070913 L 427.1273812263954 345.5245046678683 L 431.6536084949647 337.191734343048 L 435.1657124002248 328.178928866115 L 437.56468381423724 318.6118720317069 L 438.76740664933766 308.6304110119028 L 438.89903386848283 303.5313296198629 L 438.7086154264402 298.3864138443815 L 438.19105986214106 293.21614629644 L 437.34258649064157 288.04145906105845 L 436.1607611941016 282.8836493720023 L 434.6445267641951 277.76429260042516 L 432.79422760203 272.7051529107302 L 430.61162860462287 267.7280919505583 L 425.2637646447994 258.1075816471411 L 418.6438023480949 249.076047719815 L 410.817524320396 240.80230137000927 L 401.8731470782782 233.44764401604544 L 391.9204378677056 227.1628868125162 L 386.6058470892976 224.46527077885062 L 381.0894361438099 222.08547781119202 L 375.39035504642516 220.03815570111885 L 369.5287933394153 218.3367890658538 L 363.5259088475466 216.9936268445122 L 357.4037514463904 216.01961419517335 L 351.1851821176569 215.42432913190436 L 344.8937875885075 215.2159242236552 L 338.5537908735539 215.40107365820728 L 332.18995805881485 215.98492595416505 L 325.82750168617366 216.97106258240677 L 319.4919811147819 218.36146273553982 L 313.2092002522777 220.15647445982478 L 307.0051030635842 222.3547923388369 L 300.9056672783065 224.95344189192224 L 294.93679672933285 227.94777082338214 L 289.1242127650636 231.33144723039396 L 283.4933451857126 235.09646484906432 L 278.0692231602988 239.23315538882053 L 272.8763665852142 243.73020797571024 L 267.9386783476079 248.5746956952106 L 263.27933795723425 253.7521091949722 L 258.92069700884315 259.24639727767703 L 254.88417693366762 265.040014383983 L 251.190169493055 271.11397483550616 L 247.8579404598239 277.44791367807636 L 244.9055369235225 284.0201539362147 L 242.34969864443303 290.8077800610604 L 240.2057738679526 297.78671732594523 L 238.48763999592887 304.93181689657655 L 237.20762949467647 312.2169462765053 L 236.37646140081756 319.6150848033056 L 236.003178765839 327.09842384680195 L 236.09509235840858 334.6384713378779 L 236.65773092013046 342.206160234952 L 237.69479824562757 349.77196051525516 L 239.20813733171258 357.30599425965534 L 241.19770181304847 364.7781533830408 L 243.6615348732097 372.15821954729387 L 246.5957557905501 379.4159857807172 L 249.99455424787294 386.5213793164848 L 253.85019250371192 393.4445851533603 L 258.1530154911893 400.1561698345853 L 262.89146887804117 406.62720493554014 L 268.0521250886395 412.82938974757855 L 273.6197172558043 418.7351726443223 L 279.57718103704843 424.317870617735 L 285.90570419675294 429.55178647445956 L 292.5847838227711 434.41232318820573 L 299.59229101325633 438.8760949114233 L 306.90454283722624 442.92103415905785 L 314.49638134065015 446.52649468883794 L 322.341259338835 449.6733496162699 L 330.411332705687 452.3440843182456 L 338.67755884120567 454.5228836968811 L 347.1098009704333 456.19571339481325 L 355.67693790015846 457.35039457464086 L 364.3469788340928 457.97667189841263 L 373.08718282311077 458.0662743679716 L 381.8641824045609 457.612968713451 L 390.64411096375835 456.61260504520743 L 399.3927333316248 455.06315451384165 L 408.0755791151441 452.9647387536088 L 416.6580782419638 450.319650916321 L 425.1056981871272 447.1323681356856 L 433.384082338675 443.40955529576945 L 441.4591889497539 439.1600600117967 L 449.2974301179544 434.39489876664976 L 456.86581022794104 429.1272341820959 L 464.1320632910508 423.37234343977036 L 471.0647886154393 417.1475779031688 L 477.6335842425944 410.47231402818034 L 483.8091775905913 403.36789568588165 L 489.56355275133353 395.8575680572788 L 494.87007389822696 387.9664032952442 L 499.70360427219595 379.7212181839459 L 504.04062022769483 371.15048406041774 L 507.8593198363164 362.2842292964515 L 511.13972556371084 353.15393467156304 L 513.8637805557582 343.792421999233 L 516.0154380921967 334.23373639883476 L 517.5807437901337 324.5130226345057 L 518.5479101659652 314.6663959695368 L 518.9073831921148 304.73080801057506 L 518.6519005145637 294.7439080398936 L 518.2919203126484 289.7431371871912 L 517.7765410282783 284.74390035609656 L 516.2787655402332 274.7693981638006 L 514.1584482836488 264.8592745709404 L 511.41789908218857 255.05251126832565 L 508.06187599905616 245.38804547985131 L 504.097588343054 235.90461578323294 L 499.53468994157214 226.64060741027185 L 494.3852626290204 217.63389764239645 L 488.6637899382353 208.92170192149885 L 482.3871210217543 200.54042129791225 L 475.57442486936554 192.52549183667503 L 468.2471349278764 184.9112366000244 L 460.42888426843416 177.73072081834567 L 452.14543148580105 171.01561085356127 L 443.42457755259363 164.7960375482172 L 434.2960738894781 159.1004645403312 L 424.7915219494942 153.95556210843074 L 414.9442646509365 149.38608709320684 L 409.90298885649463 147.3243201046657 L 404.789270028371 145.41476942186637 L 399.6077127949705 143.65994212786347 L 394.363007505271 142.0622057386699 L 389.0599259898183 140.6237853012216 L 383.7033172242828 139.3467606203667 L 378.2981028995105 138.2330636181266 L 372.8492729021168 137.28447582835923 L 367.36188070976556 136.5026260298278 L 361.84103870538473 135.88898802055257 L 356.2919134146596 135.44487853619268 L 350.71972067124307 135.17145531507066 L 345.12972071420205 135.06971531231497 L 339.527213222314 135.14049306545755 L 333.91753228989717 135.38445921367935 L 328.3060413489384 135.80211917275165 L 322.6981280423533 136.3938119675736 L 317.09919905327394 137.15970922405586 L 311.51467489533036 138.0998143219476 L 305.949984668939 139.21396171004926 L 300.4105607886683 140.50181638509738 L 294.90183368679726 141.96287353544918 L 289.42922649822594 143.59645835053334 L 283.99814973192804 145.40172599687472 L 278.613995934178 147.37766176133377 L 273.28213434880087 149.52308136204073 L 268.00790557972175 151.83663142733778 L 262.7966162611054 154.31679014287624 L 257.65353374038534 156.9618680668508 L 252.58388077949513 159.7700091131824 L 242.685500034673 165.8672300789794 L 233.14216471473839 172.59031936690764 L 223.9935179844884 179.9185679531217 L 215.27799226042615 187.82875211221366 L 207.0326495085827 196.29520442298647 L 199.29302572287668 205.289894925572 L 192.09298022969537 214.7825221825785 L 185.46455044965825 224.74061395587447 L 182.37417058629006 229.8834947601507 L 179.43781273019889 235.12963717041256 L 176.65890826673134 240.4744220520002 L 174.04074984271588 245.91311679733224 L 171.58648763014418 251.44087949987158 L 169.29912571565097 257.05276325064017 L 167.1815186197964 262.7437205534889 L 165.2363679500421 268.5086078551924 L 163.46621919119326 274.34219018630984 L 161.87345863695356 280.23914590863893 L 160.46031046611637 286.1940715649556 L 159.22883396677994 292.20148682663034 L 158.18092091184235 298.2558395345925 L 157.31829308889206 304.3515108290084 L 156.64249998746823 310.4828203629338 L 156.15491664651825 316.64403159510937 L 155.85674166473274 322.8293571569607 L 155.7489953762842 329.0329642887876 L 155.83251819434273 335.2489803400331 L 156.10796912458133 341.47149832844633 L 156.57582445072632 347.6945825528796 L 157.23637659404196 353.9122742543815 L 158.08973314847486 360.11859732019246 L 159.13581609301514 366.30756402518244 L 160.37436118266174 372.4731808052172 L 161.80491751920707 378.6094540568881 L 163.42684730288377 384.7103959580023 L 165.23932576573944 390.7700303031798 L 167.24134128743037 396.78239834888154 L 169.43169569394692 402.7415646621583 L 171.8090047396037 408.64162296738914 L 174.37169877244943 414.47670198526237 L 177.1180235830702 420.2409712582389 L 180.04604143657596 425.9286469567319 L 183.153632287388 431.5339976602447 L 186.4384951762494 437.05135010769857 L 189.89814980871245 442.4750949112101 L 193.52993831416714 447.7996922275862 L 197.3310271842983 453.01967738182987 L 201.29840938967538 458.1296664369785 L 209.71917201737088 467.9985571905605 L 218.76479104330767 477.3651154860786 L 228.40521977595276 486.1897295655295 L 233.4384080086267 490.386917378471 L 238.60789802390886 494.43459040796006 L 243.9092448706642 498.3283303903097 L 249.33786062805208 502.06385132925027 L 254.8890183456192 505.6370041145457 L 260.5578561323582 509.0437810230959 L 266.33938139122216 512.2803200977257 L 272.2284751954314 515.3429093989681 L 278.2198968027571 518.2279911252606 L 284.3082883038155 520.9321655970851 L 290.4881794002748 523.4521951007075 L 296.7539923087134 525.7850075872868 L 303.1000467857541 527.9277002232648 L 309.52056526995267 529.8775427880705 L 316.0096781357935 531.6319809153182 L 322.5614290550206 533.1886391738126 L 329.16978046041186 534.5453239848287 L 335.82861910698716 535.7000263722755 L 342.5317617255308 536.6509245425127 L 349.27296076320266 537.3963862907411 L 356.0459102059037 537.9349712310534 L 362.8442514769832 538.2654328473924 L 369.6615794067539 538.386720362831 L 376.4914482672223 538.2979804247616 L 383.3273778663445 537.9985586037512 L 390.16285969604553 537.4880007039997 L 396.9913631281714 536.76605388351 L 403.80634165247335 535.8326675822694 L 410.6012391506706 534.6879942569142 L 417.3694962005784 533.332389920541 L 424.10455640423913 531.7664144865158 L 430.79987273396705 529.9908319153142 L 437.44891389015197 528.0066101636233 L 444.0451706646665 525.8149209351251 L 450.5821623036797 523.417139232569 L 457.0534428636653 520.8148427109434 L 463.452607554383 518.0098108317429 L 469.77329906260155 515.0040238185275 L 476.00921385033377 511.79966141416065 L 482.15410842136043 508.39910144031586 L 488.2018055498304 504.8049181600278 L 494.14620046473954 501.01988044426867 L 499.98126698412943 497.0469497437143 L 505.70106359285325 492.8892778670728 L 511.2997394578153 488.55020456752806 L 516.7715403746228 484.0332549390534 L 522.1108146396369 479.34213662453556 L 527.3120188414701 474.48073683784327 L 532.3697235660305 469.4531192021607 L 537.2786190092886 464.2635204070949 L 542.0335204920084 458.91634668724896 L 546.6293738707677 453.4161701251362 L 551.0612608396693 447.7677247814968 L 555.3244041172511 441.9759026562384 L 559.4141725131764 436.0457494834267 L 563.3260858694063 429.9824603638942 L 567.0558198706534 423.7913752392268 L 570.5992107190305 417.4779742110411 L 573.9522596679249 411.04787270963595 L 577.1111374102538 404.5068165162568 L 580.0721883163818 397.86067664336883 L 582.8319345171141 391.1154440774867 L 585.387079827321 384.27722438925423 L 587.734513505885 377.3522322156193 L 589.8713138478176 370.34678561906867 L 591.7947516045342 363.26730032905175 L 593.5022932284412 356.120283870826 L 594.9916039381433 348.9123295870945 L 596.2605506007475 341.6501105579266 L 597.3072044279033 334.3403734245638 L 598.1298434823974 326.9899321228268 L 598.7269549922902 319.60566153194344 L 599.0972374697651 312.1944910447159 L 599.2396026320422 304.7633980650405 L 599.1531771218916 297.31940143888664 L 598.8373040254751 289.86955482490686 L 598.291544185429 282.4209400109562 L 597.5156773073015 274.980660182841 L 596.5097028576484 267.5558331516991 L 595.2738407522943 260.1535845464677 L 593.8085318334613 252.78104097794704 L 592.1144381346752 245.44532318101662 L 590.1924429325582 238.15353914159917 L 588.0436505848243 230.91277721500222 L 585.669386154001 223.7300992422944 L 583.0711948166072 216.61253367139904 L 580.2508410577232 209.56706868958645 L 577.2103076511039 202.6006453740821 L 573.9517944251902 195.72015086748144 L 570.4777168155846 188.9324115846735 L 566.7907042047673 182.24418645795953 L 562.8935980500402 175.66216022703398 L 558.7894498008902 169.1929367804718 L 554.4815186071789 162.84303255533416 L 549.9732688197663 156.61887000146697 L 545.2683672853882 150.52677111702172 L 540.370680437812 144.57295106168215 L 535.2842711874914 138.76351185400824 L 530.0133956121599 133.10443615927002 L 524.5624994509863 127.60158117404868 L 518.9362144051227 122.2606726138213 L 513.1393542476728 117.08729880965717 L 507.1769107462984 112.08690492006659 L 501.05404940187475 107.26478726394603 L 494.7761050067953 102.6260877804653 L 488.3485770267114 98.17578862163205 L 481.7771248096716 93.91870688315811 L 475.06756262681523 89.85948947913488 L 468.2258545489267 86.00260816589193 L 461.25810916336343 82.35235472029802 L 454.17057413600463 78.9128362776136 L 446.9696306230526 75.68797083387022 L 439.66178753766985 72.68148291760565 L 432.25367567659123 69.89689943563053 L 424.7520417120022 67.33754569734765 L 417.16374205411825 65.00654162198273 L 409.4957365900424 62.90679813292084 L 401.75508230461156 61.04101374317153 L 393.9489267890806 59.411671335812684 L 386.0845016435976 58.02103514307993 L 378.1691157795762 56.871147927593256 L 370.2101486281529 55.963828369016994 L 362.2150432610444 55.300668659264886 L 354.19129943021625 54.88303230916574 L 346.1464665328717 54.712052169307015 L 338.0881365083594 54.78862866757538 L 330.0239366736831 55.11342826570666 L 321.961522504374 55.68688213695424 L 313.90857036756313 56.50918506677402 L 305.87277021413837 57.580294578213284 L 297.8618182369595 58.89993028347726 L 289.88340950212694 60.467573462931966 L 281.9452305603611 62.28246687258331 L 274.054952045585 64.3436147808552 L 266.22022126783145 66.6497832352677 L 258.44865480762405 69.19950055939549 L 250.7478311189978 71.99105808026371 L 243.12528314833543 75.02251108611674 L 235.58849097620026 78.29168001426922 L 228.14487448934833 81.79615186852581 L 220.8017860900745 85.53328186543615 L 213.56650345006125 89.50019530841675 L 206.44622231584376 93.69378968856128 L 199.44804937299256 98.11073701072729 L 192.57899517607115 102.74748634327116 L 185.8459671513811 107.60026658957833 L 179.2557626794567 112.66508947931831 L 172.81506226421106 117.93775277713391 L 166.53042279557044 123.41384370625732 L 160.40827091236125 129.08874258433244 L 154.45489647213827 134.9576266685037 L 148.67644613454323 141.0154742066362 L 143.0789170647147 147.2570686912996 L 137.66815076314606 153.6770033129672 L 132.44982702829788 160.26968560866388 L 127.42945805815387 167.02934230210315 L 122.61238269679254 173.95002433115596 L 118.00376083192106 181.02561205830193 L 113.60856794918885 188.24982065952497 L 109.43158984895959 195.6162056869303 L 105.4774175310803 203.11816880017977 L 101.75044225303816 210.74896366166075 L 98.25485076673448 218.50170199014957 L 94.9946207389612 226.3693597675325 L 91.97351636048433 234.3447835930168 L 89.19508414847888 242.42069717908652 L 86.66264894688203 250.58970798331393 L 84.37931012905119 258.8443139699876 L 82.34793800693075 267.1769104953786 L 80.57117045073971 275.57979731032947 L 79.05140972300171 284.04518567372 L 77.7908195305398 292.56520557024373 L 76.79132229785813 301.13191302579986 L 76.05459666512371 309.7372975137186 L 75.58207521375869 318.37328944489457 L 75.37494242243423 327.03176773484046 L 75.43413285604669 335.7045674405595 L 75.76032959003419 344.3834874600555 L 76.35396287217316 353.06029828722035 L 77.2152090237675 361.72674981476626 L 78.34398958191849 370.37457917780443 L 79.73997068433323 378.9955186306138 L 81.40256269789955 387.5813034490939 L 83.33092009202107 396.12367985134335 L 85.52394155747606 404.6144129287914 L 87.9802703713213 413.0452945802446 L 90.69829500813267 421.40815144122337 L 93.67614999763242 429.694852800927 L 96.91171702851682 437.89731849916694 L 100.40262629805795 446.0075267956043 L 104.14625810681665 454.01752220363755 L 108.13974469756357 461.9194232812998 L 112.37997233726685 469.70543037154687 L 116.86358364076926 477.36783328434933 L 121.58698013453522 484.899018913032 L 126.54632505862321 492.29147877736614 L 131.73754640478742 499.5378164859428 L 137.15634018839594 506.6307551104453 L 142.7981739516099 513.5631444644839 L 148.65829049504293 520.3279682797419 L 154.73171183489185 526.9183512722554 L 161.01324338230305 533.3275660917433 L 167.49747834151748 539.5490401469942 L 174.17880232311708 545.5763623004246 L 181.0513981684785 551.4032894250262 L 188.1092509813217 557.0237528170372 L 195.3461533620473 562.431864457808 L 202.75571084032114 567.621923118432 L 210.3313475011917 572.5884203008818 L 218.06631179980832 577.32604600951 L 225.95368255962188 581.8296943469318 L 233.9863751487569 586.09446892846 L 242.15714782906025 590.1156881094232 L 250.45860827215074 593.8888900198654 L 258.88322023661925 597.4098374012939 L 267.42331040035947 600.6745222403299 L 276.07107534183814 603.6791701942846 L 284.8185886639757 606.4202448038889 L 293.65780825411997 608.894451488585 L 302.58058367348406 611.0987413199929 L 311.5786636692554 613.0303145693682 L 320.64370380245714 614.686624025075 L 329.76727418451316 616.0653780763066 L 338.94086731534384 617.1645435595092 L 348.1559060157073 617.9823483641768 L 357.40375144638955 618.517283794918 L 366.6757112067487 618.7681066869125 L 375.9630475050136 618.733841272117 L 385.25698539267387 618.4137807938064 L 394.548721055181 617.8074888672737 L 403.82943015114125 616.9148005847583 L 413.09027619209775 615.7358233629045 L 422.3224189549437 614.2709375313034 L 431.5170229189606 612.520796660916 L 440.6652657194294 610.4863276314193 L 449.7583466097302 608.1687304367739 L 458.7874949238161 605.5694777285545 L 467.7439785309228 602.690314096842 L 476.6191122743829 599.5332550887244 L 485.40426638637575 596.1005859647119 L 494.09087487047975 592.3948601936181 L 502.6704438438903 588.4188976867188 L 511.13455983118473 584.1757827722487 L 519.4748980015504 579.6688619115517 L 527.6832303414205 574.9017411584525 L 535.7514337545103 569.8782833636648 L 543.6714980812927 564.6026051263069 L 551.4355340300172 559.0790734948405 L 559.0357810114294 553.312302419997 L 566.4646148694505 547.3071489624942 L 573.7145555001158 541.0687092586048 L 580.778274351201 534.6023142468594 L 587.648601795041 527.9135251594184 L 594.3185343671514 521.0081287818765 L 600.7812418633825 513.8921324854945 L 607.0300742884472 506.5717590360866 L 613.0585686487946 499.05344118401104 L 618.8604555829346 491.34381603993586 L 624.4296658224553 483.44971924126827 L 629.7603364771246 475.3781789143534 L 634.8468171376285 467.1364094377404 L 639.6836757896405 458.73180501204695 L 644.2657045331046 450.17193304212265 M 643.3157402373854 154.6768905482941 L 638.5487809791709 145.77867525758626 L 633.5046939382848 137.02066536654365 L 628.1876002079109 128.4114974736927 L 622.6018902020303 119.9596871166624 L 616.7522201010515 111.6736203690609 L 610.6435080351159 103.56154554165965 L 604.2809300081433 95.63156499607868 L 597.6699155659292 87.89162707907553 L 590.8161432118652 80.3495181854426 L 583.7255355741063 73.01285495741809 L 576.404254328238 65.88907662838258 L 568.8586948797744 58.98543751852492 L 561.0954808110212 52.308999689999666 L 553.1214580971024 45.86662576898033 L 544.9436890961648 39.66497194186525 L 536.5694463190113 33.71048113273821 L 528.0062059836346 28.009376369031713 L 519.2616413603408 22.567654342173682 L 510.3436159133696 17.391079169825787 L 501.2601762451189 12.485176366142355 L 492.01954484930025 7.8552270262985076 L 482.6301126795199 3.5062622313300267 L 473.10043154001295 -0.5569423208490321 L 463.4392063054037 -4.329871452610291 L 453.65528697657044 -7.808275406512621 M 231.57137402153447 -6.607139223620379 L 226.55366808509018 -4.820969117522964 L 216.59508239454397 -1.0152358241136312 L 206.7469753392562 3.099239375666002 L 197.01892574507332 7.519255726257711 L 187.42041990058124 12.24131507815872 L 177.96084231780284 17.2616245573808 L 168.6494665697293 22.576099522128118 L 159.49544621360275 28.180366804496884 L 150.50780580884341 34.06976823470097 L 141.69543203840337 40.23936444507268 L 133.0670649422728 46.68393895080061 L 124.63128927176663 53.39800250409917 L 116.3965259731244 60.375797718234935 L 108.37102380884946 67.61130395756732 L 100.56285112509943 75.0982424894998 L 92.97988777331858 82.83008189397609 L 85.62981719416933 90.80004372590233 L 78.52011867168989 99.00110842561557 L 71.65805976543896 107.42602147229232 L 65.05068892826426 116.06729977491321 L 58.70482831714196 124.91723829519361 L 52.62706680437867 133.9679168966372 L 46.82375319628943 143.21120741364555 L 41.30098966627878 152.63878093439337 L 36.0646254090633 162.2421152909604 L 31.120250522573883 172.01250274999887 L 26.473190123873735 181.94105789700856 L 24.262743106861706 186.96182505923676 L 22.1284987052166 192.0187257070935 L 20.071045559736092 197.1106028143637 L 18.090954736152355 202.23628979487222 L 16.188779570302756 207.39461076955712 L 14.365055517358826 212.58438083605006 L 12.62030000515557 217.80440634069475 L 10.955012291662115 223.05348515294304 L 9.369673326629993 228.33040694206466 L 7.864745617457629 233.6339534561079 L 6.440673099307844 238.96289880304602 L 5.097881009512605 244.31600973404525 L 3.8367757663010593 249.69204592878862 L 2.6577448518830806 255.08976028278957 L 1.5611566999220372 260.50789919662924 L 0.5473605874269083 265.9452028670498 L -0.38331346890430495 271.40040557983616 L -1.230554811861623 276.87223600441945 L -1.9940722383913112 282.35941749013114 L -2.6735940897289083 287.8606683640411 L -3.2688683369693763 293.37470223030914 L -3.7796626620506117 298.9002282709798 L -4.205764534125194 304.4359515481511 L -4.54698128129786 309.98057330744626 L -4.803140157705627 315.5327912827114 L -4.9740884059218615 321.09130000188554 L -5.05969331466207 326.65479109394585 M -5.059842271773675 332.22195359687566 L -4.974442812493351 337.7914742665743 L -4.803422662952812 343.36203788663784 L -4.546729778920792 348.9323275789375 L -4.204332379764139 354.501025114922 L -3.7762189776173045 360.06681122757107 L -3.262398401746225 365.62836592392546 L -2.662899818097628 371.18436879811986 L -1.9777727440221042 376.73349934484474 L -1.2070870581648023 382.2744372731618 L -0.3509330055136388 387.80586282059966 L 0.5905788023987952 393.3264570674539 L 1.6173173921464468 398.83490225121767 L 2.729131437917033 404.3298820810671 L 3.9258492758785906 409.81008205232695 L 5.207278923406648 415.27418976084107 L 6.573208103172931 420.7208952171729 L 8.023404272094638 426.1488911605617 L 9.557614655140867 431.55687337255176 L 11.175566283997796 436.94354099023894 L 12.876966040582317 442.30759681903254 L 14.661500705403284 447.64774764487845 L 16.528837010761322 452.96270454585897 L 18.478621698781637 458.2511832030966 L 20.51048158426903 463.5119042108863 L 22.62402362237566 468.74359338598214 L 24.81883498107146 473.94498207596223 L 27.094483118403105 479.11480746659925 L 29.450515864529393 484.25181288816054 L 31.88646150851787 489.3547481205639 L 34.40182888988676 494.4223696973163 L 36.99610749487539 499.45344120815963 L 39.66876755742504 504.4467336003514 L 45.247017368186846 514.3151034029297 L 51.13195927987658 524.0178051890424 L 57.31867346025609 533.5453017891917 L 63.80194333506125 542.888202137921 L 70.57625992717385 552.0372705115183 L 77.63582648351348 560.9834356368407 L 84.97456338580423 569.7177996622719 L 92.5861133411189 578.2316469819791 L 100.46384684781111 586.5164529047329 L 108.60086793217812 594.5638921586954 L 116.9900201509295 602.3658472237184 L 125.62389285427034 609.914416482841 L 134.49482770414937 617.2019221848343 L 143.5949254419672 624.2209182098039 L 152.91605289978924 630.9641976300351 L 162.44985024885796 637.4248000584377 L 172.18773847897955 643.5960187771567 L 182.12092710209092 649.4714076390785 L 187.15795615245062 652.2962243482884 L 192.24042207312084 655.0447877351937 L 197.36717013670344 657.7163682464679 L 202.53703392101627 660.3102538209735 M 542.7548867967785 658.3516181064853 L 548.0709481456764 655.6395724211495 L 553.3473996334866 652.84480364053 L 558.5829537276566 649.9678891266185 L 563.7763312932607 647.0094262850979 L 568.9262619050891 643.9700324434871 L 574.0314841579736 640.8503447244257 L 579.090745975274 637.6510199141246 L 584.1028049154492 634.3727343260086 L 593.9803943991849 627.5820828545149 L 603.6545173007592 620.4841858798125 L 613.115611745409 613.0851418828973 L 622.3542987213787 605.3913470637951 L 631.3613913537531 597.4094898558167 L 640.1279040136432 589.1465451508119 L 648.6450612536939 580.609768240388 M 645.6357373208709 21.249511380939452 L 636.7046794163136 12.257443272553871 L 627.4929854168415 3.535549644556056 L 618.0088333003122 -4.9074080649816665 L 608.2606746579069 -13.062916118584383 M 69.27480625975454 -5.204152555978624 L 64.23849213959926 -0.8910167199814509 L 59.2667313425556 3.500926699975082 L 49.52178782030353 12.517353093585484 L 40.0496655660877 21.83716858241104 L 30.859813632577072 31.45211343846489 L 21.961430856119875 41.35363354032677 L 17.624344357042958 46.40910750797303 L 13.36345668178916 51.53288795798716 L 9.179843263565488 56.72382625160583 L 5.074562218509357 61.98075682371265 L 1.0486540793839367 67.30249744393174 L -2.8968584668191966 72.68784948194835 L -6.760970837243406 78.1355981769201 M -6.35907691992594 582.9848280555664 L -2.387594706480911 588.651847370021 L 1.6721843071061357 594.2596713713087 L 5.819378180445199 599.8069241696901 L 10.053083531149298 605.2922430097028 L 14.372375730336046 610.714278604325 L 18.776309103368874 616.0716954662705 L 23.263917135733095 621.3631722362525 L 27.834212684064198 626.5874020082155 L 32.48618819221895 631.7430926513798 L 37.21881591240833 636.8289671290916 L 46.921817400941904 646.7862368018532 L 51.89003677489012 651.6551562168745 L 56.934600048720824 656.4493085201937 L 62.05438200564032 661.1674968097092" stroke-opacity="0.8" stroke-linecap="round" stroke-linejoin="round" stroke-miterlimit="10" stroke-width="2.5"/><text fill="rgb(46,125,50)" stroke="none" font-family="geogebra-sans-serif, sans-serif" font-size="32px" font-style="normal" font-weight="normal" text-decoration="normal" x="366" y="411" text-anchor="start" dominant-baseline="alphabetic" fill-opacity="1">r=θ</text><text fill="none" stroke="rgb(255,255,255)" font-family="geogebra-sans-serif, sans-serif" font-size="32px" font-style="normal" font-weight="normal" text-decoration="normal" x="366" y="411" text-anchor="start" dominant-baseline="alphabetic" stroke-opacity="1" stroke-linejoin="bevel" stroke-miterlimit="10" stroke-width="3">r=θ</text><text fill="rgb(46,125,50)" stroke="none" font-family="geogebra-sans-serif, sans-serif" font-size="32px" font-style="normal" font-weight="normal" text-decoration="normal" x="366" y="411" text-anchor="start" dominant-baseline="alphabetic" fill-opacity="1">r=θ</text></g></g></svg>