<svg version="1.1" xmlns="http://www.w3.org/2000/svg" xmlns:xlink="http://www.w3.org/1999/xlink" width="405" height="405"><defs><clipPath id="wLiQazFTFLbz"><path fill="none" stroke="none" d=" M 0 0 L 405 0 L 405 405 L 0 405 L 0 0 Z"/></clipPath></defs><g transform="scale(1,1)" clip-path="url(#wLiQazFTFLbz)"><g transform="translate(-48.68069793010511,-123.32869024171626)"><path fill="none" stroke="rgb(0,0,0)" paint-order="fill stroke markers" d=" M 250.5 2.5 L 250.5 702.5" stroke-opacity="1" stroke-miterlimit="10"/><path fill="none" stroke="rgb(0,0,0)" paint-order="fill stroke markers" d=" M 250.5 1.5 L 242.5 9.5" stroke-opacity="1" stroke-miterlimit="10"/><path fill="none" stroke="rgb(0,0,0)" paint-order="fill stroke markers" d=" M 250.5 1.5 L 258.5 9.5" stroke-opacity="1" stroke-miterlimit="10"/><path fill="none" stroke="rgb(0,0,0)" paint-order="fill stroke markers" d=" M 0.5 325.5 L 634.5 325.5" stroke-opacity="1" stroke-miterlimit="10"/><path fill="none" stroke="rgb(0,0,0)" paint-order="fill stroke markers" d=" M 635.5 325.5 L 627.5 317.5" stroke-opacity="1" stroke-miterlimit="10"/><path fill="none" stroke="rgb(0,0,0)" paint-order="fill stroke markers" d=" M 635.5 325.5 L 627.5 333.5" stroke-opacity="1" stroke-miterlimit="10"/><text fill="rgb(0,0,0)" stroke="none" font-family="geogebra-sans-serif, sans-serif" font-size="24px" font-style="normal" font-weight="normal" text-decoration="normal" x="71" y="353" text-anchor="start" dominant-baseline="alphabetic" fill-opacity="1">–1</text><text fill="none" stroke="rgb(255,255,255)" font-family="geogebra-sans-serif, sans-serif" font-size="24px" font-style="normal" font-weight="normal" text-decoration="normal" x="71" y="353" text-anchor="start" dominant-baseline="alphabetic" stroke-opacity="1" stroke-linejoin="bevel" stroke-miterlimit="10" stroke-width="3">–1</text><text fill="rgb(0,0,0)" stroke="none" font-family="geogebra-sans-serif, sans-serif" font-size="24px" font-style="normal" font-weight="normal" text-decoration="normal" x="71" y="353" text-anchor="start" dominant-baseline="alphabetic" fill-opacity="1">–1</text><path fill="none" stroke="rgb(0,0,0)" paint-order="fill stroke markers" d=" M 82.5 325.5 L 82.5 328.5" stroke-opacity="1" stroke-miterlimit="10"/><path fill="none" stroke="rgb(0,0,0)" paint-order="fill stroke markers" d=" M 250.5 325.5 L 250.5 328.5" stroke-opacity="1" stroke-miterlimit="10"/><text fill="rgb(0,0,0)" stroke="none" font-family="geogebra-sans-serif, sans-serif" font-size="24px" font-style="normal" font-weight="normal" text-decoration="normal" x="413" y="353" text-anchor="start" dominant-baseline="alphabetic" fill-opacity="1">1</text><text fill="none" stroke="rgb(255,255,255)" font-family="geogebra-sans-serif, sans-serif" font-size="24px" font-style="normal" font-weight="normal" text-decoration="normal" x="413" y="353" text-anchor="start" dominant-baseline="alphabetic" stroke-opacity="1" stroke-linejoin="bevel" stroke-miterlimit="10" stroke-width="3">1</text><text fill="rgb(0,0,0)" stroke="none" font-family="geogebra-sans-serif, sans-serif" font-size="24px" font-style="normal" font-weight="normal" text-decoration="normal" x="413" y="353" text-anchor="start" dominant-baseline="alphabetic" fill-opacity="1">1</text><path fill="none" stroke="rgb(0,0,0)" paint-order="fill stroke markers" d=" M 418.5 325.5 L 418.5 328.5" stroke-opacity="1" stroke-miterlimit="10"/><text fill="rgb(0,0,0)" stroke="none" font-family="geogebra-sans-serif, sans-serif" font-size="24px" font-style="normal" font-weight="normal" text-decoration="normal" x="582" y="353" text-anchor="start" dominant-baseline="alphabetic" fill-opacity="1">2</text><text fill="none" stroke="rgb(255,255,255)" font-family="geogebra-sans-serif, sans-serif" font-size="24px" font-style="normal" font-weight="normal" text-decoration="normal" x="582" y="353" text-anchor="start" dominant-baseline="alphabetic" stroke-opacity="1" stroke-linejoin="bevel" stroke-miterlimit="10" stroke-width="3">2</text><text fill="rgb(0,0,0)" stroke="none" font-family="geogebra-sans-serif, sans-serif" font-size="24px" font-style="normal" font-weight="normal" text-decoration="normal" x="582" y="353" text-anchor="start" dominant-baseline="alphabetic" fill-opacity="1">2</text><path fill="none" stroke="rgb(0,0,0)" paint-order="fill stroke markers" d=" M 587.5 325.5 L 587.5 328.5" stroke-opacity="1" stroke-miterlimit="10"/><path fill="none" stroke="rgb(0,0,0)" paint-order="fill stroke markers" d=" M 247.5 661.5 L 250.5 661.5" stroke-opacity="1" stroke-miterlimit="10"/><path fill="none" stroke="rgb(0,0,0)" paint-order="fill stroke markers" d=" M 247.5 493.5 L 250.5 493.5" stroke-opacity="1" stroke-miterlimit="10"/><path fill="none" stroke="rgb(0,0,0)" paint-order="fill stroke markers" d=" M 247.5 156.5 L 250.5 156.5" stroke-opacity="1" stroke-miterlimit="10"/><text fill="rgb(0,0,0)" stroke="none" font-family="geogebra-sans-serif, sans-serif" font-size="24px" font-style="normal" font-weight="normal" text-decoration="normal" x="213" y="672" text-anchor="start" dominant-baseline="alphabetic" fill-opacity="1">–2</text><text fill="none" stroke="rgb(255,255,255)" font-family="geogebra-sans-serif, sans-serif" font-size="24px" font-style="normal" font-weight="normal" text-decoration="normal" x="213" y="672" text-anchor="start" dominant-baseline="alphabetic" stroke-opacity="1" stroke-linejoin="bevel" stroke-miterlimit="10" stroke-width="3">–2</text><text fill="rgb(0,0,0)" stroke="none" font-family="geogebra-sans-serif, sans-serif" font-size="24px" font-style="normal" font-weight="normal" text-decoration="normal" x="213" y="672" text-anchor="start" dominant-baseline="alphabetic" fill-opacity="1">–2</text><text fill="rgb(0,0,0)" stroke="none" font-family="geogebra-sans-serif, sans-serif" font-size="24px" font-style="normal" font-weight="normal" text-decoration="normal" x="213" y="504" text-anchor="start" dominant-baseline="alphabetic" fill-opacity="1">–1</text><text fill="none" stroke="rgb(255,255,255)" font-family="geogebra-sans-serif, sans-serif" font-size="24px" font-style="normal" font-weight="normal" text-decoration="normal" x="213" y="504" text-anchor="start" dominant-baseline="alphabetic" stroke-opacity="1" stroke-linejoin="bevel" stroke-miterlimit="10" stroke-width="3">–1</text><text fill="rgb(0,0,0)" stroke="none" font-family="geogebra-sans-serif, sans-serif" font-size="24px" font-style="normal" font-weight="normal" text-decoration="normal" x="213" y="504" text-anchor="start" dominant-baseline="alphabetic" fill-opacity="1">–1</text><text fill="rgb(0,0,0)" stroke="none" font-family="geogebra-sans-serif, sans-serif" font-size="24px" font-style="normal" font-weight="normal" text-decoration="normal" x="227" y="167" text-anchor="start" dominant-baseline="alphabetic" fill-opacity="1">1</text><text fill="none" stroke="rgb(255,255,255)" font-family="geogebra-sans-serif, sans-serif" font-size="24px" font-style="normal" font-weight="normal" text-decoration="normal" x="227" y="167" text-anchor="start" dominant-baseline="alphabetic" stroke-opacity="1" stroke-linejoin="bevel" stroke-miterlimit="10" stroke-width="3">1</text><text fill="rgb(0,0,0)" stroke="none" font-family="geogebra-sans-serif, sans-serif" font-size="24px" font-style="normal" font-weight="normal" text-decoration="normal" x="227" y="167" text-anchor="start" dominant-baseline="alphabetic" fill-opacity="1">1</text><text fill="rgb(0,0,0)" stroke="none" font-family="geogebra-sans-serif, sans-serif" font-size="24px" font-style="normal" font-weight="normal" text-decoration="normal" x="227" y="353" text-anchor="start" dominant-baseline="alphabetic" fill-opacity="1">0</text><text fill="none" stroke="rgb(255,255,255)" font-family="geogebra-sans-serif, sans-serif" font-size="24px" font-style="normal" font-weight="normal" text-decoration="normal" x="227" y="353" text-anchor="start" dominant-baseline="alphabetic" stroke-opacity="1" stroke-linejoin="bevel" stroke-miterlimit="10" stroke-width="3">0</text><text fill="rgb(0,0,0)" stroke="none" font-family="geogebra-sans-serif, sans-serif" font-size="24px" font-style="normal" font-weight="normal" text-decoration="normal" x="227" y="353" text-anchor="start" dominant-baseline="alphabetic" fill-opacity="1">0</text><path fill="none" stroke="rgb(46,125,50)" paint-order="fill stroke markers" d=" M 250.62002725147414 325.2680195630858 L 256.8135824488398 325.1920093899303 L 262.99594759530254 324.964207771315 L 269.15595735049834 324.5853008307707 L 275.2824957369645 324.05643017885484 L 281.3645206762893 323.3791900250963 L 287.3910883512901 322.5556231445806 L 293.3513773368779 321.5882157090075 L 299.23471244282103 320.4798909948233 L 305.0305882123095 319.234001983767 L 310.72869202104687 317.85432287387215 L 316.31892672255265 316.3450395216217 L 321.79143278644557 314.71073883856354 L 327.1366098776908 312.9563971682425 L 332.3451378261352 311.08736767179573 L 342.31648759547795 307.028459555725 L 351.63727780385955 302.5838373809776 L 360.2450092258069 297.80839106730843 L 368.08342391873043 292.7615198279685 L 375.10298284145927 287.5065278192236 L 381.26128042844744 282.10997907307 L 386.52339227767686 276.64101801081415 L 390.8621527500657 271.1706621739423 L 394.25835994846267 265.7710740833342 L 396.7009062386189 260.51481934570376 L 398.18683318621487 255.47411826516307 L 398.57236456759387 253.05689066840995 L 398.7213105062249 250.72009828665054 L 398.31753934670076 246.32205459596022 L 397.7700913799491 244.27749899484576 L 396.99658095145986 242.34672612826125 L 396.0008287843684 240.5375638433971 L 394.7871124582389 238.85759409399432 L 393.3601549723261 237.31413273302383 L 391.7251122837763 235.9142099192382 L 387.8534782183377 233.57155921908173 L 385.62923766810775 232.64129638889423 L 383.22158199295825 231.87946807988646 L 377.8847646869838 230.88205752287269 L 371.9037779055563 230.61725156108082 L 365.3441761711012 231.11634374887888 L 358.2756664347144 232.40362656273138 L 350.7714210181743 234.49608734931502 L 342.9073606412464 237.40317393804742 L 334.7614144687112 241.12663234584846 L 326.41276432445466 245.6604183089126 L 317.9410803639852 250.99068366610678 L 309.42575557051754 257.09583789816645 L 300.94514644259647 263.94668440306793 L 292.57582717311976 271.50663036778985 L 284.3918644812378 279.73196838706957 L 276.4641200513022 288.57222728755266 L 268.8595872588349 297.9705889475866 L 261.6407685250442 307.864367265277 L 258.1941631280979 312.9759747044742 L 254.86509924200993 318.18554482643106 L 251.65987858169754 323.4838391455621 L 248.58442375415933 328.86136226547353 L 245.64426507407697 334.3083827852869 L 242.84452837247647 339.81495480170634 L 240.18992382713793 345.3709399561987 L 237.68473584095156 350.9660299753241 L 235.33281399186615 356.5897696510525 L 233.13756507546552 362.23158020681933 L 231.10194625855192 367.8807829941256 L 229.22845935940774 373.5266234636761 L 227.51914626767157 379.1582953543595 L 225.97558551398848 384.76496504283733 L 224.5988899968039 390.33579599609226 L 223.38970587085458 395.8599732690209 L 222.34821259908963 401.3267279890231 L 221.4741241669275 406.7253617695465 L 220.76669145493145 412.0452709946963 L 220.22470576317417 417.2759709172984 L 219.84650347776395 422.40711951323885 L 219.62997186723496 427.4285410354529 L 219.67126672142996 437.1024700306397 L 220.32299600957793 446.2205482646093 L 221.55293404512744 454.70966368685026 L 223.3225966359751 462.5014705299497 L 225.58767588447913 469.53301521310823 L 228.29853258069957 475.7473135038372 L 231.4007412886103 481.0938734496003 L 234.83568271431625 485.52915910557294 L 238.54117748709322 489.01699064686466 L 240.47514186958037 490.39639967680336 L 242.45215508277542 491.5288770580664 L 246.5013512785109 493.04427823406814 L 247.5272136180675 493.2657937630441 L 248.55633807797463 493.4241001989943 L 250.62002725147414 493.5507939975604 L 252.68371642497362 493.4241001989944 L 254.7387032244374 493.04427823406814 L 256.776308487885 492.4121057976849 L 258.78789942017283 491.5288770580664 L 262.69887701585503 489.01699064686466 L 264.58143637373644 487.39347095847666 L 266.404371788632 485.52915910557294 L 269.83931321433795 481.0938734496003 L 272.9415219222487 475.7473135038373 L 275.65237861846913 469.53301521310823 L 277.9174578669732 462.50147052994976 L 279.6871204578208 454.70966368685026 L 280.91705849337035 446.2205482646093 L 281.5687877815183 437.1024700306398 L 281.6100826357133 427.4285410354529 L 281.3935510251843 422.4071195132389 L 281.01534873977414 417.2759709172985 L 280.47336304801684 412.04527099469635 L 279.7659303360208 406.72536176954657 L 278.8918419038587 401.32672798902314 L 277.8503486320937 395.8599732690209 L 276.6411645061444 390.3357959960923 L 275.26446898895983 384.76496504283745 L 273.72090823527674 379.15829535435955 L 272.01159514354055 373.52662346367606 L 270.13810824439645 367.88078299412575 L 268.10248942748285 362.23158020681956 L 265.90724051108225 356.58976965105273 L 263.5553186619967 350.96602997532403 L 261.0501306758104 345.37093995619875 L 258.39552613047186 339.8149548017064 L 255.5957894288713 334.3083827852869 L 252.65563074878898 328.8613622654736 L 249.58017592125083 323.48383914556223 L 246.37495526093838 318.1855448264311 L 243.04589137485038 312.9759747044742 L 239.59928597790417 307.86436726527717 L 232.3804672441135 297.97058894758675 L 224.77593445164612 288.5722272875527 L 216.84819002171045 279.73196838706957 L 208.66422732982863 271.50663036778997 L 200.29490806035187 263.946684403068 L 191.81429893243086 257.09583789816656 L 183.29897413896305 250.99068366610672 L 174.82729017849357 245.66041830891257 L 166.47864003423706 241.1266323458485 L 158.33269386170198 237.40317393804744 L 150.4686334847741 234.49608734931508 L 142.96438806823386 232.40362656273135 L 135.8958783318471 231.11634374887888 L 129.336276597392 230.61725156108082 L 123.35528981596454 230.88205752287269 L 118.01847250999006 231.87946807988646 L 113.3865762846105 233.57155921908173 L 111.35249465150841 234.66455118598373 L 109.51494221917199 235.9142099192382 L 106.45294204470943 238.8575940939943 L 105.81912325079819 239.68096619148758 L 105.23922571857989 240.5375638433971 L 104.24347355148845 242.34672612826122 L 103.46996312299916 244.27749899484573 L 102.92251515624753 246.32205459596017 L 102.51874399672337 250.72009828665045 L 102.66768993535442 253.05689066840995 L 103.05322131673344 255.4741182651631 L 104.53914826432933 260.51481934570376 L 106.98169455448561 265.77107408333416 L 110.37790175288248 271.1706621739422 L 114.71666222527142 276.6410180108141 L 119.97877407450085 282.10997907307 L 126.13707166148889 287.50652781922355 L 133.1566305842178 292.7615198279685 L 140.99504527714146 297.80839106730843 L 149.60277669908862 302.58383738097757 L 158.92356690747005 307.0284595557249 L 168.89491667681318 311.08736767179573 L 174.10344462525737 312.95639716824246 L 179.44862171650266 314.71073883856354 L 184.92112778039558 316.3450395216217 L 190.51136248190141 317.8543228738721 L 196.2094662906388 319.234001983767 L 202.00534206012708 320.4798909948232 L 207.88867716607027 321.58821570900744 L 213.84896615165815 322.5556231445806 L 219.87553382665897 323.3791900250963 L 225.95755876598383 324.05643017885484 L 232.08409715245003 324.58530083077073 L 238.24410690764557 324.964207771315 L 244.4264720541084 325.1920093899303 L 250.62002725147408 325.2680195630858 L 256.8135824488398 325.1920093899303 L 262.9959475953026 324.964207771315 L 269.1559573504981 324.58530083077073 L 275.28249573696434 324.0564301788549 L 281.3645206762892 323.37919002509636 L 287.39108835129 322.5556231445806 L 293.3513773368779 321.5882157090075 L 299.2347124428211 320.4798909948232 L 305.03058821230934 319.23400198376703 L 310.72869202104675 317.85432287387215 L 316.3189267225526 316.34503952162174 L 321.7914327864455 314.71073883856354 L 327.13660987769083 312.9563971682425 L 332.345137826135 311.0873676717958 L 342.3164875954781 307.02845955572496 L 351.63727780385955 302.5838373809776 L 360.2450092258067 297.8083910673085 L 368.08342391873043 292.7615198279686 L 375.1029828414593 287.5065278192236 L 381.2612804284474 282.10997907307006 L 386.5233922776768 276.64101801081415 L 390.8621527500658 271.1706621739423 L 394.2583599484626 265.7710740833342 L 396.7009062386189 260.5148193457038 L 398.1868331862148 255.47411826516313 L 398.57236456759387 253.05689066841 L 398.7213105062249 250.7200982866505 L 398.31753934670076 246.3220545959602 L 397.7700913799491 244.27749899484576 L 396.9965809514598 242.34672612826125 L 396.0008287843684 240.5375638433971 L 394.7871124582389 238.85759409399435 L 393.36015497232614 237.31413273302385 L 391.7251122837763 235.91420991923826 L 387.85347821833784 233.57155921908173 L 385.6292376681077 232.64129638889426 L 383.22158199295825 231.87946807988646 L 377.8847646869838 230.88205752287269 L 371.90377790555635 230.61725156108082 L 365.34417617110125 231.11634374887888 L 358.27566643471454 232.40362656273132 L 350.7714210181742 234.4960873493151 L 342.9073606412464 237.40317393804742 L 334.76141446871134 241.12663234584835 L 326.41276432445477 245.6604183089125 L 317.94108036398524 250.99068366610675 L 309.4257555705177 257.09583789816634 L 300.9451464425967 263.9466844030677 L 292.57582717311993 271.5066303677897 L 284.39186448123775 279.7319683870697 L 276.46412005130225 288.5722272875526 L 268.85958725883484 297.9705889475867 L 261.6407685250441 307.86436726527717 L 258.1941631280981 312.97597470447386 L 254.86509924200996 318.185544826431 L 251.65987858169768 323.4838391455619 L 248.58442375415945 328.86136226547336 L 245.64426507407688 334.308382785287 L 242.8445283724765 339.8149548017063 L 240.18992382713796 345.37093995619864 L 237.6847358409516 350.96602997532403 L 235.33281399186612 356.5897696510526 L 233.1375650754656 362.23158020681916 L 231.10194625855183 367.8807829941258 L 229.22845935940788 373.5266234636757 L 227.51914626767157 379.15829535435944 L 225.97558551398856 384.76496504283705 L 224.59888999680396 390.3357959960921 L 223.38970587085456 395.85997326902105 L 222.34821259908966 401.3267279890229 L 221.47412416692754 406.72536176954645 L 220.76669145493145 412.04527099469624 L 220.22470576317414 417.27597091729854 L 219.84650347776397 422.4071195132387 L 219.62997186723493 427.42854103545295 L 219.67126672142993 437.1024700306397 L 220.32299600957796 446.22054826460914 L 221.55293404512742 454.7096636868501 L 223.32259663597503 462.50147052994964 L 225.5876758844791 469.5330152131081 L 228.29853258069951 475.74731350383706 L 231.40074128861033 481.09387344960044 L 234.8356827143163 485.52915910557306 L 238.54117748709325 489.0169906468646 L 240.4751418695803 490.39639967680336 L 242.45215508277545 491.5288770580664 L 246.50135127851087 493.04427823406814 L 247.52721361806744 493.2657937630441 L 248.55633807797454 493.4241001989943 L 250.6200272514741 493.5507939975604 L 252.68371642497368 493.4241001989943 L 254.73870322443736 493.04427823406814 L 256.776308487885 492.4121057976849 L 258.7878994201728 491.5288770580664 L 262.698877015855 489.01699064686466 L 264.58143637373644 487.39347095847666 L 266.4043717886319 485.52915910557306 L 269.8393132143379 481.09387344960044 L 272.94152192224874 475.7473135038371 L 275.65237861846913 469.53301521310823 L 277.9174578669732 462.50147052994976 L 279.6871204578208 454.7096636868502 L 280.9170584933703 446.22054826460925 L 281.5687877815183 437.10247003063984 L 281.61008263571335 427.4285410354531 L 281.3935510251843 422.40711951323885 L 281.01534873977414 417.27597091729865 L 280.47336304801684 412.0452709946964 L 279.7659303360208 406.7253617695466 L 278.8918419038586 401.3267279890231 L 277.85034863209376 395.8599732690212 L 276.6411645061443 390.33579599609226 L 275.2644689889598 384.7649650428372 L 273.72090823527674 379.1582953543596 L 272.01159514354043 373.5266234636759 L 270.1381082443965 367.880782994126 L 268.10248942748274 362.23158020681933 L 265.90724051108225 356.5897696510528 L 263.55531866199675 350.9660299753242 L 261.0501306758104 345.3709399561988 L 258.39552613047186 339.81495480170645 L 255.59578942887148 334.30838278528717 L 252.65563074878892 328.86136226547353 L 249.5801759212507 323.48383914556206 L 246.3749552609384 318.18554482643117 L 243.04589137485024 312.97597470447397 L 239.5992859779043 307.86436726527734 L 232.38046724411353 297.9705889475868 L 224.77593445164618 288.5722272875527 L 216.84819002171085 279.7319683870701 L 208.66422732982846 271.5066303677898 L 200.29490806035173 263.9466844030678 L 191.8142989324309 257.0958378981667 L 183.2989741389632 250.99068366610686 L 174.82729017849363 245.6604183089126 L 166.47864003423706 241.12663234584844 L 158.3326938617019 237.4031739380473 L 150.46863348477422 234.49608734931513 L 142.96438806823403 232.4036265627314 L 135.8958783318472 231.11634374887882 L 129.3362765973922 230.6172515610809 L 123.35528981596444 230.88205752287269 L 118.01847250999 231.87946807988646 L 113.38657628461058 233.5715592190818 L 111.35249465150852 234.6645511859837 L 109.51494221917204 235.9142099192382 L 106.45294204470943 238.8575940939943 L 105.81912325079821 239.68096619148758 L 105.23922571857995 240.53756384339698 L 104.24347355148845 242.3467261282612 L 103.46996312299913 244.27749899484579 L 102.92251515624756 246.32205459596017 L 102.51874399672337 250.72009828665043 L 102.66768993535436 253.0568906684099 L 103.05322131673341 255.47411826516299 L 104.53914826432936 260.5148193457037 L 106.98169455448541 265.771074083334 L 110.37790175288256 271.17066217394233 L 114.71666222527153 276.64101801081415 L 119.97877407450065 282.1099790730699 L 126.13707166148886 287.50652781922355 L 133.15663058421774 292.7615198279685 L 140.9950452771414 297.80839106730843 L 149.60277669908882 302.5838373809776 L 158.92356690747002 307.0284595557249 L 168.89491667681287 311.0873676717956 L 174.10344462525734 312.95639716824246 L 179.4486217165026 314.7107388385635 L 184.92112778039552 316.3450395216217 L 190.51136248190136 317.85432287387215 L 196.20946629063874 319.234001983767 L 202.00534206012728 320.4798909948233 L 207.8886771660705 321.58821570900744 L 213.84896615165837 322.5556231445806 L 219.8755338266586 323.3791900250963 L 225.95755876598346 324.05643017885484 L 232.08409715244966 324.5853008307707 L 238.24410690764552 324.96420777131493 L 244.42647205410833 325.1920093899303 L 250.62002725147403 325.2680195630858" stroke-opacity="0.8" stroke-linecap="round" stroke-linejoin="round" stroke-miterlimit="10" stroke-width="2.5"/><text fill="rgb(46,125,50)" stroke="none" font-family="geogebra-sans-serif, sans-serif" font-size="32px" font-style="normal" font-weight="normal" text-decoration="normal" x="284" y="375" text-anchor="start" dominant-baseline="alphabetic" fill-opacity="1">r=sin(3θ)</text><text fill="none" stroke="rgb(255,255,255)" font-family="geogebra-sans-serif, sans-serif" font-size="32px" font-style="normal" font-weight="normal" text-decoration="normal" x="284" y="375" text-anchor="start" dominant-baseline="alphabetic" stroke-opacity="1" stroke-linejoin="bevel" stroke-miterlimit="10" stroke-width="3">r=sin(3θ)</text><text fill="rgb(46,125,50)" stroke="none" font-family="geogebra-sans-serif, sans-serif" font-size="32px" font-style="normal" font-weight="normal" text-decoration="normal" x="284" y="375" text-anchor="start" dominant-baseline="alphabetic" fill-opacity="1">r=sin(3θ)</text></g></g></svg>