<?xml version="1.0" encoding="UTF-8" standalone="no"?>
<svg version="1.1"
baseProfile="full"
width="161" height="207"
viewBox="0 0 161 207" preserveAspectRatio="defer"
xmlns="http://www.w3.org/2000/svg"
xmlns:xlink="http://www.w3.org/1999/xlink"
xmlns:ev="http://www.w3.org/2001/xml-events">
<title>PEAnut 2D plotter</title>
<rect x="0" y="0" width="161" height="207" fill="#ffffff" stroke="#ffffff" stroke-width="1px" />
<line x1="0" y1="189" x2="160" y2="189" stroke="#808080" stroke-width="1px" />
<line x1="0" y1="172" x2="160" y2="172" stroke="#808080" stroke-width="1px" />
<line x1="0" y1="154" x2="160" y2="154" stroke="#808080" stroke-width="1px" />
<line x1="0" y1="137" x2="160" y2="137" stroke="#808080" stroke-width="1px" />
<line x1="0" y1="120" x2="160" y2="120" stroke="#808080" stroke-width="1px" />
<line x1="0" y1="103" x2="160" y2="103" stroke="#808080" stroke-width="1px" />
<line x1="0" y1="86" x2="160" y2="86" stroke="#808080" stroke-width="1px" />
<line x1="0" y1="69" x2="160" y2="69" stroke="#808080" stroke-width="1px" />
<line x1="0" y1="51" x2="160" y2="51" stroke="#808080" stroke-width="1px" />
<line x1="0" y1="34" x2="160" y2="34" stroke="#808080" stroke-width="1px" />
<line x1="0" y1="34" x2="160" y2="34" stroke="#808080" stroke-width="1px" />
<line x1="0" y1="17" x2="160" y2="17" stroke="#808080" stroke-width="1px" />
<line x1="0" y1="0" x2="160" y2="0" stroke="#808080" stroke-width="1px" />
<line x1="20" y1="206" x2="20" y2="0" stroke="#808080" stroke-width="1px" />
<line x1="40" y1="206" x2="40" y2="0" stroke="#808080" stroke-width="1px" />
<line x1="60" y1="206" x2="60" y2="0" stroke="#808080" stroke-width="1px" />
<line x1="80" y1="206" x2="80" y2="0" stroke="#808080" stroke-width="1px" />
<line x1="80" y1="206" x2="80" y2="0" stroke="#808080" stroke-width="1px" />
<line x1="100" y1="206" x2="100" y2="0" stroke="#808080" stroke-width="1px" />
<line x1="120" y1="206" x2="120" y2="0" stroke="#808080" stroke-width="1px" />
<line x1="140" y1="206" x2="140" y2="0" stroke="#808080" stroke-width="1px" />
<line x1="160" y1="206" x2="160" y2="0" stroke="#808080" stroke-width="1px" />
<line x1="0" y1="34" x2="160" y2="34" stroke="#000000" stroke-width="1px" />
<line x1="152" y1="31" x2="159" y2="34" stroke="#000000" stroke-width="1px" />
<line x1="159" y1="34" x2="152" y2="37" stroke="#000000" stroke-width="1px" />
<line x1="0" y1="39" x2="0" y2="29" stroke="#000000" stroke-width="1px" />
<line x1="20" y1="39" x2="20" y2="29" stroke="#000000" stroke-width="1px" />
<line x1="40" y1="39" x2="40" y2="29" stroke="#000000" stroke-width="1px" />
<line x1="60" y1="39" x2="60" y2="29" stroke="#000000" stroke-width="1px" />
<line x1="100" y1="39" x2="100" y2="29" stroke="#000000" stroke-width="1px" />
<line x1="120" y1="39" x2="120" y2="29" stroke="#000000" stroke-width="1px" />
<line x1="140" y1="39" x2="140" y2="29" stroke="#000000" stroke-width="1px" />
<line x1="160" y1="39" x2="160" y2="29" stroke="#000000" stroke-width="1px" />
<line x1="80" y1="206" x2="80" y2="0" stroke="#000000" stroke-width="1px" />
<line x1="77" y1="8" x2="80" y2="1" stroke="#000000" stroke-width="1px" />
<line x1="80" y1="1" x2="83" y2="8" stroke="#000000" stroke-width="1px" />
<line x1="75" y1="206" x2="85" y2="206" stroke="#000000" stroke-width="1px" />
<line x1="75" y1="189" x2="85" y2="189" stroke="#000000" stroke-width="1px" />
<line x1="75" y1="172" x2="85" y2="172" stroke="#000000" stroke-width="1px" />
<line x1="75" y1="154" x2="85" y2="154" stroke="#000000" stroke-width="1px" />
<line x1="75" y1="137" x2="85" y2="137" stroke="#000000" stroke-width="1px" />
<line x1="75" y1="120" x2="85" y2="120" stroke="#000000" stroke-width="1px" />
<line x1="75" y1="103" x2="85" y2="103" stroke="#000000" stroke-width="1px" />
<line x1="75" y1="86" x2="85" y2="86" stroke="#000000" stroke-width="1px" />
<line x1="75" y1="69" x2="85" y2="69" stroke="#000000" stroke-width="1px" />
<line x1="75" y1="51" x2="85" y2="51" stroke="#000000" stroke-width="1px" />
<line x1="75" y1="17" x2="85" y2="17" stroke="#000000" stroke-width="1px" />
<line x1="75" y1="0" x2="85" y2="0" stroke="#000000" stroke-width="1px" />
<path d="M 14 204 L 15 199 16 193 17 188 18 183 19 178 20 173 21 168 22 164 23 159 24 155 25 151 26 147 27 143 28 140 29 136 30 133 31 129 32 126 33 123 34 120 35 117 36 114 37 112 38 109 39 107 40 104 40 102 41 100 42 97 43 95 44 93 45 91 46 89 47 87 48 86 49 84 50 82 51 81 52 79 53 78 54 76 55 75 56 73 57 72 58 71 59 70 60 68 61 67 62 66 63 65 64 64 65 63 66 62 67 61 68 60 69 59 70 59 71 58 72 57 73 56 74 55 75 55 76 54 77 53 78 53 79 52 80 51 81 51 82 50 83 50 84 49 85 49 86 48 87 48 88 47 89 47 90 47 91 46 92 46 93 45 94 45 95 45 96 44 97 44 98 44 99 43 100 43 101 43 102 42 103 42 104 42 105 42 106 41 107 41 108 41 109 41 110 40 111 40 112 40 113 40 114 40 115 40 116 39 117 39 118 39 119 39 120 39 120 39 121 38 122 38 123 38 124 38 125 38 126 38 127 38 128 38 129 37 130 37 131 37 132 37 133 37 134 37 135 37 136 37 137 37 138 37 139 37 140 36 141 36 142 36 143 36 144 36 145 36 146 36 147 36 148 36 149 36 150 36 151 36 152 36 153 36 154 36 155 36 156 36 157 36 158 35 159 35 160 35" fill="none" stroke="#ff0000" stroke-width="2px" />
<polygon fill="#ffffff" stroke="#ffffff" stroke-width="1px" points="33,42 47,42 47,58 33,58" />
<text x="33" y="54" font-family="Symbol" font-size="13" font-weight="400" fill="#000000" text-anchor="start"> -2 </text>
<polygon fill="#ffffff" stroke="#ffffff" stroke-width="1px" points="117,42 124,42 124,58 117,58" />
<text x="117" y="54" font-family="Symbol" font-size="13" font-weight="400" fill="#000000" text-anchor="start"> 2 </text>
<polygon fill="#ffffff" stroke="#ffffff" stroke-width="1px" points="58,112 72,112 72,128 58,128" />
<text x="58" y="124" font-family="Symbol" font-size="13" font-weight="400" fill="#000000" text-anchor="start"> -5 </text>
<polygon fill="#ffffff" stroke="#ffffff" stroke-width="1px" points="151,10 156,10 156,25 151,25" />
<text x="151" y="22" font-family="Times" font-size="13" font-weight="400" fill="#000000" text-anchor="start"> x </text>
<polygon fill="#ffffff" stroke="#ffffff" stroke-width="1px" points="89,2 96,2 96,17 89,17" />
<text x="89" y="14" font-family="Times" font-size="13" font-weight="400" fill="#000000" text-anchor="start"> y </text>
</svg>
