<?xml version="1.0" encoding="UTF-8" standalone="no"?>
<!-- Created with Inkscape (http://www.inkscape.org/) -->

<svg
   xmlns:dc="http://purl.org/dc/elements/1.1/"
   xmlns:cc="http://creativecommons.org/ns#"
   xmlns:rdf="http://www.w3.org/1999/02/22-rdf-syntax-ns#"
   xmlns:svg="http://www.w3.org/2000/svg"
   xmlns="http://www.w3.org/2000/svg"
   xmlns:sodipodi="http://sodipodi.sourceforge.net/DTD/sodipodi-0.dtd"
   xmlns:inkscape="http://www.inkscape.org/namespaces/inkscape"
   width="2.0895634in"
   height="1.4244089in"
   viewBox="0 0 53.07491 36.179986"
   version="1.1"
   id="svg1929"
   inkscape:version="0.92.2 (5c3e80d, 2017-08-06)"
   sodipodi:docname="fig-ex-a-4-4.svg">
  <defs
     id="defs1923" />
  <sodipodi:namedview
     id="base"
     pagecolor="#ffffff"
     bordercolor="#666666"
     borderopacity="1.0"
     inkscape:pageopacity="0.0"
     inkscape:pageshadow="2"
     inkscape:zoom="0.35"
     inkscape:cx="100.29904"
     inkscape:cy="68.371623"
     inkscape:document-units="mm"
     inkscape:current-layer="layer1"
     showgrid="false"
     units="in"
     fit-margin-top="0"
     fit-margin-left="0"
     fit-margin-right="0"
     fit-margin-bottom="0"
     inkscape:window-width="1366"
     inkscape:window-height="745"
     inkscape:window-x="-8"
     inkscape:window-y="-8"
     inkscape:window-maximized="1" />
  <metadata
     id="metadata1926">
    <rdf:RDF>
      <cc:Work
         rdf:about="">
        <dc:format>image/svg+xml</dc:format>
        <dc:type
           rdf:resource="http://purl.org/dc/dcmitype/StillImage" />
        <dc:title></dc:title>
      </cc:Work>
    </rdf:RDF>
  </metadata>
  <g
     inkscape:label="Layer 1"
     inkscape:groupmode="layer"
     id="layer1"
     transform="translate(-79.295879,-130.74334)">
    <text
       y="167.04897"
       x="100.75975"
       transform="matrix(0.99996152,-0.00739938,0.00739938,0.99998372,0,0)"
       style="font-variant:normal;font-weight:normal;font-size:3.1752634px;font-family:'Times New Roman';-inkscape-font-specification:Times-Roman;writing-mode:lr-tb;fill:#231f20;fill-opacity:1;fill-rule:nonzero;stroke:none;stroke-width:0.35277385"
       id="text1060">
      <tspan
         style="stroke-width:0.35277385"
         x="100.75975 102.69984 103.58256 106.05291 107.46273 108.25655 109.3139 111.78426 113.37189 114.95953 115.84225 117.42988"
         y="167.04897"
         sodipodi:role="line"
         id="tspan1058">Time (month)</tspan>
    </text>
    <text
       y="80.440613"
       x="-154.03342"
       transform="rotate(-90.423971)"
       style="font-variant:normal;font-weight:normal;font-size:3.17515755px;font-family:'Times New Roman';-inkscape-font-specification:Times-Roman;writing-mode:lr-tb;fill:#231f20;fill-opacity:1;fill-rule:nonzero;stroke:none;stroke-width:0.35277775"
       id="text1066">
      <tspan
         style="stroke-width:0.35277775"
         x="-154.03342 -152.26804 -150.68045 -149.09286 -147.50529 -146.6226 -145.21283 -144.33014 -143.44743 -141.85986"
         y="80.440613"
         sodipodi:role="line"
         id="tspan1062">Population</tspan>
      <tspan
         style="stroke-width:0.35277775"
         x="-154.56049 -153.50316 -152.62047 -151.0329 -149.44531 -147.85774 -146.6226 -145.21283 -143.62524 -142.03767 -140.80254"
         y="83.968529"
         sodipodi:role="line"
         id="tspan1064">(thousands)</tspan>
    </text>
    <path
       d="m 89.925626,134.52229 h 38.917384 v 24.06544 H 89.925626 Z m 4.876447,24.07073 V 134.5043 m 4.863394,24.08872 V 134.5043 m 4.863043,24.08872 V 134.5043 m 4.86339,24.08872 V 134.5043 m 4.8634,24.08872 V 134.5043 m 4.86339,24.08872 V 134.5043 m 4.86339,24.08872 V 134.5043"
       style="fill:none;stroke:#bdbcbc;stroke-width:0.12347221;stroke-linecap:butt;stroke-linejoin:miter;stroke-miterlimit:4;stroke-dasharray:none;stroke-opacity:1"
       id="path1068"
       inkscape:connector-curvature="0" />
    <text
       y="150.03711"
       x="87.34333"
       style="font-variant:normal;font-weight:normal;font-size:3.17499995px;font-family:'Times New Roman';-inkscape-font-specification:Times-Roman;writing-mode:lr-tb;fill:#231f20;fill-opacity:1;fill-rule:nonzero;stroke:none;stroke-width:0.35277775"
       id="text1076">
      <tspan
         style="stroke-width:0.35277775"
         x="87.34333"
         y="150.03711"
         id="tspan1070">2</tspan>
      <tspan
         style="stroke-width:0.35277775"
         x="87.34333"
         y="140.40193"
         id="tspan1072">4</tspan>
      <tspan
         style="stroke-width:0.35277775"
         x="120.76274 122.52804 123.93774 125.52525 126.40789 111.60922 112.84429 114.43179 115.31445 101.61908 104.44166 105.85136 91.760704 94.583282 95.992981 97.050255"
         y="161.82652"
         sodipodi:role="line"
         id="tspan1074">Sept.JulyMayMar.</tspan>
    </text>
    <path
       d="m 89.939031,139.32219 h 38.906099 m -38.906099,4.81753 h 38.906099 m -38.906099,4.81789 h 38.906099 m -38.906099,4.81753 h 38.906099"
       style="fill:none;stroke:#bdbcbc;stroke-width:0.12347221;stroke-linecap:butt;stroke-linejoin:miter;stroke-miterlimit:4;stroke-dasharray:none;stroke-opacity:1"
       id="path1078"
       inkscape:connector-curvature="0" />
    <path
       d="m 128.84266,145.39102 c 0,0 -1.27812,0 -2.98274,0 -1.70462,0 -1.89195,1.8475 -1.89195,2.60033 v 7.52792 c 0,1.64218 -1.68698,0.47872 -2.33468,-0.27411 -0.85125,-0.98918 -1.10807,-1.57409 -2.67617,-2.80564 -1.56845,-1.2319 -2.30117,-2.87408 -2.57387,-3.55847 -0.27269,-0.68439 -1.55328,-2.52941 -2.38619,-3.21627 -1.24389,-1.02658 -1.47037,-1.80975 -2.45427,-3.28472 -1.24425,-1.86513 -1.9431,-3.06246 -5.31777,-3.07939 -5.52591,-0.0282 -7.3085,3.11044 -7.908575,3.83187 -0.591961,0.71226 -1.840794,3.9691 -2.386189,4.99569 -0.545747,1.02658 -1.704622,3.35315 -2.318102,4.44817 -0.613481,1.09467 -1.090789,3.14784 -3.681236,3.35315"
       style="fill:none;stroke:#ef2f2c;stroke-width:0.42333335;stroke-linecap:butt;stroke-linejoin:miter;stroke-miterlimit:4;stroke-dasharray:none;stroke-opacity:1"
       id="path1080"
       inkscape:connector-curvature="0" />
    <path
       d="M 131.3248,158.58773 H 89.925626 v -26.79841"
       style="fill:none;stroke:#000000;stroke-width:0.24694443;stroke-linecap:butt;stroke-linejoin:miter;stroke-miterlimit:4;stroke-dasharray:none;stroke-opacity:1"
       id="path1082"
       inkscape:connector-curvature="0" />
    <path
       d="m 89.925626,130.74334 0.602192,1.47426 -0.602192,-0.34961 -0.602192,0.34961 0.602192,-1.47426"
       style="fill:#000000;fill-opacity:1;fill-rule:nonzero;stroke:none;stroke-width:0.35277775"
       id="path1084"
       inkscape:connector-curvature="0" />
    <path
       d="m 132.37079,158.58773 -1.47426,0.60219 0.34995,-0.60219 -0.34995,-0.60219 1.47426,0.60219"
       style="fill:#000000;fill-opacity:1;fill-rule:nonzero;stroke:none;stroke-width:0.35277775"
       id="path1086"
       inkscape:connector-curvature="0" />
  </g>
</svg>
