<?xml version="1.0" encoding="UTF-8"?>
<svg xmlns="http://www.w3.org/2000/svg" xmlns:xlink="http://www.w3.org/1999/xlink" width="97.1717pt" height="95.4142pt" viewBox="0 0 97.1717 95.4142" version="1.1">
<defs>
<clipPath id="clip1">
  <path d="M 5 1.175781 L 6 1.175781 L 6 91 L 5 91 Z M 5 1.175781 "/>
</clipPath>
<clipPath id="clip2">
  <path d="M 2.070312 1.175781 L 94 1.175781 L 94 93 L 2.070312 93 Z M 2.070312 1.175781 "/>
</clipPath>
<clipPath id="clip3">
  <path d="M 2.070312 3 L 94.070312 3 L 94.070312 88 L 2.070312 88 Z M 2.070312 3 "/>
</clipPath>
<clipPath id="clip4">
  <path d="M 2.070312 15 L 94.070312 15 L 94.070312 76 L 2.070312 76 Z M 2.070312 15 "/>
</clipPath>
<clipPath id="clip5">
  <path d="M 0 0 L 97.171875 0 L 97.171875 95.414062 L 0 95.414062 Z M 0 0 "/>
</clipPath>
</defs>
<g id="surface1">
<g clip-path="url(#clip1)" clip-rule="nonzero">
<path style="fill:none;stroke-width:0.7;stroke-linecap:butt;stroke-linejoin:miter;stroke:rgb(13.729858%,12.159729%,12.548828%);stroke-opacity:1;stroke-miterlimit:4;" d="M 361.873612 415.119669 L 361.873612 327.23295 " transform="matrix(1,0,0,-1,-356.4283,417.0142)"/>
</g>
<path style="fill:none;stroke-width:0.7;stroke-linecap:butt;stroke-linejoin:miter;stroke:rgb(13.729858%,12.159729%,12.548828%);stroke-opacity:1;stroke-miterlimit:4;" d="M 449.756425 327.23295 L 361.873612 327.23295 " transform="matrix(1,0,0,-1,-356.4283,417.0142)"/>
<g clip-path="url(#clip2)" clip-rule="nonzero">
<path style="fill:none;stroke-width:0.5;stroke-linecap:butt;stroke-linejoin:miter;stroke:rgb(13.729858%,12.159729%,12.548828%);stroke-opacity:1;stroke-miterlimit:4;" d="M 359.475175 371.178263 L 364.268144 371.178263 M 359.475175 327.174356 L 364.268144 327.174356 M 405.815019 329.631388 L 405.815019 324.834513 M 361.83455 329.631388 L 361.83455 324.834513 M 449.604081 329.631388 L 449.604081 324.834513 M 359.475175 415.123575 L 364.268144 415.123575 " transform="matrix(1,0,0,-1,-356.4283,417.0142)"/>
</g>
<g clip-path="url(#clip3)" clip-rule="nonzero">
<path style="fill:none;stroke-width:1.2;stroke-linecap:butt;stroke-linejoin:miter;stroke:rgb(12.626648%,33.805847%,68.193054%);stroke-opacity:1;stroke-miterlimit:4;" d="M 361.873612 336.705606 L 448.389237 406.650919 " transform="matrix(1,0,0,-1,-356.4283,417.0142)"/>
</g>
<path style="fill-rule:nonzero;fill:rgb(100%,100%,100%);fill-opacity:1;stroke-width:0.5;stroke-linecap:butt;stroke-linejoin:miter;stroke:rgb(93.609619%,18.434143%,17.378235%);stroke-opacity:1;stroke-miterlimit:4;" d="M 370.838456 355.916544 L 372.842362 353.916544 L 370.842362 351.916544 L 368.842362 353.916544 Z M 370.838456 355.916544 " transform="matrix(1,0,0,-1,-356.4283,417.0142)"/>
<path style="fill-rule:nonzero;fill:rgb(100%,100%,100%);fill-opacity:1;stroke-width:0.5;stroke-linecap:butt;stroke-linejoin:miter;stroke:rgb(93.609619%,18.434143%,17.378235%);stroke-opacity:1;stroke-miterlimit:4;" d="M 414.447831 372.533731 L 416.447831 370.533731 L 414.447831 368.533731 L 412.447831 370.533731 Z M 414.447831 372.533731 " transform="matrix(1,0,0,-1,-356.4283,417.0142)"/>
<path style="fill-rule:nonzero;fill:rgb(100%,100%,100%);fill-opacity:1;stroke-width:0.5;stroke-linecap:butt;stroke-linejoin:miter;stroke:rgb(93.609619%,18.434143%,17.378235%);stroke-opacity:1;stroke-miterlimit:4;" d="M 432.174394 382.303263 L 434.174394 380.303263 L 432.174394 378.303263 L 430.174394 380.303263 Z M 432.174394 382.303263 " transform="matrix(1,0,0,-1,-356.4283,417.0142)"/>
<path style="fill-rule:nonzero;fill:rgb(100%,100%,100%);fill-opacity:1;stroke-width:0.5;stroke-linecap:butt;stroke-linejoin:miter;stroke:rgb(93.609619%,18.434143%,17.378235%);stroke-opacity:1;stroke-miterlimit:4;" d="M 432.174394 390.7642 L 434.174394 388.760294 L 432.174394 386.7642 L 430.174394 388.7642 Z M 432.174394 390.7642 " transform="matrix(1,0,0,-1,-356.4283,417.0142)"/>
<g clip-path="url(#clip4)" clip-rule="nonzero">
<path style="fill:none;stroke-width:2;stroke-linecap:butt;stroke-linejoin:miter;stroke:rgb(7.798767%,53.665161%,39.753723%);stroke-opacity:1;stroke-miterlimit:4;" d="M 361.873612 353.068888 L 449.139237 390.592325 " transform="matrix(1,0,0,-1,-356.4283,417.0142)"/>
</g>
<path style="fill-rule:nonzero;fill:rgb(100%,100%,100%);fill-opacity:1;stroke-width:0.5;stroke-linecap:butt;stroke-linejoin:miter;stroke:rgb(93.609619%,18.434143%,17.378235%);stroke-opacity:1;stroke-miterlimit:4;" d="M 406.088456 373.123575 L 408.088456 371.123575 L 406.088456 369.123575 L 404.088456 371.123575 Z M 406.088456 373.123575 " transform="matrix(1,0,0,-1,-356.4283,417.0142)"/>
<path style="fill-rule:nonzero;fill:rgb(100%,100%,100%);fill-opacity:1;stroke-width:0.5;stroke-linecap:butt;stroke-linejoin:miter;stroke:rgb(93.609619%,18.434143%,17.378235%);stroke-opacity:1;stroke-miterlimit:4;" d="M 379.299394 366.377481 L 381.299394 364.377481 L 379.299394 362.377481 L 377.299394 364.377481 Z M 379.299394 366.377481 " transform="matrix(1,0,0,-1,-356.4283,417.0142)"/>
<path style="fill:none;stroke-width:0.5;stroke-linecap:butt;stroke-linejoin:miter;stroke:rgb(93.609619%,18.434143%,17.378235%);stroke-opacity:1;stroke-miterlimit:4;" d="M 379.299394 364.377481 L 381.299394 362.377481 L 379.299394 360.377481 L 377.299394 362.377481 Z M 379.299394 364.377481 " transform="matrix(1,0,0,-1,-356.4283,417.0142)"/>
<g clip-path="url(#clip5)" clip-rule="nonzero">
<path style="fill:none;stroke-width:0.5;stroke-linecap:butt;stroke-linejoin:miter;stroke:rgb(100%,100%,100%);stroke-opacity:1;stroke-miterlimit:10;" d="M 41.998612 803.998575 L 41.998612 779.998575 M -0.0013875 761.998575 L 23.998612 761.998575 M 653.998612 803.998575 L 653.998612 779.998575 M 695.998612 761.998575 L 671.998612 761.998575 M 41.998612 -0.001425 L 41.998612 23.998575 M -0.0013875 41.998575 L 23.998612 41.998575 M 653.998612 -0.001425 L 653.998612 23.998575 M 695.998612 41.998575 L 671.998612 41.998575 " transform="matrix(1,0,0,-1,-356.4283,417.0142)"/>
<path style="fill:none;stroke-width:0.25;stroke-linecap:butt;stroke-linejoin:miter;stroke:rgb(0%,0%,0%);stroke-opacity:1;stroke-miterlimit:10;" d="M 41.998612 803.998575 L 41.998612 779.998575 M -0.0013875 761.998575 L 23.998612 761.998575 M 653.998612 803.998575 L 653.998612 779.998575 M 695.998612 761.998575 L 671.998612 761.998575 M 41.998612 -0.001425 L 41.998612 23.998575 M -0.0013875 41.998575 L 23.998612 41.998575 M 653.998612 -0.001425 L 653.998612 23.998575 M 695.998612 41.998575 L 671.998612 41.998575 " transform="matrix(1,0,0,-1,-356.4283,417.0142)"/>
<path style="fill:none;stroke-width:0.5;stroke-linecap:butt;stroke-linejoin:miter;stroke:rgb(100%,100%,100%);stroke-opacity:1;stroke-miterlimit:10;" d="M 323.998612 791.998575 L 371.998612 791.998575 M 323.998612 11.998575 L 371.998612 11.998575 M 11.998612 425.998575 L 11.998612 377.998575 M 683.998612 425.998575 L 683.998612 377.998575 M 347.998612 803.998575 L 347.998612 779.998575 M 347.998612 23.998575 L 347.998612 -0.001425 M -0.0013875 401.998575 L 23.998612 401.998575 M 671.998612 401.998575 L 695.998612 401.998575 M 347.998612 791.998575 L 353.998612 791.998575 C 353.998612 788.686075 351.311112 785.998575 347.998612 785.998575 C 344.686112 785.998575 341.998612 788.686075 341.998612 791.998575 C 341.998612 795.311075 344.686112 797.998575 347.998612 797.998575 C 351.311112 797.998575 353.998612 795.311075 353.998612 791.998575 M 347.998612 11.998575 L 353.998612 11.998575 C 353.998612 8.686075 351.311112 5.998575 347.998612 5.998575 C 344.686112 5.998575 341.998612 8.686075 341.998612 11.998575 C 341.998612 15.311075 344.686112 17.998575 347.998612 17.998575 C 351.311112 17.998575 353.998612 15.311075 353.998612 11.998575 M 11.998612 401.998575 L 17.998612 401.998575 C 17.998612 398.686075 15.311112 395.998575 11.998612 395.998575 C 8.686112 395.998575 5.998612 398.686075 5.998612 401.998575 C 5.998612 405.311075 8.686112 407.998575 11.998612 407.998575 C 15.311112 407.998575 17.998612 405.311075 17.998612 401.998575 M 683.998612 401.998575 L 689.998612 401.998575 C 689.998612 398.686075 687.311112 395.998575 683.998612 395.998575 C 680.686112 395.998575 677.998612 398.686075 677.998612 401.998575 C 677.998612 405.311075 680.686112 407.998575 683.998612 407.998575 C 687.311112 407.998575 689.998612 405.311075 689.998612 401.998575 " transform="matrix(1,0,0,-1,-356.4283,417.0142)"/>
<path style="fill:none;stroke-width:0.25;stroke-linecap:butt;stroke-linejoin:miter;stroke:rgb(0%,0%,0%);stroke-opacity:1;stroke-miterlimit:10;" d="M 323.998612 791.998575 L 371.998612 791.998575 M 323.998612 11.998575 L 371.998612 11.998575 M 11.998612 425.998575 L 11.998612 377.998575 M 683.998612 425.998575 L 683.998612 377.998575 M 347.998612 803.998575 L 347.998612 779.998575 M 347.998612 23.998575 L 347.998612 -0.001425 M -0.0013875 401.998575 L 23.998612 401.998575 M 671.998612 401.998575 L 695.998612 401.998575 M 347.998612 791.998575 L 353.998612 791.998575 C 353.998612 788.686075 351.311112 785.998575 347.998612 785.998575 C 344.686112 785.998575 341.998612 788.686075 341.998612 791.998575 C 341.998612 795.311075 344.686112 797.998575 347.998612 797.998575 C 351.311112 797.998575 353.998612 795.311075 353.998612 791.998575 M 347.998612 11.998575 L 353.998612 11.998575 C 353.998612 8.686075 351.311112 5.998575 347.998612 5.998575 C 344.686112 5.998575 341.998612 8.686075 341.998612 11.998575 C 341.998612 15.311075 344.686112 17.998575 347.998612 17.998575 C 351.311112 17.998575 353.998612 15.311075 353.998612 11.998575 M 11.998612 401.998575 L 17.998612 401.998575 C 17.998612 398.686075 15.311112 395.998575 11.998612 395.998575 C 8.686112 395.998575 5.998612 398.686075 5.998612 401.998575 C 5.998612 405.311075 8.686112 407.998575 11.998612 407.998575 C 15.311112 407.998575 17.998612 405.311075 17.998612 401.998575 M 683.998612 401.998575 L 689.998612 401.998575 C 689.998612 398.686075 687.311112 395.998575 683.998612 395.998575 C 680.686112 395.998575 677.998612 398.686075 677.998612 401.998575 C 677.998612 405.311075 680.686112 407.998575 683.998612 407.998575 C 687.311112 407.998575 689.998612 405.311075 689.998612 401.998575 " transform="matrix(1,0,0,-1,-356.4283,417.0142)"/>
</g>
</g>
</svg>
