<?xml version="1.0" encoding="UTF-8"?>
<svg xmlns="http://www.w3.org/2000/svg" xmlns:xlink="http://www.w3.org/1999/xlink" width="115.2001pt" height="32.3716pt" viewBox="0 0 115.2001 32.3716" version="1.1">
<defs>
<clipPath id="clip1">
  <path d="M 21 26 L 47 26 L 47 30.1875 L 21 30.1875 Z M 21 26 "/>
</clipPath>
<clipPath id="clip2">
  <path d="M 40 26 L 64 26 L 64 30.1875 L 40 30.1875 Z M 40 26 "/>
</clipPath>
<clipPath id="clip3">
  <path d="M 24 26 L 90 26 L 90 30.1875 L 24 30.1875 Z M 24 26 "/>
</clipPath>
<clipPath id="clip4">
  <path d="M 61 26 L 88 26 L 88 30.1875 L 61 30.1875 Z M 61 26 "/>
</clipPath>
<clipPath id="clip5">
  <path d="M 2.570312 2 L 113 2 L 113 9 L 2.570312 9 Z M 2.570312 2 "/>
</clipPath>
<clipPath id="clip6">
  <path d="M 2.570312 1.1875 L 113.570312 1.1875 L 113.570312 14 L 2.570312 14 Z M 2.570312 1.1875 "/>
</clipPath>
</defs>
<g id="surface1">
<path style="fill-rule:nonzero;fill:rgb(99.629211%,94.355774%,83.189392%);fill-opacity:1;stroke-width:0.5;stroke-linecap:butt;stroke-linejoin:miter;stroke:rgb(13.729858%,12.159729%,12.548828%);stroke-opacity:1;stroke-miterlimit:4;" d="M 379.139237 242.832675 L 412.096269 242.832675 L 412.096269 218.332675 L 379.139237 218.332675 Z M 379.139237 242.832675 " transform="matrix(1,0,0,-1,-356.4283,247.7858)"/>
<path style="fill:none;stroke-width:0.7;stroke-linecap:butt;stroke-linejoin:miter;stroke:rgb(13.729858%,12.159729%,12.548828%);stroke-opacity:1;stroke-miterlimit:4;" d="M 379.162675 225.727206 L 386.600175 225.727206 L 386.600175 218.293612 L 379.162675 218.293612 Z M 379.162675 225.727206 " transform="matrix(1,0,0,-1,-356.4283,247.7858)"/>
<path style=" stroke:none;fill-rule:nonzero;fill:rgb(99.629211%,94.355774%,83.189392%);fill-opacity:1;" d="M 55.660156 4.953125 L 88.617188 4.953125 L 88.617188 29.453125 L 55.660156 29.453125 Z M 55.660156 4.953125 "/>
<path style="fill:none;stroke-width:0.5;stroke-linecap:butt;stroke-linejoin:miter;stroke:rgb(13.729858%,12.159729%,12.548828%);stroke-opacity:1;stroke-miterlimit:4;" d="M 412.088456 218.332675 L 445.045487 218.332675 L 445.045487 242.832675 L 412.088456 242.832675 Z M 412.088456 218.332675 " transform="matrix(1,0,0,-1,-356.4283,247.7858)"/>
<path style="fill:none;stroke-width:0.7;stroke-linecap:butt;stroke-linejoin:miter;stroke:rgb(13.729858%,12.159729%,12.548828%);stroke-opacity:1;stroke-miterlimit:4;" d="M 437.588456 218.289706 L 445.025956 218.289706 L 445.025956 225.727206 L 437.588456 225.727206 Z M 437.588456 218.289706 " transform="matrix(1,0,0,-1,-356.4283,247.7858)"/>
<g clip-path="url(#clip1)" clip-rule="nonzero">
<path style="fill:none;stroke-width:0.25;stroke-linecap:round;stroke-linejoin:miter;stroke:rgb(13.729858%,12.159729%,12.548828%);stroke-opacity:1;stroke-miterlimit:4;" d="M 379.225175 219.613925 C 379.412675 219.176425 379.225175 218.738925 379.287675 218.301425 C 379.225175 218.738925 379.412675 219.113925 379.287675 219.613925 C 379.225175 219.801425 379.412675 219.988925 379.350175 220.176425 M 379.850175 218.324862 C 379.912675 218.887362 380.162675 219.449862 380.725175 219.762362 M 379.537675 218.305331 C 379.475175 218.805331 379.600175 219.305331 379.662675 219.805331 M 380.475175 218.305331 C 380.475175 218.680331 380.350175 219.055331 380.412675 219.430331 M 380.725175 219.293612 C 380.850175 218.981112 381.287675 218.731112 381.162675 218.356112 C 381.369706 218.977206 381.850175 219.606112 382.475175 220.043612 M 382.287675 218.363925 C 382.037675 218.797519 381.600175 219.047519 381.225175 219.363925 M 380.850175 218.367831 C 380.412675 218.742831 380.100175 219.180331 379.787675 219.617831 M 382.475175 218.324862 C 382.412675 218.699862 382.225175 218.949862 382.287675 219.324862 M 383.162675 218.313144 C 383.100175 218.875644 383.350175 219.438144 383.850175 219.750644 M 382.787675 218.324862 C 382.850175 219.008456 383.412675 219.508456 383.975175 219.883456 M 384.162675 218.344394 C 383.975175 218.719394 383.725175 219.094394 383.537675 219.469394 M 385.100175 218.332675 C 384.787675 218.832675 384.600175 219.395175 384.475175 219.957675 M 385.100175 219.4108 C 385.225175 219.0358 385.412675 218.6608 385.662675 218.3483 C 385.549394 218.488925 385.662675 218.8483 385.662675 219.0983 M 384.850175 218.320956 C 384.975175 218.883456 385.100175 219.508456 385.287675 220.070956 M 384.287675 218.301425 C 384.225175 218.738925 384.412675 219.176425 384.225175 219.613925 M 384.662675 218.293612 C 384.662675 218.606112 384.662675 218.981112 384.662675 219.293612 M 383.725175 218.246737 C 383.662675 218.559237 383.662675 218.871737 383.537675 219.121737 M 386.100175 218.31705 C 386.225175 218.81705 385.850175 219.25455 385.787675 219.75455 M 388.725175 218.781894 C 388.600175 218.965487 388.412675 219.090487 388.287675 219.281894 C 387.850175 219.715487 387.287675 220.156894 386.537675 220.215487 C 387.232987 220.1608 386.975175 218.840487 387.475175 218.340487 M 388.350175 219.324862 C 388.350175 219.012362 388.350175 218.637362 388.475175 218.324862 C 388.350175 218.637362 388.287675 218.949862 388.287675 219.324862 C 388.350175 219.512362 388.162675 219.699862 388.100175 219.949862 M 388.037675 218.332675 C 388.037675 218.832675 387.412675 219.395175 387.537675 219.582675 C 387.315019 219.250644 386.912675 218.957675 386.975175 218.520175 M 385.475175 218.301425 C 385.475175 218.551425 385.412675 218.867831 385.537675 219.117831 C 385.537675 219.176425 385.787675 219.117831 385.912675 219.367831 M 389.725175 218.3483 C 389.412675 218.8483 389.037675 219.2858 388.725175 219.7858 M 388.475175 218.305331 C 388.600175 218.680331 388.412675 219.117831 388.787675 219.367831 M 389.225175 218.344394 C 389.475175 218.719394 389.600175 219.219394 390.037675 219.344394 M 390.600175 218.258456 C 390.537675 218.570956 390.787675 218.758456 391.037675 218.945956 M 392.037675 218.832675 C 391.725175 218.707675 391.350175 218.707675 391.225175 218.332675 C 391.225175 218.332675 391.162675 218.332675 391.100175 218.332675 C 390.912675 218.332675 390.787675 218.832675 390.662675 219.082675 M 389.537675 220.043612 C 389.787675 219.481112 389.725175 218.793612 390.225175 218.356112 C 390.092362 218.4733 390.225175 218.981112 390.225175 219.293612 M 390.662675 218.309237 C 390.600175 218.621737 390.537675 218.809237 390.537675 219.121737 C 390.537675 219.246737 390.350175 219.309237 390.350175 219.496737 M 391.475175 218.242831 C 391.412675 218.492831 391.412675 218.742831 391.412675 218.992831 M 391.975175 219.453769 C 391.975175 219.078769 392.162675 218.703769 392.287675 218.328769 C 392.143144 218.762362 392.162675 219.266269 391.850175 219.641269 M 391.100175 218.297519 C 391.162675 218.672519 391.037675 219.110019 391.037675 219.485019 M 386.787675 218.3483 C 386.787675 218.9108 387.475175 219.0983 387.850175 219.4108 M 387.287675 218.485019 C 387.287675 218.735019 387.162675 219.172519 387.350175 219.297519 C 386.975175 219.047519 386.350175 218.860019 386.537675 218.297519 M 385.912675 218.324862 C 385.975175 218.699862 386.162675 219.012362 386.287675 219.324862 M 391.850175 219.613925 C 392.037675 219.176425 391.850175 218.738925 391.912675 218.301425 C 391.850175 218.738925 392.037675 219.113925 391.912675 219.613925 C 391.850175 219.801425 392.037675 219.988925 391.975175 220.176425 M 392.475175 218.324862 C 392.537675 218.887362 392.787675 219.449862 393.350175 219.762362 M 392.162675 218.305331 C 392.100175 218.805331 392.225175 219.305331 392.287675 219.805331 M 393.100175 218.305331 C 393.100175 218.680331 392.975175 219.055331 393.037675 219.430331 M 393.350175 219.293612 C 393.475175 218.981112 393.912675 218.731112 393.787675 218.356112 C 393.994706 218.977206 394.475175 219.606112 395.100175 220.043612 M 394.912675 218.363925 C 394.662675 218.797519 394.225175 219.047519 393.850175 219.363925 M 393.475175 218.367831 C 393.037675 218.742831 392.725175 219.180331 392.412675 219.617831 M 395.100175 218.324862 C 395.037675 218.699862 394.850175 218.949862 394.912675 219.324862 M 395.787675 218.313144 C 395.725175 218.875644 395.975175 219.438144 396.475175 219.750644 M 395.412675 218.324862 C 395.475175 219.008456 396.037675 219.508456 396.600175 219.883456 M 396.787675 218.344394 C 396.600175 218.719394 396.350175 219.094394 396.162675 219.469394 M 397.725175 218.332675 C 397.412675 218.832675 397.225175 219.395175 397.100175 219.957675 M 397.725175 219.4108 C 397.850175 219.0358 398.037675 218.6608 398.287675 218.3483 C 398.174394 218.488925 398.287675 218.8483 398.287675 219.0983 M 397.475175 218.320956 C 397.600175 218.883456 397.725175 219.508456 397.912675 220.070956 M 396.912675 218.301425 C 396.850175 218.738925 397.037675 219.176425 396.850175 219.613925 M 397.287675 218.293612 C 397.287675 218.606112 397.287675 218.981112 397.287675 219.293612 M 398.725175 218.31705 C 398.850175 218.81705 398.475175 219.25455 398.412675 219.75455 M 401.350175 218.781894 C 401.225175 218.965487 401.037675 219.090487 400.912675 219.281894 C 400.475175 219.715487 399.912675 220.156894 399.162675 220.215487 C 399.857987 220.1608 399.600175 218.840487 400.100175 218.340487 " transform="matrix(1,0,0,-1,-356.4283,247.7858)"/>
</g>
<g clip-path="url(#clip2)" clip-rule="nonzero">
<path style="fill:none;stroke-width:0.25;stroke-linecap:round;stroke-linejoin:miter;stroke:rgb(13.729858%,12.159729%,12.548828%);stroke-opacity:1;stroke-miterlimit:4;" d="M 400.975175 219.324862 C 400.975175 219.012362 400.975175 218.637362 401.100175 218.324862 C 400.975175 218.637362 400.912675 218.949862 400.912675 219.324862 C 400.975175 219.512362 400.787675 219.699862 400.725175 219.949862 M 400.662675 218.332675 C 400.662675 218.832675 400.037675 219.395175 400.162675 219.582675 C 399.940019 219.250644 399.537675 218.957675 399.600175 218.520175 M 398.100175 218.301425 C 398.100175 218.551425 398.037675 218.867831 398.162675 219.117831 C 398.162675 219.176425 398.412675 219.117831 398.537675 219.367831 M 402.350175 218.3483 C 402.037675 218.8483 401.662675 219.2858 401.350175 219.7858 M 401.100175 218.305331 C 401.225175 218.680331 401.037675 219.117831 401.412675 219.367831 M 401.850175 218.344394 C 402.100175 218.719394 402.225175 219.219394 402.662675 219.344394 M 402.162675 220.043612 C 402.412675 219.481112 402.350175 218.793612 402.850175 218.356112 C 402.717362 218.4733 402.850175 218.981112 402.850175 219.293612 M 403.287675 218.309237 C 403.225175 218.621737 403.162675 218.809237 403.162675 219.121737 C 403.162675 219.246737 402.975175 219.309237 402.975175 219.496737 M 404.600175 219.453769 C 404.600175 219.078769 404.787675 218.703769 404.912675 218.328769 C 404.768144 218.762362 404.787675 219.266269 404.475175 219.641269 M 403.725175 218.297519 C 403.787675 218.672519 403.662675 219.110019 403.662675 219.485019 M 399.412675 218.3483 C 399.412675 218.9108 400.100175 219.0983 400.475175 219.4108 M 399.912675 218.485019 C 399.912675 218.735019 399.787675 219.172519 399.975175 219.297519 C 399.600175 219.047519 398.975175 218.860019 399.162675 218.297519 M 398.537675 218.324862 C 398.600175 218.699862 398.787675 219.012362 398.912675 219.324862 M 403.850175 219.613925 C 404.037675 219.176425 403.850175 218.738925 403.912675 218.301425 C 403.850175 218.738925 404.037675 219.113925 403.912675 219.613925 C 403.850175 219.801425 404.037675 219.988925 403.975175 220.176425 M 404.475175 218.324862 C 404.537675 218.887362 404.787675 219.449862 405.350175 219.762362 M 404.162675 218.305331 C 404.100175 218.805331 404.225175 219.305331 404.287675 219.805331 M 405.100175 218.305331 C 405.100175 218.680331 404.975175 219.055331 405.037675 219.430331 M 405.350175 219.293612 C 405.475175 218.981112 405.912675 218.731112 405.787675 218.356112 C 405.994706 218.977206 406.475175 219.606112 407.100175 220.043612 M 406.912675 218.363925 C 406.662675 218.797519 406.225175 219.047519 405.850175 219.363925 M 405.475175 218.367831 C 405.037675 218.742831 404.725175 219.180331 404.412675 219.617831 M 407.100175 218.324862 C 407.037675 218.699862 406.850175 218.949862 406.912675 219.324862 M 407.787675 218.313144 C 407.725175 218.875644 407.975175 219.438144 408.475175 219.750644 M 407.412675 218.324862 C 407.475175 219.008456 408.037675 219.508456 408.600175 219.883456 M 408.787675 218.344394 C 408.600175 218.719394 408.350175 219.094394 408.162675 219.469394 M 409.725175 218.332675 C 409.412675 218.832675 409.225175 219.395175 409.100175 219.957675 M 409.725175 219.4108 C 409.850175 219.0358 410.037675 218.6608 410.287675 218.3483 C 410.1783 218.488925 410.287675 218.8483 410.287675 219.0983 M 409.475175 218.320956 C 409.600175 218.883456 409.725175 219.508456 409.912675 220.070956 M 408.912675 218.301425 C 408.850175 218.738925 409.037675 219.176425 408.850175 219.613925 M 409.287675 218.293612 C 409.287675 218.606112 409.287675 218.981112 409.287675 219.293612 M 410.725175 218.31705 C 410.850175 218.81705 410.475175 219.25455 410.412675 219.75455 M 413.350175 218.781894 C 413.225175 218.965487 413.037675 219.090487 412.912675 219.281894 C 412.475175 219.715487 411.912675 220.156894 411.162675 220.215487 C 411.857987 220.1608 411.600175 218.840487 412.100175 218.340487 M 412.975175 219.324862 C 412.975175 219.012362 412.975175 218.637362 413.100175 218.324862 C 412.975175 218.637362 412.912675 218.949862 412.912675 219.324862 C 412.975175 219.512362 412.787675 219.699862 412.725175 219.949862 M 412.662675 218.332675 C 412.662675 218.832675 412.037675 219.395175 412.162675 219.582675 C 411.940019 219.250644 411.537675 218.957675 411.600175 218.520175 M 410.100175 218.301425 C 410.100175 218.551425 410.037675 218.867831 410.162675 219.117831 C 410.162675 219.176425 410.412675 219.117831 410.537675 219.367831 M 414.350175 218.3483 C 414.037675 218.8483 413.662675 219.2858 413.350175 219.7858 M 413.100175 218.305331 C 413.225175 218.680331 413.037675 219.117831 413.412675 219.367831 M 413.850175 218.344394 C 414.100175 218.719394 414.225175 219.219394 414.662675 219.344394 M 414.162675 220.043612 C 414.412675 219.481112 414.350175 218.793612 414.850175 218.356112 C 414.717362 218.4733 414.850175 218.981112 414.850175 219.293612 M 415.287675 218.309237 C 415.225175 218.621737 415.162675 218.809237 415.162675 219.121737 C 415.162675 219.246737 414.975175 219.309237 414.975175 219.496737 M 416.600175 219.453769 C 416.600175 219.078769 416.787675 218.703769 416.912675 218.328769 C 416.768144 218.762362 416.787675 219.266269 416.475175 219.641269 M 415.725175 218.297519 C 415.787675 218.672519 415.662675 219.110019 415.662675 219.485019 M 411.412675 218.3483 C 411.412675 218.9108 412.100175 219.0983 412.475175 219.4108 M 411.912675 218.485019 C 411.912675 218.735019 411.787675 219.172519 411.975175 219.297519 C 411.600175 219.047519 410.975175 218.860019 411.162675 218.297519 M 410.537675 218.324862 C 410.600175 218.699862 410.787675 219.012362 410.912675 219.324862 M 415.350175 219.613925 C 415.537675 219.176425 415.350175 218.738925 415.412675 218.301425 C 415.350175 218.738925 415.537675 219.113925 415.412675 219.613925 C 415.350175 219.801425 415.537675 219.988925 415.475175 220.176425 M 415.975175 218.324862 C 416.037675 218.887362 416.287675 219.449862 416.850175 219.762362 M 415.662675 218.305331 C 415.600175 218.805331 415.725175 219.305331 415.787675 219.805331 M 416.600175 218.305331 C 416.600175 218.680331 416.475175 219.055331 416.537675 219.430331 M 416.850175 219.293612 C 416.975175 218.981112 417.412675 218.731112 417.287675 218.356112 C 417.494706 218.977206 417.975175 219.606112 418.600175 220.043612 M 418.412675 218.363925 C 418.162675 218.797519 417.725175 219.047519 417.350175 219.363925 M 416.975175 218.367831 C 416.537675 218.742831 416.225175 219.180331 415.912675 219.617831 M 418.850175 218.324862 C 418.787675 218.699862 418.600175 218.949862 418.662675 219.324862 " transform="matrix(1,0,0,-1,-356.4283,247.7858)"/>
</g>
<g clip-path="url(#clip3)" clip-rule="nonzero">
<path style="fill:none;stroke-width:0.25;stroke-linecap:round;stroke-linejoin:miter;stroke:rgb(13.729858%,12.159729%,12.548828%);stroke-opacity:1;stroke-miterlimit:4;" d="M 418.162675 218.313144 C 418.100175 218.875644 418.350175 219.438144 418.850175 219.750644 M 382.037675 218.305331 C 382.037675 218.617831 382.350175 218.742831 382.600175 218.867831 M 444.482987 218.324862 C 444.420487 218.887362 444.170487 219.449862 443.607987 219.762362 M 444.795487 218.305331 C 444.857987 218.805331 444.732987 219.305331 444.670487 219.805331 M 443.857987 218.305331 C 443.857987 218.680331 443.982987 219.055331 443.920487 219.430331 M 443.607987 219.293612 C 443.482987 218.981112 443.045487 218.731112 443.170487 218.356112 C 442.963456 218.977206 442.482987 219.606112 441.857987 220.043612 M 442.045487 218.363925 C 442.295487 218.797519 442.732987 219.047519 443.107987 219.363925 M 443.482987 218.367831 C 443.920487 218.742831 444.232987 219.180331 444.545487 219.617831 M 441.857987 218.324862 C 441.920487 218.699862 442.107987 218.949862 442.045487 219.324862 M 441.170487 218.313144 C 441.232987 218.875644 440.982987 219.438144 440.482987 219.750644 M 441.545487 218.324862 C 441.482987 219.008456 440.920487 219.508456 440.357987 219.883456 M 440.170487 218.344394 C 440.357987 218.719394 440.607987 219.094394 440.795487 219.469394 M 439.232987 218.332675 C 439.545487 218.832675 439.732987 219.395175 439.857987 219.957675 M 439.232987 219.4108 C 439.107987 219.0358 438.920487 218.6608 438.670487 218.3483 C 438.779862 218.488925 438.670487 218.8483 438.670487 219.0983 M 439.482987 218.320956 C 439.357987 218.883456 439.232987 219.508456 439.045487 220.070956 M 440.045487 218.301425 C 440.107987 218.738925 439.920487 219.176425 440.107987 219.613925 M 439.670487 218.293612 C 439.670487 218.606112 439.670487 218.981112 439.670487 219.293612 M 440.607987 218.246737 C 440.670487 218.559237 440.670487 218.871737 440.795487 219.121737 M 438.232987 218.31705 C 438.107987 218.81705 438.482987 219.25455 438.545487 219.75455 M 435.607987 218.781894 C 435.732987 218.965487 435.920487 219.090487 436.045487 219.281894 C 436.482987 219.715487 437.045487 220.156894 437.795487 220.215487 C 437.100175 220.1608 437.357987 218.840487 436.857987 218.340487 M 435.982987 219.324862 C 435.982987 219.012362 435.982987 218.637362 435.857987 218.324862 C 435.982987 218.637362 436.045487 218.949862 436.045487 219.324862 C 435.982987 219.512362 436.170487 219.699862 436.232987 219.949862 M 436.295487 218.332675 C 436.295487 218.832675 436.920487 219.395175 436.795487 219.582675 C 437.018144 219.250644 437.420487 218.957675 437.357987 218.520175 M 438.857987 218.301425 C 438.857987 218.551425 438.920487 218.867831 438.795487 219.117831 C 438.795487 219.176425 438.545487 219.117831 438.420487 219.367831 M 434.607987 218.3483 C 434.920487 218.8483 435.295487 219.2858 435.607987 219.7858 M 435.857987 218.305331 C 435.732987 218.680331 435.920487 219.117831 435.545487 219.367831 M 435.107987 218.344394 C 434.857987 218.719394 434.732987 219.219394 434.295487 219.344394 M 433.732987 218.258456 C 433.795487 218.570956 433.545487 218.758456 433.295487 218.945956 M 432.295487 218.832675 C 432.607987 218.707675 432.982987 218.707675 433.107987 218.332675 C 433.107987 218.332675 433.170487 218.332675 433.232987 218.332675 C 433.420487 218.332675 433.545487 218.832675 433.670487 219.082675 M 434.795487 220.043612 C 434.545487 219.481112 434.607987 218.793612 434.107987 218.356112 C 434.2408 218.4733 434.107987 218.981112 434.107987 219.293612 M 433.670487 218.309237 C 433.732987 218.621737 433.795487 218.809237 433.795487 219.121737 C 433.795487 219.246737 433.982987 219.309237 433.982987 219.496737 M 432.857987 218.242831 C 432.920487 218.492831 432.920487 218.742831 432.920487 218.992831 M 432.357987 219.453769 C 432.357987 219.078769 432.170487 218.703769 432.045487 218.328769 C 432.190019 218.762362 432.170487 219.266269 432.482987 219.641269 M 433.232987 218.297519 C 433.170487 218.672519 433.295487 219.110019 433.295487 219.485019 M 437.545487 218.3483 C 437.545487 218.9108 436.857987 219.0983 436.482987 219.4108 M 437.045487 218.485019 C 437.045487 218.735019 437.170487 219.172519 436.982987 219.297519 C 437.357987 219.047519 437.982987 218.860019 437.795487 218.297519 M 438.420487 218.324862 C 438.357987 218.699862 438.170487 219.012362 438.045487 219.324862 M 432.482987 219.613925 C 432.295487 219.176425 432.482987 218.738925 432.420487 218.301425 C 432.482987 218.738925 432.295487 219.113925 432.420487 219.613925 C 432.482987 219.801425 432.295487 219.988925 432.357987 220.176425 M 431.857987 218.324862 C 431.795487 218.887362 431.545487 219.449862 430.982987 219.762362 M 432.170487 218.305331 C 432.232987 218.805331 432.107987 219.305331 432.045487 219.805331 M 431.232987 218.305331 C 431.232987 218.680331 431.357987 219.055331 431.295487 219.430331 M 430.982987 219.293612 C 430.857987 218.981112 430.420487 218.731112 430.545487 218.356112 C 430.338456 218.977206 429.857987 219.606112 429.232987 220.043612 M 429.420487 218.363925 C 429.670487 218.797519 430.107987 219.047519 430.482987 219.363925 M 430.857987 218.367831 C 431.295487 218.742831 431.607987 219.180331 431.920487 219.617831 M 429.232987 218.324862 C 429.295487 218.699862 429.482987 218.949862 429.420487 219.324862 M 428.545487 218.313144 C 428.607987 218.875644 428.357987 219.438144 427.857987 219.750644 M 428.920487 218.324862 C 428.857987 219.008456 428.295487 219.508456 427.732987 219.883456 M 427.545487 218.344394 C 427.732987 218.719394 427.982987 219.094394 428.170487 219.469394 M 426.607987 218.332675 C 426.920487 218.832675 427.107987 219.395175 427.232987 219.957675 M 426.607987 219.4108 C 426.482987 219.0358 426.295487 218.6608 426.045487 218.3483 C 426.154862 218.488925 426.045487 218.8483 426.045487 219.0983 M 426.857987 218.320956 C 426.732987 218.883456 426.607987 219.508456 426.420487 220.070956 M 427.420487 218.301425 C 427.482987 218.738925 427.295487 219.176425 427.482987 219.613925 M 427.045487 218.293612 C 427.045487 218.606112 427.045487 218.981112 427.045487 219.293612 M 425.607987 218.31705 C 425.482987 218.81705 425.857987 219.25455 425.920487 219.75455 M 422.982987 218.781894 C 423.107987 218.965487 423.295487 219.090487 423.420487 219.281894 C 423.857987 219.715487 424.420487 220.156894 425.170487 220.215487 C 424.475175 220.1608 424.732987 218.840487 424.232987 218.340487 " transform="matrix(1,0,0,-1,-356.4283,247.7858)"/>
</g>
<g clip-path="url(#clip4)" clip-rule="nonzero">
<path style="fill:none;stroke-width:0.25;stroke-linecap:round;stroke-linejoin:miter;stroke:rgb(13.729858%,12.159729%,12.548828%);stroke-opacity:1;stroke-miterlimit:4;" d="M 423.357987 219.324862 C 423.357987 219.012362 423.357987 218.637362 423.232987 218.324862 C 423.357987 218.637362 423.420487 218.949862 423.420487 219.324862 C 423.357987 219.512362 423.545487 219.699862 423.607987 219.949862 M 423.670487 218.332675 C 423.670487 218.832675 424.295487 219.395175 424.170487 219.582675 C 424.393144 219.250644 424.795487 218.957675 424.732987 218.520175 M 426.232987 218.301425 C 426.232987 218.551425 426.295487 218.867831 426.170487 219.117831 C 426.170487 219.176425 425.920487 219.117831 425.795487 219.367831 M 421.982987 218.3483 C 422.295487 218.8483 422.670487 219.2858 422.982987 219.7858 M 423.232987 218.305331 C 423.107987 218.680331 423.295487 219.117831 422.920487 219.367831 M 422.482987 218.344394 C 422.232987 218.719394 422.107987 219.219394 421.670487 219.344394 M 422.170487 220.043612 C 421.920487 219.481112 421.982987 218.793612 421.482987 218.356112 C 421.6158 218.4733 421.482987 218.981112 421.482987 219.293612 M 421.045487 218.309237 C 421.107987 218.621737 421.170487 218.809237 421.170487 219.121737 C 421.170487 219.246737 421.357987 219.309237 421.357987 219.496737 M 419.732987 219.453769 C 419.732987 219.078769 419.545487 218.703769 419.420487 218.328769 C 419.565019 218.762362 419.545487 219.266269 419.857987 219.641269 M 420.607987 218.297519 C 420.545487 218.672519 420.670487 219.110019 420.670487 219.485019 M 424.920487 218.3483 C 424.920487 218.9108 424.232987 219.0983 423.857987 219.4108 M 424.420487 218.485019 C 424.420487 218.735019 424.545487 219.172519 424.357987 219.297519 C 424.732987 219.047519 425.357987 218.860019 425.170487 218.297519 M 425.795487 218.324862 C 425.732987 218.699862 425.545487 219.012362 425.420487 219.324862 M 420.482987 219.613925 C 420.295487 219.176425 420.482987 218.738925 420.420487 218.301425 C 420.482987 218.738925 420.295487 219.113925 420.420487 219.613925 C 420.482987 219.801425 420.295487 219.988925 420.357987 220.176425 M 419.857987 218.324862 C 419.795487 218.887362 419.545487 219.449862 418.982987 219.762362 M 420.170487 218.305331 C 420.232987 218.805331 420.107987 219.305331 420.045487 219.805331 M 418.857987 218.367831 C 419.295487 218.742831 419.607987 219.180331 419.920487 219.617831 M 442.295487 218.305331 C 442.295487 218.617831 441.982987 218.742831 441.732987 218.867831 " transform="matrix(1,0,0,-1,-356.4283,247.7858)"/>
</g>
<path style=" stroke:none;fill-rule:nonzero;fill:rgb(13.729858%,12.159729%,12.548828%);fill-opacity:1;" d="M 20.261719 4.585938 L 22.511719 4.585938 L 22.511719 29.835938 L 20.261719 29.835938 Z M 20.261719 4.585938 "/>
<path style=" stroke:none;fill-rule:nonzero;fill:rgb(13.729858%,12.159729%,12.548828%);fill-opacity:1;" d="M 54.507812 4.585938 L 56.757812 4.585938 L 56.757812 29.835938 L 54.507812 29.835938 Z M 54.507812 4.585938 "/>
<path style=" stroke:none;fill-rule:nonzero;fill:rgb(13.729858%,12.159729%,12.548828%);fill-opacity:1;" d="M 88.824219 4.585938 L 91.074219 4.585938 L 91.074219 29.835938 L 88.824219 29.835938 Z M 88.824219 4.585938 "/>
<g clip-path="url(#clip5)" clip-rule="nonzero">
<path style=" stroke:none;fill-rule:nonzero;fill:rgb(70.001221%,90.351868%,98.118591%);fill-opacity:1;" d="M 112.789062 8.523438 C 109.242188 8.789062 109.601562 8.8125 101.394531 8.160156 C 89.164062 7.1875 79.285156 8.160156 71.535156 8.449219 C 63.785156 8.742188 55.808594 8.957031 51.019531 7.796875 C 46.234375 6.636719 40.761719 6.347656 31.875 6.855469 C 22.984375 7.363281 14.320312 7.289062 2.695312 7.144531 L 2.695312 2.875 C 14.320312 3.023438 22.984375 3.09375 31.875 2.585938 C 40.761719 2.078125 46.234375 2.367188 51.019531 3.53125 C 55.808594 4.691406 63.785156 4.472656 71.535156 4.183594 C 79.285156 3.894531 89.164062 2.917969 101.394531 3.894531 C 109.601562 4.546875 109.242188 4.523438 112.789062 4.253906 L 112.789062 8.523438 "/>
</g>
<g clip-path="url(#clip6)" clip-rule="nonzero">
<path style="fill:none;stroke-width:0.819;stroke-linecap:butt;stroke-linejoin:miter;stroke:rgb(13.729858%,12.159729%,12.548828%);stroke-opacity:1;stroke-miterlimit:4;" d="M 359.123612 244.9108 C 370.748612 244.762362 379.412675 244.69205 388.3033 245.199862 C 397.190019 245.707675 402.662675 245.418612 407.447831 244.25455 C 412.236894 243.094394 420.213456 243.313144 427.963456 243.602206 C 435.713456 243.891269 445.592362 244.867831 457.822831 243.891269 C 466.029862 243.238925 465.670487 243.262362 469.217362 243.531894 M 469.217362 239.262362 C 465.670487 238.996737 466.029862 238.9733 457.822831 239.625644 C 445.592362 240.5983 435.713456 239.625644 427.963456 239.336581 C 420.213456 239.043612 412.236894 238.828769 407.447831 239.988925 C 402.662675 241.149081 397.190019 241.438144 388.3033 240.930331 C 379.412675 240.422519 370.748612 240.496737 359.123612 240.641269 " transform="matrix(1,0,0,-1,-356.4283,247.7858)"/>
</g>
<path style="fill:none;stroke-width:0.5;stroke-linecap:butt;stroke-linejoin:miter;stroke:rgb(100%,100%,100%);stroke-opacity:1;stroke-miterlimit:10;" d="M 41.998612 804.000644 L 41.998612 780.000644 M -0.0013875 762.000644 L 23.998612 762.000644 M 653.998612 804.000644 L 653.998612 780.000644 M 695.998612 762.000644 L 671.998612 762.000644 M 41.998612 0.00064375 L 41.998612 24.000644 M -0.0013875 42.000644 L 23.998612 42.000644 M 653.998612 0.00064375 L 653.998612 24.000644 M 695.998612 42.000644 L 671.998612 42.000644 " transform="matrix(1,0,0,-1,-356.4283,247.7858)"/>
<path style="fill:none;stroke-width:0.25;stroke-linecap:butt;stroke-linejoin:miter;stroke:rgb(0%,0%,0%);stroke-opacity:1;stroke-miterlimit:10;" d="M 41.998612 804.000644 L 41.998612 780.000644 M -0.0013875 762.000644 L 23.998612 762.000644 M 653.998612 804.000644 L 653.998612 780.000644 M 695.998612 762.000644 L 671.998612 762.000644 M 41.998612 0.00064375 L 41.998612 24.000644 M -0.0013875 42.000644 L 23.998612 42.000644 M 653.998612 0.00064375 L 653.998612 24.000644 M 695.998612 42.000644 L 671.998612 42.000644 " transform="matrix(1,0,0,-1,-356.4283,247.7858)"/>
<path style="fill:none;stroke-width:0.5;stroke-linecap:butt;stroke-linejoin:miter;stroke:rgb(100%,100%,100%);stroke-opacity:1;stroke-miterlimit:10;" d="M 323.998612 792.000644 L 371.998612 792.000644 M 323.998612 12.000644 L 371.998612 12.000644 M 11.998612 426.000644 L 11.998612 378.000644 M 683.998612 426.000644 L 683.998612 378.000644 M 347.998612 804.000644 L 347.998612 780.000644 M 347.998612 24.000644 L 347.998612 0.00064375 M -0.0013875 402.000644 L 23.998612 402.000644 M 671.998612 402.000644 L 695.998612 402.000644 M 347.998612 792.000644 L 353.998612 792.000644 C 353.998612 788.688144 351.311112 786.000644 347.998612 786.000644 C 344.686112 786.000644 341.998612 788.688144 341.998612 792.000644 C 341.998612 795.313144 344.686112 798.000644 347.998612 798.000644 C 351.311112 798.000644 353.998612 795.313144 353.998612 792.000644 M 347.998612 12.000644 L 353.998612 12.000644 C 353.998612 8.688144 351.311112 6.000644 347.998612 6.000644 C 344.686112 6.000644 341.998612 8.688144 341.998612 12.000644 C 341.998612 15.313144 344.686112 18.000644 347.998612 18.000644 C 351.311112 18.000644 353.998612 15.313144 353.998612 12.000644 M 11.998612 402.000644 L 17.998612 402.000644 C 17.998612 398.688144 15.311112 396.000644 11.998612 396.000644 C 8.686112 396.000644 5.998612 398.688144 5.998612 402.000644 C 5.998612 405.313144 8.686112 408.000644 11.998612 408.000644 C 15.311112 408.000644 17.998612 405.313144 17.998612 402.000644 M 683.998612 402.000644 L 689.998612 402.000644 C 689.998612 398.688144 687.311112 396.000644 683.998612 396.000644 C 680.686112 396.000644 677.998612 398.688144 677.998612 402.000644 C 677.998612 405.313144 680.686112 408.000644 683.998612 408.000644 C 687.311112 408.000644 689.998612 405.313144 689.998612 402.000644 " transform="matrix(1,0,0,-1,-356.4283,247.7858)"/>
<path style="fill:none;stroke-width:0.25;stroke-linecap:butt;stroke-linejoin:miter;stroke:rgb(0%,0%,0%);stroke-opacity:1;stroke-miterlimit:10;" d="M 323.998612 792.000644 L 371.998612 792.000644 M 323.998612 12.000644 L 371.998612 12.000644 M 11.998612 426.000644 L 11.998612 378.000644 M 683.998612 426.000644 L 683.998612 378.000644 M 347.998612 804.000644 L 347.998612 780.000644 M 347.998612 24.000644 L 347.998612 0.00064375 M -0.0013875 402.000644 L 23.998612 402.000644 M 671.998612 402.000644 L 695.998612 402.000644 M 347.998612 792.000644 L 353.998612 792.000644 C 353.998612 788.688144 351.311112 786.000644 347.998612 786.000644 C 344.686112 786.000644 341.998612 788.688144 341.998612 792.000644 C 341.998612 795.313144 344.686112 798.000644 347.998612 798.000644 C 351.311112 798.000644 353.998612 795.313144 353.998612 792.000644 M 347.998612 12.000644 L 353.998612 12.000644 C 353.998612 8.688144 351.311112 6.000644 347.998612 6.000644 C 344.686112 6.000644 341.998612 8.688144 341.998612 12.000644 C 341.998612 15.313144 344.686112 18.000644 347.998612 18.000644 C 351.311112 18.000644 353.998612 15.313144 353.998612 12.000644 M 11.998612 402.000644 L 17.998612 402.000644 C 17.998612 398.688144 15.311112 396.000644 11.998612 396.000644 C 8.686112 396.000644 5.998612 398.688144 5.998612 402.000644 C 5.998612 405.313144 8.686112 408.000644 11.998612 408.000644 C 15.311112 408.000644 17.998612 405.313144 17.998612 402.000644 M 683.998612 402.000644 L 689.998612 402.000644 C 689.998612 398.688144 687.311112 396.000644 683.998612 396.000644 C 680.686112 396.000644 677.998612 398.688144 677.998612 402.000644 C 677.998612 405.313144 680.686112 408.000644 683.998612 408.000644 C 687.311112 408.000644 689.998612 405.313144 689.998612 402.000644 " transform="matrix(1,0,0,-1,-356.4283,247.7858)"/>
</g>
</svg>
