<?xml version="1.0" encoding="UTF-8"?>
<svg xmlns="http://www.w3.org/2000/svg" xmlns:xlink="http://www.w3.org/1999/xlink" width="100.8pt" height="81.0142pt" viewBox="0 0 100.8 81.0142" version="1.1">
<defs>
<clipPath id="clip1">
  <path d="M 0.632812 12 L 86 12 L 86 81.015625 L 0.632812 81.015625 Z M 0.632812 12 "/>
</clipPath>
<clipPath id="clip2">
  <path d="M 0.632812 76 L 98 76 L 98 77 L 0.632812 77 Z M 0.632812 76 "/>
</clipPath>
</defs>
<g id="surface1">
<g clip-path="url(#clip1)" clip-rule="nonzero">
<path style="fill:none;stroke-width:1.2;stroke-linecap:butt;stroke-linejoin:miter;stroke:rgb(12.626648%,33.805847%,68.193054%);stroke-opacity:1;stroke-miterlimit:4;" d="M 224.561894 682.428769 L 298.487675 624.835019 " transform="matrix(1,0,0,-1,-219.6283,701.3858)"/>
</g>
<g clip-path="url(#clip2)" clip-rule="nonzero">
<path style="fill:none;stroke-width:0.7;stroke-linecap:butt;stroke-linejoin:miter;stroke:rgb(13.729858%,12.159729%,12.548828%);stroke-opacity:1;stroke-miterlimit:4;" d="M 316.6283 624.835019 L 220.765019 624.835019 " transform="matrix(1,0,0,-1,-219.6283,701.3858)"/>
</g>
<path style=" stroke:none;fill-rule:nonzero;fill:rgb(13.729858%,12.159729%,12.548828%);fill-opacity:1;" d="M 99.964844 76.550781 L 95.785156 78.257812 L 96.777344 76.550781 L 95.785156 74.84375 L 99.964844 76.550781 "/>
<path style=" stroke:none;fill-rule:nonzero;fill:rgb(93.609619%,18.434143%,17.378235%);fill-opacity:1;" d="M 90.097656 73.878906 C 90.097656 74.984375 89.199219 75.878906 88.097656 75.878906 C 86.988281 75.878906 86.097656 74.984375 86.097656 73.878906 C 86.097656 72.777344 86.988281 71.878906 88.097656 71.878906 C 89.199219 71.878906 90.097656 72.777344 90.097656 73.878906 "/>
<path style=" stroke:none;fill-rule:nonzero;fill:rgb(93.609619%,18.434143%,17.378235%);fill-opacity:1;" d="M 87.695312 71.476562 C 87.695312 72.582031 86.796875 73.480469 85.695312 73.480469 C 84.585938 73.480469 83.695312 72.582031 83.695312 71.476562 C 83.695312 70.375 84.585938 69.480469 85.695312 69.480469 C 86.796875 69.480469 87.695312 70.375 87.695312 71.476562 "/>
<path style=" stroke:none;fill-rule:nonzero;fill:rgb(93.609619%,18.434143%,17.378235%);fill-opacity:1;" d="M 51.917969 52.699219 C 51.917969 53.800781 51.023438 54.699219 49.917969 54.699219 C 48.816406 54.699219 47.917969 53.800781 47.917969 52.699219 C 47.917969 51.597656 48.816406 50.699219 49.917969 50.699219 C 51.023438 50.699219 51.917969 51.597656 51.917969 52.699219 "/>
<path style=" stroke:none;fill-rule:nonzero;fill:rgb(93.609619%,18.434143%,17.378235%);fill-opacity:1;" d="M 33.570312 38.535156 C 33.570312 39.640625 32.675781 40.535156 31.570312 40.535156 C 30.464844 40.535156 29.570312 39.640625 29.570312 38.535156 C 29.570312 37.433594 30.464844 36.535156 31.570312 36.535156 C 32.675781 36.535156 33.570312 37.433594 33.570312 38.535156 "/>
<path style=" stroke:none;fill-rule:nonzero;fill:rgb(93.609619%,18.434143%,17.378235%);fill-opacity:1;" d="M 33.570312 33.734375 C 33.570312 34.835938 32.675781 35.734375 31.570312 35.734375 C 30.464844 35.734375 29.570312 34.835938 29.570312 33.734375 C 29.570312 32.628906 30.464844 31.734375 31.570312 31.734375 C 32.675781 31.734375 33.570312 32.628906 33.570312 33.734375 "/>
<path style=" stroke:none;fill-rule:nonzero;fill:rgb(93.609619%,18.434143%,17.378235%);fill-opacity:1;" d="M 24.949219 15.015625 C 24.949219 16.117188 24.054688 17.015625 22.949219 17.015625 C 21.84375 17.015625 20.949219 16.117188 20.949219 15.015625 C 20.949219 13.910156 21.84375 13.015625 22.949219 13.015625 C 24.054688 13.015625 24.949219 13.910156 24.949219 15.015625 "/>
<path style=" stroke:none;fill-rule:nonzero;fill:rgb(93.609619%,18.434143%,17.378235%);fill-opacity:1;" d="M 69.777344 62.304688 C 69.777344 63.40625 68.878906 64.304688 67.777344 64.304688 C 66.671875 64.304688 65.777344 63.40625 65.777344 62.304688 C 65.777344 61.199219 66.671875 60.304688 67.777344 60.304688 C 68.878906 60.304688 69.777344 61.199219 69.777344 62.304688 "/>
<path style="fill:none;stroke-width:0.7;stroke-linecap:butt;stroke-linejoin:miter;stroke:rgb(13.729858%,12.159729%,12.548828%);stroke-opacity:1;stroke-miterlimit:4;" d="M 224.561894 697.366269 L 224.561894 621.038144 " transform="matrix(1,0,0,-1,-219.6283,701.3858)"/>
<path style=" stroke:none;fill-rule:nonzero;fill:rgb(13.729858%,12.159729%,12.548828%);fill-opacity:1;" d="M 4.933594 1.054688 L 6.640625 5.230469 L 4.933594 4.242188 L 3.226562 5.230469 L 4.933594 1.054688 "/>
<path style="fill:none;stroke-width:0.5;stroke-linecap:butt;stroke-linejoin:miter;stroke:rgb(100%,100%,100%);stroke-opacity:1;stroke-miterlimit:10;" d="M 41.999394 803.999081 L 41.999394 779.999081 M -0.00060625 761.999081 L 23.999394 761.999081 M 653.999394 803.999081 L 653.999394 779.999081 M 695.999394 761.999081 L 671.999394 761.999081 M 41.999394 -0.00091875 L 41.999394 23.999081 M -0.00060625 41.999081 L 23.999394 41.999081 M 653.999394 -0.00091875 L 653.999394 23.999081 M 695.999394 41.999081 L 671.999394 41.999081 " transform="matrix(1,0,0,-1,-219.6283,701.3858)"/>
<path style="fill:none;stroke-width:0.25;stroke-linecap:butt;stroke-linejoin:miter;stroke:rgb(0%,0%,0%);stroke-opacity:1;stroke-miterlimit:10;" d="M 41.999394 803.999081 L 41.999394 779.999081 M -0.00060625 761.999081 L 23.999394 761.999081 M 653.999394 803.999081 L 653.999394 779.999081 M 695.999394 761.999081 L 671.999394 761.999081 M 41.999394 -0.00091875 L 41.999394 23.999081 M -0.00060625 41.999081 L 23.999394 41.999081 M 653.999394 -0.00091875 L 653.999394 23.999081 M 695.999394 41.999081 L 671.999394 41.999081 " transform="matrix(1,0,0,-1,-219.6283,701.3858)"/>
<path style="fill:none;stroke-width:0.5;stroke-linecap:butt;stroke-linejoin:miter;stroke:rgb(100%,100%,100%);stroke-opacity:1;stroke-miterlimit:10;" d="M 323.999394 791.999081 L 371.999394 791.999081 M 323.999394 11.999081 L 371.999394 11.999081 M 11.999394 425.999081 L 11.999394 377.999081 M 683.999394 425.999081 L 683.999394 377.999081 M 347.999394 803.999081 L 347.999394 779.999081 M 347.999394 23.999081 L 347.999394 -0.00091875 M -0.00060625 401.999081 L 23.999394 401.999081 M 671.999394 401.999081 L 695.999394 401.999081 M 347.999394 791.999081 L 353.999394 791.999081 C 353.999394 788.686581 351.311894 785.999081 347.999394 785.999081 C 344.686894 785.999081 341.999394 788.686581 341.999394 791.999081 C 341.999394 795.311581 344.686894 797.999081 347.999394 797.999081 C 351.311894 797.999081 353.999394 795.311581 353.999394 791.999081 M 347.999394 11.999081 L 353.999394 11.999081 C 353.999394 8.686581 351.311894 5.999081 347.999394 5.999081 C 344.686894 5.999081 341.999394 8.686581 341.999394 11.999081 C 341.999394 15.311581 344.686894 17.999081 347.999394 17.999081 C 351.311894 17.999081 353.999394 15.311581 353.999394 11.999081 M 11.999394 401.999081 L 17.999394 401.999081 C 17.999394 398.686581 15.311894 395.999081 11.999394 395.999081 C 8.686894 395.999081 5.999394 398.686581 5.999394 401.999081 C 5.999394 405.311581 8.686894 407.999081 11.999394 407.999081 C 15.311894 407.999081 17.999394 405.311581 17.999394 401.999081 M 683.999394 401.999081 L 689.999394 401.999081 C 689.999394 398.686581 687.311894 395.999081 683.999394 395.999081 C 680.686894 395.999081 677.999394 398.686581 677.999394 401.999081 C 677.999394 405.311581 680.686894 407.999081 683.999394 407.999081 C 687.311894 407.999081 689.999394 405.311581 689.999394 401.999081 " transform="matrix(1,0,0,-1,-219.6283,701.3858)"/>
<path style="fill:none;stroke-width:0.25;stroke-linecap:butt;stroke-linejoin:miter;stroke:rgb(0%,0%,0%);stroke-opacity:1;stroke-miterlimit:10;" d="M 323.999394 791.999081 L 371.999394 791.999081 M 323.999394 11.999081 L 371.999394 11.999081 M 11.999394 425.999081 L 11.999394 377.999081 M 683.999394 425.999081 L 683.999394 377.999081 M 347.999394 803.999081 L 347.999394 779.999081 M 347.999394 23.999081 L 347.999394 -0.00091875 M -0.00060625 401.999081 L 23.999394 401.999081 M 671.999394 401.999081 L 695.999394 401.999081 M 347.999394 791.999081 L 353.999394 791.999081 C 353.999394 788.686581 351.311894 785.999081 347.999394 785.999081 C 344.686894 785.999081 341.999394 788.686581 341.999394 791.999081 C 341.999394 795.311581 344.686894 797.999081 347.999394 797.999081 C 351.311894 797.999081 353.999394 795.311581 353.999394 791.999081 M 347.999394 11.999081 L 353.999394 11.999081 C 353.999394 8.686581 351.311894 5.999081 347.999394 5.999081 C 344.686894 5.999081 341.999394 8.686581 341.999394 11.999081 C 341.999394 15.311581 344.686894 17.999081 347.999394 17.999081 C 351.311894 17.999081 353.999394 15.311581 353.999394 11.999081 M 11.999394 401.999081 L 17.999394 401.999081 C 17.999394 398.686581 15.311894 395.999081 11.999394 395.999081 C 8.686894 395.999081 5.999394 398.686581 5.999394 401.999081 C 5.999394 405.311581 8.686894 407.999081 11.999394 407.999081 C 15.311894 407.999081 17.999394 405.311581 17.999394 401.999081 M 683.999394 401.999081 L 689.999394 401.999081 C 689.999394 398.686581 687.311894 395.999081 683.999394 395.999081 C 680.686894 395.999081 677.999394 398.686581 677.999394 401.999081 C 677.999394 405.311581 680.686894 407.999081 683.999394 407.999081 C 687.311894 407.999081 689.999394 405.311581 689.999394 401.999081 " transform="matrix(1,0,0,-1,-219.6283,701.3858)"/>
</g>
</svg>
