<?xml version="1.0" encoding="UTF-8"?>
<svg xmlns="http://www.w3.org/2000/svg" xmlns:xlink="http://www.w3.org/1999/xlink" width="100.8001pt" height="81.0142pt" viewBox="0 0 100.8001 81.0142" version="1.1">
<defs>
<clipPath id="clip1">
  <path d="M 1.433594 19 L 98.433594 19 L 98.433594 61 L 1.433594 61 Z M 1.433594 19 "/>
</clipPath>
<clipPath id="clip2">
  <path d="M 1.433594 76 L 96 76 L 96 78 L 1.433594 78 Z M 1.433594 76 "/>
</clipPath>
<clipPath id="clip3">
  <path d="M 94 75 L 98.433594 75 L 98.433594 79 L 94 79 Z M 94 75 "/>
</clipPath>
</defs>
<g id="surface1">
<g clip-path="url(#clip1)" clip-rule="nonzero">
<path style="fill:none;stroke-width:1.2;stroke-linecap:butt;stroke-linejoin:miter;stroke:rgb(12.626648%,33.805847%,68.193054%);stroke-opacity:1;stroke-miterlimit:4;" d="M 484.7033 674.866269 L 572.648612 647.66705 " transform="matrix(1,0,0,-1,-478.8283,701.3858)"/>
</g>
<g clip-path="url(#clip2)" clip-rule="nonzero">
<path style="fill:none;stroke-width:0.7;stroke-linecap:butt;stroke-linejoin:miter;stroke:rgb(13.729858%,12.159729%,12.548828%);stroke-opacity:1;stroke-miterlimit:4;" d="M 574.070487 624.678769 L 480.906425 624.678769 " transform="matrix(1,0,0,-1,-478.8283,701.3858)"/>
</g>
<g clip-path="url(#clip3)" clip-rule="nonzero">
<path style=" stroke:none;fill-rule:nonzero;fill:rgb(13.729858%,12.159729%,12.548828%);fill-opacity:1;" d="M 98.207031 76.707031 L 94.027344 78.414062 L 95.019531 76.707031 L 94.027344 75 L 98.207031 76.707031 "/>
</g>
<path style=" stroke:none;fill-rule:nonzero;fill:rgb(93.609619%,18.434143%,17.378235%);fill-opacity:1;" d="M 88.507812 62.460938 C 88.507812 63.566406 87.613281 64.460938 86.507812 64.460938 C 85.402344 64.460938 84.507812 63.566406 84.507812 62.460938 C 84.507812 61.359375 85.402344 60.460938 86.507812 60.460938 C 87.613281 60.460938 88.507812 61.359375 88.507812 62.460938 "/>
<path style=" stroke:none;fill-rule:nonzero;fill:rgb(93.609619%,18.434143%,17.378235%);fill-opacity:1;" d="M 79.53125 55.054688 C 79.53125 56.15625 78.636719 57.054688 77.53125 57.054688 C 76.425781 57.054688 75.53125 56.15625 75.53125 55.054688 C 75.53125 53.953125 76.425781 53.054688 77.53125 53.054688 C 78.636719 53.054688 79.53125 53.953125 79.53125 55.054688 "/>
<path style=" stroke:none;fill-rule:nonzero;fill:rgb(93.609619%,18.434143%,17.378235%);fill-opacity:1;" d="M 52.609375 48.199219 C 52.609375 49.304688 51.710938 50.199219 50.609375 50.199219 C 49.5 50.199219 48.609375 49.304688 48.609375 48.199219 C 48.609375 47.097656 49.5 46.199219 50.609375 46.199219 C 51.710938 46.199219 52.609375 47.097656 52.609375 48.199219 "/>
<path style=" stroke:none;fill-rule:nonzero;fill:rgb(93.609619%,18.434143%,17.378235%);fill-opacity:1;" d="M 52.609375 41.71875 C 52.609375 42.820312 51.710938 43.71875 50.609375 43.71875 C 49.5 43.71875 48.609375 42.820312 48.609375 41.71875 C 48.609375 40.613281 49.5 39.71875 50.609375 39.71875 C 51.710938 39.71875 52.609375 40.613281 52.609375 41.71875 "/>
<path style=" stroke:none;fill-rule:nonzero;fill:rgb(93.609619%,18.434143%,17.378235%);fill-opacity:1;" d="M 43.382812 33.863281 C 43.382812 34.96875 42.488281 35.863281 41.382812 35.863281 C 40.277344 35.863281 39.382812 34.96875 39.382812 33.863281 C 39.382812 32.761719 40.277344 31.863281 41.382812 31.863281 C 42.488281 31.863281 43.382812 32.761719 43.382812 33.863281 "/>
<path style=" stroke:none;fill-rule:nonzero;fill:rgb(93.609619%,18.434143%,17.378235%);fill-opacity:1;" d="M 25.558594 27.007812 C 25.558594 28.113281 24.660156 29.007812 23.558594 29.007812 C 22.453125 29.007812 21.558594 28.113281 21.558594 27.007812 C 21.558594 25.90625 22.453125 25.007812 23.558594 25.007812 C 24.660156 25.007812 25.558594 25.90625 25.558594 27.007812 "/>
<path style=" stroke:none;fill-rule:nonzero;fill:rgb(93.609619%,18.434143%,17.378235%);fill-opacity:1;" d="M 16.808594 9.019531 C 16.808594 10.125 15.914062 11.019531 14.808594 11.019531 C 13.707031 11.019531 12.808594 10.125 12.808594 9.019531 C 12.808594 7.917969 13.707031 7.019531 14.808594 7.019531 C 15.914062 7.019531 16.808594 7.917969 16.808594 9.019531 "/>
<path style="fill:none;stroke-width:0.7;stroke-linecap:butt;stroke-linejoin:miter;stroke:rgb(13.729858%,12.159729%,12.548828%);stroke-opacity:1;stroke-miterlimit:4;" d="M 484.7033 697.210019 L 484.7033 620.8858 " transform="matrix(1,0,0,-1,-478.8283,701.3858)"/>
<path style=" stroke:none;fill-rule:nonzero;fill:rgb(13.729858%,12.159729%,12.548828%);fill-opacity:1;" d="M 5.875 1.210938 L 7.582031 5.390625 L 5.875 4.398438 L 4.167969 5.390625 L 5.875 1.210938 "/>
<path style="fill:none;stroke-width:0.5;stroke-linecap:butt;stroke-linejoin:miter;stroke:rgb(100%,100%,100%);stroke-opacity:1;stroke-miterlimit:10;" d="M 42.000175 803.999081 L 42.000175 779.999081 M 0.000175 761.999081 L 24.000175 761.999081 M 654.000175 803.999081 L 654.000175 779.999081 M 696.000175 761.999081 L 672.000175 761.999081 M 42.000175 -0.00091875 L 42.000175 23.999081 M 0.000175 41.999081 L 24.000175 41.999081 M 654.000175 -0.00091875 L 654.000175 23.999081 M 696.000175 41.999081 L 672.000175 41.999081 " transform="matrix(1,0,0,-1,-478.8283,701.3858)"/>
<path style="fill:none;stroke-width:0.25;stroke-linecap:butt;stroke-linejoin:miter;stroke:rgb(0%,0%,0%);stroke-opacity:1;stroke-miterlimit:10;" d="M 42.000175 803.999081 L 42.000175 779.999081 M 0.000175 761.999081 L 24.000175 761.999081 M 654.000175 803.999081 L 654.000175 779.999081 M 696.000175 761.999081 L 672.000175 761.999081 M 42.000175 -0.00091875 L 42.000175 23.999081 M 0.000175 41.999081 L 24.000175 41.999081 M 654.000175 -0.00091875 L 654.000175 23.999081 M 696.000175 41.999081 L 672.000175 41.999081 " transform="matrix(1,0,0,-1,-478.8283,701.3858)"/>
<path style="fill:none;stroke-width:0.5;stroke-linecap:butt;stroke-linejoin:miter;stroke:rgb(100%,100%,100%);stroke-opacity:1;stroke-miterlimit:10;" d="M 324.000175 791.999081 L 372.000175 791.999081 M 324.000175 11.999081 L 372.000175 11.999081 M 12.000175 425.999081 L 12.000175 377.999081 M 684.000175 425.999081 L 684.000175 377.999081 M 348.000175 803.999081 L 348.000175 779.999081 M 348.000175 23.999081 L 348.000175 -0.00091875 M 0.000175 401.999081 L 24.000175 401.999081 M 672.000175 401.999081 L 696.000175 401.999081 M 348.000175 791.999081 L 354.000175 791.999081 C 354.000175 788.686581 351.312675 785.999081 348.000175 785.999081 C 344.687675 785.999081 342.000175 788.686581 342.000175 791.999081 C 342.000175 795.311581 344.687675 797.999081 348.000175 797.999081 C 351.312675 797.999081 354.000175 795.311581 354.000175 791.999081 M 348.000175 11.999081 L 354.000175 11.999081 C 354.000175 8.686581 351.312675 5.999081 348.000175 5.999081 C 344.687675 5.999081 342.000175 8.686581 342.000175 11.999081 C 342.000175 15.311581 344.687675 17.999081 348.000175 17.999081 C 351.312675 17.999081 354.000175 15.311581 354.000175 11.999081 M 12.000175 401.999081 L 18.000175 401.999081 C 18.000175 398.686581 15.312675 395.999081 12.000175 395.999081 C 8.687675 395.999081 6.000175 398.686581 6.000175 401.999081 C 6.000175 405.311581 8.687675 407.999081 12.000175 407.999081 C 15.312675 407.999081 18.000175 405.311581 18.000175 401.999081 M 684.000175 401.999081 L 690.000175 401.999081 C 690.000175 398.686581 687.312675 395.999081 684.000175 395.999081 C 680.687675 395.999081 678.000175 398.686581 678.000175 401.999081 C 678.000175 405.311581 680.687675 407.999081 684.000175 407.999081 C 687.312675 407.999081 690.000175 405.311581 690.000175 401.999081 " transform="matrix(1,0,0,-1,-478.8283,701.3858)"/>
<path style="fill:none;stroke-width:0.25;stroke-linecap:butt;stroke-linejoin:miter;stroke:rgb(0%,0%,0%);stroke-opacity:1;stroke-miterlimit:10;" d="M 324.000175 791.999081 L 372.000175 791.999081 M 324.000175 11.999081 L 372.000175 11.999081 M 12.000175 425.999081 L 12.000175 377.999081 M 684.000175 425.999081 L 684.000175 377.999081 M 348.000175 803.999081 L 348.000175 779.999081 M 348.000175 23.999081 L 348.000175 -0.00091875 M 0.000175 401.999081 L 24.000175 401.999081 M 672.000175 401.999081 L 696.000175 401.999081 M 348.000175 791.999081 L 354.000175 791.999081 C 354.000175 788.686581 351.312675 785.999081 348.000175 785.999081 C 344.687675 785.999081 342.000175 788.686581 342.000175 791.999081 C 342.000175 795.311581 344.687675 797.999081 348.000175 797.999081 C 351.312675 797.999081 354.000175 795.311581 354.000175 791.999081 M 348.000175 11.999081 L 354.000175 11.999081 C 354.000175 8.686581 351.312675 5.999081 348.000175 5.999081 C 344.687675 5.999081 342.000175 8.686581 342.000175 11.999081 C 342.000175 15.311581 344.687675 17.999081 348.000175 17.999081 C 351.312675 17.999081 354.000175 15.311581 354.000175 11.999081 M 12.000175 401.999081 L 18.000175 401.999081 C 18.000175 398.686581 15.312675 395.999081 12.000175 395.999081 C 8.687675 395.999081 6.000175 398.686581 6.000175 401.999081 C 6.000175 405.311581 8.687675 407.999081 12.000175 407.999081 C 15.312675 407.999081 18.000175 405.311581 18.000175 401.999081 M 684.000175 401.999081 L 690.000175 401.999081 C 690.000175 398.686581 687.312675 395.999081 684.000175 395.999081 C 680.687675 395.999081 678.000175 398.686581 678.000175 401.999081 C 678.000175 405.311581 680.687675 407.999081 684.000175 407.999081 C 687.312675 407.999081 690.000175 405.311581 690.000175 401.999081 " transform="matrix(1,0,0,-1,-478.8283,701.3858)"/>
</g>
</svg>
