<?xml version="1.0" encoding="UTF-8"?>
<svg xmlns="http://www.w3.org/2000/svg" xmlns:xlink="http://www.w3.org/1999/xlink" width="108.0001pt" height="106.1858pt" viewBox="0 0 108.0001 106.1858" version="1.1">
<defs>
<clipPath id="clip1">
  <path d="M 0.871094 25 L 88 25 L 88 105.957031 L 0.871094 105.957031 Z M 0.871094 25 "/>
</clipPath>
<clipPath id="clip2">
  <path d="M 101 101 L 105.871094 101 L 105.871094 105.957031 L 101 105.957031 Z M 101 101 "/>
</clipPath>
<clipPath id="clip3">
  <path d="M 0 0 L 108 0 L 108 106.1875 L 0 106.1875 Z M 0 0 "/>
</clipPath>
</defs>
<g id="surface1">
<path style="fill:none;stroke-width:0.35;stroke-linecap:butt;stroke-linejoin:miter;stroke:rgb(74.119568%,73.648071%,73.765564%);stroke-opacity:1;stroke-miterlimit:4;" d="M 232.354863 221.936581 L 232.354863 129.944394 M 241.554081 221.936581 L 241.554081 129.944394 M 250.7533 221.936581 L 250.7533 129.944394 M 259.952519 221.936581 L 259.952519 129.944394 M 269.151738 221.936581 L 269.151738 129.944394 M 278.350956 221.936581 L 278.350956 129.944394 M 287.550175 221.936581 L 287.550175 129.944394 M 296.749394 221.936581 L 296.749394 129.944394 M 305.948613 221.936581 L 305.948613 129.944394 M 315.147831 221.936581 L 315.147831 129.944394 M 223.151738 129.944394 L 315.147831 129.944394 M 223.151738 139.143613 L 315.147831 139.143613 M 223.151738 148.342831 L 315.147831 148.342831 M 223.151738 157.54205 L 315.147831 157.54205 M 223.151738 166.741269 L 315.147831 166.741269 M 223.151738 175.940488 L 315.147831 175.940488 M 223.151738 185.139706 L 315.147831 185.139706 M 223.151738 194.338925 L 315.147831 194.338925 M 223.151738 203.538144 L 315.147831 203.538144 M 223.151738 212.737363 L 315.147831 212.737363 M 223.151738 221.936581 L 315.147831 221.936581 " transform="matrix(1,0,0,-1,-219.6283,233.3858)"/>
<g clip-path="url(#clip1)" clip-rule="nonzero">
<path style="fill:none;stroke-width:1.21;stroke-linecap:butt;stroke-linejoin:miter;stroke:rgb(93.609619%,18.434143%,17.378235%);stroke-opacity:1;stroke-miterlimit:4;" d="M 223.151738 200.745175 C 278.061894 200.745175 295.886113 150.534238 300.132206 134.303769 " transform="matrix(1,0,0,-1,-219.6283,233.3858)"/>
</g>
<path style=" stroke:none;fill-rule:nonzero;fill:rgb(93.609619%,18.434143%,17.378235%);fill-opacity:1;" d="M 81.582031 103.214844 L 77.683594 98.011719 L 80.421875 98.773438 L 82.4375 96.769531 L 81.582031 103.214844 "/>
<path style="fill:none;stroke-width:0.7;stroke-linecap:butt;stroke-linejoin:miter;stroke:rgb(13.729858%,12.159729%,12.548828%);stroke-opacity:1;stroke-miterlimit:4;" d="M 223.151738 228.971738 L 223.151738 129.944394 " transform="matrix(1,0,0,-1,-219.6283,233.3858)"/>
<path style=" stroke:none;fill-rule:nonzero;fill:rgb(13.729858%,12.159729%,12.548828%);fill-opacity:1;" d="M 3.523438 1.449219 L 5.230469 5.628906 L 3.523438 4.636719 L 1.816406 5.628906 L 3.523438 1.449219 "/>
<path style="fill:none;stroke-width:0.7;stroke-linecap:butt;stroke-linejoin:miter;stroke:rgb(13.729858%,12.159729%,12.548828%);stroke-opacity:1;stroke-miterlimit:4;" d="M 223.151738 129.944394 L 322.182988 129.944394 " transform="matrix(1,0,0,-1,-219.6283,233.3858)"/>
<g clip-path="url(#clip2)" clip-rule="nonzero">
<path style=" stroke:none;fill-rule:nonzero;fill:rgb(13.729858%,12.159729%,12.548828%);fill-opacity:1;" d="M 105.519531 103.441406 L 101.339844 105.148438 L 102.332031 103.441406 L 101.339844 101.734375 L 105.519531 103.441406 "/>
</g>
<g clip-path="url(#clip3)" clip-rule="nonzero">
<path style="fill:none;stroke-width:0.5;stroke-linecap:butt;stroke-linejoin:miter;stroke:rgb(100%,100%,100%);stroke-opacity:1;stroke-miterlimit:10;" d="M 41.999394 803.999081 L 41.999394 779.999081 M -0.00060625 761.999081 L 23.999394 761.999081 M 653.999394 803.999081 L 653.999394 779.999081 M 695.999394 761.999081 L 671.999394 761.999081 M 41.999394 -0.00091875 L 41.999394 23.999081 M -0.00060625 41.999081 L 23.999394 41.999081 M 653.999394 -0.00091875 L 653.999394 23.999081 M 695.999394 41.999081 L 671.999394 41.999081 " transform="matrix(1,0,0,-1,-219.6283,233.3858)"/>
<path style="fill:none;stroke-width:0.25;stroke-linecap:butt;stroke-linejoin:miter;stroke:rgb(0%,0%,0%);stroke-opacity:1;stroke-miterlimit:10;" d="M 41.999394 803.999081 L 41.999394 779.999081 M -0.00060625 761.999081 L 23.999394 761.999081 M 653.999394 803.999081 L 653.999394 779.999081 M 695.999394 761.999081 L 671.999394 761.999081 M 41.999394 -0.00091875 L 41.999394 23.999081 M -0.00060625 41.999081 L 23.999394 41.999081 M 653.999394 -0.00091875 L 653.999394 23.999081 M 695.999394 41.999081 L 671.999394 41.999081 " transform="matrix(1,0,0,-1,-219.6283,233.3858)"/>
<path style="fill:none;stroke-width:0.5;stroke-linecap:butt;stroke-linejoin:miter;stroke:rgb(100%,100%,100%);stroke-opacity:1;stroke-miterlimit:10;" d="M 323.999394 791.999081 L 371.999394 791.999081 M 323.999394 11.999081 L 371.999394 11.999081 M 11.999394 425.999081 L 11.999394 377.999081 M 683.999394 425.999081 L 683.999394 377.999081 M 347.999394 803.999081 L 347.999394 779.999081 M 347.999394 23.999081 L 347.999394 -0.00091875 M -0.00060625 401.999081 L 23.999394 401.999081 M 671.999394 401.999081 L 695.999394 401.999081 M 347.999394 791.999081 L 353.999394 791.999081 C 353.999394 788.686581 351.311894 785.999081 347.999394 785.999081 C 344.686894 785.999081 341.999394 788.686581 341.999394 791.999081 C 341.999394 795.311581 344.686894 797.999081 347.999394 797.999081 C 351.311894 797.999081 353.999394 795.311581 353.999394 791.999081 M 347.999394 11.999081 L 353.999394 11.999081 C 353.999394 8.686581 351.311894 5.999081 347.999394 5.999081 C 344.686894 5.999081 341.999394 8.686581 341.999394 11.999081 C 341.999394 15.311581 344.686894 17.999081 347.999394 17.999081 C 351.311894 17.999081 353.999394 15.311581 353.999394 11.999081 M 11.999394 401.999081 L 17.999394 401.999081 C 17.999394 398.686581 15.311894 395.999081 11.999394 395.999081 C 8.686894 395.999081 5.999394 398.686581 5.999394 401.999081 C 5.999394 405.311581 8.686894 407.999081 11.999394 407.999081 C 15.311894 407.999081 17.999394 405.311581 17.999394 401.999081 M 683.999394 401.999081 L 689.999394 401.999081 C 689.999394 398.686581 687.311894 395.999081 683.999394 395.999081 C 680.686894 395.999081 677.999394 398.686581 677.999394 401.999081 C 677.999394 405.311581 680.686894 407.999081 683.999394 407.999081 C 687.311894 407.999081 689.999394 405.311581 689.999394 401.999081 " transform="matrix(1,0,0,-1,-219.6283,233.3858)"/>
<path style="fill:none;stroke-width:0.25;stroke-linecap:butt;stroke-linejoin:miter;stroke:rgb(0%,0%,0%);stroke-opacity:1;stroke-miterlimit:10;" d="M 323.999394 791.999081 L 371.999394 791.999081 M 323.999394 11.999081 L 371.999394 11.999081 M 11.999394 425.999081 L 11.999394 377.999081 M 683.999394 425.999081 L 683.999394 377.999081 M 347.999394 803.999081 L 347.999394 779.999081 M 347.999394 23.999081 L 347.999394 -0.00091875 M -0.00060625 401.999081 L 23.999394 401.999081 M 671.999394 401.999081 L 695.999394 401.999081 M 347.999394 791.999081 L 353.999394 791.999081 C 353.999394 788.686581 351.311894 785.999081 347.999394 785.999081 C 344.686894 785.999081 341.999394 788.686581 341.999394 791.999081 C 341.999394 795.311581 344.686894 797.999081 347.999394 797.999081 C 351.311894 797.999081 353.999394 795.311581 353.999394 791.999081 M 347.999394 11.999081 L 353.999394 11.999081 C 353.999394 8.686581 351.311894 5.999081 347.999394 5.999081 C 344.686894 5.999081 341.999394 8.686581 341.999394 11.999081 C 341.999394 15.311581 344.686894 17.999081 347.999394 17.999081 C 351.311894 17.999081 353.999394 15.311581 353.999394 11.999081 M 11.999394 401.999081 L 17.999394 401.999081 C 17.999394 398.686581 15.311894 395.999081 11.999394 395.999081 C 8.686894 395.999081 5.999394 398.686581 5.999394 401.999081 C 5.999394 405.311581 8.686894 407.999081 11.999394 407.999081 C 15.311894 407.999081 17.999394 405.311581 17.999394 401.999081 M 683.999394 401.999081 L 689.999394 401.999081 C 689.999394 398.686581 687.311894 395.999081 683.999394 395.999081 C 680.686894 395.999081 677.999394 398.686581 677.999394 401.999081 C 677.999394 405.311581 680.686894 407.999081 683.999394 407.999081 C 687.311894 407.999081 689.999394 405.311581 689.999394 401.999081 " transform="matrix(1,0,0,-1,-219.6283,233.3858)"/>
</g>
</g>
</svg>
