<?xml version="1.0" encoding="UTF-8"?>
<svg xmlns="http://www.w3.org/2000/svg" xmlns:xlink="http://www.w3.org/1999/xlink" width="113.3859pt" height="77.4426pt" viewBox="0 0 113.3859 77.4426" version="1.1">
<defs>
<clipPath id="clip1">
  <path d="M 2 2.414062 L 111.960938 2.414062 L 111.960938 76 L 2 76 Z M 2 2.414062 "/>
</clipPath>
<clipPath id="clip2">
  <path d="M 1.960938 53 L 111.960938 53 L 111.960938 76.414062 L 1.960938 76.414062 Z M 1.960938 53 "/>
</clipPath>
<clipPath id="clip3">
  <path d="M 0 0 L 113.386719 0 L 113.386719 77.441406 L 0 77.441406 Z M 0 0 "/>
</clipPath>
</defs>
<g id="surface1">
<path style=" stroke:none;fill-rule:nonzero;fill:rgb(100%,100%,100%);fill-opacity:1;" d="M 1.960938 2.414062 L 111.960938 2.414062 L 111.960938 76.414062 L 1.960938 76.414062 Z M 1.960938 2.414062 "/>
<path style=" stroke:none;fill-rule:nonzero;fill:rgb(90.000916%,96.783447%,99.372864%);fill-opacity:1;" d="M 2.9375 2.867188 L 111.441406 2.867188 L 111.441406 75.265625 L 2.9375 75.265625 Z M 2.9375 2.867188 "/>
<g clip-path="url(#clip1)" clip-rule="nonzero">
<path style="fill:none;stroke-width:0.7;stroke-linecap:butt;stroke-linejoin:miter;stroke:rgb(13.729858%,12.159729%,12.548828%);stroke-opacity:1;stroke-miterlimit:4;" d="M 78.5658 428.148575 L 187.069706 428.148575 L 187.069706 500.547012 L 78.5658 500.547012 Z M 80.839237 494.94545 L 78.694706 494.94545 M 80.839237 483.4767 L 78.694706 483.4767 M 80.839237 472.004044 L 78.694706 472.004044 M 80.839237 460.531387 L 78.694706 460.531387 M 80.839237 449.062637 L 78.694706 449.062637 M 80.839237 437.589981 L 78.694706 437.589981 " transform="matrix(1,0,0,-1,-75.6283,503.4142)"/>
</g>
<path style=" stroke:none;fill-rule:nonzero;fill:rgb(13.729858%,12.159729%,12.548828%);fill-opacity:1;" d="M 99.035156 12.128906 L 99.722656 12.128906 L 99.722656 12.816406 L 99.035156 12.816406 Z M 99.035156 12.957031 L 99.722656 12.957031 L 99.722656 13.644531 L 99.035156 13.644531 Z M 98.191406 12.128906 L 98.878906 12.128906 L 98.878906 12.816406 L 98.191406 12.816406 Z M 99.035156 13.789062 L 99.722656 13.789062 L 99.722656 14.472656 L 99.035156 14.472656 Z M 97.347656 12.128906 L 98.035156 12.128906 L 98.035156 12.816406 L 97.347656 12.816406 Z M 98.191406 13.789062 L 98.878906 13.789062 L 98.878906 14.472656 L 98.191406 14.472656 Z M 97.347656 12.957031 L 98.035156 12.957031 L 98.035156 13.644531 L 97.347656 13.644531 Z M 97.347656 13.789062 L 98.035156 13.789062 L 98.035156 14.472656 L 97.347656 14.472656 Z M 97.347656 13.789062 "/>
<path style=" stroke:none;fill-rule:nonzero;fill:rgb(13.729858%,12.159729%,12.548828%);fill-opacity:1;" d="M 77.316406 42.691406 L 78.003906 42.691406 L 78.003906 42.003906 L 77.316406 42.003906 Z M 78.160156 42.691406 L 78.847656 42.691406 L 78.847656 42.003906 L 78.160156 42.003906 Z M 78.160156 43.519531 L 78.847656 43.519531 L 78.847656 42.832031 L 78.160156 42.832031 Z M 78.160156 44.347656 L 78.847656 44.347656 L 78.847656 43.660156 L 78.160156 43.660156 Z M 76.472656 42.691406 L 77.160156 42.691406 L 77.160156 42.003906 L 76.472656 42.003906 Z M 77.316406 44.347656 L 78.003906 44.347656 L 78.003906 43.660156 L 77.316406 43.660156 Z M 76.472656 43.519531 L 77.160156 43.519531 L 77.160156 42.832031 L 76.472656 42.832031 Z M 76.472656 44.347656 L 77.160156 44.347656 L 77.160156 43.660156 L 76.472656 43.660156 Z M 76.472656 44.347656 "/>
<path style=" stroke:none;fill-rule:nonzero;fill:rgb(13.729858%,12.159729%,12.548828%);fill-opacity:1;" d="M 56.160156 60.644531 L 56.847656 60.644531 L 56.847656 59.957031 L 56.160156 59.957031 Z M 56.160156 59.816406 L 56.847656 59.816406 L 56.847656 59.128906 L 56.160156 59.128906 Z M 55.316406 59.816406 L 56.003906 59.816406 L 56.003906 59.128906 L 55.316406 59.128906 Z M 56.160156 61.472656 L 56.847656 61.472656 L 56.847656 60.785156 L 56.160156 60.785156 Z M 54.472656 59.816406 L 55.160156 59.816406 L 55.160156 59.128906 L 54.472656 59.128906 Z M 55.316406 61.472656 L 56.003906 61.472656 L 56.003906 60.785156 L 55.316406 60.785156 Z M 54.472656 60.644531 L 55.160156 60.644531 L 55.160156 59.957031 L 54.472656 59.957031 Z M 54.472656 61.472656 L 55.160156 61.472656 L 55.160156 60.785156 L 54.472656 60.785156 Z M 54.472656 61.472656 "/>
<path style=" stroke:none;fill-rule:nonzero;fill:rgb(13.729858%,12.159729%,12.548828%);fill-opacity:1;" d="M 32.722656 62.894531 L 33.410156 62.894531 L 33.410156 62.207031 L 32.722656 62.207031 Z M 34.410156 62.066406 L 35.097656 62.066406 L 35.097656 61.378906 L 34.410156 61.378906 Z M 34.410156 62.894531 L 35.097656 62.894531 L 35.097656 62.207031 L 34.410156 62.207031 Z M 33.566406 62.066406 L 34.253906 62.066406 L 34.253906 61.378906 L 33.566406 61.378906 Z M 34.410156 63.722656 L 35.097656 63.722656 L 35.097656 63.035156 L 34.410156 63.035156 Z M 32.722656 62.066406 L 33.410156 62.066406 L 33.410156 61.378906 L 32.722656 61.378906 Z M 33.566406 63.722656 L 34.253906 63.722656 L 34.253906 63.035156 L 33.566406 63.035156 Z M 32.722656 63.722656 L 33.410156 63.722656 L 33.410156 63.035156 L 32.722656 63.035156 Z M 32.722656 63.722656 "/>
<path style=" stroke:none;fill-rule:nonzero;fill:rgb(13.729858%,12.159729%,12.548828%);fill-opacity:1;" d="M 11.847656 56.441406 L 12.535156 56.441406 L 12.535156 55.753906 L 11.847656 55.753906 Z M 13.535156 56.441406 L 14.222656 56.441406 L 14.222656 55.753906 L 13.535156 55.753906 Z M 13.535156 57.269531 L 14.222656 57.269531 L 14.222656 56.582031 L 13.535156 56.582031 Z M 12.691406 56.441406 L 13.378906 56.441406 L 13.378906 55.753906 L 12.691406 55.753906 Z M 13.535156 58.097656 L 14.222656 58.097656 L 14.222656 57.410156 L 13.535156 57.410156 Z M 12.691406 58.097656 L 13.378906 58.097656 L 13.378906 57.410156 L 12.691406 57.410156 Z M 11.847656 57.269531 L 12.535156 57.269531 L 12.535156 56.582031 L 11.847656 56.582031 Z M 11.847656 58.097656 L 12.535156 58.097656 L 12.535156 57.410156 L 11.847656 57.410156 Z M 11.847656 58.097656 "/>
<g clip-path="url(#clip2)" clip-rule="nonzero">
<path style="fill:none;stroke-width:0.7;stroke-linecap:butt;stroke-linejoin:miter;stroke:rgb(13.729858%,12.159729%,12.548828%);stroke-opacity:1;stroke-miterlimit:4;" d="M 78.604862 446.066544 L 184.839237 437.054825 M 80.47205 430.683731 L 80.47205 431.3517 M 82.600956 430.683731 L 82.600956 431.3517 M 84.725956 430.683731 L 84.725956 431.3517 M 86.854862 430.683731 L 86.854862 431.3517 M 88.983769 430.683731 L 88.983769 431.3517 M 91.108769 430.683731 L 91.108769 431.3517 M 93.237675 430.683731 L 93.237675 431.3517 M 95.362675 430.683731 L 95.362675 431.3517 M 97.491581 430.683731 L 97.491581 431.3517 M 99.620487 430.683731 L 99.620487 431.3517 M 101.745487 430.683731 L 101.745487 431.3517 M 103.874394 430.683731 L 103.874394 431.3517 M 106.0033 430.683731 L 106.0033 431.3517 M 108.1283 430.683731 L 108.1283 431.3517 M 110.257206 430.683731 L 110.257206 431.3517 M 112.382206 430.683731 L 112.382206 431.3517 M 114.511112 430.683731 L 114.511112 431.3517 M 116.640019 430.683731 L 116.640019 431.3517 M 118.768925 430.683731 L 118.768925 431.3517 M 120.893925 430.683731 L 120.893925 431.3517 M 123.022831 430.683731 L 123.022831 431.3517 M 125.151737 430.683731 L 125.151737 431.3517 M 127.276737 430.683731 L 127.276737 431.3517 M 129.405644 430.683731 L 129.405644 431.3517 M 131.530644 430.683731 L 131.530644 431.3517 M 133.65955 430.683731 L 133.65955 431.3517 M 135.788456 430.683731 L 135.788456 431.3517 M 137.917362 430.683731 L 137.917362 431.3517 M 140.042362 430.683731 L 140.042362 431.3517 M 142.171269 430.683731 L 142.171269 431.3517 M 144.296269 430.683731 L 144.296269 431.3517 M 146.425175 430.683731 L 146.425175 431.3517 M 148.554081 430.683731 L 148.554081 431.3517 M 150.679081 430.683731 L 150.679081 431.3517 M 152.807987 430.683731 L 152.807987 431.3517 M 154.936894 430.683731 L 154.936894 431.3517 M 157.061894 430.683731 L 157.061894 431.3517 M 159.1908 430.683731 L 159.1908 431.3517 M 161.3158 430.683731 L 161.3158 431.3517 M 163.444706 430.683731 L 163.444706 431.3517 M 165.573612 430.683731 L 165.573612 431.3517 M 167.698612 430.683731 L 167.698612 431.3517 M 169.827519 430.683731 L 169.827519 431.3517 M 171.956425 430.683731 L 171.956425 431.3517 M 174.081425 430.683731 L 174.081425 431.3517 M 176.210331 430.683731 L 176.210331 431.3517 M 178.339237 430.683731 L 178.339237 431.3517 M 180.464237 430.683731 L 180.464237 431.3517 M 182.593144 430.683731 L 182.593144 431.3517 M 184.718144 430.683731 L 184.718144 431.3517 " transform="matrix(1,0,0,-1,-75.6283,503.4142)"/>
</g>
<g clip-path="url(#clip3)" clip-rule="nonzero">
<path style="fill:none;stroke-width:0.5;stroke-linecap:butt;stroke-linejoin:miter;stroke:rgb(100%,100%,100%);stroke-opacity:1;stroke-miterlimit:10;" d="M 41.999394 804.000137 L 41.999394 780.000137 M -0.00060625 762.000137 L 23.999394 762.000137 M 653.999394 804.000137 L 653.999394 780.000137 M 695.999394 762.000137 L 671.999394 762.000137 M 41.999394 0.0001375 L 41.999394 24.000137 M -0.00060625 42.000137 L 23.999394 42.000137 M 653.999394 0.0001375 L 653.999394 24.000137 M 695.999394 42.000137 L 671.999394 42.000137 " transform="matrix(1,0,0,-1,-75.6283,503.4142)"/>
<path style="fill:none;stroke-width:0.25;stroke-linecap:butt;stroke-linejoin:miter;stroke:rgb(0%,0%,0%);stroke-opacity:1;stroke-miterlimit:10;" d="M 41.999394 804.000137 L 41.999394 780.000137 M -0.00060625 762.000137 L 23.999394 762.000137 M 653.999394 804.000137 L 653.999394 780.000137 M 695.999394 762.000137 L 671.999394 762.000137 M 41.999394 0.0001375 L 41.999394 24.000137 M -0.00060625 42.000137 L 23.999394 42.000137 M 653.999394 0.0001375 L 653.999394 24.000137 M 695.999394 42.000137 L 671.999394 42.000137 " transform="matrix(1,0,0,-1,-75.6283,503.4142)"/>
<path style="fill:none;stroke-width:0.5;stroke-linecap:butt;stroke-linejoin:miter;stroke:rgb(100%,100%,100%);stroke-opacity:1;stroke-miterlimit:10;" d="M 323.999394 792.000137 L 371.999394 792.000137 M 323.999394 12.000137 L 371.999394 12.000137 M 11.999394 426.000137 L 11.999394 378.000137 M 683.999394 426.000137 L 683.999394 378.000137 M 347.999394 804.000137 L 347.999394 780.000137 M 347.999394 24.000137 L 347.999394 0.0001375 M -0.00060625 402.000137 L 23.999394 402.000137 M 671.999394 402.000137 L 695.999394 402.000137 M 347.999394 792.000137 L 353.999394 792.000137 C 353.999394 788.687637 351.311894 786.000137 347.999394 786.000137 C 344.686894 786.000137 341.999394 788.687637 341.999394 792.000137 C 341.999394 795.312637 344.686894 798.000137 347.999394 798.000137 C 351.311894 798.000137 353.999394 795.312637 353.999394 792.000137 M 347.999394 12.000137 L 353.999394 12.000137 C 353.999394 8.687637 351.311894 6.000137 347.999394 6.000137 C 344.686894 6.000137 341.999394 8.687637 341.999394 12.000137 C 341.999394 15.312637 344.686894 18.000137 347.999394 18.000137 C 351.311894 18.000137 353.999394 15.312637 353.999394 12.000137 M 11.999394 402.000137 L 17.999394 402.000137 C 17.999394 398.687637 15.311894 396.000137 11.999394 396.000137 C 8.686894 396.000137 5.999394 398.687637 5.999394 402.000137 C 5.999394 405.312637 8.686894 408.000137 11.999394 408.000137 C 15.311894 408.000137 17.999394 405.312637 17.999394 402.000137 M 683.999394 402.000137 L 689.999394 402.000137 C 689.999394 398.687637 687.311894 396.000137 683.999394 396.000137 C 680.686894 396.000137 677.999394 398.687637 677.999394 402.000137 C 677.999394 405.312637 680.686894 408.000137 683.999394 408.000137 C 687.311894 408.000137 689.999394 405.312637 689.999394 402.000137 " transform="matrix(1,0,0,-1,-75.6283,503.4142)"/>
<path style="fill:none;stroke-width:0.25;stroke-linecap:butt;stroke-linejoin:miter;stroke:rgb(0%,0%,0%);stroke-opacity:1;stroke-miterlimit:10;" d="M 323.999394 792.000137 L 371.999394 792.000137 M 323.999394 12.000137 L 371.999394 12.000137 M 11.999394 426.000137 L 11.999394 378.000137 M 683.999394 426.000137 L 683.999394 378.000137 M 347.999394 804.000137 L 347.999394 780.000137 M 347.999394 24.000137 L 347.999394 0.0001375 M -0.00060625 402.000137 L 23.999394 402.000137 M 671.999394 402.000137 L 695.999394 402.000137 M 347.999394 792.000137 L 353.999394 792.000137 C 353.999394 788.687637 351.311894 786.000137 347.999394 786.000137 C 344.686894 786.000137 341.999394 788.687637 341.999394 792.000137 C 341.999394 795.312637 344.686894 798.000137 347.999394 798.000137 C 351.311894 798.000137 353.999394 795.312637 353.999394 792.000137 M 347.999394 12.000137 L 353.999394 12.000137 C 353.999394 8.687637 351.311894 6.000137 347.999394 6.000137 C 344.686894 6.000137 341.999394 8.687637 341.999394 12.000137 C 341.999394 15.312637 344.686894 18.000137 347.999394 18.000137 C 351.311894 18.000137 353.999394 15.312637 353.999394 12.000137 M 11.999394 402.000137 L 17.999394 402.000137 C 17.999394 398.687637 15.311894 396.000137 11.999394 396.000137 C 8.686894 396.000137 5.999394 398.687637 5.999394 402.000137 C 5.999394 405.312637 8.686894 408.000137 11.999394 408.000137 C 15.311894 408.000137 17.999394 405.312637 17.999394 402.000137 M 683.999394 402.000137 L 689.999394 402.000137 C 689.999394 398.687637 687.311894 396.000137 683.999394 396.000137 C 680.686894 396.000137 677.999394 398.687637 677.999394 402.000137 C 677.999394 405.312637 680.686894 408.000137 683.999394 408.000137 C 687.311894 408.000137 689.999394 405.312637 689.999394 402.000137 " transform="matrix(1,0,0,-1,-75.6283,503.4142)"/>
</g>
</g>
</svg>
