<?xml version="1.0" encoding="UTF-8"?>
<svg xmlns="http://www.w3.org/2000/svg" xmlns:xlink="http://www.w3.org/1999/xlink" width="89.9717pt" height="89.9716pt" viewBox="0 0 89.9717 89.9716" version="1.1">
<defs>
<linearGradient id="linear0" gradientUnits="userSpaceOnUse" x1="186.357613" y1="128" x2="249.982321" y2="128" gradientTransform="matrix(1.4141,0,0,0.4381,-263.5283,-5.3884)">
<stop offset="0" style="stop-color:rgb(85.232544%,93.609619%,96.850586%);stop-opacity:1;"/>
<stop offset="0.125" style="stop-color:rgb(85.501099%,93.789673%,96.995544%);stop-opacity:1;"/>
<stop offset="0.25" style="stop-color:rgb(86.039734%,94.14978%,97.28241%);stop-opacity:1;"/>
<stop offset="0.375" style="stop-color:rgb(86.579895%,94.511414%,97.569275%);stop-opacity:1;"/>
<stop offset="0.5" style="stop-color:rgb(87.123108%,94.873047%,97.857666%);stop-opacity:1;"/>
<stop offset="0.625" style="stop-color:rgb(87.666321%,95.236206%,98.146057%);stop-opacity:1;"/>
<stop offset="0.75" style="stop-color:rgb(88.212585%,95.599365%,98.434448%);stop-opacity:1;"/>
<stop offset="0.875" style="stop-color:rgb(88.760376%,95.962524%,98.721313%);stop-opacity:1;"/>
<stop offset="1" style="stop-color:rgb(89.308167%,96.327209%,99.01123%);stop-opacity:1;"/>
</linearGradient>
<clipPath id="clip1">
  <path d="M 0 0 L 89.972656 0 L 89.972656 88 L 0 88 Z M 0 0 "/>
</clipPath>
<clipPath id="clip2">
  <path d="M 2 1 L 34 1 L 34 87.632812 L 2 87.632812 Z M 2 1 "/>
</clipPath>
<clipPath id="clip3">
  <path d="M 1 0.632812 L 35 0.632812 L 35 87.632812 L 1 87.632812 Z M 1 0.632812 "/>
</clipPath>
<clipPath id="clip4">
  <path d="M 56 1 L 89 1 L 89 87.632812 L 56 87.632812 Z M 56 1 "/>
</clipPath>
<clipPath id="clip5">
  <path d="M 33 0.632812 L 89.972656 0.632812 L 89.972656 87.632812 L 33 87.632812 Z M 33 0.632812 "/>
</clipPath>
</defs>
<g id="surface1">
<path style=" stroke:none;fill-rule:nonzero;fill:url(#linear0);" d="M 0 0 L 0 89.972656 L 89.972656 89.972656 L 89.972656 0 Z M 0 0 "/>
<g clip-path="url(#clip1)" clip-rule="nonzero">
<path style=" stroke:none;fill-rule:nonzero;fill:rgb(100%,100%,100%);fill-opacity:1;" d="M 0.972656 0.632812 L 89.972656 0.632812 L 89.972656 87.632812 L 0.972656 87.632812 Z M 0.972656 0.632812 "/>
</g>
<g clip-path="url(#clip2)" clip-rule="nonzero">
<path style=" stroke:none;fill-rule:nonzero;fill:rgb(73.266602%,86.8927%,79.167175%);fill-opacity:1;" d="M 2.164062 1.132812 L 33.980469 1.132812 L 33.980469 87.132812 L 2.164062 87.132812 Z M 2.164062 1.132812 "/>
</g>
<g clip-path="url(#clip3)" clip-rule="nonzero">
<path style="fill:none;stroke-width:1;stroke-linecap:butt;stroke-linejoin:miter;stroke:rgb(13.729858%,12.159729%,12.548828%);stroke-opacity:1;stroke-miterlimit:4;" d="M 524.192363 317.238788 L 556.008769 317.238788 L 556.008769 403.238788 L 524.192363 403.238788 Z M 524.192363 317.238788 " transform="matrix(1,0,0,-1,-522.0283,404.3716)"/>
</g>
<g clip-path="url(#clip4)" clip-rule="nonzero">
<path style=" stroke:none;fill-rule:nonzero;fill:rgb(73.266602%,86.8927%,79.167175%);fill-opacity:1;" d="M 56.960938 1.132812 L 88.78125 1.132812 L 88.78125 87.132812 L 56.960938 87.132812 Z M 56.960938 1.132812 "/>
</g>
<g clip-path="url(#clip5)" clip-rule="nonzero">
<path style="fill:none;stroke-width:1;stroke-linecap:butt;stroke-linejoin:miter;stroke:rgb(13.729858%,12.159729%,12.548828%);stroke-opacity:1;stroke-miterlimit:4;" d="M 578.989238 317.238788 L 610.80955 317.238788 L 610.80955 403.238788 L 578.989238 403.238788 Z M 556.008769 317.238788 L 578.989238 317.238788 L 578.989238 403.238788 L 556.008769 403.238788 Z M 556.008769 317.238788 " transform="matrix(1,0,0,-1,-522.0283,404.3716)"/>
</g>
<path style="fill:none;stroke-width:0.5;stroke-linecap:butt;stroke-linejoin:miter;stroke:rgb(100%,100%,100%);stroke-opacity:1;stroke-miterlimit:10;" d="M 42.000956 804.000506 L 42.000956 780.000506 M 0.00095625 762.000506 L 24.000956 762.000506 M 654.000956 804.000506 L 654.000956 780.000506 M 696.000956 762.000506 L 672.000956 762.000506 M 42.000956 0.00050625 L 42.000956 24.000506 M 0.00095625 42.000506 L 24.000956 42.000506 M 654.000956 0.00050625 L 654.000956 24.000506 M 696.000956 42.000506 L 672.000956 42.000506 " transform="matrix(1,0,0,-1,-522.0283,404.3716)"/>
<path style="fill:none;stroke-width:0.25;stroke-linecap:butt;stroke-linejoin:miter;stroke:rgb(0%,0%,0%);stroke-opacity:1;stroke-miterlimit:10;" d="M 42.000956 804.000506 L 42.000956 780.000506 M 0.00095625 762.000506 L 24.000956 762.000506 M 654.000956 804.000506 L 654.000956 780.000506 M 696.000956 762.000506 L 672.000956 762.000506 M 42.000956 0.00050625 L 42.000956 24.000506 M 0.00095625 42.000506 L 24.000956 42.000506 M 654.000956 0.00050625 L 654.000956 24.000506 M 696.000956 42.000506 L 672.000956 42.000506 " transform="matrix(1,0,0,-1,-522.0283,404.3716)"/>
<path style="fill:none;stroke-width:0.5;stroke-linecap:butt;stroke-linejoin:miter;stroke:rgb(100%,100%,100%);stroke-opacity:1;stroke-miterlimit:10;" d="M 324.000956 792.000506 L 372.000956 792.000506 M 324.000956 12.000506 L 372.000956 12.000506 M 12.000956 426.000506 L 12.000956 378.000506 M 684.000956 426.000506 L 684.000956 378.000506 M 348.000956 804.000506 L 348.000956 780.000506 M 348.000956 24.000506 L 348.000956 0.00050625 M 0.00095625 402.000506 L 24.000956 402.000506 M 672.000956 402.000506 L 696.000956 402.000506 M 348.000956 792.000506 L 354.000956 792.000506 C 354.000956 788.688006 351.313456 786.000506 348.000956 786.000506 C 344.688456 786.000506 342.000956 788.688006 342.000956 792.000506 C 342.000956 795.313006 344.688456 798.000506 348.000956 798.000506 C 351.313456 798.000506 354.000956 795.313006 354.000956 792.000506 M 348.000956 12.000506 L 354.000956 12.000506 C 354.000956 8.688006 351.313456 6.000506 348.000956 6.000506 C 344.688456 6.000506 342.000956 8.688006 342.000956 12.000506 C 342.000956 15.313006 344.688456 18.000506 348.000956 18.000506 C 351.313456 18.000506 354.000956 15.313006 354.000956 12.000506 M 12.000956 402.000506 L 18.000956 402.000506 C 18.000956 398.688006 15.313456 396.000506 12.000956 396.000506 C 8.688456 396.000506 6.000956 398.688006 6.000956 402.000506 C 6.000956 405.313006 8.688456 408.000506 12.000956 408.000506 C 15.313456 408.000506 18.000956 405.313006 18.000956 402.000506 M 684.000956 402.000506 L 690.000956 402.000506 C 690.000956 398.688006 687.313456 396.000506 684.000956 396.000506 C 680.688456 396.000506 678.000956 398.688006 678.000956 402.000506 C 678.000956 405.313006 680.688456 408.000506 684.000956 408.000506 C 687.313456 408.000506 690.000956 405.313006 690.000956 402.000506 " transform="matrix(1,0,0,-1,-522.0283,404.3716)"/>
<path style="fill:none;stroke-width:0.25;stroke-linecap:butt;stroke-linejoin:miter;stroke:rgb(0%,0%,0%);stroke-opacity:1;stroke-miterlimit:10;" d="M 324.000956 792.000506 L 372.000956 792.000506 M 324.000956 12.000506 L 372.000956 12.000506 M 12.000956 426.000506 L 12.000956 378.000506 M 684.000956 426.000506 L 684.000956 378.000506 M 348.000956 804.000506 L 348.000956 780.000506 M 348.000956 24.000506 L 348.000956 0.00050625 M 0.00095625 402.000506 L 24.000956 402.000506 M 672.000956 402.000506 L 696.000956 402.000506 M 348.000956 792.000506 L 354.000956 792.000506 C 354.000956 788.688006 351.313456 786.000506 348.000956 786.000506 C 344.688456 786.000506 342.000956 788.688006 342.000956 792.000506 C 342.000956 795.313006 344.688456 798.000506 348.000956 798.000506 C 351.313456 798.000506 354.000956 795.313006 354.000956 792.000506 M 348.000956 12.000506 L 354.000956 12.000506 C 354.000956 8.688006 351.313456 6.000506 348.000956 6.000506 C 344.688456 6.000506 342.000956 8.688006 342.000956 12.000506 C 342.000956 15.313006 344.688456 18.000506 348.000956 18.000506 C 351.313456 18.000506 354.000956 15.313006 354.000956 12.000506 M 12.000956 402.000506 L 18.000956 402.000506 C 18.000956 398.688006 15.313456 396.000506 12.000956 396.000506 C 8.688456 396.000506 6.000956 398.688006 6.000956 402.000506 C 6.000956 405.313006 8.688456 408.000506 12.000956 408.000506 C 15.313456 408.000506 18.000956 405.313006 18.000956 402.000506 M 684.000956 402.000506 L 690.000956 402.000506 C 690.000956 398.688006 687.313456 396.000506 684.000956 396.000506 C 680.688456 396.000506 678.000956 398.688006 678.000956 402.000506 C 678.000956 405.313006 680.688456 408.000506 684.000956 408.000506 C 687.313456 408.000506 690.000956 405.313006 690.000956 402.000506 " transform="matrix(1,0,0,-1,-522.0283,404.3716)"/>
</g>
</svg>
