<svg version="1.1" xmlns="http://www.w3.org/2000/svg" xmlns:xlink="http://www.w3.org/1999/xlink" width="476" height="476"><defs><clipPath id="oxcdpAkdWxrZ"><path fill="none" stroke="none" d=" M 0 0 L 476 0 L 476 476 L 0 476 L 0 0 Z"/></clipPath></defs><g transform="scale(1,1)" clip-path="url(#oxcdpAkdWxrZ)"><g transform="translate(-27.139031232631552,-219.47358280229497)"><path fill="none" stroke="rgb(192,192,192)" paint-order="fill stroke markers" d=" M 27.5 0.5 L 27.5 680.5 M 27.5 0.5 L 27.5 680.5 M 132.5 0.5 L 132.5 680.5 M 185.5 0.5 L 185.5 680.5 M 237.5 0.5 L 237.5 680.5 M 290.5 0.5 L 290.5 680.5 M 343.5 0.5 L 343.5 680.5 M 396.5 0.5 L 396.5 680.5 M 448.5 0.5 L 448.5 680.5 M 501.5 0.5 L 501.5 680.5 M 554.5 0.5 L 554.5 680.5 M 606.5 0.5 L 606.5 680.5 M 659.5 0.5 L 659.5 680.5 M 712.5 0.5 L 712.5 680.5" stroke-opacity="1" stroke-linecap="round" stroke-linejoin="round" stroke-miterlimit="10"/><path fill="none" stroke="rgb(192,192,192)" paint-order="fill stroke markers" d="" stroke-opacity="0.23529411764705882" stroke-linecap="round" stroke-linejoin="round" stroke-miterlimit="10"/><path fill="none" stroke="rgb(192,192,192)" paint-order="fill stroke markers" d=" M 0.5 8.5 L 721.5 8.5 M 0.5 8.5 L 721.5 8.5 M 0.5 61.5 L 721.5 61.5 M 0.5 114.5 L 721.5 114.5 M 0.5 166.5 L 721.5 166.5 M 0.5 219.5 L 721.5 219.5 M 0.5 272.5 L 721.5 272.5 M 0.5 324.5 L 721.5 324.5 M 0.5 377.5 L 721.5 377.5 M 0.5 430.5 L 721.5 430.5 M 0.5 482.5 L 721.5 482.5 M 0.5 535.5 L 721.5 535.5 M 0.5 588.5 L 721.5 588.5" stroke-opacity="1" stroke-linecap="round" stroke-linejoin="round" stroke-miterlimit="10"/><path fill="none" stroke="rgb(192,192,192)" paint-order="fill stroke markers" d="" stroke-opacity="0.23529411764705882" stroke-linecap="round" stroke-linejoin="round" stroke-miterlimit="10"/><path fill="none" stroke="rgb(0,0,0)" paint-order="fill stroke markers" d=" M 79.5 2.5 L 79.5 680.5" stroke-opacity="1" stroke-miterlimit="10"/><path fill="none" stroke="rgb(0,0,0)" paint-order="fill stroke markers" d=" M 79.5 1.5 L 71.5 9.5" stroke-opacity="1" stroke-miterlimit="10"/><path fill="none" stroke="rgb(0,0,0)" paint-order="fill stroke markers" d=" M 79.5 1.5 L 87.5 9.5" stroke-opacity="1" stroke-miterlimit="10"/><path fill="none" stroke="rgb(0,0,0)" paint-order="fill stroke markers" d=" M 0.5 641.5 L 719.5 641.5" stroke-opacity="1" stroke-miterlimit="10"/><path fill="none" stroke="rgb(0,0,0)" paint-order="fill stroke markers" d=" M 720.5 641.5 L 712.5 633.5" stroke-opacity="1" stroke-miterlimit="10"/><path fill="none" stroke="rgb(0,0,0)" paint-order="fill stroke markers" d=" M 720.5 641.5 L 712.5 649.5" stroke-opacity="1" stroke-miterlimit="10"/><path fill="none" stroke="rgb(0,0,0)" paint-order="fill stroke markers" d=" M 79.5 641.5 L 79.5 644.5" stroke-opacity="1" stroke-miterlimit="10"/><text fill="rgb(0,0,0)" stroke="none" font-family="geogebra-sans-serif, sans-serif" font-size="24px" font-style="normal" font-weight="normal" text-decoration="normal" x="180" y="669" text-anchor="start" dominant-baseline="alphabetic" fill-opacity="1">1</text><text fill="none" stroke="rgb(255,255,255)" font-family="geogebra-sans-serif, sans-serif" font-size="24px" font-style="normal" font-weight="normal" text-decoration="normal" x="180" y="669" text-anchor="start" dominant-baseline="alphabetic" stroke-opacity="1" stroke-linejoin="bevel" stroke-miterlimit="10" stroke-width="3">1</text><text fill="rgb(0,0,0)" stroke="none" font-family="geogebra-sans-serif, sans-serif" font-size="24px" font-style="normal" font-weight="normal" text-decoration="normal" x="180" y="669" text-anchor="start" dominant-baseline="alphabetic" fill-opacity="1">1</text><path fill="none" stroke="rgb(0,0,0)" paint-order="fill stroke markers" d=" M 185.5 641.5 L 185.5 644.5" stroke-opacity="1" stroke-miterlimit="10"/><text fill="rgb(0,0,0)" stroke="none" font-family="geogebra-sans-serif, sans-serif" font-size="24px" font-style="normal" font-weight="normal" text-decoration="normal" x="285" y="669" text-anchor="start" dominant-baseline="alphabetic" fill-opacity="1">2</text><text fill="none" stroke="rgb(255,255,255)" font-family="geogebra-sans-serif, sans-serif" font-size="24px" font-style="normal" font-weight="normal" text-decoration="normal" x="285" y="669" text-anchor="start" dominant-baseline="alphabetic" stroke-opacity="1" stroke-linejoin="bevel" stroke-miterlimit="10" stroke-width="3">2</text><text fill="rgb(0,0,0)" stroke="none" font-family="geogebra-sans-serif, sans-serif" font-size="24px" font-style="normal" font-weight="normal" text-decoration="normal" x="285" y="669" text-anchor="start" dominant-baseline="alphabetic" fill-opacity="1">2</text><path fill="none" stroke="rgb(0,0,0)" paint-order="fill stroke markers" d=" M 290.5 641.5 L 290.5 644.5" stroke-opacity="1" stroke-miterlimit="10"/><text fill="rgb(0,0,0)" stroke="none" font-family="geogebra-sans-serif, sans-serif" font-size="24px" font-style="normal" font-weight="normal" text-decoration="normal" x="391" y="669" text-anchor="start" dominant-baseline="alphabetic" fill-opacity="1">3</text><text fill="none" stroke="rgb(255,255,255)" font-family="geogebra-sans-serif, sans-serif" font-size="24px" font-style="normal" font-weight="normal" text-decoration="normal" x="391" y="669" text-anchor="start" dominant-baseline="alphabetic" stroke-opacity="1" stroke-linejoin="bevel" stroke-miterlimit="10" stroke-width="3">3</text><text fill="rgb(0,0,0)" stroke="none" font-family="geogebra-sans-serif, sans-serif" font-size="24px" font-style="normal" font-weight="normal" text-decoration="normal" x="391" y="669" text-anchor="start" dominant-baseline="alphabetic" fill-opacity="1">3</text><path fill="none" stroke="rgb(0,0,0)" paint-order="fill stroke markers" d=" M 396.5 641.5 L 396.5 644.5" stroke-opacity="1" stroke-miterlimit="10"/><text fill="rgb(0,0,0)" stroke="none" font-family="geogebra-sans-serif, sans-serif" font-size="24px" font-style="normal" font-weight="normal" text-decoration="normal" x="496" y="669" text-anchor="start" dominant-baseline="alphabetic" fill-opacity="1">4</text><text fill="none" stroke="rgb(255,255,255)" font-family="geogebra-sans-serif, sans-serif" font-size="24px" font-style="normal" font-weight="normal" text-decoration="normal" x="496" y="669" text-anchor="start" dominant-baseline="alphabetic" stroke-opacity="1" stroke-linejoin="bevel" stroke-miterlimit="10" stroke-width="3">4</text><text fill="rgb(0,0,0)" stroke="none" font-family="geogebra-sans-serif, sans-serif" font-size="24px" font-style="normal" font-weight="normal" text-decoration="normal" x="496" y="669" text-anchor="start" dominant-baseline="alphabetic" fill-opacity="1">4</text><path fill="none" stroke="rgb(0,0,0)" paint-order="fill stroke markers" d=" M 501.5 641.5 L 501.5 644.5" stroke-opacity="1" stroke-miterlimit="10"/><text fill="rgb(0,0,0)" stroke="none" font-family="geogebra-sans-serif, sans-serif" font-size="24px" font-style="normal" font-weight="normal" text-decoration="normal" x="601" y="669" text-anchor="start" dominant-baseline="alphabetic" fill-opacity="1">5</text><text fill="none" stroke="rgb(255,255,255)" font-family="geogebra-sans-serif, sans-serif" font-size="24px" font-style="normal" font-weight="normal" text-decoration="normal" x="601" y="669" text-anchor="start" dominant-baseline="alphabetic" stroke-opacity="1" stroke-linejoin="bevel" stroke-miterlimit="10" stroke-width="3">5</text><text fill="rgb(0,0,0)" stroke="none" font-family="geogebra-sans-serif, sans-serif" font-size="24px" font-style="normal" font-weight="normal" text-decoration="normal" x="601" y="669" text-anchor="start" dominant-baseline="alphabetic" fill-opacity="1">5</text><path fill="none" stroke="rgb(0,0,0)" paint-order="fill stroke markers" d=" M 606.5 641.5 L 606.5 644.5" stroke-opacity="1" stroke-miterlimit="10"/><path fill="none" stroke="rgb(0,0,0)" paint-order="fill stroke markers" d=" M 76.5 535.5 L 79.5 535.5" stroke-opacity="1" stroke-miterlimit="10"/><path fill="none" stroke="rgb(0,0,0)" paint-order="fill stroke markers" d=" M 76.5 430.5 L 79.5 430.5" stroke-opacity="1" stroke-miterlimit="10"/><path fill="none" stroke="rgb(0,0,0)" paint-order="fill stroke markers" d=" M 76.5 324.5 L 79.5 324.5" stroke-opacity="1" stroke-miterlimit="10"/><path fill="none" stroke="rgb(0,0,0)" paint-order="fill stroke markers" d=" M 76.5 219.5 L 79.5 219.5" stroke-opacity="1" stroke-miterlimit="10"/><path fill="none" stroke="rgb(0,0,0)" paint-order="fill stroke markers" d=" M 76.5 114.5 L 79.5 114.5" stroke-opacity="1" stroke-miterlimit="10"/><text fill="rgb(0,0,0)" stroke="none" font-family="geogebra-sans-serif, sans-serif" font-size="24px" font-style="normal" font-weight="normal" text-decoration="normal" x="56" y="546" text-anchor="start" dominant-baseline="alphabetic" fill-opacity="1">2</text><text fill="none" stroke="rgb(255,255,255)" font-family="geogebra-sans-serif, sans-serif" font-size="24px" font-style="normal" font-weight="normal" text-decoration="normal" x="56" y="546" text-anchor="start" dominant-baseline="alphabetic" stroke-opacity="1" stroke-linejoin="bevel" stroke-miterlimit="10" stroke-width="3">2</text><text fill="rgb(0,0,0)" stroke="none" font-family="geogebra-sans-serif, sans-serif" font-size="24px" font-style="normal" font-weight="normal" text-decoration="normal" x="56" y="546" text-anchor="start" dominant-baseline="alphabetic" fill-opacity="1">2</text><text fill="rgb(0,0,0)" stroke="none" font-family="geogebra-sans-serif, sans-serif" font-size="24px" font-style="normal" font-weight="normal" text-decoration="normal" x="56" y="441" text-anchor="start" dominant-baseline="alphabetic" fill-opacity="1">4</text><text fill="none" stroke="rgb(255,255,255)" font-family="geogebra-sans-serif, sans-serif" font-size="24px" font-style="normal" font-weight="normal" text-decoration="normal" x="56" y="441" text-anchor="start" dominant-baseline="alphabetic" stroke-opacity="1" stroke-linejoin="bevel" stroke-miterlimit="10" stroke-width="3">4</text><text fill="rgb(0,0,0)" stroke="none" font-family="geogebra-sans-serif, sans-serif" font-size="24px" font-style="normal" font-weight="normal" text-decoration="normal" x="56" y="441" text-anchor="start" dominant-baseline="alphabetic" fill-opacity="1">4</text><text fill="rgb(0,0,0)" stroke="none" font-family="geogebra-sans-serif, sans-serif" font-size="24px" font-style="normal" font-weight="normal" text-decoration="normal" x="56" y="335" text-anchor="start" dominant-baseline="alphabetic" fill-opacity="1">6</text><text fill="none" stroke="rgb(255,255,255)" font-family="geogebra-sans-serif, sans-serif" font-size="24px" font-style="normal" font-weight="normal" text-decoration="normal" x="56" y="335" text-anchor="start" dominant-baseline="alphabetic" stroke-opacity="1" stroke-linejoin="bevel" stroke-miterlimit="10" stroke-width="3">6</text><text fill="rgb(0,0,0)" stroke="none" font-family="geogebra-sans-serif, sans-serif" font-size="24px" font-style="normal" font-weight="normal" text-decoration="normal" x="56" y="335" text-anchor="start" dominant-baseline="alphabetic" fill-opacity="1">6</text><text fill="rgb(0,0,0)" stroke="none" font-family="geogebra-sans-serif, sans-serif" font-size="24px" font-style="normal" font-weight="normal" text-decoration="normal" x="56" y="230" text-anchor="start" dominant-baseline="alphabetic" fill-opacity="1">8</text><text fill="none" stroke="rgb(255,255,255)" font-family="geogebra-sans-serif, sans-serif" font-size="24px" font-style="normal" font-weight="normal" text-decoration="normal" x="56" y="230" text-anchor="start" dominant-baseline="alphabetic" stroke-opacity="1" stroke-linejoin="bevel" stroke-miterlimit="10" stroke-width="3">8</text><text fill="rgb(0,0,0)" stroke="none" font-family="geogebra-sans-serif, sans-serif" font-size="24px" font-style="normal" font-weight="normal" text-decoration="normal" x="56" y="230" text-anchor="start" dominant-baseline="alphabetic" fill-opacity="1">8</text><text fill="rgb(0,0,0)" stroke="none" font-family="geogebra-sans-serif, sans-serif" font-size="24px" font-style="normal" font-weight="normal" text-decoration="normal" x="42" y="125" text-anchor="start" dominant-baseline="alphabetic" fill-opacity="1">10</text><text fill="none" stroke="rgb(255,255,255)" font-family="geogebra-sans-serif, sans-serif" font-size="24px" font-style="normal" font-weight="normal" text-decoration="normal" x="42" y="125" text-anchor="start" dominant-baseline="alphabetic" stroke-opacity="1" stroke-linejoin="bevel" stroke-miterlimit="10" stroke-width="3">10</text><text fill="rgb(0,0,0)" stroke="none" font-family="geogebra-sans-serif, sans-serif" font-size="24px" font-style="normal" font-weight="normal" text-decoration="normal" x="42" y="125" text-anchor="start" dominant-baseline="alphabetic" fill-opacity="1">10</text><text fill="rgb(0,0,0)" stroke="none" font-family="geogebra-sans-serif, sans-serif" font-size="24px" font-style="normal" font-weight="normal" text-decoration="normal" x="56" y="669" text-anchor="start" dominant-baseline="alphabetic" fill-opacity="1">0</text><text fill="none" stroke="rgb(255,255,255)" font-family="geogebra-sans-serif, sans-serif" font-size="24px" font-style="normal" font-weight="normal" text-decoration="normal" x="56" y="669" text-anchor="start" dominant-baseline="alphabetic" stroke-opacity="1" stroke-linejoin="bevel" stroke-miterlimit="10" stroke-width="3">0</text><text fill="rgb(0,0,0)" stroke="none" font-family="geogebra-sans-serif, sans-serif" font-size="24px" font-style="normal" font-weight="normal" text-decoration="normal" x="56" y="669" text-anchor="start" dominant-baseline="alphabetic" fill-opacity="1">0</text><path fill="none" stroke="rgb(46,125,50)" paint-order="fill stroke markers" d=" M 0 540.3646854268159 L 5.632812500000014 530.6156757046715 L 11.265625000000014 521.1676811418903 L 16.898437500000007 512.0207017384726 L 22.531250000000007 503.17473749441825 L 28.164062500000007 494.6297884097273 L 33.79687500000001 486.3858544843997 L 39.42968750000001 478.4429357184355 L 45.06250000000001 470.80103211183473 L 50.69531250000001 463.4601436645973 L 56.328125 456.4202703767233 L 61.9609375 449.6814122482126 L 67.59375 443.24356927906535 L 73.2265625 437.1067414692815 L 78.859375 431.27092881886097 L 84.4921875 425.73613132780383 L 90.125 420.50234899611013 L 95.7578125 415.5695818237798 L 101.390625 410.93782981081284 L 107.0234375 406.60709295720926 L 112.65625 402.57737126296905 L 118.2890625 398.8486647280923 L 123.921875 395.4209733525788 L 129.5546875 392.2942971364288 L 135.1875 389.4686360796421 L 140.8203125 386.9439901822189 L 146.453125 384.720359444159 L 152.0859375 382.79774386546256 L 157.71875 381.1761434461294 L 163.3515625 379.8555581861597 L 168.984375 378.8359880855533 L 174.6171875 378.1174331443104 L 180.25 377.6998933624308 L 185.8828125 377.58336873991465 L 191.515625 377.76785927676184 L 197.1484375 378.2533649729724 L 202.78125 379.0398858285464 L 208.4140625 380.1274218434838 L 214.046875 381.5159730177845 L 219.6796875 383.20553935144864 L 225.31249999999997 385.1961208444761 L 230.94531250000003 387.487717496867 L 236.578125 390.08032930862134 L 242.2109375 392.9739562797389 L 247.84374999999997 396.16859841022 L 253.47656250000003 399.6642557000645 L 259.109375 403.46092814927226 L 264.7421875 407.5586157578434 L 270.375 411.957318525778 L 276.0078125 416.657036453076 L 281.640625 421.6577695397374 L 287.2734375 426.9595177857621 L 292.90625 432.5622811911502 L 298.5390625 438.4660597559017 L 304.171875 444.67085348001666 L 309.8046875 451.1766623634949 L 315.4375 457.9834864063366 L 321.0703125 465.09132560854164 L 326.703125 472.50017997011014 L 332.3359375 480.2100494910419 L 337.96875 488.2209341713371 L 343.6015625 496.53283401099566 L 349.234375 505.14574901001765 L 354.8671875 514.059679168403 L 360.5 523.2746244861518 L 366.1328125 532.7905849632639 L 371.765625 542.6075605997394 L 374.58203125 547.6289291027384 L 377.3984375 552.7255513955783 L 380.21484375 557.897427478259 L 383.03125 563.1445573507806 L 385.84765625 568.466941013143 L 388.6640625 573.8645784653462 L 391.48046875 579.3374697073904 L 394.296875 584.8856147392753 L 397.11328125 590.5090135610011 L 399.9296875 596.2076661725678 L 402.74609375 601.9815725739752 L 405.5625 607.8307327652236 L 408.37890625 613.7551467463127 L 411.1953125 619.7548145172427 L 414.01171875 625.8297360780136 L 416.828125 631.9799114286253 L 419.64453125 638.2053405690779 L 422.4609375 644.5060234993714 L 425.27734375 650.8819602195056 L 428.09375 657.3331507294807 L 430.91015625 663.8595950292967 L 433.7265625 670.4612931189534 L 436.54296875 677.1382449984511 L 439.359375 683.8904506677895 L 442.17578125 690.7179101269688" stroke-opacity="0.8" stroke-linecap="round" stroke-linejoin="round" stroke-miterlimit="10" stroke-width="2.5"/><text fill="rgb(46,125,50)" stroke="none" font-family="geogebra-sans-serif, sans-serif" font-size="32px" font-style="normal" font-weight="normal" text-decoration="normal" x="33" y="515" text-anchor="start" dominant-baseline="alphabetic" fill-opacity="1">f(x)</text><text fill="none" stroke="rgb(255,255,255)" font-family="geogebra-sans-serif, sans-serif" font-size="32px" font-style="normal" font-weight="normal" text-decoration="normal" x="33" y="515" text-anchor="start" dominant-baseline="alphabetic" stroke-opacity="1" stroke-linejoin="bevel" stroke-miterlimit="10" stroke-width="3">f(x)</text><text fill="rgb(46,125,50)" stroke="none" font-family="geogebra-sans-serif, sans-serif" font-size="32px" font-style="normal" font-weight="normal" text-decoration="normal" x="33" y="515" text-anchor="start" dominant-baseline="alphabetic" fill-opacity="1">f(x)</text><path fill="none" stroke="rgb(21,101,192)" paint-order="fill stroke markers" d=" M 0 390.3632461612274 L 5.632812500000014 393.1796524112274 L 11.265625000000014 395.9960586612274 L 16.898437500000007 398.8124649112274 L 22.531250000000007 401.6288711612274 L 28.164062500000007 404.4452774112274 L 33.79687500000001 407.2616836612274 L 39.42968750000001 410.0780899112274 L 45.06250000000001 412.8944961612274 L 50.69531250000001 415.7109024112274 L 56.328125 418.5273086612274 L 61.9609375 421.3437149112274 L 67.59375 424.1601211612274 L 73.2265625 426.9765274112274 L 78.859375 429.7929336612274 L 84.4921875 432.6093399112274 L 90.125 435.4257461612274 L 95.7578125 438.2421524112274 L 101.390625 441.0585586612274 L 107.0234375 443.8749649112274 L 112.65625 446.6913711612274 L 118.2890625 449.5077774112274 L 123.921875 452.3241836612274 L 129.5546875 455.1405899112274 L 135.1875 457.9569961612274 L 140.8203125 460.7734024112274 L 146.453125 463.5898086612274 L 152.0859375 466.4062149112274 L 157.71875 469.2226211612274 L 163.3515625 472.0390274112274 L 168.984375 474.8554336612274 L 174.6171875 477.6718399112274 L 180.25 480.4882461612274 L 185.8828125 483.3046524112274 L 191.515625 486.1210586612274 L 197.1484375 488.9374649112274 L 202.78125 491.7538711612274 L 208.4140625 494.5702774112274 L 214.046875 497.3866836612274 L 219.6796875 500.2030899112274 L 225.31249999999997 503.0194961612274 L 230.94531250000003 505.8359024112274 L 236.578125 508.6523086612274 L 242.2109375 511.4687149112274 L 247.84374999999997 514.2851211612274 L 253.47656250000003 517.1015274112274 L 259.109375 519.9179336612274 L 264.7421875 522.7343399112274 L 270.375 525.5507461612274 L 276.0078125 528.3671524112274 L 281.640625 531.1835586612274 L 287.2734375 533.9999649112274 L 292.90625 536.8163711612274 L 298.5390625 539.6327774112274 L 304.171875 542.4491836612274 L 309.8046875 545.2655899112274 L 315.4375 548.0819961612274 L 321.0703125 550.8984024112274 L 326.703125 553.7148086612274 L 332.3359375 556.5312149112274 L 337.96875 559.3476211612274 L 343.6015625 562.1640274112274 L 349.234375 564.9804336612274 L 354.8671875 567.7968399112274 L 360.5 570.6132461612274 L 366.1328125 573.4296524112274 L 371.765625 576.2460586612274 L 377.3984375 579.0624649112274 L 383.03125 581.8788711612274 L 388.6640625 584.6952774112274 L 394.296875 587.5116836612274 L 399.9296875 590.3280899112274 L 405.5625 593.1444961612274 L 411.1953125 595.9609024112274 L 416.828125 598.7773086612274 L 422.4609375 601.5937149112274 L 428.09375 604.4101211612274 L 433.7265625 607.2265274112274 L 439.359375 610.0429336612274 L 444.99218749999994 612.8593399112274 L 450.62499999999994 615.6757461612274 L 456.25781249999994 618.4921524112274 L 461.89062500000006 621.3085586612274 L 467.5234375 624.1249649112274 L 473.15625 626.9413711612274 L 478.7890625 629.7577774112274 L 484.421875 632.5741836612274 L 490.0546875 635.3905899112274 L 495.68749999999994 638.2069961612274 L 501.32031249999994 641.0234024112274 L 506.95312500000006 643.8398086612274 L 512.5859375 646.6562149112274 L 518.21875 649.4726211612274 L 523.8515625 652.2890274112274 L 529.484375 655.1054336612274 L 535.1171875 657.9218399112274 L 540.75 660.7382461612274 L 546.3828125 663.5546524112274 L 552.015625 666.3710586612274 L 557.6484375 669.1874649112274 L 563.28125 672.0038711612274 L 568.9140625 674.8202774112274 L 574.546875 677.6366836612274 L 580.1796875 680.4530899112274 L 585.8125 683.2694961612274 L 591.4453125 686.0859024112274" stroke-opacity="0.8" stroke-linecap="round" stroke-linejoin="round" stroke-miterlimit="10" stroke-width="2.5"/><text fill="rgb(21,101,192)" stroke="none" font-family="geogebra-sans-serif, sans-serif" font-size="32px" font-style="normal" font-weight="normal" text-decoration="normal" x="33" y="388" text-anchor="start" dominant-baseline="alphabetic" fill-opacity="1">g(x)</text><text fill="none" stroke="rgb(255,255,255)" font-family="geogebra-sans-serif, sans-serif" font-size="32px" font-style="normal" font-weight="normal" text-decoration="normal" x="33" y="388" text-anchor="start" dominant-baseline="alphabetic" stroke-opacity="1" stroke-linejoin="bevel" stroke-miterlimit="10" stroke-width="3">g(x)</text><text fill="rgb(21,101,192)" stroke="none" font-family="geogebra-sans-serif, sans-serif" font-size="32px" font-style="normal" font-weight="normal" text-decoration="normal" x="33" y="388" text-anchor="start" dominant-baseline="alphabetic" fill-opacity="1">g(x)</text><path fill="rgb(97,97,97)" stroke="none" paint-order="stroke fill markers" d=" M 84.84165379698817 430.28407305972144 C 84.84165379698817 433.0454968088754 82.60307754614213 435.28407305972144 79.84165379698817 435.28407305972144 C 77.0802300478342 435.28407305972144 74.84165379698817 433.0454968088754 74.84165379698817 430.28407305972144 C 74.84165379698817 427.5226493105675 77.0802300478342 425.28407305972144 79.84165379698817 425.28407305972144 C 82.60307754614213 425.28407305972144 84.84165379698817 427.5226493105675 84.84165379698817 430.28407305972144 Z" fill-opacity="1"/><path fill="none" stroke="rgb(0,0,0)" paint-order="fill stroke markers" d=" M 84.84165379698817 430.28407305972144 C 84.84165379698817 433.0454968088754 82.60307754614213 435.28407305972144 79.84165379698817 435.28407305972144 C 77.0802300478342 435.28407305972144 74.84165379698817 433.0454968088754 74.84165379698817 430.28407305972144 C 74.84165379698817 427.5226493105675 77.0802300478342 425.28407305972144 79.84165379698817 425.28407305972144 C 82.60307754614213 425.28407305972144 84.84165379698817 427.5226493105675 84.84165379698817 430.28407305972144 Z" stroke-opacity="1" stroke-linecap="round" stroke-linejoin="round" stroke-miterlimit="10"/><text fill="rgb(97,97,97)" stroke="none" font-family="geogebra-sans-serif, sans-serif" font-size="32px" font-style="normal" font-weight="normal" text-decoration="normal" x="99" y="439" text-anchor="start" dominant-baseline="alphabetic" fill-opacity="1">(0, 4)</text><text fill="none" stroke="rgb(255,255,255)" font-family="geogebra-sans-serif, sans-serif" font-size="32px" font-style="normal" font-weight="normal" text-decoration="normal" x="99" y="439" text-anchor="start" dominant-baseline="alphabetic" stroke-opacity="1" stroke-linejoin="bevel" stroke-miterlimit="10" stroke-width="3">(0, 4)</text><text fill="rgb(97,97,97)" stroke="none" font-family="geogebra-sans-serif, sans-serif" font-size="32px" font-style="normal" font-weight="normal" text-decoration="normal" x="99" y="439" text-anchor="start" dominant-baseline="alphabetic" fill-opacity="1">(0, 4)</text><path fill="rgb(97,97,97)" stroke="none" paint-order="stroke fill markers" d=" M 401.0573891831279 588.3919407527914 C 401.0573891831279 591.1533645019454 398.81881293228184 593.3919407527914 396.0573891831279 593.3919407527914 C 393.29596543397395 593.3919407527914 391.0573891831279 591.1533645019454 391.0573891831279 588.3919407527914 C 391.0573891831279 585.6305170036374 393.29596543397395 583.3919407527914 396.0573891831279 583.3919407527914 C 398.81881293228184 583.3919407527914 401.0573891831279 585.6305170036374 401.0573891831279 588.3919407527914 Z" fill-opacity="1"/><path fill="none" stroke="rgb(0,0,0)" paint-order="fill stroke markers" d=" M 401.0573891831279 588.3919407527914 C 401.0573891831279 591.1533645019454 398.81881293228184 593.3919407527914 396.0573891831279 593.3919407527914 C 393.29596543397395 593.3919407527914 391.0573891831279 591.1533645019454 391.0573891831279 588.3919407527914 C 391.0573891831279 585.6305170036374 393.29596543397395 583.3919407527914 396.0573891831279 583.3919407527914 C 398.81881293228184 583.3919407527914 401.0573891831279 585.6305170036374 401.0573891831279 588.3919407527914 Z" stroke-opacity="1" stroke-linecap="round" stroke-linejoin="round" stroke-miterlimit="10"/><text fill="rgb(97,97,97)" stroke="none" font-family="geogebra-sans-serif, sans-serif" font-size="32px" font-style="normal" font-weight="normal" text-decoration="normal" x="400" y="578" text-anchor="start" dominant-baseline="alphabetic" fill-opacity="1">(3, 1)</text><text fill="none" stroke="rgb(255,255,255)" font-family="geogebra-sans-serif, sans-serif" font-size="32px" font-style="normal" font-weight="normal" text-decoration="normal" x="400" y="578" text-anchor="start" dominant-baseline="alphabetic" stroke-opacity="1" stroke-linejoin="bevel" stroke-miterlimit="10" stroke-width="3">(3, 1)</text><text fill="rgb(97,97,97)" stroke="none" font-family="geogebra-sans-serif, sans-serif" font-size="32px" font-style="normal" font-weight="normal" text-decoration="normal" x="400" y="578" text-anchor="start" dominant-baseline="alphabetic" fill-opacity="1">(3, 1)</text></g></g></svg>