<svg version="1.1" xmlns="http://www.w3.org/2000/svg" xmlns:xlink="http://www.w3.org/1999/xlink" width="483" height="483"><defs><clipPath id="skMMiGAHGaPg"><path fill="none" stroke="none" d=" M 0 0 L 483 0 L 483 483 L 0 483 L 0 0 Z"/></clipPath></defs><g transform="scale(1,1)" clip-path="url(#skMMiGAHGaPg)"><g transform="translate(-80.27019365744187,-4.654218430772886)"><path fill="none" stroke="rgb(0,0,0)" paint-order="fill stroke markers" d=" M 420.30290380207055 259.67875103924433 C 420.30290380207055 322.27704445808195 369.55696050603194 373.02298775412055 306.9586670871943 373.02298775412055 C 244.36037366835671 373.02298775412055 193.6144303723181 322.27704445808195 193.6144303723181 259.67875103924433 C 193.6144303723181 197.0804576204067 244.36037366835671 146.33451432436812 306.9586670871943 146.33451432436812 C 369.55696050603194 146.33451432436812 420.30290380207055 197.0804576204067 420.30290380207055 259.67875103924433 Z" stroke-opacity="0.8" stroke-linecap="round" stroke-linejoin="round" stroke-miterlimit="10" stroke-width="2.5"/><text fill="rgb(0,0,0)" stroke="none" font-family="geogebra-sans-serif, sans-serif" font-size="32px" font-style="normal" font-weight="normal" text-decoration="normal" x="259" y="189" text-anchor="start" dominant-baseline="alphabetic" fill-opacity="1">Metal</text><text fill="none" stroke="rgb(255,255,255)" font-family="geogebra-sans-serif, sans-serif" font-size="32px" font-style="normal" font-weight="normal" text-decoration="normal" x="259" y="189" text-anchor="start" dominant-baseline="alphabetic" stroke-opacity="1" stroke-linejoin="bevel" stroke-miterlimit="10" stroke-width="3">Metal</text><text fill="rgb(0,0,0)" stroke="none" font-family="geogebra-sans-serif, sans-serif" font-size="32px" font-style="normal" font-weight="normal" text-decoration="normal" x="259" y="189" text-anchor="start" dominant-baseline="alphabetic" fill-opacity="1">Metal</text><path fill="none" stroke="rgb(0,0,0)" paint-order="fill stroke markers" d=" M 502.47747542035586 259.67875103924433 C 502.47747542035586 367.66080718673925 414.94072323468924 455.1975593724058 306.9586670871943 455.1975593724058 C 198.9766109396994 455.1975593724058 111.43985875403283 367.66080718673925 111.43985875403283 259.67875103924433 C 111.43985875403283 151.69669489174942 198.9766109396994 64.15994270608286 306.9586670871943 64.15994270608286 C 414.94072323468924 64.15994270608286 502.47747542035586 151.69669489174942 502.47747542035586 259.67875103924433 Z" stroke-opacity="0.8" stroke-linecap="round" stroke-linejoin="round" stroke-miterlimit="10" stroke-width="0.5"/><text fill="rgb(0,0,0)" stroke="none" font-family="geogebra-sans-serif, sans-serif" font-size="32px" font-style="normal" font-weight="normal" text-decoration="normal" x="232" y="57" text-anchor="start" dominant-baseline="alphabetic" fill-opacity="1">Insulation</text><text fill="none" stroke="rgb(255,255,255)" font-family="geogebra-sans-serif, sans-serif" font-size="32px" font-style="normal" font-weight="normal" text-decoration="normal" x="232" y="57" text-anchor="start" dominant-baseline="alphabetic" stroke-opacity="1" stroke-linejoin="bevel" stroke-miterlimit="10" stroke-width="3">Insulation</text><text fill="rgb(0,0,0)" stroke="none" font-family="geogebra-sans-serif, sans-serif" font-size="32px" font-style="normal" font-weight="normal" text-decoration="normal" x="232" y="57" text-anchor="start" dominant-baseline="alphabetic" fill-opacity="1">Insulation</text><path fill="none" stroke="rgb(0,0,0)" paint-order="fill stroke markers" d=" M 420.30290380207055 259.67875103924433 C 420.30290380207055 322.27704445808195 369.55696050603194 373.02298775412055 306.9586670871943 373.02298775412055 C 244.36037366835671 373.02298775412055 193.6144303723181 322.27704445808195 193.6144303723181 259.67875103924433 C 193.6144303723181 197.0804576204067 244.36037366835671 146.33451432436812 306.9586670871943 146.33451432436812 C 369.55696050603194 146.33451432436812 420.30290380207055 197.0804576204067 420.30290380207055 259.67875103924433 Z" stroke-opacity="1" stroke-linejoin="round" stroke-miterlimit="10" stroke-width="2.5" stroke-dasharray="6.5,4"/><path fill="none" stroke="rgb(0,0,0)" paint-order="fill stroke markers" d=" M 448.63896298078964 259.67875103924433 C 448.63896298078964 337.9266178127914 385.2065338607414 401.3590469328396 306.9586670871943 401.3590469328396 C 228.71080031364727 401.3590469328396 165.27837119359904 337.9266178127914 165.27837119359904 259.67875103924433 C 165.27837119359904 181.4308842656973 228.71080031364727 117.99845514564907 306.9586670871943 117.99845514564907 C 385.2065338607414 117.99845514564907 448.63896298078964 181.4308842656973 448.63896298078964 259.67875103924433 Z" stroke-opacity="1" stroke-linejoin="round" stroke-miterlimit="10" stroke-width="2.5" stroke-dasharray="6.5,4"/><path fill="rgb(0,0,0)" stroke="none" paint-order="stroke fill markers" d=" M 306.9586670871943 146.33451432436812 C 369.55696050603194 146.33451432436812 420.30290380207055 197.0804576204067 420.30290380207055 259.67875103924433 C 420.30290380207055 322.27704445808195 369.55696050603194 373.02298775412055 306.9586670871943 373.02298775412055 C 244.36037366835671 373.02298775412055 193.6144303723181 322.27704445808195 193.6144303723181 259.67875103924433 C 193.6144303723181 197.0804576204067 244.36037366835671 146.33451432436812 306.9586670871943 146.33451432436812 Z M 306.9586670871943 117.99845514564907 C 228.71080031364727 117.99845514564907 165.27837119359904 181.4308842656973 165.27837119359904 259.67875103924433 C 165.27837119359904 337.9266178127914 228.71080031364727 401.3590469328396 306.9586670871943 401.3590469328396 C 385.2065338607414 401.3590469328396 448.63896298078964 337.9266178127914 448.63896298078964 259.67875103924433 C 448.63896298078964 181.4308842656973 385.2065338607414 117.99845514564907 306.9586670871943 117.99845514564907 Z" fill-opacity="0.24705882352941178"/><path fill="none" stroke="rgb(255,153,204)" paint-order="fill stroke markers" d=" M 448.63896298078964 259.67875103924433 C 448.63896298078964 337.9266178127914 385.2065338607414 401.3590469328396 306.9586670871943 401.3590469328396 C 228.71080031364727 401.3590469328396 165.27837119359904 337.9266178127914 165.27837119359904 259.67875103924433 C 165.27837119359904 181.4308842656973 228.71080031364727 117.99845514564907 306.9586670871943 117.99845514564907 C 385.2065338607414 117.99845514564907 448.63896298078964 181.4308842656973 448.63896298078964 259.67875103924433 Z" stroke-opacity="1" stroke-linecap="round" stroke-linejoin="round" stroke-miterlimit="10" stroke-width="0.5"/><path fill="none" stroke="rgb(255,153,204)" paint-order="fill stroke markers" d=" M 502.47747542035586 259.67875103924433 C 502.47747542035586 367.66080718673925 414.94072323468924 455.1975593724058 306.9586670871943 455.1975593724058 C 198.9766109396994 455.1975593724058 111.43985875403283 367.66080718673925 111.43985875403283 259.67875103924433 C 111.43985875403283 151.69669489174942 198.9766109396994 64.15994270608286 306.9586670871943 64.15994270608286 C 414.94072323468924 64.15994270608286 502.47747542035586 151.69669489174942 502.47747542035586 259.67875103924433 Z" stroke-opacity="1" stroke-linecap="round" stroke-linejoin="round" stroke-miterlimit="10" stroke-width="0.5"/><path fill="rgb(255,153,204)" stroke="none" paint-order="stroke fill markers" d=" M 306.9586670871943 117.99845514564907 C 385.2065338607414 117.99845514564907 448.63896298078964 181.4308842656973 448.63896298078964 259.67875103924433 C 448.63896298078964 337.9266178127914 385.2065338607414 401.3590469328396 306.9586670871943 401.3590469328396 C 228.71080031364727 401.3590469328396 165.27837119359904 337.9266178127914 165.27837119359904 259.67875103924433 C 165.27837119359904 181.4308842656973 228.71080031364727 117.99845514564907 306.9586670871943 117.99845514564907 Z M 306.9586670871943 64.15994270608286 C 198.9766109396994 64.15994270608286 111.43985875403283 151.69669489174942 111.43985875403283 259.67875103924433 C 111.43985875403283 367.66080718673925 198.9766109396994 455.1975593724058 306.9586670871943 455.1975593724058 C 414.94072323468924 455.1975593724058 502.47747542035586 367.66080718673925 502.47747542035586 259.67875103924433 C 502.47747542035586 151.69669489174942 414.94072323468924 64.15994270608286 306.9586670871943 64.15994270608286 Z" fill-opacity="0.8"/><path fill="none" stroke="rgb(0,0,0)" paint-order="fill stroke markers" d=" M 420.30290380207055 259.67875103924433 L 448.63896298078964 259.67875103924433" stroke-opacity="0.8" stroke-linecap="round" stroke-linejoin="round" stroke-miterlimit="10" stroke-width="2.5"/><text fill="rgb(0,0,0)" stroke="none" font-family="geogebra-sans-serif, sans-serif" font-size="32px" font-style="normal" font-weight="normal" text-decoration="normal" x="419" y="248" text-anchor="start" dominant-baseline="alphabetic" fill-opacity="1">Δx</text><text fill="none" stroke="rgb(255,255,255)" font-family="geogebra-sans-serif, sans-serif" font-size="32px" font-style="normal" font-weight="normal" text-decoration="normal" x="419" y="248" text-anchor="start" dominant-baseline="alphabetic" stroke-opacity="1" stroke-linejoin="bevel" stroke-miterlimit="10" stroke-width="3">Δx</text><text fill="rgb(0,0,0)" stroke="none" font-family="geogebra-sans-serif, sans-serif" font-size="32px" font-style="normal" font-weight="normal" text-decoration="normal" x="419" y="248" text-anchor="start" dominant-baseline="alphabetic" fill-opacity="1">Δx</text><path fill="none" stroke="rgb(0,0,0)" paint-order="fill stroke markers" d=" M 306.9586670871943 259.67875103924433 L 398.1683763524629 322.07867042575884" stroke-opacity="0.8" stroke-linecap="round" stroke-linejoin="round" stroke-miterlimit="10" stroke-width="2.5"/><path fill="rgb(0,0,0)" stroke="none" paint-order="stroke fill markers" fill-rule="evenodd" d=" M 412.1990818059274 331.6775924734744 L 395.76864584053396 325.586346789125 L 400.5681068643918 318.5709940623927 Z" fill-opacity="0.8"/><text fill="rgb(0,0,0)" stroke="none" font-family="geogebra-sans-serif, sans-serif" font-size="32px" font-style="normal" font-weight="normal" text-decoration="normal" x="368" y="288" text-anchor="start" dominant-baseline="alphabetic" fill-opacity="1">r</text><text fill="none" stroke="rgb(255,255,255)" font-family="geogebra-sans-serif, sans-serif" font-size="32px" font-style="normal" font-weight="normal" text-decoration="normal" x="368" y="288" text-anchor="start" dominant-baseline="alphabetic" stroke-opacity="1" stroke-linejoin="bevel" stroke-miterlimit="10" stroke-width="3">r</text><text fill="rgb(0,0,0)" stroke="none" font-family="geogebra-sans-serif, sans-serif" font-size="32px" font-style="normal" font-weight="normal" text-decoration="normal" x="368" y="288" text-anchor="start" dominant-baseline="alphabetic" fill-opacity="1">r</text><text fill="rgb(0,0,0)" stroke="none" font-family="geogebra-sans-serif, sans-serif" font-size="28px" font-style="normal" font-weight="normal" text-decoration="normal" x="379" y="302" text-anchor="start" dominant-baseline="alphabetic" fill-opacity="1">1</text><text fill="none" stroke="rgb(255,255,255)" font-family="geogebra-sans-serif, sans-serif" font-size="28px" font-style="normal" font-weight="normal" text-decoration="normal" x="379" y="302" text-anchor="start" dominant-baseline="alphabetic" stroke-opacity="1" stroke-linejoin="bevel" stroke-miterlimit="10" stroke-width="3">1</text><text fill="rgb(0,0,0)" stroke="none" font-family="geogebra-sans-serif, sans-serif" font-size="28px" font-style="normal" font-weight="normal" text-decoration="normal" x="379" y="302" text-anchor="start" dominant-baseline="alphabetic" fill-opacity="1">1</text><path fill="none" stroke="rgb(0,0,0)" paint-order="fill stroke markers" d=" M 306.9586670871943 259.67875103924433 L 361.89194037066756 400.97545902403834" stroke-opacity="0.8" stroke-linecap="round" stroke-linejoin="round" stroke-miterlimit="10" stroke-width="2.5"/><path fill="rgb(0,0,0)" stroke="none" paint-order="stroke fill markers" fill-rule="evenodd" d=" M 368.052022196771 416.8201234854812 L 357.93077425530686 402.5154794805642 L 365.85310648602825 399.4354385675125 Z" fill-opacity="0.8"/><text fill="rgb(0,0,0)" stroke="none" font-family="geogebra-sans-serif, sans-serif" font-size="32px" font-style="normal" font-weight="normal" text-decoration="normal" x="292" y="323" text-anchor="start" dominant-baseline="alphabetic" fill-opacity="1">r</text><text fill="none" stroke="rgb(255,255,255)" font-family="geogebra-sans-serif, sans-serif" font-size="32px" font-style="normal" font-weight="normal" text-decoration="normal" x="292" y="323" text-anchor="start" dominant-baseline="alphabetic" stroke-opacity="1" stroke-linejoin="bevel" stroke-miterlimit="10" stroke-width="3">r</text><text fill="rgb(0,0,0)" stroke="none" font-family="geogebra-sans-serif, sans-serif" font-size="32px" font-style="normal" font-weight="normal" text-decoration="normal" x="292" y="323" text-anchor="start" dominant-baseline="alphabetic" fill-opacity="1">r</text><text fill="rgb(0,0,0)" stroke="none" font-family="geogebra-sans-serif, sans-serif" font-size="28px" font-style="normal" font-weight="normal" text-decoration="normal" x="303" y="337" text-anchor="start" dominant-baseline="alphabetic" fill-opacity="1">2</text><text fill="none" stroke="rgb(255,255,255)" font-family="geogebra-sans-serif, sans-serif" font-size="28px" font-style="normal" font-weight="normal" text-decoration="normal" x="303" y="337" text-anchor="start" dominant-baseline="alphabetic" stroke-opacity="1" stroke-linejoin="bevel" stroke-miterlimit="10" stroke-width="3">2</text><text fill="rgb(0,0,0)" stroke="none" font-family="geogebra-sans-serif, sans-serif" font-size="28px" font-style="normal" font-weight="normal" text-decoration="normal" x="303" y="337" text-anchor="start" dominant-baseline="alphabetic" fill-opacity="1">2</text><path fill="none" stroke="rgb(0,0,0)" paint-order="fill stroke markers" d=" M 448.63896298078964 259.67875103924433 C 448.63896298078964 337.9266178127914 385.2065338607414 401.3590469328396 306.9586670871943 401.3590469328396 C 228.71080031364727 401.3590469328396 165.27837119359904 337.9266178127914 165.27837119359904 259.67875103924433 C 165.27837119359904 181.4308842656973 228.71080031364727 117.99845514564907 306.9586670871943 117.99845514564907 C 385.2065338607414 117.99845514564907 448.63896298078964 181.4308842656973 448.63896298078964 259.67875103924433 Z" stroke-opacity="0.8" stroke-linecap="round" stroke-linejoin="round" stroke-miterlimit="10" stroke-width="2.5"/></g></g></svg>