<?xml version="1.0" encoding="UTF-8" standalone="no"?>
<!-- Created with Inkscape (http://www.inkscape.org/) -->

<svg
   xmlns:dc="http://purl.org/dc/elements/1.1/"
   xmlns:cc="http://creativecommons.org/ns#"
   xmlns:rdf="http://www.w3.org/1999/02/22-rdf-syntax-ns#"
   xmlns:svg="http://www.w3.org/2000/svg"
   xmlns="http://www.w3.org/2000/svg"
   xmlns:sodipodi="http://sodipodi.sourceforge.net/DTD/sodipodi-0.dtd"
   xmlns:inkscape="http://www.inkscape.org/namespaces/inkscape"
   width="2.0377221in"
   height="0.24261206in"
   viewBox="0 0 51.758142 6.1623464"
   version="1.1"
   id="svg2346"
   inkscape:version="0.92.2 (5c3e80d, 2017-08-06)"
   sodipodi:docname="fig-ans-a-2-47.svg">
  <defs
     id="defs2340">
    <clipPath
       clipPathUnits="userSpaceOnUse"
       id="clipPath1106">
      <path
         d="m 93.95,301.8 h 148 v -21 h -148 z"
         id="path1104"
         inkscape:connector-curvature="0"
         style="clip-rule:evenodd" />
    </clipPath>
    <clipPath
       clipPathUnits="userSpaceOnUse"
       id="clipPath1112">
      <path
         d="M 28,776 H 668 V 28 H 28 Z"
         id="path1110"
         inkscape:connector-curvature="0" />
    </clipPath>
    <clipPath
       clipPathUnits="userSpaceOnUse"
       id="clipPath1118">
      <path
         d="m 0,804.015 h 696 v -804 H 0 Z"
         id="path1116"
         inkscape:connector-curvature="0" />
    </clipPath>
  </defs>
  <sodipodi:namedview
     id="base"
     pagecolor="#ffffff"
     bordercolor="#666666"
     borderopacity="1.0"
     inkscape:pageopacity="0.0"
     inkscape:pageshadow="2"
     inkscape:zoom="6.1905315"
     inkscape:cx="97.810664"
     inkscape:cy="11.645374"
     inkscape:document-units="mm"
     inkscape:current-layer="layer1"
     showgrid="false"
     inkscape:window-width="1366"
     inkscape:window-height="745"
     inkscape:window-x="-8"
     inkscape:window-y="-8"
     inkscape:window-maximized="1"
     fit-margin-top="0"
     fit-margin-left="0"
     fit-margin-right="0"
     fit-margin-bottom="0"
     units="in" />
  <metadata
     id="metadata2343">
    <rdf:RDF>
      <cc:Work
         rdf:about="">
        <dc:format>image/svg+xml</dc:format>
        <dc:type
           rdf:resource="http://purl.org/dc/dcmitype/StillImage" />
        <dc:title></dc:title>
      </cc:Work>
    </rdf:RDF>
  </metadata>
  <g
     inkscape:label="Layer 1"
     inkscape:groupmode="layer"
     id="layer1"
     transform="translate(-1.3352139,-1.3652623)">
    <g
       transform="matrix(0.35277777,0,0,-0.35277777,-32.061552,107.82301)"
       id="g1100">
      <g
         id="g1102"
         clip-path="url(#clipPath1106)">
        <g
           id="g1108"
           clip-path="url(#clipPath1112)">
          <g
             id="g1114"
             clip-path="url(#clipPath1118)">
            <path
               d="M 236.725,297.77 H 94.668"
               style="fill:none;stroke:#000000;stroke-width:0.69999999;stroke-linecap:butt;stroke-linejoin:miter;stroke-miterlimit:4;stroke-dasharray:none;stroke-opacity:1"
               id="path1120"
               inkscape:connector-curvature="0" />
            <path
               d="m 132.104,301.77 v -8 m 12.6,7 v -6 m 12.6,6 v -6 m 12.602,6 v -6 m 12.6,6 v -6 m 50.361,6 v -6 m -12.601,6 v -6 m -12.6,6 v -6 m -12.56,7 v -8"
               style="fill:none;stroke:#000000;stroke-width:0.5;stroke-linecap:butt;stroke-linejoin:miter;stroke-miterlimit:4;stroke-dasharray:none;stroke-opacity:1"
               id="path1122"
               inkscape:connector-curvature="0" />
            <path
               d="m 182.585,297.749 h 54.562"
               style="fill:none;stroke:#000000;stroke-width:1.20000005;stroke-linecap:butt;stroke-linejoin:miter;stroke-miterlimit:4;stroke-dasharray:none;stroke-opacity:1"
               id="path1124"
               inkscape:connector-curvature="0" />
            <path
               d="m 241.384,297.749 -5.97,-2.439 1.416,2.439 -1.416,2.438 5.97,-2.438"
               style="fill:#000000;fill-opacity:1;fill-rule:nonzero;stroke:none"
               id="path1126"
               inkscape:connector-curvature="0" />
            <text
               transform="matrix(1,0,0,-1,192.8558,284.5289)"
               style="font-variant:normal;font-weight:normal;font-size:9px;font-family:'Times New Roman';-inkscape-font-specification:Times-Roman;writing-mode:lr-tb;fill:#231f20;fill-opacity:1;fill-rule:nonzero;stroke:none"
               id="text1130">
              <tspan
                 x="0"
                 y="0"
                 id="tspan1128">0</tspan>
            </text>
            <text
               transform="matrix(1,0,0,-1,150.1049,284.4074)"
               style="font-variant:normal;font-weight:normal;font-size:9px;font-family:Symbol;-inkscape-font-specification:Symbol;writing-mode:lr-tb;fill:#231f20;fill-opacity:1;fill-rule:nonzero;stroke:none"
               id="text1134">
              <tspan
                 x="0"
                 y="0"
                 id="tspan1132">−</tspan>
            </text>
            <text
               transform="matrix(1,0,0,-1,155.0459,284.4074)"
               style="font-variant:normal;font-weight:normal;font-size:9px;font-family:'Times New Roman';-inkscape-font-specification:Times-Roman;writing-mode:lr-tb;fill:#231f20;fill-opacity:1;fill-rule:nonzero;stroke:none"
               id="text1138">
              <tspan
                 x="0"
                 y="0"
                 id="tspan1136">3</tspan>
            </text>
            <text
               transform="matrix(1,0,0,-1,175.3319,284.4074)"
               style="font-variant:normal;font-weight:normal;font-size:9px;font-family:Symbol;-inkscape-font-specification:Symbol;writing-mode:lr-tb;fill:#231f20;fill-opacity:1;fill-rule:nonzero;stroke:none"
               id="text1142">
              <tspan
                 x="0"
                 y="0"
                 id="tspan1140">−</tspan>
            </text>
            <text
               transform="matrix(1,0,0,-1,180.2729,284.4074)"
               style="font-variant:normal;font-weight:normal;font-size:9px;font-family:'Times New Roman';-inkscape-font-specification:Times-Roman;writing-mode:lr-tb;fill:#231f20;fill-opacity:1;fill-rule:nonzero;stroke:none"
               id="text1146">
              <tspan
                 x="0"
                 y="0"
                 id="tspan1144">1</tspan>
            </text>
            <path
               d="m 182.541,295.772 c 1.104,0 2,0.896 2,2 0,1.105 -0.896,2 -2,2 -1.105,0 -2,-0.895 -2,-2 0,-1.104 0.895,-2 2,-2"
               style="fill:#000000;fill-opacity:1;fill-rule:nonzero;stroke:none"
               id="path1148"
               inkscape:connector-curvature="0" />
            <path
               d="M 157.232,297.749 H 102.67"
               style="fill:none;stroke:#000000;stroke-width:1.20000005;stroke-linecap:butt;stroke-linejoin:miter;stroke-miterlimit:4;stroke-dasharray:none;stroke-opacity:1"
               id="path1150"
               inkscape:connector-curvature="0" />
            <path
               d="m 98.433,297.749 5.97,2.439 -1.416,-2.439 1.416,-2.439 -5.97,2.439"
               style="fill:#000000;fill-opacity:1;fill-rule:nonzero;stroke:none"
               id="path1152"
               inkscape:connector-curvature="0" />
            <path
               d="m 157.276,295.772 c -1.104,0 -2,0.896 -2,2 0,1.105 0.896,2 2,2 1.105,0 2,-0.895 2,-2 0,-1.104 -0.895,-2 -2,-2"
               style="fill:#ffffff;fill-opacity:1;fill-rule:nonzero;stroke:none"
               id="path1154"
               inkscape:connector-curvature="0" />
            <path
               d="m 157.276,295.772 c -1.104,0 -2,0.896 -2,2 0,1.105 0.896,2 2,2 1.105,0 2,-0.895 2,-2 0,-1.104 -0.895,-2 -2,-2 z m -37.808,4.998 v -6 m -12.601,6 v -6"
               style="fill:none;stroke:#000000;stroke-width:0.5;stroke-linecap:butt;stroke-linejoin:miter;stroke-miterlimit:4;stroke-dasharray:none;stroke-opacity:1"
               id="path1156"
               inkscape:connector-curvature="0" />
          </g>
        </g>
      </g>
    </g>
  </g>
</svg>
