<?xml version="1.0" encoding="UTF-8"?>
<svg xmlns="http://www.w3.org/2000/svg" xmlns:xlink="http://www.w3.org/1999/xlink" width="97.1717pt" height="97.2283pt" viewBox="0 0 97.1717 97.2283" version="1.1">
<defs>
<clipPath id="clip1">
  <path d="M 0 0 L 97 0 L 97 97.226562 L 0 97.226562 Z M 0 0 "/>
</clipPath>
<linearGradient id="linear0" gradientUnits="userSpaceOnUse" x1="179.98317" y1="128" x2="248.699455" y2="128" gradientTransform="matrix(1.4141,0,0,0.5594,-254.5142,-22.14)">
<stop offset="0" style="stop-color:rgb(84.80072%,93.319702%,96.620178%);stop-opacity:1;"/>
<stop offset="0.125" style="stop-color:rgb(85.090637%,93.515015%,96.774292%);stop-opacity:1;"/>
<stop offset="0.25" style="stop-color:rgb(85.671997%,93.904114%,97.085571%);stop-opacity:1;"/>
<stop offset="0.375" style="stop-color:rgb(86.254883%,94.294739%,97.396851%);stop-opacity:1;"/>
<stop offset="0.5" style="stop-color:rgb(86.84082%,94.685364%,97.706604%);stop-opacity:1;"/>
<stop offset="0.625" style="stop-color:rgb(87.425232%,95.075989%,98.017883%);stop-opacity:1;"/>
<stop offset="0.75" style="stop-color:rgb(88.014221%,95.46814%,98.329163%);stop-opacity:1;"/>
<stop offset="0.875" style="stop-color:rgb(88.604736%,95.860291%,98.640442%);stop-opacity:1;"/>
<stop offset="1" style="stop-color:rgb(89.198303%,96.253967%,98.953247%);stop-opacity:1;"/>
</linearGradient>
<clipPath id="clip2">
  <path d="M 1.484375 2.019531 L 94.484375 2.019531 L 94.484375 96 L 1.484375 96 Z M 1.484375 2.019531 "/>
</clipPath>
<clipPath id="clip3">
  <path d="M 1.484375 39 L 94.484375 39 L 94.484375 77 L 1.484375 77 Z M 1.484375 39 "/>
</clipPath>
<clipPath id="clip4">
  <path d="M 0 0 L 97.171875 0 L 97.171875 97.226562 L 0 97.226562 Z M 0 0 "/>
</clipPath>
</defs>
<g id="surface1">
<g clip-path="url(#clip1)" clip-rule="nonzero">
<path style=" stroke:none;fill-rule:nonzero;fill:url(#linear0);" d="M 0 0 L 0 97.226562 L 97.171875 97.226562 L 97.171875 0 Z M 0 0 "/>
</g>
<g clip-path="url(#clip2)" clip-rule="nonzero">
<path style="fill:none;stroke-width:0.35;stroke-linecap:butt;stroke-linejoin:miter;stroke:rgb(74.119568%,73.648071%,73.765564%);stroke-opacity:1;stroke-miterlimit:4;" d="M 514.92045 397.921094 L 606.912637 397.921094 M 514.92045 388.721875 L 606.912637 388.721875 M 514.92045 379.522656 L 606.912637 379.522656 M 514.92045 370.327344 L 606.912637 370.327344 M 514.92045 361.128125 L 606.912637 361.128125 M 514.92045 351.928906 L 606.912637 351.928906 M 514.92045 342.729688 L 606.912637 342.729688 M 514.92045 333.530469 L 606.912637 333.530469 M 514.92045 324.335156 L 606.912637 324.335156 M 514.92045 315.135938 L 606.912637 315.135938 M 514.92045 305.936719 L 606.912637 305.936719 M 514.92045 305.936719 L 514.92045 397.921094 M 524.119669 305.936719 L 524.119669 397.921094 M 533.318887 305.936719 L 533.318887 397.921094 M 542.518106 305.936719 L 542.518106 397.921094 M 551.717325 305.936719 L 551.717325 397.921094 M 560.916544 305.936719 L 560.916544 397.921094 M 570.115762 305.936719 L 570.115762 397.921094 M 579.314981 305.936719 L 579.314981 397.921094 M 588.5142 305.936719 L 588.5142 397.921094 M 597.713419 305.936719 L 597.713419 397.921094 M 606.912637 305.936719 L 606.912637 397.921094 " transform="matrix(1,0,0,-1,-513.0142,400.8)"/>
</g>
<g clip-path="url(#clip3)" clip-rule="nonzero">
<path style="fill:none;stroke-width:1.2;stroke-linecap:butt;stroke-linejoin:miter;stroke:rgb(93.609619%,18.434143%,17.378235%);stroke-opacity:1;stroke-miterlimit:4;" d="M 514.92045 331.190625 L 606.912637 354.225781 " transform="matrix(1,0,0,-1,-513.0142,400.8)"/>
</g>
<path style=" stroke:none;fill-rule:nonzero;fill:rgb(93.609619%,18.434143%,17.378235%);fill-opacity:1;" d="M 11.257812 69.269531 C 12.363281 69.269531 13.257812 68.371094 13.257812 67.269531 C 13.257812 66.164062 12.363281 65.269531 11.257812 65.269531 C 10.152344 65.269531 9.257812 66.164062 9.257812 67.269531 C 9.257812 68.371094 10.152344 69.269531 11.257812 69.269531 "/>
<path style=" stroke:none;fill-rule:nonzero;fill:rgb(93.609619%,18.434143%,17.378235%);fill-opacity:1;" d="M 84.726562 50.871094 C 85.828125 50.871094 86.726562 49.976562 86.726562 48.871094 C 86.726562 47.765625 85.828125 46.871094 84.726562 46.871094 C 83.621094 46.871094 82.726562 47.765625 82.726562 48.871094 C 82.726562 49.976562 83.621094 50.871094 84.726562 50.871094 "/>
<g clip-path="url(#clip4)" clip-rule="nonzero">
<path style="fill:none;stroke-width:0.5;stroke-linecap:butt;stroke-linejoin:miter;stroke:rgb(100%,100%,100%);stroke-opacity:1;stroke-miterlimit:10;" d="M 41.998575 803.999219 L 41.998575 779.999219 M -0.001425 761.999219 L 23.998575 761.999219 M 653.998575 803.999219 L 653.998575 779.999219 M 695.998575 761.999219 L 671.998575 761.999219 M 41.998575 -0.00078125 L 41.998575 23.999219 M -0.001425 41.999219 L 23.998575 41.999219 M 653.998575 -0.00078125 L 653.998575 23.999219 M 695.998575 41.999219 L 671.998575 41.999219 " transform="matrix(1,0,0,-1,-513.0142,400.8)"/>
<path style="fill:none;stroke-width:0.25;stroke-linecap:butt;stroke-linejoin:miter;stroke:rgb(0%,0%,0%);stroke-opacity:1;stroke-miterlimit:10;" d="M 41.998575 803.999219 L 41.998575 779.999219 M -0.001425 761.999219 L 23.998575 761.999219 M 653.998575 803.999219 L 653.998575 779.999219 M 695.998575 761.999219 L 671.998575 761.999219 M 41.998575 -0.00078125 L 41.998575 23.999219 M -0.001425 41.999219 L 23.998575 41.999219 M 653.998575 -0.00078125 L 653.998575 23.999219 M 695.998575 41.999219 L 671.998575 41.999219 " transform="matrix(1,0,0,-1,-513.0142,400.8)"/>
<path style="fill:none;stroke-width:0.5;stroke-linecap:butt;stroke-linejoin:miter;stroke:rgb(100%,100%,100%);stroke-opacity:1;stroke-miterlimit:10;" d="M 323.998575 791.999219 L 371.998575 791.999219 M 323.998575 11.999219 L 371.998575 11.999219 M 11.998575 425.999219 L 11.998575 377.999219 M 683.998575 425.999219 L 683.998575 377.999219 M 347.998575 803.999219 L 347.998575 779.999219 M 347.998575 23.999219 L 347.998575 -0.00078125 M -0.001425 401.999219 L 23.998575 401.999219 M 671.998575 401.999219 L 695.998575 401.999219 M 347.998575 791.999219 L 353.998575 791.999219 C 353.998575 788.686719 351.311075 785.999219 347.998575 785.999219 C 344.686075 785.999219 341.998575 788.686719 341.998575 791.999219 C 341.998575 795.311719 344.686075 797.999219 347.998575 797.999219 C 351.311075 797.999219 353.998575 795.311719 353.998575 791.999219 M 347.998575 11.999219 L 353.998575 11.999219 C 353.998575 8.686719 351.311075 5.999219 347.998575 5.999219 C 344.686075 5.999219 341.998575 8.686719 341.998575 11.999219 C 341.998575 15.311719 344.686075 17.999219 347.998575 17.999219 C 351.311075 17.999219 353.998575 15.311719 353.998575 11.999219 M 11.998575 401.999219 L 17.998575 401.999219 C 17.998575 398.686719 15.311075 395.999219 11.998575 395.999219 C 8.686075 395.999219 5.998575 398.686719 5.998575 401.999219 C 5.998575 405.311719 8.686075 407.999219 11.998575 407.999219 C 15.311075 407.999219 17.998575 405.311719 17.998575 401.999219 M 683.998575 401.999219 L 689.998575 401.999219 C 689.998575 398.686719 687.311075 395.999219 683.998575 395.999219 C 680.686075 395.999219 677.998575 398.686719 677.998575 401.999219 C 677.998575 405.311719 680.686075 407.999219 683.998575 407.999219 C 687.311075 407.999219 689.998575 405.311719 689.998575 401.999219 " transform="matrix(1,0,0,-1,-513.0142,400.8)"/>
<path style="fill:none;stroke-width:0.25;stroke-linecap:butt;stroke-linejoin:miter;stroke:rgb(0%,0%,0%);stroke-opacity:1;stroke-miterlimit:10;" d="M 323.998575 791.999219 L 371.998575 791.999219 M 323.998575 11.999219 L 371.998575 11.999219 M 11.998575 425.999219 L 11.998575 377.999219 M 683.998575 425.999219 L 683.998575 377.999219 M 347.998575 803.999219 L 347.998575 779.999219 M 347.998575 23.999219 L 347.998575 -0.00078125 M -0.001425 401.999219 L 23.998575 401.999219 M 671.998575 401.999219 L 695.998575 401.999219 M 347.998575 791.999219 L 353.998575 791.999219 C 353.998575 788.686719 351.311075 785.999219 347.998575 785.999219 C 344.686075 785.999219 341.998575 788.686719 341.998575 791.999219 C 341.998575 795.311719 344.686075 797.999219 347.998575 797.999219 C 351.311075 797.999219 353.998575 795.311719 353.998575 791.999219 M 347.998575 11.999219 L 353.998575 11.999219 C 353.998575 8.686719 351.311075 5.999219 347.998575 5.999219 C 344.686075 5.999219 341.998575 8.686719 341.998575 11.999219 C 341.998575 15.311719 344.686075 17.999219 347.998575 17.999219 C 351.311075 17.999219 353.998575 15.311719 353.998575 11.999219 M 11.998575 401.999219 L 17.998575 401.999219 C 17.998575 398.686719 15.311075 395.999219 11.998575 395.999219 C 8.686075 395.999219 5.998575 398.686719 5.998575 401.999219 C 5.998575 405.311719 8.686075 407.999219 11.998575 407.999219 C 15.311075 407.999219 17.998575 405.311719 17.998575 401.999219 M 683.998575 401.999219 L 689.998575 401.999219 C 689.998575 398.686719 687.311075 395.999219 683.998575 395.999219 C 680.686075 395.999219 677.998575 398.686719 677.998575 401.999219 C 677.998575 405.311719 680.686075 407.999219 683.998575 407.999219 C 687.311075 407.999219 689.998575 405.311719 689.998575 401.999219 " transform="matrix(1,0,0,-1,-513.0142,400.8)"/>
</g>
</g>
</svg>
