<?xml version="1.0" encoding="UTF-8" standalone="no"?>
<!-- Created with Inkscape (http://www.inkscape.org/) -->

<svg
   xmlns:dc="http://purl.org/dc/elements/1.1/"
   xmlns:cc="http://creativecommons.org/ns#"
   xmlns:rdf="http://www.w3.org/1999/02/22-rdf-syntax-ns#"
   xmlns:svg="http://www.w3.org/2000/svg"
   xmlns="http://www.w3.org/2000/svg"
   xmlns:sodipodi="http://sodipodi.sourceforge.net/DTD/sodipodi-0.dtd"
   xmlns:inkscape="http://www.inkscape.org/namespaces/inkscape"
   width="35.427132mm"
   height="38.994644mm"
   viewBox="0 0 35.427132 38.994644"
   version="1.1"
   id="svg3433"
   inkscape:version="0.92.2 (5c3e80d, 2017-08-06)"
   sodipodi:docname="fig-ex-a-11-14.svg">
  <defs
     id="defs3427">
    <clipPath
       clipPathUnits="userSpaceOnUse"
       id="clipPath2633">
      <path
         d="m 390.29,669.5 h 102 v -111 h -102 z"
         id="path2631"
         inkscape:connector-curvature="0"
         style="clip-rule:evenodd" />
    </clipPath>
    <clipPath
       clipPathUnits="userSpaceOnUse"
       id="clipPath2639">
      <path
         d="M 28,776 H 668 V 28 H 28 Z"
         id="path2637"
         inkscape:connector-curvature="0" />
    </clipPath>
    <clipPath
       clipPathUnits="userSpaceOnUse"
       id="clipPath2645">
      <path
         d="M 0,804.03 H 696 V 0.03 H 0 Z"
         id="path2643"
         inkscape:connector-curvature="0" />
    </clipPath>
    <linearGradient
       x1="0.034000002"
       y1="0"
       x2="1"
       y2="0"
       gradientUnits="userSpaceOnUse"
       gradientTransform="matrix(39.8946,0,0,-41.7525,427.4677,646.6094)"
       spreadMethod="pad"
       id="linearGradient2623">
      <stop
         style="stop-opacity:1;stop-color:#40bead"
         offset="0"
         id="stop2615" />
      <stop
         style="stop-opacity:1;stop-color:#ffffff"
         offset="0.808989"
         id="stop2617" />
      <stop
         style="stop-opacity:1;stop-color:#40bead"
         offset="0.95446577"
         id="stop2619" />
      <stop
         style="stop-opacity:1;stop-color:#40bead"
         offset="1"
         id="stop2621" />
    </linearGradient>
    <clipPath
       clipPathUnits="userSpaceOnUse"
       id="clipPath2589">
      <path
         d="m 390.29,669.5 h 102 v -111 h -102 z"
         id="path2587"
         inkscape:connector-curvature="0"
         style="clip-rule:evenodd" />
    </clipPath>
    <clipPath
       clipPathUnits="userSpaceOnUse"
       id="clipPath2595">
      <path
         d="M 28,776 H 668 V 28 H 28 Z"
         id="path2593"
         inkscape:connector-curvature="0" />
    </clipPath>
    <clipPath
       clipPathUnits="userSpaceOnUse"
       id="clipPath2601">
      <path
         d="M 0,804.03 H 696 V 0.03 H 0 Z"
         id="path2599"
         inkscape:connector-curvature="0" />
    </clipPath>
    <linearGradient
       x1="0"
       y1="0"
       x2="1"
       y2="0"
       gradientUnits="userSpaceOnUse"
       gradientTransform="matrix(-39.1522,34.3048,21.5562,24.6021,454.2929,617.5928)"
       spreadMethod="pad"
       id="linearGradient2579">
      <stop
         style="stop-opacity:1;stop-color:#ffffff"
         offset="0"
         id="stop2573" />
      <stop
         style="stop-opacity:1;stop-color:#40bead"
         offset="0.76161462"
         id="stop2575" />
      <stop
         style="stop-opacity:1;stop-color:#40bead"
         offset="1"
         id="stop2577" />
    </linearGradient>
  </defs>
  <sodipodi:namedview
     id="base"
     pagecolor="#ffffff"
     bordercolor="#666666"
     borderopacity="1.0"
     inkscape:pageopacity="0.0"
     inkscape:pageshadow="2"
     inkscape:zoom="0.35"
     inkscape:cx="106.94891"
     inkscape:cy="-72.023643"
     inkscape:document-units="mm"
     inkscape:current-layer="layer1"
     showgrid="false"
     fit-margin-top="0"
     fit-margin-left="0"
     fit-margin-right="0"
     fit-margin-bottom="0"
     inkscape:window-width="1366"
     inkscape:window-height="745"
     inkscape:window-x="-8"
     inkscape:window-y="-8"
     inkscape:window-maximized="1" />
  <metadata
     id="metadata3430">
    <rdf:RDF>
      <cc:Work
         rdf:about="">
        <dc:format>image/svg+xml</dc:format>
        <dc:type
           rdf:resource="http://purl.org/dc/dcmitype/StillImage" />
        <dc:title></dc:title>
      </cc:Work>
    </rdf:RDF>
  </metadata>
  <g
     inkscape:label="Layer 1"
     inkscape:groupmode="layer"
     id="layer1"
     transform="translate(-77.536435,-90.782434)">
    <g
       transform="matrix(0.35277777,0,0,-0.35277777,-60.669403,326.90859)"
       id="g2563">
      <g
         id="g2565">
        <g
           id="g2571">
          <path
             d="m 467.218,645.491 c 0,-2.78 -8.93,-5.033 -19.947,-5.033 -11.016,0 -19.948,2.253 -19.948,5.033 0,2.78 8.932,5.033 19.948,5.033 11.017,0 19.947,-2.253 19.947,-5.033"
             style="fill:url(#linearGradient2579);stroke:none"
             id="path2581"
             inkscape:connector-curvature="0" />
        </g>
      </g>
    </g>
    <g
       transform="matrix(0.35277777,0,0,-0.35277777,-60.669403,326.90859)"
       id="g2583">
      <g
         id="g2585"
         clip-path="url(#clipPath2589)">
        <g
           id="g2591"
           clip-path="url(#clipPath2595)">
          <g
             id="g2597"
             clip-path="url(#clipPath2601)">
            <path
               d="m 467.218,645.491 c 0,-2.78 -8.93,-5.033 -19.947,-5.033 -11.016,0 -19.948,2.253 -19.948,5.033 0,2.78 8.932,5.033 19.948,5.033 11.017,0 19.947,-2.253 19.947,-5.033 z"
               style="fill:none;stroke:#231f20;stroke-width:0.5;stroke-linecap:butt;stroke-linejoin:miter;stroke-miterlimit:4;stroke-dasharray:none;stroke-opacity:1"
               id="path2603"
               inkscape:connector-curvature="0" />
          </g>
        </g>
      </g>
    </g>
    <g
       transform="matrix(0.35277777,0,0,-0.35277777,-60.669403,326.90859)"
       id="g2605">
      <g
         id="g2607">
        <g
           id="g2613">
          <path
             d="m 467.218,611.008 c 0,-2.78 -8.93,-5.033 -19.947,-5.033 -11.016,0 -19.948,2.253 -19.948,5.033 v 34.483 c 0,-2.78 8.932,-5.033 19.948,-5.033 11.017,0 19.947,2.253 19.947,5.033 v -34.483"
             style="fill:url(#linearGradient2623);stroke:none"
             id="path2625"
             inkscape:connector-curvature="0" />
        </g>
      </g>
    </g>
    <g
       transform="matrix(0.35277777,0,0,-0.35277777,-60.669403,326.90859)"
       id="g2627">
      <g
         id="g2629"
         clip-path="url(#clipPath2633)">
        <g
           id="g2635"
           clip-path="url(#clipPath2639)">
          <g
             id="g2641"
             clip-path="url(#clipPath2645)">
            <path
               d="m 467.218,611.008 c 0,-2.78 -8.93,-5.033 -19.947,-5.033 -11.016,0 -19.948,2.253 -19.948,5.033 v 34.483 c 0,-2.78 8.932,-5.033 19.948,-5.033 11.017,0 19.947,2.253 19.947,5.033 z"
               style="fill:none;stroke:#231f20;stroke-width:0.5;stroke-linecap:butt;stroke-linejoin:miter;stroke-miterlimit:4;stroke-dasharray:none;stroke-opacity:1"
               id="path2647"
               inkscape:connector-curvature="0" />
            <path
               d="m 467.218,611.008 c 0,-2.78 -8.93,-5.033 -19.947,-5.033 -11.016,0 -19.948,2.253 -19.948,5.033 0,2.78 8.932,5.034 19.948,5.034 11.017,0 19.947,-2.254 19.947,-5.034 z"
               style="fill:none;stroke:#231f20;stroke-width:0.5;stroke-linecap:butt;stroke-linejoin:miter;stroke-miterlimit:4;stroke-dasharray:4, 2;stroke-dashoffset:0;stroke-opacity:1"
               id="path2649"
               inkscape:connector-curvature="0" />
            <path
               d="m 449.27,611.007 c 0,-1.105 -0.895,-2 -1.999,-2 -1.104,0 -2,0.895 -2,2 0,1.104 0.896,2 2,2 1.104,0 1.999,-0.896 1.999,-2"
               style="fill:#231f20;fill-opacity:1;fill-rule:nonzero;stroke:none"
               id="path2651"
               inkscape:connector-curvature="0" />
            <path
               d="m 447.588,611.097 h 19.537"
               style="fill:none;stroke:#231f20;stroke-width:0.5;stroke-linecap:butt;stroke-linejoin:miter;stroke-miterlimit:4;stroke-dasharray:none;stroke-opacity:1"
               id="path2653"
               inkscape:connector-curvature="0" />
            <path
               d="m 447.335,656.248 c -17.86,0 -33.338,-4.823 -33.338,-10.773 0,-5.95 15.478,-10.773 33.338,-10.773 17.859,0 33.337,4.823 33.337,10.773 0,5.95 -15.478,10.773 -33.337,10.773 z m 32.836,-12.678 0.03,0.064 c -2.621,-5.072 -16.891,-8.932 -32.866,-8.932 -15.977,0 -30.246,3.86 -32.868,8.932 l 0.031,-0.064 32.706,-83.795 z"
               style="fill:none;stroke:#000000;stroke-width:0.69999999;stroke-linecap:butt;stroke-linejoin:miter;stroke-miterlimit:4;stroke-dasharray:none;stroke-opacity:1"
               id="path2655"
               inkscape:connector-curvature="0" />
            <path
               d="M 444.503,559.148 H 393.79 m 17.213,86.376 H 393.79"
               style="fill:none;stroke:#231f20;stroke-width:0.69999999;stroke-linecap:butt;stroke-linejoin:round;stroke-miterlimit:3.86299992;stroke-dasharray:none;stroke-opacity:1"
               id="path2657"
               inkscape:connector-curvature="0" />
            <path
               d="m 399.819,562.544 v 79.709"
               style="fill:none;stroke:#000000;stroke-width:0.69999999;stroke-linecap:butt;stroke-linejoin:miter;stroke-miterlimit:4;stroke-dasharray:none;stroke-opacity:1"
               id="path2659"
               inkscape:connector-curvature="0" />
            <path
               d="m 399.819,645.219 -1.707,-4.179 1.707,0.991 1.707,-0.991 -1.707,4.179"
               style="fill:#000000;fill-opacity:1;fill-rule:nonzero;stroke:none"
               id="path2661"
               inkscape:connector-curvature="0" />
            <path
               d="m 399.819,559.579 1.707,4.179 -1.707,-0.992 -1.707,0.992 1.707,-4.179"
               style="fill:#000000;fill-opacity:1;fill-rule:nonzero;stroke:none"
               id="path2663"
               inkscape:connector-curvature="0" />
            <path
               d="m 396.288,607.711 h 7.096 v -9.5 h -7.096 z"
               style="fill:#ffffff;fill-opacity:1;fill-rule:nonzero;stroke:none"
               id="path2665"
               inkscape:connector-curvature="0" />
            <text
               transform="matrix(1,0,0,-1,390.7099,599.8359)"
               style="font-variant:normal;font-weight:normal;font-size:9px;font-family:'Times New Roman';-inkscape-font-specification:Times-Roman;writing-mode:lr-tb;fill:#231f20;fill-opacity:1;fill-rule:nonzero;stroke:none"
               id="text2669">
              <tspan
                 x="0 4.5 9 11.25 13.752"
                 y="0"
                 sodipodi:role="line"
                 id="tspan2667">10 in</tspan>
            </text>
            <path
               d="m 414.024,669.334 v -18.666 m 66.667,18.666 v -18.666"
               style="fill:none;stroke:#231f20;stroke-width:0.69999999;stroke-linecap:butt;stroke-linejoin:round;stroke-miterlimit:3.86299992;stroke-dasharray:none;stroke-opacity:1"
               id="path2671"
               inkscape:connector-curvature="0" />
            <path
               d="M 477.421,663.485 H 417.295"
               style="fill:none;stroke:#000000;stroke-width:0.69999999;stroke-linecap:butt;stroke-linejoin:miter;stroke-miterlimit:4;stroke-dasharray:none;stroke-opacity:1"
               id="path2673"
               inkscape:connector-curvature="0" />
            <path
               d="m 414.33,663.485 4.179,-1.707 -0.992,1.707 0.992,1.707 -4.179,-1.707"
               style="fill:#000000;fill-opacity:1;fill-rule:nonzero;stroke:none"
               id="path2675"
               inkscape:connector-curvature="0" />
            <path
               d="m 480.386,663.485 -4.179,1.707 0.991,-1.707 -0.991,-1.707 4.179,1.707"
               style="fill:#000000;fill-opacity:1;fill-rule:nonzero;stroke:none"
               id="path2677"
               inkscape:connector-curvature="0" />
            <path
               d="m 438.398,668.336 h 18.125 v -9.5 h -18.125 z"
               style="fill:#ffffff;fill-opacity:1;fill-rule:nonzero;stroke:none"
               id="path2679"
               inkscape:connector-curvature="0" />
            <text
               transform="matrix(1,0,0,-1,440.5849,660.4609)"
               style="font-variant:normal;font-weight:normal;font-size:9px;font-family:'Times New Roman';-inkscape-font-specification:Times-Roman;writing-mode:lr-tb;fill:#231f20;fill-opacity:1;fill-rule:nonzero;stroke:none"
               id="text2683">
              <tspan
                 x="0 4.5 6.75 9.2519999"
                 y="0"
                 sodipodi:role="line"
                 id="tspan2681">8 in</tspan>
            </text>
            <path
               d="m 474.961,602.086 h 16.125 v -9.5 h -16.125 z"
               style="fill:#ffffff;fill-opacity:1;fill-rule:nonzero;stroke:none"
               id="path2685"
               inkscape:connector-curvature="0" />
            <text
               transform="matrix(1,0,0,-1,471.7255,594.2109)"
               style="font-variant:normal;font-weight:normal;font-size:9px;font-family:'Times New Roman';-inkscape-font-specification:Times-Roman;writing-mode:lr-tb;fill:#231f20;fill-opacity:1;fill-rule:nonzero;stroke:none"
               id="text2689">
              <tspan
                 x="0 4.5 13.5 16.002001"
                 y="0"
                 sodipodi:role="line"
                 id="tspan2687">2 in</tspan>
            </text>
            <text
               transform="matrix(1,0,0,-1,477.4775,598.2451)"
               style="font-variant:normal;font-weight:normal;font-size:7px;font-family:'Times New Roman';-inkscape-font-specification:Times-Roman;writing-mode:lr-tb;fill:#231f20;fill-opacity:1;fill-rule:nonzero;stroke:none"
               id="text2695">
              <tspan
                 x="0"
                 y="0"
                 id="tspan2691">1</tspan>
              <tspan
                 x="0"
                 y="8.0003004"
                 id="tspan2693">2</tspan>
            </text>
            <path
               d="m 477.29,596.745 h 3.875"
               style="fill:none;stroke:#000000;stroke-width:0.5;stroke-linecap:butt;stroke-linejoin:miter;stroke-miterlimit:4;stroke-dasharray:none;stroke-opacity:1"
               id="path2697"
               inkscape:connector-curvature="0" />
            <path
               d="m 456.54,607.875 c 0.312,-4.938 5.25,-9.938 12.625,-10.437"
               style="fill:none;stroke:#231f20;stroke-width:0.69999999;stroke-linecap:butt;stroke-linejoin:round;stroke-miterlimit:4;stroke-dasharray:none;stroke-opacity:1"
               id="path2699"
               inkscape:connector-curvature="0" />
            <path
               d="m 456.352,610.833 1.967,-4.062 -1.765,0.881 -1.642,-1.097 1.44,4.278"
               style="fill:#231f20;fill-opacity:1;fill-rule:nonzero;stroke:none"
               id="path2701"
               inkscape:connector-curvature="0" />
          </g>
        </g>
      </g>
    </g>
  </g>
</svg>
