<svg version="1.1" xmlns="http://www.w3.org/2000/svg" xmlns:xlink="http://www.w3.org/1999/xlink" width="405" height="405"><defs><clipPath id="ZclJeKFuBycU"><path fill="none" stroke="none" d=" M 0 0 L 405 0 L 405 405 L 0 405 L 0 0 Z"/></clipPath></defs><g transform="scale(1,1)" clip-path="url(#ZclJeKFuBycU)"><g transform="translate(-48.68069793010511,-123.32869024171626)"><path fill="none" stroke="rgb(0,0,0)" paint-order="fill stroke markers" d=" M 250.5 2.5 L 250.5 653.5" stroke-opacity="1" stroke-miterlimit="10"/><path fill="none" stroke="rgb(0,0,0)" paint-order="fill stroke markers" d=" M 250.5 1.5 L 242.5 9.5" stroke-opacity="1" stroke-miterlimit="10"/><path fill="none" stroke="rgb(0,0,0)" paint-order="fill stroke markers" d=" M 250.5 1.5 L 258.5 9.5" stroke-opacity="1" stroke-miterlimit="10"/><path fill="none" stroke="rgb(0,0,0)" paint-order="fill stroke markers" d=" M 0.5 325.5 L 634.5 325.5" stroke-opacity="1" stroke-miterlimit="10"/><path fill="none" stroke="rgb(0,0,0)" paint-order="fill stroke markers" d=" M 635.5 325.5 L 627.5 317.5" stroke-opacity="1" stroke-miterlimit="10"/><path fill="none" stroke="rgb(0,0,0)" paint-order="fill stroke markers" d=" M 635.5 325.5 L 627.5 333.5" stroke-opacity="1" stroke-miterlimit="10"/><text fill="rgb(0,0,0)" stroke="none" font-family="geogebra-sans-serif, sans-serif" font-size="24px" font-style="normal" font-weight="normal" text-decoration="normal" x="71" y="353" text-anchor="start" dominant-baseline="alphabetic" fill-opacity="1">–1</text><text fill="none" stroke="rgb(255,255,255)" font-family="geogebra-sans-serif, sans-serif" font-size="24px" font-style="normal" font-weight="normal" text-decoration="normal" x="71" y="353" text-anchor="start" dominant-baseline="alphabetic" stroke-opacity="1" stroke-linejoin="bevel" stroke-miterlimit="10" stroke-width="3">–1</text><text fill="rgb(0,0,0)" stroke="none" font-family="geogebra-sans-serif, sans-serif" font-size="24px" font-style="normal" font-weight="normal" text-decoration="normal" x="71" y="353" text-anchor="start" dominant-baseline="alphabetic" fill-opacity="1">–1</text><path fill="none" stroke="rgb(0,0,0)" paint-order="fill stroke markers" d=" M 82.5 325.5 L 82.5 328.5" stroke-opacity="1" stroke-miterlimit="10"/><path fill="none" stroke="rgb(0,0,0)" paint-order="fill stroke markers" d=" M 250.5 325.5 L 250.5 328.5" stroke-opacity="1" stroke-miterlimit="10"/><text fill="rgb(0,0,0)" stroke="none" font-family="geogebra-sans-serif, sans-serif" font-size="24px" font-style="normal" font-weight="normal" text-decoration="normal" x="413" y="353" text-anchor="start" dominant-baseline="alphabetic" fill-opacity="1">1</text><text fill="none" stroke="rgb(255,255,255)" font-family="geogebra-sans-serif, sans-serif" font-size="24px" font-style="normal" font-weight="normal" text-decoration="normal" x="413" y="353" text-anchor="start" dominant-baseline="alphabetic" stroke-opacity="1" stroke-linejoin="bevel" stroke-miterlimit="10" stroke-width="3">1</text><text fill="rgb(0,0,0)" stroke="none" font-family="geogebra-sans-serif, sans-serif" font-size="24px" font-style="normal" font-weight="normal" text-decoration="normal" x="413" y="353" text-anchor="start" dominant-baseline="alphabetic" fill-opacity="1">1</text><path fill="none" stroke="rgb(0,0,0)" paint-order="fill stroke markers" d=" M 418.5 325.5 L 418.5 328.5" stroke-opacity="1" stroke-miterlimit="10"/><text fill="rgb(0,0,0)" stroke="none" font-family="geogebra-sans-serif, sans-serif" font-size="24px" font-style="normal" font-weight="normal" text-decoration="normal" x="582" y="353" text-anchor="start" dominant-baseline="alphabetic" fill-opacity="1">2</text><text fill="none" stroke="rgb(255,255,255)" font-family="geogebra-sans-serif, sans-serif" font-size="24px" font-style="normal" font-weight="normal" text-decoration="normal" x="582" y="353" text-anchor="start" dominant-baseline="alphabetic" stroke-opacity="1" stroke-linejoin="bevel" stroke-miterlimit="10" stroke-width="3">2</text><text fill="rgb(0,0,0)" stroke="none" font-family="geogebra-sans-serif, sans-serif" font-size="24px" font-style="normal" font-weight="normal" text-decoration="normal" x="582" y="353" text-anchor="start" dominant-baseline="alphabetic" fill-opacity="1">2</text><path fill="none" stroke="rgb(0,0,0)" paint-order="fill stroke markers" d=" M 587.5 325.5 L 587.5 328.5" stroke-opacity="1" stroke-miterlimit="10"/><path fill="none" stroke="rgb(0,0,0)" paint-order="fill stroke markers" d=" M 247.5 493.5 L 250.5 493.5" stroke-opacity="1" stroke-miterlimit="10"/><path fill="none" stroke="rgb(0,0,0)" paint-order="fill stroke markers" d=" M 247.5 156.5 L 250.5 156.5" stroke-opacity="1" stroke-miterlimit="10"/><text fill="rgb(0,0,0)" stroke="none" font-family="geogebra-sans-serif, sans-serif" font-size="24px" font-style="normal" font-weight="normal" text-decoration="normal" x="213" y="504" text-anchor="start" dominant-baseline="alphabetic" fill-opacity="1">–1</text><text fill="none" stroke="rgb(255,255,255)" font-family="geogebra-sans-serif, sans-serif" font-size="24px" font-style="normal" font-weight="normal" text-decoration="normal" x="213" y="504" text-anchor="start" dominant-baseline="alphabetic" stroke-opacity="1" stroke-linejoin="bevel" stroke-miterlimit="10" stroke-width="3">–1</text><text fill="rgb(0,0,0)" stroke="none" font-family="geogebra-sans-serif, sans-serif" font-size="24px" font-style="normal" font-weight="normal" text-decoration="normal" x="213" y="504" text-anchor="start" dominant-baseline="alphabetic" fill-opacity="1">–1</text><text fill="rgb(0,0,0)" stroke="none" font-family="geogebra-sans-serif, sans-serif" font-size="24px" font-style="normal" font-weight="normal" text-decoration="normal" x="227" y="167" text-anchor="start" dominant-baseline="alphabetic" fill-opacity="1">1</text><text fill="none" stroke="rgb(255,255,255)" font-family="geogebra-sans-serif, sans-serif" font-size="24px" font-style="normal" font-weight="normal" text-decoration="normal" x="227" y="167" text-anchor="start" dominant-baseline="alphabetic" stroke-opacity="1" stroke-linejoin="bevel" stroke-miterlimit="10" stroke-width="3">1</text><text fill="rgb(0,0,0)" stroke="none" font-family="geogebra-sans-serif, sans-serif" font-size="24px" font-style="normal" font-weight="normal" text-decoration="normal" x="227" y="167" text-anchor="start" dominant-baseline="alphabetic" fill-opacity="1">1</text><text fill="rgb(0,0,0)" stroke="none" font-family="geogebra-sans-serif, sans-serif" font-size="24px" font-style="normal" font-weight="normal" text-decoration="normal" x="227" y="353" text-anchor="start" dominant-baseline="alphabetic" fill-opacity="1">0</text><text fill="none" stroke="rgb(255,255,255)" font-family="geogebra-sans-serif, sans-serif" font-size="24px" font-style="normal" font-weight="normal" text-decoration="normal" x="227" y="353" text-anchor="start" dominant-baseline="alphabetic" stroke-opacity="1" stroke-linejoin="bevel" stroke-miterlimit="10" stroke-width="3">0</text><text fill="rgb(0,0,0)" stroke="none" font-family="geogebra-sans-serif, sans-serif" font-size="24px" font-style="normal" font-weight="normal" text-decoration="normal" x="227" y="353" text-anchor="start" dominant-baseline="alphabetic" fill-opacity="1">0</text><path fill="none" stroke="rgb(46,125,50)" paint-order="fill stroke markers" d=" M 250.62002725147414 325.2680195630857 L 258.8766498670244 325.1666904726541 L 267.1096557042415 324.86322190548213 L 275.29550676396053 324.3591678355472 L 283.4108223225461 323.65711109980776 L 291.4324568636858 322.7606527477184 L 299.3375771659423 321.6743971884784 L 307.10373826951314 320.40393319367746 L 314.70895804979085 318.9558108290993 L 322.13179013046823 317.3375144052631 L 329.3513948750722 315.557431551758 L 336.3476082029131 313.62481853550344 L 343.1010079834795 311.5497619576888 L 349.5929777722571 309.34313697824996 L 355.80576766077616 307.0165622302842 L 361.7225520243542 304.5823515997237 L 367.3274839624616 302.0534630578442 L 372.60574623885293 299.4434447457243 L 377.54359854153324 296.7663785205549 L 386.34875308111623 291.2697436193795 L 393.6561122313028 285.68460387419555 L 399.39842257044575 280.1365867506534 L 403.5287930023258 274.7537865542066 L 404.98054206770644 272.16451367285913 L 406.02118610395144 269.664595826762 L 406.65076098768077 267.2697695854238 L 406.87061419301153 264.99551717488805 L 406.8276724981238 263.9083582871351 L 406.6833946825066 262.8569994396291 L 406.0930382256985 260.8689898345808 L 405.64826079989155 259.93592040159854 L 405.1047482068311 259.0458097078609 L 403.7249719999903 257.4012651301232 L 402.89062473965055 256.65013952853565 L 401.9613730060156 255.94858552085847 L 399.8227984614521 254.70036431539444 L 397.31924314523746 253.66850190884008 L 394.46180912378236 252.86415110480868 L 387.73498166190774 251.97854952532367 L 379.7515145512265 252.1159355756136 L 370.6351411558699 253.33372859558204 L 365.6942963392818 254.36133479260138 L 360.5222488592075 255.6732052675889 L 355.1376883299818 257.271822433809 L 349.55983163394336 259.15855583480544 L 343.8083520155906 261.33364697950225 L 337.90330682558033 263.79619848210115 L 331.8650641840973 266.5441675611362 L 325.71422883669766 269.57436393554224 L 319.4715674782769 272.882452138926 L 313.15793382232994 276.46295825646706 L 306.7941936931465 280.30928107207575 L 300.401150418026 284.4137075966672 L 293.99947079499645 288.76743293173456 L 287.6096119088972 293.3605844058796 L 281.25174906503605 298.18224990566046 L 274.9457051049822 303.22051030608685 L 268.7108813634186 308.4624758904124 L 262.56619051837254 313.8943266335871 L 256.5299915796036 319.50135620890757 L 250.62002725147417 325.2680195630857 L 244.85336389729605 331.17798389121515 L 239.2463343219756 337.2141828299841 L 233.8144835788009 343.35887367503017 L 228.57251799447536 349.59369741659384 L 223.53425759404897 355.8997413766476 L 218.71259209426813 362.2576042205088 L 214.11944062012307 368.64746310660814 L 209.76571528505576 375.04914272963765 L 205.66128876046426 381.4421860047582 L 201.8149659448556 387.8059261339416 L 198.23445982731454 394.1195597898886 L 194.92637162393078 400.36222114830935 L 191.8961752495248 406.51305649570907 L 189.14820617048974 412.551299137192 L 186.68565466789082 418.4563443272023 L 184.51056352319398 424.2078239455551 L 182.6238301221976 429.7856806415936 L 181.0252129559775 435.17024117081917 L 179.71334248098995 440.3422886508936 L 178.6857362839706 445.2831334674817 L 177.4679432640022 454.3995068628383 L 177.33055721371227 462.3829739735196 L 178.21615879319728 469.10980143539416 L 179.02050959722868 471.9672354568493 L 180.05237200378303 474.470790773064 L 181.30059320924704 476.6093653176275 L 182.75327281851173 478.37296431160223 L 183.55237460391982 479.11133736970874 L 184.39781739624948 479.75274051844303 L 186.22099752296936 480.7410305373104 L 187.19528238025575 481.08630512678326 L 188.20900712801765 481.33138699411853 L 190.34752486327656 481.51860650462345 L 191.46862347533255 481.4597599053782 L 192.62177727381237 481.2987532992926 L 195.01660351515056 480.66917841556335 L 197.51652136124764 479.62853437931835 L 200.10579424259515 478.1767853139377 L 205.48859443904195 474.04641488205766 L 211.03661156258403 468.3041045429147 L 216.62175130776797 460.99674539272814 L 222.11838620894338 452.19159085314504 L 224.7954524341128 447.25373855046473 L 227.40547074623265 441.97547627407346 L 229.93435928811218 436.37054433596603 L 232.36856991867262 430.453759972388 L 234.6951446666384 424.2409700838689 L 236.90176964607724 417.74900029509126 L 238.97682622389192 410.9956005145249 L 240.9094392401464 403.999387186684 L 242.68952209365153 396.77978244208003 L 244.30781851748773 389.35695036140265 L 245.7559408820659 381.75173058112483 L 247.02640487686685 373.985569477554 L 248.11266043610684 366.08044917529753 L 249.0091187881962 358.05881463415784 L 249.71117552393562 349.9434990755723 L 250.21522959387056 341.75764801585314 L 250.51869816104252 333.524642178636 L 250.62002725147414 325.2680195630858 L 250.51869816104252 317.0113969475355 L 250.2152295938706 308.7783911103184 L 249.71117552393562 300.59254005059927 L 249.0091187881962 292.47722449201365 L 248.11266043610684 284.455589950874 L 247.02640487686685 276.55046964861754 L 245.75594088206591 268.78430854504666 L 244.30781851748773 261.17908876476884 L 242.68952209365156 253.75625668409145 L 240.90943924014644 246.5366519394875 L 238.97682622389192 239.54043861164664 L 236.90176964607727 232.7870388310802 L 234.6951446666384 226.2950690423026 L 232.36856991867265 220.0822791537835 L 229.9343592881122 214.16549479020546 L 227.40547074623268 208.56056285209803 L 224.7954524341128 203.2823005757067 L 222.1183862089434 198.34444827302642 L 216.62175130776797 189.53929373344332 L 211.03661156258406 182.23193458325676 L 205.488594439042 176.48962424411377 L 200.10579424259518 172.35925381223373 L 197.51652136124767 170.9075047468531 L 195.0166035151506 169.86686071060814 L 192.6217772738124 169.2372858268788 L 190.3475248632766 169.017432621548 L 189.26036597552368 169.06037431643574 L 188.20900712801767 169.2046521320529 L 186.22099752296938 169.79500858886104 L 185.28792808998713 170.2397860146679 L 184.39781739624948 170.78329860772837 L 182.75327281851176 172.16307481456923 L 182.00214721692424 172.9974220749089 L 181.30059320924707 173.92667380854388 L 180.05237200378303 176.06524835310734 L 179.02050959722868 178.56880366932202 L 178.21615879319728 181.42623769077724 L 177.33055721371227 188.1530651526518 L 177.4679432640022 196.13653226333312 L 178.6857362839706 205.25290565868966 L 179.71334248098992 210.1937504752778 L 181.02521295597748 215.36579795535206 L 182.62383012219755 220.7503584845777 L 184.51056352319395 226.32821518061618 L 186.68565466789084 232.07969479896917 L 189.14820617048974 237.98473998897938 L 191.8961752495248 244.02298263046237 L 194.92637162393078 250.17381797786203 L 198.2344598273145 256.4164793362828 L 201.81496594485557 262.73011299222975 L 205.6612887604642 269.09385312141313 L 209.7657152850557 275.48689639653367 L 214.119440620123 281.8885760195632 L 218.71259209426802 288.27843490566244 L 223.53425759404902 294.63629774952386 L 228.5725179944754 300.94234170957765 L 233.8144835788009 307.17716545114126 L 239.2463343219756 313.3218562961873 L 244.853363897296 319.3580552349562 L 250.62002725147408 325.26801956308566 L 256.5299915796035 331.0346829172638 L 262.5661905183724 336.6417124925842 L 268.7108813634185 342.0735632357589 L 274.94570510498204 347.3155288200844 L 281.2517490650358 352.3537892205108 L 287.60961190889725 357.17545472029184 L 293.99947079499645 361.76860619443687 L 300.40115041802596 366.1223315295042 L 306.7941936931465 370.2267580540957 L 313.1579338223299 374.07308086970437 L 319.4715674782768 377.6535869872454 L 325.7142288366976 380.96167519062914 L 331.8650641840972 383.9918715650351 L 337.9033068255802 386.7398406440702 L 343.8083520155904 389.2023921466691 L 349.5598316339434 391.37748329136605 L 355.13768832998187 393.2642166923624 L 360.5222488592075 394.8628338585825 L 365.6942963392818 396.17470433357005 L 370.63514115586986 397.2023105305894 L 379.75151455122636 398.4201035505578 L 387.7349816619077 398.55748960084776 L 394.46180912378225 397.67188802136275 L 397.31924314523746 396.86753721733135 L 399.8227984614522 395.835674810777 L 401.9613730060156 394.58745360531293 L 403.7249719999903 393.13477399604824 L 404.4633450580968 392.33567221064027 L 405.1047482068311 391.49022941831055 L 406.0930382256985 389.6670492915906 L 406.43831281517134 388.6927644343042 L 406.6833946825066 387.67903968654235 L 406.87061419301153 385.54052195128344 L 406.81176759376626 384.4194233392274 L 406.65076098768077 383.26626954074766 L 406.02118610395144 380.87144329940946 L 404.98054206770644 378.3715254533124 L 403.5287930023258 375.78225257196476 L 399.39842257044575 370.399452375518 L 393.6561122313028 364.85143525197594 L 386.3487530811163 359.266295506792 L 377.5435985415333 353.7696606056166 L 372.60574623885304 351.09259438044717 L 367.32748396246177 348.4825760683273 L 361.7225520243542 345.9536875264477 L 355.80576766077616 343.51947689588724 L 349.5929777722571 341.19290214792153 L 343.1010079834796 338.9862771684827 L 336.34760820291314 336.911220590668 L 329.3513948750723 334.9786075744135 L 322.13179013046835 333.1985247209083 L 314.70895804979097 331.58022829707215 L 307.1037382695133 330.132105932494 L 299.3375771659425 328.86164193769304 L 291.43245686368573 327.77538637845305 L 283.4108223225461 326.87892802636367 L 275.29550676396053 326.1768712906242 L 267.10965570424156 325.6728172206893 L 258.87664986702447 325.3693486535173 L 250.62002725147423 325.2680195630857 L 242.36340463592398 325.3693486535173 L 234.1303987987069 325.6728172206893 L 225.94454773898792 326.1768712906242 L 217.82923218040236 326.87892802636367 L 209.8075976392627 327.775386378453 L 201.90247733700593 328.86164193769304 L 194.13631623343514 330.13210593249397 L 186.53109645315743 331.5802282970721 L 179.1082643724801 333.1985247209083 L 171.88865962787617 334.97860757441345 L 164.8924463000353 336.91122059066794 L 158.13904651946888 338.9862771684826 L 151.6470767306913 341.1929021479215 L 145.43428684217227 343.5194768958872 L 139.51750247859425 345.95368752644765 L 133.91257054048663 348.48257606832726 L 128.63430826409535 351.0925943804471 L 123.69645596141505 353.76966060561654 L 114.89130142183208 359.26629550679195 L 107.58394227164553 364.8514352519759 L 101.84163193250257 370.39945237551797 L 97.71126150062253 375.7822525719647 L 96.25951243524187 378.37152545331236 L 95.21886839899688 380.8714432994094 L 94.58929351526754 383.26626954074766 L 94.36944030993678 385.5405219512834 L 94.41238200482451 386.62768083903626 L 94.55665982044167 387.6790396865423 L 95.1470162772498 389.6670492915906 L 95.59179370305671 390.6001187245729 L 96.13530629611714 391.4902294183105 L 97.515082502958 393.13477399604824 L 98.3494297632977 393.8858995976358 L 99.27868149693265 394.58745360531293 L 101.4172560414961 395.83567481077694 L 103.92081135771076 396.8675372173313 L 106.77824537916598 397.67188802136275 L 113.50507284104052 398.55748960084776 L 121.4885399517218 398.4201035505578 L 130.60491334707834 397.20231053058944 L 135.54575816366645 396.1747043335701 L 140.71780564374075 394.8628338585825 L 146.1023661729663 393.2642166923625 L 151.68022286900475 391.37748329136605 L 157.43170248735774 389.2023921466692 L 163.33674767736798 386.7398406440703 L 169.37499031885096 383.99187156503524 L 175.52582566625057 380.9616751906292 L 181.76848702467134 377.6535869872455 L 188.0821206806183 374.0730808697044 L 194.44586080980164 370.2267580540958 L 200.83890408492218 366.12233152950427 L 207.24058370795169 361.768606194437 L 213.6304425940509 357.17545472029195 L 219.9883054379123 352.3537892205109 L 226.2943493979661 347.3155288200845 L 232.5291731395297 342.073563235759 L 238.67386398457575 336.6417124925843 L 244.71006292334462 331.0346829172639 L 250.62002725147406 325.2680195630858 L 256.3866906056522 319.35805523495634 L 261.99372018097256 313.32185629618743 L 267.4255709241473 307.1771654511414 L 272.6675365084728 300.9423417095778 L 277.7057969088992 294.636297749524 L 282.52746240868004 288.2784349056628 L 287.1206138828252 281.8885760195633 L 291.47433921789235 275.486896396534 L 295.578765742484 269.09385312141325 L 299.4250885580925 262.7301129922301 L 303.0055946756337 256.4164793362829 L 306.31368287901756 250.17381797786192 L 309.34387925342344 244.02298263046248 L 312.0918483324586 237.9847399889793 L 314.5543998350574 232.07969479896929 L 316.7294909797543 226.32821518061627 L 318.6162243807506 220.750358484578 L 320.2148415469708 215.36579795535218 L 321.5267120219583 210.19375047527808 L 322.55431821897764 205.25290565868977 L 323.7721112389461 196.13653226333318 L 323.909497289236 188.1530651526519 L 323.02389570975106 181.4262376907773 L 322.2195449057196 178.56880366932208 L 321.1876824991653 176.0652483531075 L 319.93946129370124 173.92667380854394 L 318.4867816844366 172.16307481456928 L 317.68767989902847 171.42470175646267 L 316.8422371066988 170.78329860772837 L 315.019056979979 169.79500858886107 L 314.0447721226925 169.44973399938814 L 313.03104737493067 169.2046521320529 L 310.8925296396717 169.017432621548 L 309.77143102761573 169.07627922079325 L 308.61827722913597 169.23728582687878 L 306.22345098779766 169.86686071060814 L 303.7235331417007 170.90750474685308 L 301.13426026035313 172.35925381223373 L 295.75146006390634 176.48962424411374 L 290.2034429403643 182.2319345832567 L 284.6183031951804 189.53929373344323 L 279.12166829400496 198.34444827302622 L 276.4446020688355 203.2823005757067 L 273.8345837567157 208.56056285209783 L 271.3056952148361 214.16549479020543 L 268.8714845842757 220.08227915378325 L 266.5449098363099 226.29506904230252 L 264.33828485687116 232.78703883107983 L 262.2632282790564 239.5404386116465 L 260.3306152628018 246.53665193948763 L 258.55053240929675 253.75625668409134 L 256.9322359854605 261.17908876476895 L 255.48411362088243 268.7843085450464 L 254.21364962608143 276.5504696486175 L 253.12739406684148 284.4555899508737 L 252.2309357147521 292.47722449201365 L 251.52887897901266 300.5925400505989 L 251.02482490907772 308.77839111031824 L 250.72135634190576 317.01139694753505 L 250.62002725147414 325.2680195630856 L 250.72135634190576 333.52464217863616 L 251.0248249090777 341.75764801585296 L 251.52887897901266 349.9434990755723 L 252.23093571475206 358.0588146341575 L 253.12739406684145 366.0804491752975 L 254.2136496260814 373.9855694775537 L 255.4841136208824 381.75173058112483 L 256.93223598546047 389.35695036140226 L 258.5505324092967 396.77978244207986 L 260.33061526280176 403.9993871866836 L 262.2632282790563 410.9956005145247 L 264.33828485687104 417.7490002950914 L 266.54490983630984 424.2409700838688 L 268.87148458427566 430.45375997238796 L 271.305695214836 436.37054433596586 L 273.83458375671563 441.97547627407346 L 276.44460206883537 447.25373855046456 L 279.1216682940049 452.19159085314504 L 284.61830319518026 460.99674539272803 L 290.2034429403642 468.3041045429146 L 295.7514600639063 474.0464148820576 L 301.134260260353 478.17678531393767 L 303.7235331417006 479.62853437931835 L 306.2234509877976 480.66917841556324 L 308.6182772291359 481.2987532992926 L 310.8925296396716 481.51860650462345 L 311.9796885274246 481.4756648097357 L 313.0310473749306 481.33138699411853 L 315.0190569799789 480.7410305373104 L 315.95212641296115 480.29625311150346 L 316.8422371066988 479.7527405184431 L 318.48678168443655 478.3729643116022 L 319.23790728602404 477.5386170512625 L 319.9394612937012 476.6093653176275 L 321.18768249916525 474.47079077306404 L 322.21954490571954 471.96723545684944 L 323.023895709751 469.10980143539416 L 323.909497289236 462.38297397351965 L 323.7721112389461 454.3995068628384 L 322.5543182189777 445.2831334674818 L 321.5267120219583 440.3422886508935 L 320.21484154697083 435.1702411708194 L 318.6162243807507 429.7856806415936 L 316.72949097975436 424.20782394555533 L 314.55439983505744 418.4563443272023 L 312.09184833245865 412.5512991371923 L 309.34387925342355 406.5130564957091 L 306.3136828790176 400.3622211483097 L 303.0055946756338 394.11955978988874 L 299.4250885580926 387.8059261339415 L 295.57876574248417 381.44218600475836 L 291.47433921789246 375.0491427296376 L 287.12061388282535 368.6474631066083 L 282.52746240868015 362.2576042205088 L 277.7057969088995 355.89974137664785 L 272.66753650847295 349.59369741659384 L 267.4255709241476 343.35887367503045 L 261.99372018097273 337.21418282998417 L 256.3866906056526 331.1779838912155 L 250.62002725147426 325.26801956308583 L 244.7100629233446 319.50135620890745 L 238.67386398457592 313.8943266335873 L 232.52917313952963 308.46247589041235 L 226.2943493979663 303.2205103060871 L 219.98830543791226 298.18224990566046 L 213.63044259405132 293.3605844058798 L 207.24058370795186 288.7674329317346 L 200.8389040849226 284.41370759666745 L 194.44586080980184 280.30928107207575 L 188.0821206806187 276.46295825646723 L 181.76848702467151 272.88245213892606 L 175.52582566625057 269.5743639355422 L 169.37499031885113 266.5441675611363 L 163.33674767736795 263.79619848210115 L 157.4317024873579 261.3336469795023 L 151.68022286900492 259.15855583480544 L 146.1023661729667 257.27182243380906 L 140.7178056437409 255.6732052675889 L 135.5457581636668 254.36133479260144 L 130.60491334707848 253.33372859558204 L 121.48853995172192 252.1159355756136 L 113.50507284104063 251.97854952532367 L 106.77824537916607 252.86415110480868 L 103.92081135771085 253.66850190884008 L 101.41725604149624 254.70036431539438 L 99.2786814969327 255.94858552085844 L 97.51508250295805 257.4012651301231 L 96.77670944485143 258.2003669155312 L 96.13530629611714 259.0458097078609 L 95.14701627724986 260.8689898345807 L 94.80174168777691 261.8432746918672 L 94.55665982044167 262.856999439629 L 94.36944030993678 264.99551717488805 L 94.42828690918205 266.11661578694395 L 94.58929351526754 267.2697695854237 L 95.21886839899688 269.664595826762 L 96.25951243524182 272.164513672859 L 97.71126150062247 274.7537865542066 L 101.84163193250248 280.1365867506534 L 107.58394227164544 285.6846038741955 L 114.89130142183194 291.2697436193794 L 123.69645596141493 296.7663785205548 L 128.63430826409538 299.4434447457243 L 133.9125705404865 302.0534630578441 L 139.51750247859408 304.5823515997237 L 145.4342868421719 307.0165622302841 L 151.6470767306911 309.3431369782499 L 158.13904651946842 311.5497619576887 L 164.89244630003506 313.62481853550344 L 171.88865962787622 315.557431551758 L 179.10826437247988 317.33751440526305 L 186.5310964531575 318.95581082909933 L 194.13631623343488 320.4039331936774 L 201.902477337006 321.6743971884784 L 209.80759763926216 322.7606527477184 L 217.82923218040213 323.65711109980776 L 225.94454773898738 324.35916783554717 L 234.13039879870666 324.86322190548213 L 242.36340463592344 325.16669047265407 L 250.62002725147397 325.2680195630857" stroke-opacity="0.8" stroke-linecap="round" stroke-linejoin="round" stroke-miterlimit="10" stroke-width="2.5"/><text fill="rgb(46,125,50)" stroke="none" font-family="geogebra-sans-serif, sans-serif" font-size="32px" font-style="normal" font-weight="normal" text-decoration="normal" x="315" y="405" text-anchor="start" dominant-baseline="alphabetic" fill-opacity="1">r=sin(4θ)</text><text fill="none" stroke="rgb(255,255,255)" font-family="geogebra-sans-serif, sans-serif" font-size="32px" font-style="normal" font-weight="normal" text-decoration="normal" x="315" y="405" text-anchor="start" dominant-baseline="alphabetic" stroke-opacity="1" stroke-linejoin="bevel" stroke-miterlimit="10" stroke-width="3">r=sin(4θ)</text><text fill="rgb(46,125,50)" stroke="none" font-family="geogebra-sans-serif, sans-serif" font-size="32px" font-style="normal" font-weight="normal" text-decoration="normal" x="315" y="405" text-anchor="start" dominant-baseline="alphabetic" fill-opacity="1">r=sin(4θ)</text></g></g></svg>