<?xml version="1.0" encoding="UTF-8" standalone="no"?>
<!-- Created with Inkscape (http://www.inkscape.org/) -->

<svg
   xmlns:dc="http://purl.org/dc/elements/1.1/"
   xmlns:cc="http://creativecommons.org/ns#"
   xmlns:rdf="http://www.w3.org/1999/02/22-rdf-syntax-ns#"
   xmlns:svg="http://www.w3.org/2000/svg"
   xmlns="http://www.w3.org/2000/svg"
   xmlns:sodipodi="http://sodipodi.sourceforge.net/DTD/sodipodi-0.dtd"
   xmlns:inkscape="http://www.inkscape.org/namespaces/inkscape"
   width="48.295544mm"
   height="35.586395mm"
   viewBox="0 0 48.295544 35.586395"
   version="1.1"
   id="svg1199"
   inkscape:version="0.92.2 (5c3e80d, 2017-08-06)"
   sodipodi:docname="fig-ex-a-11-11.svg">
  <defs
     id="defs1193">
    <clipPath
       clipPathUnits="userSpaceOnUse"
       id="clipPath770">
      <path
         d="m 93.29,270.57 h 138 v -104 h -138 z"
         id="path768"
         inkscape:connector-curvature="0"
         style="clip-rule:evenodd" />
    </clipPath>
    <clipPath
       clipPathUnits="userSpaceOnUse"
       id="clipPath776">
      <path
         d="M 28,776 H 668 V 28 H 28 Z"
         id="path774"
         inkscape:connector-curvature="0" />
    </clipPath>
    <clipPath
       clipPathUnits="userSpaceOnUse"
       id="clipPath782">
      <path
         d="M 0,804.03 H 696 V 0.03 H 0 Z"
         id="path780"
         inkscape:connector-curvature="0" />
    </clipPath>
    <linearGradient
       x1="0.0060000001"
       y1="0"
       x2="0.37900001"
       y2="0"
       gradientUnits="userSpaceOnUse"
       gradientTransform="matrix(15.5,0,0,-8.5835,102.79,245.07)"
       spreadMethod="pad"
       id="linearGradient760">
      <stop
         style="stop-opacity:1;stop-color:#e2f5ef"
         offset="0"
         id="stop756" />
      <stop
         style="stop-opacity:1;stop-color:#ffffff"
         offset="1"
         id="stop758" />
    </linearGradient>
    <clipPath
       clipPathUnits="userSpaceOnUse"
       id="clipPath730">
      <path
         d="m 93.29,270.57 h 138 v -104 h -138 z"
         id="path728"
         inkscape:connector-curvature="0"
         style="clip-rule:evenodd" />
    </clipPath>
    <clipPath
       clipPathUnits="userSpaceOnUse"
       id="clipPath736">
      <path
         d="M 28,776 H 668 V 28 H 28 Z"
         id="path734"
         inkscape:connector-curvature="0" />
    </clipPath>
    <clipPath
       clipPathUnits="userSpaceOnUse"
       id="clipPath742">
      <path
         d="M 0,804.03 H 696 V 0.03 H 0 Z"
         id="path740"
         inkscape:connector-curvature="0" />
    </clipPath>
    <linearGradient
       x1="0.42899999"
       y1="0"
       x2="1"
       y2="0"
       gradientUnits="userSpaceOnUse"
       gradientTransform="matrix(6.415,0,0,-4.5859,98.145,260.0309)"
       spreadMethod="pad"
       id="linearGradient720">
      <stop
         style="stop-opacity:1;stop-color:#d9f2eb"
         offset="0"
         id="stop716" />
      <stop
         style="stop-opacity:1;stop-color:#40bead"
         offset="1"
         id="stop718" />
    </linearGradient>
    <clipPath
       clipPathUnits="userSpaceOnUse"
       id="clipPath690">
      <path
         d="m 93.29,270.57 h 138 v -104 h -138 z"
         id="path688"
         inkscape:connector-curvature="0"
         style="clip-rule:evenodd" />
    </clipPath>
    <clipPath
       clipPathUnits="userSpaceOnUse"
       id="clipPath696">
      <path
         d="M 28,776 H 668 V 28 H 28 Z"
         id="path694"
         inkscape:connector-curvature="0" />
    </clipPath>
    <clipPath
       clipPathUnits="userSpaceOnUse"
       id="clipPath702">
      <path
         d="M 0,804.03 H 696 V 0.03 H 0 Z"
         id="path700"
         inkscape:connector-curvature="0" />
    </clipPath>
    <linearGradient
       x1="0.42899999"
       y1="0"
       x2="1"
       y2="0"
       gradientUnits="userSpaceOnUse"
       gradientTransform="matrix(5.5481,0,0,-4.875,98.5786,251.695)"
       spreadMethod="pad"
       id="linearGradient680">
      <stop
         style="stop-opacity:1;stop-color:#d9f2eb"
         offset="0"
         id="stop676" />
      <stop
         style="stop-opacity:1;stop-color:#40bead"
         offset="1"
         id="stop678" />
    </linearGradient>
    <clipPath
       clipPathUnits="userSpaceOnUse"
       id="clipPath650">
      <path
         d="m 93.29,270.57 h 138 v -104 h -138 z"
         id="path648"
         inkscape:connector-curvature="0"
         style="clip-rule:evenodd" />
    </clipPath>
    <clipPath
       clipPathUnits="userSpaceOnUse"
       id="clipPath656">
      <path
         d="M 28,776 H 668 V 28 H 28 Z"
         id="path654"
         inkscape:connector-curvature="0" />
    </clipPath>
    <clipPath
       clipPathUnits="userSpaceOnUse"
       id="clipPath662">
      <path
         d="M 0,804.03 H 696 V 0.03 H 0 Z"
         id="path660"
         inkscape:connector-curvature="0" />
    </clipPath>
    <radialGradient
       fx="0"
       fy="0"
       cx="0"
       cy="0"
       r="1"
       gradientUnits="userSpaceOnUse"
       gradientTransform="matrix(-3,2.625,2.625,3,99.415,263.945)"
       spreadMethod="pad"
       id="radialGradient640">
      <stop
         style="stop-opacity:1;stop-color:#ffffff"
         offset="0"
         id="stop636" />
      <stop
         style="stop-opacity:1;stop-color:#fde2ab"
         offset="1"
         id="stop638" />
    </radialGradient>
    <clipPath
       clipPathUnits="userSpaceOnUse"
       id="clipPath610">
      <path
         d="m 93.29,270.57 h 138 v -104 h -138 z"
         id="path608"
         inkscape:connector-curvature="0"
         style="clip-rule:evenodd" />
    </clipPath>
    <clipPath
       clipPathUnits="userSpaceOnUse"
       id="clipPath616">
      <path
         d="M 28,776 H 668 V 28 H 28 Z"
         id="path614"
         inkscape:connector-curvature="0" />
    </clipPath>
    <clipPath
       clipPathUnits="userSpaceOnUse"
       id="clipPath622">
      <path
         d="M 0,804.03 H 696 V 0.03 H 0 Z"
         id="path620"
         inkscape:connector-curvature="0" />
    </clipPath>
    <linearGradient
       x1="0.42899999"
       y1="0"
       x2="1"
       y2="0"
       gradientUnits="userSpaceOnUse"
       gradientTransform="matrix(7.25,0,0,-5.5732,97.79,204.8722)"
       spreadMethod="pad"
       id="linearGradient600">
      <stop
         style="stop-opacity:1;stop-color:#d9f2eb"
         offset="0"
         id="stop596" />
      <stop
         style="stop-opacity:1;stop-color:#40bead"
         offset="1"
         id="stop598" />
    </linearGradient>
    <clipPath
       clipPathUnits="userSpaceOnUse"
       id="clipPath570">
      <path
         d="m 93.29,270.57 h 138 v -104 h -138 z"
         id="path568"
         inkscape:connector-curvature="0"
         style="clip-rule:evenodd" />
    </clipPath>
    <clipPath
       clipPathUnits="userSpaceOnUse"
       id="clipPath576">
      <path
         d="M 28,776 H 668 V 28 H 28 Z"
         id="path574"
         inkscape:connector-curvature="0" />
    </clipPath>
    <clipPath
       clipPathUnits="userSpaceOnUse"
       id="clipPath582">
      <path
         d="M 0,804.03 H 696 V 0.03 H 0 Z"
         id="path580"
         inkscape:connector-curvature="0" />
    </clipPath>
    <linearGradient
       x1="0.147"
       y1="0"
       x2="1"
       y2="0"
       gradientUnits="userSpaceOnUse"
       gradientTransform="matrix(3.6875,0,0,-49.9268,99.54,250.799)"
       spreadMethod="pad"
       id="linearGradient560">
      <stop
         style="stop-opacity:1;stop-color:#e9e9e9"
         offset="0"
         id="stop556" />
      <stop
         style="stop-opacity:1;stop-color:#918f90"
         offset="1"
         id="stop558" />
    </linearGradient>
    <clipPath
       clipPathUnits="userSpaceOnUse"
       id="clipPath530">
      <path
         d="m 93.29,270.57 h 138 v -104 h -138 z"
         id="path528"
         inkscape:connector-curvature="0"
         style="clip-rule:evenodd" />
    </clipPath>
    <clipPath
       clipPathUnits="userSpaceOnUse"
       id="clipPath536">
      <path
         d="M 28,776 H 668 V 28 H 28 Z"
         id="path534"
         inkscape:connector-curvature="0" />
    </clipPath>
    <clipPath
       clipPathUnits="userSpaceOnUse"
       id="clipPath542">
      <path
         d="M 0,804.03 H 696 V 0.03 H 0 Z"
         id="path540"
         inkscape:connector-curvature="0" />
    </clipPath>
    <linearGradient
       x1="0.42899999"
       y1="0"
       x2="1"
       y2="0"
       gradientUnits="userSpaceOnUse"
       gradientTransform="matrix(7.1875,0,0,-26.4165,97.79,203.299)"
       spreadMethod="pad"
       id="linearGradient520">
      <stop
         style="stop-opacity:1;stop-color:#d9f2eb"
         offset="0"
         id="stop516" />
      <stop
         style="stop-opacity:1;stop-color:#40bead"
         offset="1"
         id="stop518" />
    </linearGradient>
    <clipPath
       clipPathUnits="userSpaceOnUse"
       id="clipPath490">
      <path
         d="m 93.29,270.57 h 138 v -104 h -138 z"
         id="path488"
         inkscape:connector-curvature="0"
         style="clip-rule:evenodd" />
    </clipPath>
    <clipPath
       clipPathUnits="userSpaceOnUse"
       id="clipPath496">
      <path
         d="M 28,776 H 668 V 28 H 28 Z"
         id="path494"
         inkscape:connector-curvature="0" />
    </clipPath>
    <clipPath
       clipPathUnits="userSpaceOnUse"
       id="clipPath502">
      <path
         d="M 0,804.03 H 696 V 0.03 H 0 Z"
         id="path500"
         inkscape:connector-curvature="0" />
    </clipPath>
    <linearGradient
       x1="0.42899999"
       y1="0"
       x2="1"
       y2="0"
       gradientUnits="userSpaceOnUse"
       gradientTransform="matrix(5.8256,0,0,-5.5625,98.4399,261.0074)"
       spreadMethod="pad"
       id="linearGradient480">
      <stop
         style="stop-opacity:1;stop-color:#d9f2eb"
         offset="0"
         id="stop476" />
      <stop
         style="stop-opacity:1;stop-color:#40bead"
         offset="1"
         id="stop478" />
    </linearGradient>
    <clipPath
       clipPathUnits="userSpaceOnUse"
       id="clipPath450">
      <path
         d="m 93.29,270.57 h 138 v -104 h -138 z"
         id="path448"
         inkscape:connector-curvature="0"
         style="clip-rule:evenodd" />
    </clipPath>
    <clipPath
       clipPathUnits="userSpaceOnUse"
       id="clipPath456">
      <path
         d="M 28,776 H 668 V 28 H 28 Z"
         id="path454"
         inkscape:connector-curvature="0" />
    </clipPath>
    <clipPath
       clipPathUnits="userSpaceOnUse"
       id="clipPath462">
      <path
         d="M 0,804.03 H 696 V 0.03 H 0 Z"
         id="path460"
         inkscape:connector-curvature="0" />
    </clipPath>
    <linearGradient
       x1="0.42899999"
       y1="0"
       x2="1"
       y2="0"
       gradientUnits="userSpaceOnUse"
       gradientTransform="matrix(5.7562,0,0,-11.75,98.4433,259.445)"
       spreadMethod="pad"
       id="linearGradient440">
      <stop
         style="stop-opacity:1;stop-color:#d9f2eb"
         offset="0"
         id="stop436" />
      <stop
         style="stop-opacity:1;stop-color:#40bead"
         offset="1"
         id="stop438" />
    </linearGradient>
    <clipPath
       clipPathUnits="userSpaceOnUse"
       id="clipPath402">
      <path
         d="m 93.29,270.57 h 138 v -104 h -138 z"
         id="path400"
         inkscape:connector-curvature="0"
         style="clip-rule:evenodd" />
    </clipPath>
    <clipPath
       clipPathUnits="userSpaceOnUse"
       id="clipPath408">
      <path
         d="M 28,776 H 668 V 28 H 28 Z"
         id="path406"
         inkscape:connector-curvature="0" />
    </clipPath>
    <clipPath
       clipPathUnits="userSpaceOnUse"
       id="clipPath414">
      <path
         d="M 0,804.03 H 696 V 0.03 H 0 Z"
         id="path412"
         inkscape:connector-curvature="0" />
    </clipPath>
  </defs>
  <sodipodi:namedview
     id="base"
     pagecolor="#ffffff"
     bordercolor="#666666"
     borderopacity="1.0"
     inkscape:pageopacity="0.0"
     inkscape:pageshadow="2"
     inkscape:zoom="0.35"
     inkscape:cx="91.267165"
     inkscape:cy="67.249901"
     inkscape:document-units="mm"
     inkscape:current-layer="layer1"
     showgrid="false"
     fit-margin-top="0"
     fit-margin-left="0"
     fit-margin-right="0"
     fit-margin-bottom="0"
     inkscape:window-width="1366"
     inkscape:window-height="745"
     inkscape:window-x="-8"
     inkscape:window-y="-8"
     inkscape:window-maximized="1" />
  <metadata
     id="metadata1196">
    <rdf:RDF>
      <cc:Work
         rdf:about="">
        <dc:format>image/svg+xml</dc:format>
        <dc:type
           rdf:resource="http://purl.org/dc/dcmitype/StillImage" />
        <dc:title></dc:title>
      </cc:Work>
    </rdf:RDF>
  </metadata>
  <g
     inkscape:label="Layer 1"
     inkscape:groupmode="layer"
     id="layer1"
     transform="translate(-81.685563,-131.04014)">
    <g
       transform="matrix(0.35277777,0,0,-0.35277777,48.572343,226.31546)"
       id="g396">
      <g
         id="g398"
         clip-path="url(#clipPath402)">
        <g
           id="g404"
           clip-path="url(#clipPath408)">
          <g
             id="g410"
             clip-path="url(#clipPath414)">
            <path
               d="m 105.165,179.07 h 125.25 l -127.5,80"
               style="fill:none;stroke:#000000;stroke-width:0.69999999;stroke-linecap:square;stroke-linejoin:round;stroke-miterlimit:4;stroke-dasharray:none;stroke-opacity:1"
               id="path416"
               inkscape:connector-curvature="0" />
            <path
               d="m 105.165,179.07 v -4 m 71.875,4 v -4 m 53.375,4 v -4"
               style="fill:none;stroke:#000000;stroke-width:0.69999999;stroke-linecap:butt;stroke-linejoin:miter;stroke-miterlimit:4;stroke-dasharray:none;stroke-opacity:1"
               id="path418"
               inkscape:connector-curvature="0" />
            <text
               transform="matrix(1,0,0,-1,196.603,169.32)"
               style="font-variant:normal;font-weight:normal;font-size:9px;font-family:'Times New Roman';-inkscape-font-specification:Times-Roman;writing-mode:lr-tb;fill:#231f20;fill-opacity:1;fill-rule:nonzero;stroke:none"
               id="text424">
              <tspan
                 x="0 4.5 6.75 9.7469997 -63.250198 -58.750198 -54.250198 -52.000198 -49.003201"
                 y="0"
                 sodipodi:role="line"
                 id="tspan420">9 ft12 ft</tspan>
              <tspan
                 x="-40.790699 -36.290699 -34.040699 -31.043699"
                 y="-23.750099"
                 sodipodi:role="line"
                 id="tspan422">6 ft</tspan>
            </text>
          </g>
        </g>
      </g>
    </g>
    <g
       transform="matrix(0.35277777,0,0,-0.35277777,48.572343,226.31546)"
       id="g426">
      <g
         id="g428">
        <g
           id="g434">
          <path
             d="m 102.915,249.695 1,7.75 h -5.188 l 1,-7.75 h 3.188"
             style="fill:url(#linearGradient440);stroke:none"
             id="path442"
             inkscape:connector-curvature="0" />
        </g>
      </g>
    </g>
    <g
       transform="matrix(0.35277777,0,0,-0.35277777,48.572343,226.31546)"
       id="g444">
      <g
         id="g446"
         clip-path="url(#clipPath450)">
        <g
           id="g452"
           clip-path="url(#clipPath456)">
          <g
             id="g458"
             clip-path="url(#clipPath462)">
            <path
               d="m 102.915,249.695 1,7.75 h -5.188 l 1,-7.75 z"
               style="fill:none;stroke:#231f20;stroke-width:0.5;stroke-linecap:butt;stroke-linejoin:miter;stroke-miterlimit:4;stroke-dasharray:none;stroke-opacity:1"
               id="path464"
               inkscape:connector-curvature="0" />
          </g>
        </g>
      </g>
    </g>
    <g
       transform="matrix(0.35277777,0,0,-0.35277777,48.572343,226.31546)"
       id="g466">
      <g
         id="g468">
        <g
           id="g474">
          <path
             d="m 102.915,259.008 1.062,-1.563 h -5.25 l 1,1.563 h 3.188"
             style="fill:url(#linearGradient480);stroke:none"
             id="path482"
             inkscape:connector-curvature="0" />
        </g>
      </g>
    </g>
    <g
       transform="matrix(0.35277777,0,0,-0.35277777,48.572343,226.31546)"
       id="g484">
      <g
         id="g486"
         clip-path="url(#clipPath490)">
        <g
           id="g492"
           clip-path="url(#clipPath496)">
          <g
             id="g498"
             clip-path="url(#clipPath502)">
            <path
               d="m 102.915,259.008 1.062,-1.563 h -5.25 l 1,1.563 z"
               style="fill:none;stroke:#231f20;stroke-width:0.5;stroke-linecap:butt;stroke-linejoin:miter;stroke-miterlimit:4;stroke-dasharray:none;stroke-opacity:1"
               id="path504"
               inkscape:connector-curvature="0" />
          </g>
        </g>
      </g>
    </g>
    <g
       transform="matrix(0.35277777,0,0,-0.35277777,48.572343,226.31546)"
       id="g506">
      <g
         id="g508">
        <g
           id="g514">
          <path
             d="m 97.79,178.882 h 7.187 v 22.417 H 97.79 Z"
             style="fill:url(#linearGradient520);stroke:none"
             id="path522"
             inkscape:connector-curvature="0" />
        </g>
      </g>
    </g>
    <g
       transform="matrix(0.35277777,0,0,-0.35277777,48.572343,226.31546)"
       id="g524">
      <g
         id="g526"
         clip-path="url(#clipPath530)">
        <g
           id="g532"
           clip-path="url(#clipPath536)">
          <g
             id="g538"
             clip-path="url(#clipPath542)">
            <path
               d="m 97.79,178.882 h 7.187 v 22.417 H 97.79 Z"
               style="fill:none;stroke:#231f20;stroke-width:0.5;stroke-linecap:butt;stroke-linejoin:round;stroke-miterlimit:4;stroke-dasharray:none;stroke-opacity:1"
               id="path544"
               inkscape:connector-curvature="0" />
          </g>
        </g>
      </g>
    </g>
    <g
       transform="matrix(0.35277777,0,0,-0.35277777,48.572343,226.31546)"
       id="g546">
      <g
         id="g548">
        <g
           id="g554">
          <path
             d="m 99.79,202.872 h 3.188 v 45.927 H 99.79 Z"
             style="fill:url(#linearGradient560);stroke:none"
             id="path562"
             inkscape:connector-curvature="0" />
        </g>
      </g>
    </g>
    <g
       transform="matrix(0.35277777,0,0,-0.35277777,48.572343,226.31546)"
       id="g564">
      <g
         id="g566"
         clip-path="url(#clipPath570)">
        <g
           id="g572"
           clip-path="url(#clipPath576)">
          <g
             id="g578"
             clip-path="url(#clipPath582)">
            <path
               d="m 99.79,202.872 h 3.188 v 45.927 H 99.79 Z"
               style="fill:none;stroke:#000000;stroke-width:0.5;stroke-linecap:square;stroke-linejoin:round;stroke-miterlimit:4;stroke-dasharray:none;stroke-opacity:1"
               id="path584"
               inkscape:connector-curvature="0" />
          </g>
        </g>
      </g>
    </g>
    <g
       transform="matrix(0.35277777,0,0,-0.35277777,48.572343,226.31546)"
       id="g586">
      <g
         id="g588">
        <g
           id="g594">
          <path
             d="m 102.978,202.872 2.062,-1.573 h -7.25 l 2,1.573 h 3.188"
             style="fill:url(#linearGradient600);stroke:none"
             id="path602"
             inkscape:connector-curvature="0" />
        </g>
      </g>
    </g>
    <g
       transform="matrix(0.35277777,0,0,-0.35277777,48.572343,226.31546)"
       id="g604">
      <g
         id="g606"
         clip-path="url(#clipPath610)">
        <g
           id="g612"
           clip-path="url(#clipPath616)">
          <g
             id="g618"
             clip-path="url(#clipPath622)">
            <path
               d="m 102.978,202.872 2.062,-1.573 h -7.25 l 2,1.573 z"
               style="fill:none;stroke:#231f20;stroke-width:0.5;stroke-linecap:butt;stroke-linejoin:round;stroke-miterlimit:4;stroke-dasharray:none;stroke-opacity:1"
               id="path624"
               inkscape:connector-curvature="0" />
          </g>
        </g>
      </g>
    </g>
    <g
       transform="matrix(0.35277777,0,0,-0.35277777,48.572343,226.31546)"
       id="g626">
      <g
         id="g628">
        <g
           id="g634">
          <path
             d="m 101.29,266.823 c -2.246,0 -4.066,-1.82 -4.066,-4.065 0,-2.246 1.82,-4.066 4.066,-4.066 2.246,0 4.066,1.82 4.066,4.066 0,2.245 -1.82,4.065 -4.066,4.065"
             style="fill:url(#radialGradient640);stroke:none"
             id="path642"
             inkscape:connector-curvature="0" />
        </g>
      </g>
    </g>
    <g
       transform="matrix(0.35277777,0,0,-0.35277777,48.572343,226.31546)"
       id="g644">
      <g
         id="g646"
         clip-path="url(#clipPath650)">
        <g
           id="g652"
           clip-path="url(#clipPath656)">
          <g
             id="g658"
             clip-path="url(#clipPath662)">
            <path
               d="m 101.29,266.823 c -2.246,0 -4.066,-1.82 -4.066,-4.065 0,-2.246 1.82,-4.066 4.066,-4.066 2.246,0 4.066,1.82 4.066,4.066 0,2.245 -1.82,4.065 -4.066,4.065 z"
               style="fill:none;stroke:#231f20;stroke-width:0.5;stroke-linecap:butt;stroke-linejoin:miter;stroke-miterlimit:4;stroke-dasharray:none;stroke-opacity:1"
               id="path664"
               inkscape:connector-curvature="0" />
          </g>
        </g>
      </g>
    </g>
    <g
       transform="matrix(0.35277777,0,0,-0.35277777,48.572343,226.31546)"
       id="g666">
      <g
         id="g668">
        <g
           id="g674">
          <path
             d="m 99.29,249.695 c -0.242,0 -0.437,-0.196 -0.437,-0.438 0,-0.241 0.195,-0.437 0.437,-0.437 h 4.125 c 0.242,0 0.437,0.196 0.437,0.437 0,0.242 -0.195,0.438 -0.437,0.438 H 99.29"
             style="fill:url(#linearGradient680);stroke:none"
             id="path682"
             inkscape:connector-curvature="0" />
        </g>
      </g>
    </g>
    <g
       transform="matrix(0.35277777,0,0,-0.35277777,48.572343,226.31546)"
       id="g684">
      <g
         id="g686"
         clip-path="url(#clipPath690)">
        <g
           id="g692"
           clip-path="url(#clipPath696)">
          <g
             id="g698"
             clip-path="url(#clipPath702)">
            <path
               d="m 99.29,249.695 c -0.242,0 -0.437,-0.196 -0.437,-0.438 0,-0.241 0.195,-0.437 0.437,-0.437 h 4.125 c 0.242,0 0.437,0.196 0.437,0.437 0,0.242 -0.195,0.438 -0.437,0.438 z"
               style="fill:none;stroke:#231f20;stroke-width:0.5;stroke-linecap:butt;stroke-linejoin:miter;stroke-miterlimit:4;stroke-dasharray:none;stroke-opacity:1"
               id="path704"
               inkscape:connector-curvature="0" />
          </g>
        </g>
      </g>
    </g>
    <g
       transform="matrix(0.35277777,0,0,-0.35277777,48.572343,226.31546)"
       id="g706">
      <g
         id="g708">
        <g
           id="g714">
          <path
             d="m 98.706,258.031 c -0.31,0 -0.561,-0.131 -0.561,-0.293 0,-0.162 0.251,-0.293 0.561,-0.293 h 5.293 c 0.31,0 0.561,0.131 0.561,0.293 0,0.162 -0.251,0.293 -0.561,0.293 h -5.293"
             style="fill:url(#linearGradient720);stroke:none"
             id="path722"
             inkscape:connector-curvature="0" />
        </g>
      </g>
    </g>
    <g
       transform="matrix(0.35277777,0,0,-0.35277777,48.572343,226.31546)"
       id="g724">
      <g
         id="g726"
         clip-path="url(#clipPath730)">
        <g
           id="g732"
           clip-path="url(#clipPath736)">
          <g
             id="g738"
             clip-path="url(#clipPath742)">
            <path
               d="m 98.706,258.031 c -0.31,0 -0.561,-0.131 -0.561,-0.293 0,-0.162 0.251,-0.293 0.561,-0.293 h 5.293 c 0.31,0 0.561,0.131 0.561,0.293 0,0.162 -0.251,0.293 -0.561,0.293 z"
               style="fill:none;stroke:#231f20;stroke-width:0.5;stroke-linecap:butt;stroke-linejoin:round;stroke-miterlimit:4;stroke-dasharray:none;stroke-opacity:1"
               id="path744"
               inkscape:connector-curvature="0" />
          </g>
        </g>
      </g>
    </g>
    <g
       transform="matrix(0.35277777,0,0,-0.35277777,48.572343,226.31546)"
       id="g746">
      <g
         id="g748">
        <g
           id="g754">
          <path
             d="m 103.04,238.486 h 15 v 4.583 h -15 z"
             style="fill:url(#linearGradient760);stroke:none"
             id="path762"
             inkscape:connector-curvature="0" />
        </g>
      </g>
    </g>
    <g
       transform="matrix(0.35277777,0,0,-0.35277777,48.572343,226.31546)"
       id="g764">
      <g
         id="g766"
         clip-path="url(#clipPath770)">
        <g
           id="g772"
           clip-path="url(#clipPath776)">
          <g
             id="g778"
             clip-path="url(#clipPath782)">
            <path
               d="m 103.04,238.486 h 15 v 4.583 h -15 z"
               style="fill:none;stroke:#231f20;stroke-width:0.5;stroke-linecap:butt;stroke-linejoin:miter;stroke-miterlimit:4;stroke-dasharray:none;stroke-opacity:1"
               id="path784"
               inkscape:connector-curvature="0" />
            <path
               d="m 99.874,238.486 h 3.082 m 0,4.584 h -3.082"
               style="fill:none;stroke:#000000;stroke-width:0.5;stroke-linecap:square;stroke-linejoin:round;stroke-miterlimit:4;stroke-dasharray:none;stroke-opacity:1"
               id="path786"
               inkscape:connector-curvature="0" />
            <path
               d="m 101.29,267.695 v 2.25 m 0.847,-2.289 0.207,1.219 m 0.62,-1.405 0.77,2.115 m 0.013,-2.441 0.61,1.062 m 0.104,-1.519 1.446,1.723 m -0.822,-2.298 0.934,0.777 m -0.42,-1.451 1.949,1.125 m -1.559,-1.878 1.143,0.398 m -0.89,-1.207 2.216,0.391 m -2.108,-1.232 1.209,-0.03 m -1.247,-0.817 2.215,-0.391 m -2.401,-0.436 1.123,-0.455 m -1.45,-0.328 1.949,-1.125 m -2.406,0.411 0.899,-0.824 m -5.834,8.59 -0.219,1.223 m -0.639,-1.44 -0.77,2.114 m -0.037,-2.478 -0.615,1.076 m -0.117,-1.573 -1.447,1.724 m 0.812,-2.341 -0.936,0.801 m 0.418,-1.52 -1.948,1.125 m 1.563,-1.921 -1.143,0.434 m 0.902,-1.286 -2.215,0.391 m 2.126,-1.272 -1.213,0.019 m 1.278,-0.902 -2.216,-0.39 m 2.433,-0.468 -1.136,-0.396 m 1.5,-0.411 -1.949,-1.125 m 2.446,0.393 -0.923,-0.76 m 1.54,0.125 -1.446,-1.723"
               style="fill:none;stroke:#231f20;stroke-width:0.25;stroke-linecap:round;stroke-linejoin:miter;stroke-miterlimit:4;stroke-dasharray:none;stroke-opacity:1"
               id="path788"
               inkscape:connector-curvature="0" />
            <path
               d="m 176.919,212.563 c 0.131,-1.047 0.894,-2.204 0.175,-3.208 0.087,-0.263 -0.24,-0.35 -0.263,-0.568 -0.021,-0.48 0.153,-1.048 0.678,-1.114 0.414,-0.24 0.894,-0.349 1.353,-0.523 0.087,0.109 0.262,0.043 0.371,0.065 0.829,-1.179 2.489,-1.462 3.362,-2.772 0.72,-0.721 0.392,-1.855 0.261,-2.729 -0.393,-0.851 -0.436,-1.942 -1.265,-2.51 -0.153,-0.48 -0.481,-0.961 -0.94,-1.222 h -0.217 c -0.044,-0.961 -0.459,-1.79 -0.787,-2.664 -0.523,-3.274 -0.436,-6.745 -0.894,-10.106 0.589,-1.419 -0.35,-2.598 -0.569,-3.886 -0.064,-0.852 0.919,-2.161 -0.261,-2.554 -1.266,0.065 -2.532,-0.568 -3.777,-0.262 -0.196,0.153 -0.305,0.349 -0.305,0.611 -1.113,0.153 -2.029,-0.066 -3.034,0.175 -0.109,0.415 0.152,0.807 0.305,1.2 0.677,0.48 1.746,0.742 1.877,1.768 l -0.152,0.11 c -0.109,2.641 -1.55,4.78 -1.987,7.291 0.918,1.833 1.397,3.885 2.139,5.806 0.284,0.721 0.786,1.266 0.59,2.052 0.327,0.786 -0.742,0.698 -0.524,1.506 0.305,0.721 0,1.594 -0.262,2.27 -0.393,-0.108 -0.677,-0.436 -1.113,-0.371 -0.262,0.59 -1.026,0.961 -0.873,1.725 0.218,1.528 1.353,2.663 1.877,4.082 -0.13,0.764 0.109,1.681 0.786,2.205 0,0.152 -0.174,0.349 -0.371,0.415 0.088,0.48 0.044,0.851 0.065,1.375 -0.414,0.13 -0.109,0.742 -0.262,1.091 0.524,0.742 1.201,1.135 2.031,1.463 0.742,-0.066 1.527,-0.24 1.986,-0.721"
               style="fill:#000000;fill-opacity:1;fill-rule:nonzero;stroke:none"
               id="path790"
               inkscape:connector-curvature="0" />
            <path
               d="m 176.875,211.865 c 0.109,-0.589 0.371,-1.441 0.044,-2.096 -0.35,0.044 0.065,0.524 -0.152,0.786 -0.044,0.24 -0.067,0.502 -0.307,0.633 -0.218,-0.022 -0.458,-0.131 -0.589,-0.306 -0.262,0.131 -0.567,0.808 -1.048,0.939 -0.567,-0.087 -1.048,-0.349 -1.615,-0.48 -0.175,0.764 0.698,0.938 1.092,1.31 0.567,0.458 1.221,0.131 1.833,0 0.327,-0.219 0.655,-0.35 0.742,-0.786"
               style="fill:#a7a5a6;fill-opacity:1;fill-rule:nonzero;stroke:none"
               id="path792"
               inkscape:connector-curvature="0" />
            <path
               d="m 176.352,210.73 c 0.371,-0.502 -0.546,-0.961 0.108,-1.266 l 0.109,0.109 c 0.306,-0.35 -0.152,-0.633 -0.109,-1.005 l 0.307,-0.785 c -0.394,-0.72 -1.311,-0.633 -1.944,-0.786 -0.022,0.196 0.044,0.48 0.175,0.676 0.523,0.044 0.961,0.285 1.135,0.787 0.021,0.108 0,0.196 -0.087,0.261 -0.087,-0.196 -0.503,-0.261 -0.437,-0.524 -0.524,0 -0.698,-0.218 -1.2,0 -0.306,0.459 -0.546,0.917 -0.83,1.31 0.262,0.175 -0.065,0.328 -0.109,0.48 0.13,-0.152 0.327,0.022 0.371,0.153 0.175,-0.175 -0.196,-1.353 0.523,-0.982 0.045,0.065 0.132,0.109 0.111,0.197 -0.437,0.196 -0.023,0.916 -0.372,1.2 l -0.262,-0.262 c -0.087,0.262 -0.545,0.328 -0.371,0.699 0.523,0.087 1.07,0.72 1.572,0.262 0.349,-0.306 0.349,-0.917 0.895,-0.961 0.217,0.066 0.109,0.437 0.415,0.437"
               style="fill:#f4f4f4;fill-opacity:1;fill-rule:nonzero;stroke:none"
               id="path794"
               inkscape:connector-curvature="0" />
            <path
               d="m 175.413,210.293 c -0.088,-0.153 -0.263,-0.328 -0.48,-0.306 0.021,0.219 -0.328,0.284 -0.262,0.481 0.262,0.327 0.523,-0.022 0.742,-0.175"
               style="fill:#000000;fill-opacity:1;fill-rule:nonzero;stroke:none"
               id="path796"
               inkscape:connector-curvature="0" />
            <path
               d="m 174.823,208.721 c -0.088,-0.131 -0.305,-0.174 -0.523,-0.153 l -0.044,0.066 c -0.023,0.197 0.284,0.262 0.415,0.153 0.064,0 0.13,0 0.152,-0.066"
               style="fill:#000000;fill-opacity:1;fill-rule:nonzero;stroke:none"
               id="path798"
               inkscape:connector-curvature="0" />
            <path
               d="m 173.95,208.197 c 0.088,-0.196 -0.263,-0.196 -0.263,-0.458 0.481,-1.004 -0.436,-1.812 -0.632,-2.772 -0.153,-0.066 -0.437,0.153 -0.524,0.349 0.48,0.72 0.349,1.747 0.524,2.532 0.044,0.284 0.83,1.375 0.895,0.349"
               style="fill:#f4f4f4;fill-opacity:1;fill-rule:nonzero;stroke:none"
               id="path800"
               inkscape:connector-curvature="0" />
            <path
               d="m 174.475,207.521 c 0.065,-0.219 -0.111,-0.48 -0.263,-0.677 0.065,0.371 -0.393,0.743 0,1.004 0.131,-0.175 0.218,-0.109 0.263,-0.327"
               style="fill:#ffffff;fill-opacity:1;fill-rule:nonzero;stroke:none"
               id="path802"
               inkscape:connector-curvature="0" />
            <path
               d="m 180.587,201.714 -0.045,-1.637 -0.218,-0.197 c -0.175,0.765 -0.523,1.638 -0.306,2.555 0.329,-0.175 0.874,-0.153 0.569,-0.721"
               style="fill:#ffffff;fill-opacity:1;fill-rule:nonzero;stroke:none"
               id="path804"
               inkscape:connector-curvature="0" />
            <path
               d="m 181.284,199.357 c -0.021,-0.48 -0.479,-0.677 -0.785,-1.004 -0.59,0.021 -1.092,-0.219 -1.682,-0.197 0.023,0.546 0.657,0.349 0.94,0.611 0.48,0.262 1.069,1.703 1.527,0.59"
               style="fill:#f4f4f4;fill-opacity:1;fill-rule:nonzero;stroke:none"
               id="path806"
               inkscape:connector-curvature="0" />
            <path
               d="m 178.753,206.844 c 0.523,0.175 0.96,-0.698 1.527,-0.829 1.158,-0.764 2.576,-1.616 2.467,-3.144 -0.218,-1.113 -0.35,-2.292 -1.156,-3.099 -0.241,0.13 -0.547,0.305 -0.678,0.567 -0.043,0.764 0.067,1.55 0.109,2.205 -1.375,-0.219 -1.309,1.528 -2.422,1.834 l -0.262,0.371 c -0.109,-0.044 -0.175,-0.131 -0.263,-0.219 0.263,-0.633 1.245,-0.655 1.267,-1.462 0.392,-0.48 0.327,-1.223 0.263,-1.834 0.042,-0.633 0.566,-1.244 0.152,-1.877 -0.219,-0.415 -0.742,-0.284 -1.048,-0.524 -0.218,0.196 -0.546,-0.131 -0.829,0.044 -0.263,-0.372 -0.59,0.043 -0.961,-0.044 -1.135,0.218 -1.834,-1.288 -2.881,-0.677 -0.284,0.328 -0.765,0.349 -0.721,0.873 0.414,0.895 -0.109,1.79 -0.153,2.685 0.523,1.463 0.132,3.34 1.136,4.606 0.109,0.415 0.763,0.306 1.156,0.48 0.677,-0.174 1.048,0.787 1.79,0.677 0.525,-0.153 1.048,-0.327 1.507,-0.633"
               style="fill:#fde3ac;fill-opacity:1;fill-rule:nonzero;stroke:none"
               id="path808"
               inkscape:connector-curvature="0" />
            <path
               d="m 173.208,204.443 c -0.044,-0.873 -0.087,-1.855 -0.371,-2.685 -0.415,-0.087 -0.524,-0.567 -1.048,-0.459 -0.196,0.546 -0.896,0.983 -0.634,1.66 0.197,0.763 0.657,1.419 1.005,2.095 0.284,-0.284 0.611,-0.633 1.048,-0.611"
               style="fill:#fde3ac;fill-opacity:1;fill-rule:nonzero;stroke:none"
               id="path810"
               inkscape:connector-curvature="0" />
            <path
               d="m 178.491,198.418 c -0.262,-0.699 -1.223,-0.197 -1.878,-0.436 -0.807,-0.35 -1.746,-0.874 -2.663,-0.524 -0.109,0.109 -0.044,0.261 -0.065,0.371 1.44,-0.699 2.204,1.331 3.624,0.524 0.304,0.087 0.741,0.152 0.982,0.065"
               style="fill:#fde3ac;fill-opacity:1;fill-rule:nonzero;stroke:none"
               id="path812"
               inkscape:connector-curvature="0" />
            <path
               d="m 180.062,197.938 c 0,-0.895 -0.436,-1.681 -0.676,-2.401 -0.459,-3.187 -0.35,-6.593 -0.895,-9.758 -0.045,-1.004 0.393,-2.401 -0.307,-3.34 -0.152,-0.371 -0.086,-0.895 -0.479,-1.048 -0.546,-0.087 -1.223,-0.109 -1.616,0.197 l -0.305,-0.044 c 0.393,2.161 0.349,4.475 0.043,6.811 0.219,1.899 -0.043,4.104 0.415,5.959 -0.044,0.109 -0.196,0.175 -0.262,0.066 -0.262,-0.612 -0.087,-1.397 -0.371,-1.987 0.241,-1.179 -0.503,-2.096 -0.982,-3.056 -0.087,-1.725 0.916,-3.034 1.157,-4.649 -0.044,-0.83 -0.109,-1.725 -0.371,-2.577 -0.808,-0.305 -1.507,0.328 -2.249,0.481 -0.087,1.921 -1.026,3.493 -1.528,5.239 -0.895,1.441 -0.174,3.056 0.568,4.344 0.436,1.681 0.96,3.318 1.789,4.824 0.786,-0.043 1.813,0.175 2.576,0.677 0.656,-0.087 1.573,0.196 2.293,-0.044 0.326,0.328 0.807,0.218 1.2,0.306"
               style="fill:#456bbd;fill-opacity:1;fill-rule:nonzero;stroke:none"
               id="path814"
               inkscape:connector-curvature="0" />
            <path
               d="m 175.609,186.674 c -0.392,1.091 -1.179,2.728 -0.044,3.711 0.088,-1.005 -0.196,-2.51 0.044,-3.711"
               style="fill:#ffffff;fill-opacity:1;fill-rule:nonzero;stroke:none"
               id="path816"
               inkscape:connector-curvature="0" />
            <path
               d="m 175.347,181.74 c 0.59,-0.851 -0.829,-0.851 -0.676,-1.658 -0.961,-1.048 -2.424,-0.197 -3.559,-0.524 0.022,1.375 2.009,1.047 2.096,2.51 0.785,-0.109 1.354,-0.677 2.139,-0.328"
               style="fill:#7b7979;fill-opacity:1;fill-rule:nonzero;stroke:none"
               id="path818"
               inkscape:connector-curvature="0" />
            <path
               d="m 178.075,180.278 c 0.023,-0.371 0.481,-1.091 -0.195,-1.201 -0.961,-0.109 -1.9,0.066 -2.838,-0.371 -0.35,0 -0.809,-0.065 -0.896,0.328 0.197,0.611 1.071,0.829 1.114,1.506 0.48,1.026 1.397,0.24 2.139,0.48 0.502,0.262 0.568,-0.458 0.676,-0.742"
               style="fill:#7b7979;fill-opacity:1;fill-rule:nonzero;stroke:none"
               id="path820"
               inkscape:connector-curvature="0" />
          </g>
        </g>
      </g>
    </g>
  </g>
</svg>
