<?xml version="1.0" encoding="UTF-8" standalone="no"?>
<!-- Created with Inkscape (http://www.inkscape.org/) -->

<svg
   xmlns:dc="http://purl.org/dc/elements/1.1/"
   xmlns:cc="http://creativecommons.org/ns#"
   xmlns:rdf="http://www.w3.org/1999/02/22-rdf-syntax-ns#"
   xmlns:svg="http://www.w3.org/2000/svg"
   xmlns="http://www.w3.org/2000/svg"
   xmlns:sodipodi="http://sodipodi.sourceforge.net/DTD/sodipodi-0.dtd"
   xmlns:inkscape="http://www.inkscape.org/namespaces/inkscape"
   width="2.8328471in"
   height="0.23964818in"
   viewBox="0 0 71.954317 6.0870637"
   version="1.1"
   id="svg2658"
   inkscape:version="0.92.2 (5c3e80d, 2017-08-06)"
   sodipodi:docname="fig-ans-a-2-41.svg">
  <defs
     id="defs2652">
    <clipPath
       clipPathUnits="userSpaceOnUse"
       id="clipPath1254">
      <path
         d="m 93.6,420.56 h 207 V 400.8 h -207 z"
         id="path1252"
         inkscape:connector-curvature="0"
         style="clip-rule:evenodd" />
    </clipPath>
    <clipPath
       clipPathUnits="userSpaceOnUse"
       id="clipPath1260">
      <path
         d="M 28,776 H 668 V 28 H 28 Z"
         id="path1258"
         inkscape:connector-curvature="0" />
    </clipPath>
    <clipPath
       clipPathUnits="userSpaceOnUse"
       id="clipPath1266">
      <path
         d="m 0,804.015 h 696 v -804 H 0 Z"
         id="path1264"
         inkscape:connector-curvature="0" />
    </clipPath>
  </defs>
  <sodipodi:namedview
     id="base"
     pagecolor="#ffffff"
     bordercolor="#666666"
     borderopacity="1.0"
     inkscape:pageopacity="0.0"
     inkscape:pageshadow="2"
     inkscape:zoom="4.45297"
     inkscape:cx="135.97666"
     inkscape:cy="-0.49697704"
     inkscape:document-units="mm"
     inkscape:current-layer="layer1"
     showgrid="false"
     inkscape:window-width="1366"
     inkscape:window-height="745"
     inkscape:window-x="-8"
     inkscape:window-y="-8"
     inkscape:window-maximized="1"
     fit-margin-top="0"
     fit-margin-left="0"
     fit-margin-right="0"
     fit-margin-bottom="0"
     units="in" />
  <metadata
     id="metadata2655">
    <rdf:RDF>
      <cc:Work
         rdf:about="">
        <dc:format>image/svg+xml</dc:format>
        <dc:type
           rdf:resource="http://purl.org/dc/dcmitype/StillImage" />
        <dc:title></dc:title>
      </cc:Work>
    </rdf:RDF>
  </metadata>
  <g
     inkscape:label="Layer 1"
     inkscape:groupmode="layer"
     id="layer1"
     transform="translate(-2.5764127,-0.49573327)">
    <g
       transform="matrix(0.35277777,0,0,-0.35277777,-30.627031,148.67298)"
       id="g1248">
      <g
         id="g1250"
         clip-path="url(#clipPath1254)">
        <g
           id="g1256"
           clip-path="url(#clipPath1260)">
          <g
             id="g1262"
             clip-path="url(#clipPath1266)">
            <path
               d="m 295.12,416.03 h -201"
               style="fill:none;stroke:#000000;stroke-width:0.69999999;stroke-linecap:butt;stroke-linejoin:miter;stroke-miterlimit:4;stroke-dasharray:none;stroke-opacity:1"
               id="path1268"
               inkscape:connector-curvature="0" />
            <path
               d="m 298.085,416.03 -4.178,-1.707 0.991,1.707 -0.991,1.707 4.178,-1.707"
               style="fill:#000000;fill-opacity:1;fill-rule:nonzero;stroke:none"
               id="path1270"
               inkscape:connector-curvature="0" />
            <path
               d="m 131.556,420.03 v -8 m 12.6,7 v -6 m 12.6,6 v -6 m 12.601,6 v -6 m 12.6,6 v -6 m 62.962,6 v -6 m -12.6,6 v -6 m -12.601,6 v -6 m -12.6,6 v -6 m -12.561,7 v -8 m 63.003,8 v -8"
               style="fill:none;stroke:#000000;stroke-width:0.5;stroke-linecap:butt;stroke-linejoin:miter;stroke-miterlimit:4;stroke-dasharray:none;stroke-opacity:1"
               id="path1272"
               inkscape:connector-curvature="0" />
            <path
               d="M 131.512,416.032 H 232.299"
               style="fill:none;stroke:#000000;stroke-width:1.20000005;stroke-linecap:butt;stroke-linejoin:miter;stroke-miterlimit:4;stroke-dasharray:none;stroke-opacity:1"
               id="path1274"
               inkscape:connector-curvature="0" />
            <path
               d="m 232.344,414.032 c -1.104,0 -2,0.896 -2,2 0,1.105 0.896,2 2,2 1.105,0 2,-0.895 2,-2 0,-1.104 -0.895,-2 -2,-2"
               style="fill:#000000;fill-opacity:1;fill-rule:nonzero;stroke:none"
               id="path1276"
               inkscape:connector-curvature="0" />
            <text
               transform="matrix(1,0,0,-1,230.0688,402.8808)"
               style="font-variant:normal;font-weight:normal;font-size:9px;font-family:'Times New Roman';-inkscape-font-specification:Times-Roman;writing-mode:lr-tb;fill:#231f20;fill-opacity:1;fill-rule:nonzero;stroke:none"
               id="text1280">
              <tspan
                 x="0 -37.761299"
                 y="0"
                 sodipodi:role="line"
                 id="tspan1278">30</tspan>
            </text>
            <text
               transform="matrix(1,0,0,-1,124.3773,403.0203)"
               style="font-variant:normal;font-weight:normal;font-size:9px;font-family:Symbol;-inkscape-font-specification:Symbol;writing-mode:lr-tb;fill:#231f20;fill-opacity:1;fill-rule:nonzero;stroke:none"
               id="text1284">
              <tspan
                 x="0"
                 y="0"
                 id="tspan1282">−</tspan>
            </text>
            <text
               transform="matrix(1,0,0,-1,129.3183,403.0203)"
               style="font-variant:normal;font-weight:normal;font-size:9px;font-family:'Times New Roman';-inkscape-font-specification:Times-Roman;writing-mode:lr-tb;fill:#231f20;fill-opacity:1;fill-rule:nonzero;stroke:none"
               id="text1288">
              <tspan
                 x="0"
                 y="0"
                 id="tspan1286">5</tspan>
            </text>
            <path
               d="m 131.514,414.032 c 1.104,0 2,0.896 2,2 0,1.105 -0.896,2 -2,2 -1.105,0 -2,-0.895 -2,-2 0,-1.104 0.895,-2 2,-2"
               style="fill:#ffffff;fill-opacity:1;fill-rule:nonzero;stroke:none"
               id="path1290"
               inkscape:connector-curvature="0" />
            <path
               d="m 131.514,414.032 c 1.104,0 2,0.896 2,2 0,1.105 -0.896,2 -2,2 -1.105,0 -2,-0.895 -2,-2 0,-1.104 0.895,-2 2,-2 z m -12.595,4.998 v -6 m -12.6,6 v -6 m 163.837,6 v -6 m 12.6,6 v -6"
               style="fill:none;stroke:#000000;stroke-width:0.5;stroke-linecap:butt;stroke-linejoin:miter;stroke-miterlimit:4;stroke-dasharray:none;stroke-opacity:1"
               id="path1292"
               inkscape:connector-curvature="0" />
          </g>
        </g>
      </g>
    </g>
  </g>
</svg>
