<?xml version="1.0" encoding="UTF-8"?>
<svg xmlns="http://www.w3.org/2000/svg" xmlns:xlink="http://www.w3.org/1999/xlink" width="95.3575pt" height="95.4142pt" viewBox="0 0 95.3575 95.4142" version="1.1">
<defs>
<clipPath id="clip1">
  <path d="M 2.070312 46 L 93 46 L 93 93.375 L 2.070312 93.375 Z M 2.070312 46 "/>
</clipPath>
<clipPath id="clip2">
  <path d="M 2.070312 2 L 8 2 L 8 3 L 2.070312 3 Z M 2.070312 2 "/>
</clipPath>
<clipPath id="clip3">
  <path d="M 2.070312 13 L 93.070312 13 L 93.070312 82 L 2.070312 82 Z M 2.070312 13 "/>
</clipPath>
<clipPath id="clip4">
  <path d="M 2.070312 14 L 93.070312 14 L 93.070312 75 L 2.070312 75 Z M 2.070312 14 "/>
</clipPath>
<clipPath id="clip5">
  <path d="M 0 0 L 95.359375 0 L 95.359375 95.414062 L 0 95.414062 Z M 0 0 "/>
</clipPath>
</defs>
<g id="surface1">
<path style="fill:none;stroke-width:0.7;stroke-linecap:butt;stroke-linejoin:miter;stroke:rgb(13.729858%,12.159729%,12.548828%);stroke-opacity:1;stroke-miterlimit:4;" d="M 361.162675 313.74545 L 361.162675 225.862638 M 449.045487 225.862638 L 361.162675 225.862638 " transform="matrix(1,0,0,-1,-356.4283,316.2142)"/>
<g clip-path="url(#clip1)" clip-rule="nonzero">
<path style="fill:none;stroke-width:0.5;stroke-linecap:butt;stroke-linejoin:miter;stroke:rgb(13.729858%,12.159729%,12.548828%);stroke-opacity:1;stroke-miterlimit:4;" d="M 358.764237 269.804044 L 363.557206 269.804044 M 358.764237 225.800138 L 363.557206 225.800138 M 405.104081 228.257169 L 405.104081 223.460294 M 361.123612 228.257169 L 361.123612 223.460294 M 448.893144 228.257169 L 448.893144 223.460294 " transform="matrix(1,0,0,-1,-356.4283,316.2142)"/>
</g>
<g clip-path="url(#clip2)" clip-rule="nonzero">
<path style="fill:none;stroke-width:0.5;stroke-linecap:butt;stroke-linejoin:miter;stroke:rgb(13.729858%,12.159729%,12.548828%);stroke-opacity:1;stroke-miterlimit:4;" d="M 358.764237 313.749356 L 363.557206 313.749356 " transform="matrix(1,0,0,-1,-356.4283,316.2142)"/>
</g>
<g clip-path="url(#clip3)" clip-rule="nonzero">
<path style="fill:none;stroke-width:2;stroke-linecap:butt;stroke-linejoin:miter;stroke:rgb(7.798767%,53.665161%,39.753723%);stroke-opacity:1;stroke-miterlimit:4;" d="M 361.162675 245.628263 L 448.4283 291.827481 " transform="matrix(1,0,0,-1,-356.4283,316.2142)"/>
</g>
<g clip-path="url(#clip4)" clip-rule="nonzero">
<path style="fill:none;stroke-width:1.2;stroke-linecap:butt;stroke-linejoin:miter;stroke:rgb(12.626648%,33.805847%,68.193054%);stroke-opacity:1;stroke-miterlimit:4;" d="M 361.162675 248.987638 L 448.4283 295.186856 " transform="matrix(1,0,0,-1,-356.4283,316.2142)"/>
</g>
<path style="fill-rule:nonzero;fill:rgb(100%,100%,100%);fill-opacity:1;stroke-width:0.5;stroke-linecap:butt;stroke-linejoin:miter;stroke:rgb(93.609619%,18.434143%,17.378235%);stroke-opacity:1;stroke-miterlimit:4;" d="M 369.951737 255.639981 L 371.951737 253.636075 L 369.951737 251.639981 L 367.951737 253.639981 Z M 369.951737 255.639981 " transform="matrix(1,0,0,-1,-356.4283,316.2142)"/>
<path style="fill-rule:nonzero;fill:rgb(100%,100%,100%);fill-opacity:1;stroke-width:0.5;stroke-linecap:butt;stroke-linejoin:miter;stroke:rgb(93.609619%,18.434143%,17.378235%);stroke-opacity:1;stroke-miterlimit:4;" d="M 422.549394 274.866544 L 424.549394 272.866544 L 422.549394 270.866544 L 420.549394 272.866544 Z M 422.549394 274.866544 " transform="matrix(1,0,0,-1,-356.4283,316.2142)"/>
<path style="fill-rule:nonzero;fill:rgb(100%,100%,100%);fill-opacity:1;stroke-width:0.5;stroke-linecap:butt;stroke-linejoin:miter;stroke:rgb(93.609619%,18.434143%,17.378235%);stroke-opacity:1;stroke-miterlimit:4;" d="M 422.549394 280.128263 L 424.549394 278.124356 L 422.549394 276.128263 L 420.549394 278.128263 Z M 422.549394 280.128263 " transform="matrix(1,0,0,-1,-356.4283,316.2142)"/>
<path style="fill-rule:nonzero;fill:rgb(100%,100%,100%);fill-opacity:1;stroke-width:0.5;stroke-linecap:butt;stroke-linejoin:miter;stroke:rgb(93.609619%,18.434143%,17.378235%);stroke-opacity:1;stroke-miterlimit:4;" d="M 413.6158 277.917325 L 415.6158 275.917325 L 413.6158 273.917325 L 411.6158 275.917325 Z M 413.6158 277.917325 " transform="matrix(1,0,0,-1,-356.4283,316.2142)"/>
<path style="fill-rule:nonzero;fill:rgb(100%,100%,100%);fill-opacity:1;stroke-width:0.5;stroke-linecap:butt;stroke-linejoin:miter;stroke:rgb(93.609619%,18.434143%,17.378235%);stroke-opacity:1;stroke-miterlimit:4;" d="M 431.201737 288.065763 L 433.201737 286.065763 L 431.201737 284.065763 L 429.201737 286.065763 Z M 431.201737 288.065763 " transform="matrix(1,0,0,-1,-356.4283,316.2142)"/>
<path style="fill-rule:nonzero;fill:rgb(100%,100%,100%);fill-opacity:1;stroke-width:0.5;stroke-linecap:butt;stroke-linejoin:miter;stroke:rgb(93.609619%,18.434143%,17.378235%);stroke-opacity:1;stroke-miterlimit:4;" d="M 439.764237 291.210294 L 441.764237 289.210294 L 439.764237 287.210294 L 437.764237 289.210294 Z M 439.764237 291.210294 " transform="matrix(1,0,0,-1,-356.4283,316.2142)"/>
<path style="fill-rule:nonzero;fill:rgb(100%,100%,100%);fill-opacity:1;stroke-width:0.5;stroke-linecap:butt;stroke-linejoin:miter;stroke:rgb(93.609619%,18.434143%,17.378235%);stroke-opacity:1;stroke-miterlimit:4;" d="M 396.291581 263.206388 L 398.291581 261.206388 L 396.291581 259.206388 L 394.291581 261.206388 Z M 396.291581 263.206388 " transform="matrix(1,0,0,-1,-356.4283,316.2142)"/>
<g clip-path="url(#clip5)" clip-rule="nonzero">
<path style="fill:none;stroke-width:0.5;stroke-linecap:butt;stroke-linejoin:miter;stroke:rgb(100%,100%,100%);stroke-opacity:1;stroke-miterlimit:10;" d="M 41.998612 803.999356 L 41.998612 779.999356 M -0.0013875 761.999356 L 23.998612 761.999356 M 653.998612 803.999356 L 653.998612 779.999356 M 695.998612 761.999356 L 671.998612 761.999356 M 41.998612 -0.00064375 L 41.998612 23.999356 M -0.0013875 41.999356 L 23.998612 41.999356 M 653.998612 -0.00064375 L 653.998612 23.999356 M 695.998612 41.999356 L 671.998612 41.999356 " transform="matrix(1,0,0,-1,-356.4283,316.2142)"/>
<path style="fill:none;stroke-width:0.25;stroke-linecap:butt;stroke-linejoin:miter;stroke:rgb(0%,0%,0%);stroke-opacity:1;stroke-miterlimit:10;" d="M 41.998612 803.999356 L 41.998612 779.999356 M -0.0013875 761.999356 L 23.998612 761.999356 M 653.998612 803.999356 L 653.998612 779.999356 M 695.998612 761.999356 L 671.998612 761.999356 M 41.998612 -0.00064375 L 41.998612 23.999356 M -0.0013875 41.999356 L 23.998612 41.999356 M 653.998612 -0.00064375 L 653.998612 23.999356 M 695.998612 41.999356 L 671.998612 41.999356 " transform="matrix(1,0,0,-1,-356.4283,316.2142)"/>
<path style="fill:none;stroke-width:0.5;stroke-linecap:butt;stroke-linejoin:miter;stroke:rgb(100%,100%,100%);stroke-opacity:1;stroke-miterlimit:10;" d="M 323.998612 791.999356 L 371.998612 791.999356 M 323.998612 11.999356 L 371.998612 11.999356 M 11.998612 425.999356 L 11.998612 377.999356 M 683.998612 425.999356 L 683.998612 377.999356 M 347.998612 803.999356 L 347.998612 779.999356 M 347.998612 23.999356 L 347.998612 -0.00064375 M -0.0013875 401.999356 L 23.998612 401.999356 M 671.998612 401.999356 L 695.998612 401.999356 M 347.998612 791.999356 L 353.998612 791.999356 C 353.998612 788.686856 351.311112 785.999356 347.998612 785.999356 C 344.686112 785.999356 341.998612 788.686856 341.998612 791.999356 C 341.998612 795.311856 344.686112 797.999356 347.998612 797.999356 C 351.311112 797.999356 353.998612 795.311856 353.998612 791.999356 M 347.998612 11.999356 L 353.998612 11.999356 C 353.998612 8.686856 351.311112 5.999356 347.998612 5.999356 C 344.686112 5.999356 341.998612 8.686856 341.998612 11.999356 C 341.998612 15.311856 344.686112 17.999356 347.998612 17.999356 C 351.311112 17.999356 353.998612 15.311856 353.998612 11.999356 M 11.998612 401.999356 L 17.998612 401.999356 C 17.998612 398.686856 15.311112 395.999356 11.998612 395.999356 C 8.686112 395.999356 5.998612 398.686856 5.998612 401.999356 C 5.998612 405.311856 8.686112 407.999356 11.998612 407.999356 C 15.311112 407.999356 17.998612 405.311856 17.998612 401.999356 M 683.998612 401.999356 L 689.998612 401.999356 C 689.998612 398.686856 687.311112 395.999356 683.998612 395.999356 C 680.686112 395.999356 677.998612 398.686856 677.998612 401.999356 C 677.998612 405.311856 680.686112 407.999356 683.998612 407.999356 C 687.311112 407.999356 689.998612 405.311856 689.998612 401.999356 " transform="matrix(1,0,0,-1,-356.4283,316.2142)"/>
<path style="fill:none;stroke-width:0.25;stroke-linecap:butt;stroke-linejoin:miter;stroke:rgb(0%,0%,0%);stroke-opacity:1;stroke-miterlimit:10;" d="M 323.998612 791.999356 L 371.998612 791.999356 M 323.998612 11.999356 L 371.998612 11.999356 M 11.998612 425.999356 L 11.998612 377.999356 M 683.998612 425.999356 L 683.998612 377.999356 M 347.998612 803.999356 L 347.998612 779.999356 M 347.998612 23.999356 L 347.998612 -0.00064375 M -0.0013875 401.999356 L 23.998612 401.999356 M 671.998612 401.999356 L 695.998612 401.999356 M 347.998612 791.999356 L 353.998612 791.999356 C 353.998612 788.686856 351.311112 785.999356 347.998612 785.999356 C 344.686112 785.999356 341.998612 788.686856 341.998612 791.999356 C 341.998612 795.311856 344.686112 797.999356 347.998612 797.999356 C 351.311112 797.999356 353.998612 795.311856 353.998612 791.999356 M 347.998612 11.999356 L 353.998612 11.999356 C 353.998612 8.686856 351.311112 5.999356 347.998612 5.999356 C 344.686112 5.999356 341.998612 8.686856 341.998612 11.999356 C 341.998612 15.311856 344.686112 17.999356 347.998612 17.999356 C 351.311112 17.999356 353.998612 15.311856 353.998612 11.999356 M 11.998612 401.999356 L 17.998612 401.999356 C 17.998612 398.686856 15.311112 395.999356 11.998612 395.999356 C 8.686112 395.999356 5.998612 398.686856 5.998612 401.999356 C 5.998612 405.311856 8.686112 407.999356 11.998612 407.999356 C 15.311112 407.999356 17.998612 405.311856 17.998612 401.999356 M 683.998612 401.999356 L 689.998612 401.999356 C 689.998612 398.686856 687.311112 395.999356 683.998612 395.999356 C 680.686112 395.999356 677.998612 398.686856 677.998612 401.999356 C 677.998612 405.311856 680.686112 407.999356 683.998612 407.999356 C 687.311112 407.999356 689.998612 405.311856 689.998612 401.999356 " transform="matrix(1,0,0,-1,-356.4283,316.2142)"/>
</g>
</g>
</svg>
