<?xml version="1.0" encoding="UTF-8" standalone="no"?>
<!-- Created with Inkscape (http://www.inkscape.org/) -->

<svg
   xmlns:dc="http://purl.org/dc/elements/1.1/"
   xmlns:cc="http://creativecommons.org/ns#"
   xmlns:rdf="http://www.w3.org/1999/02/22-rdf-syntax-ns#"
   xmlns:svg="http://www.w3.org/2000/svg"
   xmlns="http://www.w3.org/2000/svg"
   xmlns:sodipodi="http://sodipodi.sourceforge.net/DTD/sodipodi-0.dtd"
   xmlns:inkscape="http://www.inkscape.org/namespaces/inkscape"
   width="2.1609945in"
   height="1.4136132in"
   viewBox="0 0 54.889261 35.905775"
   version="1.1"
   id="svg960"
   inkscape:version="0.92.2 (5c3e80d, 2017-08-06)"
   sodipodi:docname="fig-ex-a-4-3.svg">
  <defs
     id="defs954" />
  <sodipodi:namedview
     id="base"
     pagecolor="#ffffff"
     bordercolor="#666666"
     borderopacity="1.0"
     inkscape:pageopacity="0.0"
     inkscape:pageshadow="2"
     inkscape:zoom="0.35"
     inkscape:cx="103.72775"
     inkscape:cy="67.853446"
     inkscape:document-units="mm"
     inkscape:current-layer="layer1"
     showgrid="false"
     units="in"
     fit-margin-top="0"
     fit-margin-left="0"
     fit-margin-right="0"
     fit-margin-bottom="0"
     inkscape:window-width="1366"
     inkscape:window-height="745"
     inkscape:window-x="-8"
     inkscape:window-y="-8"
     inkscape:window-maximized="1" />
  <metadata
     id="metadata957">
    <rdf:RDF>
      <cc:Work
         rdf:about="">
        <dc:format>image/svg+xml</dc:format>
        <dc:type
           rdf:resource="http://purl.org/dc/dcmitype/StillImage" />
        <dc:title></dc:title>
      </cc:Work>
    </rdf:RDF>
  </metadata>
  <g
     inkscape:label="Layer 1"
     inkscape:groupmode="layer"
     id="layer1"
     transform="translate(-78.388699,-130.88045)">
    <path
       d="m 95.678909,158.72908 v -24.33849 m 4.867271,24.33849 v -24.33849 m 4.86763,24.33849 v -24.33849 m 4.86763,24.33849 v -24.33849 m 4.86763,24.33849 v -24.33849 m 4.86798,24.33849 v -24.33849 m 4.86727,24.33849 v -24.33849 m -34.073039,4.86798 h 38.940669 m -38.940669,4.86763 h 38.940669 m -38.940669,4.86833 h 38.940669 m -38.940669,4.86763 H 129.75195 M 90.798581,134.40823 h 38.951609 v 24.31661 H 90.798581 Z"
       style="fill:none;stroke:#bdbcbc;stroke-width:0.12347221;stroke-linecap:butt;stroke-linejoin:miter;stroke-miterlimit:4;stroke-dasharray:none;stroke-opacity:1"
       id="path558"
       inkscape:connector-curvature="0" />
    <text
       y="135.48779"
       x="86.565109"
       style="font-variant:normal;font-weight:normal;font-size:3.17499995px;font-family:'Times New Roman';-inkscape-font-specification:Times-Roman;writing-mode:lr-tb;fill:#231f20;fill-opacity:1;fill-rule:nonzero;stroke:none;stroke-width:0.35277775"
       id="text568">
      <tspan
         style="stroke-width:0.35277775"
         x="86.565109 88.152611"
         y="135.48779"
         sodipodi:role="line"
         id="tspan560">40</tspan>
      <tspan
         style="stroke-width:0.35277775"
         x="86.565109 88.152611"
         y="145.21472"
         sodipodi:role="line"
         id="tspan562">30</tspan>
      <tspan
         style="stroke-width:0.35277775"
         x="86.565109 88.152611"
         y="154.94165"
         sodipodi:role="line"
         id="tspan564">20</tspan>
      <tspan
         style="stroke-width:0.35277775"
         x="128.16269 129.75018 118.42813 120.01563 108.69359 110.28109 98.959038 100.54654"
         y="162.08128"
         sodipodi:role="line"
         id="tspan566">80604020</tspan>
    </text>
    <text
       y="166.84322"
       x="96.033592"
       transform="matrix(0.99996153,-0.00749938,0.00729939,0.99998373,0,0)"
       style="font-variant:normal;font-weight:normal;font-size:3.1752634px;font-family:'Times New Roman';-inkscape-font-specification:Times-Roman;writing-mode:lr-tb;fill:#231f20;fill-opacity:1;fill-rule:nonzero;stroke:none;stroke-width:0.35277361"
       id="text572">
      <tspan
         style="stroke-width:0.35277361"
         x="96.033592 97.799034 99.386665 100.79649 102.2063 103.79393 104.58775 105.64511 108.11546 108.99819 109.88091 111.29073 112.52591 113.31973 114.90736 116.31717 117.37453 118.16835 119.75598 121.34361 122.93124 123.98861"
         y="166.84322"
         sodipodi:role="line"
         id="tspan570">Speed (miles per hour)</tspan>
    </text>
    <text
       y="79.546631"
       x="-153.60135"
       transform="matrix(-0.00729931,-0.99997263,0.99997263,-0.00749929,0,0)"
       style="font-variant:normal;font-weight:normal;font-size:3.17529869px;font-family:'Times New Roman';-inkscape-font-specification:Times-Roman;writing-mode:lr-tb;fill:#231f20;fill-opacity:1;fill-rule:nonzero;stroke:none;stroke-width:0.35277751"
       id="text578">
      <tspan
         style="stroke-width:0.35277751"
         x="-153.60135 -151.30879 -149.89896 -148.66376 -147.86993 -145.39955 -144.51682 -143.63409 -142.22426 -140.81442 -139.22678"
         y="79.546631"
         sodipodi:role="line"
         id="tspan574">Gas mileage</tspan>
      <tspan
         style="stroke-width:0.35277751"
         x="-156.99733 -155.93996 -153.46957 -152.58684 -151.70412 -150.29428 -149.05908 -148.26526 -146.67761 -145.26778 -144.2104 -143.41658 -141.82893 -140.4191 -139.53636 -138.65363 -137.06598 -135.47833"
         y="83.074707"
         sodipodi:role="line"
         id="tspan576">(miles per gallon)</tspan>
    </text>
    <path
       d="m 90.803167,152.54418 c 2.973564,0.0674 6.607881,0 8.722078,-2.01895 2.114195,-2.01894 3.898545,-2.55728 7.995355,-2.96086 4.09646,-0.40393 5.68219,-1.34585 7.20196,-4.64362 1.51977,-3.29776 3.1055,-6.32601 11.95987,-6.39303"
       style="fill:none;stroke:#ef2f2c;stroke-width:0.42333335;stroke-linecap:butt;stroke-linejoin:miter;stroke-miterlimit:4;stroke-dasharray:none;stroke-opacity:1"
       id="path580"
       inkscape:connector-curvature="0" />
    <path
       d="M 132.23198,158.72484 H 90.814809 v -26.7984"
       style="fill:none;stroke:#000000;stroke-width:0.24694443;stroke-linecap:butt;stroke-linejoin:miter;stroke-miterlimit:4;stroke-dasharray:none;stroke-opacity:1"
       id="path582"
       inkscape:connector-curvature="0" />
    <path
       d="m 90.814809,130.88045 0.602545,1.47426 -0.602545,-0.34996 -0.602192,0.34996 0.602192,-1.47426"
       style="fill:#000000;fill-opacity:1;fill-rule:nonzero;stroke:none;stroke-width:0.35277775"
       id="path584"
       inkscape:connector-curvature="0" />
    <path
       d="m 133.27796,158.72484 -1.47461,0.6022 0.34996,-0.6022 -0.34996,-0.60219 1.47461,0.60219"
       style="fill:#000000;fill-opacity:1;fill-rule:nonzero;stroke:none;stroke-width:0.35277775"
       id="path586"
       inkscape:connector-curvature="0" />
  </g>
</svg>
