<?xml version="1.0" encoding="UTF-8" standalone="no"?>
<!-- Created with Inkscape (http://www.inkscape.org/) -->

<svg
   xmlns:dc="http://purl.org/dc/elements/1.1/"
   xmlns:cc="http://creativecommons.org/ns#"
   xmlns:rdf="http://www.w3.org/1999/02/22-rdf-syntax-ns#"
   xmlns:svg="http://www.w3.org/2000/svg"
   xmlns="http://www.w3.org/2000/svg"
   xmlns:sodipodi="http://sodipodi.sourceforge.net/DTD/sodipodi-0.dtd"
   xmlns:inkscape="http://www.inkscape.org/namespaces/inkscape"
   width="2.1516087in"
   height="1.3416084in"
   viewBox="0 0 54.650861 34.076853"
   version="1.1"
   id="svg893"
   inkscape:version="0.92.2 (5c3e80d, 2017-08-06)"
   sodipodi:docname="fig-ex-a-4-2.svg">
  <defs
     id="defs887" />
  <sodipodi:namedview
     id="base"
     pagecolor="#ffffff"
     bordercolor="#666666"
     borderopacity="1.0"
     inkscape:pageopacity="0.0"
     inkscape:pageshadow="2"
     inkscape:zoom="0.35"
     inkscape:cx="103.27722"
     inkscape:cy="64.397215"
     inkscape:document-units="mm"
     inkscape:current-layer="layer1"
     showgrid="false"
     fit-margin-top="0"
     fit-margin-left="0"
     fit-margin-right="0"
     fit-margin-bottom="0"
     units="in"
     inkscape:window-width="1366"
     inkscape:window-height="745"
     inkscape:window-x="-8"
     inkscape:window-y="-8"
     inkscape:window-maximized="1" />
  <metadata
     id="metadata890">
    <rdf:RDF>
      <cc:Work
         rdf:about="">
        <dc:format>image/svg+xml</dc:format>
        <dc:type
           rdf:resource="http://purl.org/dc/dcmitype/StillImage" />
        <dc:title></dc:title>
      </cc:Work>
    </rdf:RDF>
  </metadata>
  <g
     inkscape:label="Layer 1"
     inkscape:groupmode="layer"
     id="layer1"
     transform="translate(-78.507901,-131.79491)">
    <path
       d="m 93.941517,158.02393 v -22.71888 m 3.245555,22.71888 v -22.71888 m 3.246258,22.71888 v -22.71888 m 3.24521,22.71888 v -22.71888 m 3.2459,22.71888 v -22.71888 m 3.24556,22.71888 v -22.71888 m 3.2452,22.71888 v -22.71888 m 3.24662,22.71888 v -22.71888 m 3.2452,22.71888 v -22.71888 m 3.24626,22.71888 v -22.71888 m 3.2452,22.71888 v -22.71888 m -35.702519,3.24555 h 38.948079 m -38.948079,3.2452 h 38.948079 m -38.948079,3.24627 h 38.948079 m -38.948079,3.2452 h 38.948079 m -38.948079,3.24591 h 38.948079 m -38.948079,3.24555 H 129.64404 M 90.682908,135.32269 H 129.64227 V 158.019 H 90.682908 Z"
       style="fill:none;stroke:#bdbcbc;stroke-width:0.12347221;stroke-linecap:butt;stroke-linejoin:miter;stroke-miterlimit:4;stroke-dasharray:none;stroke-opacity:1"
       id="path320"
       inkscape:connector-curvature="0" />
    <text
       y="139.40094"
       x="86.417473"
       style="font-variant:normal;font-weight:normal;font-size:3.17499995px;font-family:'Times New Roman';-inkscape-font-specification:Times-Roman;writing-mode:lr-tb;fill:#231f20;fill-opacity:1;fill-rule:nonzero;stroke:none;stroke-width:0.35277775"
       id="text332">
      <tspan
         style="stroke-width:0.35277775"
         x="86.417473 88.004974"
         y="139.40094"
         sodipodi:role="line"
         id="tspan322">30</tspan>
      <tspan
         style="stroke-width:0.35277775"
         x="86.417473 88.004974"
         y="145.94397"
         sodipodi:role="line"
         id="tspan324">20</tspan>
      <tspan
         style="stroke-width:0.35277775"
         x="86.417473 88.004974"
         y="152.48701"
         sodipodi:role="line"
         id="tspan326">10</tspan>
      <tspan
         style="stroke-width:0.35277775"
         x="127.2721 128.8596 130.4471 120.81384 122.40134 123.98884 115.149 116.7365 108.69041 110.27792"
         y="161.19699"
         sodipodi:role="line"
         id="tspan328">1201008060</tspan>
      <tspan
         style="stroke-width:0.35277775"
         x="100.33699 102.27691 103.15956 105.62971 107.03941 107.83316 108.89043 111.36059 112.24324 113.83073 115.41824 116.30089 117.71059 118.94566"
         y="165.19273"
         sodipodi:role="line"
         id="tspan330">Time (minutes)</tspan>
    </text>
    <text
       y="80.712418"
       x="-150.41452"
       transform="rotate(-90)"
       style="font-variant:normal;font-weight:normal;font-size:3.17499995px;font-family:'Times New Roman';-inkscape-font-specification:Times-Roman;writing-mode:lr-tb;fill:#231f20;fill-opacity:1;fill-rule:nonzero;stroke:none;stroke-width:0.35277775"
       id="text338">
      <tspan
         style="stroke-width:0.35277775"
         x="-150.41452 -148.12216 -147.23952 -146.35687 -145.47421 -144.59157 -143.00407 -141.41656"
         y="80.712418"
         sodipodi:role="line"
         id="tspan334">Altitude</tspan>
      <tspan
         style="stroke-width:0.35277775"
         x="-157.11377 -156.05649 -155.17384 -153.58635 -151.99884 -150.41135 -149.17627 -147.76657 -146.17906 -144.59157 -143.35649 -142.56274 -140.97523 -139.91797 -139.12422 -138.06694 -136.65724 -135.24754 -134.3649"
         y="84.240166"
         sodipodi:role="line"
         id="tspan336">(thousands of feet)</tspan>
    </text>
    <text
       y="161.19699"
       x="102.23254"
       style="font-variant:normal;font-weight:normal;font-size:3.17499995px;font-family:'Times New Roman';-inkscape-font-specification:Times-Roman;writing-mode:lr-tb;fill:#231f20;fill-opacity:1;fill-rule:nonzero;stroke:none;stroke-width:0.35277775"
       id="text342">
      <tspan
         style="stroke-width:0.35277775"
         x="102.23254 103.82004 95.773949 97.36145"
         y="161.19699"
         sodipodi:role="line"
         id="tspan340">4020</tspan>
    </text>
    <path
       d="m 90.779569,157.94844 c 1.277056,-1.95368 1.319742,-2.47297 1.547989,-4.56353 0.227542,-2.09021 0.227542,-4.04389 2.097617,-7.08837 1.870075,-3.04412 4.572,-7.68773 5.15373,-8.45149 1.003305,-1.31763 1.094315,-1.86267 3.101275,-1.90853 2.0066,-0.0452 3.19263,-0.0452 4.60621,0 1.41359,0.0459 1.64183,0.77258 2.37138,1.54517 0.72954,0.77223 0.59266,1.27211 2.41723,1.27211 1.77835,0 2.37137,0 3.83081,0 1.4598,0 2.18934,0.5454 3.0099,1.63583 0.82127,1.09044 2.87373,3.7712 3.92219,5.2257 1.04916,1.4538 2.14347,2.31704 3.37502,3.31682 1.23155,0.99942 3.10127,2.27188 3.42053,9.13306"
       style="fill:none;stroke:#ef2f2c;stroke-width:0.42333335;stroke-linecap:butt;stroke-linejoin:miter;stroke-miterlimit:4;stroke-dasharray:none;stroke-opacity:1"
       id="path344"
       inkscape:connector-curvature="0" />
    <path
       d="M 132.11278,158.02393 H 90.695961 v -25.18268"
       style="fill:none;stroke:#000000;stroke-width:0.24694443;stroke-linecap:butt;stroke-linejoin:miter;stroke-miterlimit:4;stroke-dasharray:none;stroke-opacity:1"
       id="path346"
       inkscape:connector-curvature="0" />
    <path
       d="m 90.695961,131.79491 0.602544,1.47426 -0.602544,-0.34996 -0.602192,0.34996 0.602192,-1.47426"
       style="fill:#000000;fill-opacity:1;fill-rule:nonzero;stroke:none;stroke-width:0.35277775"
       id="path348"
       inkscape:connector-curvature="0" />
    <path
       d="m 133.15876,158.02393 -1.47426,0.6022 0.35031,-0.6022 -0.35031,-0.60219 1.47426,0.60219"
       style="fill:#000000;fill-opacity:1;fill-rule:nonzero;stroke:none;stroke-width:0.35277775"
       id="path350"
       inkscape:connector-curvature="0" />
  </g>
</svg>
