<?xml version="1.0" encoding="UTF-8"?>
<svg xmlns="http://www.w3.org/2000/svg" xmlns:xlink="http://www.w3.org/1999/xlink" width="106.1858pt" height="106.1858pt" viewBox="0 0 106.1858 106.1858" version="1.1">
<defs>
<clipPath id="clip1">
  <path d="M 0.398438 22 L 98 22 L 98 81 L 0.398438 81 Z M 0.398438 22 "/>
</clipPath>
<clipPath id="clip2">
  <path d="M 100 101 L 105 101 L 105 104.957031 L 100 104.957031 Z M 100 101 "/>
</clipPath>
</defs>
<g id="surface1">
<path style="fill:none;stroke-width:0.35;stroke-linecap:butt;stroke-linejoin:miter;stroke:rgb(74.119568%,73.648071%,73.765564%);stroke-opacity:1;stroke-miterlimit:4;" d="M 105.553125 222.210019 L 105.553125 130.217831 M 114.752344 222.210019 L 114.752344 130.217831 M 123.955469 222.210019 L 123.955469 130.217831 M 133.154687 222.210019 L 133.154687 130.217831 M 142.353906 222.210019 L 142.353906 130.217831 M 151.553125 222.210019 L 151.553125 130.217831 M 160.752344 222.210019 L 160.752344 130.217831 M 169.951562 222.210019 L 169.951562 130.217831 M 179.150781 222.210019 L 179.150781 130.217831 M 188.35 222.210019 L 188.35 130.217831 M 96.353906 130.217831 L 188.35 130.217831 M 96.353906 139.41705 L 188.35 139.41705 M 96.353906 148.616269 L 188.35 148.616269 M 96.353906 157.815488 L 188.35 157.815488 M 96.353906 167.014706 L 188.35 167.014706 M 96.353906 176.213925 L 188.35 176.213925 M 96.353906 185.413144 L 188.35 185.413144 M 96.353906 194.612363 L 188.35 194.612363 M 96.353906 203.811581 L 188.35 203.811581 M 96.353906 213.0108 L 188.35 213.0108 M 96.353906 222.210019 L 188.35 222.210019 " transform="matrix(1,0,0,-1,-93.6,233.3858)"/>
<g clip-path="url(#clip1)" clip-rule="nonzero">
<path style="fill:none;stroke-width:1.21;stroke-linecap:butt;stroke-linejoin:miter;stroke:rgb(93.609619%,18.434143%,17.378235%);stroke-opacity:1;stroke-miterlimit:4;" d="M 96.353906 203.811581 L 184.533594 159.733456 " transform="matrix(1,0,0,-1,-93.6,233.3858)"/>
</g>
<path style=" stroke:none;fill-rule:nonzero;fill:rgb(93.609619%,18.434143%,17.378235%);fill-opacity:1;" d="M 94.75 75.570312 L 88.265625 75.066406 L 90.648438 73.511719 L 90.472656 70.671875 L 94.75 75.570312 "/>
<path style="fill:none;stroke-width:0.7;stroke-linecap:butt;stroke-linejoin:miter;stroke:rgb(13.729858%,12.159729%,12.548828%);stroke-opacity:1;stroke-miterlimit:4;" d="M 96.353906 229.245175 L 96.353906 130.217831 " transform="matrix(1,0,0,-1,-93.6,233.3858)"/>
<path style=" stroke:none;fill-rule:nonzero;fill:rgb(13.729858%,12.159729%,12.548828%);fill-opacity:1;" d="M 2.753906 1.175781 L 4.460938 5.355469 L 2.753906 4.363281 L 1.046875 5.355469 L 2.753906 1.175781 "/>
<path style="fill:none;stroke-width:0.7;stroke-linecap:butt;stroke-linejoin:miter;stroke:rgb(13.729858%,12.159729%,12.548828%);stroke-opacity:1;stroke-miterlimit:4;" d="M 96.353906 130.217831 L 195.385156 130.217831 " transform="matrix(1,0,0,-1,-93.6,233.3858)"/>
<g clip-path="url(#clip2)" clip-rule="nonzero">
<path style=" stroke:none;fill-rule:nonzero;fill:rgb(13.729858%,12.159729%,12.548828%);fill-opacity:1;" d="M 104.75 103.167969 L 100.570312 104.875 L 101.5625 103.167969 L 100.570312 101.460938 L 104.75 103.167969 "/>
</g>
<path style="fill:none;stroke-width:0.5;stroke-linecap:butt;stroke-linejoin:miter;stroke:rgb(100%,100%,100%);stroke-opacity:1;stroke-miterlimit:10;" d="M 41.998437 803.999081 L 41.998437 779.999081 M -0.0015625 761.999081 L 23.998437 761.999081 M 653.998438 803.999081 L 653.998438 779.999081 M 695.998438 761.999081 L 671.998438 761.999081 M 41.998437 -0.00091875 L 41.998437 23.999081 M -0.0015625 41.999081 L 23.998437 41.999081 M 653.998438 -0.00091875 L 653.998438 23.999081 M 695.998438 41.999081 L 671.998438 41.999081 " transform="matrix(1,0,0,-1,-93.6,233.3858)"/>
<path style="fill:none;stroke-width:0.25;stroke-linecap:butt;stroke-linejoin:miter;stroke:rgb(0%,0%,0%);stroke-opacity:1;stroke-miterlimit:10;" d="M 41.998437 803.999081 L 41.998437 779.999081 M -0.0015625 761.999081 L 23.998437 761.999081 M 653.998438 803.999081 L 653.998438 779.999081 M 695.998438 761.999081 L 671.998438 761.999081 M 41.998437 -0.00091875 L 41.998437 23.999081 M -0.0015625 41.999081 L 23.998437 41.999081 M 653.998438 -0.00091875 L 653.998438 23.999081 M 695.998438 41.999081 L 671.998438 41.999081 " transform="matrix(1,0,0,-1,-93.6,233.3858)"/>
<path style="fill:none;stroke-width:0.5;stroke-linecap:butt;stroke-linejoin:miter;stroke:rgb(100%,100%,100%);stroke-opacity:1;stroke-miterlimit:10;" d="M 323.998438 791.999081 L 371.998438 791.999081 M 323.998438 11.999081 L 371.998438 11.999081 M 11.998437 425.999081 L 11.998437 377.999081 M 683.998438 425.999081 L 683.998438 377.999081 M 347.998438 803.999081 L 347.998438 779.999081 M 347.998438 23.999081 L 347.998438 -0.00091875 M -0.0015625 401.999081 L 23.998437 401.999081 M 671.998438 401.999081 L 695.998438 401.999081 M 347.998438 791.999081 L 353.998438 791.999081 C 353.998438 788.686581 351.310938 785.999081 347.998438 785.999081 C 344.689844 785.999081 341.998438 788.686581 341.998438 791.999081 C 341.998438 795.311581 344.689844 797.999081 347.998438 797.999081 C 351.310938 797.999081 353.998438 795.311581 353.998438 791.999081 M 347.998438 11.999081 L 353.998438 11.999081 C 353.998438 8.686581 351.310938 5.999081 347.998438 5.999081 C 344.689844 5.999081 341.998438 8.686581 341.998438 11.999081 C 341.998438 15.311581 344.689844 17.999081 347.998438 17.999081 C 351.310938 17.999081 353.998438 15.311581 353.998438 11.999081 M 11.998437 401.999081 L 17.998437 401.999081 C 17.998437 398.686581 15.310937 395.999081 11.998437 395.999081 C 8.689844 395.999081 5.998437 398.686581 5.998437 401.999081 C 5.998437 405.311581 8.689844 407.999081 11.998437 407.999081 C 15.310937 407.999081 17.998437 405.311581 17.998437 401.999081 M 683.998438 401.999081 L 689.998438 401.999081 C 689.998438 398.686581 687.310938 395.999081 683.998438 395.999081 C 680.689844 395.999081 677.998438 398.686581 677.998438 401.999081 C 677.998438 405.311581 680.689844 407.999081 683.998438 407.999081 C 687.310938 407.999081 689.998438 405.311581 689.998438 401.999081 " transform="matrix(1,0,0,-1,-93.6,233.3858)"/>
<path style="fill:none;stroke-width:0.25;stroke-linecap:butt;stroke-linejoin:miter;stroke:rgb(0%,0%,0%);stroke-opacity:1;stroke-miterlimit:10;" d="M 323.998438 791.999081 L 371.998438 791.999081 M 323.998438 11.999081 L 371.998438 11.999081 M 11.998437 425.999081 L 11.998437 377.999081 M 683.998438 425.999081 L 683.998438 377.999081 M 347.998438 803.999081 L 347.998438 779.999081 M 347.998438 23.999081 L 347.998438 -0.00091875 M -0.0015625 401.999081 L 23.998437 401.999081 M 671.998438 401.999081 L 695.998438 401.999081 M 347.998438 791.999081 L 353.998438 791.999081 C 353.998438 788.686581 351.310938 785.999081 347.998438 785.999081 C 344.689844 785.999081 341.998438 788.686581 341.998438 791.999081 C 341.998438 795.311581 344.689844 797.999081 347.998438 797.999081 C 351.310938 797.999081 353.998438 795.311581 353.998438 791.999081 M 347.998438 11.999081 L 353.998438 11.999081 C 353.998438 8.686581 351.310938 5.999081 347.998438 5.999081 C 344.689844 5.999081 341.998438 8.686581 341.998438 11.999081 C 341.998438 15.311581 344.689844 17.999081 347.998438 17.999081 C 351.310938 17.999081 353.998438 15.311581 353.998438 11.999081 M 11.998437 401.999081 L 17.998437 401.999081 C 17.998437 398.686581 15.310937 395.999081 11.998437 395.999081 C 8.689844 395.999081 5.998437 398.686581 5.998437 401.999081 C 5.998437 405.311581 8.689844 407.999081 11.998437 407.999081 C 15.310937 407.999081 17.998437 405.311581 17.998437 401.999081 M 683.998438 401.999081 L 689.998438 401.999081 C 689.998438 398.686581 687.310938 395.999081 683.998438 395.999081 C 680.689844 395.999081 677.998438 398.686581 677.998438 401.999081 C 677.998438 405.311581 680.689844 407.999081 683.998438 407.999081 C 687.310938 407.999081 689.998438 405.311581 689.998438 401.999081 " transform="matrix(1,0,0,-1,-93.6,233.3858)"/>
</g>
</svg>
