<?xml version="1.0" encoding="UTF-8"?>
<svg xmlns="http://www.w3.org/2000/svg" xmlns:xlink="http://www.w3.org/1999/xlink" width="97.1717pt" height="95.4141pt" viewBox="0 0 97.1717 95.4141" version="1.1">
<defs>
<clipPath id="clip1">
  <path d="M 2 0.136719 L 95 0.136719 L 95 94 L 2 94 Z M 2 0.136719 "/>
</clipPath>
<clipPath id="clip2">
  <path d="M 1.972656 9 L 95.972656 9 L 95.972656 85 L 1.972656 85 Z M 1.972656 9 "/>
</clipPath>
<clipPath id="clip3">
  <path d="M 0 0 L 97.171875 0 L 97.171875 95.414062 L 0 95.414062 Z M 0 0 "/>
</clipPath>
</defs>
<g id="surface1">
<g clip-path="url(#clip1)" clip-rule="nonzero">
<path style="fill:none;stroke-width:0.35;stroke-linecap:butt;stroke-linejoin:miter;stroke:rgb(74.119568%,73.648071%,73.765564%);stroke-opacity:1;stroke-miterlimit:4;" d="M 128.8408 383.472519 L 220.829081 383.472519 L 220.829081 291.468613 L 128.8408 291.468613 Z M 138.040019 291.468613 L 138.040019 383.472519 M 147.239238 291.468613 L 147.239238 383.472519 M 156.438456 291.468613 L 156.438456 383.472519 M 165.637675 291.468613 L 165.637675 383.472519 M 174.836894 291.468613 L 174.836894 383.472519 M 184.036113 291.468613 L 184.036113 383.472519 M 193.231425 291.468613 L 193.231425 383.472519 M 202.43455 291.468613 L 202.43455 383.472519 M 211.629863 291.468613 L 211.629863 383.472519 M 128.8408 374.269394 L 220.766581 374.269394 M 128.8408 365.070175 L 220.766581 365.070175 M 128.8408 355.870956 L 220.766581 355.870956 M 128.8408 346.667831 L 220.766581 346.667831 M 128.8408 337.468613 L 220.766581 337.468613 M 128.8408 328.269394 L 220.766581 328.269394 M 128.8408 319.070175 L 220.766581 319.070175 M 128.8408 309.86705 L 220.766581 309.86705 M 128.8408 300.671738 L 220.766581 300.671738 " transform="matrix(1,0,0,-1,-126.0283,384.5858)"/>
</g>
<path style=" stroke:none;fill-rule:nonzero;fill:rgb(93.609619%,18.434143%,17.378235%);fill-opacity:1;" d="M 21.207031 30.714844 C 22.3125 30.714844 23.207031 29.820312 23.207031 28.714844 C 23.207031 27.613281 22.3125 26.714844 21.207031 26.714844 C 20.101562 26.714844 19.207031 27.613281 19.207031 28.714844 C 19.207031 29.820312 20.101562 30.714844 21.207031 30.714844 "/>
<g clip-path="url(#clip2)" clip-rule="nonzero">
<path style="fill:none;stroke-width:1.2;stroke-linecap:butt;stroke-linejoin:miter;stroke:rgb(93.609619%,18.434143%,17.378235%);stroke-opacity:1;stroke-miterlimit:4;" d="M 128.8408 368.214706 L 220.829081 306.476425 " transform="matrix(1,0,0,-1,-126.0283,384.5858)"/>
</g>
<path style=" stroke:none;fill-rule:nonzero;fill:rgb(93.609619%,18.434143%,17.378235%);fill-opacity:1;" d="M 76.277344 67.675781 C 77.382812 67.675781 78.277344 66.78125 78.277344 65.675781 C 78.277344 64.570312 77.382812 63.675781 76.277344 63.675781 C 75.171875 63.675781 74.277344 64.570312 74.277344 65.675781 C 74.277344 66.78125 75.171875 67.675781 76.277344 67.675781 "/>
<g clip-path="url(#clip3)" clip-rule="nonzero">
<path style="fill:none;stroke-width:0.5;stroke-linecap:butt;stroke-linejoin:miter;stroke:rgb(100%,100%,100%);stroke-opacity:1;stroke-miterlimit:10;" d="M 42.000956 803.999863 L 42.000956 779.999863 M 0.00095625 761.999863 L 24.000956 761.999863 M 654.000956 803.999863 L 654.000956 779.999863 M 696.000956 761.999863 L 672.000956 761.999863 M 42.000956 -0.0001375 L 42.000956 23.999863 M 0.00095625 41.999863 L 24.000956 41.999863 M 654.000956 -0.0001375 L 654.000956 23.999863 M 696.000956 41.999863 L 672.000956 41.999863 " transform="matrix(1,0,0,-1,-126.0283,384.5858)"/>
<path style="fill:none;stroke-width:0.25;stroke-linecap:butt;stroke-linejoin:miter;stroke:rgb(0%,0%,0%);stroke-opacity:1;stroke-miterlimit:10;" d="M 42.000956 803.999863 L 42.000956 779.999863 M 0.00095625 761.999863 L 24.000956 761.999863 M 654.000956 803.999863 L 654.000956 779.999863 M 696.000956 761.999863 L 672.000956 761.999863 M 42.000956 -0.0001375 L 42.000956 23.999863 M 0.00095625 41.999863 L 24.000956 41.999863 M 654.000956 -0.0001375 L 654.000956 23.999863 M 696.000956 41.999863 L 672.000956 41.999863 " transform="matrix(1,0,0,-1,-126.0283,384.5858)"/>
<path style="fill:none;stroke-width:0.5;stroke-linecap:butt;stroke-linejoin:miter;stroke:rgb(100%,100%,100%);stroke-opacity:1;stroke-miterlimit:10;" d="M 324.000956 791.999863 L 372.000956 791.999863 M 324.000956 11.999863 L 372.000956 11.999863 M 12.000956 425.999863 L 12.000956 377.999863 M 684.000956 425.999863 L 684.000956 377.999863 M 348.000956 803.999863 L 348.000956 779.999863 M 348.000956 23.999863 L 348.000956 -0.0001375 M 0.00095625 401.999863 L 24.000956 401.999863 M 672.000956 401.999863 L 696.000956 401.999863 M 348.000956 791.999863 L 354.000956 791.999863 C 354.000956 788.687363 351.313456 785.999863 348.000956 785.999863 C 344.688456 785.999863 342.000956 788.687363 342.000956 791.999863 C 342.000956 795.312363 344.688456 797.999863 348.000956 797.999863 C 351.313456 797.999863 354.000956 795.312363 354.000956 791.999863 M 348.000956 11.999863 L 354.000956 11.999863 C 354.000956 8.687363 351.313456 5.999863 348.000956 5.999863 C 344.688456 5.999863 342.000956 8.687363 342.000956 11.999863 C 342.000956 15.312363 344.688456 17.999863 348.000956 17.999863 C 351.313456 17.999863 354.000956 15.312363 354.000956 11.999863 M 12.000956 401.999863 L 18.000956 401.999863 C 18.000956 398.687363 15.313456 395.999863 12.000956 395.999863 C 8.688456 395.999863 6.000956 398.687363 6.000956 401.999863 C 6.000956 405.312363 8.688456 407.999863 12.000956 407.999863 C 15.313456 407.999863 18.000956 405.312363 18.000956 401.999863 M 684.000956 401.999863 L 690.000956 401.999863 C 690.000956 398.687363 687.313456 395.999863 684.000956 395.999863 C 680.688456 395.999863 678.000956 398.687363 678.000956 401.999863 C 678.000956 405.312363 680.688456 407.999863 684.000956 407.999863 C 687.313456 407.999863 690.000956 405.312363 690.000956 401.999863 " transform="matrix(1,0,0,-1,-126.0283,384.5858)"/>
<path style="fill:none;stroke-width:0.25;stroke-linecap:butt;stroke-linejoin:miter;stroke:rgb(0%,0%,0%);stroke-opacity:1;stroke-miterlimit:10;" d="M 324.000956 791.999863 L 372.000956 791.999863 M 324.000956 11.999863 L 372.000956 11.999863 M 12.000956 425.999863 L 12.000956 377.999863 M 684.000956 425.999863 L 684.000956 377.999863 M 348.000956 803.999863 L 348.000956 779.999863 M 348.000956 23.999863 L 348.000956 -0.0001375 M 0.00095625 401.999863 L 24.000956 401.999863 M 672.000956 401.999863 L 696.000956 401.999863 M 348.000956 791.999863 L 354.000956 791.999863 C 354.000956 788.687363 351.313456 785.999863 348.000956 785.999863 C 344.688456 785.999863 342.000956 788.687363 342.000956 791.999863 C 342.000956 795.312363 344.688456 797.999863 348.000956 797.999863 C 351.313456 797.999863 354.000956 795.312363 354.000956 791.999863 M 348.000956 11.999863 L 354.000956 11.999863 C 354.000956 8.687363 351.313456 5.999863 348.000956 5.999863 C 344.688456 5.999863 342.000956 8.687363 342.000956 11.999863 C 342.000956 15.312363 344.688456 17.999863 348.000956 17.999863 C 351.313456 17.999863 354.000956 15.312363 354.000956 11.999863 M 12.000956 401.999863 L 18.000956 401.999863 C 18.000956 398.687363 15.313456 395.999863 12.000956 395.999863 C 8.688456 395.999863 6.000956 398.687363 6.000956 401.999863 C 6.000956 405.312363 8.688456 407.999863 12.000956 407.999863 C 15.313456 407.999863 18.000956 405.312363 18.000956 401.999863 M 684.000956 401.999863 L 690.000956 401.999863 C 690.000956 398.687363 687.313456 395.999863 684.000956 395.999863 C 680.688456 395.999863 678.000956 398.687363 678.000956 401.999863 C 678.000956 405.312363 680.688456 407.999863 684.000956 407.999863 C 687.313456 407.999863 690.000956 405.312363 690.000956 401.999863 " transform="matrix(1,0,0,-1,-126.0283,384.5858)"/>
</g>
</g>
</svg>
