<?xml version="1.0" encoding="UTF-8" standalone="no"?>
<!-- Created with Inkscape (http://www.inkscape.org/) -->

<svg
   xmlns:dc="http://purl.org/dc/elements/1.1/"
   xmlns:cc="http://creativecommons.org/ns#"
   xmlns:rdf="http://www.w3.org/1999/02/22-rdf-syntax-ns#"
   xmlns:svg="http://www.w3.org/2000/svg"
   xmlns="http://www.w3.org/2000/svg"
   xmlns:sodipodi="http://sodipodi.sourceforge.net/DTD/sodipodi-0.dtd"
   xmlns:inkscape="http://www.inkscape.org/namespaces/inkscape"
   width="2.8328609in"
   height="0.23936528in"
   viewBox="0 0 71.954668 6.0798781"
   version="1.1"
   id="svg8911"
   inkscape:version="0.92.2 (5c3e80d, 2017-08-06)"
   sodipodi:docname="fig-ans-a-2-43.svg">
  <defs
     id="defs8905">
    <clipPath
       clipPathUnits="userSpaceOnUse"
       id="clipPath8872">
      <rect
         id="rect8874"
         width="209.86201"
         height="21.733847"
         x="89.506691"
         y="-370.49353"
         style="stroke-width:0.75"
         transform="scale(1,-1)" />
    </clipPath>
    <clipPath
       clipPathUnits="userSpaceOnUse"
       id="clipPath7872">
      <path
         d="M 28,776 H 668 V 28 H 28 Z"
         id="path7870"
         inkscape:connector-curvature="0" />
    </clipPath>
    <clipPath
       clipPathUnits="userSpaceOnUse"
       id="clipPath7878">
      <path
         d="m 0,804.015 h 696 v -804 H 0 Z"
         id="path7876"
         inkscape:connector-curvature="0" />
    </clipPath>
  </defs>
  <sodipodi:namedview
     id="base"
     pagecolor="#ffffff"
     bordercolor="#666666"
     borderopacity="1.0"
     inkscape:pageopacity="0.0"
     inkscape:pageshadow="2"
     inkscape:zoom="4.4529481"
     inkscape:cx="135.97733"
     inkscape:cy="11.489535"
     inkscape:document-units="mm"
     inkscape:current-layer="g7862"
     showgrid="false"
     inkscape:window-width="1366"
     inkscape:window-height="745"
     inkscape:window-x="-8"
     inkscape:window-y="-8"
     inkscape:window-maximized="1"
     fit-margin-top="0"
     fit-margin-left="0"
     fit-margin-right="0"
     fit-margin-bottom="0"
     units="in" />
  <metadata
     id="metadata8908">
    <rdf:RDF>
      <cc:Work
         rdf:about="">
        <dc:format>image/svg+xml</dc:format>
        <dc:type
           rdf:resource="http://purl.org/dc/dcmitype/StillImage" />
        <dc:title></dc:title>
      </cc:Work>
    </rdf:RDF>
  </metadata>
  <g
     inkscape:label="Layer 1"
     inkscape:groupmode="layer"
     id="layer1"
     transform="translate(-69.855998,-145.79339)">
    <g
       transform="matrix(0.35277777,0,0,-0.35277777,36.635621,275.13936)"
       id="g7862"
       clip-path="url(#clipPath8872)">
      <g
         id="g7868"
         clip-path="url(#clipPath7872)">
        <g
           id="g7874"
           clip-path="url(#clipPath7878)">
          <path
             d="M 295.169,362.65 H 94.168"
             style="fill:none;stroke:#000000;stroke-width:0.69999999;stroke-linecap:butt;stroke-linejoin:miter;stroke-miterlimit:4;stroke-dasharray:none;stroke-opacity:1"
             id="path7880"
             inkscape:connector-curvature="0" />
          <path
             d="m 298.134,362.65 -4.179,-1.707 0.992,1.707 -0.992,1.707 4.179,-1.707"
             style="fill:#000000;fill-opacity:1;fill-rule:nonzero;stroke:none"
             id="path7882"
             inkscape:connector-curvature="0" />
          <path
             d="m 131.604,366.65 v -8 m 12.6,7 v -6 m 12.6,6 v -6 m 12.602,6 v -6 m 12.6,6 v -6 m -63.038,6 v -6 m -12.601,6 v -6 m 138.601,6 v -6 m -12.6,6 v -6 m -12.603,6 v -6 m -12.599,6 v -6 m 63.038,6 v -6 m 12.601,6 v -6 m -88.199,7 v -8 m 63.002,8 v -8"
             style="fill:none;stroke:#000000;stroke-width:0.5;stroke-linecap:butt;stroke-linejoin:miter;stroke-miterlimit:4;stroke-dasharray:none;stroke-opacity:1"
             id="path7884"
             inkscape:connector-curvature="0" />
          <path
             d="M 144.187,362.652 H 194.52"
             style="fill:none;stroke:#000000;stroke-width:1.20000005;stroke-linecap:butt;stroke-linejoin:miter;stroke-miterlimit:4;stroke-dasharray:none;stroke-opacity:1"
             id="path7886"
             inkscape:connector-curvature="0" />
          <path
             d="m 194.525,360.652 c -1.104,0 -2,0.896 -2,2 0,1.105 0.896,2 2,2 1.105,0 2,-0.895 2,-2 0,-1.104 -0.895,-2 -2,-2"
             style="fill:#000000;fill-opacity:1;fill-rule:nonzero;stroke:none"
             id="path7888"
             inkscape:connector-curvature="0" />
          <text
             transform="matrix(1,0,0,-1,192.3563,349.5291)"
             style="font-variant:normal;font-weight:normal;font-size:9px;font-family:'Times New Roman';-inkscape-font-specification:Times-Roman;writing-mode:lr-tb;fill:#231f20;fill-opacity:1;fill-rule:nonzero;stroke:none"
             id="text7892">
            <tspan
               x="0"
               y="0"
               id="tspan7890">0</tspan>
          </text>
          <text
             transform="matrix(1,0,0,-1,136.4654,349.4157)"
             style="font-variant:normal;font-weight:normal;font-size:9px;font-family:Symbol;-inkscape-font-specification:Symbol;writing-mode:lr-tb;fill:#231f20;fill-opacity:1;fill-rule:nonzero;stroke:none"
             id="text7896">
            <tspan
               x="0"
               y="0"
               id="tspan7894">−</tspan>
          </text>
          <text
             transform="matrix(1,0,0,-1,141.4064,349.4157)"
             style="font-variant:normal;font-weight:normal;font-size:9px;font-family:'Times New Roman';-inkscape-font-specification:Times-Roman;writing-mode:lr-tb;fill:#231f20;fill-opacity:1;fill-rule:nonzero;stroke:none"
             id="text7900">
            <tspan
               x="0"
               y="0"
               id="tspan7898">4</tspan>
          </text>
          <path
             d="m 144.187,360.652 c 1.104,0 2,0.896 2,2 0,1.105 -0.896,2 -2,2 -1.105,0 -2,-0.895 -2,-2 0,-1.104 0.895,-2 2,-2"
             style="fill:#000000;fill-opacity:1;fill-rule:nonzero;stroke:none"
             id="path7902"
             inkscape:connector-curvature="0" />
        </g>
      </g>
    </g>
  </g>
</svg>
