<?xml version="1.0" encoding="UTF-8"?>
<svg xmlns="http://www.w3.org/2000/svg" xmlns:xlink="http://www.w3.org/1999/xlink" width="106.1858pt" height="106.1858pt" viewBox="0 0 106.1858 106.1858" version="1.1">
<defs>
<clipPath id="clip1">
  <path d="M 0.601562 9 L 98 9 L 98 64 L 0.601562 64 Z M 0.601562 9 "/>
</clipPath>
<clipPath id="clip2">
  <path d="M 1 0.371094 L 5 0.371094 L 5 6 L 1 6 Z M 1 0.371094 "/>
</clipPath>
</defs>
<g id="surface1">
<path style="fill:none;stroke-width:0.35;stroke-linecap:butt;stroke-linejoin:miter;stroke:rgb(74.119568%,73.648071%,73.765564%);stroke-opacity:1;stroke-miterlimit:4;" d="M 105.799219 361.039062 L 105.799219 269.046875 M 114.998437 361.039062 L 114.998437 269.046875 M 124.197656 361.039062 L 124.197656 269.046875 M 133.400781 361.039062 L 133.400781 269.046875 M 142.6 361.039062 L 142.6 269.046875 M 151.799219 361.039062 L 151.799219 269.046875 M 160.998437 361.039062 L 160.998437 269.046875 M 170.197656 361.039062 L 170.197656 269.046875 M 179.396875 361.039062 L 179.396875 269.046875 M 188.596094 361.039062 L 188.596094 269.046875 M 96.6 269.046875 L 188.596094 269.046875 M 96.6 278.246094 L 188.596094 278.246094 M 96.6 287.445312 L 188.596094 287.445312 M 96.6 296.644531 L 188.596094 296.644531 M 96.6 305.84375 L 188.596094 305.84375 M 96.6 315.042969 L 188.596094 315.042969 M 96.6 324.242188 L 188.596094 324.242188 M 96.6 333.441406 L 188.596094 333.441406 M 96.6 342.640625 L 188.596094 342.640625 M 96.6 351.839844 L 188.596094 351.839844 M 96.6 361.039062 L 188.596094 361.039062 " transform="matrix(1,0,0,-1,-93.6,372)"/>
<path style="fill:none;stroke-width:0.7;stroke-linecap:butt;stroke-linejoin:miter;stroke:rgb(13.729858%,12.159729%,12.548828%);stroke-opacity:1;stroke-miterlimit:4;" d="M 96.6 269.046875 L 195.63125 269.046875 " transform="matrix(1,0,0,-1,-93.6,372)"/>
<path style=" stroke:none;fill-rule:nonzero;fill:rgb(13.729858%,12.159729%,12.548828%);fill-opacity:1;" d="M 104.996094 102.953125 L 100.816406 104.660156 L 101.808594 102.953125 L 100.816406 101.246094 L 104.996094 102.953125 "/>
<g clip-path="url(#clip1)" clip-rule="nonzero">
<path style="fill:none;stroke-width:1.2;stroke-linecap:butt;stroke-linejoin:miter;stroke:rgb(93.609619%,18.434143%,17.378235%);stroke-opacity:1;stroke-miterlimit:4;" d="M 96.6 315.046875 C 98.498437 324.066406 106.353906 334.179688 133.400781 342.640625 C 158.951562 350.628906 171.639062 352.898438 184.373437 355.523438 " transform="matrix(1,0,0,-1,-93.6,372)"/>
</g>
<path style=" stroke:none;fill-rule:nonzero;fill:rgb(93.609619%,18.434143%,17.378235%);fill-opacity:1;" d="M 94.960938 15.832031 L 89.433594 19.152344 L 90.460938 16.527344 L 88.691406 14.332031 L 94.960938 15.832031 "/>
<path style="fill:none;stroke-width:0.7;stroke-linecap:butt;stroke-linejoin:miter;stroke:rgb(13.729858%,12.159729%,12.548828%);stroke-opacity:1;stroke-miterlimit:4;" d="M 96.6 368.074219 L 96.6 269.046875 " transform="matrix(1,0,0,-1,-93.6,372)"/>
<g clip-path="url(#clip2)" clip-rule="nonzero">
<path style=" stroke:none;fill-rule:nonzero;fill:rgb(13.729858%,12.159729%,12.548828%);fill-opacity:1;" d="M 3 0.960938 L 4.707031 5.140625 L 3 4.148438 L 1.292969 5.140625 L 3 0.960938 "/>
</g>
<path style="fill:none;stroke-width:0.5;stroke-linecap:butt;stroke-linejoin:miter;stroke:rgb(100%,100%,100%);stroke-opacity:1;stroke-miterlimit:10;" d="M 41.998437 804 L 41.998437 780 M -0.0015625 762 L 23.998437 762 M 653.998438 804 L 653.998438 780 M 695.998438 762 L 671.998438 762 M 41.998437 0 L 41.998437 24 M -0.0015625 42 L 23.998437 42 M 653.998438 0 L 653.998438 24 M 695.998438 42 L 671.998438 42 " transform="matrix(1,0,0,-1,-93.6,372)"/>
<path style="fill:none;stroke-width:0.25;stroke-linecap:butt;stroke-linejoin:miter;stroke:rgb(0%,0%,0%);stroke-opacity:1;stroke-miterlimit:10;" d="M 41.998437 804 L 41.998437 780 M -0.0015625 762 L 23.998437 762 M 653.998438 804 L 653.998438 780 M 695.998438 762 L 671.998438 762 M 41.998437 0 L 41.998437 24 M -0.0015625 42 L 23.998437 42 M 653.998438 0 L 653.998438 24 M 695.998438 42 L 671.998438 42 " transform="matrix(1,0,0,-1,-93.6,372)"/>
<path style="fill:none;stroke-width:0.5;stroke-linecap:butt;stroke-linejoin:miter;stroke:rgb(100%,100%,100%);stroke-opacity:1;stroke-miterlimit:10;" d="M 323.998438 792 L 371.998438 792 M 323.998438 12 L 371.998438 12 M 11.998437 426 L 11.998437 378 M 683.998438 426 L 683.998438 378 M 347.998438 804 L 347.998438 780 M 347.998438 24 L 347.998438 0 M -0.0015625 402 L 23.998437 402 M 671.998438 402 L 695.998438 402 M 347.998438 792 L 353.998438 792 C 353.998438 788.6875 351.310938 786 347.998438 786 C 344.689844 786 341.998438 788.6875 341.998438 792 C 341.998438 795.3125 344.689844 798 347.998438 798 C 351.310938 798 353.998438 795.3125 353.998438 792 M 347.998438 12 L 353.998438 12 C 353.998438 8.6875 351.310938 6 347.998438 6 C 344.689844 6 341.998438 8.6875 341.998438 12 C 341.998438 15.3125 344.689844 18 347.998438 18 C 351.310938 18 353.998438 15.3125 353.998438 12 M 11.998437 402 L 17.998437 402 C 17.998437 398.6875 15.310937 396 11.998437 396 C 8.689844 396 5.998437 398.6875 5.998437 402 C 5.998437 405.3125 8.689844 408 11.998437 408 C 15.310937 408 17.998437 405.3125 17.998437 402 M 683.998438 402 L 689.998438 402 C 689.998438 398.6875 687.310938 396 683.998438 396 C 680.689844 396 677.998438 398.6875 677.998438 402 C 677.998438 405.3125 680.689844 408 683.998438 408 C 687.310938 408 689.998438 405.3125 689.998438 402 " transform="matrix(1,0,0,-1,-93.6,372)"/>
<path style="fill:none;stroke-width:0.25;stroke-linecap:butt;stroke-linejoin:miter;stroke:rgb(0%,0%,0%);stroke-opacity:1;stroke-miterlimit:10;" d="M 323.998438 792 L 371.998438 792 M 323.998438 12 L 371.998438 12 M 11.998437 426 L 11.998437 378 M 683.998438 426 L 683.998438 378 M 347.998438 804 L 347.998438 780 M 347.998438 24 L 347.998438 0 M -0.0015625 402 L 23.998437 402 M 671.998438 402 L 695.998438 402 M 347.998438 792 L 353.998438 792 C 353.998438 788.6875 351.310938 786 347.998438 786 C 344.689844 786 341.998438 788.6875 341.998438 792 C 341.998438 795.3125 344.689844 798 347.998438 798 C 351.310938 798 353.998438 795.3125 353.998438 792 M 347.998438 12 L 353.998438 12 C 353.998438 8.6875 351.310938 6 347.998438 6 C 344.689844 6 341.998438 8.6875 341.998438 12 C 341.998438 15.3125 344.689844 18 347.998438 18 C 351.310938 18 353.998438 15.3125 353.998438 12 M 11.998437 402 L 17.998437 402 C 17.998437 398.6875 15.310937 396 11.998437 396 C 8.689844 396 5.998437 398.6875 5.998437 402 C 5.998437 405.3125 8.689844 408 11.998437 408 C 15.310937 408 17.998437 405.3125 17.998437 402 M 683.998438 402 L 689.998438 402 C 689.998438 398.6875 687.310938 396 683.998438 396 C 680.689844 396 677.998438 398.6875 677.998438 402 C 677.998438 405.3125 680.689844 408 683.998438 408 C 687.310938 408 689.998438 405.3125 689.998438 402 " transform="matrix(1,0,0,-1,-93.6,372)"/>
</g>
</svg>
