<?xml version="1.0" encoding="UTF-8"?>
<svg xmlns="http://www.w3.org/2000/svg" xmlns:xlink="http://www.w3.org/1999/xlink" width="99.0425pt" height="82.8284pt" viewBox="0 0 99.0425 82.8284" version="1.1">
<defs>
<clipPath id="clip1">
  <path d="M 0.574219 16 L 97.574219 16 L 97.574219 67 L 0.574219 67 Z M 0.574219 16 "/>
</clipPath>
<clipPath id="clip2">
  <path d="M 93 76 L 97.574219 76 L 97.574219 80 L 93 80 Z M 93 76 "/>
</clipPath>
<clipPath id="clip3">
  <path d="M 3 2.101562 L 7 2.101562 L 7 7 L 3 7 Z M 3 2.101562 "/>
</clipPath>
<clipPath id="clip4">
  <path d="M 0 0 L 99.042969 0 L 99.042969 82.828125 L 0 82.828125 Z M 0 0 "/>
</clipPath>
</defs>
<g id="surface1">
<g clip-path="url(#clip1)" clip-rule="nonzero">
<path style="fill:none;stroke-width:1.2;stroke-linecap:butt;stroke-linejoin:miter;stroke:rgb(12.626648%,33.805847%,68.193054%);stroke-opacity:1;stroke-miterlimit:4;" d="M 363.420175 643.953906 L 452.490488 680.215625 " transform="matrix(1,0,0,-1,-358.1858,703.2)"/>
</g>
<path style="fill:none;stroke-width:0.7;stroke-linecap:butt;stroke-linejoin:miter;stroke:rgb(13.729858%,12.159729%,12.548828%);stroke-opacity:1;stroke-miterlimit:4;" d="M 452.791269 625.465625 L 359.627206 625.465625 " transform="matrix(1,0,0,-1,-358.1858,703.2)"/>
<g clip-path="url(#clip2)" clip-rule="nonzero">
<path style=" stroke:none;fill-rule:nonzero;fill:rgb(13.729858%,12.159729%,12.548828%);fill-opacity:1;" d="M 97.570312 77.734375 L 93.390625 79.441406 L 94.382812 77.734375 L 93.390625 76.027344 L 97.570312 77.734375 "/>
</g>
<path style=" stroke:none;fill-rule:nonzero;fill:rgb(93.609619%,18.434143%,17.378235%);fill-opacity:1;" d="M 87.921875 27.386719 C 87.921875 28.492188 87.023438 29.390625 85.921875 29.390625 C 84.8125 29.390625 83.921875 28.492188 83.921875 27.386719 C 83.921875 26.285156 84.8125 25.390625 85.921875 25.390625 C 87.023438 25.390625 87.921875 26.285156 87.921875 27.386719 "/>
<path style=" stroke:none;fill-rule:nonzero;fill:rgb(93.609619%,18.434143%,17.378235%);fill-opacity:1;" d="M 78.484375 30.242188 C 78.484375 31.34375 77.585938 32.242188 76.484375 32.242188 C 75.378906 32.242188 74.484375 31.34375 74.484375 30.242188 C 74.484375 29.136719 75.378906 28.242188 76.484375 28.242188 C 77.585938 28.242188 78.484375 29.136719 78.484375 30.242188 "/>
<path style=" stroke:none;fill-rule:nonzero;fill:rgb(93.609619%,18.434143%,17.378235%);fill-opacity:1;" d="M 69.996094 40.609375 C 69.996094 41.714844 69.097656 42.609375 67.996094 42.609375 C 66.890625 42.609375 65.996094 41.714844 65.996094 40.609375 C 65.996094 39.507812 66.890625 38.609375 67.996094 38.609375 C 69.097656 38.609375 69.996094 39.507812 69.996094 40.609375 "/>
<path style=" stroke:none;fill-rule:nonzero;fill:rgb(93.609619%,18.434143%,17.378235%);fill-opacity:1;" d="M 69.996094 36.160156 C 69.996094 37.265625 69.097656 38.160156 67.996094 38.160156 C 66.890625 38.160156 65.996094 37.265625 65.996094 36.160156 C 65.996094 35.058594 66.890625 34.160156 67.996094 34.160156 C 69.097656 34.160156 69.996094 35.058594 69.996094 36.160156 "/>
<path style=" stroke:none;fill-rule:nonzero;fill:rgb(93.609619%,18.434143%,17.378235%);fill-opacity:1;" d="M 61.347656 38.066406 C 61.347656 39.167969 60.453125 40.066406 59.347656 40.066406 C 58.246094 40.066406 57.347656 39.167969 57.347656 38.066406 C 57.347656 36.964844 58.246094 36.066406 59.347656 36.066406 C 60.453125 36.066406 61.347656 36.964844 61.347656 38.066406 "/>
<path style=" stroke:none;fill-rule:nonzero;fill:rgb(93.609619%,18.434143%,17.378235%);fill-opacity:1;" d="M 42.660156 49.765625 C 42.660156 50.867188 41.765625 51.765625 40.660156 51.765625 C 39.554688 51.765625 38.660156 50.867188 38.660156 49.765625 C 38.660156 48.660156 39.554688 47.765625 40.660156 47.765625 C 41.765625 47.765625 42.660156 48.660156 42.660156 49.765625 "/>
<path style=" stroke:none;fill-rule:nonzero;fill:rgb(93.609619%,18.434143%,17.378235%);fill-opacity:1;" d="M 16.210938 55.59375 C 16.210938 56.699219 15.3125 57.59375 14.210938 57.59375 C 13.105469 57.59375 12.210938 56.699219 12.210938 55.59375 C 12.210938 54.492188 13.105469 53.59375 14.210938 53.59375 C 15.3125 53.59375 16.210938 54.492188 16.210938 55.59375 "/>
<path style="fill:none;stroke-width:0.7;stroke-linecap:butt;stroke-linejoin:miter;stroke:rgb(13.729858%,12.159729%,12.548828%);stroke-opacity:1;stroke-miterlimit:4;" d="M 363.420175 697.996875 L 363.420175 621.66875 " transform="matrix(1,0,0,-1,-358.1858,703.2)"/>
<g clip-path="url(#clip3)" clip-rule="nonzero">
<path style=" stroke:none;fill-rule:nonzero;fill:rgb(13.729858%,12.159729%,12.548828%);fill-opacity:1;" d="M 5.234375 2.238281 L 6.941406 6.417969 L 5.234375 5.425781 L 3.527344 6.417969 L 5.234375 2.238281 "/>
</g>
<g clip-path="url(#clip4)" clip-rule="nonzero">
<path style="fill:none;stroke-width:0.5;stroke-linecap:butt;stroke-linejoin:miter;stroke:rgb(100%,100%,100%);stroke-opacity:1;stroke-miterlimit:10;" d="M 41.9983 804.000781 L 41.9983 780.000781 M -0.0017 762.000781 L 23.9983 762.000781 M 653.9983 804.000781 L 653.9983 780.000781 M 695.9983 762.000781 L 671.9983 762.000781 M 41.9983 0.00078125 L 41.9983 24.000781 M -0.0017 42.000781 L 23.9983 42.000781 M 653.9983 0.00078125 L 653.9983 24.000781 M 695.9983 42.000781 L 671.9983 42.000781 " transform="matrix(1,0,0,-1,-358.1858,703.2)"/>
<path style="fill:none;stroke-width:0.25;stroke-linecap:butt;stroke-linejoin:miter;stroke:rgb(0%,0%,0%);stroke-opacity:1;stroke-miterlimit:10;" d="M 41.9983 804.000781 L 41.9983 780.000781 M -0.0017 762.000781 L 23.9983 762.000781 M 653.9983 804.000781 L 653.9983 780.000781 M 695.9983 762.000781 L 671.9983 762.000781 M 41.9983 0.00078125 L 41.9983 24.000781 M -0.0017 42.000781 L 23.9983 42.000781 M 653.9983 0.00078125 L 653.9983 24.000781 M 695.9983 42.000781 L 671.9983 42.000781 " transform="matrix(1,0,0,-1,-358.1858,703.2)"/>
<path style="fill:none;stroke-width:0.5;stroke-linecap:butt;stroke-linejoin:miter;stroke:rgb(100%,100%,100%);stroke-opacity:1;stroke-miterlimit:10;" d="M 323.9983 792.000781 L 371.9983 792.000781 M 323.9983 12.000781 L 371.9983 12.000781 M 11.9983 426.000781 L 11.9983 378.000781 M 683.9983 426.000781 L 683.9983 378.000781 M 347.9983 804.000781 L 347.9983 780.000781 M 347.9983 24.000781 L 347.9983 0.00078125 M -0.0017 402.000781 L 23.9983 402.000781 M 671.9983 402.000781 L 695.9983 402.000781 M 347.9983 792.000781 L 353.9983 792.000781 C 353.9983 788.688281 351.3108 786.000781 347.9983 786.000781 C 344.689706 786.000781 341.9983 788.688281 341.9983 792.000781 C 341.9983 795.313281 344.689706 798.000781 347.9983 798.000781 C 351.3108 798.000781 353.9983 795.313281 353.9983 792.000781 M 347.9983 12.000781 L 353.9983 12.000781 C 353.9983 8.688281 351.3108 6.000781 347.9983 6.000781 C 344.689706 6.000781 341.9983 8.688281 341.9983 12.000781 C 341.9983 15.313281 344.689706 18.000781 347.9983 18.000781 C 351.3108 18.000781 353.9983 15.313281 353.9983 12.000781 M 11.9983 402.000781 L 17.9983 402.000781 C 17.9983 398.688281 15.3108 396.000781 11.9983 396.000781 C 8.689706 396.000781 5.9983 398.688281 5.9983 402.000781 C 5.9983 405.313281 8.689706 408.000781 11.9983 408.000781 C 15.3108 408.000781 17.9983 405.313281 17.9983 402.000781 M 683.9983 402.000781 L 689.9983 402.000781 C 689.9983 398.688281 687.3108 396.000781 683.9983 396.000781 C 680.689706 396.000781 677.9983 398.688281 677.9983 402.000781 C 677.9983 405.313281 680.689706 408.000781 683.9983 408.000781 C 687.3108 408.000781 689.9983 405.313281 689.9983 402.000781 " transform="matrix(1,0,0,-1,-358.1858,703.2)"/>
<path style="fill:none;stroke-width:0.25;stroke-linecap:butt;stroke-linejoin:miter;stroke:rgb(0%,0%,0%);stroke-opacity:1;stroke-miterlimit:10;" d="M 323.9983 792.000781 L 371.9983 792.000781 M 323.9983 12.000781 L 371.9983 12.000781 M 11.9983 426.000781 L 11.9983 378.000781 M 683.9983 426.000781 L 683.9983 378.000781 M 347.9983 804.000781 L 347.9983 780.000781 M 347.9983 24.000781 L 347.9983 0.00078125 M -0.0017 402.000781 L 23.9983 402.000781 M 671.9983 402.000781 L 695.9983 402.000781 M 347.9983 792.000781 L 353.9983 792.000781 C 353.9983 788.688281 351.3108 786.000781 347.9983 786.000781 C 344.689706 786.000781 341.9983 788.688281 341.9983 792.000781 C 341.9983 795.313281 344.689706 798.000781 347.9983 798.000781 C 351.3108 798.000781 353.9983 795.313281 353.9983 792.000781 M 347.9983 12.000781 L 353.9983 12.000781 C 353.9983 8.688281 351.3108 6.000781 347.9983 6.000781 C 344.689706 6.000781 341.9983 8.688281 341.9983 12.000781 C 341.9983 15.313281 344.689706 18.000781 347.9983 18.000781 C 351.3108 18.000781 353.9983 15.313281 353.9983 12.000781 M 11.9983 402.000781 L 17.9983 402.000781 C 17.9983 398.688281 15.3108 396.000781 11.9983 396.000781 C 8.689706 396.000781 5.9983 398.688281 5.9983 402.000781 C 5.9983 405.313281 8.689706 408.000781 11.9983 408.000781 C 15.3108 408.000781 17.9983 405.313281 17.9983 402.000781 M 683.9983 402.000781 L 689.9983 402.000781 C 689.9983 398.688281 687.3108 396.000781 683.9983 396.000781 C 680.689706 396.000781 677.9983 398.688281 677.9983 402.000781 C 677.9983 405.313281 680.689706 408.000781 683.9983 408.000781 C 687.3108 408.000781 689.9983 405.313281 689.9983 402.000781 " transform="matrix(1,0,0,-1,-358.1858,703.2)"/>
</g>
</g>
</svg>
