<?xml version="1.0" encoding="UTF-8" standalone="no"?>
<!-- Created with Inkscape (http://www.inkscape.org/) -->

<svg
   xmlns:dc="http://purl.org/dc/elements/1.1/"
   xmlns:cc="http://creativecommons.org/ns#"
   xmlns:rdf="http://www.w3.org/1999/02/22-rdf-syntax-ns#"
   xmlns:svg="http://www.w3.org/2000/svg"
   xmlns="http://www.w3.org/2000/svg"
   xmlns:sodipodi="http://sodipodi.sourceforge.net/DTD/sodipodi-0.dtd"
   xmlns:inkscape="http://www.inkscape.org/namespaces/inkscape"
   width="44.998833mm"
   height="35.277779mm"
   viewBox="0 0 44.998833 35.277779"
   version="1.1"
   id="svg3665"
   inkscape:version="0.92.2 (5c3e80d, 2017-08-06)"
   sodipodi:docname="fig-ex-a-11-15.svg">
  <defs
     id="defs3659">
    <clipPath
       clipPathUnits="userSpaceOnUse"
       id="clipPath2851">
      <path
         d="M 127,472 H 255 V 371 H 127 Z"
         id="path2849"
         inkscape:connector-curvature="0"
         style="clip-rule:evenodd" />
    </clipPath>
    <clipPath
       clipPathUnits="userSpaceOnUse"
       id="clipPath2857">
      <path
         d="M 28,776 H 668 V 28 H 28 Z"
         id="path2855"
         inkscape:connector-curvature="0" />
    </clipPath>
    <clipPath
       clipPathUnits="userSpaceOnUse"
       id="clipPath2863">
      <path
         d="M 0,804.03 H 696 V 0.03 H 0 Z"
         id="path2861"
         inkscape:connector-curvature="0" />
    </clipPath>
    <linearGradient
       x1="0.0060000001"
       y1="0"
       x2="1"
       y2="0"
       gradientUnits="userSpaceOnUse"
       gradientTransform="matrix(0,104,20.666,0,216.8965,369.1875)"
       spreadMethod="pad"
       id="linearGradient2841">
      <stop
         style="stop-opacity:1;stop-color:#9fded0"
         offset="0"
         id="stop2835" />
      <stop
         style="stop-opacity:1;stop-color:#ecf8f4"
         offset="0.542373"
         id="stop2837" />
      <stop
         style="stop-opacity:1;stop-color:#9fded0"
         offset="1"
         id="stop2839" />
    </linearGradient>
    <linearGradient
       x1="0.0060000001"
       y1="0"
       x2="1"
       y2="0"
       gradientUnits="userSpaceOnUse"
       gradientTransform="matrix(0,104,15.334,0,208.2285,369.1875)"
       spreadMethod="pad"
       id="linearGradient2821">
      <stop
         style="stop-opacity:1;stop-color:#9fded0"
         offset="0"
         id="stop2815" />
      <stop
         style="stop-opacity:1;stop-color:#ecf8f4"
         offset="0.542373"
         id="stop2817" />
      <stop
         style="stop-opacity:1;stop-color:#9fded0"
         offset="1"
         id="stop2819" />
    </linearGradient>
    <linearGradient
       x1="0.0060000001"
       y1="0"
       x2="1"
       y2="0"
       gradientUnits="userSpaceOnUse"
       gradientTransform="matrix(0,104,14.334,0,198.5625,369.1875)"
       spreadMethod="pad"
       id="linearGradient2801">
      <stop
         style="stop-opacity:1;stop-color:#9fded0"
         offset="0"
         id="stop2795" />
      <stop
         style="stop-opacity:1;stop-color:#ecf8f4"
         offset="0.542373"
         id="stop2797" />
      <stop
         style="stop-opacity:1;stop-color:#9fded0"
         offset="1"
         id="stop2799" />
    </linearGradient>
    <linearGradient
       x1="0.0060000001"
       y1="0"
       x2="1"
       y2="0"
       gradientUnits="userSpaceOnUse"
       gradientTransform="matrix(0,91.4167,13,0,234.0625,381.7715)"
       spreadMethod="pad"
       id="linearGradient2781">
      <stop
         style="stop-opacity:1;stop-color:#9fded0"
         offset="0"
         id="stop2775" />
      <stop
         style="stop-opacity:1;stop-color:#ecf8f4"
         offset="0.542373"
         id="stop2777" />
      <stop
         style="stop-opacity:1;stop-color:#9fded0"
         offset="1"
         id="stop2779" />
    </linearGradient>
    <linearGradient
       x1="0.0060000001"
       y1="0"
       x2="1"
       y2="0"
       gradientUnits="userSpaceOnUse"
       gradientTransform="matrix(0,91.4167,13,0,191.8965,381.7715)"
       spreadMethod="pad"
       id="linearGradient2761">
      <stop
         style="stop-opacity:1;stop-color:#9fded0"
         offset="0"
         id="stop2755" />
      <stop
         style="stop-opacity:1;stop-color:#ecf8f4"
         offset="0.542373"
         id="stop2757" />
      <stop
         style="stop-opacity:1;stop-color:#9fded0"
         offset="1"
         id="stop2759" />
    </linearGradient>
    <linearGradient
       x1="0.0060000001"
       y1="0"
       x2="1"
       y2="0"
       gradientUnits="userSpaceOnUse"
       gradientTransform="matrix(0,104,58.25,0,189.8125,369.1875)"
       spreadMethod="pad"
       id="linearGradient2741">
      <stop
         style="stop-opacity:1;stop-color:#40bead"
         offset="0"
         id="stop2735" />
      <stop
         style="stop-opacity:1;stop-color:#c6ebe1"
         offset="0.542373"
         id="stop2737" />
      <stop
         style="stop-opacity:1;stop-color:#40bead"
         offset="1"
         id="stop2739" />
    </linearGradient>
    <clipPath
       clipPathUnits="userSpaceOnUse"
       id="clipPath2709">
      <path
         d="M 127,472 H 255 V 371 H 127 Z"
         id="path2707"
         inkscape:connector-curvature="0"
         style="clip-rule:evenodd" />
    </clipPath>
    <clipPath
       clipPathUnits="userSpaceOnUse"
       id="clipPath2715">
      <path
         d="M 28,776 H 668 V 28 H 28 Z"
         id="path2713"
         inkscape:connector-curvature="0" />
    </clipPath>
    <clipPath
       clipPathUnits="userSpaceOnUse"
       id="clipPath2721">
      <path
         d="M 0,804.03 H 696 V 0.03 H 0 Z"
         id="path2719"
         inkscape:connector-curvature="0" />
    </clipPath>
  </defs>
  <sodipodi:namedview
     id="base"
     pagecolor="#ffffff"
     bordercolor="#666666"
     borderopacity="1.0"
     inkscape:pageopacity="0.0"
     inkscape:pageshadow="2"
     inkscape:zoom="0.35"
     inkscape:cx="262.18002"
     inkscape:cy="423.80952"
     inkscape:document-units="mm"
     inkscape:current-layer="layer1"
     showgrid="false"
     fit-margin-top="0"
     fit-margin-left="0"
     fit-margin-right="0"
     fit-margin-bottom="0"
     inkscape:window-width="1366"
     inkscape:window-height="745"
     inkscape:window-x="-8"
     inkscape:window-y="-8"
     inkscape:window-maximized="1" />
  <metadata
     id="metadata3662">
    <rdf:RDF>
      <cc:Work
         rdf:about="">
        <dc:format>image/svg+xml</dc:format>
        <dc:type
           rdf:resource="http://purl.org/dc/dcmitype/StillImage" />
        <dc:title></dc:title>
      </cc:Work>
    </rdf:RDF>
  </metadata>
  <g
     inkscape:label="Layer 1"
     inkscape:groupmode="layer"
     id="layer1"
     transform="translate(-36.46487,-225.68849)">
    <g
       transform="matrix(0.35277777,0,0,-0.35277777,-8.3624061,391.91279)"
       id="g2703">
      <g
         id="g2705"
         clip-path="url(#clipPath2709)">
        <g
           id="g2711"
           clip-path="url(#clipPath2715)">
          <g
             id="g2717"
             clip-path="url(#clipPath2721)">
            <path
               d="m 183.602,450.481 h 8.255 v -8.255 h -8.255 z"
               style="fill:none;stroke:#2056ae;stroke-width:0.5;stroke-linecap:butt;stroke-linejoin:miter;stroke-miterlimit:4;stroke-dasharray:none;stroke-opacity:1"
               id="path2723"
               inkscape:connector-curvature="0" />
          </g>
        </g>
      </g>
    </g>
    <g
       transform="matrix(0.35277777,0,0,-0.35277777,-8.3624061,391.91279)"
       id="g2725">
      <g
         id="g2727">
        <g
           id="g2733">
          <path
             d="m 191.813,371.187 h 54.25 v 100 h -54.25 z"
             style="fill:url(#linearGradient2741);stroke:none"
             id="path2743"
             inkscape:connector-curvature="0" />
        </g>
      </g>
    </g>
    <g
       transform="matrix(0.35277777,0,0,-0.35277777,-8.3624061,391.91279)"
       id="g2745">
      <g
         id="g2747">
        <g
           id="g2753">
          <path
             d="m 199.728,471.187 c -0.165,-7.083 2.169,-13.083 1.669,-20.083 -0.5,-7 -2.168,-7.833 -0.334,-19.167 1.834,-11.333 -1.5,-13.333 -1.666,-23 -0.168,-9.666 -3.168,-18.833 -2.5,-25.166 -0.668,6.333 0.331,16.5 0.5,26.166 0.165,9.667 0.165,10.667 -1.669,22 -1.831,11.334 0.169,12.834 0.669,19.834 0.5,7 -0.834,12.333 -0.669,19.416 h 4"
             style="fill:url(#linearGradient2761);stroke:none"
             id="path2763"
             inkscape:connector-curvature="0" />
        </g>
      </g>
    </g>
    <g
       transform="matrix(0.35277777,0,0,-0.35277777,-8.3624061,391.91279)"
       id="g2765">
      <g
         id="g2767">
        <g
           id="g2773">
          <path
             d="m 239.228,471.187 c 0.169,-7.083 -2.165,-13.083 -1.666,-20.083 0.501,-7 2.166,-7.833 0.335,-19.167 -1.834,-11.333 1.5,-13.333 1.665,-23 0.166,-9.666 3.166,-18.833 2.5,-25.166 0.666,6.333 -0.334,16.5 -0.499,26.166 -0.166,9.667 -0.166,10.667 1.665,22 1.834,11.334 -0.165,12.834 -0.666,19.834 -0.5,7 0.835,12.333 0.666,19.416 h -4"
             style="fill:url(#linearGradient2781);stroke:none"
             id="path2783"
             inkscape:connector-curvature="0" />
        </g>
      </g>
    </g>
    <g
       transform="matrix(0.35277777,0,0,-0.35277777,-8.3624061,391.91279)"
       id="g2785">
      <g
         id="g2787">
        <g
           id="g2793">
          <path
             d="m 204.228,371.187 c 0,1.75 -0.499,9.25 -0.666,14.25 -0.165,5 1.939,5.665 1.835,10.5 -0.168,7.667 2.665,18.167 3.331,23.5 0.669,5.334 -0.165,12.667 -0.331,19 -0.168,6.334 1.5,12 2,16.167 0.5,4.167 -0.5,9.833 -0.5,16.583 h -2.834 c 0,-6.75 0.334,-10.75 -0.166,-14.916 -0.5,-4.167 -1.835,-11.334 -1.668,-17.667 0.168,-6.333 -0.332,-17 -1.001,-22.333 -0.666,-5.334 -2.331,-9 -2.166,-16.667 0.106,-4.835 -1.499,-9.167 -1.333,-14.167 0.168,-5 0.668,-12.5 0.668,-14.25 h 2.831"
             style="fill:url(#linearGradient2801);stroke:none"
             id="path2803"
             inkscape:connector-curvature="0" />
        </g>
      </g>
    </g>
    <g
       transform="matrix(0.35277777,0,0,-0.35277777,-8.3624061,391.91279)"
       id="g2805">
      <g
         id="g2807">
        <g
           id="g2813">
          <path
             d="m 213.728,371.187 c 0,1.75 -0.331,9.25 -0.5,14.25 -0.165,5 2.607,13.665 2.501,18.5 -0.167,7.667 0.168,10.167 0.833,15.5 0.667,5.334 2.167,12.834 2,19.167 -0.165,6.333 2.001,11.5 2.5,15.667 0.5,4.166 -1.5,10.166 -1.5,16.916 h -4.665 c 0,-6.75 0.331,-10.75 -0.169,-14.916 -0.499,-4.167 -1.831,-11.334 -1.665,-17.667 0.165,-6.333 -0.334,-17 -1.001,-22.333 -0.665,-5.334 -0.165,-7.167 0,-14.834 0.106,-4.835 -1.834,-11 -1.665,-16 0.165,-5 0.5,-12.5 0.5,-14.25 h 2.831"
             style="fill:url(#linearGradient2821);stroke:none"
             id="path2823"
             inkscape:connector-curvature="0" />
        </g>
      </g>
    </g>
    <g
       transform="matrix(0.35277777,0,0,-0.35277777,-8.3624061,391.91279)"
       id="g2825">
      <g
         id="g2827">
        <g
           id="g2833">
          <path
             d="m 227.313,421.604 c 1.334,-6 4.084,-10.667 3.249,-16.667 -0.834,-6 -0.334,-9.666 1,-15.666 1.335,-6 1.001,-14.168 0.5,-18.084 h 2.166 c -0.5,2.25 0.669,9.085 1,13.25 0.335,4.167 -1.831,10.334 -0.831,16.834 1,6.5 -0.5,17.5 -1.335,23.333 -0.834,5.833 -1.5,9.5 -1.5,14.167 0,6.335 -0.37,9.351 -1,13.5 -1.135,7.48 -1.165,13.584 -1.165,18.916 h -4.669 c 0,-6.75 0.335,-10.75 -0.166,-14.916 -0.5,-4.167 -1.165,-10.667 -0.999,-17 0.165,-6.334 -0.334,-17.834 -1.001,-23.167 -0.665,-5.333 -1.834,-8.833 -1.665,-16.5 0.104,-4.835 -2,-9.167 -1.834,-14.167 0.165,-5 0.499,-12.5 0.499,-14.25 h 2.835 c 0,1.75 -0.334,9.25 -0.5,14.25 -0.168,5 3.271,14.665 3.166,19.5 -0.166,7.667 1.584,11.334 2.25,16.667"
             style="fill:url(#linearGradient2841);stroke:none"
             id="path2843"
             inkscape:connector-curvature="0" />
        </g>
      </g>
    </g>
    <g
       transform="matrix(0.35277777,0,0,-0.35277777,-8.3624061,391.91279)"
       id="g2845">
      <g
         id="g2847"
         clip-path="url(#clipPath2851)">
        <g
           id="g2853"
           clip-path="url(#clipPath2857)">
          <g
             id="g2859"
             clip-path="url(#clipPath2863)">
            <path
               d="m 189.781,450.437 c 0,-1.104 0.896,-2 2,-2 1.105,0 2,0.896 2,2 0,1.105 -0.895,2 -2,2 -1.104,0 -2,-0.895 -2,-2"
               style="fill:#231f20;fill-opacity:1;fill-rule:nonzero;stroke:none"
               id="path2865"
               inkscape:connector-curvature="0" />
            <path
               d="m 133.656,450.437 c 0,-1.104 0.896,-2 2,-2 1.105,0 2,0.896 2,2 0,1.105 -0.895,2 -2,2 -1.104,0 -2,-0.895 -2,-2"
               style="fill:#231f20;fill-opacity:1;fill-rule:nonzero;stroke:none"
               id="path2867"
               inkscape:connector-curvature="0" />
            <path
               d="m 244.031,389.062 c 0,-1.104 0.896,-2 2,-2 1.105,0 2,0.896 2,2 0,1.105 -0.895,2 -2,2 -1.104,0 -2,-0.895 -2,-2"
               style="fill:#231f20;fill-opacity:1;fill-rule:nonzero;stroke:none"
               id="path2869"
               inkscape:connector-curvature="0" />
            <path
               d="m 191.852,397.398 h 8.255 v -8.255 h -8.255 z"
               style="fill:none;stroke:#2056ae;stroke-width:0.5;stroke-linecap:butt;stroke-linejoin:miter;stroke-miterlimit:4;stroke-dasharray:none;stroke-opacity:1"
               id="path2871"
               inkscape:connector-curvature="0" />
            <path
               d="m 189.781,389.062 c 0,-1.104 0.896,-2 2,-2 1.105,0 2,0.896 2,2 0,1.105 -0.895,2 -2,2 -1.104,0 -2,-0.895 -2,-2"
               style="fill:#231f20;fill-opacity:1;fill-rule:nonzero;stroke:none"
               id="path2873"
               inkscape:connector-curvature="0" />
            <path
               d="m 191.813,389.104 v 61.333 h -56.084 l 110.374,-61.333 z"
               style="fill:none;stroke:#231f20;stroke-width:0.69999999;stroke-linecap:butt;stroke-linejoin:miter;stroke-miterlimit:4;stroke-dasharray:none;stroke-opacity:1"
               id="path2875"
               inkscape:connector-curvature="0" />
            <text
               transform="matrix(1,0,0,-1,183.2072,385.8574)"
               style="font-style:italic;font-variant:normal;font-size:9px;font-family:'Times New Roman';-inkscape-font-specification:Times-Italic;writing-mode:lr-tb;fill:#231f20;fill-opacity:1;fill-rule:nonzero;stroke:none"
               id="text2885">
              <tspan
                 x="0 66.105003"
                 y="0"
                 sodipodi:role="line"
                 id="tspan2877">EB</tspan>
              <tspan
                 x="-0.76770002"
                 y="-25.832701"
                 id="tspan2879">D</tspan>
              <tspan
                 x="-0.58950001"
                 y="-67.332603"
                 id="tspan2881">C</tspan>
              <tspan
                 x="-55.698299"
                 y="-61.5825"
                 id="tspan2883">A</tspan>
            </text>
          </g>
        </g>
      </g>
    </g>
  </g>
</svg>
