<?xml version="1.0" encoding="UTF-8"?>
<svg xmlns="http://www.w3.org/2000/svg" xmlns:xlink="http://www.w3.org/1999/xlink" width="97.1717pt" height="97.2284pt" viewBox="0 0 97.1717 97.2284" version="1.1">
<defs>
<clipPath id="clip1">
  <path d="M 14 0 L 65 0 L 65 96.890625 L 14 96.890625 Z M 14 0 "/>
</clipPath>
<clipPath id="clip2">
  <path d="M 19 92 L 24 92 L 24 96.890625 L 19 96.890625 Z M 19 92 "/>
</clipPath>
<clipPath id="clip3">
  <path d="M 0 0 L 97.171875 0 L 97.171875 97.226562 L 0 97.226562 Z M 0 0 "/>
</clipPath>
</defs>
<g id="surface1">
<path style="fill:none;stroke-width:0.35;stroke-linecap:butt;stroke-linejoin:miter;stroke:rgb(74.119568%,73.648071%,73.765564%);stroke-opacity:1;stroke-miterlimit:4;" d="M 387.841581 489.529688 L 479.767362 489.529688 M 387.841581 480.330469 L 479.767362 480.330469 M 387.841581 471.13125 L 479.767362 471.13125 M 387.841581 461.928125 L 479.767362 461.928125 M 387.841581 452.728906 L 479.767362 452.728906 M 387.841581 443.529688 L 479.767362 443.529688 M 387.841581 434.330469 L 479.767362 434.330469 M 387.841581 425.127344 L 479.767362 425.127344 M 387.841581 415.928125 L 479.767362 415.928125 M 387.841581 498.732813 L 479.829862 498.732813 L 479.829862 406.728906 L 387.841581 406.728906 Z M 397.0408 406.728906 L 397.0408 498.732813 M 406.240019 406.728906 L 406.240019 498.732813 M 415.439237 406.728906 L 415.439237 498.732813 M 424.638456 406.728906 L 424.638456 498.732813 M 433.837675 406.728906 L 433.837675 498.732813 M 443.036894 406.728906 L 443.036894 498.732813 M 452.232206 406.728906 L 452.232206 498.732813 M 461.435331 406.728906 L 461.435331 498.732813 M 470.630644 406.728906 L 470.630644 498.732813 " transform="matrix(1,0,0,-1,-385.2283,501.6)"/>
<path style=" stroke:none;fill-rule:nonzero;fill:rgb(93.609619%,18.434143%,17.378235%);fill-opacity:1;" d="M 57.808594 4.867188 C 58.910156 4.867188 59.808594 3.972656 59.808594 2.867188 C 59.808594 1.765625 58.910156 0.867188 57.808594 0.867188 C 56.703125 0.867188 55.808594 1.765625 55.808594 2.867188 C 55.808594 3.972656 56.703125 4.867188 57.808594 4.867188 "/>
<g clip-path="url(#clip1)" clip-rule="nonzero">
<path style="fill:none;stroke-width:1.2;stroke-linecap:butt;stroke-linejoin:miter;stroke:rgb(93.609619%,18.434143%,17.378235%);stroke-opacity:1;stroke-miterlimit:4;" d="M 443.036894 498.732813 L 406.240019 406.728906 " transform="matrix(1,0,0,-1,-385.2283,501.6)"/>
</g>
<g clip-path="url(#clip2)" clip-rule="nonzero">
<path style=" stroke:none;fill-rule:nonzero;fill:rgb(93.609619%,18.434143%,17.378235%);fill-opacity:1;" d="M 21.011719 96.871094 C 22.117188 96.871094 23.011719 95.976562 23.011719 94.871094 C 23.011719 93.765625 22.117188 92.871094 21.011719 92.871094 C 19.90625 92.871094 19.011719 93.765625 19.011719 94.871094 C 19.011719 95.976562 19.90625 96.871094 21.011719 96.871094 "/>
</g>
<g clip-path="url(#clip3)" clip-rule="nonzero">
<path style="fill:none;stroke-width:0.5;stroke-linecap:butt;stroke-linejoin:miter;stroke:rgb(100%,100%,100%);stroke-opacity:1;stroke-miterlimit:10;" d="M 42.001737 803.998438 L 42.001737 779.998438 M 0.0017375 761.998438 L 24.001737 761.998438 M 654.001737 803.998438 L 654.001737 779.998438 M 696.001737 761.998438 L 672.001737 761.998438 M 42.001737 -0.0015625 L 42.001737 23.998438 M 0.0017375 41.998438 L 24.001737 41.998438 M 654.001737 -0.0015625 L 654.001737 23.998438 M 696.001737 41.998438 L 672.001737 41.998438 " transform="matrix(1,0,0,-1,-385.2283,501.6)"/>
<path style="fill:none;stroke-width:0.25;stroke-linecap:butt;stroke-linejoin:miter;stroke:rgb(0%,0%,0%);stroke-opacity:1;stroke-miterlimit:10;" d="M 42.001737 803.998438 L 42.001737 779.998438 M 0.0017375 761.998438 L 24.001737 761.998438 M 654.001737 803.998438 L 654.001737 779.998438 M 696.001737 761.998438 L 672.001737 761.998438 M 42.001737 -0.0015625 L 42.001737 23.998438 M 0.0017375 41.998438 L 24.001737 41.998438 M 654.001737 -0.0015625 L 654.001737 23.998438 M 696.001737 41.998438 L 672.001737 41.998438 " transform="matrix(1,0,0,-1,-385.2283,501.6)"/>
<path style="fill:none;stroke-width:0.5;stroke-linecap:butt;stroke-linejoin:miter;stroke:rgb(100%,100%,100%);stroke-opacity:1;stroke-miterlimit:10;" d="M 324.001737 791.998438 L 372.001737 791.998438 M 324.001737 11.998438 L 372.001737 11.998438 M 12.001737 425.998438 L 12.001737 377.998438 M 684.001737 425.998438 L 684.001737 377.998438 M 348.001737 803.998438 L 348.001737 779.998438 M 348.001737 23.998438 L 348.001737 -0.0015625 M 0.0017375 401.998438 L 24.001737 401.998438 M 672.001737 401.998438 L 696.001737 401.998438 M 348.001737 791.998438 L 354.001737 791.998438 C 354.001737 788.689844 351.310331 785.998438 348.001737 785.998438 C 344.689237 785.998438 342.001737 788.689844 342.001737 791.998438 C 342.001737 795.310938 344.689237 797.998438 348.001737 797.998438 C 351.310331 797.998438 354.001737 795.310938 354.001737 791.998438 M 348.001737 11.998438 L 354.001737 11.998438 C 354.001737 8.689844 351.310331 5.998438 348.001737 5.998438 C 344.689237 5.998438 342.001737 8.689844 342.001737 11.998438 C 342.001737 15.310938 344.689237 17.998438 348.001737 17.998438 C 351.310331 17.998438 354.001737 15.310938 354.001737 11.998438 M 12.001737 401.998438 L 18.001737 401.998438 C 18.001737 398.689844 15.310331 395.998438 12.001737 395.998438 C 8.689237 395.998438 6.001737 398.689844 6.001737 401.998438 C 6.001737 405.310938 8.689237 407.998438 12.001737 407.998438 C 15.310331 407.998438 18.001737 405.310938 18.001737 401.998438 M 684.001737 401.998438 L 690.001737 401.998438 C 690.001737 398.689844 687.310331 395.998438 684.001737 395.998438 C 680.689237 395.998438 678.001737 398.689844 678.001737 401.998438 C 678.001737 405.310938 680.689237 407.998438 684.001737 407.998438 C 687.310331 407.998438 690.001737 405.310938 690.001737 401.998438 " transform="matrix(1,0,0,-1,-385.2283,501.6)"/>
<path style="fill:none;stroke-width:0.25;stroke-linecap:butt;stroke-linejoin:miter;stroke:rgb(0%,0%,0%);stroke-opacity:1;stroke-miterlimit:10;" d="M 324.001737 791.998438 L 372.001737 791.998438 M 324.001737 11.998438 L 372.001737 11.998438 M 12.001737 425.998438 L 12.001737 377.998438 M 684.001737 425.998438 L 684.001737 377.998438 M 348.001737 803.998438 L 348.001737 779.998438 M 348.001737 23.998438 L 348.001737 -0.0015625 M 0.0017375 401.998438 L 24.001737 401.998438 M 672.001737 401.998438 L 696.001737 401.998438 M 348.001737 791.998438 L 354.001737 791.998438 C 354.001737 788.689844 351.310331 785.998438 348.001737 785.998438 C 344.689237 785.998438 342.001737 788.689844 342.001737 791.998438 C 342.001737 795.310938 344.689237 797.998438 348.001737 797.998438 C 351.310331 797.998438 354.001737 795.310938 354.001737 791.998438 M 348.001737 11.998438 L 354.001737 11.998438 C 354.001737 8.689844 351.310331 5.998438 348.001737 5.998438 C 344.689237 5.998438 342.001737 8.689844 342.001737 11.998438 C 342.001737 15.310938 344.689237 17.998438 348.001737 17.998438 C 351.310331 17.998438 354.001737 15.310938 354.001737 11.998438 M 12.001737 401.998438 L 18.001737 401.998438 C 18.001737 398.689844 15.310331 395.998438 12.001737 395.998438 C 8.689237 395.998438 6.001737 398.689844 6.001737 401.998438 C 6.001737 405.310938 8.689237 407.998438 12.001737 407.998438 C 15.310331 407.998438 18.001737 405.310938 18.001737 401.998438 M 684.001737 401.998438 L 690.001737 401.998438 C 690.001737 398.689844 687.310331 395.998438 684.001737 395.998438 C 680.689237 395.998438 678.001737 398.689844 678.001737 401.998438 C 678.001737 405.310938 680.689237 407.998438 684.001737 407.998438 C 687.310331 407.998438 690.001737 405.310938 690.001737 401.998438 " transform="matrix(1,0,0,-1,-385.2283,501.6)"/>
</g>
</g>
</svg>
