<?xml version="1.0" encoding="UTF-8"?>
<svg xmlns="http://www.w3.org/2000/svg" xmlns:xlink="http://www.w3.org/1999/xlink" width="97.1717pt" height="97.1716pt" viewBox="0 0 97.1717 97.1716" version="1.1">
<defs>
<clipPath id="clip1">
  <path d="M 2 0.117188 L 95 0.117188 L 95 94 L 2 94 Z M 2 0.117188 "/>
</clipPath>
<clipPath id="clip2">
  <path d="M 11 0.117188 L 56 0.117188 L 56 95.117188 L 11 95.117188 Z M 11 0.117188 "/>
</clipPath>
<clipPath id="clip3">
  <path d="M 46 91 L 51 91 L 51 95.117188 L 46 95.117188 Z M 46 91 "/>
</clipPath>
</defs>
<g id="surface1">
<g clip-path="url(#clip1)" clip-rule="nonzero">
<path style="fill:none;stroke-width:0.35;stroke-linecap:butt;stroke-linejoin:miter;stroke:rgb(74.119568%,73.648071%,73.765564%);stroke-opacity:1;stroke-miterlimit:4;" d="M 387.841581 374.288925 L 479.767362 374.288925 M 387.841581 365.089706 L 479.767362 365.089706 M 387.841581 355.890488 L 479.767362 355.890488 M 387.841581 346.687363 L 479.767362 346.687363 M 387.841581 337.488144 L 479.767362 337.488144 M 387.841581 328.288925 L 479.767362 328.288925 M 387.841581 319.089706 L 479.767362 319.089706 M 387.841581 309.890488 L 479.767362 309.890488 M 387.841581 300.691269 L 479.767362 300.691269 M 387.841581 383.49205 L 479.829862 383.49205 L 479.829862 291.488144 L 387.841581 291.488144 Z M 397.0408 291.488144 L 397.0408 383.49205 M 406.240019 291.488144 L 406.240019 383.49205 M 415.439237 291.488144 L 415.439237 383.49205 M 424.638456 291.488144 L 424.638456 383.49205 M 433.837675 291.488144 L 433.837675 383.49205 M 443.036894 291.488144 L 443.036894 383.49205 M 452.232206 291.488144 L 452.232206 383.49205 M 461.435331 291.488144 L 461.435331 383.49205 M 470.630644 291.488144 L 470.630644 383.49205 " transform="matrix(1,0,0,-1,-385.2283,384.5858)"/>
</g>
<path style=" stroke:none;fill-rule:nonzero;fill:rgb(93.609619%,18.434143%,17.378235%);fill-opacity:1;" d="M 21.011719 12.296875 C 22.113281 12.296875 23.011719 11.402344 23.011719 10.296875 C 23.011719 9.191406 22.113281 8.296875 21.011719 8.296875 C 19.90625 8.296875 19.011719 9.191406 19.011719 10.296875 C 19.011719 11.402344 19.90625 12.296875 21.011719 12.296875 "/>
<g clip-path="url(#clip2)" clip-rule="nonzero">
<path style="fill:none;stroke-width:1.2;stroke-linecap:butt;stroke-linejoin:miter;stroke:rgb(93.609619%,18.434143%,17.378235%);stroke-opacity:1;stroke-miterlimit:4;" d="M 403.204862 383.49205 L 433.837675 291.488144 " transform="matrix(1,0,0,-1,-385.2283,384.5858)"/>
</g>
<g clip-path="url(#clip3)" clip-rule="nonzero">
<path style=" stroke:none;fill-rule:nonzero;fill:rgb(93.609619%,18.434143%,17.378235%);fill-opacity:1;" d="M 48.609375 95.097656 C 49.710938 95.097656 50.609375 94.199219 50.609375 93.097656 C 50.609375 91.992188 49.710938 91.097656 48.609375 91.097656 C 47.503906 91.097656 46.609375 91.992188 46.609375 93.097656 C 46.609375 94.199219 47.503906 95.097656 48.609375 95.097656 "/>
</g>
<path style="fill:none;stroke-width:0.5;stroke-linecap:butt;stroke-linejoin:miter;stroke:rgb(100%,100%,100%);stroke-opacity:1;stroke-miterlimit:10;" d="M 42.001737 803.999863 L 42.001737 779.999863 M 0.0017375 761.999863 L 24.001737 761.999863 M 654.001737 803.999863 L 654.001737 779.999863 M 696.001737 761.999863 L 672.001737 761.999863 M 42.001737 -0.0001375 L 42.001737 23.999863 M 0.0017375 41.999863 L 24.001737 41.999863 M 654.001737 -0.0001375 L 654.001737 23.999863 M 696.001737 41.999863 L 672.001737 41.999863 " transform="matrix(1,0,0,-1,-385.2283,384.5858)"/>
<path style="fill:none;stroke-width:0.25;stroke-linecap:butt;stroke-linejoin:miter;stroke:rgb(0%,0%,0%);stroke-opacity:1;stroke-miterlimit:10;" d="M 42.001737 803.999863 L 42.001737 779.999863 M 0.0017375 761.999863 L 24.001737 761.999863 M 654.001737 803.999863 L 654.001737 779.999863 M 696.001737 761.999863 L 672.001737 761.999863 M 42.001737 -0.0001375 L 42.001737 23.999863 M 0.0017375 41.999863 L 24.001737 41.999863 M 654.001737 -0.0001375 L 654.001737 23.999863 M 696.001737 41.999863 L 672.001737 41.999863 " transform="matrix(1,0,0,-1,-385.2283,384.5858)"/>
<path style="fill:none;stroke-width:0.5;stroke-linecap:butt;stroke-linejoin:miter;stroke:rgb(100%,100%,100%);stroke-opacity:1;stroke-miterlimit:10;" d="M 324.001737 791.999863 L 372.001737 791.999863 M 324.001737 11.999863 L 372.001737 11.999863 M 12.001737 425.999863 L 12.001737 377.999863 M 684.001737 425.999863 L 684.001737 377.999863 M 348.001737 803.999863 L 348.001737 779.999863 M 348.001737 23.999863 L 348.001737 -0.0001375 M 0.0017375 401.999863 L 24.001737 401.999863 M 672.001737 401.999863 L 696.001737 401.999863 M 348.001737 791.999863 L 354.001737 791.999863 C 354.001737 788.687363 351.310331 785.999863 348.001737 785.999863 C 344.689237 785.999863 342.001737 788.687363 342.001737 791.999863 C 342.001737 795.312363 344.689237 797.999863 348.001737 797.999863 C 351.310331 797.999863 354.001737 795.312363 354.001737 791.999863 M 348.001737 11.999863 L 354.001737 11.999863 C 354.001737 8.687363 351.310331 5.999863 348.001737 5.999863 C 344.689237 5.999863 342.001737 8.687363 342.001737 11.999863 C 342.001737 15.312363 344.689237 17.999863 348.001737 17.999863 C 351.310331 17.999863 354.001737 15.312363 354.001737 11.999863 M 12.001737 401.999863 L 18.001737 401.999863 C 18.001737 398.687363 15.310331 395.999863 12.001737 395.999863 C 8.689237 395.999863 6.001737 398.687363 6.001737 401.999863 C 6.001737 405.312363 8.689237 407.999863 12.001737 407.999863 C 15.310331 407.999863 18.001737 405.312363 18.001737 401.999863 M 684.001737 401.999863 L 690.001737 401.999863 C 690.001737 398.687363 687.310331 395.999863 684.001737 395.999863 C 680.689237 395.999863 678.001737 398.687363 678.001737 401.999863 C 678.001737 405.312363 680.689237 407.999863 684.001737 407.999863 C 687.310331 407.999863 690.001737 405.312363 690.001737 401.999863 " transform="matrix(1,0,0,-1,-385.2283,384.5858)"/>
<path style="fill:none;stroke-width:0.25;stroke-linecap:butt;stroke-linejoin:miter;stroke:rgb(0%,0%,0%);stroke-opacity:1;stroke-miterlimit:10;" d="M 324.001737 791.999863 L 372.001737 791.999863 M 324.001737 11.999863 L 372.001737 11.999863 M 12.001737 425.999863 L 12.001737 377.999863 M 684.001737 425.999863 L 684.001737 377.999863 M 348.001737 803.999863 L 348.001737 779.999863 M 348.001737 23.999863 L 348.001737 -0.0001375 M 0.0017375 401.999863 L 24.001737 401.999863 M 672.001737 401.999863 L 696.001737 401.999863 M 348.001737 791.999863 L 354.001737 791.999863 C 354.001737 788.687363 351.310331 785.999863 348.001737 785.999863 C 344.689237 785.999863 342.001737 788.687363 342.001737 791.999863 C 342.001737 795.312363 344.689237 797.999863 348.001737 797.999863 C 351.310331 797.999863 354.001737 795.312363 354.001737 791.999863 M 348.001737 11.999863 L 354.001737 11.999863 C 354.001737 8.687363 351.310331 5.999863 348.001737 5.999863 C 344.689237 5.999863 342.001737 8.687363 342.001737 11.999863 C 342.001737 15.312363 344.689237 17.999863 348.001737 17.999863 C 351.310331 17.999863 354.001737 15.312363 354.001737 11.999863 M 12.001737 401.999863 L 18.001737 401.999863 C 18.001737 398.687363 15.310331 395.999863 12.001737 395.999863 C 8.689237 395.999863 6.001737 398.687363 6.001737 401.999863 C 6.001737 405.312363 8.689237 407.999863 12.001737 407.999863 C 15.310331 407.999863 18.001737 405.312363 18.001737 401.999863 M 684.001737 401.999863 L 690.001737 401.999863 C 690.001737 398.687363 687.310331 395.999863 684.001737 395.999863 C 680.689237 395.999863 678.001737 398.687363 678.001737 401.999863 C 678.001737 405.312363 680.689237 407.999863 684.001737 407.999863 C 687.310331 407.999863 690.001737 405.312363 690.001737 401.999863 " transform="matrix(1,0,0,-1,-385.2283,384.5858)"/>
</g>
</svg>
