<?xml version="1.0" encoding="UTF-8"?>
<svg xmlns="http://www.w3.org/2000/svg" xmlns:xlink="http://www.w3.org/1999/xlink" width="106.1859pt" height="106.1858pt" viewBox="0 0 106.1859 106.1858" version="1.1">
<defs>
<clipPath id="clip1">
  <path d="M 100 101 L 105 101 L 105 105.371094 L 100 105.371094 Z M 100 101 "/>
</clipPath>
<clipPath id="clip2">
  <path d="M 1.070312 8 L 51 8 L 51 92 L 1.070312 92 Z M 1.070312 8 "/>
</clipPath>
<clipPath id="clip3">
  <path d="M 1.070312 1 L 5 1 L 5 6 L 1.070312 6 Z M 1.070312 1 "/>
</clipPath>
</defs>
<g id="surface1">
<path style="fill:none;stroke-width:0.35;stroke-linecap:butt;stroke-linejoin:miter;stroke:rgb(74.119568%,73.648071%,73.765564%);stroke-opacity:1;stroke-miterlimit:4;" d="M 231.8158 360.667969 L 231.8158 268.675781 M 241.015019 360.667969 L 241.015019 268.675781 M 250.214238 360.667969 L 250.214238 268.675781 M 259.417363 360.667969 L 259.417363 268.675781 M 268.616581 360.667969 L 268.616581 268.675781 M 277.8158 360.667969 L 277.8158 268.675781 M 287.015019 360.667969 L 287.015019 268.675781 M 296.214238 360.667969 L 296.214238 268.675781 M 305.413456 360.667969 L 305.413456 268.675781 M 314.612675 360.667969 L 314.612675 268.675781 M 222.616581 268.675781 L 314.612675 268.675781 M 222.616581 277.875 L 314.612675 277.875 M 222.616581 287.074219 L 314.612675 287.074219 M 222.616581 296.273438 L 314.612675 296.273438 M 222.616581 305.472656 L 314.612675 305.472656 M 222.616581 314.671875 L 314.612675 314.671875 M 222.616581 323.871094 L 314.612675 323.871094 M 222.616581 333.070312 L 314.612675 333.070312 M 222.616581 342.269531 L 314.612675 342.269531 M 222.616581 351.46875 L 314.612675 351.46875 M 222.616581 360.667969 L 314.612675 360.667969 " transform="matrix(1,0,0,-1,-219.6283,372)"/>
<path style="fill:none;stroke-width:0.7;stroke-linecap:butt;stroke-linejoin:miter;stroke:rgb(13.729858%,12.159729%,12.548828%);stroke-opacity:1;stroke-miterlimit:4;" d="M 222.616581 268.675781 L 321.643925 268.675781 " transform="matrix(1,0,0,-1,-219.6283,372)"/>
<g clip-path="url(#clip1)" clip-rule="nonzero">
<path style=" stroke:none;fill-rule:nonzero;fill:rgb(13.729858%,12.159729%,12.548828%);fill-opacity:1;" d="M 104.984375 103.324219 L 100.804688 105.03125 L 101.796875 103.324219 L 100.804688 101.617188 L 104.984375 103.324219 "/>
</g>
<g clip-path="url(#clip2)" clip-rule="nonzero">
<path style="fill:none;stroke-width:1.2;stroke-linecap:butt;stroke-linejoin:miter;stroke:rgb(93.609619%,18.434143%,17.378235%);stroke-opacity:1;stroke-miterlimit:4;" d="M 222.616581 287.074219 C 249.054081 287.074219 262.632206 353.394531 263.495488 356.480469 " transform="matrix(1,0,0,-1,-219.6283,372)"/>
</g>
<path style=" stroke:none;fill-rule:nonzero;fill:rgb(93.609619%,18.434143%,17.378235%);fill-opacity:1;" d="M 45.007812 11.4375 L 45.75 17.84375 L 43.78125 15.824219 L 41.050781 16.53125 L 45.007812 11.4375 "/>
<path style="fill:none;stroke-width:0.7;stroke-linecap:butt;stroke-linejoin:miter;stroke:rgb(13.729858%,12.159729%,12.548828%);stroke-opacity:1;stroke-miterlimit:4;" d="M 222.616581 367.703125 L 222.616581 268.675781 " transform="matrix(1,0,0,-1,-219.6283,372)"/>
<g clip-path="url(#clip3)" clip-rule="nonzero">
<path style=" stroke:none;fill-rule:nonzero;fill:rgb(13.729858%,12.159729%,12.548828%);fill-opacity:1;" d="M 2.988281 1.332031 L 4.695312 5.511719 L 2.988281 4.519531 L 1.28125 5.511719 L 2.988281 1.332031 "/>
</g>
<path style="fill:none;stroke-width:0.5;stroke-linecap:butt;stroke-linejoin:miter;stroke:rgb(100%,100%,100%);stroke-opacity:1;stroke-miterlimit:10;" d="M 41.999394 804 L 41.999394 780 M -0.00060625 762 L 23.999394 762 M 653.999394 804 L 653.999394 780 M 695.999394 762 L 671.999394 762 M 41.999394 0 L 41.999394 24 M -0.00060625 42 L 23.999394 42 M 653.999394 0 L 653.999394 24 M 695.999394 42 L 671.999394 42 " transform="matrix(1,0,0,-1,-219.6283,372)"/>
<path style="fill:none;stroke-width:0.25;stroke-linecap:butt;stroke-linejoin:miter;stroke:rgb(0%,0%,0%);stroke-opacity:1;stroke-miterlimit:10;" d="M 41.999394 804 L 41.999394 780 M -0.00060625 762 L 23.999394 762 M 653.999394 804 L 653.999394 780 M 695.999394 762 L 671.999394 762 M 41.999394 0 L 41.999394 24 M -0.00060625 42 L 23.999394 42 M 653.999394 0 L 653.999394 24 M 695.999394 42 L 671.999394 42 " transform="matrix(1,0,0,-1,-219.6283,372)"/>
<path style="fill:none;stroke-width:0.5;stroke-linecap:butt;stroke-linejoin:miter;stroke:rgb(100%,100%,100%);stroke-opacity:1;stroke-miterlimit:10;" d="M 323.999394 792 L 371.999394 792 M 323.999394 12 L 371.999394 12 M 11.999394 426 L 11.999394 378 M 683.999394 426 L 683.999394 378 M 347.999394 804 L 347.999394 780 M 347.999394 24 L 347.999394 0 M -0.00060625 402 L 23.999394 402 M 671.999394 402 L 695.999394 402 M 347.999394 792 L 353.999394 792 C 353.999394 788.6875 351.311894 786 347.999394 786 C 344.686894 786 341.999394 788.6875 341.999394 792 C 341.999394 795.3125 344.686894 798 347.999394 798 C 351.311894 798 353.999394 795.3125 353.999394 792 M 347.999394 12 L 353.999394 12 C 353.999394 8.6875 351.311894 6 347.999394 6 C 344.686894 6 341.999394 8.6875 341.999394 12 C 341.999394 15.3125 344.686894 18 347.999394 18 C 351.311894 18 353.999394 15.3125 353.999394 12 M 11.999394 402 L 17.999394 402 C 17.999394 398.6875 15.311894 396 11.999394 396 C 8.686894 396 5.999394 398.6875 5.999394 402 C 5.999394 405.3125 8.686894 408 11.999394 408 C 15.311894 408 17.999394 405.3125 17.999394 402 M 683.999394 402 L 689.999394 402 C 689.999394 398.6875 687.311894 396 683.999394 396 C 680.686894 396 677.999394 398.6875 677.999394 402 C 677.999394 405.3125 680.686894 408 683.999394 408 C 687.311894 408 689.999394 405.3125 689.999394 402 " transform="matrix(1,0,0,-1,-219.6283,372)"/>
<path style="fill:none;stroke-width:0.25;stroke-linecap:butt;stroke-linejoin:miter;stroke:rgb(0%,0%,0%);stroke-opacity:1;stroke-miterlimit:10;" d="M 323.999394 792 L 371.999394 792 M 323.999394 12 L 371.999394 12 M 11.999394 426 L 11.999394 378 M 683.999394 426 L 683.999394 378 M 347.999394 804 L 347.999394 780 M 347.999394 24 L 347.999394 0 M -0.00060625 402 L 23.999394 402 M 671.999394 402 L 695.999394 402 M 347.999394 792 L 353.999394 792 C 353.999394 788.6875 351.311894 786 347.999394 786 C 344.686894 786 341.999394 788.6875 341.999394 792 C 341.999394 795.3125 344.686894 798 347.999394 798 C 351.311894 798 353.999394 795.3125 353.999394 792 M 347.999394 12 L 353.999394 12 C 353.999394 8.6875 351.311894 6 347.999394 6 C 344.686894 6 341.999394 8.6875 341.999394 12 C 341.999394 15.3125 344.686894 18 347.999394 18 C 351.311894 18 353.999394 15.3125 353.999394 12 M 11.999394 402 L 17.999394 402 C 17.999394 398.6875 15.311894 396 11.999394 396 C 8.686894 396 5.999394 398.6875 5.999394 402 C 5.999394 405.3125 8.686894 408 11.999394 408 C 15.311894 408 17.999394 405.3125 17.999394 402 M 683.999394 402 L 689.999394 402 C 689.999394 398.6875 687.311894 396 683.999394 396 C 680.686894 396 677.999394 398.6875 677.999394 402 C 677.999394 405.3125 680.686894 408 683.999394 408 C 687.311894 408 689.999394 405.3125 689.999394 402 " transform="matrix(1,0,0,-1,-219.6283,372)"/>
</g>
</svg>
