<?xml version="1.0" encoding="UTF-8"?>
<svg xmlns="http://www.w3.org/2000/svg" xmlns:xlink="http://www.w3.org/1999/xlink" width="133.2283pt" height="97.1716pt" viewBox="0 0 133.2283 97.1716" version="1.1">
<defs>
<clipPath id="clip1">
  <path d="M 0 0 L 133 0 L 133 97.171875 L 0 97.171875 Z M 0 0 "/>
</clipPath>
<linearGradient id="linear0" gradientUnits="userSpaceOnUse" x1="153.242345" y1="128" x2="247.456545" y2="128" gradientTransform="matrix(1.4141,0,0,0.6691,-216.7,-48.9742)">
<stop offset="0" style="stop-color:rgb(83.009338%,92.112732%,95.655823%);stop-opacity:1;"/>
<stop offset="0.0625" style="stop-color:rgb(83.206177%,92.247009%,95.762634%);stop-opacity:1;"/>
<stop offset="0.125" style="stop-color:rgb(83.599854%,92.510986%,95.973206%);stop-opacity:1;"/>
<stop offset="0.1875" style="stop-color:rgb(83.995056%,92.778015%,96.186829%);stop-opacity:1;"/>
<stop offset="0.25" style="stop-color:rgb(84.390259%,93.043518%,96.398926%);stop-opacity:1;"/>
<stop offset="0.3125" style="stop-color:rgb(84.786987%,93.310547%,96.612549%);stop-opacity:1;"/>
<stop offset="0.375" style="stop-color:rgb(85.183716%,93.57605%,96.824646%);stop-opacity:1;"/>
<stop offset="0.4375" style="stop-color:rgb(85.58197%,93.844604%,97.036743%);stop-opacity:1;"/>
<stop offset="0.5" style="stop-color:rgb(85.980225%,94.111633%,97.250366%);stop-opacity:1;"/>
<stop offset="0.5625" style="stop-color:rgb(86.381531%,94.378662%,97.463989%);stop-opacity:1;"/>
<stop offset="0.625" style="stop-color:rgb(86.781311%,94.645691%,97.676086%);stop-opacity:1;"/>
<stop offset="0.6875" style="stop-color:rgb(87.182617%,94.914246%,97.889709%);stop-opacity:1;"/>
<stop offset="0.75" style="stop-color:rgb(87.585449%,95.1828%,98.103333%);stop-opacity:1;"/>
<stop offset="0.8125" style="stop-color:rgb(87.989807%,95.451355%,98.316956%);stop-opacity:1;"/>
<stop offset="0.875" style="stop-color:rgb(88.394165%,95.71991%,98.529053%);stop-opacity:1;"/>
<stop offset="0.9375" style="stop-color:rgb(88.798523%,95.988464%,98.742676%);stop-opacity:1;"/>
<stop offset="1" style="stop-color:rgb(89.205933%,96.258545%,98.956299%);stop-opacity:1;"/>
</linearGradient>
<clipPath id="clip2">
  <path d="M 8 1.324219 L 132 1.324219 L 132 95 L 8 95 Z M 8 1.324219 "/>
</clipPath>
<clipPath id="clip3">
  <path d="M 2 66 L 15 66 L 15 95.324219 L 2 95.324219 Z M 2 66 "/>
</clipPath>
<clipPath id="clip4">
  <path d="M 1.300781 66 L 15 66 L 15 70 L 1.300781 70 Z M 1.300781 66 "/>
</clipPath>
<clipPath id="clip5">
  <path d="M 1.300781 63 L 18 63 L 18 73 L 1.300781 73 Z M 1.300781 63 "/>
</clipPath>
<clipPath id="clip6">
  <path d="M 0 0 L 133.226562 0 L 133.226562 97.171875 L 0 97.171875 Z M 0 0 "/>
</clipPath>
</defs>
<g id="surface1">
<g clip-path="url(#clip1)" clip-rule="nonzero">
<path style=" stroke:none;fill-rule:nonzero;fill:url(#linear0);" d="M 0 0 L 0 97.171875 L 133.226562 97.171875 L 133.226562 0 Z M 0 0 "/>
</g>
<g clip-path="url(#clip2)" clip-rule="nonzero">
<path style="fill-rule:nonzero;fill:rgb(99.266052%,88.952637%,67.266846%);fill-opacity:1;stroke-width:0.5;stroke-linecap:butt;stroke-linejoin:miter;stroke:rgb(93.609619%,18.434143%,17.378235%);stroke-opacity:1;stroke-miterlimit:4;" d="M 483.500781 678.125644 L 606.500781 678.125644 L 606.500781 585.461581 L 483.500781 585.461581 Z M 483.500781 678.125644 " transform="matrix(1,0,0,-1,-475.2,679.7858)"/>
</g>
<path style=" stroke:none;fill-rule:nonzero;fill:rgb(7.798767%,53.665161%,39.753723%);fill-opacity:1;" d="M 11.585938 94.269531 L 10.480469 69.648438 L 6.257812 69.648438 L 5.152344 94.269531 L 11.585938 94.269531 "/>
<g clip-path="url(#clip3)" clip-rule="nonzero">
<path style="fill:none;stroke-width:0.5;stroke-linecap:butt;stroke-linejoin:miter;stroke:rgb(13.729858%,12.159729%,12.548828%);stroke-opacity:1;stroke-miterlimit:4;" d="M 486.785937 585.516269 L 485.680469 610.137363 L 481.457812 610.137363 L 480.352344 585.516269 Z M 486.785937 585.516269 " transform="matrix(1,0,0,-1,-475.2,679.7858)"/>
</g>
<g clip-path="url(#clip4)" clip-rule="nonzero">
<path style=" stroke:none;fill-rule:nonzero;fill:rgb(7.798767%,53.665161%,39.753723%);fill-opacity:1;" d="M 1.871094 66.039062 C 1.871094 68.195312 4.78125 69.9375 8.367188 69.9375 C 11.957031 69.9375 14.863281 68.195312 14.863281 66.039062 L 1.871094 66.039062 "/>
</g>
<g clip-path="url(#clip5)" clip-rule="nonzero">
<path style="fill:none;stroke-width:0.5;stroke-linecap:butt;stroke-linejoin:miter;stroke:rgb(13.729858%,12.159729%,12.548828%);stroke-opacity:1;stroke-miterlimit:4;" d="M 477.071094 613.746738 C 477.071094 611.590488 479.98125 609.8483 483.567187 609.8483 C 487.157031 609.8483 490.063281 611.590488 490.063281 613.746738 Z M 477.071094 613.746738 " transform="matrix(1,0,0,-1,-475.2,679.7858)"/>
</g>
<path style=" stroke:none;fill-rule:nonzero;fill:rgb(100%,100%,100%);fill-opacity:1;" d="M 9.113281 66.011719 C 13.488281 53.949219 31.882812 20.394531 50.632812 20.410156 C 69.050781 20.421875 91.289062 67.308594 99.425781 92.449219 C 100.113281 94.574219 95.675781 93.449219 95.675781 94.261719 L 105.300781 94.261719 C 105.300781 93.449219 101.988281 94.574219 101.300781 92.449219 C 93.164062 67.308594 71.050781 19.574219 50.800781 19.574219 C 30.550781 19.574219 12.925781 53.949219 8.550781 66.011719 L 9.113281 66.011719 "/>
<path style="fill:none;stroke-width:0.5;stroke-linecap:butt;stroke-linejoin:round;stroke:rgb(13.729858%,12.159729%,12.548828%);stroke-opacity:1;stroke-miterlimit:4;" d="M 484.313281 613.774081 C 488.688281 625.836581 507.082812 659.391269 525.832813 659.375644 C 544.250781 659.363925 566.489063 612.477206 574.625781 587.336581 C 575.313281 585.211581 570.875781 586.336581 570.875781 585.524081 L 580.500781 585.524081 C 580.500781 586.336581 577.188281 585.211581 576.500781 587.336581 C 568.364063 612.477206 546.250781 660.211581 526.000781 660.211581 C 505.750781 660.211581 488.125781 625.836581 483.750781 613.774081 Z M 484.313281 613.774081 " transform="matrix(1,0,0,-1,-475.2,679.7858)"/>
<path style=" stroke:none;fill-rule:nonzero;fill:rgb(100%,100%,100%);fill-opacity:1;" d="M 102.699219 91.3125 C 102.3125 92.359375 101.890625 88.375 102.683594 88.429688 C 103.476562 88.484375 103.195312 89.972656 102.699219 91.3125 "/>
<path style="fill:none;stroke-width:0.5;stroke-linecap:butt;stroke-linejoin:round;stroke:rgb(13.729858%,12.159729%,12.548828%);stroke-opacity:1;stroke-miterlimit:4;" d="M 577.899219 588.4733 C 577.5125 587.426425 577.090625 591.4108 577.883594 591.356113 C 578.676563 591.301425 578.395313 589.813144 577.899219 588.4733 Z M 577.899219 588.4733 " transform="matrix(1,0,0,-1,-475.2,679.7858)"/>
<path style=" stroke:none;fill-rule:nonzero;fill:rgb(100%,100%,100%);fill-opacity:1;" d="M 96.613281 91.449219 C 97.40625 91.980469 95.613281 89.261719 94.800781 89.824219 C 93.988281 90.386719 95.675781 90.824219 96.613281 91.449219 "/>
<path style="fill:none;stroke-width:0.5;stroke-linecap:butt;stroke-linejoin:round;stroke:rgb(13.729858%,12.159729%,12.548828%);stroke-opacity:1;stroke-miterlimit:4;" d="M 571.813281 588.336581 C 572.60625 587.805331 570.813281 590.524081 570.000781 589.961581 C 569.188281 589.399081 570.875781 588.961581 571.813281 588.336581 Z M 571.813281 588.336581 " transform="matrix(1,0,0,-1,-475.2,679.7858)"/>
<path style=" stroke:none;fill-rule:nonzero;fill:rgb(100%,100%,100%);fill-opacity:1;" d="M 96.425781 92.761719 C 97.484375 92.234375 94.175781 92.699219 94.488281 92.949219 C 94.800781 93.199219 95.175781 93.386719 96.425781 92.761719 "/>
<path style="fill:none;stroke-width:0.5;stroke-linecap:butt;stroke-linejoin:round;stroke:rgb(13.729858%,12.159729%,12.548828%);stroke-opacity:1;stroke-miterlimit:4;" d="M 571.625781 587.024081 C 572.684375 587.551425 569.375781 587.086581 569.688281 586.836581 C 570.000781 586.586581 570.375781 586.399081 571.625781 587.024081 Z M 571.625781 587.024081 " transform="matrix(1,0,0,-1,-475.2,679.7858)"/>
<path style=" stroke:none;fill-rule:nonzero;fill:rgb(100%,100%,100%);fill-opacity:1;" d="M 103.699219 92.203125 C 103.96875 91.046875 105.316406 88.898438 106.058594 89.699219 C 106.800781 90.503906 103.445312 93.300781 103.699219 92.203125 "/>
<path style="fill:none;stroke-width:0.5;stroke-linecap:butt;stroke-linejoin:round;stroke:rgb(13.729858%,12.159729%,12.548828%);stroke-opacity:1;stroke-miterlimit:4;" d="M 578.899219 587.582675 C 579.16875 588.738925 580.516406 590.887363 581.258594 590.086581 C 582.000781 589.281894 578.645313 586.485019 578.899219 587.582675 Z M 578.899219 587.582675 " transform="matrix(1,0,0,-1,-475.2,679.7858)"/>
<path style=" stroke:none;fill-rule:nonzero;fill:rgb(100%,100%,100%);fill-opacity:1;" d="M 106.113281 93.074219 C 105.488281 93.011719 107.863281 91.636719 108.238281 92.011719 C 108.613281 92.386719 107.863281 93.261719 106.113281 93.074219 "/>
<path style="fill:none;stroke-width:0.5;stroke-linecap:butt;stroke-linejoin:round;stroke:rgb(13.729858%,12.159729%,12.548828%);stroke-opacity:1;stroke-miterlimit:4;" d="M 581.313281 586.711581 C 580.688281 586.774081 583.063281 588.149081 583.438281 587.774081 C 583.813281 587.399081 583.063281 586.524081 581.313281 586.711581 Z M 581.313281 586.711581 " transform="matrix(1,0,0,-1,-475.2,679.7858)"/>
<path style=" stroke:none;fill-rule:nonzero;fill:rgb(100%,100%,100%);fill-opacity:1;" d="M 8.628906 66.035156 L 8.628906 65.816406 C 8.628906 65.34375 8.699219 65.136719 8.722656 65.097656 C 8.710938 65.113281 8.671875 65.144531 8.617188 65.144531 C 8.789062 65.144531 8.925781 64.988281 8.925781 64.792969 C 8.925781 64.597656 8.789062 64.4375 8.617188 64.4375 C 8.34375 64.4375 8.011719 64.679688 8.011719 65.816406 L 8.011719 66.035156 L 8.628906 66.035156 "/>
<path style="fill:none;stroke-width:0.5;stroke-linecap:butt;stroke-linejoin:miter;stroke:rgb(13.729858%,12.159729%,12.548828%);stroke-opacity:1;stroke-miterlimit:4;" d="M 483.828906 613.750644 L 483.828906 613.969394 C 483.828906 614.44205 483.899219 614.649081 483.922656 614.688144 C 483.910937 614.672519 483.871875 614.641269 483.817187 614.641269 C 483.989062 614.641269 484.125781 614.797519 484.125781 614.992831 C 484.125781 615.188144 483.989062 615.3483 483.817187 615.3483 C 483.54375 615.3483 483.211719 615.106113 483.211719 613.969394 L 483.211719 613.750644 Z M 483.828906 613.750644 " transform="matrix(1,0,0,-1,-475.2,679.7858)"/>
<g clip-path="url(#clip6)" clip-rule="nonzero">
<path style="fill:none;stroke-width:0.5;stroke-linecap:butt;stroke-linejoin:miter;stroke:rgb(100%,100%,100%);stroke-opacity:1;stroke-miterlimit:10;" d="M 42.000781 804.000644 L 42.000781 780.000644 M 0.00078125 762.000644 L 24.000781 762.000644 M 654.000781 804.000644 L 654.000781 780.000644 M 696.000781 762.000644 L 672.000781 762.000644 M 42.000781 0.00064375 L 42.000781 24.000644 M 0.00078125 42.000644 L 24.000781 42.000644 M 654.000781 0.00064375 L 654.000781 24.000644 M 696.000781 42.000644 L 672.000781 42.000644 " transform="matrix(1,0,0,-1,-475.2,679.7858)"/>
<path style="fill:none;stroke-width:0.25;stroke-linecap:butt;stroke-linejoin:miter;stroke:rgb(0%,0%,0%);stroke-opacity:1;stroke-miterlimit:10;" d="M 42.000781 804.000644 L 42.000781 780.000644 M 0.00078125 762.000644 L 24.000781 762.000644 M 654.000781 804.000644 L 654.000781 780.000644 M 696.000781 762.000644 L 672.000781 762.000644 M 42.000781 0.00064375 L 42.000781 24.000644 M 0.00078125 42.000644 L 24.000781 42.000644 M 654.000781 0.00064375 L 654.000781 24.000644 M 696.000781 42.000644 L 672.000781 42.000644 " transform="matrix(1,0,0,-1,-475.2,679.7858)"/>
<path style="fill:none;stroke-width:0.5;stroke-linecap:butt;stroke-linejoin:miter;stroke:rgb(100%,100%,100%);stroke-opacity:1;stroke-miterlimit:10;" d="M 324.000781 792.000644 L 372.000781 792.000644 M 324.000781 12.000644 L 372.000781 12.000644 M 12.000781 426.000644 L 12.000781 378.000644 M 684.000781 426.000644 L 684.000781 378.000644 M 348.000781 804.000644 L 348.000781 780.000644 M 348.000781 24.000644 L 348.000781 0.00064375 M 0.00078125 402.000644 L 24.000781 402.000644 M 672.000781 402.000644 L 696.000781 402.000644 M 348.000781 792.000644 L 354.000781 792.000644 C 354.000781 788.688144 351.313281 786.000644 348.000781 786.000644 C 344.688281 786.000644 342.000781 788.688144 342.000781 792.000644 C 342.000781 795.313144 344.688281 798.000644 348.000781 798.000644 C 351.313281 798.000644 354.000781 795.313144 354.000781 792.000644 M 348.000781 12.000644 L 354.000781 12.000644 C 354.000781 8.688144 351.313281 6.000644 348.000781 6.000644 C 344.688281 6.000644 342.000781 8.688144 342.000781 12.000644 C 342.000781 15.313144 344.688281 18.000644 348.000781 18.000644 C 351.313281 18.000644 354.000781 15.313144 354.000781 12.000644 M 12.000781 402.000644 L 18.000781 402.000644 C 18.000781 398.688144 15.313281 396.000644 12.000781 396.000644 C 8.688281 396.000644 6.000781 398.688144 6.000781 402.000644 C 6.000781 405.313144 8.688281 408.000644 12.000781 408.000644 C 15.313281 408.000644 18.000781 405.313144 18.000781 402.000644 M 684.000781 402.000644 L 690.000781 402.000644 C 690.000781 398.688144 687.313281 396.000644 684.000781 396.000644 C 680.688281 396.000644 678.000781 398.688144 678.000781 402.000644 C 678.000781 405.313144 680.688281 408.000644 684.000781 408.000644 C 687.313281 408.000644 690.000781 405.313144 690.000781 402.000644 " transform="matrix(1,0,0,-1,-475.2,679.7858)"/>
<path style="fill:none;stroke-width:0.25;stroke-linecap:butt;stroke-linejoin:miter;stroke:rgb(0%,0%,0%);stroke-opacity:1;stroke-miterlimit:10;" d="M 324.000781 792.000644 L 372.000781 792.000644 M 324.000781 12.000644 L 372.000781 12.000644 M 12.000781 426.000644 L 12.000781 378.000644 M 684.000781 426.000644 L 684.000781 378.000644 M 348.000781 804.000644 L 348.000781 780.000644 M 348.000781 24.000644 L 348.000781 0.00064375 M 0.00078125 402.000644 L 24.000781 402.000644 M 672.000781 402.000644 L 696.000781 402.000644 M 348.000781 792.000644 L 354.000781 792.000644 C 354.000781 788.688144 351.313281 786.000644 348.000781 786.000644 C 344.688281 786.000644 342.000781 788.688144 342.000781 792.000644 C 342.000781 795.313144 344.688281 798.000644 348.000781 798.000644 C 351.313281 798.000644 354.000781 795.313144 354.000781 792.000644 M 348.000781 12.000644 L 354.000781 12.000644 C 354.000781 8.688144 351.313281 6.000644 348.000781 6.000644 C 344.688281 6.000644 342.000781 8.688144 342.000781 12.000644 C 342.000781 15.313144 344.688281 18.000644 348.000781 18.000644 C 351.313281 18.000644 354.000781 15.313144 354.000781 12.000644 M 12.000781 402.000644 L 18.000781 402.000644 C 18.000781 398.688144 15.313281 396.000644 12.000781 396.000644 C 8.688281 396.000644 6.000781 398.688144 6.000781 402.000644 C 6.000781 405.313144 8.688281 408.000644 12.000781 408.000644 C 15.313281 408.000644 18.000781 405.313144 18.000781 402.000644 M 684.000781 402.000644 L 690.000781 402.000644 C 690.000781 398.688144 687.313281 396.000644 684.000781 396.000644 C 680.688281 396.000644 678.000781 398.688144 678.000781 402.000644 C 678.000781 405.313144 680.688281 408.000644 684.000781 408.000644 C 687.313281 408.000644 690.000781 405.313144 690.000781 402.000644 " transform="matrix(1,0,0,-1,-475.2,679.7858)"/>
</g>
</g>
</svg>
