<?xml version="1.0" encoding="UTF-8"?>
<svg xmlns="http://www.w3.org/2000/svg" xmlns:xlink="http://www.w3.org/1999/xlink" width="108pt" height="106.1858pt" viewBox="0 0 108 106.1858" version="1.1">
<defs>
<clipPath id="clip1">
  <path d="M 2.214844 8 L 47 8 L 47 105.371094 L 2.214844 105.371094 Z M 2.214844 8 "/>
</clipPath>
<clipPath id="clip2">
  <path d="M 2.214844 1.371094 L 6 1.371094 L 6 6 L 2.214844 6 Z M 2.214844 1.371094 "/>
</clipPath>
<clipPath id="clip3">
  <path d="M 102 101 L 107 101 L 107 105.371094 L 102 105.371094 Z M 102 101 "/>
</clipPath>
</defs>
<g id="surface1">
<path style="fill:none;stroke-width:0.35;stroke-linecap:butt;stroke-linejoin:miter;stroke:rgb(74.119568%,73.648071%,73.765564%);stroke-opacity:1;stroke-miterlimit:4;" d="M 105.246737 497.397656 L 105.246737 405.405469 M 114.445956 497.397656 L 114.445956 405.405469 M 123.645175 497.397656 L 123.645175 405.405469 M 132.844394 497.397656 L 132.844394 405.405469 M 142.043612 497.397656 L 142.043612 405.405469 M 151.246737 497.397656 L 151.246737 405.405469 M 160.445956 497.397656 L 160.445956 405.405469 M 169.645175 497.397656 L 169.645175 405.405469 M 178.844394 497.397656 L 178.844394 405.405469 M 188.043612 497.397656 L 188.043612 405.405469 M 96.047519 405.405469 L 188.043612 405.405469 M 96.047519 414.604688 L 188.043612 414.604688 M 96.047519 423.803906 L 188.043612 423.803906 M 96.047519 433.003125 L 188.043612 433.003125 M 96.047519 442.202344 L 188.043612 442.202344 M 96.047519 451.401563 L 188.043612 451.401563 M 96.047519 460.600781 L 188.043612 460.600781 M 96.047519 469.8 L 188.043612 469.8 M 96.047519 478.999219 L 188.043612 478.999219 M 96.047519 488.198438 L 188.043612 488.198438 M 96.047519 497.397656 L 188.043612 497.397656 " transform="matrix(1,0,0,-1,-91.7858,508.8)"/>
<g clip-path="url(#clip1)" clip-rule="nonzero">
<path style="fill:none;stroke-width:1.2;stroke-linecap:butt;stroke-linejoin:miter;stroke:rgb(93.609619%,18.434143%,17.378235%);stroke-opacity:1;stroke-miterlimit:4;" d="M 131.274081 493.464063 L 96.047519 405.405469 " transform="matrix(1,0,0,-1,-91.7858,508.8)"/>
</g>
<path style=" stroke:none;fill-rule:nonzero;fill:rgb(93.609619%,18.434143%,17.378235%);fill-opacity:1;" d="M 41.058594 11.402344 L 41.105469 17.851562 L 39.371094 15.628906 L 36.578125 16.039062 L 41.058594 11.402344 "/>
<path style="fill:none;stroke-width:0.7;stroke-linecap:butt;stroke-linejoin:miter;stroke:rgb(13.729858%,12.159729%,12.548828%);stroke-opacity:1;stroke-miterlimit:4;" d="M 96.047519 504.432813 L 96.047519 405.405469 " transform="matrix(1,0,0,-1,-91.7858,508.8)"/>
<g clip-path="url(#clip2)" clip-rule="nonzero">
<path style=" stroke:none;fill-rule:nonzero;fill:rgb(13.729858%,12.159729%,12.548828%);fill-opacity:1;" d="M 4.261719 1.402344 L 5.96875 5.578125 L 4.261719 4.589844 L 2.554688 5.578125 L 4.261719 1.402344 "/>
</g>
<path style="fill:none;stroke-width:0.7;stroke-linecap:butt;stroke-linejoin:miter;stroke:rgb(13.729858%,12.159729%,12.548828%);stroke-opacity:1;stroke-miterlimit:4;" d="M 96.047519 405.405469 L 195.078769 405.405469 " transform="matrix(1,0,0,-1,-91.7858,508.8)"/>
<g clip-path="url(#clip3)" clip-rule="nonzero">
<path style=" stroke:none;fill-rule:nonzero;fill:rgb(13.729858%,12.159729%,12.548828%);fill-opacity:1;" d="M 106.257812 103.394531 L 102.078125 105.101562 L 103.070312 103.394531 L 102.078125 101.6875 L 106.257812 103.394531 "/>
</g>
<path style="fill:none;stroke-width:0.5;stroke-linecap:butt;stroke-linejoin:miter;stroke:rgb(100%,100%,100%);stroke-opacity:1;stroke-miterlimit:10;" d="M 42.000644 803.999219 L 42.000644 779.999219 M 0.00064375 761.999219 L 24.000644 761.999219 M 654.000644 803.999219 L 654.000644 779.999219 M 696.000644 761.999219 L 672.000644 761.999219 M 42.000644 -0.00078125 L 42.000644 23.999219 M 0.00064375 41.999219 L 24.000644 41.999219 M 654.000644 -0.00078125 L 654.000644 23.999219 M 696.000644 41.999219 L 672.000644 41.999219 " transform="matrix(1,0,0,-1,-91.7858,508.8)"/>
<path style="fill:none;stroke-width:0.25;stroke-linecap:butt;stroke-linejoin:miter;stroke:rgb(0%,0%,0%);stroke-opacity:1;stroke-miterlimit:10;" d="M 42.000644 803.999219 L 42.000644 779.999219 M 0.00064375 761.999219 L 24.000644 761.999219 M 654.000644 803.999219 L 654.000644 779.999219 M 696.000644 761.999219 L 672.000644 761.999219 M 42.000644 -0.00078125 L 42.000644 23.999219 M 0.00064375 41.999219 L 24.000644 41.999219 M 654.000644 -0.00078125 L 654.000644 23.999219 M 696.000644 41.999219 L 672.000644 41.999219 " transform="matrix(1,0,0,-1,-91.7858,508.8)"/>
<path style="fill:none;stroke-width:0.5;stroke-linecap:butt;stroke-linejoin:miter;stroke:rgb(100%,100%,100%);stroke-opacity:1;stroke-miterlimit:10;" d="M 324.000644 791.999219 L 372.000644 791.999219 M 324.000644 11.999219 L 372.000644 11.999219 M 12.000644 425.999219 L 12.000644 377.999219 M 684.000644 425.999219 L 684.000644 377.999219 M 348.000644 803.999219 L 348.000644 779.999219 M 348.000644 23.999219 L 348.000644 -0.00078125 M 0.00064375 401.999219 L 24.000644 401.999219 M 672.000644 401.999219 L 696.000644 401.999219 M 348.000644 791.999219 L 354.000644 791.999219 C 354.000644 788.686719 351.313144 785.999219 348.000644 785.999219 C 344.688144 785.999219 342.000644 788.686719 342.000644 791.999219 C 342.000644 795.311719 344.688144 797.999219 348.000644 797.999219 C 351.313144 797.999219 354.000644 795.311719 354.000644 791.999219 M 348.000644 11.999219 L 354.000644 11.999219 C 354.000644 8.686719 351.313144 5.999219 348.000644 5.999219 C 344.688144 5.999219 342.000644 8.686719 342.000644 11.999219 C 342.000644 15.311719 344.688144 17.999219 348.000644 17.999219 C 351.313144 17.999219 354.000644 15.311719 354.000644 11.999219 M 12.000644 401.999219 L 18.000644 401.999219 C 18.000644 398.686719 15.313144 395.999219 12.000644 395.999219 C 8.688144 395.999219 6.000644 398.686719 6.000644 401.999219 C 6.000644 405.311719 8.688144 407.999219 12.000644 407.999219 C 15.313144 407.999219 18.000644 405.311719 18.000644 401.999219 M 684.000644 401.999219 L 690.000644 401.999219 C 690.000644 398.686719 687.313144 395.999219 684.000644 395.999219 C 680.688144 395.999219 678.000644 398.686719 678.000644 401.999219 C 678.000644 405.311719 680.688144 407.999219 684.000644 407.999219 C 687.313144 407.999219 690.000644 405.311719 690.000644 401.999219 " transform="matrix(1,0,0,-1,-91.7858,508.8)"/>
<path style="fill:none;stroke-width:0.25;stroke-linecap:butt;stroke-linejoin:miter;stroke:rgb(0%,0%,0%);stroke-opacity:1;stroke-miterlimit:10;" d="M 324.000644 791.999219 L 372.000644 791.999219 M 324.000644 11.999219 L 372.000644 11.999219 M 12.000644 425.999219 L 12.000644 377.999219 M 684.000644 425.999219 L 684.000644 377.999219 M 348.000644 803.999219 L 348.000644 779.999219 M 348.000644 23.999219 L 348.000644 -0.00078125 M 0.00064375 401.999219 L 24.000644 401.999219 M 672.000644 401.999219 L 696.000644 401.999219 M 348.000644 791.999219 L 354.000644 791.999219 C 354.000644 788.686719 351.313144 785.999219 348.000644 785.999219 C 344.688144 785.999219 342.000644 788.686719 342.000644 791.999219 C 342.000644 795.311719 344.688144 797.999219 348.000644 797.999219 C 351.313144 797.999219 354.000644 795.311719 354.000644 791.999219 M 348.000644 11.999219 L 354.000644 11.999219 C 354.000644 8.686719 351.313144 5.999219 348.000644 5.999219 C 344.688144 5.999219 342.000644 8.686719 342.000644 11.999219 C 342.000644 15.311719 344.688144 17.999219 348.000644 17.999219 C 351.313144 17.999219 354.000644 15.311719 354.000644 11.999219 M 12.000644 401.999219 L 18.000644 401.999219 C 18.000644 398.686719 15.313144 395.999219 12.000644 395.999219 C 8.688144 395.999219 6.000644 398.686719 6.000644 401.999219 C 6.000644 405.311719 8.688144 407.999219 12.000644 407.999219 C 15.313144 407.999219 18.000644 405.311719 18.000644 401.999219 M 684.000644 401.999219 L 690.000644 401.999219 C 690.000644 398.686719 687.313144 395.999219 684.000644 395.999219 C 680.688144 395.999219 678.000644 398.686719 678.000644 401.999219 C 678.000644 405.311719 680.688144 407.999219 684.000644 407.999219 C 687.313144 407.999219 690.000644 405.311719 690.000644 401.999219 " transform="matrix(1,0,0,-1,-91.7858,508.8)"/>
</g>
</svg>
