<?xml version="1.0" encoding="UTF-8"?>
<svg xmlns="http://www.w3.org/2000/svg" xmlns:xlink="http://www.w3.org/1999/xlink" width="97.1717pt" height="95.4142pt" viewBox="0 0 97.1717 95.4142" version="1.1">
<defs>
<clipPath id="clip1">
  <path d="M 14 0.695312 L 95.972656 0.695312 L 95.972656 82 L 14 82 Z M 14 0.695312 "/>
</clipPath>
<clipPath id="clip2">
  <path d="M 0 0 L 97.171875 0 L 97.171875 95.414062 L 0 95.414062 Z M 0 0 "/>
</clipPath>
</defs>
<g id="surface1">
<path style="fill:none;stroke-width:0.35;stroke-linecap:butt;stroke-linejoin:miter;stroke:rgb(74.119568%,73.648071%,73.765564%);stroke-opacity:1;stroke-miterlimit:4;" d="M 138.040019 409.750137 L 138.040019 501.750137 M 147.239238 409.750137 L 147.239238 501.750137 M 156.438456 409.750137 L 156.438456 501.750137 M 165.637675 409.750137 L 165.637675 501.750137 M 174.836894 409.750137 L 174.836894 501.750137 M 184.036113 409.750137 L 184.036113 501.750137 M 193.231425 409.750137 L 193.231425 501.750137 M 202.43455 409.750137 L 202.43455 501.750137 M 211.629863 409.750137 L 211.629863 501.750137 M 128.8408 501.750137 L 220.829081 501.750137 L 220.829081 409.750137 L 128.8408 409.750137 Z M 128.8408 492.550919 L 220.766581 492.550919 M 128.8408 483.3517 L 220.766581 483.3517 M 128.8408 474.148575 L 220.766581 474.148575 M 128.8408 464.949356 L 220.766581 464.949356 M 128.8408 455.750137 L 220.766581 455.750137 M 128.8408 446.550919 L 220.766581 446.550919 M 128.8408 437.3517 L 220.766581 437.3517 M 128.8408 428.148575 L 220.766581 428.148575 M 128.8408 418.949356 L 220.766581 418.949356 " transform="matrix(1,0,0,-1,-126.0283,503.4142)"/>
<path style=" stroke:none;fill-rule:nonzero;fill:rgb(93.609619%,18.434143%,17.378235%);fill-opacity:1;" d="M 67.199219 49.664062 C 68.300781 49.664062 69.199219 48.769531 69.199219 47.664062 C 69.199219 46.558594 68.300781 45.664062 67.199219 45.664062 C 66.09375 45.664062 65.199219 46.558594 65.199219 47.664062 C 65.199219 48.769531 66.09375 49.664062 67.199219 49.664062 "/>
<g clip-path="url(#clip1)" clip-rule="nonzero">
<path style="fill:none;stroke-width:1.2;stroke-linecap:butt;stroke-linejoin:miter;stroke:rgb(93.609619%,18.434143%,17.378235%);stroke-opacity:1;stroke-miterlimit:4;" d="M 147.536113 501.441544 L 220.49705 428.480606 " transform="matrix(1,0,0,-1,-126.0283,503.4142)"/>
</g>
<path style=" stroke:none;fill-rule:nonzero;fill:rgb(93.609619%,18.434143%,17.378235%);fill-opacity:1;" d="M 30.410156 12.875 C 31.515625 12.875 32.410156 11.980469 32.410156 10.875 C 32.410156 9.769531 31.515625 8.875 30.410156 8.875 C 29.304688 8.875 28.410156 9.769531 28.410156 10.875 C 28.410156 11.980469 29.304688 12.875 30.410156 12.875 "/>
<g clip-path="url(#clip2)" clip-rule="nonzero">
<path style="fill:none;stroke-width:0.5;stroke-linecap:butt;stroke-linejoin:miter;stroke:rgb(100%,100%,100%);stroke-opacity:1;stroke-miterlimit:10;" d="M 42.000956 804.000137 L 42.000956 780.000137 M 0.00095625 762.000137 L 24.000956 762.000137 M 654.000956 804.000137 L 654.000956 780.000137 M 696.000956 762.000137 L 672.000956 762.000137 M 42.000956 0.0001375 L 42.000956 24.000137 M 0.00095625 42.000137 L 24.000956 42.000137 M 654.000956 0.0001375 L 654.000956 24.000137 M 696.000956 42.000137 L 672.000956 42.000137 " transform="matrix(1,0,0,-1,-126.0283,503.4142)"/>
<path style="fill:none;stroke-width:0.25;stroke-linecap:butt;stroke-linejoin:miter;stroke:rgb(0%,0%,0%);stroke-opacity:1;stroke-miterlimit:10;" d="M 42.000956 804.000137 L 42.000956 780.000137 M 0.00095625 762.000137 L 24.000956 762.000137 M 654.000956 804.000137 L 654.000956 780.000137 M 696.000956 762.000137 L 672.000956 762.000137 M 42.000956 0.0001375 L 42.000956 24.000137 M 0.00095625 42.000137 L 24.000956 42.000137 M 654.000956 0.0001375 L 654.000956 24.000137 M 696.000956 42.000137 L 672.000956 42.000137 " transform="matrix(1,0,0,-1,-126.0283,503.4142)"/>
<path style="fill:none;stroke-width:0.5;stroke-linecap:butt;stroke-linejoin:miter;stroke:rgb(100%,100%,100%);stroke-opacity:1;stroke-miterlimit:10;" d="M 324.000956 792.000137 L 372.000956 792.000137 M 324.000956 12.000137 L 372.000956 12.000137 M 12.000956 426.000137 L 12.000956 378.000137 M 684.000956 426.000137 L 684.000956 378.000137 M 348.000956 804.000137 L 348.000956 780.000137 M 348.000956 24.000137 L 348.000956 0.0001375 M 0.00095625 402.000137 L 24.000956 402.000137 M 672.000956 402.000137 L 696.000956 402.000137 M 348.000956 792.000137 L 354.000956 792.000137 C 354.000956 788.687637 351.313456 786.000137 348.000956 786.000137 C 344.688456 786.000137 342.000956 788.687637 342.000956 792.000137 C 342.000956 795.312637 344.688456 798.000137 348.000956 798.000137 C 351.313456 798.000137 354.000956 795.312637 354.000956 792.000137 M 348.000956 12.000137 L 354.000956 12.000137 C 354.000956 8.687637 351.313456 6.000137 348.000956 6.000137 C 344.688456 6.000137 342.000956 8.687637 342.000956 12.000137 C 342.000956 15.312637 344.688456 18.000137 348.000956 18.000137 C 351.313456 18.000137 354.000956 15.312637 354.000956 12.000137 M 12.000956 402.000137 L 18.000956 402.000137 C 18.000956 398.687637 15.313456 396.000137 12.000956 396.000137 C 8.688456 396.000137 6.000956 398.687637 6.000956 402.000137 C 6.000956 405.312637 8.688456 408.000137 12.000956 408.000137 C 15.313456 408.000137 18.000956 405.312637 18.000956 402.000137 M 684.000956 402.000137 L 690.000956 402.000137 C 690.000956 398.687637 687.313456 396.000137 684.000956 396.000137 C 680.688456 396.000137 678.000956 398.687637 678.000956 402.000137 C 678.000956 405.312637 680.688456 408.000137 684.000956 408.000137 C 687.313456 408.000137 690.000956 405.312637 690.000956 402.000137 " transform="matrix(1,0,0,-1,-126.0283,503.4142)"/>
<path style="fill:none;stroke-width:0.25;stroke-linecap:butt;stroke-linejoin:miter;stroke:rgb(0%,0%,0%);stroke-opacity:1;stroke-miterlimit:10;" d="M 324.000956 792.000137 L 372.000956 792.000137 M 324.000956 12.000137 L 372.000956 12.000137 M 12.000956 426.000137 L 12.000956 378.000137 M 684.000956 426.000137 L 684.000956 378.000137 M 348.000956 804.000137 L 348.000956 780.000137 M 348.000956 24.000137 L 348.000956 0.0001375 M 0.00095625 402.000137 L 24.000956 402.000137 M 672.000956 402.000137 L 696.000956 402.000137 M 348.000956 792.000137 L 354.000956 792.000137 C 354.000956 788.687637 351.313456 786.000137 348.000956 786.000137 C 344.688456 786.000137 342.000956 788.687637 342.000956 792.000137 C 342.000956 795.312637 344.688456 798.000137 348.000956 798.000137 C 351.313456 798.000137 354.000956 795.312637 354.000956 792.000137 M 348.000956 12.000137 L 354.000956 12.000137 C 354.000956 8.687637 351.313456 6.000137 348.000956 6.000137 C 344.688456 6.000137 342.000956 8.687637 342.000956 12.000137 C 342.000956 15.312637 344.688456 18.000137 348.000956 18.000137 C 351.313456 18.000137 354.000956 15.312637 354.000956 12.000137 M 12.000956 402.000137 L 18.000956 402.000137 C 18.000956 398.687637 15.313456 396.000137 12.000956 396.000137 C 8.688456 396.000137 6.000956 398.687637 6.000956 402.000137 C 6.000956 405.312637 8.688456 408.000137 12.000956 408.000137 C 15.313456 408.000137 18.000956 405.312637 18.000956 402.000137 M 684.000956 402.000137 L 690.000956 402.000137 C 690.000956 398.687637 687.313456 396.000137 684.000956 396.000137 C 680.688456 396.000137 678.000956 398.687637 678.000956 402.000137 C 678.000956 405.312637 680.688456 408.000137 684.000956 408.000137 C 687.313456 408.000137 690.000956 405.312637 690.000956 402.000137 " transform="matrix(1,0,0,-1,-126.0283,503.4142)"/>
</g>
</g>
</svg>
