<?xml version="1.0" encoding="UTF-8"?>
<svg xmlns="http://www.w3.org/2000/svg" xmlns:xlink="http://www.w3.org/1999/xlink" width="88.2141pt" height="39.6283pt" viewBox="0 0 88.2141 39.6283" version="1.1">
<defs>
<clipPath id="clip1">
  <path d="M 1 1 L 86 1 L 86 38.96875 L 1 38.96875 Z M 1 1 "/>
</clipPath>
</defs>
<g id="surface1">
<path style=" stroke:none;fill-rule:nonzero;fill:rgb(100%,100%,100%);fill-opacity:1;" d="M 0.398438 0.96875 L 86.398438 0.96875 L 86.398438 38.96875 L 0.398438 38.96875 Z M 0.398438 0.96875 "/>
<g clip-path="url(#clip1)" clip-rule="nonzero">
<path style="fill:none;stroke-width:0.5;stroke-linecap:butt;stroke-linejoin:miter;stroke:rgb(7.798767%,53.665161%,39.753723%);stroke-opacity:1;stroke-miterlimit:4;" d="M 94.998437 643.295313 L 179.334375 643.295313 L 179.334375 679.63125 L 94.998437 679.63125 Z M 123.111719 679.63125 L 123.111719 643.295313 M 151.221094 679.63125 L 151.221094 643.295313 " transform="matrix(1,0,0,-1,-93.6,681.6)"/>
</g>
<path style="fill:none;stroke-width:0.5;stroke-linecap:butt;stroke-linejoin:miter;stroke:rgb(100%,100%,100%);stroke-opacity:1;stroke-miterlimit:10;" d="M 41.998437 803.998438 L 41.998437 779.998438 M -0.0015625 761.998438 L 23.998437 761.998438 M 653.998438 803.998438 L 653.998438 779.998438 M 695.998438 761.998438 L 671.998438 761.998438 M 41.998437 -0.0015625 L 41.998437 23.998438 M -0.0015625 41.998438 L 23.998437 41.998438 M 653.998438 -0.0015625 L 653.998438 23.998438 M 695.998438 41.998438 L 671.998438 41.998438 " transform="matrix(1,0,0,-1,-93.6,681.6)"/>
<path style="fill:none;stroke-width:0.25;stroke-linecap:butt;stroke-linejoin:miter;stroke:rgb(0%,0%,0%);stroke-opacity:1;stroke-miterlimit:10;" d="M 41.998437 803.998438 L 41.998437 779.998438 M -0.0015625 761.998438 L 23.998437 761.998438 M 653.998438 803.998438 L 653.998438 779.998438 M 695.998438 761.998438 L 671.998438 761.998438 M 41.998437 -0.0015625 L 41.998437 23.998438 M -0.0015625 41.998438 L 23.998437 41.998438 M 653.998438 -0.0015625 L 653.998438 23.998438 M 695.998438 41.998438 L 671.998438 41.998438 " transform="matrix(1,0,0,-1,-93.6,681.6)"/>
<path style="fill:none;stroke-width:0.5;stroke-linecap:butt;stroke-linejoin:miter;stroke:rgb(100%,100%,100%);stroke-opacity:1;stroke-miterlimit:10;" d="M 323.998438 791.998438 L 371.998438 791.998438 M 323.998438 11.998438 L 371.998438 11.998438 M 11.998437 425.998438 L 11.998437 377.998438 M 683.998438 425.998438 L 683.998438 377.998438 M 347.998438 803.998438 L 347.998438 779.998438 M 347.998438 23.998438 L 347.998438 -0.0015625 M -0.0015625 401.998438 L 23.998437 401.998438 M 671.998438 401.998438 L 695.998438 401.998438 M 347.998438 791.998438 L 353.998438 791.998438 C 353.998438 788.689844 351.310938 785.998438 347.998438 785.998438 C 344.689844 785.998438 341.998438 788.689844 341.998438 791.998438 C 341.998438 795.310938 344.689844 797.998438 347.998438 797.998438 C 351.310938 797.998438 353.998438 795.310938 353.998438 791.998438 M 347.998438 11.998438 L 353.998438 11.998438 C 353.998438 8.689844 351.310938 5.998438 347.998438 5.998438 C 344.689844 5.998438 341.998438 8.689844 341.998438 11.998438 C 341.998438 15.310938 344.689844 17.998438 347.998438 17.998438 C 351.310938 17.998438 353.998438 15.310938 353.998438 11.998438 M 11.998437 401.998438 L 17.998437 401.998438 C 17.998437 398.689844 15.310937 395.998438 11.998437 395.998438 C 8.689844 395.998438 5.998437 398.689844 5.998437 401.998438 C 5.998437 405.310938 8.689844 407.998438 11.998437 407.998438 C 15.310937 407.998438 17.998437 405.310938 17.998437 401.998438 M 683.998438 401.998438 L 689.998438 401.998438 C 689.998438 398.689844 687.310938 395.998438 683.998438 395.998438 C 680.689844 395.998438 677.998438 398.689844 677.998438 401.998438 C 677.998438 405.310938 680.689844 407.998438 683.998438 407.998438 C 687.310938 407.998438 689.998438 405.310938 689.998438 401.998438 " transform="matrix(1,0,0,-1,-93.6,681.6)"/>
<path style="fill:none;stroke-width:0.25;stroke-linecap:butt;stroke-linejoin:miter;stroke:rgb(0%,0%,0%);stroke-opacity:1;stroke-miterlimit:10;" d="M 323.998438 791.998438 L 371.998438 791.998438 M 323.998438 11.998438 L 371.998438 11.998438 M 11.998437 425.998438 L 11.998437 377.998438 M 683.998438 425.998438 L 683.998438 377.998438 M 347.998438 803.998438 L 347.998438 779.998438 M 347.998438 23.998438 L 347.998438 -0.0015625 M -0.0015625 401.998438 L 23.998437 401.998438 M 671.998438 401.998438 L 695.998438 401.998438 M 347.998438 791.998438 L 353.998438 791.998438 C 353.998438 788.689844 351.310938 785.998438 347.998438 785.998438 C 344.689844 785.998438 341.998438 788.689844 341.998438 791.998438 C 341.998438 795.310938 344.689844 797.998438 347.998438 797.998438 C 351.310938 797.998438 353.998438 795.310938 353.998438 791.998438 M 347.998438 11.998438 L 353.998438 11.998438 C 353.998438 8.689844 351.310938 5.998438 347.998438 5.998438 C 344.689844 5.998438 341.998438 8.689844 341.998438 11.998438 C 341.998438 15.310938 344.689844 17.998438 347.998438 17.998438 C 351.310938 17.998438 353.998438 15.310938 353.998438 11.998438 M 11.998437 401.998438 L 17.998437 401.998438 C 17.998437 398.689844 15.310937 395.998438 11.998437 395.998438 C 8.689844 395.998438 5.998437 398.689844 5.998437 401.998438 C 5.998437 405.310938 8.689844 407.998438 11.998437 407.998438 C 15.310937 407.998438 17.998437 405.310938 17.998437 401.998438 M 683.998438 401.998438 L 689.998438 401.998438 C 689.998438 398.689844 687.310938 395.998438 683.998438 395.998438 C 680.689844 395.998438 677.998438 398.689844 677.998438 401.998438 C 677.998438 405.310938 680.689844 407.998438 683.998438 407.998438 C 687.310938 407.998438 689.998438 405.310938 689.998438 401.998438 " transform="matrix(1,0,0,-1,-93.6,681.6)"/>
</g>
</svg>
