<?xml version="1.0" encoding="UTF-8" standalone="no"?>
<!-- Created with Inkscape (http://www.inkscape.org/) -->

<svg
   xmlns:dc="http://purl.org/dc/elements/1.1/"
   xmlns:cc="http://creativecommons.org/ns#"
   xmlns:rdf="http://www.w3.org/1999/02/22-rdf-syntax-ns#"
   xmlns:svg="http://www.w3.org/2000/svg"
   xmlns="http://www.w3.org/2000/svg"
   xmlns:sodipodi="http://sodipodi.sourceforge.net/DTD/sodipodi-0.dtd"
   xmlns:inkscape="http://www.inkscape.org/namespaces/inkscape"
   width="2.8328609in"
   height="0.24196762in"
   viewBox="0 0 71.954668 6.1459775"
   version="1.1"
   id="svg2459"
   inkscape:version="0.92.2 (5c3e80d, 2017-08-06)"
   sodipodi:docname="fig-ans-a-2-49.svg">
  <defs
     id="defs2453">
    <clipPath
       clipPathUnits="userSpaceOnUse"
       id="clipPath1036">
      <path
         d="m 94.5,259.64 h 205 v -21 h -205 z"
         id="path1034"
         inkscape:connector-curvature="0"
         style="clip-rule:evenodd" />
    </clipPath>
    <clipPath
       clipPathUnits="userSpaceOnUse"
       id="clipPath1042">
      <path
         d="M 28,776 H 668 V 28 H 28 Z"
         id="path1040"
         inkscape:connector-curvature="0" />
    </clipPath>
    <clipPath
       clipPathUnits="userSpaceOnUse"
       id="clipPath1048">
      <path
         d="m 0,804.015 h 696 v -804 H 0 Z"
         id="path1046"
         inkscape:connector-curvature="0" />
    </clipPath>
  </defs>
  <sodipodi:namedview
     id="base"
     pagecolor="#ffffff"
     bordercolor="#666666"
     borderopacity="1.0"
     inkscape:pageopacity="0.0"
     inkscape:pageshadow="2"
     inkscape:zoom="4.4529481"
     inkscape:cx="135.97733"
     inkscape:cy="11.614449"
     inkscape:document-units="mm"
     inkscape:current-layer="layer1"
     showgrid="false"
     inkscape:window-width="1366"
     inkscape:window-height="745"
     inkscape:window-x="-8"
     inkscape:window-y="-8"
     inkscape:window-maximized="1"
     fit-margin-top="0"
     fit-margin-left="0"
     fit-margin-right="0"
     fit-margin-bottom="0"
     units="in" />
  <metadata
     id="metadata2456">
    <rdf:RDF>
      <cc:Work
         rdf:about="">
        <dc:format>image/svg+xml</dc:format>
        <dc:type
           rdf:resource="http://purl.org/dc/dcmitype/StillImage" />
        <dc:title></dc:title>
      </cc:Work>
    </rdf:RDF>
  </metadata>
  <g
     inkscape:label="Layer 1"
     inkscape:groupmode="layer"
     id="layer1"
     transform="translate(-1.8202837,-2.1293933)">
    <g
       transform="matrix(0.35277777,0,0,-0.35277777,-31.77051,93.400058)"
       id="g1030">
      <g
         id="g1032"
         clip-path="url(#clipPath1036)">
        <g
           id="g1038"
           clip-path="url(#clipPath1042)">
          <g
             id="g1044"
             clip-path="url(#clipPath1048)">
            <path
               d="M 296.219,254.699 H 95.218"
               style="fill:none;stroke:#000000;stroke-width:0.69999999;stroke-linecap:butt;stroke-linejoin:miter;stroke-miterlimit:4;stroke-dasharray:none;stroke-opacity:1"
               id="path1050"
               inkscape:connector-curvature="0" />
            <path
               d="m 299.184,254.699 -4.179,-1.707 0.992,1.707 -0.992,1.707 4.179,-1.707"
               style="fill:#000000;fill-opacity:1;fill-rule:nonzero;stroke:none"
               id="path1052"
               inkscape:connector-curvature="0" />
            <path
               d="m 132.623,258.72 v -8 m 12.603,7 v -6 m 12.602,6 v -6 m 12.603,6 v -6 m 12.602,6 v -6 m 63.014,6 v -6 m -12.604,6 v -6 m -12.601,6 v -6 m -12.603,6 v -6 m -12.603,7 v -8 m 63.013,8 v -8"
               style="fill:none;stroke:#000000;stroke-width:0.5;stroke-linecap:butt;stroke-linejoin:miter;stroke-miterlimit:4;stroke-dasharray:none;stroke-opacity:1"
               id="path1054"
               inkscape:connector-curvature="0" />
            <text
               transform="matrix(1,0,0,-1,193.3857,241.5253)"
               style="font-variant:normal;font-weight:normal;font-size:9px;font-family:'Times New Roman';-inkscape-font-specification:Times-Roman;writing-mode:lr-tb;fill:#231f20;fill-opacity:1;fill-rule:nonzero;stroke:none"
               id="text1058">
              <tspan
                 x="0"
                 y="0"
                 id="tspan1056">0</tspan>
            </text>
            <text
               transform="matrix(1,0,0,-1,112.4847,241.4038)"
               style="font-variant:normal;font-weight:normal;font-size:9px;font-family:Symbol;-inkscape-font-specification:Symbol;writing-mode:lr-tb;fill:#231f20;fill-opacity:1;fill-rule:nonzero;stroke:none"
               id="text1062">
              <tspan
                 x="0"
                 y="0"
                 id="tspan1060">−</tspan>
            </text>
            <text
               transform="matrix(1,0,0,-1,117.4257,241.4038)"
               style="font-variant:normal;font-weight:normal;font-size:9px;font-family:'Times New Roman';-inkscape-font-specification:Times-Roman;writing-mode:lr-tb;fill:#231f20;fill-opacity:1;fill-rule:nonzero;stroke:none"
               id="text1066">
              <tspan
                 x="0"
                 y="0"
                 id="tspan1064">6</tspan>
            </text>
            <text
               transform="matrix(1,0,0,-1,137.7567,241.4038)"
               style="font-variant:normal;font-weight:normal;font-size:9px;font-family:Symbol;-inkscape-font-specification:Symbol;writing-mode:lr-tb;fill:#231f20;fill-opacity:1;fill-rule:nonzero;stroke:none"
               id="text1070">
              <tspan
                 x="0"
                 y="0"
                 id="tspan1068">−</tspan>
            </text>
            <text
               transform="matrix(1,0,0,-1,142.6977,241.4038)"
               style="font-variant:normal;font-weight:normal;font-size:9px;font-family:'Times New Roman';-inkscape-font-specification:Times-Roman;writing-mode:lr-tb;fill:#231f20;fill-opacity:1;fill-rule:nonzero;stroke:none"
               id="text1074">
              <tspan
                 x="0"
                 y="0"
                 id="tspan1072">4</tspan>
            </text>
            <text
               transform="matrix(1,0,0,-1,163.1898,241.4038)"
               style="font-variant:normal;font-weight:normal;font-size:9px;font-family:Symbol;-inkscape-font-specification:Symbol;writing-mode:lr-tb;fill:#231f20;fill-opacity:1;fill-rule:nonzero;stroke:none"
               id="text1078">
              <tspan
                 x="0"
                 y="0"
                 id="tspan1076">−</tspan>
            </text>
            <text
               transform="matrix(1,0,0,-1,168.1308,241.4038)"
               style="font-variant:normal;font-weight:normal;font-size:9px;font-family:'Times New Roman';-inkscape-font-specification:Times-Roman;writing-mode:lr-tb;fill:#231f20;fill-opacity:1;fill-rule:nonzero;stroke:none"
               id="text1082">
              <tspan
                 x="0"
                 y="0"
                 id="tspan1080">2</tspan>
            </text>
            <path
               d="m 120.07,252.699 c 1.105,0 2,0.895 2,2 0,1.104 -0.895,2 -2,2 -1.104,0 -2,-0.896 -2,-2 0,-1.105 0.896,-2 2,-2"
               style="fill:#000000;fill-opacity:1;fill-rule:nonzero;stroke:none"
               id="path1084"
               inkscape:connector-curvature="0" />
            <path
               d="M 145.157,254.699 H 120.032"
               style="fill:none;stroke:#000000;stroke-width:1.20000005;stroke-linecap:butt;stroke-linejoin:miter;stroke-miterlimit:4;stroke-dasharray:none;stroke-opacity:1"
               id="path1086"
               inkscape:connector-curvature="0" />
            <path
               d="m 145.201,252.699 c -1.104,0 -2,0.895 -2,2 0,1.104 0.896,2 2,2 1.105,0 2,-0.896 2,-2 0,-1.105 -0.895,-2 -2,-2"
               style="fill:#ffffff;fill-opacity:1;fill-rule:nonzero;stroke:none"
               id="path1088"
               inkscape:connector-curvature="0" />
            <path
               d="m 145.201,252.699 c -1.104,0 -2,0.895 -2,2 0,1.104 0.896,2 2,2 1.105,0 2,-0.896 2,-2 0,-1.105 -0.895,-2 -2,-2 z"
               style="fill:none;stroke:#000000;stroke-width:0.5;stroke-linecap:butt;stroke-linejoin:miter;stroke-miterlimit:4;stroke-dasharray:none;stroke-opacity:1"
               id="path1090"
               inkscape:connector-curvature="0" />
            <path
               d="m 195.64,252.699 c -1.106,0 -2,0.895 -2,2 0,1.104 0.894,2 2,2 1.104,0 2,-0.896 2,-2 0,-1.105 -0.896,-2 -2,-2"
               style="fill:#000000;fill-opacity:1;fill-rule:nonzero;stroke:none"
               id="path1092"
               inkscape:connector-curvature="0" />
            <path
               d="m 170.552,254.699 h 25.125"
               style="fill:none;stroke:#000000;stroke-width:1.20000005;stroke-linecap:butt;stroke-linejoin:miter;stroke-miterlimit:4;stroke-dasharray:none;stroke-opacity:1"
               id="path1094"
               inkscape:connector-curvature="0" />
            <path
               d="m 170.431,252.699 c 1.104,0 2,0.895 2,2 0,1.104 -0.896,2 -2,2 -1.105,0 -2,-0.896 -2,-2 0,-1.105 0.895,-2 2,-2"
               style="fill:#ffffff;fill-opacity:1;fill-rule:nonzero;stroke:none"
               id="path1096"
               inkscape:connector-curvature="0" />
            <path
               d="m 170.431,252.699 c 1.104,0 2,0.895 2,2 0,1.104 -0.896,2 -2,2 -1.105,0 -2,-0.896 -2,-2 0,-1.105 0.895,-2 2,-2 z m -50.411,5.021 v -6 m -12.603,6 v -6 m 163.835,6 v -6 m 12.602,6 v -6"
               style="fill:none;stroke:#000000;stroke-width:0.5;stroke-linecap:butt;stroke-linejoin:miter;stroke-miterlimit:4;stroke-dasharray:none;stroke-opacity:1"
               id="path1098"
               inkscape:connector-curvature="0" />
          </g>
        </g>
      </g>
    </g>
  </g>
</svg>
