<svg version="1.1" xmlns="http://www.w3.org/2000/svg" xmlns:xlink="http://www.w3.org/1999/xlink" width="480" height="480"><defs><clipPath id="MAIMggtkfbFk"><path fill="none" stroke="none" d=" M 0 0 L 480 0 L 480 480 L 0 480 L 0 0 Z"/></clipPath></defs><g transform="scale(1,1)" clip-path="url(#MAIMggtkfbFk)"><g transform="translate(-98.26856941767736,-64.54965876668533)"><path fill="none" stroke="rgb(0,0,0)" paint-order="fill stroke markers" d=" M 436.28935447566835 318.06524756017825 C 436.28935447566835 380.29315579796514 385.843667694125 430.7388425795084 323.615759456338 430.7388425795084 C 261.3878512185511 430.7388425795084 210.9421644370077 380.29315579796514 210.9421644370077 318.06524756017825 C 210.9421644370077 255.83733932239133 261.3878512185511 205.39165254084804 323.615759456338 205.39165254084804 C 385.843667694125 205.39165254084804 436.28935447566835 255.83733932239133 436.28935447566835 318.06524756017825 Z" stroke-opacity="0.8" stroke-linecap="round" stroke-linejoin="round" stroke-miterlimit="10" stroke-width="2.5"/><text fill="rgb(0,0,0)" stroke="none" font-family="geogebra-sans-serif, sans-serif" font-size="32px" font-style="normal" font-weight="normal" text-decoration="normal" x="276" y="248" text-anchor="start" dominant-baseline="alphabetic" fill-opacity="1">Metal</text><text fill="none" stroke="rgb(255,255,255)" font-family="geogebra-sans-serif, sans-serif" font-size="32px" font-style="normal" font-weight="normal" text-decoration="normal" x="276" y="248" text-anchor="start" dominant-baseline="alphabetic" stroke-opacity="1" stroke-linejoin="bevel" stroke-miterlimit="10" stroke-width="3">Metal</text><text fill="rgb(0,0,0)" stroke="none" font-family="geogebra-sans-serif, sans-serif" font-size="32px" font-style="normal" font-weight="normal" text-decoration="normal" x="276" y="248" text-anchor="start" dominant-baseline="alphabetic" fill-opacity="1">Metal</text><path fill="none" stroke="rgb(0,0,0)" paint-order="fill stroke markers" d=" M 517.9777108646829 318.06524756017825 C 517.9777108646829 425.40838927036066 430.95890116652055 512.4271989685228 323.615759456338 512.4271989685228 C 216.27261774615548 512.4271989685228 129.25380804799318 425.40838927036066 129.25380804799318 318.06524756017825 C 129.25380804799318 210.72210584999584 216.27261774615548 123.70329615183365 323.615759456338 123.70329615183365 C 430.95890116652055 123.70329615183365 517.9777108646829 210.72210584999584 517.9777108646829 318.06524756017825 Z" stroke-opacity="0.8" stroke-linecap="round" stroke-linejoin="round" stroke-miterlimit="10" stroke-width="0.5"/><text fill="rgb(0,0,0)" stroke="none" font-family="geogebra-sans-serif, sans-serif" font-size="32px" font-style="normal" font-weight="normal" text-decoration="normal" x="249" y="116" text-anchor="start" dominant-baseline="alphabetic" fill-opacity="1">Insulation</text><text fill="none" stroke="rgb(255,255,255)" font-family="geogebra-sans-serif, sans-serif" font-size="32px" font-style="normal" font-weight="normal" text-decoration="normal" x="249" y="116" text-anchor="start" dominant-baseline="alphabetic" stroke-opacity="1" stroke-linejoin="bevel" stroke-miterlimit="10" stroke-width="3">Insulation</text><text fill="rgb(0,0,0)" stroke="none" font-family="geogebra-sans-serif, sans-serif" font-size="32px" font-style="normal" font-weight="normal" text-decoration="normal" x="249" y="116" text-anchor="start" dominant-baseline="alphabetic" fill-opacity="1">Insulation</text><path fill="none" stroke="rgb(255,153,204)" paint-order="fill stroke markers" d=" M 464.45775323050094 318.06524756017825 C 464.45775323050094 395.85013285741184 401.4006447535717 458.907241334341 323.615759456338 458.907241334341 C 245.8308741591043 458.907241334341 182.7737656821751 395.85013285741184 182.7737656821751 318.06524756017825 C 182.7737656821751 240.28036226294464 245.8308741591043 177.2232537860155 323.615759456338 177.2232537860155 C 401.4006447535717 177.2232537860155 464.45775323050094 240.28036226294464 464.45775323050094 318.06524756017825 Z" stroke-opacity="1" stroke-linecap="round" stroke-linejoin="round" stroke-miterlimit="10" stroke-width="0.5"/><path fill="none" stroke="rgb(255,153,204)" paint-order="fill stroke markers" d=" M 517.9777108646829 318.06524756017825 C 517.9777108646829 425.40838927036066 430.95890116652055 512.4271989685228 323.615759456338 512.4271989685228 C 216.27261774615548 512.4271989685228 129.25380804799318 425.40838927036066 129.25380804799318 318.06524756017825 C 129.25380804799318 210.72210584999584 216.27261774615548 123.70329615183365 323.615759456338 123.70329615183365 C 430.95890116652055 123.70329615183365 517.9777108646829 210.72210584999584 517.9777108646829 318.06524756017825 Z" stroke-opacity="1" stroke-linecap="round" stroke-linejoin="round" stroke-miterlimit="10" stroke-width="0.5"/><path fill="rgb(255,153,204)" stroke="none" paint-order="stroke fill markers" d=" M 323.615759456338 177.2232537860155 C 401.4006447535717 177.2232537860155 464.45775323050094 240.28036226294464 464.45775323050094 318.06524756017825 C 464.45775323050094 395.85013285741184 401.4006447535717 458.907241334341 323.615759456338 458.907241334341 C 245.8308741591043 458.907241334341 182.7737656821751 395.85013285741184 182.7737656821751 318.06524756017825 C 182.7737656821751 240.28036226294464 245.8308741591043 177.2232537860155 323.615759456338 177.2232537860155 Z M 323.615759456338 123.70329615183365 C 216.27261774615548 123.70329615183365 129.25380804799318 210.72210584999584 129.25380804799318 318.06524756017825 C 129.25380804799318 425.40838927036066 216.27261774615548 512.4271989685228 323.615759456338 512.4271989685228 C 430.95890116652055 512.4271989685228 517.9777108646829 425.40838927036066 517.9777108646829 318.06524756017825 C 517.9777108646829 210.72210584999584 430.95890116652055 123.70329615183365 323.615759456338 123.70329615183365 Z" fill-opacity="0.8"/><path fill="none" stroke="rgb(0,0,0)" paint-order="fill stroke markers" d=" M 436.28935447566835 318.06524756017825 C 436.28935447566835 380.29315579796514 385.843667694125 430.7388425795084 323.615759456338 430.7388425795084 C 261.3878512185511 430.7388425795084 210.9421644370077 380.29315579796514 210.9421644370077 318.06524756017825 C 210.9421644370077 255.83733932239133 261.3878512185511 205.39165254084804 323.615759456338 205.39165254084804 C 385.843667694125 205.39165254084804 436.28935447566835 255.83733932239133 436.28935447566835 318.06524756017825 Z" stroke-opacity="1" stroke-linecap="round" stroke-linejoin="round" stroke-miterlimit="10" stroke-width="2.5"/><path fill="none" stroke="rgb(0,0,0)" paint-order="fill stroke markers" d=" M 464.45775323050094 318.06524756017825 C 464.45775323050094 395.85013285741184 401.4006447535717 458.907241334341 323.615759456338 458.907241334341 C 245.8308741591043 458.907241334341 182.7737656821751 395.85013285741184 182.7737656821751 318.06524756017825 C 182.7737656821751 240.28036226294464 245.8308741591043 177.2232537860155 323.615759456338 177.2232537860155 C 401.4006447535717 177.2232537860155 464.45775323050094 240.28036226294464 464.45775323050094 318.06524756017825 Z" stroke-opacity="1" stroke-linecap="round" stroke-linejoin="round" stroke-miterlimit="10" stroke-width="2.5"/><path fill="rgb(0,0,0)" stroke="none" paint-order="stroke fill markers" d=" M 323.615759456338 205.39165254084804 C 385.843667694125 205.39165254084804 436.28935447566835 255.83733932239133 436.28935447566835 318.06524756017825 C 436.28935447566835 380.29315579796514 385.843667694125 430.7388425795084 323.615759456338 430.7388425795084 C 261.3878512185511 430.7388425795084 210.9421644370077 380.29315579796514 210.9421644370077 318.06524756017825 C 210.9421644370077 255.83733932239133 261.3878512185511 205.39165254084804 323.615759456338 205.39165254084804 Z M 323.615759456338 177.2232537860155 C 245.8308741591043 177.2232537860155 182.7737656821751 240.28036226294464 182.7737656821751 318.06524756017825 C 182.7737656821751 395.85013285741184 245.8308741591043 458.907241334341 323.615759456338 458.907241334341 C 401.4006447535717 458.907241334341 464.45775323050094 395.85013285741184 464.45775323050094 318.06524756017825 C 464.45775323050094 240.28036226294464 401.4006447535717 177.2232537860155 323.615759456338 177.2232537860155 Z" fill-opacity="0.24705882352941178"/><path fill="none" stroke="rgb(0,0,0)" paint-order="fill stroke markers" d=" M 436.28935447566835 318.06524756017825 L 464.45775323050094 318.06524756017825" stroke-opacity="0.8" stroke-linecap="round" stroke-linejoin="round" stroke-miterlimit="10" stroke-width="2.5"/><text fill="rgb(0,0,0)" stroke="none" font-family="geogebra-sans-serif, sans-serif" font-size="32px" font-style="normal" font-weight="normal" text-decoration="normal" x="427" y="312" text-anchor="start" dominant-baseline="alphabetic" fill-opacity="1">Δr</text><text fill="none" stroke="rgb(255,255,255)" font-family="geogebra-sans-serif, sans-serif" font-size="32px" font-style="normal" font-weight="normal" text-decoration="normal" x="427" y="312" text-anchor="start" dominant-baseline="alphabetic" stroke-opacity="1" stroke-linejoin="bevel" stroke-miterlimit="10" stroke-width="3">Δr</text><text fill="rgb(0,0,0)" stroke="none" font-family="geogebra-sans-serif, sans-serif" font-size="32px" font-style="normal" font-weight="normal" text-decoration="normal" x="427" y="312" text-anchor="start" dominant-baseline="alphabetic" fill-opacity="1">Δr</text><path fill="none" stroke="rgb(0,0,0)" paint-order="fill stroke markers" d=" M 323.615759456338 318.06524756017825 L 414.20277618590694 380.03916006274096" stroke-opacity="0.8" stroke-linecap="round" stroke-linejoin="round" stroke-miterlimit="10" stroke-width="2.5"/><path fill="rgb(0,0,0)" stroke="none" paint-order="stroke fill markers" fill-rule="evenodd" d=" M 428.23348163937146 389.63808211045654 L 411.80304567397803 383.5468364261071 L 416.60250669783585 376.5314836993748 Z" fill-opacity="0.8"/><text fill="rgb(0,0,0)" stroke="none" font-family="geogebra-sans-serif, sans-serif" font-size="32px" font-style="normal" font-weight="normal" text-decoration="normal" x="385" y="346" text-anchor="start" dominant-baseline="alphabetic" fill-opacity="1">r</text><text fill="none" stroke="rgb(255,255,255)" font-family="geogebra-sans-serif, sans-serif" font-size="32px" font-style="normal" font-weight="normal" text-decoration="normal" x="385" y="346" text-anchor="start" dominant-baseline="alphabetic" stroke-opacity="1" stroke-linejoin="bevel" stroke-miterlimit="10" stroke-width="3">r</text><text fill="rgb(0,0,0)" stroke="none" font-family="geogebra-sans-serif, sans-serif" font-size="32px" font-style="normal" font-weight="normal" text-decoration="normal" x="385" y="346" text-anchor="start" dominant-baseline="alphabetic" fill-opacity="1">r</text><text fill="rgb(0,0,0)" stroke="none" font-family="geogebra-sans-serif, sans-serif" font-size="28px" font-style="normal" font-weight="normal" text-decoration="normal" x="396" y="360" text-anchor="start" dominant-baseline="alphabetic" fill-opacity="1">1</text><text fill="none" stroke="rgb(255,255,255)" font-family="geogebra-sans-serif, sans-serif" font-size="28px" font-style="normal" font-weight="normal" text-decoration="normal" x="396" y="360" text-anchor="start" dominant-baseline="alphabetic" stroke-opacity="1" stroke-linejoin="bevel" stroke-miterlimit="10" stroke-width="3">1</text><text fill="rgb(0,0,0)" stroke="none" font-family="geogebra-sans-serif, sans-serif" font-size="28px" font-style="normal" font-weight="normal" text-decoration="normal" x="396" y="360" text-anchor="start" dominant-baseline="alphabetic" fill-opacity="1">1</text><path fill="none" stroke="rgb(0,0,0)" paint-order="fill stroke markers" d=" M 323.615759456338 318.06524756017825 L 378.1875520642623 458.4321724389916" stroke-opacity="0.8" stroke-linecap="round" stroke-linejoin="round" stroke-miterlimit="10" stroke-width="2.5"/><path fill="rgb(0,0,0)" stroke="none" paint-order="stroke fill markers" fill-rule="evenodd" d=" M 384.3476338903658 474.27683690043443 L 374.2263859489016 459.9721928955174 L 382.148718179623 456.89215198246575 Z" fill-opacity="0.8"/><text fill="rgb(0,0,0)" stroke="none" font-family="geogebra-sans-serif, sans-serif" font-size="32px" font-style="normal" font-weight="normal" text-decoration="normal" x="308" y="381" text-anchor="start" dominant-baseline="alphabetic" fill-opacity="1">r</text><text fill="none" stroke="rgb(255,255,255)" font-family="geogebra-sans-serif, sans-serif" font-size="32px" font-style="normal" font-weight="normal" text-decoration="normal" x="308" y="381" text-anchor="start" dominant-baseline="alphabetic" stroke-opacity="1" stroke-linejoin="bevel" stroke-miterlimit="10" stroke-width="3">r</text><text fill="rgb(0,0,0)" stroke="none" font-family="geogebra-sans-serif, sans-serif" font-size="32px" font-style="normal" font-weight="normal" text-decoration="normal" x="308" y="381" text-anchor="start" dominant-baseline="alphabetic" fill-opacity="1">r</text><text fill="rgb(0,0,0)" stroke="none" font-family="geogebra-sans-serif, sans-serif" font-size="28px" font-style="normal" font-weight="normal" text-decoration="normal" x="319" y="395" text-anchor="start" dominant-baseline="alphabetic" fill-opacity="1">2</text><text fill="none" stroke="rgb(255,255,255)" font-family="geogebra-sans-serif, sans-serif" font-size="28px" font-style="normal" font-weight="normal" text-decoration="normal" x="319" y="395" text-anchor="start" dominant-baseline="alphabetic" stroke-opacity="1" stroke-linejoin="bevel" stroke-miterlimit="10" stroke-width="3">2</text><text fill="rgb(0,0,0)" stroke="none" font-family="geogebra-sans-serif, sans-serif" font-size="28px" font-style="normal" font-weight="normal" text-decoration="normal" x="319" y="395" text-anchor="start" dominant-baseline="alphabetic" fill-opacity="1">2</text><path fill="none" stroke="rgb(0,0,0)" paint-order="fill stroke markers" d=" M 464.45775323050094 318.06524756017825 C 464.45775323050094 395.85013285741184 401.4006447535717 458.907241334341 323.615759456338 458.907241334341 C 245.8308741591043 458.907241334341 182.7737656821751 395.85013285741184 182.7737656821751 318.06524756017825 C 182.7737656821751 240.28036226294464 245.8308741591043 177.2232537860155 323.615759456338 177.2232537860155 C 401.4006447535717 177.2232537860155 464.45775323050094 240.28036226294464 464.45775323050094 318.06524756017825 Z" stroke-opacity="0.8" stroke-linecap="round" stroke-linejoin="round" stroke-miterlimit="10" stroke-width="2.5"/></g></g></svg>