<svg version="1.1" xmlns="http://www.w3.org/2000/svg" xmlns:xlink="http://www.w3.org/1999/xlink" width="471" height="283"><defs><clipPath id="rmHelEmuPXTN"><path fill="none" stroke="none" d=" M 0 0 L 471 0 L 471 283 L 0 283 L 0 0 Z"/></clipPath></defs><g transform="scale(1,1)" clip-path="url(#rmHelEmuPXTN)"><g transform="translate(-5.953310146404533,-242.39969341776816)"><path fill="none" stroke="rgb(192,192,192)" paint-order="fill stroke markers" d=" M 146.5 0.5 L 146.5 477.5 M 240.5 0.5 L 240.5 477.5 M 334.5 0.5 L 334.5 477.5 M 428.5 0.5 L 428.5 477.5 M 522.5 0.5 L 522.5 477.5 M 616.5 0.5 L 616.5 477.5" stroke-opacity="1" stroke-linecap="round" stroke-linejoin="round" stroke-miterlimit="10"/><path fill="none" stroke="rgb(192,192,192)" paint-order="fill stroke markers" d="" stroke-opacity="0.23529411764705882" stroke-linecap="round" stroke-linejoin="round" stroke-miterlimit="10"/><path fill="none" stroke="rgb(192,192,192)" paint-order="fill stroke markers" d=" M 52.5 7.5 L 636.5 7.5 M 52.5 7.5 L 636.5 7.5 M 52.5 101.5 L 636.5 101.5 M 52.5 195.5 L 636.5 195.5 M 52.5 289.5 L 636.5 289.5 M 52.5 383.5 L 636.5 383.5" stroke-opacity="1" stroke-linecap="round" stroke-linejoin="round" stroke-miterlimit="10"/><path fill="none" stroke="rgb(192,192,192)" paint-order="fill stroke markers" d="" stroke-opacity="0.23529411764705882" stroke-linecap="round" stroke-linejoin="round" stroke-miterlimit="10"/><path fill="none" stroke="rgb(0,0,0)" paint-order="fill stroke markers" d=" M 52.5 2.5 L 52.5 477.5" stroke-opacity="1" stroke-miterlimit="10"/><path fill="none" stroke="rgb(0,0,0)" paint-order="fill stroke markers" d=" M 52.5 1.5 L 44.5 9.5" stroke-opacity="1" stroke-miterlimit="10"/><path fill="none" stroke="rgb(0,0,0)" paint-order="fill stroke markers" d=" M 52.5 1.5 L 60.5 9.5" stroke-opacity="1" stroke-miterlimit="10"/><path fill="none" stroke="rgb(0,0,0)" paint-order="fill stroke markers" d=" M 52.5 477.5 L 634.5 477.5" stroke-opacity="1" stroke-miterlimit="10"/><path fill="none" stroke="rgb(0,0,0)" paint-order="fill stroke markers" d=" M 635.5 477.5 L 627.5 469.5" stroke-opacity="1" stroke-miterlimit="10"/><path fill="none" stroke="rgb(0,0,0)" paint-order="fill stroke markers" d=" M 635.5 477.5 L 627.5 485.5" stroke-opacity="1" stroke-miterlimit="10"/><path fill="rgb(0,102,51)" stroke="none" paint-order="stroke fill markers" fill-rule="evenodd" d=" M 52.88493173369807 477.05780135423544 L 428.33790443204634 477.05780135423544 L 428.33790443204634 289.3313150050616 L 52.88493173369807 289.3313150050616 Z" fill-opacity="0.09803921568627451"/><path fill="none" stroke="rgb(0,0,255)" paint-order="fill stroke markers" d=" M 52.88493173369807 477.05780135423544 L 53.770590866849034 467.9401899025041 L 54.65625 464.1635515827487 M 54.65625 464.1635515827487 L 57.140625 457.0714767313502 L 59.625 451.9053727102016 M 59.625 451.9053727102016 L 64.59375 443.9062153255559 L 69.5625 437.49253065200634 L 74.53125 431.9823797226589 L 79.5 427.07603843226434 M 79.5 427.07603843226434 L 84.46875 422.61003175517976 L 89.4375 418.48355271342416 L 94.40625 414.6292374322669 L 99.375 410.9994288123461 L 104.34375 407.5589411304392 L 109.3125 404.2809192972904 L 114.28125 401.14431407131434 L 119.25 398.1322634024549 L 124.21875 395.2310115448969 L 129.1875 392.4291624662951 L 134.15625 389.7171492525415 L 139.125 387.0868477132249 L 144.09375 384.5312889991456 L 149.0625 382.04444188242053 L 154.03125 379.62104510874025 L 159 377.2564764273199 M 159 377.2564764273199 L 163.96875 374.9466489432891 L 168.9375 372.6879281330073 L 173.90625 370.4770647000963 L 178.875 368.3111397261069 L 183.84375 366.1875194713683 L 188.8125 364.10381782859724 L 193.78125 362.0578649028014 L 198.75 360.04768053830946 L 203.71875 358.0714518729553 L 208.68750000000003 356.1275141950417 L 213.65625 354.21433452783566 L 218.625 352.3304974811359 L 223.59375 350.4746929985933 L 228.5625 348.64570569927014 L 233.53125 346.8424055670103 L 238.5 345.0637397849837 L 243.46875 343.3087255478167 L 248.43750000000003 341.57644371195727 L 253.40625 339.8660331678074 L 258.375 338.1766858358096 L 263.34375 336.50764220396604 L 268.3125 334.85818733686267 L 273.28125 333.227647296703 L 278.25 331.6153859255262 L 283.21875 330.0208019450358 L 288.1875 328.44332633654176 L 293.15625 326.88241996864207 L 298.125 325.33757144460156 L 303.09375 323.8082951450607 L 308.0625 322.294129444838 L 313.03125 320.7946350852668 L 318 319.3093936857995 M 318 319.3093936857995 L 322.96875 317.83800638058653 L 327.9375 316.3800925674391 L 332.90625 314.93528875805634 L 337.875 313.5032475196755 L 342.84375 312.0836364994143 L 347.8125 310.6761375235434 L 352.78125 309.28044576477225 L 357.75 307.8962689713769 L 362.71875 306.5233267526446 L 367.6875 305.1613499156896 L 372.65625 303.81007984919495 L 377.625 302.469267950086 L 382.59375 301.13867508953524 L 387.5625 299.8180711150499 L 392.53125 298.5072343857069 L 397.5 297.20595133787697 M 397.5 297.20595133787697 L 402.46875 295.91401607902804 L 407.4375 294.63123000742155 L 412.40625 293.3574014557107 L 417.375 292.0923453566313 M 417.375 292.0923453566313 L 422.34375 290.8358829291334 L 427.3125 289.58784138344686 M 427.3125 289.58784138344686 L 428.3379053706787 289.33131477040354" stroke-opacity="0.8" stroke-linecap="round" stroke-linejoin="round" stroke-miterlimit="10" stroke-width="2.5"/><text fill="rgb(0,0,255)" stroke="none" font-family="geogebra-sans-serif, sans-serif" font-size="32px" font-style="normal" font-weight="normal" text-decoration="normal" x="79" y="454" text-anchor="start" dominant-baseline="alphabetic" fill-opacity="1">((u(x), v(x))</text><text fill="none" stroke="rgb(255,255,255)" font-family="geogebra-sans-serif, sans-serif" font-size="32px" font-style="normal" font-weight="normal" text-decoration="normal" x="79" y="454" text-anchor="start" dominant-baseline="alphabetic" stroke-opacity="1" stroke-linejoin="bevel" stroke-miterlimit="10" stroke-width="3">((u(x), v(x))</text><text fill="rgb(0,0,255)" stroke="none" font-family="geogebra-sans-serif, sans-serif" font-size="32px" font-style="normal" font-weight="normal" text-decoration="normal" x="79" y="454" text-anchor="start" dominant-baseline="alphabetic" fill-opacity="1">((u(x), v(x))</text><path fill="none" stroke="rgb(0,102,51)" paint-order="fill stroke markers" d=" M 428.33790443204634 477.05780135423544 L 428.33790443204634 289.3313150050616" stroke-opacity="0.6980392156862745" stroke-linecap="round" stroke-linejoin="round" stroke-miterlimit="10" stroke-width="2.5"/><text fill="rgb(0,102,51)" stroke="none" font-family="geogebra-sans-serif, sans-serif" font-size="32px" font-style="normal" font-weight="normal" text-decoration="normal" x="444" y="383" text-anchor="start" dominant-baseline="alphabetic" fill-opacity="1">v</text><text fill="none" stroke="rgb(255,255,255)" font-family="geogebra-sans-serif, sans-serif" font-size="32px" font-style="normal" font-weight="normal" text-decoration="normal" x="444" y="383" text-anchor="start" dominant-baseline="alphabetic" stroke-opacity="1" stroke-linejoin="bevel" stroke-miterlimit="10" stroke-width="3">v</text><text fill="rgb(0,102,51)" stroke="none" font-family="geogebra-sans-serif, sans-serif" font-size="32px" font-style="normal" font-weight="normal" text-decoration="normal" x="444" y="383" text-anchor="start" dominant-baseline="alphabetic" fill-opacity="1">v</text><path fill="none" stroke="rgb(0,102,51)" paint-order="fill stroke markers" d=" M 428.33790443204634 289.3313150050616 L 52.88493173369807 289.3313150050616" stroke-opacity="0.6980392156862745" stroke-linecap="round" stroke-linejoin="round" stroke-miterlimit="10" stroke-width="2.5"/><text fill="rgb(0,102,51)" stroke="none" font-family="geogebra-sans-serif, sans-serif" font-size="32px" font-style="normal" font-weight="normal" text-decoration="normal" x="244" y="276" text-anchor="start" dominant-baseline="alphabetic" fill-opacity="1">u</text><text fill="none" stroke="rgb(255,255,255)" font-family="geogebra-sans-serif, sans-serif" font-size="32px" font-style="normal" font-weight="normal" text-decoration="normal" x="244" y="276" text-anchor="start" dominant-baseline="alphabetic" stroke-opacity="1" stroke-linejoin="bevel" stroke-miterlimit="10" stroke-width="3">u</text><text fill="rgb(0,102,51)" stroke="none" font-family="geogebra-sans-serif, sans-serif" font-size="32px" font-style="normal" font-weight="normal" text-decoration="normal" x="244" y="276" text-anchor="start" dominant-baseline="alphabetic" fill-opacity="1">u</text><path fill="none" stroke="rgb(0,0,0)" paint-order="fill stroke markers" d=" M 52.88493173369807 477.05780135423544 L 52.88493173369807 259.39969341776816" stroke-opacity="1" stroke-linecap="round" stroke-linejoin="round" stroke-miterlimit="10" stroke-width="2.5"/><path fill="rgb(0,0,0)" stroke="none" paint-order="stroke fill markers" fill-rule="evenodd" d=" M 52.88493173369807 242.39969341776816 L 57.13493173369807 259.39969341776816 L 48.63493173369807 259.39969341776816 Z" fill-opacity="1"/><text fill="rgb(0,0,0)" stroke="none" font-family="geogebra-sans-serif, sans-serif" font-size="32px" font-style="normal" font-weight="normal" text-decoration="normal" x="62" y="280" text-anchor="start" dominant-baseline="alphabetic" fill-opacity="1">v(x)</text><text fill="none" stroke="rgb(255,255,255)" font-family="geogebra-sans-serif, sans-serif" font-size="32px" font-style="normal" font-weight="normal" text-decoration="normal" x="62" y="280" text-anchor="start" dominant-baseline="alphabetic" stroke-opacity="1" stroke-linejoin="bevel" stroke-miterlimit="10" stroke-width="3">v(x)</text><text fill="rgb(0,0,0)" stroke="none" font-family="geogebra-sans-serif, sans-serif" font-size="32px" font-style="normal" font-weight="normal" text-decoration="normal" x="62" y="280" text-anchor="start" dominant-baseline="alphabetic" fill-opacity="1">v(x)</text><path fill="none" stroke="rgb(0,0,0)" paint-order="fill stroke markers" d=" M 52.88493173369807 477.05780135423544 L 458.2695260193399 477.05780135423544" stroke-opacity="1" stroke-linecap="round" stroke-linejoin="round" stroke-miterlimit="10" stroke-width="2.5"/><path fill="rgb(0,0,0)" stroke="none" paint-order="stroke fill markers" fill-rule="evenodd" d=" M 475.2695260193399 477.05780135423544 L 458.2695260193399 481.30780135423544 L 458.2695260193399 472.80780135423544 Z" fill-opacity="1"/><text fill="rgb(0,0,0)" stroke="none" font-family="geogebra-sans-serif, sans-serif" font-size="32px" font-style="normal" font-weight="normal" text-decoration="normal" x="266" y="508" text-anchor="start" dominant-baseline="alphabetic" fill-opacity="1">u(x)</text><text fill="none" stroke="rgb(255,255,255)" font-family="geogebra-sans-serif, sans-serif" font-size="32px" font-style="normal" font-weight="normal" text-decoration="normal" x="266" y="508" text-anchor="start" dominant-baseline="alphabetic" stroke-opacity="1" stroke-linejoin="bevel" stroke-miterlimit="10" stroke-width="3">u(x)</text><text fill="rgb(0,0,0)" stroke="none" font-family="geogebra-sans-serif, sans-serif" font-size="32px" font-style="normal" font-weight="normal" text-decoration="normal" x="266" y="508" text-anchor="start" dominant-baseline="alphabetic" fill-opacity="1">u(x)</text></g></g></svg>