<svg version="1.1" xmlns="http://www.w3.org/2000/svg" xmlns:xlink="http://www.w3.org/1999/xlink" width="463" height="463"><defs><clipPath id="CcqpQdvHrPFB"><path fill="none" stroke="none" d=" M 0 0 L 463 0 L 463 463 L 0 463 L 0 0 Z"/></clipPath></defs><g transform="scale(1,1)" clip-path="url(#CcqpQdvHrPFB)"><g transform="translate(-126.78957412722633,-86.02985427594524)"><path fill="none" stroke="rgb(0,0,0)" paint-order="fill stroke markers" d=" M 357.5 2.5 L 357.5 653.5" stroke-opacity="1" stroke-miterlimit="10"/><path fill="none" stroke="rgb(0,0,0)" paint-order="fill stroke markers" d=" M 357.5 1.5 L 349.5 9.5" stroke-opacity="1" stroke-miterlimit="10"/><path fill="none" stroke="rgb(0,0,0)" paint-order="fill stroke markers" d=" M 357.5 1.5 L 365.5 9.5" stroke-opacity="1" stroke-miterlimit="10"/><path fill="none" stroke="rgb(0,0,0)" paint-order="fill stroke markers" d=" M 0.5 316.5 L 634.5 316.5" stroke-opacity="1" stroke-miterlimit="10"/><path fill="none" stroke="rgb(0,0,0)" paint-order="fill stroke markers" d=" M 635.5 316.5 L 627.5 308.5" stroke-opacity="1" stroke-miterlimit="10"/><path fill="none" stroke="rgb(0,0,0)" paint-order="fill stroke markers" d=" M 635.5 316.5 L 627.5 324.5" stroke-opacity="1" stroke-miterlimit="10"/><path fill="none" stroke="rgb(0,0,0)" paint-order="fill stroke markers" d=" M 11.5 316.5 L 11.5 319.5" stroke-opacity="1" stroke-miterlimit="10"/><path fill="none" stroke="rgb(0,0,0)" paint-order="fill stroke markers" d=" M 24.5 316.5 L 24.5 319.5" stroke-opacity="1" stroke-miterlimit="10"/><text fill="rgb(0,0,0)" stroke="none" font-family="geogebra-sans-serif, sans-serif" font-size="24px" font-style="normal" font-weight="normal" text-decoration="normal" x="20" y="344" text-anchor="start" dominant-baseline="alphabetic" fill-opacity="1">–25</text><text fill="none" stroke="rgb(255,255,255)" font-family="geogebra-sans-serif, sans-serif" font-size="24px" font-style="normal" font-weight="normal" text-decoration="normal" x="20" y="344" text-anchor="start" dominant-baseline="alphabetic" stroke-opacity="1" stroke-linejoin="bevel" stroke-miterlimit="10" stroke-width="3">–25</text><text fill="rgb(0,0,0)" stroke="none" font-family="geogebra-sans-serif, sans-serif" font-size="24px" font-style="normal" font-weight="normal" text-decoration="normal" x="20" y="344" text-anchor="start" dominant-baseline="alphabetic" fill-opacity="1">–25</text><path fill="none" stroke="rgb(0,0,0)" paint-order="fill stroke markers" d=" M 37.5 316.5 L 37.5 319.5" stroke-opacity="1" stroke-miterlimit="10"/><path fill="none" stroke="rgb(0,0,0)" paint-order="fill stroke markers" d=" M 49.5 316.5 L 49.5 319.5" stroke-opacity="1" stroke-miterlimit="10"/><path fill="none" stroke="rgb(0,0,0)" paint-order="fill stroke markers" d=" M 62.5 316.5 L 62.5 319.5" stroke-opacity="1" stroke-miterlimit="10"/><path fill="none" stroke="rgb(0,0,0)" paint-order="fill stroke markers" d=" M 75.5 316.5 L 75.5 319.5" stroke-opacity="1" stroke-miterlimit="10"/><path fill="none" stroke="rgb(0,0,0)" paint-order="fill stroke markers" d=" M 88.5 316.5 L 88.5 319.5" stroke-opacity="1" stroke-miterlimit="10"/><text fill="rgb(0,0,0)" stroke="none" font-family="geogebra-sans-serif, sans-serif" font-size="24px" font-style="normal" font-weight="normal" text-decoration="normal" x="84" y="344" text-anchor="start" dominant-baseline="alphabetic" fill-opacity="1">–20</text><text fill="none" stroke="rgb(255,255,255)" font-family="geogebra-sans-serif, sans-serif" font-size="24px" font-style="normal" font-weight="normal" text-decoration="normal" x="84" y="344" text-anchor="start" dominant-baseline="alphabetic" stroke-opacity="1" stroke-linejoin="bevel" stroke-miterlimit="10" stroke-width="3">–20</text><text fill="rgb(0,0,0)" stroke="none" font-family="geogebra-sans-serif, sans-serif" font-size="24px" font-style="normal" font-weight="normal" text-decoration="normal" x="84" y="344" text-anchor="start" dominant-baseline="alphabetic" fill-opacity="1">–20</text><path fill="none" stroke="rgb(0,0,0)" paint-order="fill stroke markers" d=" M 101.5 316.5 L 101.5 319.5" stroke-opacity="1" stroke-miterlimit="10"/><path fill="none" stroke="rgb(0,0,0)" paint-order="fill stroke markers" d=" M 113.5 316.5 L 113.5 319.5" stroke-opacity="1" stroke-miterlimit="10"/><path fill="none" stroke="rgb(0,0,0)" paint-order="fill stroke markers" d=" M 126.5 316.5 L 126.5 319.5" stroke-opacity="1" stroke-miterlimit="10"/><path fill="none" stroke="rgb(0,0,0)" paint-order="fill stroke markers" d=" M 139.5 316.5 L 139.5 319.5" stroke-opacity="1" stroke-miterlimit="10"/><path fill="none" stroke="rgb(0,0,0)" paint-order="fill stroke markers" d=" M 152.5 316.5 L 152.5 319.5" stroke-opacity="1" stroke-miterlimit="10"/><text fill="rgb(0,0,0)" stroke="none" font-family="geogebra-sans-serif, sans-serif" font-size="24px" font-style="normal" font-weight="normal" text-decoration="normal" x="148" y="344" text-anchor="start" dominant-baseline="alphabetic" fill-opacity="1">–15</text><text fill="none" stroke="rgb(255,255,255)" font-family="geogebra-sans-serif, sans-serif" font-size="24px" font-style="normal" font-weight="normal" text-decoration="normal" x="148" y="344" text-anchor="start" dominant-baseline="alphabetic" stroke-opacity="1" stroke-linejoin="bevel" stroke-miterlimit="10" stroke-width="3">–15</text><text fill="rgb(0,0,0)" stroke="none" font-family="geogebra-sans-serif, sans-serif" font-size="24px" font-style="normal" font-weight="normal" text-decoration="normal" x="148" y="344" text-anchor="start" dominant-baseline="alphabetic" fill-opacity="1">–15</text><path fill="none" stroke="rgb(0,0,0)" paint-order="fill stroke markers" d=" M 165.5 316.5 L 165.5 319.5" stroke-opacity="1" stroke-miterlimit="10"/><path fill="none" stroke="rgb(0,0,0)" paint-order="fill stroke markers" d=" M 178.5 316.5 L 178.5 319.5" stroke-opacity="1" stroke-miterlimit="10"/><path fill="none" stroke="rgb(0,0,0)" paint-order="fill stroke markers" d=" M 190.5 316.5 L 190.5 319.5" stroke-opacity="1" stroke-miterlimit="10"/><path fill="none" stroke="rgb(0,0,0)" paint-order="fill stroke markers" d=" M 203.5 316.5 L 203.5 319.5" stroke-opacity="1" stroke-miterlimit="10"/><path fill="none" stroke="rgb(0,0,0)" paint-order="fill stroke markers" d=" M 216.5 316.5 L 216.5 319.5" stroke-opacity="1" stroke-miterlimit="10"/><text fill="rgb(0,0,0)" stroke="none" font-family="geogebra-sans-serif, sans-serif" font-size="24px" font-style="normal" font-weight="normal" text-decoration="normal" x="212" y="344" text-anchor="start" dominant-baseline="alphabetic" fill-opacity="1">–10</text><text fill="none" stroke="rgb(255,255,255)" font-family="geogebra-sans-serif, sans-serif" font-size="24px" font-style="normal" font-weight="normal" text-decoration="normal" x="212" y="344" text-anchor="start" dominant-baseline="alphabetic" stroke-opacity="1" stroke-linejoin="bevel" stroke-miterlimit="10" stroke-width="3">–10</text><text fill="rgb(0,0,0)" stroke="none" font-family="geogebra-sans-serif, sans-serif" font-size="24px" font-style="normal" font-weight="normal" text-decoration="normal" x="212" y="344" text-anchor="start" dominant-baseline="alphabetic" fill-opacity="1">–10</text><path fill="none" stroke="rgb(0,0,0)" paint-order="fill stroke markers" d=" M 229.5 316.5 L 229.5 319.5" stroke-opacity="1" stroke-miterlimit="10"/><path fill="none" stroke="rgb(0,0,0)" paint-order="fill stroke markers" d=" M 242.5 316.5 L 242.5 319.5" stroke-opacity="1" stroke-miterlimit="10"/><path fill="none" stroke="rgb(0,0,0)" paint-order="fill stroke markers" d=" M 254.5 316.5 L 254.5 319.5" stroke-opacity="1" stroke-miterlimit="10"/><path fill="none" stroke="rgb(0,0,0)" paint-order="fill stroke markers" d=" M 267.5 316.5 L 267.5 319.5" stroke-opacity="1" stroke-miterlimit="10"/><path fill="none" stroke="rgb(0,0,0)" paint-order="fill stroke markers" d=" M 280.5 316.5 L 280.5 319.5" stroke-opacity="1" stroke-miterlimit="10"/><text fill="rgb(0,0,0)" stroke="none" font-family="geogebra-sans-serif, sans-serif" font-size="24px" font-style="normal" font-weight="normal" text-decoration="normal" x="282" y="344" text-anchor="start" dominant-baseline="alphabetic" fill-opacity="1">–5</text><text fill="none" stroke="rgb(255,255,255)" font-family="geogebra-sans-serif, sans-serif" font-size="24px" font-style="normal" font-weight="normal" text-decoration="normal" x="282" y="344" text-anchor="start" dominant-baseline="alphabetic" stroke-opacity="1" stroke-linejoin="bevel" stroke-miterlimit="10" stroke-width="3">–5</text><text fill="rgb(0,0,0)" stroke="none" font-family="geogebra-sans-serif, sans-serif" font-size="24px" font-style="normal" font-weight="normal" text-decoration="normal" x="282" y="344" text-anchor="start" dominant-baseline="alphabetic" fill-opacity="1">–5</text><path fill="none" stroke="rgb(0,0,0)" paint-order="fill stroke markers" d=" M 293.5 316.5 L 293.5 319.5" stroke-opacity="1" stroke-miterlimit="10"/><path fill="none" stroke="rgb(0,0,0)" paint-order="fill stroke markers" d=" M 306.5 316.5 L 306.5 319.5" stroke-opacity="1" stroke-miterlimit="10"/><path fill="none" stroke="rgb(0,0,0)" paint-order="fill stroke markers" d=" M 318.5 316.5 L 318.5 319.5" stroke-opacity="1" stroke-miterlimit="10"/><path fill="none" stroke="rgb(0,0,0)" paint-order="fill stroke markers" d=" M 331.5 316.5 L 331.5 319.5" stroke-opacity="1" stroke-miterlimit="10"/><path fill="none" stroke="rgb(0,0,0)" paint-order="fill stroke markers" d=" M 344.5 316.5 L 344.5 319.5" stroke-opacity="1" stroke-miterlimit="10"/><path fill="none" stroke="rgb(0,0,0)" paint-order="fill stroke markers" d=" M 357.5 316.5 L 357.5 319.5" stroke-opacity="1" stroke-miterlimit="10"/><path fill="none" stroke="rgb(0,0,0)" paint-order="fill stroke markers" d=" M 370.5 316.5 L 370.5 319.5" stroke-opacity="1" stroke-miterlimit="10"/><path fill="none" stroke="rgb(0,0,0)" paint-order="fill stroke markers" d=" M 383.5 316.5 L 383.5 319.5" stroke-opacity="1" stroke-miterlimit="10"/><path fill="none" stroke="rgb(0,0,0)" paint-order="fill stroke markers" d=" M 395.5 316.5 L 395.5 319.5" stroke-opacity="1" stroke-miterlimit="10"/><path fill="none" stroke="rgb(0,0,0)" paint-order="fill stroke markers" d=" M 408.5 316.5 L 408.5 319.5" stroke-opacity="1" stroke-miterlimit="10"/><text fill="rgb(0,0,0)" stroke="none" font-family="geogebra-sans-serif, sans-serif" font-size="24px" font-style="normal" font-weight="normal" text-decoration="normal" x="416" y="344" text-anchor="start" dominant-baseline="alphabetic" fill-opacity="1">5</text><text fill="none" stroke="rgb(255,255,255)" font-family="geogebra-sans-serif, sans-serif" font-size="24px" font-style="normal" font-weight="normal" text-decoration="normal" x="416" y="344" text-anchor="start" dominant-baseline="alphabetic" stroke-opacity="1" stroke-linejoin="bevel" stroke-miterlimit="10" stroke-width="3">5</text><text fill="rgb(0,0,0)" stroke="none" font-family="geogebra-sans-serif, sans-serif" font-size="24px" font-style="normal" font-weight="normal" text-decoration="normal" x="416" y="344" text-anchor="start" dominant-baseline="alphabetic" fill-opacity="1">5</text><path fill="none" stroke="rgb(0,0,0)" paint-order="fill stroke markers" d=" M 421.5 316.5 L 421.5 319.5" stroke-opacity="1" stroke-miterlimit="10"/><path fill="none" stroke="rgb(0,0,0)" paint-order="fill stroke markers" d=" M 434.5 316.5 L 434.5 319.5" stroke-opacity="1" stroke-miterlimit="10"/><path fill="none" stroke="rgb(0,0,0)" paint-order="fill stroke markers" d=" M 447.5 316.5 L 447.5 319.5" stroke-opacity="1" stroke-miterlimit="10"/><path fill="none" stroke="rgb(0,0,0)" paint-order="fill stroke markers" d=" M 459.5 316.5 L 459.5 319.5" stroke-opacity="1" stroke-miterlimit="10"/><path fill="none" stroke="rgb(0,0,0)" paint-order="fill stroke markers" d=" M 472.5 316.5 L 472.5 319.5" stroke-opacity="1" stroke-miterlimit="10"/><text fill="rgb(0,0,0)" stroke="none" font-family="geogebra-sans-serif, sans-serif" font-size="24px" font-style="normal" font-weight="normal" text-decoration="normal" x="474" y="344" text-anchor="start" dominant-baseline="alphabetic" fill-opacity="1">10</text><text fill="none" stroke="rgb(255,255,255)" font-family="geogebra-sans-serif, sans-serif" font-size="24px" font-style="normal" font-weight="normal" text-decoration="normal" x="474" y="344" text-anchor="start" dominant-baseline="alphabetic" stroke-opacity="1" stroke-linejoin="bevel" stroke-miterlimit="10" stroke-width="3">10</text><text fill="rgb(0,0,0)" stroke="none" font-family="geogebra-sans-serif, sans-serif" font-size="24px" font-style="normal" font-weight="normal" text-decoration="normal" x="474" y="344" text-anchor="start" dominant-baseline="alphabetic" fill-opacity="1">10</text><path fill="none" stroke="rgb(0,0,0)" paint-order="fill stroke markers" d=" M 485.5 316.5 L 485.5 319.5" stroke-opacity="1" stroke-miterlimit="10"/><path fill="none" stroke="rgb(0,0,0)" paint-order="fill stroke markers" d=" M 498.5 316.5 L 498.5 319.5" stroke-opacity="1" stroke-miterlimit="10"/><path fill="none" stroke="rgb(0,0,0)" paint-order="fill stroke markers" d=" M 511.5 316.5 L 511.5 319.5" stroke-opacity="1" stroke-miterlimit="10"/><path fill="none" stroke="rgb(0,0,0)" paint-order="fill stroke markers" d=" M 523.5 316.5 L 523.5 319.5" stroke-opacity="1" stroke-miterlimit="10"/><path fill="none" stroke="rgb(0,0,0)" paint-order="fill stroke markers" d=" M 536.5 316.5 L 536.5 319.5" stroke-opacity="1" stroke-miterlimit="10"/><text fill="rgb(0,0,0)" stroke="none" font-family="geogebra-sans-serif, sans-serif" font-size="24px" font-style="normal" font-weight="normal" text-decoration="normal" x="538" y="344" text-anchor="start" dominant-baseline="alphabetic" fill-opacity="1">15</text><text fill="none" stroke="rgb(255,255,255)" font-family="geogebra-sans-serif, sans-serif" font-size="24px" font-style="normal" font-weight="normal" text-decoration="normal" x="538" y="344" text-anchor="start" dominant-baseline="alphabetic" stroke-opacity="1" stroke-linejoin="bevel" stroke-miterlimit="10" stroke-width="3">15</text><text fill="rgb(0,0,0)" stroke="none" font-family="geogebra-sans-serif, sans-serif" font-size="24px" font-style="normal" font-weight="normal" text-decoration="normal" x="538" y="344" text-anchor="start" dominant-baseline="alphabetic" fill-opacity="1">15</text><path fill="none" stroke="rgb(0,0,0)" paint-order="fill stroke markers" d=" M 549.5 316.5 L 549.5 319.5" stroke-opacity="1" stroke-miterlimit="10"/><path fill="none" stroke="rgb(0,0,0)" paint-order="fill stroke markers" d=" M 562.5 316.5 L 562.5 319.5" stroke-opacity="1" stroke-miterlimit="10"/><path fill="none" stroke="rgb(0,0,0)" paint-order="fill stroke markers" d=" M 575.5 316.5 L 575.5 319.5" stroke-opacity="1" stroke-miterlimit="10"/><path fill="none" stroke="rgb(0,0,0)" paint-order="fill stroke markers" d=" M 588.5 316.5 L 588.5 319.5" stroke-opacity="1" stroke-miterlimit="10"/><path fill="none" stroke="rgb(0,0,0)" paint-order="fill stroke markers" d=" M 600.5 316.5 L 600.5 319.5" stroke-opacity="1" stroke-miterlimit="10"/><text fill="rgb(0,0,0)" stroke="none" font-family="geogebra-sans-serif, sans-serif" font-size="24px" font-style="normal" font-weight="normal" text-decoration="normal" x="602" y="344" text-anchor="start" dominant-baseline="alphabetic" fill-opacity="1">20</text><text fill="none" stroke="rgb(255,255,255)" font-family="geogebra-sans-serif, sans-serif" font-size="24px" font-style="normal" font-weight="normal" text-decoration="normal" x="602" y="344" text-anchor="start" dominant-baseline="alphabetic" stroke-opacity="1" stroke-linejoin="bevel" stroke-miterlimit="10" stroke-width="3">20</text><text fill="rgb(0,0,0)" stroke="none" font-family="geogebra-sans-serif, sans-serif" font-size="24px" font-style="normal" font-weight="normal" text-decoration="normal" x="602" y="344" text-anchor="start" dominant-baseline="alphabetic" fill-opacity="1">20</text><path fill="none" stroke="rgb(0,0,0)" paint-order="fill stroke markers" d=" M 613.5 316.5 L 613.5 319.5" stroke-opacity="1" stroke-miterlimit="10"/><path fill="none" stroke="rgb(0,0,0)" paint-order="fill stroke markers" d=" M 354.5 649.5 L 357.5 649.5" stroke-opacity="1" stroke-miterlimit="10"/><path fill="none" stroke="rgb(0,0,0)" paint-order="fill stroke markers" d=" M 354.5 636.5 L 357.5 636.5" stroke-opacity="1" stroke-miterlimit="10"/><path fill="none" stroke="rgb(0,0,0)" paint-order="fill stroke markers" d=" M 354.5 624.5 L 357.5 624.5" stroke-opacity="1" stroke-miterlimit="10"/><path fill="none" stroke="rgb(0,0,0)" paint-order="fill stroke markers" d=" M 354.5 611.5 L 357.5 611.5" stroke-opacity="1" stroke-miterlimit="10"/><path fill="none" stroke="rgb(0,0,0)" paint-order="fill stroke markers" d=" M 354.5 598.5 L 357.5 598.5" stroke-opacity="1" stroke-miterlimit="10"/><path fill="none" stroke="rgb(0,0,0)" paint-order="fill stroke markers" d=" M 354.5 585.5 L 357.5 585.5" stroke-opacity="1" stroke-miterlimit="10"/><path fill="none" stroke="rgb(0,0,0)" paint-order="fill stroke markers" d=" M 354.5 572.5 L 357.5 572.5" stroke-opacity="1" stroke-miterlimit="10"/><path fill="none" stroke="rgb(0,0,0)" paint-order="fill stroke markers" d=" M 354.5 560.5 L 357.5 560.5" stroke-opacity="1" stroke-miterlimit="10"/><path fill="none" stroke="rgb(0,0,0)" paint-order="fill stroke markers" d=" M 354.5 547.5 L 357.5 547.5" stroke-opacity="1" stroke-miterlimit="10"/><path fill="none" stroke="rgb(0,0,0)" paint-order="fill stroke markers" d=" M 354.5 534.5 L 357.5 534.5" stroke-opacity="1" stroke-miterlimit="10"/><path fill="none" stroke="rgb(0,0,0)" paint-order="fill stroke markers" d=" M 354.5 521.5 L 357.5 521.5" stroke-opacity="1" stroke-miterlimit="10"/><path fill="none" stroke="rgb(0,0,0)" paint-order="fill stroke markers" d=" M 354.5 508.5 L 357.5 508.5" stroke-opacity="1" stroke-miterlimit="10"/><path fill="none" stroke="rgb(0,0,0)" paint-order="fill stroke markers" d=" M 354.5 496.5 L 357.5 496.5" stroke-opacity="1" stroke-miterlimit="10"/><path fill="none" stroke="rgb(0,0,0)" paint-order="fill stroke markers" d=" M 354.5 483.5 L 357.5 483.5" stroke-opacity="1" stroke-miterlimit="10"/><path fill="none" stroke="rgb(0,0,0)" paint-order="fill stroke markers" d=" M 354.5 470.5 L 357.5 470.5" stroke-opacity="1" stroke-miterlimit="10"/><path fill="none" stroke="rgb(0,0,0)" paint-order="fill stroke markers" d=" M 354.5 457.5 L 357.5 457.5" stroke-opacity="1" stroke-miterlimit="10"/><path fill="none" stroke="rgb(0,0,0)" paint-order="fill stroke markers" d=" M 354.5 444.5 L 357.5 444.5" stroke-opacity="1" stroke-miterlimit="10"/><path fill="none" stroke="rgb(0,0,0)" paint-order="fill stroke markers" d=" M 354.5 431.5 L 357.5 431.5" stroke-opacity="1" stroke-miterlimit="10"/><path fill="none" stroke="rgb(0,0,0)" paint-order="fill stroke markers" d=" M 354.5 419.5 L 357.5 419.5" stroke-opacity="1" stroke-miterlimit="10"/><path fill="none" stroke="rgb(0,0,0)" paint-order="fill stroke markers" d=" M 354.5 406.5 L 357.5 406.5" stroke-opacity="1" stroke-miterlimit="10"/><path fill="none" stroke="rgb(0,0,0)" paint-order="fill stroke markers" d=" M 354.5 393.5 L 357.5 393.5" stroke-opacity="1" stroke-miterlimit="10"/><path fill="none" stroke="rgb(0,0,0)" paint-order="fill stroke markers" d=" M 354.5 380.5 L 357.5 380.5" stroke-opacity="1" stroke-miterlimit="10"/><path fill="none" stroke="rgb(0,0,0)" paint-order="fill stroke markers" d=" M 354.5 367.5 L 357.5 367.5" stroke-opacity="1" stroke-miterlimit="10"/><path fill="none" stroke="rgb(0,0,0)" paint-order="fill stroke markers" d=" M 354.5 355.5 L 357.5 355.5" stroke-opacity="1" stroke-miterlimit="10"/><path fill="none" stroke="rgb(0,0,0)" paint-order="fill stroke markers" d=" M 354.5 342.5 L 357.5 342.5" stroke-opacity="1" stroke-miterlimit="10"/><path fill="none" stroke="rgb(0,0,0)" paint-order="fill stroke markers" d=" M 354.5 329.5 L 357.5 329.5" stroke-opacity="1" stroke-miterlimit="10"/><path fill="none" stroke="rgb(0,0,0)" paint-order="fill stroke markers" d=" M 354.5 303.5 L 357.5 303.5" stroke-opacity="1" stroke-miterlimit="10"/><path fill="none" stroke="rgb(0,0,0)" paint-order="fill stroke markers" d=" M 354.5 291.5 L 357.5 291.5" stroke-opacity="1" stroke-miterlimit="10"/><path fill="none" stroke="rgb(0,0,0)" paint-order="fill stroke markers" d=" M 354.5 278.5 L 357.5 278.5" stroke-opacity="1" stroke-miterlimit="10"/><path fill="none" stroke="rgb(0,0,0)" paint-order="fill stroke markers" d=" M 354.5 265.5 L 357.5 265.5" stroke-opacity="1" stroke-miterlimit="10"/><path fill="none" stroke="rgb(0,0,0)" paint-order="fill stroke markers" d=" M 354.5 252.5 L 357.5 252.5" stroke-opacity="1" stroke-miterlimit="10"/><path fill="none" stroke="rgb(0,0,0)" paint-order="fill stroke markers" d=" M 354.5 239.5 L 357.5 239.5" stroke-opacity="1" stroke-miterlimit="10"/><path fill="none" stroke="rgb(0,0,0)" paint-order="fill stroke markers" d=" M 354.5 226.5 L 357.5 226.5" stroke-opacity="1" stroke-miterlimit="10"/><path fill="none" stroke="rgb(0,0,0)" paint-order="fill stroke markers" d=" M 354.5 214.5 L 357.5 214.5" stroke-opacity="1" stroke-miterlimit="10"/><path fill="none" stroke="rgb(0,0,0)" paint-order="fill stroke markers" d=" M 354.5 201.5 L 357.5 201.5" stroke-opacity="1" stroke-miterlimit="10"/><path fill="none" stroke="rgb(0,0,0)" paint-order="fill stroke markers" d=" M 354.5 188.5 L 357.5 188.5" stroke-opacity="1" stroke-miterlimit="10"/><path fill="none" stroke="rgb(0,0,0)" paint-order="fill stroke markers" d=" M 354.5 175.5 L 357.5 175.5" stroke-opacity="1" stroke-miterlimit="10"/><path fill="none" stroke="rgb(0,0,0)" paint-order="fill stroke markers" d=" M 354.5 162.5 L 357.5 162.5" stroke-opacity="1" stroke-miterlimit="10"/><path fill="none" stroke="rgb(0,0,0)" paint-order="fill stroke markers" d=" M 354.5 150.5 L 357.5 150.5" stroke-opacity="1" stroke-miterlimit="10"/><path fill="none" stroke="rgb(0,0,0)" paint-order="fill stroke markers" d=" M 354.5 137.5 L 357.5 137.5" stroke-opacity="1" stroke-miterlimit="10"/><path fill="none" stroke="rgb(0,0,0)" paint-order="fill stroke markers" d=" M 354.5 124.5 L 357.5 124.5" stroke-opacity="1" stroke-miterlimit="10"/><path fill="none" stroke="rgb(0,0,0)" paint-order="fill stroke markers" d=" M 354.5 111.5 L 357.5 111.5" stroke-opacity="1" stroke-miterlimit="10"/><path fill="none" stroke="rgb(0,0,0)" paint-order="fill stroke markers" d=" M 354.5 98.5 L 357.5 98.5" stroke-opacity="1" stroke-miterlimit="10"/><path fill="none" stroke="rgb(0,0,0)" paint-order="fill stroke markers" d=" M 354.5 86.5 L 357.5 86.5" stroke-opacity="1" stroke-miterlimit="10"/><path fill="none" stroke="rgb(0,0,0)" paint-order="fill stroke markers" d=" M 354.5 73.5 L 357.5 73.5" stroke-opacity="1" stroke-miterlimit="10"/><path fill="none" stroke="rgb(0,0,0)" paint-order="fill stroke markers" d=" M 354.5 60.5 L 357.5 60.5" stroke-opacity="1" stroke-miterlimit="10"/><path fill="none" stroke="rgb(0,0,0)" paint-order="fill stroke markers" d=" M 354.5 47.5 L 357.5 47.5" stroke-opacity="1" stroke-miterlimit="10"/><path fill="none" stroke="rgb(0,0,0)" paint-order="fill stroke markers" d=" M 354.5 34.5 L 357.5 34.5" stroke-opacity="1" stroke-miterlimit="10"/><path fill="none" stroke="rgb(0,0,0)" paint-order="fill stroke markers" d=" M 354.5 21.5 L 357.5 21.5" stroke-opacity="1" stroke-miterlimit="10"/><text fill="rgb(0,0,0)" stroke="none" font-family="geogebra-sans-serif, sans-serif" font-size="24px" font-style="normal" font-weight="normal" text-decoration="normal" x="307" y="647" text-anchor="start" dominant-baseline="alphabetic" fill-opacity="1">–25</text><text fill="none" stroke="rgb(255,255,255)" font-family="geogebra-sans-serif, sans-serif" font-size="24px" font-style="normal" font-weight="normal" text-decoration="normal" x="307" y="647" text-anchor="start" dominant-baseline="alphabetic" stroke-opacity="1" stroke-linejoin="bevel" stroke-miterlimit="10" stroke-width="3">–25</text><text fill="rgb(0,0,0)" stroke="none" font-family="geogebra-sans-serif, sans-serif" font-size="24px" font-style="normal" font-weight="normal" text-decoration="normal" x="307" y="647" text-anchor="start" dominant-baseline="alphabetic" fill-opacity="1">–25</text><text fill="rgb(0,0,0)" stroke="none" font-family="geogebra-sans-serif, sans-serif" font-size="24px" font-style="normal" font-weight="normal" text-decoration="normal" x="307" y="583" text-anchor="start" dominant-baseline="alphabetic" fill-opacity="1">–20</text><text fill="none" stroke="rgb(255,255,255)" font-family="geogebra-sans-serif, sans-serif" font-size="24px" font-style="normal" font-weight="normal" text-decoration="normal" x="307" y="583" text-anchor="start" dominant-baseline="alphabetic" stroke-opacity="1" stroke-linejoin="bevel" stroke-miterlimit="10" stroke-width="3">–20</text><text fill="rgb(0,0,0)" stroke="none" font-family="geogebra-sans-serif, sans-serif" font-size="24px" font-style="normal" font-weight="normal" text-decoration="normal" x="307" y="583" text-anchor="start" dominant-baseline="alphabetic" fill-opacity="1">–20</text><text fill="rgb(0,0,0)" stroke="none" font-family="geogebra-sans-serif, sans-serif" font-size="24px" font-style="normal" font-weight="normal" text-decoration="normal" x="307" y="519" text-anchor="start" dominant-baseline="alphabetic" fill-opacity="1">–15</text><text fill="none" stroke="rgb(255,255,255)" font-family="geogebra-sans-serif, sans-serif" font-size="24px" font-style="normal" font-weight="normal" text-decoration="normal" x="307" y="519" text-anchor="start" dominant-baseline="alphabetic" stroke-opacity="1" stroke-linejoin="bevel" stroke-miterlimit="10" stroke-width="3">–15</text><text fill="rgb(0,0,0)" stroke="none" font-family="geogebra-sans-serif, sans-serif" font-size="24px" font-style="normal" font-weight="normal" text-decoration="normal" x="307" y="519" text-anchor="start" dominant-baseline="alphabetic" fill-opacity="1">–15</text><text fill="rgb(0,0,0)" stroke="none" font-family="geogebra-sans-serif, sans-serif" font-size="24px" font-style="normal" font-weight="normal" text-decoration="normal" x="307" y="455" text-anchor="start" dominant-baseline="alphabetic" fill-opacity="1">–10</text><text fill="none" stroke="rgb(255,255,255)" font-family="geogebra-sans-serif, sans-serif" font-size="24px" font-style="normal" font-weight="normal" text-decoration="normal" x="307" y="455" text-anchor="start" dominant-baseline="alphabetic" stroke-opacity="1" stroke-linejoin="bevel" stroke-miterlimit="10" stroke-width="3">–10</text><text fill="rgb(0,0,0)" stroke="none" font-family="geogebra-sans-serif, sans-serif" font-size="24px" font-style="normal" font-weight="normal" text-decoration="normal" x="307" y="455" text-anchor="start" dominant-baseline="alphabetic" fill-opacity="1">–10</text><text fill="rgb(0,0,0)" stroke="none" font-family="geogebra-sans-serif, sans-serif" font-size="24px" font-style="normal" font-weight="normal" text-decoration="normal" x="320" y="391" text-anchor="start" dominant-baseline="alphabetic" fill-opacity="1">–5</text><text fill="none" stroke="rgb(255,255,255)" font-family="geogebra-sans-serif, sans-serif" font-size="24px" font-style="normal" font-weight="normal" text-decoration="normal" x="320" y="391" text-anchor="start" dominant-baseline="alphabetic" stroke-opacity="1" stroke-linejoin="bevel" stroke-miterlimit="10" stroke-width="3">–5</text><text fill="rgb(0,0,0)" stroke="none" font-family="geogebra-sans-serif, sans-serif" font-size="24px" font-style="normal" font-weight="normal" text-decoration="normal" x="320" y="391" text-anchor="start" dominant-baseline="alphabetic" fill-opacity="1">–5</text><text fill="rgb(0,0,0)" stroke="none" font-family="geogebra-sans-serif, sans-serif" font-size="24px" font-style="normal" font-weight="normal" text-decoration="normal" x="334" y="263" text-anchor="start" dominant-baseline="alphabetic" fill-opacity="1">5</text><text fill="none" stroke="rgb(255,255,255)" font-family="geogebra-sans-serif, sans-serif" font-size="24px" font-style="normal" font-weight="normal" text-decoration="normal" x="334" y="263" text-anchor="start" dominant-baseline="alphabetic" stroke-opacity="1" stroke-linejoin="bevel" stroke-miterlimit="10" stroke-width="3">5</text><text fill="rgb(0,0,0)" stroke="none" font-family="geogebra-sans-serif, sans-serif" font-size="24px" font-style="normal" font-weight="normal" text-decoration="normal" x="334" y="263" text-anchor="start" dominant-baseline="alphabetic" fill-opacity="1">5</text><text fill="rgb(0,0,0)" stroke="none" font-family="geogebra-sans-serif, sans-serif" font-size="24px" font-style="normal" font-weight="normal" text-decoration="normal" x="320" y="199" text-anchor="start" dominant-baseline="alphabetic" fill-opacity="1">10</text><text fill="none" stroke="rgb(255,255,255)" font-family="geogebra-sans-serif, sans-serif" font-size="24px" font-style="normal" font-weight="normal" text-decoration="normal" x="320" y="199" text-anchor="start" dominant-baseline="alphabetic" stroke-opacity="1" stroke-linejoin="bevel" stroke-miterlimit="10" stroke-width="3">10</text><text fill="rgb(0,0,0)" stroke="none" font-family="geogebra-sans-serif, sans-serif" font-size="24px" font-style="normal" font-weight="normal" text-decoration="normal" x="320" y="199" text-anchor="start" dominant-baseline="alphabetic" fill-opacity="1">10</text><text fill="rgb(0,0,0)" stroke="none" font-family="geogebra-sans-serif, sans-serif" font-size="24px" font-style="normal" font-weight="normal" text-decoration="normal" x="320" y="135" text-anchor="start" dominant-baseline="alphabetic" fill-opacity="1">15</text><text fill="none" stroke="rgb(255,255,255)" font-family="geogebra-sans-serif, sans-serif" font-size="24px" font-style="normal" font-weight="normal" text-decoration="normal" x="320" y="135" text-anchor="start" dominant-baseline="alphabetic" stroke-opacity="1" stroke-linejoin="bevel" stroke-miterlimit="10" stroke-width="3">15</text><text fill="rgb(0,0,0)" stroke="none" font-family="geogebra-sans-serif, sans-serif" font-size="24px" font-style="normal" font-weight="normal" text-decoration="normal" x="320" y="135" text-anchor="start" dominant-baseline="alphabetic" fill-opacity="1">15</text><text fill="rgb(0,0,0)" stroke="none" font-family="geogebra-sans-serif, sans-serif" font-size="24px" font-style="normal" font-weight="normal" text-decoration="normal" x="320" y="71" text-anchor="start" dominant-baseline="alphabetic" fill-opacity="1">20</text><text fill="none" stroke="rgb(255,255,255)" font-family="geogebra-sans-serif, sans-serif" font-size="24px" font-style="normal" font-weight="normal" text-decoration="normal" x="320" y="71" text-anchor="start" dominant-baseline="alphabetic" stroke-opacity="1" stroke-linejoin="bevel" stroke-miterlimit="10" stroke-width="3">20</text><text fill="rgb(0,0,0)" stroke="none" font-family="geogebra-sans-serif, sans-serif" font-size="24px" font-style="normal" font-weight="normal" text-decoration="normal" x="320" y="71" text-anchor="start" dominant-baseline="alphabetic" fill-opacity="1">20</text><text fill="rgb(0,0,0)" stroke="none" font-family="geogebra-sans-serif, sans-serif" font-size="24px" font-style="normal" font-weight="normal" text-decoration="normal" x="334" y="344" text-anchor="start" dominant-baseline="alphabetic" fill-opacity="1">0</text><text fill="none" stroke="rgb(255,255,255)" font-family="geogebra-sans-serif, sans-serif" font-size="24px" font-style="normal" font-weight="normal" text-decoration="normal" x="334" y="344" text-anchor="start" dominant-baseline="alphabetic" stroke-opacity="1" stroke-linejoin="bevel" stroke-miterlimit="10" stroke-width="3">0</text><text fill="rgb(0,0,0)" stroke="none" font-family="geogebra-sans-serif, sans-serif" font-size="24px" font-style="normal" font-weight="normal" text-decoration="normal" x="334" y="344" text-anchor="start" dominant-baseline="alphabetic" fill-opacity="1">0</text><path fill="none" stroke="rgb(46,125,50)" paint-order="fill stroke markers" d=" M 370.2156501863439 316.6440315951095 L 373.94969334853954 314.08581860221193 L 374.80409650778296 313.26605588030253 L 375.6185524372744 312.37729083427826 L 377.1116201000382 310.4006078362585 L 378.39784983959703 308.1735177065786 L 379.44794615936866 305.7169291133807 L 380.23466460172574 303.0547424110884 L 380.7330958304394 300.21365350997644 L 380.77870865725316 294.1141750675462 L 380.29003353678706 290.92103952931853 L 379.44177785350644 287.67895330545235 L 376.63134213535176 281.19664360726006 L 374.6606362476408 278.0333007430829 L 372.31349551755113 274.9740884304651 L 366.51452993293555 269.325480245112 L 363.0846285067437 266.8138183148265 L 359.3220817676545 264.5610359796018 L 350.8842139587428 260.9755416425425 L 346.2603467111141 259.71003042770514 L 341.40642843276095 258.837134079959 L 336.35630120636 258.38446294959573 L 331.14666754799157 258.3766841997479 L 325.8168333926408 258.8352473775748 L 320.4084259788008 259.77813244255566 L 314.9650885908606 261.21962247343686 L 309.5321543098538 263.17010310511887 L 304.1563011002995 265.6358905602439 L 298.8851907219277 268.6190899387239 L 293.7670940988005 272.11748521331543 L 288.8505059035847 276.12446215208325 L 279.8145872358708 285.61548871143196 L 275.78980296958906 291.0641040496265 L 272.1548201033855 296.95052105356876 L 268.95329798248196 303.246185555385 L 266.22674586531235 309.91841161050206 L 264.014145471732 316.93054821675196 L 262.35158683335294 324.24217964267064 L 261.2719203805972 331.80935827631396 L 260.8044281100941 339.58486865363517 L 260.97451656367286 347.518521080916 L 261.80343421707016 355.55747303070086 L 263.3080157234088 363.64657626690473 L 265.5004552844548 371.72874744391214 L 268.38811123272154 379.7453597281525 L 271.9733437008946 387.636652810319 L 276.25338703314077 395.3421585134949 L 281.22025835711247 402.8011390582325 L 286.86070348743084 409.9530349212614 L 293.15618107279795 416.7379191210067 L 300.08288563139666 423.0969546813544 L 307.61180984471326 428.97285196586085 L 315.7088462002474 434.31032253843966 L 324.33492779068075 439.0565261939118 L 333.4462077929371 443.16150781293925 L 342.99427686716024 446.5786207308812 L 352.9264174349644 449.2649333689608 L 358.01893287522626 450.3217349368895 L 363.18589352036025 451.18161595857634 L 368.4196326307842 451.84042330761906 L 373.7122745675 452.2943042952518 L 379.0557466370691 452.5397165765487 L 384.44179138875444 452.57343758703274 L 389.8619793451234 452.3925734895969 L 395.307722146523 451.99456761239225 L 400.770286088999 451.37720835912603 L 406.2408060344155 450.5386365740326 L 411.7102996707487 449.4773523446398 L 417.169682099788 448.19222122634415 L 422.6097807287617 446.6824798737306 L 428.02135044173957 444.9477410645301 L 433.39508902602404 442.987998103088 L 438.7216528281557 440.8036285912314 L 443.9916726136006 438.39539755545934 L 449.1957696036834 435.7644599204418 L 454.32457166285826 432.9123623198998 L 459.3687296089945 429.84104423704133 L 469.165929701551 423.0504709017198 L 478.5136603604119 415.41611327364717 L 487.33963377335414 406.967588615111 L 495.57351074449144 397.7406737415487 L 503.1474227252936 387.7771763849585 L 506.66648508233135 382.53388167715593 L 509.9964852618876 377.12476254651506 L 513.1298612061885 371.5566571452606 L 516.0592991670471 365.8367404232662 L 518.7777484401065 359.9725150668435 L 521.2784357664624 353.9718018019288 L 523.554879374553 347.84272907396365 L 525.6009026356687 341.5937221179078 L 527.410647306933 335.2334914329547 L 528.9785863361667 328.77102067762445 L 530.2995362036404 322.21555400200276 L 531.3686687763739 315.5765828349517 L 532.1815226513224 308.8638321451663 L 532.7340139645354 302.08724619595466 L 533.0224466441393 295.25697381461237 L 533.0435220858263 288.3833531982059 L 532.7943482303825 281.47689627851065 L 532.2724480236918 274.548272669728 L 531.4757672405893 267.6082932234603 L 530.4026816549098 260.6678932162405 L 529.0520035390856 253.73811519567968 L 527.4229874776923 246.8300915120413 L 525.5153354804108 239.95502656273322 L 523.3292013809826 233.1241787778701 L 520.8651945098624 226.34884237565208 L 518.1243826294378 219.64032891687935 L 515.108294121863 213.0099486884214 L 511.81891942076345 206.46899194593897 L 508.2587116792977 200.02871004656143 L 504.4305866683053 193.70029650259823 L 500.3379218995382 187.49486798767518 L 495.98455497024565 181.42344532694943 L 491.37478112668174 175.49693450327777 L 486.5133500453994 169.72610771136175 L 481.4054618325126 164.12158449201283 L 476.0567622424178 158.69381297872258 L 470.4733371187978 153.45305128873355 L 464.6617060620421 148.4093490907425 L 458.62881532855397 143.57252938126717 L 452.38202996872525 138.9521705015385 L 445.92912521168284 134.5575884265674 L 439.278277106219 130.39781935776207 L 432.43805242861356 126.48160265014428 L 425.4173978693562 122.81736410483958 L 418.22562851203827 119.41319965707703 L 410.8724156189591 116.27685948945523 L 403.36777373921984 113.41573259968925 L 395.7220471563137 110.83683185146683 L 387.9458956934084 108.54677953640135 L 380.05027989570584 106.55179347438042 L 372.04644561040095 104.85767367886658 L 363.94590798589513 103.46978961292612 L 355.7604349129994 102.39306806092054 L 347.5020299319313 101.63198163992186 L 339.18291462992755 101.19053797398544 L 330.8155105552828 101.07226955344603 L 322.4124206745833 101.28022430039803 L 313.9864104008031 101.81695686046504 L 305.55038822081195 102.6845206398809 L 297.11738595166526 103.8844606057765 L 288.7005386558242 105.41780686640709 L 280.3130642462039 107.28506904685864 L 271.968242812622 109.48623147454862 L 263.6793957018707 112.02074918757654 L 255.45986438421576 114.8875447777003 L 247.322989139678 118.08500607839883 L 239.28208759792565 121.61098470715248 L 231.35043316604748 125.46279546971283 L 223.54123337885449 129.6372166327602 L 215.8676082066748 134.1304910699548 L 208.34256835588556 138.9383282849745 L 200.97899359762545 144.05590731371697 L 193.78961116029106 149.4778805064055 L 186.78697422151095 155.19837818890417 L 179.98344053533663 161.2110142010921 L 173.39115123035873 167.50889230870501 L 167.02200981438466 174.0846134835926 L 160.88766142116665 180.9302840458977 L 154.99947233448168 188.0375246602043 L 149.36850982459774 195.3974801762708 L 144.00552233185033 203.0008303035241 L 138.92092003167963 210.83780110706778 L 134.12475581504006 218.89817731155304 L 129.6267067176139 227.17131539785572 L 125.43605583070328 235.64615747613573 L 121.56167472607783 244.31124591749 L 118.0120064263904 253.15473872508386 L 114.79504895206514 262.1644256243232 L 111.9183394747856 271.32774485035844 L 109.3889391068964 280.6318006099467 L 107.2134183551511 290.06338119348743 L 105.39784326632159 299.6089777118399 L 103.9477622912047 309.25480343139344 L 102.86819389254254 318.98681367973495 L 102.16361492130446 328.7907262931805 L 101.83794978466332 338.6520425764116 L 101.8945604278434 348.55606874344824 L 102.33623715081688 358.4879378082598 L 103.165190279587 368.43263189240054 L 104.38304271051996 378.37500491621915 L 105.99082334487201 388.29980563937255 L 107.98896142931264 398.19170101563947 L 110.37728181686245 408.0352998263221 L 113.15500116125634 417.81517655589147 L 116.3207250563024 427.51589547293247 L 119.87244613034326 437.1220348789268 L 123.8075431044409 446.6182114869357 L 128.1227808213925 455.9891048918284 L 132.81431125116507 465.2194820933614 L 137.87767547678195 474.29422203310514 L 143.30780666314595 483.19834010600084 L 149.09903400970614 491.9170126071532 L 155.24508768630486 500.43560107436747 L 161.73910474994472 508.73967648688665 L 168.57363603863774 516.8150432808208 L 175.74065403689693 524.6477631418348 L 183.23156170585253 532.2241785358228 L 191.0372022693742 539.530935938497 L 199.14786994601414 546.555008725112 L 207.55332161500627 553.283719681878 L 216.24278940299834 559.7047631010253 L 225.2049941766536 565.8062264219543 L 234.42815992471776 571.5766113814284 L 243.9000290116486 577.0048546363714 L 253.60787828340693 582.0803478234777 L 263.5385360045542 586.7929570205675 L 268.58318355833813 589.0101476493338 L 273.67839960434833 591.1330415753837 L 278.82241954360813 593.1605137705369 L 284.0134542081356 595.0914722683747 L 289.24969048121875 596.924858693124 L 294.52929192894567 598.659648776888 L 299.8503994427654 600.2948528649839 L 305.2111318928672 601.8295164091583 L 310.6095867921348 603.2627204484484 L 316.04384097045374 604.5935820774662 L 321.5119512591282 605.8212549018851 L 327.01195518515897 606.9449294809128 L 332.5418716751478 607.9638337565402 L 338.0997017685593 608.8772334693595 L 343.68342934009854 609.6844325607502 L 349.29102183093585 610.3847735612393 L 354.9204309885111 610.977637964837 L 360.5695936146563 611.4624465891706 L 366.23643232175874 611.8386599212286 L 371.9188562966831 612.1057784485422 L 377.61476207218357 612.2633429756324 L 383.3220343055065 612.3109349255587 L 389.03854656390837 612.2481766264084 L 394.7621621167914 612.0747315825731 L 400.49073473415785 611.7903047306643 L 406.22210949109666 611.3946426799246 L 411.95412357798574 610.887533936998 L 417.6846071161186 610.2688091149292 L 423.411383978443 609.5383411262642 L 429.13227261509496 608.6960453601364 L 434.84508688342817 607.7418798432228 L 440.5476368822143 606.6758453844644 L 446.2377297896949 605.4979857034497 L 451.9131707051753 604.2083875423664 L 457.57176349382337 602.8071807614352 L 463.2113116343618 601.2945384177402 L 468.82961906932184 599.6706768273832 L 474.42449105752485 597.9358556108926 L 479.9937350284755 596.0903777218223 L 485.53516143831826 594.1345894584872 L 491.04658462703844 592.068880458783 L 496.5258236765668 589.8936836780492 L 501.97070326944925 587.6094753499397 L 507.37905454775245 585.2167749302662 L 512.7487159718648 582.7161450237993 L 518.0775341788483 580.1081912940044 L 523.3633648400157 577.3935623557038 L 528.6040735173775 574.5729496506663 L 533.7975365186326 571.6470873061221 L 538.9416417503559 568.616751976218 L 544.0342895690397 565.4827626664285 L 549.073393629658 562.2459805409462 L 558.9826966602568 555.4676920187324 L 568.6531581078132 548.289610509365 L 578.0686517821433 540.7201194791586 L 587.2133445532493 532.76825262687 L 596.0717225567903 524.4436836836567 L 604.6286170461699 515.7567151575356 L 612.8692298487495 506.7182660345276 L 620.7791583841229 497.339858450384 L 628.3444202028761 487.6336033484754 L 631.9935523797074 482.66147489563105 L 635.5514770048017 477.61218514111636 L 639.0165750375213 472.48740656403356 L 642.3872580961684 467.2888453932431 M 641.7502693687292 111.11858085786977 L 638.1499485763458 105.40901831554538 L 634.435080756348 99.76206297528526 L 630.60674513219 94.18001096046606 L 626.6660669150756 88.66513998653048 L 622.6142169940617 83.21970844068849 L 618.4524116077539 77.84595446674234 L 614.1819119976888 72.54609505541848 L 609.8040240434847 67.32232514055909 L 605.3200978798602 62.176816701544595 L 600.731527495633 57.11171787231444 L 591.2462467598185 47.231217054892284 L 581.3601944658113 37.697497443619 L 576.2708173871167 33.065772619568634 L 571.0860562590958 28.52679648108375 L 565.8075993323744 24.08252592576423 L 560.437174869714 19.734887158229014 L 554.9765505886913 15.48577487448506 L 549.4275330878054 11.33705145640937 L 543.7919672561811 7.290546176670205 L 538.0717356670664 3.348054414423814 L 532.2687579553235 -0.48866311787929817 L 526.384990179105 -4.217881136262406 L 520.4224241659389 -7.83791053523214 M 137.40752057909773 -5.866647892842877 L 134.18527067544534 -3.944279235142801 L 127.79104710774632 -0.0032070651164985975 L 121.46599000778576 4.06534417541593 L 115.21263972038074 8.260169063226954 L 109.0335157555231 12.58001157601882 L 102.93111578102062 17.023565448972192 L 96.9079146211667 21.589474551339947 L 90.96636326184102 26.276333282981966 L 85.10888786242612 31.082686990742673 L 79.3378887749497 36.00703240454283 L 73.65573957083399 41.04781809307144 L 68.06478607564753 46.20344493894288 L 62.56734541225495 51.47226663317434 L 57.165705052736314 56.85259018884676 L 51.862121879477286 62.342676473782234 L 46.65882125579736 67.94074076208395 L 41.55799610650013 73.64495330436714 L 36.56180600872466 79.45343991649415 L 31.67237629346249 85.36428258664134 L 26.89179715811173 91.37552010049683 L 22.222122790439585 97.4851486843857 L 17.6653705043027 103.69112266612655 L 13.22351988749682 109.99135515338932 L 8.898511962079056 116.38371872934462 L 4.692248357515837 122.8660461653713 L 0.6065904970082556 129.43613115057786 L -3.356641202676542 136.09172903791037 L -7.195668117517073 142.83055760657854 M -8.219145099036723 541.9342522128552 L -4.245589111001323 549.1688583273096 L -0.1288794776510258 556.3338223576758 L 4.12977224130168 563.4263117478065 L 8.529098442355803 570.4435148338002 L 13.067775834660779 577.3826419527607 L 17.74442581838349 584.2409265455465 L 22.55761488490998 591.0156262530902 L 27.505855038770846 597.7040240058473 L 32.58760424118026 604.3034291059532 L 37.80126687504975 610.8111783016453 L 43.14519423136102 617.2246368535414 L 48.617685016742655 623.5411995923382 L 54.21698588210478 629.758291967511 L 59.94129197217808 635.873371086603 L 65.78874749577409 641.883926744669 L 71.7574463166136 647.7874824434857 L 77.84543256452184 653.581596400099 L 84.05070126680607 659.2638625443079" stroke-opacity="0.8" stroke-linecap="round" stroke-linejoin="round" stroke-miterlimit="10" stroke-width="2.5"/><text fill="rgb(46,125,50)" stroke="none" font-family="geogebra-sans-serif, sans-serif" font-size="32px" font-style="normal" font-weight="normal" text-decoration="normal" x="374" y="387" text-anchor="start" dominant-baseline="alphabetic" fill-opacity="1">r=2θ+1</text><text fill="none" stroke="rgb(255,255,255)" font-family="geogebra-sans-serif, sans-serif" font-size="32px" font-style="normal" font-weight="normal" text-decoration="normal" x="374" y="387" text-anchor="start" dominant-baseline="alphabetic" stroke-opacity="1" stroke-linejoin="bevel" stroke-miterlimit="10" stroke-width="3">r=2θ+1</text><text fill="rgb(46,125,50)" stroke="none" font-family="geogebra-sans-serif, sans-serif" font-size="32px" font-style="normal" font-weight="normal" text-decoration="normal" x="374" y="387" text-anchor="start" dominant-baseline="alphabetic" fill-opacity="1">r=2θ+1</text></g></g></svg>