<svg width="4096" height="4096" viewBox="0 0 4096 4096" xmlns="http://www.w3.org/2000/svg"><g stroke="rgb(245, 241, 231)" stroke-width="0.5" stroke-linecap="round" stroke-linejoin="round" fill="transparent"><path d="M2123,1993 L2152,1904 L2076,1959 L2048,2048 Z M2123,2102 L2048,2048 L2076,2136 L2152,2191 Z M1926,1959 L1850,1904 L1879,1993 L1954,2048 Z M1926,1959 L1954,1870 L1983,1959 L1954,2048 Z M1926,2136 L1954,2048 L1983,2136 L1954,2225 Z M1926,2136 L1954,2048 L1879,2102 L1850,2191 Z M2030,1816 L2123,1816 L2048,1870 L1954,1870 Z M2030,1816 L2123,1816 L2048,1761 L1954,1761 Z M1879,1816 L1804,1761 L1775,1672 L1850,1727 Z M1879,1816 L1786,1816 L1711,1761 L1804,1761 Z M2123,1816 L2152,1727 L2227,1672 L2198,1761 Z M2123,1816 L2216,1816 L2291,1761 L2198,1761 Z M2367,1816 L2291,1761 L2320,1850 L2395,1904 Z M2367,1816 L2395,1727 L2424,1816 L2395,1904 Z M2291,1584 L2320,1495 L2395,1441 L2367,1529 Z M2395,1618 L2424,1529 L2395,1441 L2367,1529 Z M2395,1727 L2488,1727 L2564,1672 L2471,1672 Z M2227,1672 L2152,1618 L2123,1529 L2198,1584 Z M2198,1584 L2291,1584 L2216,1529 L2123,1529 Z M1954,1584 L2048,1584 L2123,1529 L2030,1529 Z M1954,1761 L1983,1672 L1954,1584 L1926,1672 Z M1850,1618 L1879,1529 L1804,1584 L1775,1672 Z M1879,1529 L1786,1529 L1711,1584 L1804,1584 Z M1850,1441 L1879,1352 L1954,1297 L1926,1386 Z M1850,1441 L1757,1441 L1682,1386 L1775,1386 Z M1954,1474 L1983,1386 L1954,1297 L1926,1386 Z M1711,1584 L1635,1529 L1607,1441 L1682,1495 Z M1607,1727 L1514,1727 L1438,1672 L1531,1672 Z M1607,1618 L1635,1529 L1607,1441 L1578,1529 Z M1607,1618 L1514,1618 L1438,1672 L1531,1672 Z M1485,1529 L1514,1441 L1438,1495 L1409,1584 Z M1438,1672 L1345,1672 L1270,1727 L1363,1727 Z M1409,1584 L1316,1584 L1241,1529 L1334,1529 Z M1409,1761 L1438,1672 L1363,1727 L1334,1816 Z M1270,1727 L1194,1672 L1166,1584 L1241,1639 Z M1166,1761 L1194,1672 L1166,1584 L1137,1672 Z M1166,1761 L1073,1761 L997,1816 L1090,1816 Z M1212,1904 L1241,1816 L1166,1870 L1137,1959 Z M1438,1959 L1363,1904 L1334,1816 L1409,1870 Z M1607,1904 L1635,1816 L1607,1727 L1578,1816 Z M1607,1904 L1514,1904 L1438,1959 L1531,1959 Z M1682,1850 L1711,1761 L1635,1816 L1607,1904 Z M1578,1993 L1607,1904 L1531,1959 L1503,2048 Z M1653,2048 L1682,1959 L1711,2048 L1682,2136 Z M1578,2102 L1503,2048 L1531,2136 L1607,2191 Z M1607,2191 L1578,2279 L1607,2368 L1635,2279 Z M1607,2191 L1514,2191 L1438,2136 L1531,2136 Z M1682,2245 L1607,2191 L1635,2279 L1711,2334 Z M1438,2136 L1409,2225 L1334,2279 L1363,2191 Z M1409,2334 L1334,2279 L1363,2368 L1438,2423 Z M1212,2191 L1137,2136 L1166,2225 L1241,2279 Z M1270,2368 L1241,2456 L1166,2511 L1194,2423 Z M1166,2334 L1137,2423 L1166,2511 L1194,2423 Z M1166,2334 L1073,2334 L997,2279 L1090,2279 Z M1241,2102 L1212,2191 L1241,2279 L1270,2191 Z M1409,2048 L1316,2048 L1241,2102 L1334,2102 Z M1409,2048 L1316,2048 L1241,1993 L1334,1993 Z M1241,1993 L1270,1904 L1241,1816 L1212,1904 Z M1137,1959 L1044,1959 L969,1904 L1062,1904 Z M1137,2136 L1044,2136 L969,2191 L1062,2191 Z M1073,2048 L997,1993 L969,1904 L1044,1959 Z M1073,2048 L1044,2136 L969,2191 L997,2102 Z M997,2279 L969,2368 L893,2423 L922,2334 Z M893,2245 L864,2334 L893,2423 L922,2334 Z M893,2245 L800,2245 L725,2191 L818,2191 Z M893,2136 L800,2136 L725,2191 L818,2191 Z M922,2048 L893,2136 L864,2048 L893,1959 Z M725,2191 L650,2136 L621,2048 L696,2102 Z M725,2191 L632,2191 L556,2136 L650,2136 Z M696,2279 L603,2279 L528,2334 L621,2334 Z M556,2136 L528,2225 L452,2279 L481,2191 Z M528,2334 L499,2423 L528,2511 L556,2423 Z M424,2368 L331,2368 L255,2423 L348,2423 Z M481,2191 L452,2279 L424,2191 L452,2102 Z M359,2279 L284,2225 L255,2136 L331,2191 Z M359,2279 L331,2368 L255,2423 L284,2334 Z M255,2423 L162,2423 L87,2477 L180,2477 Z M255,2423 L162,2423 L87,2368 L180,2368 Z M284,2511 L255,2600 L180,2654 L209,2566 Z M452,2566 L424,2654 L452,2743 L481,2654 Z M452,2566 L359,2566 L284,2511 L377,2511 Z M255,2709 L180,2654 L209,2743 L284,2798 Z M331,2941 L255,2886 L284,2975 L359,3029 Z M424,2941 L331,2941 L255,2886 L348,2886 Z M452,2743 L359,2743 L284,2798 L377,2798 Z M528,2798 L499,2886 L528,2975 L556,2886 Z M528,2798 L499,2886 L424,2941 L452,2852 Z M696,2743 L603,2743 L528,2798 L621,2798 Z M771,2798 L696,2743 L725,2831 L800,2886 Z M696,2566 L603,2566 L528,2511 L621,2511 Z M632,2654 L603,2743 L528,2798 L556,2709 Z M893,2600 L800,2600 L725,2654 L818,2654 Z M893,2709 L864,2798 L893,2886 L922,2798 Z M893,2709 L800,2709 L725,2654 L818,2654 Z M969,2941 L940,3029 L969,3118 L997,3029 Z M864,2975 L771,2975 L696,3029 L789,3029 Z M800,2886 L771,2975 L696,3029 L725,2941 Z M696,3029 L603,3029 L528,3084 L621,3084 Z M696,3029 L603,3029 L528,2975 L621,2975 Z M725,3118 L696,3206 L621,3261 L650,3173 Z M893,3173 L864,3261 L893,3350 L922,3261 Z M893,3173 L800,3173 L725,3118 L818,3118 Z M696,3316 L621,3261 L650,3350 L725,3404 Z M499,3173 L424,3118 L452,3206 L528,3261 Z M528,3084 L499,3173 L528,3261 L556,3173 Z M725,3404 L632,3404 L556,3350 L650,3350 Z M893,3350 L800,3350 L725,3404 L818,3404 Z M893,3459 L864,3548 L893,3636 L922,3548 Z M893,3459 L800,3459 L725,3404 L818,3404 Z M771,3548 L696,3493 L725,3581 L800,3636 Z M969,3691 L893,3636 L922,3725 L997,3779 Z M1166,3725 L1073,3725 L997,3779 L1090,3779 Z M1166,3548 L1137,3636 L1166,3725 L1194,3636 Z M1166,3548 L1073,3548 L997,3493 L1090,3493 Z M1241,3493 L1316,3548 L1345,3636 L1270,3581 Z M997,3493 L969,3581 L893,3636 L922,3548 Z M1137,3350 L1044,3350 L969,3404 L1062,3404 Z M1212,3404 L1137,3350 L1166,3438 L1241,3493 Z M1073,3261 L1044,3350 L969,3404 L997,3316 Z M1044,3173 L969,3118 L997,3206 L1073,3261 Z M1137,3173 L1044,3173 L969,3118 L1062,3118 Z M1241,3029 L1212,3118 L1241,3206 L1270,3118 Z M1241,3029 L1212,3118 L1137,3173 L1166,3084 Z M1137,2886 L1044,2886 L969,2941 L1062,2941 Z M1212,2941 L1137,2886 L1166,2975 L1241,3029 Z M1166,2798 L1073,2798 L997,2743 L1090,2743 Z M997,2743 L969,2831 L893,2886 L922,2798 Z M1137,2709 L1062,2654 L1090,2743 L1166,2798 Z M1166,2511 L1137,2600 L1062,2654 L1090,2566 Z M1166,2511 L1073,2511 L997,2566 L1090,2566 Z M969,2477 L893,2423 L922,2511 L997,2566 Z M893,2423 L864,2511 L893,2600 L922,2511 Z M800,2423 L771,2511 L696,2566 L725,2477 Z M771,2334 L696,2279 L725,2368 L800,2423 Z M1241,2566 L1212,2654 L1241,2743 L1270,2654 Z M1409,2511 L1316,2511 L1241,2566 L1334,2566 Z M1485,2566 L1409,2511 L1438,2600 L1514,2654 Z M1438,2423 L1345,2423 L1270,2368 L1363,2368 Z M1607,2368 L1514,2368 L1438,2423 L1531,2423 Z M1607,2477 L1578,2566 L1607,2654 L1635,2566 Z M1607,2477 L1514,2477 L1438,2423 L1531,2423 Z M1682,2709 L1653,2798 L1682,2886 L1711,2798 Z M1578,2743 L1485,2743 L1409,2798 L1503,2798 Z M1514,2654 L1485,2743 L1409,2798 L1438,2709 Z M1409,2798 L1316,2798 L1241,2852 L1334,2852 Z M1409,2798 L1316,2798 L1241,2743 L1334,2743 Z M1438,2886 L1409,2975 L1334,3029 L1363,2941 Z M1607,2941 L1578,3029 L1607,3118 L1635,3029 Z M1607,2941 L1514,2941 L1438,2886 L1531,2886 Z M1682,2886 L1757,2941 L1786,3029 L1711,2975 Z M1409,3084 L1334,3029 L1363,3118 L1438,3173 Z M1241,2852 L1212,2941 L1241,3029 L1270,2941 Z M1241,3316 L1212,3404 L1241,3493 L1270,3404 Z M1409,3261 L1485,3316 L1514,3404 L1438,3350 Z M1409,3261 L1316,3261 L1241,3316 L1334,3316 Z M1409,3261 L1316,3261 L1241,3206 L1334,3206 Z M1503,3261 L1409,3261 L1485,3316 L1578,3316 Z M1607,3118 L1514,3118 L1438,3173 L1531,3173 Z M1682,3173 L1653,3261 L1682,3350 L1711,3261 Z M1682,3173 L1653,3261 L1578,3316 L1607,3227 Z M1850,3118 L1926,3173 L1954,3261 L1879,3206 Z M1850,3118 L1757,3118 L1682,3173 L1775,3173 Z M1954,2975 L2048,2975 L2123,3029 L2030,3029 Z M1954,3084 L1926,3173 L1954,3261 L1983,3173 Z M1786,3029 L1757,3118 L1682,3173 L1711,3084 Z M2030,3029 L2123,3029 L2048,3084 L1954,3084 Z M2152,3118 L2123,3206 L2048,3261 L2076,3173 Z M2152,3118 L2245,3118 L2320,3173 L2227,3173 Z M2216,3029 L2291,3084 L2320,3173 L2245,3118 Z M2320,2886 L2291,2975 L2216,3029 L2245,2941 Z M2395,2941 L2367,3029 L2395,3118 L2424,3029 Z M2227,2886 L2320,2886 L2245,2941 L2152,2941 Z M2152,2654 L2123,2743 L2048,2798 L2076,2709 Z M2152,2654 L2245,2654 L2320,2709 L2227,2709 Z M2320,2709 L2291,2798 L2320,2886 L2349,2798 Z M2291,2511 L2367,2566 L2395,2654 L2320,2600 Z M2198,2511 L2291,2511 L2216,2566 L2123,2566 Z M2227,2423 L2198,2511 L2123,2566 L2152,2477 Z M2123,2279 L2198,2334 L2227,2423 L2152,2368 Z M2123,2279 L2216,2279 L2291,2334 L2198,2334 Z M1954,2334 L1926,2423 L1954,2511 L1983,2423 Z M1954,2511 L2048,2511 L2123,2566 L2030,2566 Z M1879,2566 L1786,2566 L1711,2511 L1804,2511 Z M2030,2566 L2123,2566 L2048,2621 L1954,2621 Z M1954,2621 L1926,2709 L1954,2798 L1983,2709 Z M2048,2798 L2123,2852 L2152,2941 L2076,2886 Z M1954,2798 L1926,2886 L1954,2975 L1983,2886 Z M1954,2798 L1926,2886 L1850,2941 L1879,2852 Z M1850,2654 L1926,2709 L1954,2798 L1879,2743 Z M1850,2654 L1757,2654 L1682,2709 L1775,2709 Z M1775,2886 L1682,2886 L1757,2941 L1850,2941 Z M1711,2511 L1682,2600 L1607,2654 L1635,2566 Z M1850,2477 L1775,2423 L1804,2511 L1879,2566 Z M1879,2279 L1850,2368 L1775,2423 L1804,2334 Z M1879,2279 L1786,2279 L1711,2334 L1804,2334 Z M1850,2191 L1757,2191 L1682,2136 L1775,2136 Z M1850,1904 L1757,1904 L1682,1959 L1775,1959 Z M2030,2279 L2123,2279 L2048,2334 L1954,2334 Z M2030,2279 L2123,2279 L2048,2225 L1954,2225 Z M2395,2191 L2424,2102 L2499,2048 L2471,2136 Z M2395,2191 L2488,2191 L2564,2136 L2471,2136 Z M2367,2279 L2395,2191 L2424,2279 L2395,2368 Z M2367,2279 L2395,2191 L2320,2245 L2291,2334 Z M2564,2136 L2639,2191 L2668,2279 L2592,2225 Z M2592,2048 L2686,2048 L2761,1993 L2668,1993 Z M2592,2048 L2686,2048 L2761,2102 L2668,2102 Z M2564,1959 L2592,1870 L2668,1816 L2639,1904 Z M2732,2191 L2761,2102 L2790,2191 L2761,2279 Z M2761,2279 L2790,2191 L2865,2136 L2836,2225 Z M2836,2334 L2929,2334 L3005,2279 L2911,2279 Z M2732,2368 L2807,2423 L2836,2511 L2761,2456 Z M2564,2423 L2592,2334 L2668,2279 L2639,2368 Z M2564,2423 L2657,2423 L2732,2368 L2639,2368 Z M2592,2511 L2564,2600 L2488,2654 L2517,2566 Z M2592,2511 L2686,2511 L2761,2566 L2668,2566 Z M2471,2423 L2564,2423 L2488,2477 L2395,2477 Z M2761,2566 L2732,2654 L2761,2743 L2790,2654 Z M2836,2511 L2911,2566 L2940,2654 L2865,2600 Z M2836,2511 L2929,2511 L3005,2566 L2911,2566 Z M2668,2743 L2761,2743 L2686,2798 L2592,2798 Z M2488,2654 L2564,2709 L2592,2798 L2517,2743 Z M2395,2477 L2367,2566 L2395,2654 L2424,2566 Z M2592,2798 L2686,2798 L2761,2852 L2668,2852 Z M2424,2743 L2395,2831 L2320,2886 L2349,2798 Z M2424,2743 L2517,2743 L2592,2798 L2499,2798 Z M2471,2886 L2564,2886 L2488,2941 L2395,2941 Z M2564,2886 L2639,2941 L2668,3029 L2592,2975 Z M2668,3029 L2639,3118 L2564,3173 L2592,3084 Z M2761,3029 L2836,3084 L2865,3173 L2790,3118 Z M2761,3029 L2732,3118 L2761,3206 L2790,3118 Z M2761,2852 L2732,2941 L2761,3029 L2790,2941 Z M2836,2798 L2929,2798 L3005,2743 L2911,2743 Z M2865,2886 L2836,2975 L2761,3029 L2790,2941 Z M2865,2886 L2958,2886 L3033,2941 L2940,2941 Z M2865,2709 L2836,2798 L2911,2743 L2940,2654 Z M3005,2743 L3080,2798 L3109,2886 L3033,2831 Z M3005,2566 L3033,2477 L3109,2423 L3080,2511 Z M3109,2600 L3202,2600 L3277,2654 L3184,2654 Z M3109,2709 L3080,2798 L3109,2886 L3137,2798 Z M3109,2709 L3202,2709 L3277,2654 L3184,2654 Z M3231,2798 L3202,2886 L3277,2831 L3306,2743 Z M3306,2743 L3399,2743 L3474,2798 L3381,2798 Z M3306,2566 L3399,2566 L3474,2511 L3381,2511 Z M3370,2654 L3445,2709 L3474,2798 L3399,2743 Z M3370,2654 L3399,2566 L3474,2511 L3445,2600 Z M3474,2511 L3503,2423 L3578,2368 L3550,2456 Z M3445,2423 L3474,2334 L3503,2423 L3474,2511 Z M3550,2566 L3643,2566 L3718,2511 L3625,2511 Z M3306,2279 L3399,2279 L3474,2334 L3381,2334 Z M3445,2136 L3521,2191 L3550,2279 L3474,2225 Z M3521,2191 L3550,2102 L3578,2191 L3550,2279 Z M3277,2191 L3306,2102 L3381,2047 L3352,2136 Z M3277,2191 L3370,2191 L3445,2136 L3352,2136 Z M3277,1904 L3352,1959 L3381,2047 L3306,1993 Z M3277,1904 L3370,1904 L3445,1959 L3352,1959 Z M3109,1959 L3202,1959 L3277,1904 L3184,1904 Z M3109,2136 L3202,2136 L3277,2191 L3184,2191 Z M3080,2048 L3109,1959 L3137,2048 L3109,2136 Z M3109,2245 L3202,2245 L3277,2191 L3184,2191 Z M3080,2334 L3109,2245 L3137,2334 L3109,2423 Z M3202,2423 L3277,2477 L3306,2566 L3231,2511 Z M3202,2423 L3231,2334 L3306,2279 L3277,2368 Z M3080,2511 L3109,2423 L3137,2511 L3109,2600 Z M3005,2279 L3080,2334 L3109,2423 L3033,2368 Z M2865,2136 L2958,2136 L3033,2191 L2940,2191 Z M2929,2048 L3005,2102 L3033,2191 L2958,2136 Z M2929,2048 L2958,1959 L3033,1904 L3005,1993 Z M2865,1959 L2958,1959 L3033,1904 L2940,1904 Z M2761,1816 L2836,1870 L2865,1959 L2790,1904 Z M2732,1727 L2761,1639 L2836,1584 L2807,1672 Z M2836,1761 L2929,1761 L3005,1816 L2911,1816 Z M2732,1904 L2761,1816 L2790,1904 L2761,1993 Z M2564,1672 L2639,1727 L2668,1816 L2592,1761 Z M2564,1672 L2657,1672 L2732,1727 L2639,1727 Z M2395,1904 L2471,1959 L2499,2048 L2424,1993 Z M2395,1904 L2488,1904 L2564,1959 L2471,1959 Z M2291,2048 L2320,1959 L2349,2048 L2320,2136 Z M2227,1959 L2320,1959 L2245,1904 L2152,1904 Z M2227,2136 L2320,2136 L2245,2191 L2152,2191 Z M2592,1584 L2517,1529 L2488,1441 L2564,1495 Z M2592,1584 L2686,1584 L2761,1529 L2668,1529 Z M2471,1672 L2564,1672 L2488,1618 L2395,1618 Z M2761,1529 L2790,1441 L2761,1352 L2732,1441 Z M2836,1584 L2865,1495 L2940,1441 L2911,1529 Z M2836,1584 L2929,1584 L3005,1529 L2911,1529 Z M2807,1672 L2836,1584 L2865,1672 L2836,1761 Z M3005,1529 L3080,1584 L3109,1672 L3033,1618 Z M3080,1584 L3109,1495 L3137,1584 L3109,1672 Z M3005,1352 L3033,1264 L3109,1209 L3080,1297 Z M3109,1386 L3137,1297 L3109,1209 L3080,1297 Z M3109,1386 L3202,1386 L3277,1441 L3184,1441 Z M3109,1495 L3202,1495 L3277,1441 L3184,1441 Z M2865,1386 L2940,1441 L2911,1352 L2836,1297 Z M2836,1297 L2929,1297 L3005,1352 L2911,1352 Z M2668,1352 L2761,1352 L2686,1297 L2592,1297 Z M2592,1297 L2686,1297 L2761,1243 L2668,1243 Z M2488,1441 L2517,1352 L2592,1297 L2564,1386 Z M2320,1386 L2349,1297 L2320,1209 L2291,1297 Z M2424,1352 L2349,1297 L2320,1209 L2395,1264 Z M2424,1352 L2517,1352 L2592,1297 L2499,1297 Z M2320,1209 L2245,1154 L2216,1066 L2291,1120 Z M2395,1154 L2424,1066 L2395,977 L2367,1066 Z M2227,1209 L2320,1209 L2245,1154 L2152,1154 Z M2048,1297 L2076,1209 L2152,1154 L2123,1243 Z M1954,1297 L1879,1243 L1850,1154 L1926,1209 Z M1954,1297 L1983,1209 L1954,1120 L1926,1209 Z M1954,1120 L2047,1120 L2123,1066 L2030,1066 Z M2030,1066 L2123,1066 L2047,1011 L1954,1011 Z M2152,977 L2076,922 L2047,834 L2123,889 Z M2152,977 L2245,977 L2320,922 L2227,922 Z M2216,1066 L2245,977 L2320,922 L2291,1011 Z M2320,922 L2349,834 L2320,745 L2291,834 Z M2320,922 L2349,834 L2424,779 L2395,868 Z M2395,977 L2488,977 L2564,922 L2471,922 Z M2227,745 L2320,745 L2245,691 L2152,691 Z M2395,691 L2320,636 L2291,547 L2367,602 Z M2395,691 L2424,602 L2395,514 L2367,602 Z M2123,602 L2152,514 L2227,459 L2198,547 Z M2123,602 L2216,602 L2291,547 L2198,547 Z M2227,459 L2152,404 L2123,316 L2198,370 Z M2198,370 L2291,370 L2216,316 L2123,316 Z M1954,370 L2047,370 L2123,316 L2030,316 Z M1954,547 L1983,459 L1954,370 L1926,459 Z M1879,602 L1804,547 L1775,459 L1850,514 Z M1879,602 L1786,602 L1711,547 L1804,547 Z M2030,602 L2123,602 L2047,547 L1954,547 Z M1954,657 L2047,657 L2123,602 L2030,602 Z M2047,834 L2076,745 L2152,691 L2123,779 Z M1954,834 L1879,779 L1850,691 L1926,745 Z M1954,834 L1983,745 L1954,657 L1926,745 Z M1954,1011 L1983,922 L1954,834 L1926,922 Z M1850,977 L1879,889 L1954,834 L1926,922 Z M1850,977 L1757,977 L1682,922 L1775,922 Z M1786,1066 L1711,1011 L1682,922 L1757,977 Z M1682,922 L1607,868 L1578,779 L1653,834 Z M1682,922 L1711,834 L1682,745 L1653,834 Z M1607,977 L1514,977 L1438,922 L1531,922 Z M1775,745 L1682,745 L1757,691 L1850,691 Z M1775,459 L1804,370 L1879,316 L1850,404 Z M1804,370 L1711,370 L1786,316 L1879,316 Z M1711,370 L1635,316 L1607,227 L1682,282 Z M1607,404 L1635,316 L1607,227 L1578,316 Z M1531,459 L1438,459 L1514,404 L1607,404 Z M1409,370 L1438,282 L1514,227 L1485,316 Z M1409,370 L1316,370 L1241,316 L1334,316 Z M1345,459 L1270,404 L1241,316 L1316,370 Z M1241,602 L1270,514 L1345,459 L1316,547 Z M1166,547 L1194,459 L1166,370 L1137,459 Z M1166,547 L1073,547 L997,602 L1090,602 Z M1212,691 L1241,602 L1166,657 L1137,745 Z M1334,602 L1241,602 L1316,547 L1409,547 Z M1409,834 L1438,745 L1514,691 L1485,779 Z M1409,834 L1316,834 L1241,889 L1334,889 Z M1409,834 L1316,834 L1241,779 L1334,779 Z M1241,779 L1270,691 L1241,602 L1212,691 Z M1409,1011 L1438,922 L1363,977 L1334,1066 Z M1241,1066 L1166,1011 L1137,922 L1212,977 Z M1241,1066 L1270,977 L1241,889 L1212,977 Z M1212,1154 L1241,1066 L1166,1120 L1137,1209 Z M1241,1243 L1270,1154 L1241,1066 L1212,1154 Z M1137,1209 L1044,1209 L969,1154 L1062,1154 Z M1166,1297 L1073,1297 L997,1352 L1090,1352 Z M969,1154 L997,1066 L969,977 L940,1066 Z M940,1066 L969,977 L893,1032 L864,1120 Z M1137,922 L1044,922 L969,977 L1062,977 Z M1044,922 L1073,834 L997,889 L969,977 Z M1073,834 L997,779 L969,691 L1044,745 Z M893,745 L800,745 L725,691 L818,691 Z M893,922 L922,834 L893,745 L864,834 Z M893,922 L800,922 L725,977 L818,977 Z M725,977 L650,922 L621,834 L696,889 Z M696,1066 L603,1066 L528,1120 L621,1120 Z M696,1066 L603,1066 L528,1011 L621,1011 Z M864,1120 L771,1120 L696,1066 L789,1066 Z M528,1011 L556,922 L528,834 L499,922 Z M499,922 L528,834 L452,889 L424,977 Z M696,779 L725,691 L650,745 L621,834 Z M725,691 L632,691 L556,745 L650,745 Z M893,636 L922,547 L893,459 L864,547 Z M893,636 L800,636 L725,691 L818,691 Z M997,602 L922,547 L893,459 L969,514 Z M1137,745 L1044,745 L969,691 L1062,691 Z M969,404 L997,316 L922,370 L893,459 Z M1166,370 L1073,370 L997,316 L1090,316 Z M1850,227 L1879,138 L1954,84 L1926,172 Z M1850,227 L1757,227 L1682,172 L1775,172 Z M2152,227 L2076,172 L2047,84 L2123,138 Z M2152,227 L2245,227 L2320,172 L2227,172 Z M2424,138 L2517,138 L2592,84 L2499,84 Z M2488,227 L2517,138 L2592,84 L2564,172 Z M2592,370 L2517,316 L2488,227 L2564,282 Z M2592,370 L2686,370 L2761,316 L2668,316 Z M2761,316 L2790,227 L2761,138 L2732,227 Z M2761,316 L2790,227 L2865,172 L2836,261 Z M2836,370 L2929,370 L3005,316 L2911,316 Z M3109,459 L3033,404 L3005,316 L3080,370 Z M3306,602 L3231,547 L3202,459 L3277,514 Z M3277,691 L3370,691 L3445,745 L3352,745 Z M3306,779 L3381,834 L3352,745 L3277,691 Z M3277,977 L3306,889 L3381,834 L3352,922 Z M3474,1011 L3503,922 L3474,834 L3445,922 Z M3503,922 L3578,977 L3550,889 L3474,834 Z M3578,977 L3671,977 L3747,922 L3654,922 Z M3643,1066 L3671,977 L3747,922 L3718,1011 Z M3671,1154 L3747,1209 L3718,1120 L3643,1066 Z M3747,1209 L3840,1209 L3915,1264 L3822,1264 Z M3718,1297 L3793,1352 L3822,1441 L3747,1386 Z M3886,1352 L3915,1264 L3944,1352 L3915,1441 Z M3915,1441 L3990,1495 L4019,1584 L3944,1529 Z M3718,1584 L3747,1495 L3822,1441 L3793,1529 Z M3886,1529 L3915,1441 L3944,1529 L3915,1618 Z M3886,1816 L3915,1727 L3944,1816 L3915,1904 Z M3747,1672 L3840,1672 L3915,1618 L3822,1618 Z M3747,1672 L3840,1672 L3915,1727 L3822,1727 Z M3643,1816 L3718,1870 L3747,1959 L3671,1904 Z M3643,1816 L3671,1727 L3747,1672 L3718,1761 Z M3521,1904 L3550,1816 L3578,1904 L3550,1993 Z M3578,1727 L3671,1727 L3747,1672 L3654,1672 Z M3474,1584 L3550,1639 L3578,1727 L3503,1672 Z M3550,1529 L3643,1529 L3718,1584 L3625,1584 Z M3445,1672 L3474,1584 L3503,1672 L3474,1761 Z M3306,1529 L3399,1529 L3474,1584 L3381,1584 Z M3202,1672 L3277,1727 L3306,1816 L3231,1761 Z M3202,1672 L3231,1584 L3306,1529 L3277,1618 Z M3080,1761 L3109,1672 L3137,1761 L3109,1850 Z M3109,1850 L3202,1850 L3277,1904 L3184,1904 Z M3005,1816 L3033,1727 L3109,1672 L3080,1761 Z M3306,1352 L3399,1352 L3474,1297 L3381,1297 Z M3370,1441 L3445,1495 L3474,1584 L3399,1529 Z M3370,1441 L3399,1352 L3474,1297 L3445,1386 Z M3474,1297 L3503,1209 L3474,1120 L3445,1209 Z M3474,1297 L3503,1209 L3578,1154 L3550,1243 Z M3550,1352 L3643,1352 L3718,1297 L3625,1297 Z M3306,1066 L3399,1066 L3474,1011 L3381,1011 Z M3306,1066 L3399,1066 L3474,1120 L3381,1120 Z M3137,1120 L3231,1120 L3306,1066 L3213,1066 Z M3062,1066 L3137,1120 L3109,1032 L3033,977 Z M3033,1154 L3062,1066 L3033,977 L3005,1066 Z M3202,1209 L3231,1120 L3306,1066 L3277,1154 Z M3231,1297 L3306,1352 L3277,1264 L3202,1209 Z M2865,1209 L2790,1154 L2761,1066 L2836,1120 Z M2865,1209 L2958,1209 L3033,1154 L2940,1154 Z M2761,1066 L2790,977 L2761,889 L2732,977 Z M2761,1066 L2790,977 L2865,922 L2836,1011 Z M2761,1243 L2790,1154 L2761,1066 L2732,1154 Z M2564,1209 L2592,1120 L2668,1066 L2639,1154 Z M2668,1066 L2592,1011 L2564,922 L2639,977 Z M2592,834 L2517,779 L2488,691 L2564,745 Z M2592,834 L2686,834 L2761,779 L2668,779 Z M2499,834 L2592,834 L2517,779 L2424,779 Z M2488,691 L2517,602 L2592,547 L2564,636 Z M2395,514 L2488,514 L2564,459 L2471,459 Z M2471,459 L2564,459 L2488,404 L2395,404 Z M2395,404 L2424,316 L2395,227 L2367,316 Z M2657,459 L2686,370 L2761,316 L2732,404 Z M2761,602 L2686,547 L2657,459 L2732,514 Z M2836,547 L2865,459 L2836,370 L2807,459 Z M2911,602 L3005,602 L2929,547 L2836,547 Z M3005,602 L3033,514 L3109,459 L3080,547 Z M3109,636 L3137,547 L3109,459 L3080,547 Z M3109,745 L3202,745 L3277,691 L3184,691 Z M2865,745 L2790,691 L2761,602 L2836,657 Z M2865,745 L2958,745 L3033,691 L2940,691 Z M2761,779 L2790,691 L2761,602 L2732,691 Z M2929,834 L2958,745 L3033,691 L3005,779 Z M3033,977 L2958,922 L2929,834 L3005,889 Z M3109,922 L3137,834 L3109,745 L3080,834 Z M3109,922 L3202,922 L3277,977 L3184,977 Z M2940,977 L3033,977 L2958,922 L2865,922 Z M2668,602 L2761,602 L2686,547 L2592,547 Z M2668,889 L2761,889 L2686,834 L2592,834 Z M3184,691 L3277,691 L3202,636 L3109,636 Z M2291,370 L2320,282 L2395,227 L2367,316 Z M2471,1209 L2564,1209 L2488,1154 L2395,1154 Z M3578,1154 L3671,1154 L3747,1209 L3654,1209 Z M3521,1441 L3550,1352 L3578,1441 L3550,1529 Z M3306,1816 L3399,1816 L3474,1761 L3381,1761 Z M3445,1959 L3474,1870 L3550,1816 L3521,1904 Z M3550,1993 L3643,1993 L3718,2048 L3625,2048 Z M3747,2136 L3840,2136 L3915,2191 L3822,2191 Z M3747,1959 L3840,1959 L3915,1904 L3822,1904 Z M3811,2048 L3886,2102 L3915,2191 L3840,2136 Z M3811,2048 L3840,1959 L3915,1904 L3886,1993 Z M3915,1904 L3944,1816 L4019,1761 L3990,1850 Z M3962,2047 L3990,1959 L4019,2047 L3990,2136 Z M3915,2191 L3990,2245 L4019,2334 L3944,2279 Z M3886,2279 L3915,2191 L3944,2279 L3915,2368 Z M3747,2423 L3840,2423 L3915,2368 L3822,2368 Z M3747,2423 L3840,2423 L3915,2477 L3822,2477 Z M3718,2511 L3793,2566 L3822,2654 L3747,2600 Z M3578,2368 L3671,2368 L3747,2423 L3654,2423 Z M3886,2566 L3915,2477 L3944,2566 L3915,2654 Z M3915,2654 L3944,2566 L4019,2511 L3990,2600 Z M3886,2743 L3915,2654 L3944,2743 L3915,2831 Z M3718,2798 L3747,2709 L3822,2654 L3793,2743 Z M3747,2886 L3840,2886 L3915,2831 L3822,2831 Z M3550,2743 L3643,2743 L3718,2798 L3625,2798 Z M3521,2654 L3550,2566 L3578,2654 L3550,2743 Z M3474,2798 L3550,2852 L3578,2941 L3503,2886 Z M3474,2798 L3445,2886 L3474,2975 L3503,2886 Z M3202,2886 L3277,2941 L3306,3029 L3231,2975 Z M3137,2975 L3231,2975 L3306,3029 L3213,3029 Z M3033,2941 L3005,3029 L3033,3118 L3062,3029 Z M3062,3029 L3033,3118 L3109,3063 L3137,2975 Z M2940,3118 L3033,3118 L2958,3173 L2865,3173 Z M3033,3118 L3005,3206 L2929,3261 L2958,3173 Z M2929,3261 L3005,3316 L3033,3404 L2958,3350 Z M3109,3350 L3202,3350 L3277,3404 L3184,3404 Z M3109,3173 L3080,3261 L3109,3350 L3137,3261 Z M3109,3173 L3202,3173 L3277,3118 L3184,3118 Z M3277,3118 L3352,3173 L3381,3261 L3306,3206 Z M3306,3029 L3399,3029 L3474,2975 L3381,2975 Z M3306,3029 L3399,3029 L3474,3084 L3381,3084 Z M3474,3084 L3445,3173 L3474,3261 L3503,3173 Z M3503,3173 L3474,3261 L3550,3206 L3578,3118 Z M3306,3316 L3277,3404 L3352,3350 L3381,3261 Z M3277,3404 L3370,3404 L3445,3350 L3352,3350 Z M3306,3493 L3277,3581 L3202,3636 L3231,3548 Z M3184,3404 L3277,3404 L3202,3459 L3109,3459 Z M3109,3459 L3080,3548 L3109,3636 L3137,3548 Z M3109,3636 L3080,3725 L3005,3779 L3033,3691 Z M3005,3493 L3080,3548 L3109,3636 L3033,3581 Z M2911,3493 L3005,3493 L2929,3548 L2836,3548 Z M2836,3548 L2807,3636 L2836,3725 L2865,3636 Z M2865,3350 L2836,3438 L2761,3493 L2790,3404 Z M2865,3350 L2958,3350 L3033,3404 L2940,3404 Z M2761,3316 L2732,3404 L2761,3493 L2790,3404 Z M2761,3493 L2732,3581 L2657,3636 L2686,3548 Z M2668,3493 L2761,3493 L2686,3548 L2592,3548 Z M2592,3725 L2564,3813 L2488,3868 L2517,3779 Z M2592,3725 L2686,3725 L2761,3779 L2668,3779 Z M2471,3636 L2564,3636 L2488,3691 L2395,3691 Z M2657,3636 L2732,3691 L2761,3779 L2686,3725 Z M2761,3779 L2836,3834 L2865,3923 L2790,3868 Z M2761,3779 L2732,3868 L2761,3957 L2790,3868 Z M2836,3725 L2929,3725 L3005,3779 L2911,3779 Z M2424,3957 L2517,3957 L2592,4011 L2499,4011 Z M2152,3868 L2123,3957 L2048,4011 L2076,3923 Z M2152,3868 L2245,3868 L2320,3923 L2227,3923 Z M1954,3834 L1926,3923 L1954,4011 L1983,3923 Z M2030,3779 L2123,3779 L2048,3834 L1954,3834 Z M2198,3725 L2291,3725 L2216,3779 L2123,3779 Z M2291,3725 L2367,3779 L2395,3868 L2320,3813 Z M2395,3581 L2488,3581 L2564,3636 L2471,3636 Z M2395,3691 L2367,3779 L2395,3868 L2424,3779 Z M2227,3636 L2198,3725 L2123,3779 L2152,3691 Z M2123,3493 L2198,3548 L2227,3636 L2152,3581 Z M2123,3493 L2216,3493 L2291,3548 L2198,3548 Z M1954,3548 L1926,3636 L1954,3725 L1983,3636 Z M1954,3725 L2048,3725 L2123,3779 L2030,3779 Z M1775,3636 L1850,3691 L1879,3779 L1804,3725 Z M1879,3493 L1850,3581 L1775,3636 L1804,3548 Z M1879,3493 L1786,3493 L1711,3548 L1804,3548 Z M1954,3438 L2048,3438 L2123,3493 L2030,3493 Z M1711,3725 L1682,3813 L1607,3868 L1635,3779 Z M1607,3691 L1578,3779 L1607,3868 L1635,3779 Z M1607,3581 L1514,3581 L1438,3636 L1531,3636 Z M1531,3636 L1438,3636 L1514,3691 L1607,3691 Z M1409,3725 L1485,3779 L1514,3868 L1438,3813 Z M1409,3725 L1316,3725 L1241,3779 L1334,3779 Z M1345,3636 L1316,3725 L1241,3779 L1270,3691 Z M1850,3868 L1926,3923 L1954,4011 L1879,3957 Z M1850,3868 L1757,3868 L1682,3923 L1775,3923 Z M1334,3493 L1241,3493 L1316,3548 L1409,3548 Z M1514,3404 L1485,3493 L1409,3548 L1438,3459 Z M1607,3404 L1682,3459 L1711,3548 L1635,3493 Z M1607,3404 L1578,3493 L1607,3581 L1635,3493 Z M1775,3350 L1682,3350 L1757,3404 L1850,3404 Z M1804,3725 L1711,3725 L1786,3779 L1879,3779 Z M2030,3493 L2123,3493 L2048,3548 L1954,3548 Z M2048,3261 L2123,3316 L2152,3404 L2076,3350 Z M2227,3350 L2320,3350 L2245,3404 L2152,3404 Z M2395,3404 L2367,3493 L2395,3581 L2424,3493 Z M2395,3404 L2367,3493 L2291,3548 L2320,3459 Z M2488,3404 L2564,3459 L2592,3548 L2517,3493 Z M2592,3261 L2564,3350 L2488,3404 L2517,3316 Z M2592,3261 L2686,3261 L2761,3316 L2668,3316 Z M2668,3206 L2761,3206 L2686,3261 L2592,3261 Z M2499,3261 L2592,3261 L2517,3316 L2424,3316 Z M2395,3118 L2488,3118 L2564,3173 L2471,3173 Z M2320,3173 L2395,3227 L2424,3316 L2349,3261 Z M2320,3173 L2291,3261 L2320,3350 L2349,3261 Z M1954,3261 L1926,3350 L1954,3438 L1983,3350 Z M1954,3261 L1926,3350 L1850,3404 L1879,3316 Z M2488,3868 L2564,3923 L2592,4011 L2517,3957 Z M3578,3118 L3671,3118 L3747,3173 L3654,3173 Z M3643,3029 L3718,3084 L3747,3173 L3671,3118 Z M3671,2941 L3643,3029 L3718,2975 L3747,2886 Z M3578,2941 L3671,2941 L3747,2886 L3654,2886 Z M3643,2279 L3718,2334 L3747,2423 L3671,2368 Z M3643,2279 L3671,2191 L3747,2136 L3718,2225 Z M3550,2102 L3643,2102 L3718,2048 L3625,2048 Z M1954,261 L1983,172 L1954,84 L1926,172 Z M2030,316 L2123,316 L2047,261 L1954,261 Z M771,547 L800,459 L725,514 L696,602 Z M331,1154 L359,1066 L284,1120 L255,1209 Z M424,1154 L331,1154 L255,1209 L348,1209 Z M528,1297 L452,1243 L424,1154 L499,1209 Z M528,1297 L556,1209 L528,1120 L499,1209 Z M452,1352 L359,1352 L284,1297 L377,1297 Z M696,1352 L603,1352 L528,1297 L621,1297 Z M800,1209 L725,1154 L696,1066 L771,1120 Z M771,1297 L800,1209 L725,1264 L696,1352 Z M893,1386 L922,1297 L893,1209 L864,1297 Z M893,1386 L800,1386 L725,1441 L818,1441 Z M997,1352 L922,1297 L893,1209 L969,1264 Z M1137,1386 L1166,1297 L1090,1352 L1062,1441 Z M1166,1584 L1090,1529 L1062,1441 L1137,1495 Z M1166,1584 L1073,1584 L997,1529 L1090,1529 Z M1241,1529 L1270,1441 L1241,1352 L1212,1441 Z M1409,1297 L1316,1297 L1241,1352 L1334,1352 Z M1409,1297 L1316,1297 L1241,1243 L1334,1243 Z M1438,1209 L1363,1154 L1334,1066 L1409,1120 Z M1578,1352 L1485,1352 L1409,1297 L1503,1297 Z M1607,1154 L1635,1066 L1607,977 L1578,1066 Z M1607,1154 L1514,1154 L1438,1209 L1531,1209 Z M1682,1209 L1711,1120 L1786,1066 L1757,1154 Z M1653,1297 L1682,1209 L1607,1264 L1578,1352 Z M1775,1209 L1682,1209 L1757,1154 L1850,1154 Z M1682,1386 L1711,1297 L1682,1209 L1653,1297 Z M1514,1441 L1438,1386 L1409,1297 L1485,1352 Z M969,1618 L997,1529 L922,1584 L893,1672 Z M893,1672 L922,1584 L893,1495 L864,1584 Z M800,1672 L725,1618 L696,1529 L771,1584 Z M771,1761 L800,1672 L725,1727 L696,1816 Z M696,1816 L603,1816 L528,1761 L621,1761 Z M725,1904 L696,1993 L621,2048 L650,1959 Z M725,1904 L632,1904 L556,1959 L650,1959 Z M528,1761 L556,1672 L528,1584 L499,1672 Z M499,1672 L528,1584 L452,1639 L424,1727 Z M696,1529 L603,1529 L528,1584 L621,1584 Z M603,1529 L632,1441 L556,1495 L528,1584 Z M632,1441 L556,1386 L528,1297 L603,1352 Z M452,1529 L481,1441 L452,1352 L424,1441 Z M452,1529 L359,1529 L284,1584 L377,1584 Z M284,1584 L209,1529 L180,1441 L255,1495 Z M255,1672 L162,1672 L87,1727 L180,1727 Z M255,1672 L162,1672 L87,1618 L180,1618 Z M424,1727 L331,1727 L255,1672 L348,1672 Z M116,1816 L87,1904 L58,1816 L87,1727 Z M255,1959 L162,1959 L87,1904 L180,1904 Z M359,1816 L284,1761 L255,1672 L331,1727 Z M359,1816 L331,1904 L255,1959 L284,1870 Z M452,1993 L359,1993 L284,2048 L377,2048 Z M481,1904 L452,1993 L424,1904 L452,1816 Z M556,1959 L481,1904 L452,1816 L528,1870 Z M452,2102 L359,2102 L284,2048 L377,2048 Z M255,2136 L162,2136 L87,2191 L180,2191 Z M191,2048 L116,1993 L87,1904 L162,1959 Z M191,2048 L162,2136 L87,2191 L116,2102 Z M116,2279 L87,2368 L58,2279 L87,2191 Z M255,1386 L284,1297 L209,1352 L180,1441 Z M893,1495 L800,1495 L725,1441 L818,1441 Z M893,1850 L922,1761 L893,1672 L864,1761 Z M893,1850 L800,1850 L725,1904 L818,1904 Z M893,1959 L800,1959 L725,1904 L818,1904 Z M997,1816 L922,1761 L893,1672 L969,1727 Z M1503,834 L1409,834 L1485,779 L1578,779 Z M1607,691 L1635,602 L1607,514 L1578,602 Z M1607,691 L1635,602 L1711,547 L1682,636 Z M1514,691 L1438,636 L1409,547 L1485,602 Z M1607,514 L1514,514 L1438,459 L1531,459 Z M2152,1441 L2076,1386 L2048,1297 L2123,1352 Z M2152,1441 L2245,1441 L2320,1386 L2227,1386 Z M2807,2423 L2836,2334 L2865,2423 L2836,2511 Z M2395,2368 L2488,2368 L2564,2423 L2471,2423 Z M1653,2798 L1578,2743 L1607,2831 L1682,2886 Z M940,3029 L864,2975 L893,3063 L969,3118 Z M603,2566 L528,2511 L556,2600 L632,2654 Z M499,2423 L424,2368 L452,2456 L528,2511 Z M2030,1529 L2123,1529 L2048,1474 L1954,1474 Z " fill="rgb(199, 200, 202)"/><path d="M1954,2048 L1879,1993 L1804,2048 L1879,2102 Z M1954,2048 L2048,2048 L2076,2136 L1983,2136 Z M1954,2048 L2048,2048 L2076,1959 L1983,1959 Z M1926,1959 L1954,1870 L1879,1816 L1850,1904 Z M1926,2136 L1850,2191 L1879,2279 L1954,2225 Z M1954,1870 L2048,1870 L2076,1959 L1983,1959 Z M2030,1816 L1954,1761 L1879,1816 L1954,1870 Z M2123,1816 L2048,1870 L2076,1959 L2152,1904 Z M2123,1816 L2152,1727 L2076,1672 L2048,1761 Z M2123,1816 L2216,1816 L2245,1904 L2152,1904 Z M2198,1761 L2291,1761 L2320,1672 L2227,1672 Z M2152,1727 L2076,1672 L2152,1618 L2227,1672 Z M2216,1816 L2291,1761 L2320,1850 L2245,1904 Z M2367,1816 L2395,1727 L2320,1672 L2291,1761 Z M2320,1672 L2395,1618 L2367,1529 L2291,1584 Z M2291,1584 L2320,1495 L2245,1441 L2216,1529 Z M2395,1618 L2488,1618 L2517,1529 L2424,1529 Z M2395,1727 L2320,1672 L2395,1618 L2471,1672 Z M2395,1727 L2488,1727 L2517,1816 L2424,1816 Z M2227,1672 L2320,1672 L2291,1584 L2198,1584 Z M2123,1529 L2152,1441 L2076,1386 L2048,1474 Z M2123,1529 L2216,1529 L2245,1441 L2152,1441 Z M2076,1672 L2152,1618 L2123,1529 L2048,1584 Z M1983,1672 L2076,1672 L2048,1584 L1954,1584 Z M1954,1584 L1879,1529 L1954,1474 L2030,1529 Z M1954,1761 L1879,1816 L1850,1727 L1926,1672 Z M1954,1761 L2048,1761 L2076,1672 L1983,1672 Z M1926,1672 L1850,1618 L1775,1672 L1850,1727 Z M1926,1672 L1954,1584 L1879,1529 L1850,1618 Z M1775,1672 L1682,1672 L1711,1584 L1804,1584 Z M1879,1529 L1954,1474 L1926,1386 L1850,1441 Z M1879,1529 L1786,1529 L1757,1441 L1850,1441 Z M1850,1441 L1879,1352 L1804,1297 L1775,1386 Z M1954,1474 L2048,1474 L2076,1386 L1983,1386 Z M1786,1529 L1711,1584 L1682,1495 L1757,1441 Z M1757,1441 L1682,1386 L1607,1441 L1682,1495 Z M1682,1672 L1607,1618 L1531,1672 L1607,1727 Z M1682,1672 L1711,1584 L1635,1529 L1607,1618 Z M1711,1761 L1635,1816 L1607,1727 L1682,1672 Z M1607,1618 L1514,1618 L1485,1529 L1578,1529 Z M1578,1529 L1485,1529 L1514,1441 L1607,1441 Z M1514,1618 L1438,1672 L1409,1584 L1485,1529 Z M1438,1672 L1345,1672 L1316,1584 L1409,1584 Z M1409,1584 L1438,1495 L1363,1441 L1334,1529 Z M1345,1672 L1270,1727 L1241,1639 L1316,1584 Z M1316,1584 L1241,1529 L1166,1584 L1241,1639 Z M1241,1816 L1166,1761 L1090,1816 L1166,1870 Z M1241,1816 L1270,1727 L1194,1672 L1166,1761 Z M1166,1761 L1073,1761 L1044,1672 L1137,1672 Z M1334,1816 L1241,1816 L1270,1727 L1363,1727 Z M1363,1904 L1270,1904 L1241,1816 L1334,1816 Z M1485,1816 L1409,1761 L1334,1816 L1409,1870 Z M1485,1816 L1514,1727 L1438,1672 L1409,1761 Z M1514,1904 L1438,1959 L1409,1870 L1485,1816 Z M1578,1816 L1485,1816 L1514,1727 L1607,1727 Z M1607,1904 L1514,1904 L1485,1816 L1578,1816 Z M1503,2048 L1409,2048 L1438,2136 L1531,2136 Z M1503,2048 L1409,2048 L1438,1959 L1531,1959 Z M1653,2048 L1578,2102 L1607,2191 L1682,2136 Z M1653,2048 L1578,1993 L1503,2048 L1578,2102 Z M1653,2048 L1682,1959 L1607,1904 L1578,1993 Z M1607,2191 L1514,2191 L1485,2279 L1578,2279 Z M1578,2279 L1485,2279 L1514,2368 L1607,2368 Z M1514,2191 L1485,2279 L1409,2225 L1438,2136 Z M1485,2279 L1409,2334 L1438,2423 L1514,2368 Z M1485,2279 L1409,2225 L1334,2279 L1409,2334 Z M1334,2279 L1241,2279 L1270,2368 L1363,2368 Z M1363,2191 L1270,2191 L1241,2279 L1334,2279 Z M1241,2279 L1166,2334 L1194,2423 L1270,2368 Z M1241,2279 L1166,2225 L1090,2279 L1166,2334 Z M1166,2334 L1073,2334 L1044,2423 L1137,2423 Z M1241,2102 L1212,2191 L1137,2136 L1166,2048 Z M1316,2048 L1241,1993 L1166,2048 L1241,2102 Z M1166,2048 L1073,2048 L1044,1959 L1137,1959 Z M1166,2048 L1073,2048 L1044,2136 L1137,2136 Z M1334,2102 L1241,2102 L1270,2191 L1363,2191 Z M1409,2048 L1334,2102 L1363,2191 L1438,2136 Z M1409,2048 L1438,1959 L1363,1904 L1334,1993 Z M1334,1993 L1241,1993 L1270,1904 L1363,1904 Z M1241,1993 L1166,2048 L1137,1959 L1212,1904 Z M1137,1959 L1166,1870 L1090,1816 L1062,1904 Z M1137,2136 L1062,2191 L1090,2279 L1166,2225 Z M1073,2048 L997,1993 L922,2048 L997,2102 Z M997,2102 L969,2191 L893,2136 L922,2048 Z M997,1993 L922,2048 L893,1959 L969,1904 Z M969,2191 L893,2245 L922,2334 L997,2279 Z M969,2191 L893,2136 L818,2191 L893,2245 Z M893,2245 L800,2245 L771,2334 L864,2334 Z M893,2136 L800,2136 L771,2048 L864,2048 Z M1062,2191 L969,2191 L997,2279 L1090,2279 Z M800,2136 L725,2191 L696,2102 L771,2048 Z M771,2048 L696,1993 L621,2048 L696,2102 Z M725,2191 L632,2191 L603,2279 L696,2279 Z M800,2245 L771,2334 L696,2279 L725,2191 Z M650,2136 L556,2136 L528,2048 L621,2048 Z M696,2279 L621,2334 L650,2423 L725,2368 Z M632,2191 L603,2279 L528,2225 L556,2136 Z M556,2136 L481,2191 L452,2102 L528,2048 Z M603,2279 L528,2225 L452,2279 L528,2334 Z M528,2334 L499,2423 L424,2368 L452,2279 Z M452,2279 L359,2279 L331,2191 L424,2191 Z M452,2279 L359,2279 L331,2368 L424,2368 Z M424,2368 L348,2423 L377,2511 L452,2456 Z M359,2279 L284,2225 L209,2279 L284,2334 Z M284,2334 L255,2423 L180,2368 L209,2279 Z M284,2225 L209,2279 L180,2191 L255,2136 Z M255,2423 L180,2477 L209,2566 L284,2511 Z M180,2477 L87,2477 L116,2566 L209,2566 Z M348,2423 L255,2423 L284,2511 L377,2511 Z M452,2566 L359,2566 L331,2654 L424,2654 Z M528,2511 L452,2566 L481,2654 L556,2600 Z M528,2511 L452,2456 L377,2511 L452,2566 Z M424,2654 L331,2654 L359,2743 L452,2743 Z M359,2566 L331,2654 L255,2600 L284,2511 Z M331,2654 L255,2709 L284,2798 L359,2743 Z M331,2654 L255,2600 L180,2654 L255,2709 Z M284,2798 L255,2886 L180,2831 L209,2743 Z M424,2941 L331,2941 L359,3029 L452,3029 Z M377,2798 L284,2798 L255,2886 L348,2886 Z M452,2852 L424,2941 L348,2886 L377,2798 Z M528,2798 L452,2743 L377,2798 L452,2852 Z M499,2886 L424,2941 L452,3029 L528,2975 Z M556,2709 L528,2798 L452,2743 L481,2654 Z M621,2798 L528,2798 L556,2886 L650,2886 Z M650,2886 L556,2886 L528,2975 L621,2975 Z M696,2743 L621,2798 L650,2886 L725,2831 Z M725,2654 L632,2654 L603,2743 L696,2743 Z M696,2566 L603,2566 L632,2654 L725,2654 Z M800,2709 L771,2798 L696,2743 L725,2654 Z M632,2654 L556,2600 L481,2654 L556,2709 Z M893,2709 L800,2709 L771,2798 L864,2798 Z M969,2654 L893,2709 L922,2798 L997,2743 Z M969,2654 L893,2600 L818,2654 L893,2709 Z M864,2798 L771,2798 L800,2886 L893,2886 Z M893,2886 L800,2886 L771,2975 L864,2975 Z M969,2941 L940,3029 L864,2975 L893,2886 Z M864,2975 L789,3029 L818,3118 L893,3063 Z M800,2886 L725,2831 L650,2886 L725,2941 Z M725,2941 L696,3029 L621,2975 L650,2886 Z M696,3029 L621,3084 L650,3173 L725,3118 Z M621,3084 L528,3084 L556,3173 L650,3173 Z M603,3029 L528,2975 L452,3029 L528,3084 Z M789,3029 L696,3029 L725,3118 L818,3118 Z M893,3173 L800,3173 L771,3261 L864,3261 Z M969,3118 L893,3173 L922,3261 L997,3206 Z M969,3118 L893,3063 L818,3118 L893,3173 Z M864,3261 L771,3261 L800,3350 L893,3350 Z M800,3173 L771,3261 L696,3206 L725,3118 Z M771,3261 L696,3316 L725,3404 L800,3350 Z M771,3261 L696,3206 L621,3261 L696,3316 Z M621,3261 L528,3261 L556,3350 L650,3350 Z M650,3173 L556,3173 L528,3261 L621,3261 Z M528,3084 L499,3173 L424,3118 L452,3029 Z M452,3029 L359,3029 L331,3118 L424,3118 Z M725,3404 L632,3404 L603,3493 L696,3493 Z M800,3459 L771,3548 L696,3493 L725,3404 Z M893,3459 L800,3459 L771,3548 L864,3548 Z M969,3404 L893,3459 L922,3548 L997,3493 Z M969,3404 L893,3350 L818,3404 L893,3459 Z M864,3548 L771,3548 L800,3636 L893,3636 Z M1044,3636 L969,3691 L997,3779 L1073,3725 Z M1044,3636 L969,3581 L893,3636 L969,3691 Z M1073,3548 L1044,3636 L969,3581 L997,3493 Z M1137,3636 L1044,3636 L1073,3725 L1166,3725 Z M1166,3725 L1241,3779 L1166,3834 L1090,3779 Z M1166,3548 L1073,3548 L1044,3636 L1137,3636 Z M1194,3636 L1166,3725 L1241,3779 L1270,3691 Z M1241,3493 L1166,3548 L1194,3636 L1270,3581 Z M1241,3493 L1166,3438 L1090,3493 L1166,3548 Z M1062,3404 L969,3404 L997,3493 L1090,3493 Z M1137,3350 L1062,3404 L1090,3493 L1166,3438 Z M1166,3261 L1073,3261 L1044,3350 L1137,3350 Z M1073,3261 L997,3206 L922,3261 L997,3316 Z M997,3316 L969,3404 L893,3350 L922,3261 Z M1137,3173 L1044,3173 L1073,3261 L1166,3261 Z M1212,3118 L1137,3173 L1166,3261 L1241,3206 Z M1166,3084 L1137,3173 L1062,3118 L1090,3029 Z M1241,3029 L1166,2975 L1090,3029 L1166,3084 Z M1090,3029 L997,3029 L969,3118 L1062,3118 Z M1062,2941 L969,2941 L997,3029 L1090,3029 Z M1137,2886 L1062,2941 L1090,3029 L1166,2975 Z M1166,2798 L1073,2798 L1044,2886 L1137,2886 Z M1044,2886 L969,2831 L893,2886 L969,2941 Z M1073,2798 L1044,2886 L969,2831 L997,2743 Z M1062,2654 L969,2654 L997,2743 L1090,2743 Z M1090,2566 L997,2566 L969,2654 L1062,2654 Z M997,2566 L969,2654 L893,2600 L922,2511 Z M893,2423 L800,2423 L771,2511 L864,2511 Z M864,2334 L771,2334 L800,2423 L893,2423 Z M864,2511 L771,2511 L800,2600 L893,2600 Z M800,2423 L725,2368 L650,2423 L725,2477 Z M725,2477 L696,2566 L621,2511 L650,2423 Z M771,2511 L696,2566 L725,2654 L800,2600 Z M650,2423 L556,2423 L528,2511 L621,2511 Z M621,2334 L528,2334 L556,2423 L650,2423 Z M1044,2423 L969,2477 L997,2566 L1073,2511 Z M1044,2423 L969,2368 L893,2423 L969,2477 Z M1073,2334 L1044,2423 L969,2368 L997,2279 Z M1137,2423 L1044,2423 L1073,2511 L1166,2511 Z M1241,2566 L1212,2654 L1137,2600 L1166,2511 Z M1316,2511 L1241,2456 L1166,2511 L1241,2566 Z M1212,2654 L1137,2709 L1166,2798 L1241,2743 Z M1212,2654 L1137,2600 L1062,2654 L1137,2709 Z M1334,2566 L1241,2566 L1270,2654 L1363,2654 Z M1363,2654 L1270,2654 L1241,2743 L1334,2743 Z M1409,2511 L1334,2566 L1363,2654 L1438,2600 Z M1438,2423 L1345,2423 L1316,2511 L1409,2511 Z M1514,2477 L1485,2566 L1409,2511 L1438,2423 Z M1345,2423 L1316,2511 L1241,2456 L1270,2368 Z M1607,2477 L1514,2477 L1485,2566 L1578,2566 Z M1682,2423 L1607,2477 L1635,2566 L1711,2511 Z M1682,2423 L1607,2368 L1531,2423 L1607,2477 Z M1578,2566 L1485,2566 L1514,2654 L1607,2654 Z M1607,2654 L1514,2654 L1485,2743 L1578,2743 Z M1682,2709 L1653,2798 L1578,2743 L1607,2654 Z M1578,2743 L1503,2798 L1531,2886 L1607,2831 Z M1514,2654 L1438,2600 L1363,2654 L1438,2709 Z M1438,2709 L1409,2798 L1334,2743 L1363,2654 Z M1409,2798 L1334,2852 L1363,2941 L1438,2886 Z M1334,2852 L1241,2852 L1270,2941 L1363,2941 Z M1316,2798 L1241,2743 L1166,2798 L1241,2852 Z M1503,2798 L1409,2798 L1438,2886 L1531,2886 Z M1607,2941 L1514,2941 L1485,3029 L1578,3029 Z M1635,3029 L1607,3118 L1682,3173 L1711,3084 Z M1682,2886 L1607,2941 L1635,3029 L1711,2975 Z M1682,2886 L1607,2831 L1531,2886 L1607,2941 Z M1578,3029 L1485,3029 L1514,3118 L1607,3118 Z M1514,2941 L1485,3029 L1409,2975 L1438,2886 Z M1485,3029 L1409,3084 L1438,3173 L1514,3118 Z M1485,3029 L1409,2975 L1334,3029 L1409,3084 Z M1334,3029 L1241,3029 L1270,3118 L1363,3118 Z M1363,3118 L1270,3118 L1241,3206 L1334,3206 Z M1363,2941 L1270,2941 L1241,3029 L1334,3029 Z M1241,2852 L1212,2941 L1137,2886 L1166,2798 Z M1438,3173 L1409,3261 L1334,3206 L1363,3118 Z M1316,3261 L1241,3206 L1166,3261 L1241,3316 Z M1241,3316 L1212,3404 L1137,3350 L1166,3261 Z M1409,3261 L1334,3316 L1363,3404 L1438,3350 Z M1438,3350 L1514,3404 L1438,3459 L1363,3404 Z M1334,3316 L1241,3316 L1270,3404 L1363,3404 Z M1578,3316 L1485,3316 L1514,3404 L1607,3404 Z M1531,3173 L1503,3261 L1578,3316 L1607,3227 Z M1531,3173 L1438,3173 L1409,3261 L1503,3261 Z M1607,3118 L1682,3173 L1607,3227 L1531,3173 Z M1653,3261 L1578,3316 L1607,3404 L1682,3350 Z M1775,3173 L1682,3173 L1711,3261 L1804,3261 Z M1804,3261 L1775,3350 L1850,3404 L1879,3316 Z M1804,3261 L1711,3261 L1682,3350 L1775,3350 Z M1850,3118 L1775,3173 L1804,3261 L1879,3206 Z M1879,3206 L1954,3261 L1879,3316 L1804,3261 Z M1879,3029 L1850,3118 L1926,3173 L1954,3084 Z M1879,3029 L1786,3029 L1757,3118 L1850,3118 Z M1850,2941 L1757,2941 L1786,3029 L1879,3029 Z M1954,2975 L2030,3029 L1954,3084 L1879,3029 Z M1954,3084 L2048,3084 L2076,3173 L1983,3173 Z M1711,2975 L1786,3029 L1711,3084 L1635,3029 Z M1983,3173 L2076,3173 L2048,3261 L1954,3261 Z M2123,3029 L2048,3084 L2076,3173 L2152,3118 Z M2123,3029 L2216,3029 L2245,3118 L2152,3118 Z M2152,3118 L2123,3206 L2198,3261 L2227,3173 Z M2152,2941 L2245,2941 L2216,3029 L2123,3029 Z M2291,2975 L2367,3029 L2291,3084 L2216,3029 Z M2320,2886 L2291,2975 L2367,3029 L2395,2941 Z M2395,2831 L2471,2886 L2395,2941 L2320,2886 Z M2395,2941 L2488,2941 L2517,3029 L2424,3029 Z M2198,2798 L2123,2852 L2152,2941 L2227,2886 Z M2198,2798 L2291,2798 L2320,2886 L2227,2886 Z M2123,2743 L2198,2798 L2123,2852 L2048,2798 Z M2227,2709 L2320,2709 L2291,2798 L2198,2798 Z M2152,2654 L2123,2743 L2198,2798 L2227,2709 Z M2395,2654 L2320,2709 L2349,2798 L2424,2743 Z M2395,2654 L2488,2654 L2517,2743 L2424,2743 Z M2320,2600 L2395,2654 L2320,2709 L2245,2654 Z M2291,2511 L2216,2566 L2245,2654 L2320,2600 Z M2320,2423 L2291,2511 L2367,2566 L2395,2477 Z M2123,2566 L2048,2621 L2076,2709 L2152,2654 Z M2123,2566 L2216,2566 L2245,2654 L2152,2654 Z M2227,2423 L2320,2423 L2291,2511 L2198,2511 Z M2198,2334 L2291,2334 L2320,2423 L2227,2423 Z M2152,2368 L2227,2423 L2152,2477 L2076,2423 Z M2123,2279 L2048,2334 L2076,2423 L2152,2368 Z M2123,2279 L2152,2191 L2076,2136 L2048,2225 Z M2123,2279 L2216,2279 L2245,2191 L2152,2191 Z M2076,2423 L2048,2511 L2123,2566 L2152,2477 Z M1983,2423 L2076,2423 L2048,2511 L1954,2511 Z M1954,2334 L1926,2423 L1850,2368 L1879,2279 Z M1954,2334 L2048,2334 L2076,2423 L1983,2423 Z M1954,2511 L2030,2566 L1954,2621 L1879,2566 Z M1926,2423 L1850,2477 L1879,2566 L1954,2511 Z M1926,2423 L1850,2368 L1775,2423 L1850,2477 Z M1879,2566 L1850,2654 L1926,2709 L1954,2621 Z M1879,2566 L1786,2566 L1757,2654 L1850,2654 Z M1954,2621 L2048,2621 L2076,2709 L1983,2709 Z M1983,2709 L2076,2709 L2048,2798 L1954,2798 Z M2076,2886 L2048,2975 L2123,3029 L2152,2941 Z M1954,2798 L2048,2798 L2076,2886 L1983,2886 Z M1983,2886 L2076,2886 L2048,2975 L1954,2975 Z M1879,2743 L1954,2798 L1879,2852 L1804,2798 Z M1926,2886 L1850,2941 L1879,3029 L1954,2975 Z M1850,2654 L1775,2709 L1804,2798 L1879,2743 Z M1804,2798 L1775,2886 L1850,2941 L1879,2852 Z M1804,2798 L1711,2798 L1682,2886 L1775,2886 Z M1775,2709 L1682,2709 L1711,2798 L1804,2798 Z M1757,2654 L1682,2600 L1607,2654 L1682,2709 Z M1786,2566 L1757,2654 L1682,2600 L1711,2511 Z M1775,2423 L1682,2423 L1711,2511 L1804,2511 Z M1804,2334 L1711,2334 L1682,2423 L1775,2423 Z M1711,2334 L1682,2423 L1607,2368 L1635,2279 Z M1757,2191 L1682,2245 L1711,2334 L1786,2279 Z M1757,2191 L1682,2136 L1607,2191 L1682,2245 Z M1850,2191 L1879,2102 L1804,2048 L1775,2136 Z M1850,2191 L1757,2191 L1786,2279 L1879,2279 Z M1775,2136 L1682,2136 L1711,2048 L1804,2048 Z M1775,1959 L1682,1959 L1711,2048 L1804,2048 Z M1850,1904 L1775,1959 L1804,2048 L1879,1993 Z M1850,1904 L1757,1904 L1786,1816 L1879,1816 Z M1757,1904 L1682,1850 L1607,1904 L1682,1959 Z M1757,1904 L1786,1816 L1711,1761 L1682,1850 Z M1954,2225 L2048,2225 L2076,2136 L1983,2136 Z M2030,2279 L1954,2225 L1879,2279 L1954,2334 Z M2216,2279 L2245,2191 L2320,2245 L2291,2334 Z M2320,2136 L2395,2191 L2320,2245 L2245,2191 Z M2320,2136 L2349,2048 L2424,2102 L2395,2191 Z M2395,2191 L2488,2191 L2517,2279 L2424,2279 Z M2471,2136 L2564,2136 L2592,2048 L2499,2048 Z M2367,2279 L2291,2334 L2320,2423 L2395,2368 Z M2488,2191 L2564,2136 L2592,2225 L2517,2279 Z M2517,2279 L2592,2334 L2668,2279 L2592,2225 Z M2564,2136 L2592,2048 L2668,2102 L2639,2191 Z M2639,2191 L2732,2191 L2761,2279 L2668,2279 Z M2639,2191 L2732,2191 L2761,2102 L2668,2102 Z M2564,1959 L2639,1904 L2668,1993 L2592,2048 Z M2686,2048 L2761,2102 L2836,2048 L2761,1993 Z M2761,1993 L2790,1904 L2865,1959 L2836,2048 Z M2761,2102 L2836,2048 L2865,2136 L2790,2191 Z M2836,2048 L2929,2048 L2958,2136 L2865,2136 Z M2836,2048 L2929,2048 L2958,1959 L2865,1959 Z M2761,2279 L2836,2334 L2911,2279 L2836,2225 Z M2836,2225 L2865,2136 L2940,2191 L2911,2279 Z M2836,2334 L2929,2334 L2958,2423 L2865,2423 Z M2732,2368 L2761,2279 L2836,2334 L2807,2423 Z M2639,2368 L2732,2368 L2761,2279 L2668,2279 Z M2564,2423 L2488,2477 L2517,2566 L2592,2511 Z M2564,2423 L2657,2423 L2686,2511 L2592,2511 Z M2592,2511 L2564,2600 L2639,2654 L2668,2566 Z M2488,2368 L2517,2279 L2592,2334 L2564,2423 Z M2657,2423 L2732,2368 L2761,2456 L2686,2511 Z M2686,2511 L2761,2566 L2836,2511 L2761,2456 Z M2761,2566 L2836,2511 L2865,2600 L2790,2654 Z M2790,2654 L2865,2709 L2940,2654 L2865,2600 Z M2790,2654 L2761,2743 L2836,2798 L2865,2709 Z M2836,2511 L2929,2511 L2958,2423 L2865,2423 Z M2668,2566 L2761,2566 L2732,2654 L2639,2654 Z M2639,2654 L2564,2709 L2592,2798 L2668,2743 Z M2639,2654 L2732,2654 L2761,2743 L2668,2743 Z M2564,2600 L2639,2654 L2564,2709 L2488,2654 Z M2424,2566 L2517,2566 L2488,2654 L2395,2654 Z M2395,2477 L2488,2477 L2517,2566 L2424,2566 Z M2592,2798 L2564,2886 L2639,2941 L2668,2852 Z M2424,2743 L2395,2831 L2471,2886 L2499,2798 Z M2499,2798 L2592,2798 L2564,2886 L2471,2886 Z M2564,2886 L2488,2941 L2517,3029 L2592,2975 Z M2592,2975 L2668,3029 L2592,3084 L2517,3029 Z M2639,2941 L2732,2941 L2761,3029 L2668,3029 Z M2668,3029 L2761,3029 L2732,3118 L2639,3118 Z M2668,2852 L2761,2852 L2732,2941 L2639,2941 Z M2836,2798 L2761,2852 L2790,2941 L2865,2886 Z M2836,2798 L2929,2798 L2958,2886 L2865,2886 Z M2761,2743 L2836,2798 L2761,2852 L2686,2798 Z M2865,2886 L2836,2975 L2911,3029 L2940,2941 Z M2929,2798 L3005,2743 L3033,2831 L2958,2886 Z M2958,2886 L3033,2941 L3109,2886 L3033,2831 Z M3033,2654 L3109,2709 L3184,2654 L3109,2600 Z M3033,2654 L3005,2743 L3080,2798 L3109,2709 Z M3005,2566 L3080,2511 L3109,2600 L3033,2654 Z M3109,2600 L3202,2600 L3231,2511 L3137,2511 Z M3109,2709 L3202,2709 L3231,2798 L3137,2798 Z M2940,2654 L3033,2654 L3005,2743 L2911,2743 Z M2911,2566 L3005,2566 L3033,2654 L2940,2654 Z M3137,2798 L3231,2798 L3202,2886 L3109,2886 Z M3202,2709 L3277,2654 L3306,2743 L3231,2798 Z M3277,2654 L3370,2654 L3399,2743 L3306,2743 Z M3277,2654 L3370,2654 L3399,2566 L3306,2566 Z M3306,2743 L3277,2831 L3352,2886 L3381,2798 Z M3202,2600 L3231,2511 L3306,2566 L3277,2654 Z M3370,2654 L3445,2709 L3521,2654 L3445,2600 Z M3445,2600 L3474,2511 L3550,2566 L3521,2654 Z M3445,2709 L3521,2654 L3550,2743 L3474,2798 Z M3474,2511 L3550,2566 L3625,2511 L3550,2456 Z M3550,2456 L3578,2368 L3654,2423 L3625,2511 Z M3550,2566 L3643,2566 L3671,2654 L3578,2654 Z M3352,2423 L3445,2423 L3474,2511 L3381,2511 Z M3352,2423 L3445,2423 L3474,2334 L3381,2334 Z M3277,2477 L3352,2423 L3381,2511 L3306,2566 Z M3277,2368 L3306,2279 L3381,2334 L3352,2423 Z M3474,2334 L3550,2279 L3578,2368 L3503,2423 Z M3550,2279 L3643,2279 L3671,2368 L3578,2368 Z M3550,2279 L3643,2279 L3671,2191 L3578,2191 Z M3399,2279 L3474,2334 L3550,2279 L3474,2225 Z M3370,2191 L3445,2136 L3474,2225 L3399,2279 Z M3445,2136 L3474,2047 L3550,2102 L3521,2191 Z M3474,2047 L3550,2102 L3625,2048 L3550,1993 Z M3352,2136 L3445,2136 L3474,2047 L3381,2047 Z M3277,2191 L3370,2191 L3399,2279 L3306,2279 Z M3352,1959 L3445,1959 L3474,2047 L3381,2047 Z M3277,1904 L3370,1904 L3399,1816 L3306,1816 Z M3231,2048 L3306,2102 L3381,2047 L3306,1993 Z M3202,1959 L3277,1904 L3306,1993 L3231,2048 Z M3202,2136 L3231,2048 L3306,2102 L3277,2191 Z M3109,1959 L3202,1959 L3231,2048 L3137,2048 Z M3109,2136 L3202,2136 L3231,2048 L3137,2048 Z M3033,2191 L3109,2245 L3184,2191 L3109,2136 Z M3109,2245 L3202,2245 L3231,2334 L3137,2334 Z M3202,2245 L3277,2191 L3306,2279 L3231,2334 Z M3202,2423 L3277,2477 L3352,2423 L3277,2368 Z M3109,2423 L3202,2423 L3231,2511 L3137,2511 Z M3109,2423 L3202,2423 L3231,2334 L3137,2334 Z M3005,2279 L3033,2191 L3109,2245 L3080,2334 Z M2958,2423 L3033,2477 L3109,2423 L3033,2368 Z M2929,2334 L3005,2279 L3033,2368 L2958,2423 Z M2929,2511 L2958,2423 L3033,2477 L3005,2566 Z M2911,2279 L3005,2279 L3033,2191 L2940,2191 Z M2929,2048 L3005,2102 L3080,2048 L3005,1993 Z M3005,1993 L3033,1904 L3109,1959 L3080,2048 Z M3005,2102 L3080,2048 L3109,2136 L3033,2191 Z M3033,1904 L3109,1959 L3184,1904 L3109,1850 Z M2836,1870 L2911,1816 L2940,1904 L2865,1959 Z M2761,1816 L2836,1870 L2911,1816 L2836,1761 Z M2732,1727 L2807,1672 L2836,1761 L2761,1816 Z M2836,1761 L2929,1761 L2958,1672 L2865,1672 Z M2639,1727 L2732,1727 L2761,1816 L2668,1816 Z M2639,1904 L2732,1904 L2761,1993 L2668,1993 Z M2639,1904 L2732,1904 L2761,1816 L2668,1816 Z M2564,1672 L2592,1584 L2517,1529 L2488,1618 Z M2564,1672 L2657,1672 L2686,1584 L2592,1584 Z M2517,1816 L2592,1870 L2668,1816 L2592,1761 Z M2488,1727 L2564,1672 L2592,1761 L2517,1816 Z M2488,1904 L2517,1816 L2592,1870 L2564,1959 Z M2395,1904 L2488,1904 L2517,1816 L2424,1816 Z M2320,1959 L2395,1904 L2424,1993 L2349,2048 Z M2320,1959 L2245,1904 L2320,1850 L2395,1904 Z M2471,1959 L2564,1959 L2592,2048 L2499,2048 Z M2349,2048 L2424,2102 L2499,2048 L2424,1993 Z M2198,2048 L2123,2102 L2152,2191 L2227,2136 Z M2198,2048 L2123,1993 L2048,2048 L2123,2102 Z M2198,2048 L2227,1959 L2152,1904 L2123,1993 Z M2198,2048 L2291,2048 L2320,2136 L2227,2136 Z M2198,2048 L2291,2048 L2320,1959 L2227,1959 Z M2592,1584 L2668,1529 L2639,1441 L2564,1495 Z M2657,1672 L2686,1584 L2761,1639 L2732,1727 Z M2686,1584 L2761,1639 L2836,1584 L2761,1529 Z M2761,1529 L2790,1441 L2865,1495 L2836,1584 Z M2836,1584 L2929,1584 L2958,1672 L2865,1672 Z M2911,1529 L3005,1529 L3033,1441 L2940,1441 Z M2929,1584 L3005,1529 L3033,1618 L2958,1672 Z M2958,1672 L3033,1727 L3109,1672 L3033,1618 Z M3005,1529 L3033,1441 L3109,1495 L3080,1584 Z M3033,1441 L3109,1386 L3080,1297 L3005,1352 Z M3033,1441 L3109,1495 L3184,1441 L3109,1386 Z M3109,1386 L3202,1386 L3231,1297 L3137,1297 Z M3109,1495 L3202,1495 L3231,1584 L3137,1584 Z M2940,1441 L3033,1441 L3005,1352 L2911,1352 Z M2836,1297 L2865,1209 L2790,1154 L2761,1243 Z M2836,1297 L2929,1297 L2958,1209 L2865,1209 Z M2790,1441 L2865,1386 L2836,1297 L2761,1352 Z M2790,1441 L2865,1495 L2940,1441 L2865,1386 Z M2761,1352 L2686,1297 L2761,1243 L2836,1297 Z M2592,1297 L2668,1243 L2639,1154 L2564,1209 Z M2639,1441 L2668,1352 L2592,1297 L2564,1386 Z M2639,1441 L2732,1441 L2761,1352 L2668,1352 Z M2668,1529 L2761,1529 L2732,1441 L2639,1441 Z M2564,1495 L2488,1441 L2564,1386 L2639,1441 Z M2395,1441 L2424,1352 L2349,1297 L2320,1386 Z M2395,1441 L2488,1441 L2517,1352 L2424,1352 Z M2424,1529 L2517,1529 L2488,1441 L2395,1441 Z M2320,1495 L2245,1441 L2320,1386 L2395,1441 Z M2424,1352 L2499,1297 L2471,1209 L2395,1264 Z M2395,1264 L2320,1209 L2395,1154 L2471,1209 Z M2499,1297 L2592,1297 L2564,1209 L2471,1209 Z M2320,1209 L2395,1154 L2367,1066 L2291,1120 Z M2291,1120 L2216,1066 L2291,1011 L2367,1066 Z M2395,1154 L2488,1154 L2517,1066 L2424,1066 Z M2152,1154 L2245,1154 L2216,1066 L2123,1066 Z M2198,1297 L2227,1209 L2152,1154 L2123,1243 Z M2198,1297 L2291,1297 L2320,1209 L2227,1209 Z M2227,1386 L2320,1386 L2291,1297 L2198,1297 Z M2123,1352 L2048,1297 L2123,1243 L2198,1297 Z M2076,1209 L2152,1154 L2123,1066 L2047,1120 Z M1954,1297 L2048,1297 L2076,1209 L1983,1209 Z M1926,1209 L1954,1120 L1879,1066 L1850,1154 Z M1983,1386 L2076,1386 L2048,1297 L1954,1297 Z M1879,1352 L1804,1297 L1879,1243 L1954,1297 Z M1983,1209 L2076,1209 L2047,1120 L1954,1120 Z M1954,1120 L1879,1066 L1954,1011 L2030,1066 Z M1879,1066 L1954,1011 L1926,922 L1850,977 Z M1879,1066 L1786,1066 L1757,977 L1850,977 Z M2123,1066 L2152,977 L2076,922 L2047,1011 Z M2123,1066 L2216,1066 L2245,977 L2152,977 Z M2152,977 L2227,922 L2198,834 L2123,889 Z M2395,977 L2320,922 L2395,868 L2471,922 Z M2349,834 L2424,779 L2395,691 L2320,745 Z M2227,922 L2320,922 L2291,834 L2198,834 Z M2198,834 L2227,745 L2152,691 L2123,779 Z M2198,834 L2291,834 L2320,745 L2227,745 Z M2123,889 L2047,834 L2123,779 L2198,834 Z M2152,691 L2245,691 L2216,602 L2123,602 Z M2320,745 L2245,691 L2320,636 L2395,691 Z M2395,691 L2488,691 L2517,602 L2424,602 Z M2245,691 L2320,636 L2291,547 L2216,602 Z M2367,602 L2395,514 L2320,459 L2291,547 Z M2320,459 L2395,404 L2367,316 L2291,370 Z M2198,547 L2291,547 L2320,459 L2227,459 Z M2123,602 L2152,514 L2076,459 L2047,547 Z M2227,459 L2320,459 L2291,370 L2198,370 Z M2152,514 L2076,459 L2152,404 L2227,459 Z M2123,316 L2152,227 L2076,172 L2047,261 Z M2123,316 L2216,316 L2245,227 L2152,227 Z M2076,459 L2152,404 L2123,316 L2047,370 Z M1983,459 L2076,459 L2047,370 L1954,370 Z M1954,370 L1879,316 L1954,261 L2030,316 Z M1954,547 L2047,547 L2076,459 L1983,459 Z M1926,459 L1954,370 L1879,316 L1850,404 Z M1879,602 L1954,547 L1926,459 L1850,514 Z M1954,657 L1879,602 L1954,547 L2030,602 Z M1983,745 L2076,745 L2047,657 L1954,657 Z M1926,745 L1954,657 L1879,602 L1850,691 Z M2076,745 L2152,691 L2123,602 L2047,657 Z M1954,834 L2047,834 L2076,745 L1983,745 Z M1983,922 L2076,922 L2047,834 L1954,834 Z M1879,889 L1804,834 L1879,779 L1954,834 Z M1954,1011 L2047,1011 L2076,922 L1983,922 Z M1850,977 L1879,889 L1804,834 L1775,922 Z M1775,922 L1682,922 L1711,834 L1804,834 Z M1653,834 L1682,745 L1607,691 L1578,779 Z M1607,977 L1531,922 L1607,868 L1682,922 Z M1682,745 L1607,691 L1682,636 L1757,691 Z M1804,834 L1879,779 L1850,691 L1775,745 Z M1804,834 L1711,834 L1682,745 L1775,745 Z M1850,691 L1757,691 L1786,602 L1879,602 Z M1757,691 L1786,602 L1711,547 L1682,636 Z M1682,459 L1711,370 L1635,316 L1607,404 Z M1635,602 L1711,547 L1682,459 L1607,514 Z M1804,547 L1711,547 L1682,459 L1775,459 Z M1775,459 L1682,459 L1711,370 L1804,370 Z M1850,514 L1775,459 L1850,404 L1926,459 Z M1879,316 L1954,261 L1926,172 L1850,227 Z M1879,316 L1786,316 L1757,227 L1850,227 Z M1711,370 L1786,316 L1757,227 L1682,282 Z M1682,282 L1607,227 L1682,172 L1757,227 Z M1607,227 L1682,172 L1653,84 L1578,138 Z M1607,227 L1514,227 L1485,138 L1578,138 Z M1607,404 L1514,404 L1485,316 L1578,316 Z M1578,316 L1485,316 L1514,227 L1607,227 Z M1438,459 L1514,404 L1485,316 L1409,370 Z M1438,459 L1345,459 L1316,370 L1409,370 Z M1409,370 L1438,282 L1363,227 L1334,316 Z M1409,547 L1316,547 L1345,459 L1438,459 Z M1270,514 L1194,459 L1270,404 L1345,459 Z M1241,602 L1166,547 L1090,602 L1166,657 Z M1241,602 L1270,514 L1194,459 L1166,547 Z M1166,547 L1073,547 L1044,459 L1137,459 Z M1363,691 L1438,636 L1409,547 L1334,602 Z M1363,691 L1270,691 L1241,602 L1334,602 Z M1438,745 L1363,691 L1438,636 L1514,691 Z M1334,779 L1241,779 L1270,691 L1363,691 Z M1409,834 L1438,745 L1363,691 L1334,779 Z M1241,779 L1166,834 L1137,745 L1212,691 Z M1166,834 L1073,834 L1044,745 L1137,745 Z M1316,834 L1241,779 L1166,834 L1241,889 Z M1212,977 L1241,889 L1166,834 L1137,922 Z M1363,977 L1270,977 L1241,889 L1334,889 Z M1438,922 L1363,977 L1334,889 L1409,834 Z M1334,1066 L1241,1066 L1270,977 L1363,977 Z M1363,1154 L1270,1154 L1241,1066 L1334,1066 Z M1241,1066 L1166,1011 L1090,1066 L1166,1120 Z M1166,1011 L1090,1066 L1062,977 L1137,922 Z M1241,1243 L1166,1297 L1137,1209 L1212,1154 Z M1137,1209 L1166,1120 L1090,1066 L1062,1154 Z M1166,1297 L1073,1297 L1044,1209 L1137,1209 Z M1062,1154 L969,1154 L997,1066 L1090,1066 Z M1044,1209 L969,1154 L893,1209 L969,1264 Z M1073,1297 L997,1352 L969,1264 L1044,1209 Z M969,1154 L893,1209 L864,1120 L940,1066 Z M893,1209 L800,1209 L771,1120 L864,1120 Z M969,977 L893,922 L818,977 L893,1032 Z M969,977 L997,889 L922,834 L893,922 Z M1090,1066 L997,1066 L969,977 L1062,977 Z M1137,922 L1044,922 L1073,834 L1166,834 Z M1073,834 L997,779 L922,834 L997,889 Z M997,779 L922,834 L893,745 L969,691 Z M969,691 L893,636 L818,691 L893,745 Z M969,691 L997,602 L922,547 L893,636 Z M893,922 L800,922 L771,834 L864,834 Z M864,834 L771,834 L800,745 L893,745 Z M800,922 L725,977 L696,889 L771,834 Z M771,834 L696,779 L621,834 L696,889 Z M771,834 L800,745 L725,691 L696,779 Z M650,922 L556,922 L528,834 L621,834 Z M696,1066 L725,977 L650,922 L621,1011 Z M725,1154 L650,1209 L621,1120 L696,1066 Z M621,1011 L528,1011 L556,922 L650,922 Z M603,1066 L528,1011 L452,1066 L528,1120 Z M789,1066 L696,1066 L725,977 L818,977 Z M864,1120 L893,1032 L818,977 L789,1066 Z M528,1011 L452,1066 L424,977 L499,922 Z M452,1066 L359,1066 L331,977 L424,977 Z M621,834 L528,834 L556,745 L650,745 Z M725,691 L632,691 L603,602 L696,602 Z M800,636 L725,691 L696,602 L771,547 Z M893,636 L800,636 L771,547 L864,547 Z M864,547 L771,547 L800,459 L893,459 Z M1073,547 L997,602 L969,514 L1044,459 Z M1062,691 L969,691 L997,602 L1090,602 Z M1137,745 L1166,657 L1090,602 L1062,691 Z M1044,459 L969,404 L893,459 L969,514 Z M1044,459 L1073,370 L997,316 L969,404 Z M1137,459 L1044,459 L1073,370 L1166,370 Z M1166,370 L1090,316 L1166,261 L1241,316 Z M1194,459 L1270,404 L1241,316 L1166,370 Z M1334,316 L1241,316 L1270,227 L1363,227 Z M1438,282 L1363,227 L1438,172 L1514,227 Z M1775,172 L1682,172 L1711,84 L1804,84 Z M1850,227 L1879,138 L1804,84 L1775,172 Z M1879,138 L1804,84 L1879,29 L1954,84 Z M1983,172 L2076,172 L2047,84 L1954,84 Z M2123,138 L2047,84 L2123,29 L2198,84 Z M2152,227 L2227,172 L2198,84 L2123,138 Z M2227,172 L2320,172 L2291,84 L2198,84 Z M2395,227 L2424,138 L2349,84 L2320,172 Z M2395,227 L2488,227 L2517,138 L2424,138 Z M2564,282 L2488,227 L2564,172 L2639,227 Z M2592,370 L2668,316 L2639,227 L2564,282 Z M2639,227 L2668,138 L2592,84 L2564,172 Z M2639,227 L2732,227 L2761,138 L2668,138 Z M2668,316 L2761,316 L2732,227 L2639,227 Z M2911,316 L2940,227 L2865,172 L2836,261 Z M2836,370 L2761,316 L2836,261 L2911,316 Z M3137,547 L3231,547 L3202,459 L3109,459 Z M3033,514 L2958,459 L3033,404 L3109,459 Z M3277,691 L3306,602 L3231,547 L3202,636 Z M3277,691 L3370,691 L3399,602 L3306,602 Z M3370,691 L3399,602 L3474,657 L3445,745 Z M3474,834 L3550,779 L3521,691 L3445,745 Z M3474,834 L3550,889 L3625,834 L3550,779 Z M3381,834 L3474,834 L3445,745 L3352,745 Z M3352,922 L3445,922 L3474,834 L3381,834 Z M3381,1011 L3474,1011 L3445,922 L3352,922 Z M3474,1011 L3503,922 L3578,977 L3550,1066 Z M3399,1066 L3474,1120 L3550,1066 L3474,1011 Z M3550,1066 L3643,1066 L3671,977 L3578,977 Z M3578,977 L3654,922 L3625,834 L3550,889 Z M3643,1066 L3718,1120 L3793,1066 L3718,1011 Z M3747,1209 L3822,1154 L3793,1066 L3718,1120 Z M3718,1297 L3747,1209 L3822,1264 L3793,1352 Z M3793,1352 L3886,1352 L3915,1441 L3822,1441 Z M3793,1352 L3886,1352 L3915,1264 L3822,1264 Z M3793,1529 L3886,1529 L3915,1618 L3822,1618 Z M3793,1529 L3886,1529 L3915,1441 L3822,1441 Z M3718,1584 L3793,1529 L3822,1618 L3747,1672 Z M3915,1618 L3944,1529 L4019,1584 L3990,1672 Z M3840,1672 L3915,1727 L3990,1672 L3915,1618 Z M3915,1727 L3990,1672 L4019,1761 L3944,1816 Z M3793,1816 L3886,1816 L3915,1904 L3822,1904 Z M3793,1816 L3886,1816 L3915,1727 L3822,1727 Z M3718,1870 L3793,1816 L3822,1904 L3747,1959 Z M3718,1761 L3747,1672 L3822,1727 L3793,1816 Z M3643,1816 L3718,1870 L3793,1816 L3718,1761 Z M3550,1816 L3643,1816 L3671,1904 L3578,1904 Z M3550,1816 L3643,1816 L3671,1727 L3578,1727 Z M3474,1761 L3503,1672 L3578,1727 L3550,1816 Z M3550,1639 L3625,1584 L3654,1672 L3578,1727 Z M3474,1584 L3550,1639 L3625,1584 L3550,1529 Z M3445,1495 L3521,1441 L3550,1529 L3474,1584 Z M3550,1529 L3643,1529 L3671,1441 L3578,1441 Z M3352,1672 L3445,1672 L3474,1761 L3381,1761 Z M3352,1672 L3445,1672 L3474,1584 L3381,1584 Z M3277,1727 L3352,1672 L3381,1761 L3306,1816 Z M3277,1618 L3306,1529 L3381,1584 L3352,1672 Z M3202,1672 L3277,1727 L3352,1672 L3277,1618 Z M3109,1672 L3202,1672 L3231,1761 L3137,1761 Z M3109,1672 L3202,1672 L3231,1584 L3137,1584 Z M3109,1850 L3202,1850 L3231,1761 L3137,1761 Z M3005,1816 L3080,1761 L3109,1850 L3033,1904 Z M2929,1761 L2958,1672 L3033,1727 L3005,1816 Z M2911,1816 L3005,1816 L3033,1904 L2940,1904 Z M3202,1850 L3231,1761 L3306,1816 L3277,1904 Z M3202,1495 L3277,1441 L3306,1529 L3231,1584 Z M3277,1441 L3370,1441 L3399,1529 L3306,1529 Z M3277,1441 L3370,1441 L3399,1352 L3306,1352 Z M3202,1386 L3231,1297 L3306,1352 L3277,1441 Z M3306,1352 L3381,1297 L3352,1209 L3277,1264 Z M3370,1441 L3445,1495 L3521,1441 L3445,1386 Z M3445,1386 L3474,1297 L3550,1352 L3521,1441 Z M3474,1297 L3550,1352 L3625,1297 L3550,1243 Z M3550,1243 L3578,1154 L3654,1209 L3625,1297 Z M3550,1352 L3643,1352 L3671,1441 L3578,1441 Z M3503,1209 L3578,1154 L3550,1066 L3474,1120 Z M3381,1297 L3474,1297 L3445,1209 L3352,1209 Z M3352,1209 L3445,1209 L3474,1120 L3381,1120 Z M3277,1154 L3306,1066 L3381,1120 L3352,1209 Z M3306,1066 L3381,1011 L3352,922 L3277,977 Z M3213,1066 L3306,1066 L3277,977 L3184,977 Z M3137,1120 L3213,1066 L3184,977 L3109,1032 Z M3109,1209 L3202,1209 L3231,1120 L3137,1120 Z M3137,1297 L3231,1297 L3202,1209 L3109,1209 Z M3033,1154 L3062,1066 L3137,1120 L3109,1209 Z M3202,1209 L3277,1264 L3352,1209 L3277,1154 Z M2958,1209 L3033,1264 L3109,1209 L3033,1154 Z M2940,1154 L3033,1154 L3005,1066 L2911,1066 Z M2911,1066 L2940,977 L2865,922 L2836,1011 Z M2911,1066 L3005,1066 L3033,977 L2940,977 Z M2865,1209 L2940,1154 L2911,1066 L2836,1120 Z M2836,1120 L2761,1066 L2836,1011 L2911,1066 Z M2668,1243 L2761,1243 L2732,1154 L2639,1154 Z M2639,1154 L2732,1154 L2761,1066 L2668,1066 Z M2564,1209 L2592,1120 L2517,1066 L2488,1154 Z M2668,1066 L2761,1066 L2732,977 L2639,977 Z M2639,977 L2668,889 L2592,834 L2564,922 Z M2639,977 L2732,977 L2761,889 L2668,889 Z M2592,1120 L2517,1066 L2592,1011 L2668,1066 Z M2517,1066 L2592,1011 L2564,922 L2488,977 Z M2424,1066 L2517,1066 L2488,977 L2395,977 Z M2592,834 L2668,779 L2639,691 L2564,745 Z M2471,922 L2499,834 L2424,779 L2395,868 Z M2471,922 L2564,922 L2592,834 L2499,834 Z M2424,779 L2517,779 L2488,691 L2395,691 Z M2564,745 L2488,691 L2564,636 L2639,691 Z M2517,602 L2592,547 L2564,459 L2488,514 Z M2592,547 L2686,547 L2657,459 L2564,459 Z M2424,602 L2517,602 L2488,514 L2395,514 Z M2395,514 L2320,459 L2395,404 L2471,459 Z M2395,404 L2488,404 L2517,316 L2424,316 Z M2564,459 L2592,370 L2517,316 L2488,404 Z M2564,459 L2657,459 L2686,370 L2592,370 Z M2732,514 L2657,459 L2732,404 L2807,459 Z M2761,602 L2836,547 L2807,459 L2732,514 Z M2807,459 L2836,370 L2761,316 L2732,404 Z M2836,547 L2929,547 L2958,459 L2865,459 Z M2865,459 L2958,459 L2929,370 L2836,370 Z M3005,602 L3033,514 L2958,459 L2929,547 Z M2958,459 L3033,404 L3005,316 L2929,370 Z M3033,691 L3109,636 L3080,547 L3005,602 Z M3109,636 L3202,636 L3231,547 L3137,547 Z M3109,745 L3033,691 L3109,636 L3184,691 Z M2940,691 L3033,691 L3005,602 L2911,602 Z M2865,745 L2940,691 L2911,602 L2836,657 Z M2836,657 L2761,602 L2836,547 L2911,602 Z M2836,834 L2865,745 L2790,691 L2761,779 Z M2836,834 L2929,834 L2958,745 L2865,745 Z M2865,922 L2958,922 L2929,834 L2836,834 Z M2761,889 L2686,834 L2761,779 L2836,834 Z M3005,889 L2929,834 L3005,779 L3080,834 Z M3033,977 L3109,922 L3080,834 L3005,889 Z M3033,977 L3109,1032 L3184,977 L3109,922 Z M3080,834 L3109,745 L3033,691 L3005,779 Z M3109,922 L3202,922 L3231,834 L3137,834 Z M3137,834 L3231,834 L3202,745 L3109,745 Z M3202,922 L3231,834 L3306,889 L3277,977 Z M3231,834 L3306,779 L3277,691 L3202,745 Z M3231,834 L3306,889 L3381,834 L3306,779 Z M2668,779 L2761,779 L2732,691 L2639,691 Z M2639,691 L2668,602 L2592,547 L2564,636 Z M2639,691 L2732,691 L2761,602 L2668,602 Z M2790,977 L2865,922 L2836,834 L2761,889 Z M2424,316 L2517,316 L2488,227 L2395,227 Z M2291,370 L2320,282 L2245,227 L2216,316 Z M2320,282 L2245,227 L2320,172 L2395,227 Z M2929,1297 L2958,1209 L3033,1264 L3005,1352 Z M3578,1154 L3671,1154 L3643,1066 L3550,1066 Z M3625,1297 L3718,1297 L3747,1209 L3654,1209 Z M3643,1352 L3718,1297 L3747,1386 L3671,1441 Z M3671,1441 L3747,1495 L3822,1441 L3747,1386 Z M3643,1529 L3671,1441 L3747,1495 L3718,1584 Z M3399,1816 L3474,1870 L3550,1816 L3474,1761 Z M3370,1904 L3399,1816 L3474,1870 L3445,1959 Z M3445,1959 L3521,1904 L3550,1993 L3474,2047 Z M3625,1584 L3718,1584 L3747,1672 L3654,1672 Z M3550,1993 L3643,1993 L3671,1904 L3578,1904 Z M3643,1993 L3671,1904 L3747,1959 L3718,2048 Z M3718,2048 L3811,2048 L3840,2136 L3747,2136 Z M3718,2048 L3811,2048 L3840,1959 L3747,1959 Z M3643,2102 L3718,2048 L3747,2136 L3671,2191 Z M3811,2048 L3886,2102 L3962,2047 L3886,1993 Z M3886,1993 L3915,1904 L3990,1959 L3962,2047 Z M3886,2102 L3962,2047 L3990,2136 L3915,2191 Z M3915,1904 L3990,1959 L4066,1904 L3990,1850 Z M3915,2191 L3990,2245 L4066,2191 L3990,2136 Z M3915,2477 L3990,2423 L4019,2511 L3944,2566 Z M3915,2368 L3944,2279 L4019,2334 L3990,2423 Z M3840,2423 L3915,2477 L3990,2423 L3915,2368 Z M3793,2279 L3886,2279 L3915,2368 L3822,2368 Z M3793,2279 L3886,2279 L3915,2191 L3822,2191 Z M3718,2334 L3793,2279 L3822,2368 L3747,2423 Z M3718,2511 L3747,2423 L3822,2477 L3793,2566 Z M3625,2511 L3718,2511 L3747,2423 L3654,2423 Z M3643,2566 L3718,2511 L3747,2600 L3671,2654 Z M3793,2566 L3886,2566 L3915,2654 L3822,2654 Z M3793,2566 L3886,2566 L3915,2477 L3822,2477 Z M3793,2743 L3886,2743 L3915,2831 L3822,2831 Z M3793,2743 L3886,2743 L3915,2654 L3822,2654 Z M3718,2798 L3793,2743 L3822,2831 L3747,2886 Z M3747,2886 L3718,2975 L3793,3029 L3822,2941 Z M3643,2743 L3671,2654 L3747,2709 L3718,2798 Z M3625,2798 L3718,2798 L3747,2886 L3654,2886 Z M3550,2852 L3625,2798 L3654,2886 L3578,2941 Z M3550,2743 L3643,2743 L3671,2654 L3578,2654 Z M3474,2798 L3550,2852 L3625,2798 L3550,2743 Z M3671,2654 L3747,2709 L3822,2654 L3747,2600 Z M3503,2886 L3474,2975 L3550,3029 L3578,2941 Z M3381,2798 L3474,2798 L3445,2886 L3352,2886 Z M3352,2886 L3445,2886 L3474,2975 L3381,2975 Z M3277,2941 L3352,2886 L3381,2975 L3306,3029 Z M3202,2886 L3277,2941 L3352,2886 L3277,2831 Z M3109,2886 L3202,2886 L3231,2975 L3137,2975 Z M3137,2975 L3109,3063 L3184,3118 L3213,3029 Z M3033,2941 L3109,2886 L3137,2975 L3062,3029 Z M2940,2941 L3033,2941 L3005,3029 L2911,3029 Z M2911,3029 L2836,3084 L2865,3173 L2940,3118 Z M2911,3029 L3005,3029 L3033,3118 L2940,3118 Z M2836,2975 L2911,3029 L2836,3084 L2761,3029 Z M2865,3173 L2958,3173 L2929,3261 L2836,3261 Z M2790,3118 L2761,3206 L2836,3261 L2865,3173 Z M2836,3261 L2761,3316 L2790,3404 L2865,3350 Z M2836,3261 L2929,3261 L2958,3350 L2865,3350 Z M3033,3118 L3109,3173 L3184,3118 L3109,3063 Z M3033,3118 L3005,3206 L3080,3261 L3109,3173 Z M3005,3206 L3080,3261 L3005,3316 L2929,3261 Z M3033,3404 L3005,3493 L3080,3548 L3109,3459 Z M3080,3261 L3005,3316 L3033,3404 L3109,3350 Z M3109,3350 L3184,3404 L3109,3459 L3033,3404 Z M3109,3173 L3202,3173 L3231,3261 L3137,3261 Z M3137,3261 L3231,3261 L3202,3350 L3109,3350 Z M3202,3173 L3277,3118 L3306,3206 L3231,3261 Z M3231,3261 L3306,3316 L3381,3261 L3306,3206 Z M3231,3261 L3202,3350 L3277,3404 L3306,3316 Z M3352,3173 L3445,3173 L3474,3261 L3381,3261 Z M3306,3029 L3277,3118 L3352,3173 L3381,3084 Z M3381,3084 L3474,3084 L3445,3173 L3352,3173 Z M3213,3029 L3306,3029 L3277,3118 L3184,3118 Z M3399,3029 L3474,3084 L3550,3029 L3474,2975 Z M3474,3084 L3550,3029 L3578,3118 L3503,3173 Z M3550,3029 L3643,3029 L3671,3118 L3578,3118 Z M3474,3261 L3550,3316 L3625,3261 L3550,3206 Z M3474,3261 L3445,3350 L3521,3404 L3550,3316 Z M3381,3261 L3474,3261 L3445,3350 L3352,3350 Z M3277,3404 L3202,3459 L3231,3548 L3306,3493 Z M3277,3404 L3370,3404 L3399,3493 L3306,3493 Z M3370,3404 L3445,3350 L3474,3438 L3399,3493 Z M3109,3459 L3202,3459 L3231,3548 L3137,3548 Z M3137,3548 L3231,3548 L3202,3636 L3109,3636 Z M3005,3493 L2929,3548 L2958,3636 L3033,3581 Z M3033,3581 L3109,3636 L3033,3691 L2958,3636 Z M2836,3548 L2929,3548 L2958,3636 L2865,3636 Z M2836,3438 L2911,3493 L2836,3548 L2761,3493 Z M2940,3404 L3033,3404 L3005,3493 L2911,3493 Z M2865,3350 L2836,3438 L2911,3493 L2940,3404 Z M2761,3493 L2732,3581 L2807,3636 L2836,3548 Z M2732,3581 L2807,3636 L2732,3691 L2657,3636 Z M2639,3404 L2564,3459 L2592,3548 L2668,3493 Z M2639,3404 L2732,3404 L2761,3493 L2668,3493 Z M2592,3548 L2686,3548 L2657,3636 L2564,3636 Z M2517,3493 L2488,3581 L2564,3636 L2592,3548 Z M2564,3636 L2488,3691 L2517,3779 L2592,3725 Z M2564,3636 L2657,3636 L2686,3725 L2592,3725 Z M2592,3725 L2564,3813 L2639,3868 L2668,3779 Z M2807,3636 L2732,3691 L2761,3779 L2836,3725 Z M2836,3725 L2911,3779 L2836,3834 L2761,3779 Z M2911,3779 L2836,3834 L2865,3923 L2940,3868 Z M2865,3636 L2958,3636 L2929,3725 L2836,3725 Z M2958,3636 L2929,3725 L3005,3779 L3033,3691 Z M2639,3868 L2564,3923 L2592,4011 L2668,3957 Z M2639,3868 L2732,3868 L2761,3957 L2668,3957 Z M2395,3868 L2320,3923 L2349,4011 L2424,3957 Z M2395,3868 L2488,3868 L2517,3957 L2424,3957 Z M2227,3923 L2320,3923 L2291,4011 L2198,4011 Z M2152,3868 L2123,3957 L2198,4011 L2227,3923 Z M2123,3957 L2198,4011 L2123,4066 L2048,4011 Z M1879,3957 L1954,4011 L1879,4066 L1804,4011 Z M1983,3923 L2076,3923 L2048,4011 L1954,4011 Z M1954,3834 L2048,3834 L2076,3923 L1983,3923 Z M1879,3779 L1850,3868 L1926,3923 L1954,3834 Z M1879,3779 L1786,3779 L1757,3868 L1850,3868 Z M2123,3779 L2048,3834 L2076,3923 L2152,3868 Z M2123,3779 L2216,3779 L2245,3868 L2152,3868 Z M2291,3725 L2216,3779 L2245,3868 L2320,3813 Z M2320,3813 L2395,3868 L2320,3923 L2245,3868 Z M2320,3636 L2291,3725 L2367,3779 L2395,3691 Z M2395,3581 L2471,3636 L2395,3691 L2320,3636 Z M2395,3691 L2488,3691 L2517,3779 L2424,3779 Z M2227,3636 L2320,3636 L2291,3725 L2198,3725 Z M2198,3548 L2291,3548 L2320,3636 L2227,3636 Z M2152,3581 L2227,3636 L2152,3691 L2076,3636 Z M2123,3493 L2048,3548 L2076,3636 L2152,3581 Z M2076,3636 L2048,3725 L2123,3779 L2152,3691 Z M1983,3636 L2076,3636 L2048,3725 L1954,3725 Z M1954,3548 L2048,3548 L2076,3636 L1983,3636 Z M1954,3725 L2030,3779 L1954,3834 L1879,3779 Z M1926,3636 L1850,3691 L1879,3779 L1954,3725 Z M1850,3581 L1926,3636 L1850,3691 L1775,3636 Z M1775,3636 L1682,3636 L1711,3725 L1804,3725 Z M1879,3493 L1850,3581 L1926,3636 L1954,3548 Z M1850,3404 L1757,3404 L1786,3493 L1879,3493 Z M1954,3438 L2030,3493 L1954,3548 L1879,3493 Z M1804,3548 L1711,3548 L1682,3636 L1775,3636 Z M1757,3404 L1682,3459 L1711,3548 L1786,3493 Z M1635,3493 L1607,3581 L1682,3636 L1711,3548 Z M1682,3636 L1607,3691 L1635,3779 L1711,3725 Z M1711,3725 L1682,3813 L1757,3868 L1786,3779 Z M1607,3691 L1514,3691 L1485,3779 L1578,3779 Z M1607,3581 L1682,3636 L1607,3691 L1531,3636 Z M1578,3493 L1485,3493 L1514,3581 L1607,3581 Z M1485,3493 L1409,3548 L1438,3636 L1514,3581 Z M1438,3636 L1409,3725 L1485,3779 L1514,3691 Z M1438,3636 L1345,3636 L1316,3725 L1409,3725 Z M1409,3548 L1316,3548 L1345,3636 L1438,3636 Z M1409,3725 L1334,3779 L1363,3868 L1438,3813 Z M1270,3581 L1345,3636 L1270,3691 L1194,3636 Z M1334,3779 L1241,3779 L1270,3868 L1363,3868 Z M1438,3813 L1514,3868 L1438,3923 L1363,3868 Z M1607,3868 L1578,3957 L1653,4011 L1682,3923 Z M1607,3868 L1514,3868 L1485,3957 L1578,3957 Z M1578,3779 L1485,3779 L1514,3868 L1607,3868 Z M1682,3813 L1757,3868 L1682,3923 L1607,3868 Z M1775,3923 L1682,3923 L1711,4011 L1804,4011 Z M1850,3868 L1775,3923 L1804,4011 L1879,3957 Z M1363,3404 L1334,3493 L1409,3548 L1438,3459 Z M1363,3404 L1270,3404 L1241,3493 L1334,3493 Z M1607,3404 L1514,3404 L1485,3493 L1578,3493 Z M1682,3350 L1757,3404 L1682,3459 L1607,3404 Z M1926,3350 L1850,3404 L1879,3493 L1954,3438 Z M1983,3350 L2076,3350 L2048,3438 L1954,3438 Z M2076,3350 L2048,3438 L2123,3493 L2152,3404 Z M2152,3404 L2245,3404 L2216,3493 L2123,3493 Z M2245,3404 L2216,3493 L2291,3548 L2320,3459 Z M2320,3350 L2395,3404 L2320,3459 L2245,3404 Z M2395,3404 L2488,3404 L2517,3493 L2424,3493 Z M2424,3493 L2517,3493 L2488,3581 L2395,3581 Z M2367,3493 L2291,3548 L2320,3636 L2395,3581 Z M2424,3316 L2517,3316 L2488,3404 L2395,3404 Z M2564,3350 L2639,3404 L2564,3459 L2488,3404 Z M2592,3261 L2564,3350 L2639,3404 L2668,3316 Z M2668,3316 L2761,3316 L2732,3404 L2639,3404 Z M2761,3206 L2836,3261 L2761,3316 L2686,3261 Z M2639,3118 L2564,3173 L2592,3261 L2668,3206 Z M2639,3118 L2732,3118 L2761,3206 L2668,3206 Z M2471,3173 L2395,3227 L2424,3316 L2499,3261 Z M2471,3173 L2564,3173 L2592,3261 L2499,3261 Z M2395,3118 L2471,3173 L2395,3227 L2320,3173 Z M2367,3029 L2291,3084 L2320,3173 L2395,3118 Z M2424,3029 L2517,3029 L2488,3118 L2395,3118 Z M2517,3029 L2488,3118 L2564,3173 L2592,3084 Z M2349,3261 L2320,3350 L2395,3404 L2424,3316 Z M2227,3173 L2320,3173 L2291,3261 L2198,3261 Z M2198,3261 L2123,3316 L2152,3404 L2227,3350 Z M2198,3261 L2291,3261 L2320,3350 L2227,3350 Z M2123,3206 L2198,3261 L2123,3316 L2048,3261 Z M1954,3261 L2048,3261 L2076,3350 L1983,3350 Z M2424,3779 L2517,3779 L2488,3868 L2395,3868 Z M2564,3813 L2639,3868 L2564,3923 L2488,3868 Z M2668,3779 L2761,3779 L2732,3868 L2639,3868 Z M3578,3118 L3550,3206 L3625,3261 L3654,3173 Z M3643,3029 L3718,3084 L3793,3029 L3718,2975 Z M3578,2941 L3671,2941 L3643,3029 L3550,3029 Z M3643,2279 L3718,2334 L3793,2279 L3718,2225 Z M3718,2225 L3747,2136 L3822,2191 L3793,2279 Z M3550,2102 L3643,2102 L3671,2191 L3578,2191 Z M1954,261 L2047,261 L2076,172 L1983,172 Z M424,1154 L331,1154 L359,1066 L452,1066 Z M452,1243 L377,1297 L348,1209 L424,1154 Z M499,1209 L528,1120 L452,1066 L424,1154 Z M528,1297 L452,1243 L377,1297 L452,1352 Z M556,1386 L481,1441 L452,1352 L528,1297 Z M621,1297 L528,1297 L556,1209 L650,1209 Z M696,1352 L725,1264 L650,1209 L621,1297 Z M650,1209 L556,1209 L528,1120 L621,1120 Z M800,1209 L725,1154 L650,1209 L725,1264 Z M800,1386 L725,1441 L696,1352 L771,1297 Z M864,1297 L771,1297 L800,1209 L893,1209 Z M893,1386 L800,1386 L771,1297 L864,1297 Z M969,1441 L893,1386 L818,1441 L893,1495 Z M969,1441 L997,1352 L922,1297 L893,1386 Z M1062,1441 L969,1441 L997,1352 L1090,1352 Z M1090,1529 L997,1529 L969,1441 L1062,1441 Z M1212,1441 L1137,1386 L1062,1441 L1137,1495 Z M1212,1441 L1241,1352 L1166,1297 L1137,1386 Z M1241,1529 L1166,1584 L1137,1495 L1212,1441 Z M1316,1297 L1241,1243 L1166,1297 L1241,1352 Z M1363,1441 L1270,1441 L1241,1352 L1334,1352 Z M1409,1297 L1438,1209 L1363,1154 L1334,1243 Z M1438,1386 L1363,1441 L1334,1352 L1409,1297 Z M1334,1243 L1241,1243 L1270,1154 L1363,1154 Z M1503,1297 L1409,1297 L1438,1209 L1531,1209 Z M1578,1352 L1607,1264 L1531,1209 L1503,1297 Z M1607,1154 L1514,1154 L1485,1066 L1578,1066 Z M1682,1209 L1607,1154 L1531,1209 L1607,1264 Z M1682,1209 L1711,1120 L1635,1066 L1607,1154 Z M1711,1120 L1635,1066 L1711,1011 L1786,1066 Z M1804,1297 L1879,1243 L1850,1154 L1775,1209 Z M1804,1297 L1711,1297 L1682,1209 L1775,1209 Z M1850,1154 L1757,1154 L1786,1066 L1879,1066 Z M1775,1386 L1682,1386 L1711,1297 L1804,1297 Z M1682,1386 L1607,1441 L1578,1352 L1653,1297 Z M1607,1441 L1514,1441 L1485,1352 L1578,1352 Z M1514,1441 L1438,1386 L1363,1441 L1438,1495 Z M1635,1066 L1711,1011 L1682,922 L1607,977 Z M1578,1066 L1485,1066 L1514,977 L1607,977 Z M1514,1154 L1438,1209 L1409,1120 L1485,1066 Z M1485,1066 L1409,1011 L1334,1066 L1409,1120 Z M1485,1066 L1514,977 L1438,922 L1409,1011 Z M1334,1529 L1241,1529 L1270,1441 L1363,1441 Z M1137,1672 L1044,1672 L1073,1584 L1166,1584 Z M997,1529 L922,1584 L893,1495 L969,1441 Z M1044,1672 L969,1618 L893,1672 L969,1727 Z M1044,1672 L1073,1584 L997,1529 L969,1618 Z M1073,1761 L997,1816 L969,1727 L1044,1672 Z M893,1672 L800,1672 L771,1584 L864,1584 Z M864,1584 L771,1584 L800,1495 L893,1495 Z M864,1761 L771,1761 L800,1672 L893,1672 Z M800,1672 L725,1618 L650,1672 L725,1727 Z M771,1584 L800,1495 L725,1441 L696,1529 Z M725,1618 L650,1672 L621,1584 L696,1529 Z M800,1850 L725,1904 L696,1816 L771,1761 Z M696,1816 L725,1727 L650,1672 L621,1761 Z M725,1904 L632,1904 L603,1816 L696,1816 Z M621,1761 L528,1761 L556,1672 L650,1672 Z M603,1816 L528,1761 L452,1816 L528,1870 Z M632,1904 L556,1959 L528,1870 L603,1816 Z M528,1761 L452,1816 L424,1727 L499,1672 Z M452,1816 L359,1816 L331,1727 L424,1727 Z M452,1816 L359,1816 L331,1904 L424,1904 Z M528,1584 L452,1529 L377,1584 L452,1639 Z M528,1584 L556,1495 L481,1441 L452,1529 Z M650,1672 L556,1672 L528,1584 L621,1584 Z M696,1529 L603,1529 L632,1441 L725,1441 Z M725,1441 L632,1441 L603,1352 L696,1352 Z M632,1441 L556,1386 L481,1441 L556,1495 Z M452,1529 L359,1529 L331,1441 L424,1441 Z M424,1441 L331,1441 L359,1352 L452,1352 Z M359,1529 L284,1584 L255,1495 L331,1441 Z M331,1441 L255,1386 L180,1441 L255,1495 Z M331,1441 L359,1352 L284,1297 L255,1386 Z M255,1672 L284,1584 L209,1529 L180,1618 Z M284,1761 L209,1816 L180,1727 L255,1672 Z M180,1618 L87,1618 L116,1529 L209,1529 Z M348,1672 L255,1672 L284,1584 L377,1584 Z M424,1727 L452,1639 L377,1584 L348,1672 Z M116,1993 L40,2048 L11,1959 L87,1904 Z M209,1816 L116,1816 L87,1727 L180,1727 Z M209,1816 L116,1816 L87,1904 L180,1904 Z M284,1870 L255,1959 L180,1904 L209,1816 Z M359,1816 L284,1761 L209,1816 L284,1870 Z M359,1993 L284,2048 L255,1959 L331,1904 Z M452,1993 L359,1993 L331,1904 L424,1904 Z M528,2048 L452,1993 L377,2048 L452,2102 Z M556,1959 L528,2048 L452,1993 L481,1904 Z M650,1959 L556,1959 L528,2048 L621,2048 Z M452,2102 L359,2102 L331,2191 L424,2191 Z M359,2102 L331,2191 L255,2136 L284,2048 Z M284,2048 L191,2048 L162,1959 L255,1959 Z M284,2048 L191,2048 L162,2136 L255,2136 Z M191,2048 L116,1993 L40,2048 L116,2102 Z M116,2102 L87,2191 L11,2136 L40,2048 Z M209,2279 L116,2279 L87,2191 L180,2191 Z M209,2279 L116,2279 L87,2368 L180,2368 Z M284,1297 L209,1352 L180,1264 L255,1209 Z M377,1297 L284,1297 L255,1209 L348,1209 Z M800,1959 L771,2048 L696,1993 L725,1904 Z M893,1850 L800,1850 L771,1761 L864,1761 Z M893,1959 L800,1959 L771,2048 L864,2048 Z M969,1904 L893,1850 L818,1904 L893,1959 Z M969,1904 L997,1816 L922,1761 L893,1850 Z M1062,1904 L969,1904 L997,1816 L1090,1816 Z M1531,922 L1607,868 L1578,779 L1503,834 Z M1531,922 L1438,922 L1409,834 L1503,834 Z M1578,779 L1485,779 L1514,691 L1607,691 Z M1607,691 L1514,691 L1485,602 L1578,602 Z M1485,602 L1514,514 L1438,459 L1409,547 Z M1578,602 L1485,602 L1514,514 L1607,514 Z M1607,514 L1531,459 L1607,404 L1682,459 Z M2367,1066 L2395,977 L2320,922 L2291,1011 Z M2152,1441 L2227,1386 L2198,1297 L2123,1352 Z M2395,2368 L2471,2423 L2395,2477 L2320,2423 Z M2395,2368 L2488,2368 L2517,2279 L2424,2279 Z M1804,1761 L1711,1761 L1682,1672 L1775,1672 Z " fill="rgb(208, 0, 0)"/></g></svg>