<?xml version="1.0" encoding="UTF-8"?>
<svg xmlns="http://www.w3.org/2000/svg" xmlns:xlink="http://www.w3.org/1999/xlink" width="98.9858pt" height="82.7716pt" viewBox="0 0 98.9858 82.7716" version="1.1">
<defs>
<clipPath id="clip1">
  <path d="M 1.160156 4 L 98.160156 4 L 98.160156 76 L 1.160156 76 Z M 1.160156 4 "/>
</clipPath>
<clipPath id="clip2">
  <path d="M 1.160156 75 L 96 75 L 96 77 L 1.160156 77 Z M 1.160156 75 "/>
</clipPath>
<clipPath id="clip3">
  <path d="M 5 3 L 6 3 L 6 80.285156 L 5 80.285156 Z M 5 3 "/>
</clipPath>
<clipPath id="clip4">
  <path d="M 3 0.285156 L 8 0.285156 L 8 6 L 3 6 Z M 3 0.285156 "/>
</clipPath>
<clipPath id="clip5">
  <path d="M 0 0 L 98.984375 0 L 98.984375 82.773438 L 0 82.773438 Z M 0 0 "/>
</clipPath>
</defs>
<g id="surface1">
<g clip-path="url(#clip1)" clip-rule="nonzero">
<path style="fill:none;stroke-width:1.2;stroke-linecap:butt;stroke-linejoin:miter;stroke:rgb(12.626648%,33.805847%,68.193054%);stroke-opacity:1;stroke-miterlimit:4;" d="M 99.135156 632.733456 L 188.072656 689.659238 " transform="matrix(1,0,0,-1,-93.6,701.3858)"/>
</g>
<g clip-path="url(#clip2)" clip-rule="nonzero">
<path style="fill:none;stroke-width:0.7;stroke-linecap:butt;stroke-linejoin:miter;stroke:rgb(13.729858%,12.159729%,12.548828%);stroke-opacity:1;stroke-miterlimit:4;" d="M 188.50625 625.053769 L 95.342187 625.053769 " transform="matrix(1,0,0,-1,-93.6,701.3858)"/>
</g>
<path style=" stroke:none;fill-rule:nonzero;fill:rgb(13.729858%,12.159729%,12.548828%);fill-opacity:1;" d="M 97.871094 76.332031 L 93.691406 78.039062 L 94.683594 76.332031 L 93.691406 74.625 L 97.871094 76.332031 "/>
<g clip-path="url(#clip3)" clip-rule="nonzero">
<path style="fill:none;stroke-width:0.7;stroke-linecap:butt;stroke-linejoin:miter;stroke:rgb(13.729858%,12.159729%,12.548828%);stroke-opacity:1;stroke-miterlimit:4;" d="M 99.135156 697.585019 L 99.135156 621.2608 " transform="matrix(1,0,0,-1,-93.6,701.3858)"/>
</g>
<g clip-path="url(#clip4)" clip-rule="nonzero">
<path style=" stroke:none;fill-rule:nonzero;fill:rgb(13.729858%,12.159729%,12.548828%);fill-opacity:1;" d="M 5.535156 0.832031 L 7.242188 5.011719 L 5.535156 4.019531 L 3.828125 5.011719 L 5.535156 0.832031 "/>
</g>
<path style=" stroke:none;fill-rule:nonzero;fill:rgb(93.609619%,18.434143%,17.378235%);fill-opacity:1;" d="M 61.453125 41.355469 C 61.453125 42.457031 60.558594 43.355469 59.453125 43.355469 C 58.351562 43.355469 57.453125 42.457031 57.453125 41.355469 C 57.453125 40.25 58.351562 39.355469 59.453125 39.355469 C 60.558594 39.355469 61.453125 40.25 61.453125 41.355469 "/>
<path style=" stroke:none;fill-rule:nonzero;fill:rgb(93.609619%,18.434143%,17.378235%);fill-opacity:1;" d="M 79.117188 33.429688 C 79.117188 34.535156 78.21875 35.429688 77.117188 35.429688 C 76.011719 35.429688 75.117188 34.535156 75.117188 33.429688 C 75.117188 32.328125 76.011719 31.429688 77.117188 31.429688 C 78.21875 31.429688 79.117188 32.328125 79.117188 33.429688 "/>
<path style=" stroke:none;fill-rule:nonzero;fill:rgb(93.609619%,18.434143%,17.378235%);fill-opacity:1;" d="M 79.117188 26.429688 C 79.117188 27.535156 78.21875 28.429688 77.117188 28.429688 C 76.011719 28.429688 75.117188 27.535156 75.117188 26.429688 C 75.117188 25.324219 76.011719 24.429688 77.117188 24.429688 C 78.21875 24.429688 79.117188 25.324219 79.117188 26.429688 "/>
<path style=" stroke:none;fill-rule:nonzero;fill:rgb(93.609619%,18.434143%,17.378235%);fill-opacity:1;" d="M 52.394531 40.558594 C 52.394531 41.660156 51.496094 42.558594 50.394531 42.558594 C 49.289062 42.558594 48.394531 41.660156 48.394531 40.558594 C 48.394531 39.453125 49.289062 38.558594 50.394531 38.558594 C 51.496094 38.558594 52.394531 39.453125 52.394531 40.558594 "/>
<path style=" stroke:none;fill-rule:nonzero;fill:rgb(93.609619%,18.434143%,17.378235%);fill-opacity:1;" d="M 25.378906 47.859375 C 25.378906 48.964844 24.484375 49.859375 23.378906 49.859375 C 22.273438 49.859375 21.378906 48.964844 21.378906 47.859375 C 21.378906 46.757812 22.273438 45.859375 23.378906 45.859375 C 24.484375 45.859375 25.378906 46.757812 25.378906 47.859375 "/>
<path style=" stroke:none;fill-rule:nonzero;fill:rgb(93.609619%,18.434143%,17.378235%);fill-opacity:1;" d="M 25.378906 46.136719 C 25.378906 47.242188 24.484375 48.136719 23.378906 48.136719 C 22.273438 48.136719 21.378906 47.242188 21.378906 46.136719 C 21.378906 45.035156 22.273438 44.136719 23.378906 44.136719 C 24.484375 44.136719 25.378906 45.035156 25.378906 46.136719 "/>
<path style=" stroke:none;fill-rule:nonzero;fill:rgb(93.609619%,18.434143%,17.378235%);fill-opacity:1;" d="M 16.710938 54.808594 C 16.710938 55.910156 15.8125 56.808594 14.710938 56.808594 C 13.605469 56.808594 12.710938 55.910156 12.710938 54.808594 C 12.710938 53.703125 13.605469 52.808594 14.710938 52.808594 C 15.8125 52.808594 16.710938 53.703125 16.710938 54.808594 "/>
<g clip-path="url(#clip5)" clip-rule="nonzero">
<path style="fill:none;stroke-width:0.5;stroke-linecap:butt;stroke-linejoin:miter;stroke:rgb(100%,100%,100%);stroke-opacity:1;stroke-miterlimit:10;" d="M 41.998437 803.999081 L 41.998437 779.999081 M -0.0015625 761.999081 L 23.998437 761.999081 M 653.998438 803.999081 L 653.998438 779.999081 M 695.998438 761.999081 L 671.998438 761.999081 M 41.998437 -0.00091875 L 41.998437 23.999081 M -0.0015625 41.999081 L 23.998437 41.999081 M 653.998438 -0.00091875 L 653.998438 23.999081 M 695.998438 41.999081 L 671.998438 41.999081 " transform="matrix(1,0,0,-1,-93.6,701.3858)"/>
<path style="fill:none;stroke-width:0.25;stroke-linecap:butt;stroke-linejoin:miter;stroke:rgb(0%,0%,0%);stroke-opacity:1;stroke-miterlimit:10;" d="M 41.998437 803.999081 L 41.998437 779.999081 M -0.0015625 761.999081 L 23.998437 761.999081 M 653.998438 803.999081 L 653.998438 779.999081 M 695.998438 761.999081 L 671.998438 761.999081 M 41.998437 -0.00091875 L 41.998437 23.999081 M -0.0015625 41.999081 L 23.998437 41.999081 M 653.998438 -0.00091875 L 653.998438 23.999081 M 695.998438 41.999081 L 671.998438 41.999081 " transform="matrix(1,0,0,-1,-93.6,701.3858)"/>
<path style="fill:none;stroke-width:0.5;stroke-linecap:butt;stroke-linejoin:miter;stroke:rgb(100%,100%,100%);stroke-opacity:1;stroke-miterlimit:10;" d="M 323.998438 791.999081 L 371.998438 791.999081 M 323.998438 11.999081 L 371.998438 11.999081 M 11.998437 425.999081 L 11.998437 377.999081 M 683.998438 425.999081 L 683.998438 377.999081 M 347.998438 803.999081 L 347.998438 779.999081 M 347.998438 23.999081 L 347.998438 -0.00091875 M -0.0015625 401.999081 L 23.998437 401.999081 M 671.998438 401.999081 L 695.998438 401.999081 M 347.998438 791.999081 L 353.998438 791.999081 C 353.998438 788.686581 351.310938 785.999081 347.998438 785.999081 C 344.689844 785.999081 341.998438 788.686581 341.998438 791.999081 C 341.998438 795.311581 344.689844 797.999081 347.998438 797.999081 C 351.310938 797.999081 353.998438 795.311581 353.998438 791.999081 M 347.998438 11.999081 L 353.998438 11.999081 C 353.998438 8.686581 351.310938 5.999081 347.998438 5.999081 C 344.689844 5.999081 341.998438 8.686581 341.998438 11.999081 C 341.998438 15.311581 344.689844 17.999081 347.998438 17.999081 C 351.310938 17.999081 353.998438 15.311581 353.998438 11.999081 M 11.998437 401.999081 L 17.998437 401.999081 C 17.998437 398.686581 15.310937 395.999081 11.998437 395.999081 C 8.689844 395.999081 5.998437 398.686581 5.998437 401.999081 C 5.998437 405.311581 8.689844 407.999081 11.998437 407.999081 C 15.310937 407.999081 17.998437 405.311581 17.998437 401.999081 M 683.998438 401.999081 L 689.998438 401.999081 C 689.998438 398.686581 687.310938 395.999081 683.998438 395.999081 C 680.689844 395.999081 677.998438 398.686581 677.998438 401.999081 C 677.998438 405.311581 680.689844 407.999081 683.998438 407.999081 C 687.310938 407.999081 689.998438 405.311581 689.998438 401.999081 " transform="matrix(1,0,0,-1,-93.6,701.3858)"/>
<path style="fill:none;stroke-width:0.25;stroke-linecap:butt;stroke-linejoin:miter;stroke:rgb(0%,0%,0%);stroke-opacity:1;stroke-miterlimit:10;" d="M 323.998438 791.999081 L 371.998438 791.999081 M 323.998438 11.999081 L 371.998438 11.999081 M 11.998437 425.999081 L 11.998437 377.999081 M 683.998438 425.999081 L 683.998438 377.999081 M 347.998438 803.999081 L 347.998438 779.999081 M 347.998438 23.999081 L 347.998438 -0.00091875 M -0.0015625 401.999081 L 23.998437 401.999081 M 671.998438 401.999081 L 695.998438 401.999081 M 347.998438 791.999081 L 353.998438 791.999081 C 353.998438 788.686581 351.310938 785.999081 347.998438 785.999081 C 344.689844 785.999081 341.998438 788.686581 341.998438 791.999081 C 341.998438 795.311581 344.689844 797.999081 347.998438 797.999081 C 351.310938 797.999081 353.998438 795.311581 353.998438 791.999081 M 347.998438 11.999081 L 353.998438 11.999081 C 353.998438 8.686581 351.310938 5.999081 347.998438 5.999081 C 344.689844 5.999081 341.998438 8.686581 341.998438 11.999081 C 341.998438 15.311581 344.689844 17.999081 347.998438 17.999081 C 351.310938 17.999081 353.998438 15.311581 353.998438 11.999081 M 11.998437 401.999081 L 17.998437 401.999081 C 17.998437 398.686581 15.310937 395.999081 11.998437 395.999081 C 8.689844 395.999081 5.998437 398.686581 5.998437 401.999081 C 5.998437 405.311581 8.689844 407.999081 11.998437 407.999081 C 15.310937 407.999081 17.998437 405.311581 17.998437 401.999081 M 683.998438 401.999081 L 689.998438 401.999081 C 689.998438 398.686581 687.310938 395.999081 683.998438 395.999081 C 680.689844 395.999081 677.998438 398.686581 677.998438 401.999081 C 677.998438 405.311581 680.689844 407.999081 683.998438 407.999081 C 687.310938 407.999081 689.998438 405.311581 689.998438 401.999081 " transform="matrix(1,0,0,-1,-93.6,701.3858)"/>
</g>
</g>
</svg>
