<?xml version="1.0" encoding="UTF-8"?>
<svg xmlns="http://www.w3.org/2000/svg" xmlns:xlink="http://www.w3.org/1999/xlink" width="106.1859pt" height="108pt" viewBox="0 0 106.1859 108" version="1.1">
<defs>
<clipPath id="clip1">
  <path d="M 101 102 L 105.871094 102 L 105.871094 106 L 101 106 Z M 101 102 "/>
</clipPath>
</defs>
<g id="surface1">
<path style="fill:none;stroke-width:0.35;stroke-linecap:butt;stroke-linejoin:miter;stroke:rgb(74.119568%,73.648071%,73.765564%);stroke-opacity:1;stroke-miterlimit:4;" d="M 232.280644 496.796094 L 232.280644 404.803906 M 241.479863 496.796094 L 241.479863 404.803906 M 250.679081 496.796094 L 250.679081 404.803906 M 259.8783 496.796094 L 259.8783 404.803906 M 269.077519 496.796094 L 269.077519 404.803906 M 278.276738 496.796094 L 278.276738 404.803906 M 287.479863 496.796094 L 287.479863 404.803906 M 296.679081 496.796094 L 296.679081 404.803906 M 305.8783 496.796094 L 305.8783 404.803906 M 315.077519 496.796094 L 315.077519 404.803906 M 223.081425 404.803906 L 315.077519 404.803906 M 223.081425 414.003125 L 315.077519 414.003125 M 223.081425 423.202344 L 315.077519 423.202344 M 223.081425 432.401563 L 315.077519 432.401563 M 223.081425 441.600781 L 315.077519 441.600781 M 223.081425 450.8 L 315.077519 450.8 M 223.081425 459.999219 L 315.077519 459.999219 M 223.081425 469.198438 L 315.077519 469.198438 M 223.081425 478.397656 L 315.077519 478.397656 M 223.081425 487.596875 L 315.077519 487.596875 M 223.081425 496.796094 L 315.077519 496.796094 " transform="matrix(1,0,0,-1,-219.6283,508.8)"/>
<path style="fill:none;stroke-width:0.7;stroke-linecap:butt;stroke-linejoin:miter;stroke:rgb(13.729858%,12.159729%,12.548828%);stroke-opacity:1;stroke-miterlimit:4;" d="M 223.081425 503.83125 L 223.081425 404.803906 " transform="matrix(1,0,0,-1,-219.6283,508.8)"/>
<path style=" stroke:none;fill-rule:nonzero;fill:rgb(13.729858%,12.159729%,12.548828%);fill-opacity:1;" d="M 3.453125 2.003906 L 5.160156 6.183594 L 3.453125 5.191406 L 1.746094 6.183594 L 3.453125 2.003906 "/>
<path style="fill:none;stroke-width:0.7;stroke-linecap:butt;stroke-linejoin:miter;stroke:rgb(13.729858%,12.159729%,12.548828%);stroke-opacity:1;stroke-miterlimit:4;" d="M 223.081425 404.803906 L 322.108769 404.803906 " transform="matrix(1,0,0,-1,-219.6283,508.8)"/>
<g clip-path="url(#clip1)" clip-rule="nonzero">
<path style=" stroke:none;fill-rule:nonzero;fill:rgb(13.729858%,12.159729%,12.548828%);fill-opacity:1;" d="M 105.449219 103.996094 L 101.269531 105.703125 L 102.261719 103.996094 L 101.269531 102.289062 L 105.449219 103.996094 "/>
</g>
<path style="fill:none;stroke-width:1.2;stroke-linecap:butt;stroke-linejoin:miter;stroke:rgb(93.609619%,18.434143%,17.378235%);stroke-opacity:1;stroke-miterlimit:4;" d="M 310.741581 423.569531 C 274.59705 426.725781 245.491581 456.323438 241.897831 492.342969 " transform="matrix(1,0,0,-1,-219.6283,508.8)"/>
<path style=" stroke:none;fill-rule:nonzero;fill:rgb(93.609619%,18.434143%,17.378235%);fill-opacity:1;" d="M 21.851562 12.003906 L 24.871094 17.703125 L 22.300781 16.535156 L 20.015625 18.1875 L 21.851562 12.003906 "/>
<path style=" stroke:none;fill-rule:nonzero;fill:rgb(93.609619%,18.434143%,17.378235%);fill-opacity:1;" d="M 95.335938 85.597656 L 89.175781 87.511719 L 90.800781 85.203125 L 89.601562 82.648438 L 95.335938 85.597656 "/>
<path style="fill:none;stroke-width:0.5;stroke-linecap:butt;stroke-linejoin:miter;stroke:rgb(100%,100%,100%);stroke-opacity:1;stroke-miterlimit:10;" d="M 41.999394 803.999219 L 41.999394 779.999219 M -0.00060625 761.999219 L 23.999394 761.999219 M 653.999394 803.999219 L 653.999394 779.999219 M 695.999394 761.999219 L 671.999394 761.999219 M 41.999394 -0.00078125 L 41.999394 23.999219 M -0.00060625 41.999219 L 23.999394 41.999219 M 653.999394 -0.00078125 L 653.999394 23.999219 M 695.999394 41.999219 L 671.999394 41.999219 " transform="matrix(1,0,0,-1,-219.6283,508.8)"/>
<path style="fill:none;stroke-width:0.25;stroke-linecap:butt;stroke-linejoin:miter;stroke:rgb(0%,0%,0%);stroke-opacity:1;stroke-miterlimit:10;" d="M 41.999394 803.999219 L 41.999394 779.999219 M -0.00060625 761.999219 L 23.999394 761.999219 M 653.999394 803.999219 L 653.999394 779.999219 M 695.999394 761.999219 L 671.999394 761.999219 M 41.999394 -0.00078125 L 41.999394 23.999219 M -0.00060625 41.999219 L 23.999394 41.999219 M 653.999394 -0.00078125 L 653.999394 23.999219 M 695.999394 41.999219 L 671.999394 41.999219 " transform="matrix(1,0,0,-1,-219.6283,508.8)"/>
<path style="fill:none;stroke-width:0.5;stroke-linecap:butt;stroke-linejoin:miter;stroke:rgb(100%,100%,100%);stroke-opacity:1;stroke-miterlimit:10;" d="M 323.999394 791.999219 L 371.999394 791.999219 M 323.999394 11.999219 L 371.999394 11.999219 M 11.999394 425.999219 L 11.999394 377.999219 M 683.999394 425.999219 L 683.999394 377.999219 M 347.999394 803.999219 L 347.999394 779.999219 M 347.999394 23.999219 L 347.999394 -0.00078125 M -0.00060625 401.999219 L 23.999394 401.999219 M 671.999394 401.999219 L 695.999394 401.999219 M 347.999394 791.999219 L 353.999394 791.999219 C 353.999394 788.686719 351.311894 785.999219 347.999394 785.999219 C 344.686894 785.999219 341.999394 788.686719 341.999394 791.999219 C 341.999394 795.311719 344.686894 797.999219 347.999394 797.999219 C 351.311894 797.999219 353.999394 795.311719 353.999394 791.999219 M 347.999394 11.999219 L 353.999394 11.999219 C 353.999394 8.686719 351.311894 5.999219 347.999394 5.999219 C 344.686894 5.999219 341.999394 8.686719 341.999394 11.999219 C 341.999394 15.311719 344.686894 17.999219 347.999394 17.999219 C 351.311894 17.999219 353.999394 15.311719 353.999394 11.999219 M 11.999394 401.999219 L 17.999394 401.999219 C 17.999394 398.686719 15.311894 395.999219 11.999394 395.999219 C 8.686894 395.999219 5.999394 398.686719 5.999394 401.999219 C 5.999394 405.311719 8.686894 407.999219 11.999394 407.999219 C 15.311894 407.999219 17.999394 405.311719 17.999394 401.999219 M 683.999394 401.999219 L 689.999394 401.999219 C 689.999394 398.686719 687.311894 395.999219 683.999394 395.999219 C 680.686894 395.999219 677.999394 398.686719 677.999394 401.999219 C 677.999394 405.311719 680.686894 407.999219 683.999394 407.999219 C 687.311894 407.999219 689.999394 405.311719 689.999394 401.999219 " transform="matrix(1,0,0,-1,-219.6283,508.8)"/>
<path style="fill:none;stroke-width:0.25;stroke-linecap:butt;stroke-linejoin:miter;stroke:rgb(0%,0%,0%);stroke-opacity:1;stroke-miterlimit:10;" d="M 323.999394 791.999219 L 371.999394 791.999219 M 323.999394 11.999219 L 371.999394 11.999219 M 11.999394 425.999219 L 11.999394 377.999219 M 683.999394 425.999219 L 683.999394 377.999219 M 347.999394 803.999219 L 347.999394 779.999219 M 347.999394 23.999219 L 347.999394 -0.00078125 M -0.00060625 401.999219 L 23.999394 401.999219 M 671.999394 401.999219 L 695.999394 401.999219 M 347.999394 791.999219 L 353.999394 791.999219 C 353.999394 788.686719 351.311894 785.999219 347.999394 785.999219 C 344.686894 785.999219 341.999394 788.686719 341.999394 791.999219 C 341.999394 795.311719 344.686894 797.999219 347.999394 797.999219 C 351.311894 797.999219 353.999394 795.311719 353.999394 791.999219 M 347.999394 11.999219 L 353.999394 11.999219 C 353.999394 8.686719 351.311894 5.999219 347.999394 5.999219 C 344.686894 5.999219 341.999394 8.686719 341.999394 11.999219 C 341.999394 15.311719 344.686894 17.999219 347.999394 17.999219 C 351.311894 17.999219 353.999394 15.311719 353.999394 11.999219 M 11.999394 401.999219 L 17.999394 401.999219 C 17.999394 398.686719 15.311894 395.999219 11.999394 395.999219 C 8.686894 395.999219 5.999394 398.686719 5.999394 401.999219 C 5.999394 405.311719 8.686894 407.999219 11.999394 407.999219 C 15.311894 407.999219 17.999394 405.311719 17.999394 401.999219 M 683.999394 401.999219 L 689.999394 401.999219 C 689.999394 398.686719 687.311894 395.999219 683.999394 395.999219 C 680.686894 395.999219 677.999394 398.686719 677.999394 401.999219 C 677.999394 405.311719 680.686894 407.999219 683.999394 407.999219 C 687.311894 407.999219 689.999394 405.311719 689.999394 401.999219 " transform="matrix(1,0,0,-1,-219.6283,508.8)"/>
</g>
</svg>
