<?xml version="1.0" encoding="UTF-8"?>
<svg xmlns="http://www.w3.org/2000/svg" xmlns:xlink="http://www.w3.org/1999/xlink" width="84.6425pt" height="34.1859pt" viewBox="0 0 84.6425 34.1859" version="1.1">
<defs>
<clipPath id="clip1">
  <path d="M 18 7 L 22 7 L 22 32.773438 L 18 32.773438 Z M 18 7 "/>
</clipPath>
<clipPath id="clip2">
  <path d="M 61 7 L 64 7 L 64 32.773438 L 61 32.773438 Z M 61 7 "/>
</clipPath>
<clipPath id="clip3">
  <path d="M 21 6 L 61 6 L 61 32.773438 L 21 32.773438 Z M 21 6 "/>
</clipPath>
<clipPath id="clip4">
  <path d="M 20 6 L 62 6 L 62 32.773438 L 20 32.773438 Z M 20 6 "/>
</clipPath>
<clipPath id="clip5">
  <path d="M 1.214844 3 L 82 3 L 82 10 L 1.214844 10 Z M 1.214844 3 "/>
</clipPath>
<clipPath id="clip6">
  <path d="M 20 24 L 62 24 L 62 32.773438 L 20 32.773438 Z M 20 24 "/>
</clipPath>
<clipPath id="clip7">
  <path d="M 19 28 L 45 28 L 45 32.773438 L 19 32.773438 Z M 19 28 "/>
</clipPath>
<clipPath id="clip8">
  <path d="M 38 28 L 63 28 L 63 32.773438 L 38 32.773438 Z M 38 28 "/>
</clipPath>
<clipPath id="clip9">
  <path d="M 22 29 L 63 29 L 63 32.773438 L 22 32.773438 Z M 22 29 "/>
</clipPath>
<clipPath id="clip10">
  <path d="M 1.214844 2.773438 L 82.214844 2.773438 L 82.214844 14 L 1.214844 14 Z M 1.214844 2.773438 "/>
</clipPath>
</defs>
<g id="surface1">
<g clip-path="url(#clip1)" clip-rule="nonzero">
<path style=" stroke:none;fill-rule:nonzero;fill:rgb(13.729858%,12.159729%,12.548828%);fill-opacity:1;" d="M 18.964844 7.265625 L 21.214844 7.265625 L 21.214844 32.515625 L 18.964844 32.515625 Z M 18.964844 7.265625 "/>
</g>
<g clip-path="url(#clip2)" clip-rule="nonzero">
<path style=" stroke:none;fill-rule:nonzero;fill:rgb(13.729858%,12.159729%,12.548828%);fill-opacity:1;" d="M 61.054688 7.265625 L 63.304688 7.265625 L 63.304688 32.515625 L 61.054688 32.515625 Z M 61.054688 7.265625 "/>
</g>
<g clip-path="url(#clip3)" clip-rule="nonzero">
<path style=" stroke:none;fill-rule:nonzero;fill:rgb(99.629211%,94.355774%,83.189392%);fill-opacity:1;" d="M 21.03125 6.601562 L 60.867188 6.601562 L 60.867188 32.265625 L 21.03125 32.265625 Z M 21.03125 6.601562 "/>
</g>
<g clip-path="url(#clip4)" clip-rule="nonzero">
<path style="fill:none;stroke-width:0.5;stroke-linecap:butt;stroke-linejoin:miter;stroke:rgb(13.729858%,12.159729%,12.548828%);stroke-opacity:1;stroke-miterlimit:4;" d="M 112.81705 239.370137 L 152.652987 239.370137 L 152.652987 213.706075 L 112.81705 213.706075 Z M 112.81705 239.370137 " transform="matrix(1,0,0,-1,-91.7858,245.9717)"/>
</g>
<g clip-path="url(#clip5)" clip-rule="nonzero">
<path style=" stroke:none;fill-rule:nonzero;fill:rgb(70.001221%,90.351868%,98.118591%);fill-opacity:1;" d="M 81.867188 9.59375 C 79.273438 9.863281 79.53125 9.886719 73.53125 9.234375 C 64.589844 8.257812 57.367188 9.234375 51.699219 9.523438 C 46.03125 9.8125 40.199219 10.03125 36.699219 8.871094 C 33.199219 7.707031 29.199219 7.417969 22.699219 7.925781 C 16.199219 8.433594 9.867188 8.363281 1.367188 8.214844 L 1.367188 3.949219 C 9.867188 4.09375 16.199219 4.167969 22.699219 3.660156 C 29.199219 3.152344 33.199219 3.441406 36.699219 4.601562 C 40.199219 5.765625 46.03125 5.546875 51.699219 5.253906 C 57.367188 4.964844 64.589844 3.992188 73.53125 4.964844 C 79.53125 5.617188 79.273438 5.59375 81.867188 5.328125 L 81.867188 9.59375 "/>
</g>
<g clip-path="url(#clip6)" clip-rule="nonzero">
<path style="fill:none;stroke-width:0.5;stroke-linecap:butt;stroke-linejoin:miter;stroke:rgb(13.729858%,12.159729%,12.548828%);stroke-opacity:1;stroke-miterlimit:4;" d="M 112.777987 221.163106 L 120.215487 221.163106 L 120.215487 213.725606 L 112.777987 213.725606 Z M 145.215487 221.163106 L 152.652987 221.163106 L 152.652987 213.725606 L 145.215487 213.725606 Z M 145.215487 221.163106 " transform="matrix(1,0,0,-1,-91.7858,245.9717)"/>
</g>
<g clip-path="url(#clip7)" clip-rule="nonzero">
<path style="fill:none;stroke-width:0.25;stroke-linecap:round;stroke-linejoin:miter;stroke:rgb(13.729858%,12.159729%,12.548828%);stroke-opacity:1;stroke-miterlimit:4;" d="M 112.902987 214.987325 C 113.090487 214.549825 112.902987 214.112325 112.965487 213.674825 C 112.902987 214.112325 113.090487 214.487325 112.965487 214.987325 C 112.902987 215.174825 113.090487 215.362325 113.027987 215.549825 M 113.527987 213.698262 C 113.590487 214.260762 113.840487 214.823262 114.402987 215.135762 M 113.215487 213.678731 C 113.152987 214.178731 113.277987 214.678731 113.340487 215.178731 M 114.152987 213.678731 C 114.152987 214.053731 114.027987 214.428731 114.090487 214.803731 M 114.402987 214.667012 C 114.527987 214.354512 114.965487 214.104512 114.840487 213.729512 C 115.047519 214.350606 115.527987 214.979512 116.152987 215.417012 M 115.965487 213.733419 C 115.715487 214.170919 115.277987 214.420919 114.902987 214.733419 M 114.527987 213.741231 C 114.090487 214.116231 113.777987 214.553731 113.465487 214.991231 M 116.152987 213.694356 C 116.090487 214.069356 115.902987 214.319356 115.965487 214.694356 M 116.840487 213.682637 C 116.777987 214.245137 117.027987 214.807637 117.527987 215.120137 M 116.465487 213.694356 C 116.527987 214.381856 117.090487 214.881856 117.652987 215.256856 M 117.840487 213.717794 C 117.652987 214.092794 117.402987 214.467794 117.215487 214.842794 M 118.777987 213.702169 C 118.465487 214.202169 118.277987 214.768575 118.152987 215.327169 M 118.777987 214.7842 C 118.902987 214.4092 119.090487 214.0342 119.340487 213.7217 C 119.231112 213.862325 119.340487 214.2217 119.340487 214.4717 M 118.527987 213.694356 C 118.652987 214.256856 118.777987 214.881856 118.965487 215.444356 M 117.965487 213.674825 C 117.902987 214.112325 118.090487 214.549825 117.902987 214.987325 M 118.340487 213.667012 C 118.340487 213.979512 118.340487 214.354512 118.340487 214.667012 M 117.402987 213.620137 C 117.340487 213.932637 117.340487 214.245137 117.215487 214.495137 M 119.777987 213.69045 C 119.902987 214.19045 119.527987 214.62795 119.465487 215.12795 M 122.402987 214.151387 C 122.277987 214.338887 122.090487 214.463887 121.965487 214.651387 C 121.527987 215.088887 120.965487 215.526387 120.215487 215.588887 C 120.9108 215.530294 120.652987 214.213887 121.152987 213.713887 M 122.027987 214.698262 C 122.027987 214.385762 122.027987 214.010762 122.152987 213.698262 C 122.027987 214.010762 121.965487 214.323262 121.965487 214.698262 C 122.027987 214.885762 121.840487 215.073262 121.777987 215.323262 M 121.715487 213.706075 C 121.715487 214.206075 121.090487 214.768575 121.215487 214.956075 C 120.992831 214.620137 120.590487 214.331075 120.652987 213.893575 M 119.152987 213.674825 C 119.152987 213.924825 119.090487 214.237325 119.215487 214.487325 C 119.215487 214.549825 119.465487 214.487325 119.590487 214.737325 M 123.402987 213.7217 C 123.090487 214.2217 122.715487 214.6592 122.402987 215.1592 M 122.152987 213.678731 C 122.277987 214.053731 122.090487 214.491231 122.465487 214.741231 M 122.902987 213.717794 C 123.152987 214.092794 123.277987 214.592794 123.715487 214.717794 M 124.277987 213.631856 C 124.215487 213.944356 124.465487 214.131856 124.715487 214.319356 M 125.715487 214.206075 C 125.402987 214.081075 125.027987 214.081075 124.902987 213.706075 C 124.902987 213.706075 124.840487 213.706075 124.777987 213.706075 C 124.590487 213.706075 124.465487 214.206075 124.340487 214.456075 M 123.215487 215.417012 C 123.465487 214.854512 123.402987 214.167012 123.902987 213.729512 C 123.770175 213.8467 123.902987 214.354512 123.902987 214.667012 M 124.340487 213.682637 C 124.277987 213.995137 124.215487 214.182637 124.215487 214.495137 C 124.215487 214.620137 124.027987 214.682637 124.027987 214.870137 M 125.152987 213.612325 C 125.090487 213.862325 125.090487 214.112325 125.090487 214.362325 M 125.652987 214.827169 C 125.652987 214.452169 125.840487 214.077169 125.965487 213.702169 C 125.820956 214.135762 125.840487 214.639669 125.527987 215.014669 M 124.777987 213.670919 C 124.840487 214.045919 124.715487 214.483419 124.715487 214.858419 M 120.465487 213.7217 C 120.465487 214.2842 121.152987 214.4717 121.527987 214.7842 M 120.965487 213.858419 C 120.965487 214.108419 120.840487 214.545919 121.027987 214.670919 C 120.652987 214.420919 120.027987 214.233419 120.215487 213.670919 M 119.590487 213.698262 C 119.652987 214.073262 119.840487 214.385762 119.965487 214.698262 M 125.527987 214.987325 C 125.715487 214.549825 125.527987 214.112325 125.590487 213.674825 C 125.527987 214.112325 125.715487 214.487325 125.590487 214.987325 C 125.527987 215.174825 125.715487 215.362325 125.652987 215.549825 M 126.152987 213.698262 C 126.215487 214.260762 126.465487 214.823262 127.027987 215.135762 M 125.840487 213.678731 C 125.777987 214.178731 125.902987 214.678731 125.965487 215.178731 M 126.777987 213.678731 C 126.777987 214.053731 126.652987 214.428731 126.715487 214.803731 M 127.027987 214.667012 C 127.152987 214.354512 127.590487 214.104512 127.465487 213.729512 C 127.672519 214.350606 128.152987 214.979512 128.777987 215.417012 M 128.590487 213.733419 C 128.340487 214.170919 127.902987 214.420919 127.527987 214.733419 M 127.152987 213.741231 C 126.715487 214.116231 126.402987 214.553731 126.090487 214.991231 M 128.777987 213.694356 C 128.715487 214.069356 128.527987 214.319356 128.590487 214.694356 M 129.465487 213.682637 C 129.402987 214.245137 129.652987 214.807637 130.152987 215.120137 M 129.090487 213.694356 C 129.152987 214.381856 129.715487 214.881856 130.277987 215.256856 M 130.465487 213.717794 C 130.277987 214.092794 130.027987 214.467794 129.840487 214.842794 M 131.402987 213.702169 C 131.090487 214.202169 130.902987 214.768575 130.777987 215.327169 M 131.402987 214.7842 C 131.527987 214.4092 131.715487 214.0342 131.965487 213.7217 C 131.856112 213.862325 131.965487 214.2217 131.965487 214.4717 M 131.152987 213.694356 C 131.277987 214.256856 131.402987 214.881856 131.590487 215.444356 M 130.590487 213.674825 C 130.527987 214.112325 130.715487 214.549825 130.527987 214.987325 M 130.965487 213.667012 C 130.965487 213.979512 130.965487 214.354512 130.965487 214.667012 M 132.402987 213.69045 C 132.527987 214.19045 132.152987 214.62795 132.090487 215.12795 M 135.027987 214.151387 C 134.902987 214.338887 134.715487 214.463887 134.590487 214.651387 C 134.152987 215.088887 133.590487 215.526387 132.840487 215.588887 C 133.5358 215.530294 133.277987 214.213887 133.777987 213.713887 " transform="matrix(1,0,0,-1,-91.7858,245.9717)"/>
</g>
<g clip-path="url(#clip8)" clip-rule="nonzero">
<path style="fill:none;stroke-width:0.25;stroke-linecap:round;stroke-linejoin:miter;stroke:rgb(13.729858%,12.159729%,12.548828%);stroke-opacity:1;stroke-miterlimit:4;" d="M 134.652987 214.698262 C 134.652987 214.385762 134.652987 214.010762 134.777987 213.698262 C 134.652987 214.010762 134.590487 214.323262 134.590487 214.698262 C 134.652987 214.885762 134.465487 215.073262 134.402987 215.323262 M 134.340487 213.706075 C 134.340487 214.206075 133.715487 214.768575 133.840487 214.956075 C 133.617831 214.620137 133.215487 214.331075 133.277987 213.893575 M 131.777987 213.674825 C 131.777987 213.924825 131.715487 214.237325 131.840487 214.487325 C 131.840487 214.549825 132.090487 214.487325 132.215487 214.737325 M 136.027987 213.7217 C 135.715487 214.2217 135.340487 214.6592 135.027987 215.1592 M 134.777987 213.678731 C 134.902987 214.053731 134.715487 214.491231 135.090487 214.741231 M 135.527987 213.717794 C 135.777987 214.092794 135.902987 214.592794 136.340487 214.717794 M 135.840487 215.417012 C 136.090487 214.854512 136.027987 214.167012 136.527987 213.729512 C 136.395175 213.8467 136.527987 214.354512 136.527987 214.667012 M 136.965487 213.682637 C 136.902987 213.995137 136.840487 214.182637 136.840487 214.495137 C 136.840487 214.620137 136.652987 214.682637 136.652987 214.870137 M 138.277987 214.827169 C 138.277987 214.452169 138.465487 214.077169 138.590487 213.702169 C 138.445956 214.135762 138.465487 214.639669 138.152987 215.014669 M 137.402987 213.670919 C 137.465487 214.045919 137.340487 214.483419 137.340487 214.858419 M 133.090487 213.7217 C 133.090487 214.2842 133.777987 214.4717 134.152987 214.7842 M 133.590487 213.858419 C 133.590487 214.108419 133.465487 214.545919 133.652987 214.670919 C 133.277987 214.420919 132.652987 214.233419 132.840487 213.670919 M 132.215487 213.698262 C 132.277987 214.073262 132.465487 214.385762 132.590487 214.698262 M 137.527987 214.987325 C 137.715487 214.549825 137.527987 214.112325 137.590487 213.674825 C 137.527987 214.112325 137.715487 214.487325 137.590487 214.987325 C 137.527987 215.174825 137.715487 215.362325 137.652987 215.549825 M 138.152987 213.698262 C 138.215487 214.260762 138.465487 214.823262 139.027987 215.135762 M 137.840487 213.678731 C 137.777987 214.178731 137.902987 214.678731 137.965487 215.178731 M 138.777987 213.678731 C 138.777987 214.053731 138.652987 214.428731 138.715487 214.803731 M 139.027987 214.667012 C 139.152987 214.354512 139.590487 214.104512 139.465487 213.729512 C 139.672519 214.350606 140.152987 214.979512 140.777987 215.417012 M 140.590487 213.733419 C 140.340487 214.170919 139.902987 214.420919 139.527987 214.733419 M 139.152987 213.741231 C 138.715487 214.116231 138.402987 214.553731 138.090487 214.991231 M 140.777987 213.694356 C 140.715487 214.069356 140.527987 214.319356 140.590487 214.694356 M 141.465487 213.682637 C 141.402987 214.245137 141.652987 214.807637 142.152987 215.120137 M 141.090487 213.694356 C 141.152987 214.381856 141.715487 214.881856 142.277987 215.256856 M 142.465487 213.717794 C 142.277987 214.092794 142.027987 214.467794 141.840487 214.842794 M 143.402987 213.702169 C 143.090487 214.202169 142.902987 214.768575 142.777987 215.327169 M 143.402987 214.7842 C 143.527987 214.4092 143.715487 214.0342 143.965487 213.7217 C 143.856112 213.862325 143.965487 214.2217 143.965487 214.4717 M 143.152987 213.694356 C 143.277987 214.256856 143.402987 214.881856 143.590487 215.444356 M 142.590487 213.674825 C 142.527987 214.112325 142.715487 214.549825 142.527987 214.987325 M 142.965487 213.667012 C 142.965487 213.979512 142.965487 214.354512 142.965487 214.667012 M 144.402987 213.69045 C 144.527987 214.19045 144.152987 214.62795 144.090487 215.12795 M 147.027987 214.151387 C 146.902987 214.338887 146.715487 214.463887 146.590487 214.651387 C 146.152987 215.088887 145.590487 215.526387 144.840487 215.588887 C 145.5358 215.530294 145.277987 214.213887 145.777987 213.713887 M 146.652987 214.698262 C 146.652987 214.385762 146.652987 214.010762 146.777987 213.698262 C 146.652987 214.010762 146.590487 214.323262 146.590487 214.698262 C 146.652987 214.885762 146.465487 215.073262 146.402987 215.323262 M 146.340487 213.706075 C 146.340487 214.206075 145.715487 214.768575 145.840487 214.956075 C 145.617831 214.620137 145.215487 214.331075 145.277987 213.893575 M 143.777987 213.674825 C 143.777987 213.924825 143.715487 214.237325 143.840487 214.487325 C 143.840487 214.549825 144.090487 214.487325 144.215487 214.737325 M 148.027987 213.7217 C 147.715487 214.2217 147.340487 214.6592 147.027987 215.1592 M 146.777987 213.678731 C 146.902987 214.053731 146.715487 214.491231 147.090487 214.741231 M 147.527987 213.717794 C 147.777987 214.092794 147.902987 214.592794 148.340487 214.717794 M 147.840487 215.417012 C 148.090487 214.854512 148.027987 214.167012 148.527987 213.729512 C 148.395175 213.8467 148.527987 214.354512 148.527987 214.667012 M 148.965487 213.682637 C 148.902987 213.995137 148.840487 214.182637 148.840487 214.495137 C 148.840487 214.620137 148.652987 214.682637 148.652987 214.870137 M 150.277987 214.827169 C 150.277987 214.452169 150.465487 214.077169 150.590487 213.702169 C 150.445956 214.135762 150.465487 214.639669 150.152987 215.014669 M 149.402987 213.670919 C 149.465487 214.045919 149.340487 214.483419 149.340487 214.858419 M 145.090487 213.7217 C 145.090487 214.2842 145.777987 214.4717 146.152987 214.7842 M 145.590487 213.858419 C 145.590487 214.108419 145.465487 214.545919 145.652987 214.670919 C 145.277987 214.420919 144.652987 214.233419 144.840487 213.670919 M 144.215487 213.698262 C 144.277987 214.073262 144.465487 214.385762 144.590487 214.698262 M 149.027987 214.987325 C 149.215487 214.549825 149.027987 214.112325 149.090487 213.674825 C 149.027987 214.112325 149.215487 214.487325 149.090487 214.987325 C 149.027987 215.174825 149.215487 215.362325 149.152987 215.549825 M 149.652987 213.698262 C 149.715487 214.260762 149.965487 214.823262 150.527987 215.135762 M 149.340487 213.678731 C 149.277987 214.178731 149.402987 214.678731 149.465487 215.178731 M 150.277987 213.678731 C 150.277987 214.053731 150.152987 214.428731 150.215487 214.803731 M 150.527987 214.667012 C 150.652987 214.354512 151.090487 214.104512 150.965487 213.729512 C 151.172519 214.350606 151.652987 214.979512 152.277987 215.417012 M 152.090487 213.733419 C 151.840487 214.170919 151.402987 214.420919 151.027987 214.733419 M 150.652987 213.741231 C 150.215487 214.116231 149.902987 214.553731 149.590487 214.991231 M 152.527987 213.694356 C 152.465487 214.069356 152.277987 214.319356 152.340487 214.694356 " transform="matrix(1,0,0,-1,-91.7858,245.9717)"/>
</g>
<g clip-path="url(#clip9)" clip-rule="nonzero">
<path style="fill:none;stroke-width:0.25;stroke-linecap:round;stroke-linejoin:miter;stroke:rgb(13.729858%,12.159729%,12.548828%);stroke-opacity:1;stroke-miterlimit:4;" d="M 151.840487 213.682637 C 151.777987 214.245137 152.027987 214.807637 152.527987 215.120137 M 115.715487 213.678731 C 115.715487 213.987325 116.027987 214.112325 116.277987 214.237325 " transform="matrix(1,0,0,-1,-91.7858,245.9717)"/>
</g>
<g clip-path="url(#clip10)" clip-rule="nonzero">
<path style="fill:none;stroke-width:0.7;stroke-linecap:butt;stroke-linejoin:miter;stroke:rgb(13.729858%,12.159729%,12.548828%);stroke-opacity:1;stroke-miterlimit:4;" d="M 93.152987 242.022481 C 101.652987 241.87795 107.985019 241.803731 114.485019 242.311544 C 120.985019 242.819356 124.985019 242.530294 128.485019 241.370137 C 131.985019 240.206075 137.81705 240.424825 143.485019 240.717794 C 149.152987 241.006856 156.375644 241.979512 165.31705 241.006856 C 171.31705 240.354512 171.059237 240.37795 173.652987 240.643575 M 173.652987 236.37795 C 171.059237 236.108419 171.31705 236.084981 165.31705 236.737325 C 156.375644 237.713887 149.152987 236.737325 143.485019 236.448262 C 137.81705 236.1592 131.985019 235.94045 128.485019 237.100606 C 124.985019 238.264669 120.985019 238.553731 114.485019 238.045919 C 107.985019 237.538106 101.652987 237.608419 93.152987 237.756856 " transform="matrix(1,0,0,-1,-91.7858,245.9717)"/>
</g>
<path style="fill:none;stroke-width:0.5;stroke-linecap:butt;stroke-linejoin:miter;stroke:rgb(100%,100%,100%);stroke-opacity:1;stroke-miterlimit:10;" d="M 42.000644 803.999044 L 42.000644 779.999044 M 0.00064375 761.999044 L 24.000644 761.999044 M 654.000644 803.999044 L 654.000644 779.999044 M 696.000644 761.999044 L 672.000644 761.999044 M 42.000644 -0.00095625 L 42.000644 23.999044 M 0.00064375 41.999044 L 24.000644 41.999044 M 654.000644 -0.00095625 L 654.000644 23.999044 M 696.000644 41.999044 L 672.000644 41.999044 " transform="matrix(1,0,0,-1,-91.7858,245.9717)"/>
<path style="fill:none;stroke-width:0.25;stroke-linecap:butt;stroke-linejoin:miter;stroke:rgb(0%,0%,0%);stroke-opacity:1;stroke-miterlimit:10;" d="M 42.000644 803.999044 L 42.000644 779.999044 M 0.00064375 761.999044 L 24.000644 761.999044 M 654.000644 803.999044 L 654.000644 779.999044 M 696.000644 761.999044 L 672.000644 761.999044 M 42.000644 -0.00095625 L 42.000644 23.999044 M 0.00064375 41.999044 L 24.000644 41.999044 M 654.000644 -0.00095625 L 654.000644 23.999044 M 696.000644 41.999044 L 672.000644 41.999044 " transform="matrix(1,0,0,-1,-91.7858,245.9717)"/>
<path style="fill:none;stroke-width:0.5;stroke-linecap:butt;stroke-linejoin:miter;stroke:rgb(100%,100%,100%);stroke-opacity:1;stroke-miterlimit:10;" d="M 324.000644 791.999044 L 372.000644 791.999044 M 324.000644 11.999044 L 372.000644 11.999044 M 12.000644 425.999044 L 12.000644 377.999044 M 684.000644 425.999044 L 684.000644 377.999044 M 348.000644 803.999044 L 348.000644 779.999044 M 348.000644 23.999044 L 348.000644 -0.00095625 M 0.00064375 401.999044 L 24.000644 401.999044 M 672.000644 401.999044 L 696.000644 401.999044 M 348.000644 791.999044 L 354.000644 791.999044 C 354.000644 788.686544 351.313144 785.999044 348.000644 785.999044 C 344.688144 785.999044 342.000644 788.686544 342.000644 791.999044 C 342.000644 795.311544 344.688144 797.999044 348.000644 797.999044 C 351.313144 797.999044 354.000644 795.311544 354.000644 791.999044 M 348.000644 11.999044 L 354.000644 11.999044 C 354.000644 8.686544 351.313144 5.999044 348.000644 5.999044 C 344.688144 5.999044 342.000644 8.686544 342.000644 11.999044 C 342.000644 15.311544 344.688144 17.999044 348.000644 17.999044 C 351.313144 17.999044 354.000644 15.311544 354.000644 11.999044 M 12.000644 401.999044 L 18.000644 401.999044 C 18.000644 398.686544 15.313144 395.999044 12.000644 395.999044 C 8.688144 395.999044 6.000644 398.686544 6.000644 401.999044 C 6.000644 405.311544 8.688144 407.999044 12.000644 407.999044 C 15.313144 407.999044 18.000644 405.311544 18.000644 401.999044 M 684.000644 401.999044 L 690.000644 401.999044 C 690.000644 398.686544 687.313144 395.999044 684.000644 395.999044 C 680.688144 395.999044 678.000644 398.686544 678.000644 401.999044 C 678.000644 405.311544 680.688144 407.999044 684.000644 407.999044 C 687.313144 407.999044 690.000644 405.311544 690.000644 401.999044 " transform="matrix(1,0,0,-1,-91.7858,245.9717)"/>
<path style="fill:none;stroke-width:0.25;stroke-linecap:butt;stroke-linejoin:miter;stroke:rgb(0%,0%,0%);stroke-opacity:1;stroke-miterlimit:10;" d="M 324.000644 791.999044 L 372.000644 791.999044 M 324.000644 11.999044 L 372.000644 11.999044 M 12.000644 425.999044 L 12.000644 377.999044 M 684.000644 425.999044 L 684.000644 377.999044 M 348.000644 803.999044 L 348.000644 779.999044 M 348.000644 23.999044 L 348.000644 -0.00095625 M 0.00064375 401.999044 L 24.000644 401.999044 M 672.000644 401.999044 L 696.000644 401.999044 M 348.000644 791.999044 L 354.000644 791.999044 C 354.000644 788.686544 351.313144 785.999044 348.000644 785.999044 C 344.688144 785.999044 342.000644 788.686544 342.000644 791.999044 C 342.000644 795.311544 344.688144 797.999044 348.000644 797.999044 C 351.313144 797.999044 354.000644 795.311544 354.000644 791.999044 M 348.000644 11.999044 L 354.000644 11.999044 C 354.000644 8.686544 351.313144 5.999044 348.000644 5.999044 C 344.688144 5.999044 342.000644 8.686544 342.000644 11.999044 C 342.000644 15.311544 344.688144 17.999044 348.000644 17.999044 C 351.313144 17.999044 354.000644 15.311544 354.000644 11.999044 M 12.000644 401.999044 L 18.000644 401.999044 C 18.000644 398.686544 15.313144 395.999044 12.000644 395.999044 C 8.688144 395.999044 6.000644 398.686544 6.000644 401.999044 C 6.000644 405.311544 8.688144 407.999044 12.000644 407.999044 C 15.313144 407.999044 18.000644 405.311544 18.000644 401.999044 M 684.000644 401.999044 L 690.000644 401.999044 C 690.000644 398.686544 687.313144 395.999044 684.000644 395.999044 C 680.688144 395.999044 678.000644 398.686544 678.000644 401.999044 C 678.000644 405.311544 680.688144 407.999044 684.000644 407.999044 C 687.313144 407.999044 690.000644 405.311544 690.000644 401.999044 " transform="matrix(1,0,0,-1,-91.7858,245.9717)"/>
</g>
</svg>
