<?xml version="1.0" encoding="utf-8" standalone="no"?>
<!DOCTYPE svg PUBLIC "-//W3C//DTD SVG 1.1//EN"
  "http://www.w3.org/Graphics/SVG/1.1/DTD/svg11.dtd">
<svg xmlns:xlink="http://www.w3.org/1999/xlink" width="282.852218pt" height="287.565031pt" viewBox="0 0 282.852218 287.565031" xmlns="http://www.w3.org/2000/svg" version="1.1">
 <metadata>
  <rdf:RDF xmlns:dc="http://purl.org/dc/elements/1.1/" xmlns:cc="http://creativecommons.org/ns#" xmlns:rdf="http://www.w3.org/1999/02/22-rdf-syntax-ns#">
   <cc:Work>
    <dc:type rdf:resource="http://purl.org/dc/dcmitype/StillImage"/>
    <dc:date>2023-08-03T14:45:13.648230</dc:date>
    <dc:format>image/svg+xml</dc:format>
    <dc:creator>
     <cc:Agent>
      <dc:title>Matplotlib v3.5.1, https://matplotlib.org/</dc:title>
     </cc:Agent>
    </dc:creator>
   </cc:Work>
  </rdf:RDF>
 </metadata>
 <defs>
  <style type="text/css">*{stroke-linejoin: round; stroke-linecap: butt}</style>
 </defs>
 <g id="figure_1">
  <g id="patch_1">
   <path d="M 0 287.565031 
L 282.852218 287.565031 
L 282.852218 0 
L 0 0 
L 0 287.565031 
z
" style="fill: none"/>
  </g>
  <g id="axes_1">
   <g id="patch_2">
    <path d="M 9.79068 279.266538 
L 258.372218 279.266538 
L 258.372218 30.685 
L 9.79068 30.685 
z
" style="fill: #ffffff"/>
   </g>
   <g id="matplotlib.axis_1">
    <g id="xtick_1">
     <g id="line2d_1">
      <defs>
       <path id="me36cb96355" d="M 0 0 
L 0 3.5 
" style="stroke: #000000; stroke-width: 0.8"/>
      </defs>
      <g>
       <use xlink:href="#me36cb96355" x="14.571094" y="154.975769" style="stroke: #000000; stroke-width: 0.8"/>
      </g>
     </g>
     <g id="text_1">
      <!-- −4 -->
      <g transform="translate(7.2 169.574207)scale(0.1 -0.1)">
       <defs>
        <path id="DejaVuSans-2212" d="M 678 2272 
L 4684 2272 
L 4684 1741 
L 678 1741 
L 678 2272 
z
" transform="scale(0.015625)"/>
        <path id="DejaVuSans-34" d="M 2419 4116 
L 825 1625 
L 2419 1625 
L 2419 4116 
z
M 2253 4666 
L 3047 4666 
L 3047 1625 
L 3713 1625 
L 3713 1100 
L 3047 1100 
L 3047 0 
L 2419 0 
L 2419 1100 
L 313 1100 
L 313 1709 
L 2253 4666 
z
" transform="scale(0.015625)"/>
       </defs>
       <use xlink:href="#DejaVuSans-2212"/>
       <use xlink:href="#DejaVuSans-34" x="83.789062"/>
      </g>
     </g>
    </g>
    <g id="xtick_2">
     <g id="line2d_2">
      <g>
       <use xlink:href="#me36cb96355" x="44.448683" y="154.975769" style="stroke: #000000; stroke-width: 0.8"/>
      </g>
     </g>
     <g id="text_2">
      <!-- −3 -->
      <g transform="translate(37.077589 169.574207)scale(0.1 -0.1)">
       <defs>
        <path id="DejaVuSans-33" d="M 2597 2516 
Q 3050 2419 3304 2112 
Q 3559 1806 3559 1356 
Q 3559 666 3084 287 
Q 2609 -91 1734 -91 
Q 1441 -91 1130 -33 
Q 819 25 488 141 
L 488 750 
Q 750 597 1062 519 
Q 1375 441 1716 441 
Q 2309 441 2620 675 
Q 2931 909 2931 1356 
Q 2931 1769 2642 2001 
Q 2353 2234 1838 2234 
L 1294 2234 
L 1294 2753 
L 1863 2753 
Q 2328 2753 2575 2939 
Q 2822 3125 2822 3475 
Q 2822 3834 2567 4026 
Q 2313 4219 1838 4219 
Q 1578 4219 1281 4162 
Q 984 4106 628 3988 
L 628 4550 
Q 988 4650 1302 4700 
Q 1616 4750 1894 4750 
Q 2613 4750 3031 4423 
Q 3450 4097 3450 3541 
Q 3450 3153 3228 2886 
Q 3006 2619 2597 2516 
z
" transform="scale(0.015625)"/>
       </defs>
       <use xlink:href="#DejaVuSans-2212"/>
       <use xlink:href="#DejaVuSans-33" x="83.789062"/>
      </g>
     </g>
    </g>
    <g id="xtick_3">
     <g id="line2d_3">
      <g>
       <use xlink:href="#me36cb96355" x="74.326271" y="154.975769" style="stroke: #000000; stroke-width: 0.8"/>
      </g>
     </g>
     <g id="text_3">
      <!-- −2 -->
      <g transform="translate(66.955178 169.574207)scale(0.1 -0.1)">
       <defs>
        <path id="DejaVuSans-32" d="M 1228 531 
L 3431 531 
L 3431 0 
L 469 0 
L 469 531 
Q 828 903 1448 1529 
Q 2069 2156 2228 2338 
Q 2531 2678 2651 2914 
Q 2772 3150 2772 3378 
Q 2772 3750 2511 3984 
Q 2250 4219 1831 4219 
Q 1534 4219 1204 4116 
Q 875 4013 500 3803 
L 500 4441 
Q 881 4594 1212 4672 
Q 1544 4750 1819 4750 
Q 2544 4750 2975 4387 
Q 3406 4025 3406 3419 
Q 3406 3131 3298 2873 
Q 3191 2616 2906 2266 
Q 2828 2175 2409 1742 
Q 1991 1309 1228 531 
z
" transform="scale(0.015625)"/>
       </defs>
       <use xlink:href="#DejaVuSans-2212"/>
       <use xlink:href="#DejaVuSans-32" x="83.789062"/>
      </g>
     </g>
    </g>
    <g id="xtick_4">
     <g id="line2d_4">
      <g>
       <use xlink:href="#me36cb96355" x="104.20386" y="154.975769" style="stroke: #000000; stroke-width: 0.8"/>
      </g>
     </g>
     <g id="text_4">
      <!-- −1 -->
      <g transform="translate(96.832766 169.574207)scale(0.1 -0.1)">
       <defs>
        <path id="DejaVuSans-31" d="M 794 531 
L 1825 531 
L 1825 4091 
L 703 3866 
L 703 4441 
L 1819 4666 
L 2450 4666 
L 2450 531 
L 3481 531 
L 3481 0 
L 794 0 
L 794 531 
z
" transform="scale(0.015625)"/>
       </defs>
       <use xlink:href="#DejaVuSans-2212"/>
       <use xlink:href="#DejaVuSans-31" x="83.789062"/>
      </g>
     </g>
    </g>
    <g id="xtick_5">
     <g id="line2d_5">
      <g>
       <use xlink:href="#me36cb96355" x="134.081449" y="154.975769" style="stroke: #000000; stroke-width: 0.8"/>
      </g>
     </g>
    </g>
    <g id="xtick_6">
     <g id="line2d_6">
      <g>
       <use xlink:href="#me36cb96355" x="163.959038" y="154.975769" style="stroke: #000000; stroke-width: 0.8"/>
      </g>
     </g>
     <g id="text_5">
      <!-- 1 -->
      <g transform="translate(160.777788 169.574207)scale(0.1 -0.1)">
       <use xlink:href="#DejaVuSans-31"/>
      </g>
     </g>
    </g>
    <g id="xtick_7">
     <g id="line2d_7">
      <g>
       <use xlink:href="#me36cb96355" x="193.836626" y="154.975769" style="stroke: #000000; stroke-width: 0.8"/>
      </g>
     </g>
     <g id="text_6">
      <!-- 2 -->
      <g transform="translate(190.655376 169.574207)scale(0.1 -0.1)">
       <use xlink:href="#DejaVuSans-32"/>
      </g>
     </g>
    </g>
    <g id="xtick_8">
     <g id="line2d_8">
      <g>
       <use xlink:href="#me36cb96355" x="223.714215" y="154.975769" style="stroke: #000000; stroke-width: 0.8"/>
      </g>
     </g>
     <g id="text_7">
      <!-- 3 -->
      <g transform="translate(220.532965 169.574207)scale(0.1 -0.1)">
       <use xlink:href="#DejaVuSans-33"/>
      </g>
     </g>
    </g>
    <g id="xtick_9">
     <g id="line2d_9">
      <g>
       <use xlink:href="#me36cb96355" x="253.591804" y="154.975769" style="stroke: #000000; stroke-width: 0.8"/>
      </g>
     </g>
     <g id="text_8">
      <!-- 4 -->
      <g transform="translate(250.410554 169.574207)scale(0.1 -0.1)">
       <use xlink:href="#DejaVuSans-34"/>
      </g>
     </g>
    </g>
    <g id="xtick_10">
     <g id="line2d_10">
      <defs>
       <path id="m75f9ea8e9a" d="M 0 0 
L 0 2 
" style="stroke: #000000; stroke-width: 0.6"/>
      </defs>
      <g>
       <use xlink:href="#m75f9ea8e9a" x="20.546612" y="154.975769" style="stroke: #000000; stroke-width: 0.6"/>
      </g>
     </g>
    </g>
    <g id="xtick_11">
     <g id="line2d_11">
      <g>
       <use xlink:href="#m75f9ea8e9a" x="26.522129" y="154.975769" style="stroke: #000000; stroke-width: 0.6"/>
      </g>
     </g>
    </g>
    <g id="xtick_12">
     <g id="line2d_12">
      <g>
       <use xlink:href="#m75f9ea8e9a" x="32.497647" y="154.975769" style="stroke: #000000; stroke-width: 0.6"/>
      </g>
     </g>
    </g>
    <g id="xtick_13">
     <g id="line2d_13">
      <g>
       <use xlink:href="#m75f9ea8e9a" x="38.473165" y="154.975769" style="stroke: #000000; stroke-width: 0.6"/>
      </g>
     </g>
    </g>
    <g id="xtick_14">
     <g id="line2d_14">
      <g>
       <use xlink:href="#m75f9ea8e9a" x="50.4242" y="154.975769" style="stroke: #000000; stroke-width: 0.6"/>
      </g>
     </g>
    </g>
    <g id="xtick_15">
     <g id="line2d_15">
      <g>
       <use xlink:href="#m75f9ea8e9a" x="56.399718" y="154.975769" style="stroke: #000000; stroke-width: 0.6"/>
      </g>
     </g>
    </g>
    <g id="xtick_16">
     <g id="line2d_16">
      <g>
       <use xlink:href="#m75f9ea8e9a" x="62.375236" y="154.975769" style="stroke: #000000; stroke-width: 0.6"/>
      </g>
     </g>
    </g>
    <g id="xtick_17">
     <g id="line2d_17">
      <g>
       <use xlink:href="#m75f9ea8e9a" x="68.350754" y="154.975769" style="stroke: #000000; stroke-width: 0.6"/>
      </g>
     </g>
    </g>
    <g id="xtick_18">
     <g id="line2d_18">
      <g>
       <use xlink:href="#m75f9ea8e9a" x="80.301789" y="154.975769" style="stroke: #000000; stroke-width: 0.6"/>
      </g>
     </g>
    </g>
    <g id="xtick_19">
     <g id="line2d_19">
      <g>
       <use xlink:href="#m75f9ea8e9a" x="86.277307" y="154.975769" style="stroke: #000000; stroke-width: 0.6"/>
      </g>
     </g>
    </g>
    <g id="xtick_20">
     <g id="line2d_20">
      <g>
       <use xlink:href="#m75f9ea8e9a" x="92.252825" y="154.975769" style="stroke: #000000; stroke-width: 0.6"/>
      </g>
     </g>
    </g>
    <g id="xtick_21">
     <g id="line2d_21">
      <g>
       <use xlink:href="#m75f9ea8e9a" x="98.228342" y="154.975769" style="stroke: #000000; stroke-width: 0.6"/>
      </g>
     </g>
    </g>
    <g id="xtick_22">
     <g id="line2d_22">
      <g>
       <use xlink:href="#m75f9ea8e9a" x="110.179378" y="154.975769" style="stroke: #000000; stroke-width: 0.6"/>
      </g>
     </g>
    </g>
    <g id="xtick_23">
     <g id="line2d_23">
      <g>
       <use xlink:href="#m75f9ea8e9a" x="116.154896" y="154.975769" style="stroke: #000000; stroke-width: 0.6"/>
      </g>
     </g>
    </g>
    <g id="xtick_24">
     <g id="line2d_24">
      <g>
       <use xlink:href="#m75f9ea8e9a" x="122.130413" y="154.975769" style="stroke: #000000; stroke-width: 0.6"/>
      </g>
     </g>
    </g>
    <g id="xtick_25">
     <g id="line2d_25">
      <g>
       <use xlink:href="#m75f9ea8e9a" x="128.105931" y="154.975769" style="stroke: #000000; stroke-width: 0.6"/>
      </g>
     </g>
    </g>
    <g id="xtick_26">
     <g id="line2d_26">
      <g>
       <use xlink:href="#m75f9ea8e9a" x="140.056967" y="154.975769" style="stroke: #000000; stroke-width: 0.6"/>
      </g>
     </g>
    </g>
    <g id="xtick_27">
     <g id="line2d_27">
      <g>
       <use xlink:href="#m75f9ea8e9a" x="146.032484" y="154.975769" style="stroke: #000000; stroke-width: 0.6"/>
      </g>
     </g>
    </g>
    <g id="xtick_28">
     <g id="line2d_28">
      <g>
       <use xlink:href="#m75f9ea8e9a" x="152.008002" y="154.975769" style="stroke: #000000; stroke-width: 0.6"/>
      </g>
     </g>
    </g>
    <g id="xtick_29">
     <g id="line2d_29">
      <g>
       <use xlink:href="#m75f9ea8e9a" x="157.98352" y="154.975769" style="stroke: #000000; stroke-width: 0.6"/>
      </g>
     </g>
    </g>
    <g id="xtick_30">
     <g id="line2d_30">
      <g>
       <use xlink:href="#m75f9ea8e9a" x="169.934555" y="154.975769" style="stroke: #000000; stroke-width: 0.6"/>
      </g>
     </g>
    </g>
    <g id="xtick_31">
     <g id="line2d_31">
      <g>
       <use xlink:href="#m75f9ea8e9a" x="175.910073" y="154.975769" style="stroke: #000000; stroke-width: 0.6"/>
      </g>
     </g>
    </g>
    <g id="xtick_32">
     <g id="line2d_32">
      <g>
       <use xlink:href="#m75f9ea8e9a" x="181.885591" y="154.975769" style="stroke: #000000; stroke-width: 0.6"/>
      </g>
     </g>
    </g>
    <g id="xtick_33">
     <g id="line2d_33">
      <g>
       <use xlink:href="#m75f9ea8e9a" x="187.861109" y="154.975769" style="stroke: #000000; stroke-width: 0.6"/>
      </g>
     </g>
    </g>
    <g id="xtick_34">
     <g id="line2d_34">
      <g>
       <use xlink:href="#m75f9ea8e9a" x="199.812144" y="154.975769" style="stroke: #000000; stroke-width: 0.6"/>
      </g>
     </g>
    </g>
    <g id="xtick_35">
     <g id="line2d_35">
      <g>
       <use xlink:href="#m75f9ea8e9a" x="205.787662" y="154.975769" style="stroke: #000000; stroke-width: 0.6"/>
      </g>
     </g>
    </g>
    <g id="xtick_36">
     <g id="line2d_36">
      <g>
       <use xlink:href="#m75f9ea8e9a" x="211.76318" y="154.975769" style="stroke: #000000; stroke-width: 0.6"/>
      </g>
     </g>
    </g>
    <g id="xtick_37">
     <g id="line2d_37">
      <g>
       <use xlink:href="#m75f9ea8e9a" x="217.738697" y="154.975769" style="stroke: #000000; stroke-width: 0.6"/>
      </g>
     </g>
    </g>
    <g id="xtick_38">
     <g id="line2d_38">
      <g>
       <use xlink:href="#m75f9ea8e9a" x="229.689733" y="154.975769" style="stroke: #000000; stroke-width: 0.6"/>
      </g>
     </g>
    </g>
    <g id="xtick_39">
     <g id="line2d_39">
      <g>
       <use xlink:href="#m75f9ea8e9a" x="235.665251" y="154.975769" style="stroke: #000000; stroke-width: 0.6"/>
      </g>
     </g>
    </g>
    <g id="xtick_40">
     <g id="line2d_40">
      <g>
       <use xlink:href="#m75f9ea8e9a" x="241.640768" y="154.975769" style="stroke: #000000; stroke-width: 0.6"/>
      </g>
     </g>
    </g>
    <g id="xtick_41">
     <g id="line2d_41">
      <g>
       <use xlink:href="#m75f9ea8e9a" x="247.616286" y="154.975769" style="stroke: #000000; stroke-width: 0.6"/>
      </g>
     </g>
    </g>
    <g id="text_9">
     <!-- $x$ -->
     <g transform="translate(266.372218 154.975769)scale(0.16 -0.16)">
      <defs>
       <path id="Cmmi10-78" d="M 500 184 
Q 613 97 819 97 
Q 1019 97 1172 289 
Q 1325 481 1381 709 
L 1672 1844 
Q 1741 2153 1741 2266 
Q 1741 2425 1652 2544 
Q 1563 2663 1403 2663 
Q 1200 2663 1022 2536 
Q 844 2409 722 2214 
Q 600 2019 550 1819 
Q 538 1778 500 1778 
L 422 1778 
Q 372 1778 372 1838 
L 372 1856 
Q 434 2094 584 2320 
Q 734 2547 951 2687 
Q 1169 2828 1416 2828 
Q 1650 2828 1839 2703 
Q 2028 2578 2106 2363 
Q 2216 2559 2386 2693 
Q 2556 2828 2759 2828 
Q 2897 2828 3040 2779 
Q 3184 2731 3275 2631 
Q 3366 2531 3366 2381 
Q 3366 2219 3261 2101 
Q 3156 1984 2994 1984 
Q 2891 1984 2822 2050 
Q 2753 2116 2753 2216 
Q 2753 2350 2845 2451 
Q 2938 2553 3066 2572 
Q 2950 2663 2747 2663 
Q 2541 2663 2389 2472 
Q 2238 2281 2175 2047 
L 1894 916 
Q 1825 659 1825 494 
Q 1825 331 1917 214 
Q 2009 97 2163 97 
Q 2463 97 2698 361 
Q 2934 625 3009 941 
Q 3022 978 3059 978 
L 3138 978 
Q 3163 978 3178 961 
Q 3194 944 3194 922 
Q 3194 916 3188 903 
Q 3097 522 2806 225 
Q 2516 -72 2150 -72 
Q 1916 -72 1727 54 
Q 1538 181 1459 397 
Q 1359 209 1182 68 
Q 1006 -72 806 -72 
Q 669 -72 523 -23 
Q 378 25 287 125 
Q 197 225 197 378 
Q 197 528 301 651 
Q 406 775 563 775 
Q 669 775 741 711 
Q 813 647 813 544 
Q 813 409 723 309 
Q 634 209 500 184 
z
" transform="scale(0.015625)"/>
      </defs>
      <use xlink:href="#Cmmi10-78" transform="translate(0 0.8125)"/>
     </g>
    </g>
   </g>
   <g id="matplotlib.axis_2">
    <g id="ytick_1">
     <g id="line2d_42">
      <defs>
       <path id="m51221729c5" d="M 0 0 
L -3.5 0 
" style="stroke: #000000; stroke-width: 0.8"/>
      </defs>
      <g>
       <use xlink:href="#m51221729c5" x="134.081449" y="274.486124" style="stroke: #000000; stroke-width: 0.8"/>
      </g>
     </g>
     <g id="text_10">
      <!-- −4 -->
      <g transform="translate(112.339261 278.285343)scale(0.1 -0.1)">
       <use xlink:href="#DejaVuSans-2212"/>
       <use xlink:href="#DejaVuSans-34" x="83.789062"/>
      </g>
     </g>
    </g>
    <g id="ytick_2">
     <g id="line2d_43">
      <g>
       <use xlink:href="#m51221729c5" x="134.081449" y="244.608536" style="stroke: #000000; stroke-width: 0.8"/>
      </g>
     </g>
     <g id="text_11">
      <!-- −3 -->
      <g transform="translate(112.339261 248.407754)scale(0.1 -0.1)">
       <use xlink:href="#DejaVuSans-2212"/>
       <use xlink:href="#DejaVuSans-33" x="83.789062"/>
      </g>
     </g>
    </g>
    <g id="ytick_3">
     <g id="line2d_44">
      <g>
       <use xlink:href="#m51221729c5" x="134.081449" y="214.730947" style="stroke: #000000; stroke-width: 0.8"/>
      </g>
     </g>
     <g id="text_12">
      <!-- −2 -->
      <g transform="translate(112.339261 218.530165)scale(0.1 -0.1)">
       <use xlink:href="#DejaVuSans-2212"/>
       <use xlink:href="#DejaVuSans-32" x="83.789062"/>
      </g>
     </g>
    </g>
    <g id="ytick_4">
     <g id="line2d_45">
      <g>
       <use xlink:href="#m51221729c5" x="134.081449" y="184.853358" style="stroke: #000000; stroke-width: 0.8"/>
      </g>
     </g>
     <g id="text_13">
      <!-- −1 -->
      <g transform="translate(112.339261 188.652577)scale(0.1 -0.1)">
       <use xlink:href="#DejaVuSans-2212"/>
       <use xlink:href="#DejaVuSans-31" x="83.789062"/>
      </g>
     </g>
    </g>
    <g id="ytick_5">
     <g id="line2d_46">
      <g>
       <use xlink:href="#m51221729c5" x="134.081449" y="154.975769" style="stroke: #000000; stroke-width: 0.8"/>
      </g>
     </g>
    </g>
    <g id="ytick_6">
     <g id="line2d_47">
      <g>
       <use xlink:href="#m51221729c5" x="134.081449" y="125.09818" style="stroke: #000000; stroke-width: 0.8"/>
      </g>
     </g>
     <g id="text_14">
      <!-- 1 -->
      <g transform="translate(120.718949 128.897399)scale(0.1 -0.1)">
       <use xlink:href="#DejaVuSans-31"/>
      </g>
     </g>
    </g>
    <g id="ytick_7">
     <g id="line2d_48">
      <g>
       <use xlink:href="#m51221729c5" x="134.081449" y="95.220592" style="stroke: #000000; stroke-width: 0.8"/>
      </g>
     </g>
     <g id="text_15">
      <!-- 2 -->
      <g transform="translate(120.718949 99.01981)scale(0.1 -0.1)">
       <use xlink:href="#DejaVuSans-32"/>
      </g>
     </g>
    </g>
    <g id="ytick_8">
     <g id="line2d_49">
      <g>
       <use xlink:href="#m51221729c5" x="134.081449" y="65.343003" style="stroke: #000000; stroke-width: 0.8"/>
      </g>
     </g>
     <g id="text_16">
      <!-- 3 -->
      <g transform="translate(120.718949 69.142222)scale(0.1 -0.1)">
       <use xlink:href="#DejaVuSans-33"/>
      </g>
     </g>
    </g>
    <g id="ytick_9">
     <g id="line2d_50">
      <g>
       <use xlink:href="#m51221729c5" x="134.081449" y="35.465414" style="stroke: #000000; stroke-width: 0.8"/>
      </g>
     </g>
     <g id="text_17">
      <!-- 4 -->
      <g transform="translate(120.718949 39.264633)scale(0.1 -0.1)">
       <use xlink:href="#DejaVuSans-34"/>
      </g>
     </g>
    </g>
    <g id="ytick_10">
     <g id="line2d_51">
      <defs>
       <path id="m1add747679" d="M 0 0 
L -2 0 
" style="stroke: #000000; stroke-width: 0.6"/>
      </defs>
      <g>
       <use xlink:href="#m1add747679" x="134.081449" y="268.510607" style="stroke: #000000; stroke-width: 0.6"/>
      </g>
     </g>
    </g>
    <g id="ytick_11">
     <g id="line2d_52">
      <g>
       <use xlink:href="#m1add747679" x="134.081449" y="262.535089" style="stroke: #000000; stroke-width: 0.6"/>
      </g>
     </g>
    </g>
    <g id="ytick_12">
     <g id="line2d_53">
      <g>
       <use xlink:href="#m1add747679" x="134.081449" y="256.559571" style="stroke: #000000; stroke-width: 0.6"/>
      </g>
     </g>
    </g>
    <g id="ytick_13">
     <g id="line2d_54">
      <g>
       <use xlink:href="#m1add747679" x="134.081449" y="250.584053" style="stroke: #000000; stroke-width: 0.6"/>
      </g>
     </g>
    </g>
    <g id="ytick_14">
     <g id="line2d_55">
      <g>
       <use xlink:href="#m1add747679" x="134.081449" y="238.633018" style="stroke: #000000; stroke-width: 0.6"/>
      </g>
     </g>
    </g>
    <g id="ytick_15">
     <g id="line2d_56">
      <g>
       <use xlink:href="#m1add747679" x="134.081449" y="232.6575" style="stroke: #000000; stroke-width: 0.6"/>
      </g>
     </g>
    </g>
    <g id="ytick_16">
     <g id="line2d_57">
      <g>
       <use xlink:href="#m1add747679" x="134.081449" y="226.681982" style="stroke: #000000; stroke-width: 0.6"/>
      </g>
     </g>
    </g>
    <g id="ytick_17">
     <g id="line2d_58">
      <g>
       <use xlink:href="#m1add747679" x="134.081449" y="220.706464" style="stroke: #000000; stroke-width: 0.6"/>
      </g>
     </g>
    </g>
    <g id="ytick_18">
     <g id="line2d_59">
      <g>
       <use xlink:href="#m1add747679" x="134.081449" y="208.755429" style="stroke: #000000; stroke-width: 0.6"/>
      </g>
     </g>
    </g>
    <g id="ytick_19">
     <g id="line2d_60">
      <g>
       <use xlink:href="#m1add747679" x="134.081449" y="202.779911" style="stroke: #000000; stroke-width: 0.6"/>
      </g>
     </g>
    </g>
    <g id="ytick_20">
     <g id="line2d_61">
      <g>
       <use xlink:href="#m1add747679" x="134.081449" y="196.804393" style="stroke: #000000; stroke-width: 0.6"/>
      </g>
     </g>
    </g>
    <g id="ytick_21">
     <g id="line2d_62">
      <g>
       <use xlink:href="#m1add747679" x="134.081449" y="190.828876" style="stroke: #000000; stroke-width: 0.6"/>
      </g>
     </g>
    </g>
    <g id="ytick_22">
     <g id="line2d_63">
      <g>
       <use xlink:href="#m1add747679" x="134.081449" y="178.87784" style="stroke: #000000; stroke-width: 0.6"/>
      </g>
     </g>
    </g>
    <g id="ytick_23">
     <g id="line2d_64">
      <g>
       <use xlink:href="#m1add747679" x="134.081449" y="172.902322" style="stroke: #000000; stroke-width: 0.6"/>
      </g>
     </g>
    </g>
    <g id="ytick_24">
     <g id="line2d_65">
      <g>
       <use xlink:href="#m1add747679" x="134.081449" y="166.926805" style="stroke: #000000; stroke-width: 0.6"/>
      </g>
     </g>
    </g>
    <g id="ytick_25">
     <g id="line2d_66">
      <g>
       <use xlink:href="#m1add747679" x="134.081449" y="160.951287" style="stroke: #000000; stroke-width: 0.6"/>
      </g>
     </g>
    </g>
    <g id="ytick_26">
     <g id="line2d_67">
      <g>
       <use xlink:href="#m1add747679" x="134.081449" y="149.000251" style="stroke: #000000; stroke-width: 0.6"/>
      </g>
     </g>
    </g>
    <g id="ytick_27">
     <g id="line2d_68">
      <g>
       <use xlink:href="#m1add747679" x="134.081449" y="143.024734" style="stroke: #000000; stroke-width: 0.6"/>
      </g>
     </g>
    </g>
    <g id="ytick_28">
     <g id="line2d_69">
      <g>
       <use xlink:href="#m1add747679" x="134.081449" y="137.049216" style="stroke: #000000; stroke-width: 0.6"/>
      </g>
     </g>
    </g>
    <g id="ytick_29">
     <g id="line2d_70">
      <g>
       <use xlink:href="#m1add747679" x="134.081449" y="131.073698" style="stroke: #000000; stroke-width: 0.6"/>
      </g>
     </g>
    </g>
    <g id="ytick_30">
     <g id="line2d_71">
      <g>
       <use xlink:href="#m1add747679" x="134.081449" y="119.122663" style="stroke: #000000; stroke-width: 0.6"/>
      </g>
     </g>
    </g>
    <g id="ytick_31">
     <g id="line2d_72">
      <g>
       <use xlink:href="#m1add747679" x="134.081449" y="113.147145" style="stroke: #000000; stroke-width: 0.6"/>
      </g>
     </g>
    </g>
    <g id="ytick_32">
     <g id="line2d_73">
      <g>
       <use xlink:href="#m1add747679" x="134.081449" y="107.171627" style="stroke: #000000; stroke-width: 0.6"/>
      </g>
     </g>
    </g>
    <g id="ytick_33">
     <g id="line2d_74">
      <g>
       <use xlink:href="#m1add747679" x="134.081449" y="101.196109" style="stroke: #000000; stroke-width: 0.6"/>
      </g>
     </g>
    </g>
    <g id="ytick_34">
     <g id="line2d_75">
      <g>
       <use xlink:href="#m1add747679" x="134.081449" y="89.245074" style="stroke: #000000; stroke-width: 0.6"/>
      </g>
     </g>
    </g>
    <g id="ytick_35">
     <g id="line2d_76">
      <g>
       <use xlink:href="#m1add747679" x="134.081449" y="83.269556" style="stroke: #000000; stroke-width: 0.6"/>
      </g>
     </g>
    </g>
    <g id="ytick_36">
     <g id="line2d_77">
      <g>
       <use xlink:href="#m1add747679" x="134.081449" y="77.294038" style="stroke: #000000; stroke-width: 0.6"/>
      </g>
     </g>
    </g>
    <g id="ytick_37">
     <g id="line2d_78">
      <g>
       <use xlink:href="#m1add747679" x="134.081449" y="71.318521" style="stroke: #000000; stroke-width: 0.6"/>
      </g>
     </g>
    </g>
    <g id="ytick_38">
     <g id="line2d_79">
      <g>
       <use xlink:href="#m1add747679" x="134.081449" y="59.367485" style="stroke: #000000; stroke-width: 0.6"/>
      </g>
     </g>
    </g>
    <g id="ytick_39">
     <g id="line2d_80">
      <g>
       <use xlink:href="#m1add747679" x="134.081449" y="53.391967" style="stroke: #000000; stroke-width: 0.6"/>
      </g>
     </g>
    </g>
    <g id="ytick_40">
     <g id="line2d_81">
      <g>
       <use xlink:href="#m1add747679" x="134.081449" y="47.41645" style="stroke: #000000; stroke-width: 0.6"/>
      </g>
     </g>
    </g>
    <g id="ytick_41">
     <g id="line2d_82">
      <g>
       <use xlink:href="#m1add747679" x="134.081449" y="41.440932" style="stroke: #000000; stroke-width: 0.6"/>
      </g>
     </g>
    </g>
    <g id="text_18">
     <!-- $y$ -->
     <g transform="translate(130.081449 19.325)scale(0.16 -0.16)">
      <defs>
       <path id="Cmmi10-79" d="M 538 -916 
Q 672 -1147 1006 -1147 
Q 1309 -1147 1531 -934 
Q 1753 -722 1889 -420 
Q 2025 -119 2100 197 
Q 1816 -72 1484 -72 
Q 1231 -72 1053 15 
Q 875 103 776 276 
Q 678 450 678 697 
Q 678 906 734 1126 
Q 791 1347 892 1617 
Q 994 1888 1069 2088 
Q 1153 2322 1153 2472 
Q 1153 2663 1013 2663 
Q 759 2663 595 2402 
Q 431 2141 353 1819 
Q 341 1778 300 1778 
L 225 1778 
Q 172 1778 172 1838 
L 172 1856 
Q 275 2238 487 2533 
Q 700 2828 1025 2828 
Q 1253 2828 1411 2678 
Q 1569 2528 1569 2297 
Q 1569 2178 1516 2047 
Q 1488 1969 1388 1706 
Q 1288 1444 1234 1272 
Q 1181 1100 1147 934 
Q 1113 769 1113 603 
Q 1113 391 1203 244 
Q 1294 97 1491 97 
Q 1888 97 2203 581 
L 2688 2553 
Q 2709 2638 2787 2698 
Q 2866 2759 2956 2759 
Q 3034 2759 3092 2709 
Q 3150 2659 3150 2578 
Q 3150 2541 3144 2528 
L 2509 -19 
Q 2425 -347 2200 -647 
Q 1975 -947 1658 -1130 
Q 1341 -1313 997 -1313 
Q 831 -1313 668 -1248 
Q 506 -1184 406 -1056 
Q 306 -928 306 -756 
Q 306 -581 409 -453 
Q 513 -325 684 -325 
Q 788 -325 858 -389 
Q 928 -453 928 -556 
Q 928 -703 818 -812 
Q 709 -922 563 -922 
Q 556 -919 550 -917 
Q 544 -916 538 -916 
z
" transform="scale(0.015625)"/>
      </defs>
      <use xlink:href="#Cmmi10-79" transform="translate(0 0.8125)"/>
     </g>
    </g>
   </g>
   <g id="PathCollection_1">
    <path d="M 14.571094 274.486124 
" clip-path="url(#p9396ab6b6f)" style="fill: none; stroke: #ff0000; stroke-width: 1.5"/>
    <path d="M 253.591804 274.486124 
" clip-path="url(#p9396ab6b6f)" style="fill: none; stroke: #ff0000; stroke-width: 1.5"/>
    <path d="M 14.571094 35.465414 
" clip-path="url(#p9396ab6b6f)" style="fill: none; stroke: #ff0000; stroke-width: 1.5"/>
    <path d="M 253.591804 35.465414 
" clip-path="url(#p9396ab6b6f)" style="fill: none; stroke: #ff0000; stroke-width: 1.5"/>
   </g>
   <g id="PathCollection_2">
    <path d="M 233.166895 274.486124 
L 233.888255 272.071774 
L 233.890633 272.063649 
" clip-path="url(#p9396ab6b6f)" style="fill: none; stroke: #ff0000; stroke-width: 1.5"/>
    <path d="M 239.210375 251.668292 
L 239.511664 250.342618 
L 240.046662 247.928268 
L 240.567943 245.513917 
L 241.075505 243.099566 
L 241.520051 240.926232 
L 241.568254 240.685216 
L 242.037711 238.270865 
L 242.493755 235.856515 
L 242.936386 233.442164 
L 243.365604 231.027813 
L 243.781409 228.613463 
L 243.934401 227.695507 
L 244.178379 226.199112 
L 244.558901 223.784762 
L 244.926303 221.370411 
L 245.280582 218.95606 
L 245.621741 216.54171 
L 245.949777 214.127359 
L 246.264693 211.713008 
L 246.348752 211.040533 
L 246.561854 209.298658 
L 246.844384 206.884307 
L 247.114072 204.469957 
L 247.370918 202.055606 
L 247.614922 199.641255 
L 247.846083 197.226905 
L 248.064402 194.812554 
L 248.269878 192.398204 
L 248.462513 189.983853 
L 248.642305 187.569502 
L 248.763103 185.82258 
L 248.808293 185.155152 
L 248.95919 182.740801 
L 249.097512 180.326451 
L 249.22326 177.9121 
L 249.336432 175.497749 
L 249.43703 173.083399 
L 249.525053 170.669048 
L 249.600502 168.254698 
L 249.663376 165.840347 
L 249.713675 163.425996 
L 249.751399 161.011646 
L 249.776548 158.597295 
L 249.789123 156.182945 
L 249.789123 153.768594 
L 249.776548 151.354243 
L 249.751399 148.939893 
L 249.713675 146.525542 
L 249.663376 144.111192 
L 249.600502 141.696841 
L 249.525053 139.28249 
L 249.43703 136.86814 
L 249.336432 134.453789 
L 249.22326 132.039438 
L 249.097512 129.625088 
L 248.95919 127.210737 
L 248.808293 124.796387 
L 248.763103 124.128958 
L 248.642305 122.382036 
L 248.462513 119.967685 
L 248.269878 117.553335 
L 248.064402 115.138984 
L 247.846083 112.724634 
L 247.614922 110.310283 
L 247.370918 107.895932 
L 247.114072 105.481582 
L 246.844384 103.067231 
L 246.561854 100.652881 
L 246.348752 98.911005 
L 246.264693 98.23853 
L 245.949777 95.824179 
L 245.621741 93.409829 
L 245.280582 90.995478 
L 244.926303 88.581128 
L 244.558901 86.166777 
L 244.178379 83.752426 
L 243.934401 82.256032 
L 243.781409 81.338076 
L 243.365604 78.923725 
L 242.936386 76.509375 
L 242.493755 74.095024 
L 242.037711 71.680673 
L 241.568254 69.266323 
L 241.520051 69.025307 
L 241.075505 66.851972 
L 240.567943 64.437621 
L 240.046662 62.023271 
L 239.511664 59.60892 
L 239.1057 57.822678 
L 238.959628 57.19457 
L 238.384115 54.780219 
L 237.794564 52.365868 
L 237.190976 49.951518 
L 236.69135 47.998432 
L 236.570542 47.537167 
L 235.923841 45.122817 
L 235.262769 42.708466 
L 234.587326 40.294115 
L 234.276999 39.207972 
L 233.888255 37.879765 
L 233.166895 35.465414 
" clip-path="url(#p9396ab6b6f)" style="fill: none; stroke: #ff0000; stroke-width: 1.5"/>
    <path d="M 34.996003 35.465414 
L 34.274642 37.879765 
L 34.272264 37.88789 
" clip-path="url(#p9396ab6b6f)" style="fill: none; stroke: #ff0000; stroke-width: 1.5"/>
    <path d="M 28.952523 58.283247 
L 28.651233 59.60892 
L 28.116235 62.023271 
L 27.594955 64.437621 
L 27.087393 66.851972 
L 26.642847 69.025307 
L 26.594644 69.266323 
L 26.125187 71.680673 
L 25.669143 74.095024 
L 25.226512 76.509375 
L 24.797294 78.923725 
L 24.381489 81.338076 
L 24.228496 82.256032 
L 23.984519 83.752426 
L 23.603996 86.166777 
L 23.236595 88.581128 
L 22.882315 90.995478 
L 22.541157 93.409829 
L 22.21312 95.824179 
L 21.898205 98.23853 
L 21.814146 98.911005 
L 21.601044 100.652881 
L 21.318513 103.067231 
L 21.048825 105.481582 
L 20.79198 107.895932 
L 20.547976 110.310283 
L 20.316815 112.724634 
L 20.098496 115.138984 
L 19.893019 117.553335 
L 19.700385 119.967685 
L 19.520593 122.382036 
L 19.399795 124.128958 
L 19.354604 124.796387 
L 19.203708 127.210737 
L 19.065385 129.625088 
L 18.939638 132.039438 
L 18.826465 134.453789 
L 18.725867 136.86814 
L 18.637844 139.28249 
L 18.562396 141.696841 
L 18.499522 144.111192 
L 18.449223 146.525542 
L 18.411499 148.939893 
L 18.386349 151.354243 
L 18.373775 153.768594 
L 18.373775 156.182945 
L 18.386349 158.597295 
L 18.411499 161.011646 
L 18.449223 163.425996 
L 18.499522 165.840347 
L 18.562396 168.254698 
L 18.637844 170.669048 
L 18.725867 173.083399 
L 18.826465 175.497749 
L 18.939638 177.9121 
L 19.065385 180.326451 
L 19.203708 182.740801 
L 19.354604 185.155152 
L 19.399795 185.82258 
L 19.520593 187.569502 
L 19.700385 189.983853 
L 19.893019 192.398204 
L 20.098496 194.812554 
L 20.316815 197.226905 
L 20.547976 199.641255 
L 20.79198 202.055606 
L 21.048825 204.469957 
L 21.318513 206.884307 
L 21.601044 209.298658 
L 21.814146 211.040533 
L 21.898205 211.713008 
L 22.21312 214.127359 
L 22.541157 216.54171 
L 22.882315 218.95606 
L 23.236595 221.370411 
L 23.603996 223.784762 
L 23.984519 226.199112 
L 24.228496 227.695507 
L 24.381489 228.613463 
L 24.797294 231.027813 
L 25.226512 233.442164 
L 25.669143 235.856515 
L 26.125187 238.270865 
L 26.594644 240.685216 
L 26.642847 240.926232 
L 27.087393 243.099566 
L 27.594955 245.513917 
L 28.116235 247.928268 
L 28.651233 250.342618 
L 29.057197 252.12886 
L 29.203269 252.756969 
L 29.778783 255.171319 
L 30.368334 257.58567 
L 30.971921 260.000021 
L 31.471548 261.953107 
L 31.592355 262.414371 
L 32.239056 264.828722 
L 32.900129 267.243072 
L 33.575572 269.657423 
L 33.885899 270.743566 
L 34.274642 272.071774 
L 34.996003 274.486124 
" clip-path="url(#p9396ab6b6f)" style="fill: none; stroke: #ff0000; stroke-width: 1.5"/>
   </g>
   <g id="PathCollection_3">
    <path d="M 207.260164 274.486124 
L 207.719142 273.362096 
L 208.229028 272.071774 
L 209.163615 269.657423 
L 210.078732 267.243072 
L 210.133493 267.095456 
L 210.9481 264.828722 
L 211.796896 262.414371 
L 212.547843 260.229795 
L 212.624435 260.000021 
L 213.410928 257.58567 
L 214.179131 255.171319 
L 214.929043 252.756969 
L 214.962194 252.647569 
L 215.640121 250.342618 
L 216.332471 247.928268 
L 217.007069 245.513917 
L 217.376545 244.155845 
L 217.655704 243.099566 
L 218.276537 240.685216 
L 218.880125 238.270865 
L 219.466467 235.856515 
L 219.790895 234.480152 
L 220.028768 233.442164 
L 220.56529 231.027813 
L 221.085046 228.613463 
L 221.588036 226.199112 
L 222.074259 223.784762 
L 222.205246 223.111115 
L 222.534568 221.370411 
L 222.975024 218.95606 
L 223.399167 216.54171 
L 223.806996 214.127359 
L 224.198513 211.713008 
L 224.573716 209.298658 
L 224.619597 208.990005 
L 224.924369 206.884307 
L 225.25793 204.469957 
L 225.575608 202.055606 
L 225.877402 199.641255 
L 226.163312 197.226905 
L 226.433338 194.812554 
L 226.68748 192.398204 
L 226.925738 189.983853 
L 227.033947 188.809013 
L 227.145185 187.569502 
L 227.346381 185.155152 
L 227.5321 182.740801 
L 227.702343 180.326451 
L 227.857109 177.9121 
L 227.996399 175.497749 
L 228.120211 173.083399 
L 228.228548 170.669048 
L 228.321407 168.254698 
L 228.39879 165.840347 
L 228.460697 163.425996 
L 228.507127 161.011646 
L 228.53808 158.597295 
L 228.553556 156.182945 
L 228.553556 153.768594 
L 228.53808 151.354243 
L 228.507127 148.939893 
L 228.460697 146.525542 
L 228.39879 144.111192 
L 228.321407 141.696841 
L 228.228548 139.28249 
L 228.120211 136.86814 
L 227.996399 134.453789 
L 227.857109 132.039438 
L 227.702343 129.625088 
L 227.5321 127.210737 
L 227.346381 124.796387 
L 227.245761 123.58894 
" clip-path="url(#p9396ab6b6f)" style="fill: none; stroke: #ff0000; stroke-width: 1.5"/>
    <path d="M 224.762204 101.946821 
L 224.619597 100.961533 
L 224.573716 100.652881 
L 224.198513 98.23853 
L 223.806996 95.824179 
L 223.399167 93.409829 
L 222.975024 90.995478 
L 222.534568 88.581128 
L 222.205246 86.840424 
L 222.074259 86.166777 
L 221.588036 83.752426 
L 221.085046 81.338076 
L 220.56529 78.923725 
L 220.028768 76.509375 
L 219.790895 75.471387 
L 219.466467 74.095024 
L 218.880125 71.680673 
L 218.276537 69.266323 
L 217.655704 66.851972 
L 217.376545 65.795694 
L 217.007069 64.437621 
L 216.332471 62.023271 
L 215.640121 59.60892 
L 214.962194 57.30397 
L 214.929043 57.19457 
L 214.179131 54.780219 
L 213.410928 52.365868 
L 212.624435 49.951518 
L 212.547843 49.721743 
L 211.796896 47.537167 
L 210.9481 45.122817 
L 210.133493 42.856083 
L 210.078732 42.708466 
L 209.163615 40.294115 
L 208.229028 37.879765 
L 207.719142 36.589442 
L 207.260164 35.465414 
" clip-path="url(#p9396ab6b6f)" style="fill: none; stroke: #ff0000; stroke-width: 1.5"/>
    <path d="M 60.902733 35.465414 
L 60.443755 36.589442 
L 59.93387 37.879765 
L 58.999282 40.294115 
L 58.084166 42.708466 
L 58.029405 42.856083 
L 57.214797 45.122817 
L 56.366002 47.537167 
L 55.615054 49.721743 
L 55.538462 49.951518 
L 54.751969 52.365868 
L 53.983767 54.780219 
L 53.233855 57.19457 
L 53.200703 57.30397 
L 52.522777 59.60892 
L 51.830426 62.023271 
L 51.155828 64.437621 
L 50.786353 65.795694 
L 50.507194 66.851972 
L 49.886361 69.266323 
L 49.282773 71.680673 
L 48.696431 74.095024 
L 48.372002 75.471387 
L 48.13413 76.509375 
L 47.597608 78.923725 
L 47.077852 81.338076 
L 46.574862 83.752426 
L 46.088639 86.166777 
L 45.957652 86.840424 
L 45.628329 88.581128 
L 45.187873 90.995478 
L 44.763731 93.409829 
L 44.355901 95.824179 
L 43.964385 98.23853 
L 43.589182 100.652881 
L 43.543301 100.961533 
L 43.238529 103.067231 
L 42.904967 105.481582 
L 42.58729 107.895932 
L 42.285496 110.310283 
L 41.999586 112.724634 
L 41.72956 115.138984 
L 41.475418 117.553335 
L 41.237159 119.967685 
L 41.12895 121.142526 
L 41.017712 122.382036 
L 40.816516 124.796387 
L 40.630797 127.210737 
L 40.460554 129.625088 
L 40.305788 132.039438 
L 40.166499 134.453789 
L 40.042686 136.86814 
L 39.93435 139.28249 
L 39.84149 141.696841 
L 39.764107 144.111192 
L 39.702201 146.525542 
L 39.655771 148.939893 
L 39.624818 151.354243 
L 39.609341 153.768594 
L 39.609341 156.182945 
L 39.624818 158.597295 
L 39.655771 161.011646 
L 39.702201 163.425996 
L 39.764107 165.840347 
L 39.84149 168.254698 
L 39.93435 170.669048 
L 40.042686 173.083399 
L 40.166499 175.497749 
L 40.305788 177.9121 
L 40.460554 180.326451 
L 40.630797 182.740801 
L 40.816516 185.155152 
L 40.917137 186.362598 
" clip-path="url(#p9396ab6b6f)" style="fill: none; stroke: #ff0000; stroke-width: 1.5"/>
    <path d="M 43.400694 208.004718 
L 43.543301 208.990005 
L 43.589182 209.298658 
L 43.964385 211.713008 
L 44.355901 214.127359 
L 44.763731 216.54171 
L 45.187873 218.95606 
L 45.628329 221.370411 
L 45.957652 223.111115 
L 46.088639 223.784762 
L 46.574862 226.199112 
L 47.077852 228.613463 
L 47.597608 231.027813 
L 48.13413 233.442164 
L 48.372002 234.480152 
L 48.696431 235.856515 
L 49.282773 238.270865 
L 49.886361 240.685216 
L 50.507194 243.099566 
L 50.786353 244.155845 
L 51.155828 245.513917 
L 51.830426 247.928268 
L 52.522777 250.342618 
L 53.200703 252.647569 
L 53.233855 252.756969 
L 53.983767 255.171319 
L 54.751969 257.58567 
L 55.538462 260.000021 
L 55.615054 260.229795 
L 56.366002 262.414371 
L 57.214797 264.828722 
L 58.029405 267.095456 
L 58.084166 267.243072 
L 58.999282 269.657423 
L 59.93387 272.071774 
L 60.443755 273.362096 
L 60.902733 274.486124 
" clip-path="url(#p9396ab6b6f)" style="fill: none; stroke: #ff0000; stroke-width: 1.5"/>
   </g>
   <g id="PathCollection_4">
    <path d="M 163.948035 274.486124 
L 164.260831 274.179711 
L 166.247157 272.071774 
L 166.675182 271.60808 
L 168.347174 269.657423 
L 169.089533 268.77291 
L 170.287906 267.243072 
L 171.503883 265.657015 
L 172.099219 264.828722 
L 173.796809 262.414371 
L 173.918234 262.237753 
L 175.366178 260.000021 
L 176.332584 258.471751 
L 176.861771 257.58567 
L 178.270143 255.171319 
L 178.746935 254.334026 
L 179.597716 252.756969 
L 180.868426 250.342618 
L 181.161286 249.771918 
L 182.060065 247.928268 
L 183.206882 245.513917 
L 183.575636 244.71661 
L 184.287906 243.099566 
L 185.322627 240.685216 
L 185.989987 239.083553 
L 186.313215 238.270865 
L 187.246032 235.856515 
L 188.151414 233.442164 
L 188.404337 232.746623 
L 189.002184 231.027813 
L 189.815716 228.613463 
L 190.603004 226.199112 
L 190.818688 225.514873 
L 191.341326 223.784762 
L 192.045511 221.370411 
L 192.724547 218.95606 
L 193.233039 217.078554 
L 193.372618 216.54171 
L 193.976206 214.127359 
L 194.55565 211.713008 
L 195.110951 209.298658 
L 195.642108 206.884307 
L 195.647389 206.859158 
L 196.129824 204.469957 
L 196.594122 202.055606 
L 197.035206 199.641255 
L 197.453074 197.226905 
L 197.847727 194.812554 
L 198.06174 193.421473 
L 198.213335 192.398204 
L 198.548662 189.983853 
L 198.861633 187.569502 
L 199.152249 185.155152 
L 199.420511 182.740801 
L 199.666417 180.326451 
L 199.889968 177.9121 
L 200.091164 175.497749 
L 200.270004 173.083399 
L 200.42649 170.669048 
L 200.47609 169.776241 
L 200.557602 168.254698 
L 200.665385 165.840347 
L 200.751612 163.425996 
L 200.816282 161.011646 
L 200.859396 158.597295 
L 200.880952 156.182945 
L 200.880952 153.768594 
L 200.859396 151.354243 
L 200.816282 148.939893 
L 200.751612 146.525542 
L 200.665385 144.111192 
L 200.557602 141.696841 
L 200.495694 140.541222 
" clip-path="url(#p9396ab6b6f)" style="fill: none; stroke: #ff0000; stroke-width: 1.5"/>
    <path d="M 198.388157 118.812053 
L 198.213335 117.553335 
L 198.06174 116.530065 
L 197.847727 115.138984 
L 197.453074 112.724634 
L 197.035206 110.310283 
L 196.594122 107.895932 
L 196.129824 105.481582 
L 195.647389 103.092381 
L 195.642108 103.067231 
L 195.110951 100.652881 
L 194.55565 98.23853 
L 193.976206 95.824179 
L 193.372618 93.409829 
L 193.233039 92.872984 
L 192.724547 90.995478 
L 192.045511 88.581128 
L 191.341326 86.166777 
L 190.818688 84.436666 
L 190.603004 83.752426 
L 189.815716 81.338076 
L 189.002184 78.923725 
L 188.404337 77.204915 
L 188.151414 76.509375 
L 187.246032 74.095024 
L 186.313215 71.680673 
L 185.989987 70.867986 
L 185.322627 69.266323 
L 184.287906 66.851972 
L 183.575636 65.234928 
L 183.206882 64.437621 
L 182.060065 62.023271 
L 181.161286 60.17962 
L 180.868426 59.60892 
L 179.597716 57.19457 
L 178.746935 55.617513 
L 178.270143 54.780219 
L 176.861771 52.365868 
L 176.332584 51.479788 
L 175.366178 49.951518 
L 173.918234 47.713785 
L 173.796809 47.537167 
L 172.099219 45.122817 
L 171.503883 44.294524 
L 170.287906 42.708466 
L 169.089533 41.178628 
L 168.347174 40.294115 
L 166.675182 38.343458 
L 166.247157 37.879765 
L 164.260831 35.771827 
L 163.948035 35.465414 
" clip-path="url(#p9396ab6b6f)" style="fill: none; stroke: #ff0000; stroke-width: 1.5"/>
    <path d="M 104.214863 35.465414 
L 103.902066 35.771827 
L 101.91574 37.879765 
L 101.487716 38.343458 
L 99.815724 40.294115 
L 99.073365 41.178628 
L 97.874992 42.708466 
L 96.659014 44.294524 
L 96.063679 45.122817 
L 94.366089 47.537167 
L 94.244664 47.713785 
L 92.796719 49.951518 
L 91.830313 51.479788 
L 91.301126 52.365868 
L 89.892755 54.780219 
L 89.415963 55.617513 
L 88.565182 57.19457 
L 87.294471 59.60892 
L 87.001612 60.17962 
L 86.102832 62.023271 
L 84.956016 64.437621 
L 84.587261 65.234928 
L 83.874992 66.851972 
L 82.84027 69.266323 
L 82.172911 70.867986 
L 81.849683 71.680673 
L 80.916865 74.095024 
L 80.011484 76.509375 
L 79.75856 77.204915 
L 79.160713 78.923725 
L 78.347182 81.338076 
L 77.559894 83.752426 
L 77.34421 84.436666 
L 76.821572 86.166777 
L 76.117386 88.581128 
L 75.43835 90.995478 
L 74.929859 92.872984 
L 74.790279 93.409829 
L 74.186692 95.824179 
L 73.607247 98.23853 
L 73.051947 100.652881 
L 72.52079 103.067231 
L 72.515508 103.092381 
L 72.033073 105.481582 
L 71.568775 107.895932 
L 71.127692 110.310283 
L 70.709824 112.724634 
L 70.31517 115.138984 
L 70.101158 116.530065 
L 69.949562 117.553335 
L 69.614236 119.967685 
L 69.301264 122.382036 
L 69.010648 124.796387 
L 68.742387 127.210737 
L 68.496481 129.625088 
L 68.27293 132.039438 
L 68.071734 134.453789 
L 67.892893 136.86814 
L 67.736407 139.28249 
L 67.686807 140.175297 
L 67.605296 141.696841 
L 67.497512 144.111192 
L 67.411286 146.525542 
L 67.346615 148.939893 
L 67.303502 151.354243 
L 67.281945 153.768594 
L 67.281945 156.182945 
L 67.303502 158.597295 
L 67.346615 161.011646 
L 67.411286 163.425996 
L 67.497512 165.840347 
L 67.605296 168.254698 
L 67.667204 169.410316 
" clip-path="url(#p9396ab6b6f)" style="fill: none; stroke: #ff0000; stroke-width: 1.5"/>
    <path d="M 69.77474 191.139485 
L 69.949562 192.398204 
L 70.101158 193.421473 
L 70.31517 194.812554 
L 70.709824 197.226905 
L 71.127692 199.641255 
L 71.568775 202.055606 
L 72.033073 204.469957 
L 72.515508 206.859158 
L 72.52079 206.884307 
L 73.051947 209.298658 
L 73.607247 211.713008 
L 74.186692 214.127359 
L 74.790279 216.54171 
L 74.929859 217.078554 
L 75.43835 218.95606 
L 76.117386 221.370411 
L 76.821572 223.784762 
L 77.34421 225.514873 
L 77.559894 226.199112 
L 78.347182 228.613463 
L 79.160713 231.027813 
L 79.75856 232.746623 
L 80.011484 233.442164 
L 80.916865 235.856515 
L 81.849683 238.270865 
L 82.172911 239.083553 
L 82.84027 240.685216 
L 83.874992 243.099566 
L 84.587261 244.71661 
L 84.956016 245.513917 
L 86.102832 247.928268 
L 87.001612 249.771918 
L 87.294471 250.342618 
L 88.565182 252.756969 
L 89.415963 254.334026 
L 89.892755 255.171319 
L 91.301126 257.58567 
L 91.830313 258.471751 
L 92.796719 260.000021 
L 94.244664 262.237753 
L 94.366089 262.414371 
L 96.063679 264.828722 
L 96.659014 265.657015 
L 97.874992 267.243072 
L 99.073365 268.77291 
L 99.815724 269.657423 
L 101.487716 271.60808 
L 101.91574 272.071774 
L 103.902066 274.179711 
L 104.214863 274.486124 
" clip-path="url(#p9396ab6b6f)" style="fill: none; stroke: #ff0000; stroke-width: 1.5"/>
   </g>
   <g id="PathCollection_5"/>
   <g id="patch_3">
    <path d="M 134.081449 279.266538 
L 134.081449 30.685 
" style="fill: none; stroke: #000000; stroke-width: 0.8; stroke-linejoin: miter; stroke-linecap: square"/>
   </g>
   <g id="patch_4">
    <path d="M 9.79068 154.975769 
L 258.372218 154.975769 
" style="fill: none; stroke: #000000; stroke-width: 0.8; stroke-linejoin: miter; stroke-linecap: square"/>
   </g>
   <g id="text_19">
    <g clip-path="url(#p9396ab6b6f)">
     <!-- 40 -->
     <g transform="translate(236.901283 269.578823)rotate(-68.13087)scale(0.11 -0.11)">
      <defs>
       <path id="DejaVuSans-30" d="M 2034 4250 
Q 1547 4250 1301 3770 
Q 1056 3291 1056 2328 
Q 1056 1369 1301 889 
Q 1547 409 2034 409 
Q 2525 409 2770 889 
Q 3016 1369 3016 2328 
Q 3016 3291 2770 3770 
Q 2525 4250 2034 4250 
z
M 2034 4750 
Q 2819 4750 3233 4129 
Q 3647 3509 3647 2328 
Q 3647 1150 3233 529 
Q 2819 -91 2034 -91 
Q 1250 -91 836 529 
Q 422 1150 422 2328 
Q 422 3509 836 4129 
Q 1250 4750 2034 4750 
z
" transform="scale(0.015625)"/>
      </defs>
      <use xlink:href="#DejaVuSans-34"/>
      <use xlink:href="#DejaVuSans-30" x="63.623047"/>
     </g>
    </g>
   </g>
   <g id="text_20">
    <g clip-path="url(#p9396ab6b6f)">
     <!-- 40 -->
     <g transform="translate(31.681481 55.624148)rotate(-68.13087)scale(0.11 -0.11)">
      <use xlink:href="#DejaVuSans-34"/>
      <use xlink:href="#DejaVuSans-30" x="63.623047"/>
     </g>
    </g>
   </g>
   <g id="text_21">
    <g clip-path="url(#p9396ab6b6f)">
     <!-- 60 -->
     <g transform="translate(221.953564 106.362743)rotate(-280.047072)scale(0.11 -0.11)">
      <defs>
       <path id="DejaVuSans-36" d="M 2113 2584 
Q 1688 2584 1439 2293 
Q 1191 2003 1191 1497 
Q 1191 994 1439 701 
Q 1688 409 2113 409 
Q 2538 409 2786 701 
Q 3034 994 3034 1497 
Q 3034 2003 2786 2293 
Q 2538 2584 2113 2584 
z
M 3366 4563 
L 3366 3988 
Q 3128 4100 2886 4159 
Q 2644 4219 2406 4219 
Q 1781 4219 1451 3797 
Q 1122 3375 1075 2522 
Q 1259 2794 1537 2939 
Q 1816 3084 2150 3084 
Q 2853 3084 3261 2657 
Q 3669 2231 3669 1497 
Q 3669 778 3244 343 
Q 2819 -91 2113 -91 
Q 1303 -91 875 529 
Q 447 1150 447 2328 
Q 447 3434 972 4092 
Q 1497 4750 2381 4750 
Q 2619 4750 2861 4703 
Q 3103 4656 3366 4563 
z
" transform="scale(0.015625)"/>
      </defs>
      <use xlink:href="#DejaVuSans-36"/>
      <use xlink:href="#DejaVuSans-30" x="63.623047"/>
     </g>
    </g>
   </g>
   <g id="text_22">
    <g clip-path="url(#p9396ab6b6f)">
     <!-- 60 -->
     <g transform="translate(37.789838 190.865014)rotate(-280.047072)scale(0.11 -0.11)">
      <use xlink:href="#DejaVuSans-36"/>
      <use xlink:href="#DejaVuSans-30" x="63.623047"/>
     </g>
    </g>
   </g>
   <g id="text_23">
    <g clip-path="url(#p9396ab6b6f)">
     <!-- 80 -->
     <g transform="translate(195.62946 123.152175)rotate(-278.504457)scale(0.11 -0.11)">
      <defs>
       <path id="DejaVuSans-38" d="M 2034 2216 
Q 1584 2216 1326 1975 
Q 1069 1734 1069 1313 
Q 1069 891 1326 650 
Q 1584 409 2034 409 
Q 2484 409 2743 651 
Q 3003 894 3003 1313 
Q 3003 1734 2745 1975 
Q 2488 2216 2034 2216 
z
M 1403 2484 
Q 997 2584 770 2862 
Q 544 3141 544 3541 
Q 544 4100 942 4425 
Q 1341 4750 2034 4750 
Q 2731 4750 3128 4425 
Q 3525 4100 3525 3541 
Q 3525 3141 3298 2862 
Q 3072 2584 2669 2484 
Q 3125 2378 3379 2068 
Q 3634 1759 3634 1313 
Q 3634 634 3220 271 
Q 2806 -91 2034 -91 
Q 1263 -91 848 271 
Q 434 634 434 1313 
Q 434 1759 690 2068 
Q 947 2378 1403 2484 
z
M 1172 3481 
Q 1172 3119 1398 2916 
Q 1625 2713 2034 2713 
Q 2441 2713 2670 2916 
Q 2900 3119 2900 3481 
Q 2900 3844 2670 4047 
Q 2441 4250 2034 4250 
Q 1625 4250 1398 4047 
Q 1172 3844 1172 3481 
z
" transform="scale(0.015625)"/>
      </defs>
      <use xlink:href="#DejaVuSans-38"/>
      <use xlink:href="#DejaVuSans-30" x="63.623047"/>
     </g>
    </g>
   </g>
   <g id="text_24">
    <g clip-path="url(#p9396ab6b6f)">
     <!-- 80 -->
     <g transform="translate(64.459524 173.853538)rotate(-278.504457)scale(0.11 -0.11)">
      <use xlink:href="#DejaVuSans-38"/>
      <use xlink:href="#DejaVuSans-30" x="63.623047"/>
     </g>
    </g>
   </g>
  </g>
 </g>
 <defs>
  <clipPath id="p9396ab6b6f">
   <rect x="9.79068" y="30.685" width="248.581538" height="248.581538"/>
  </clipPath>
 </defs>
</svg>
